<svg xmlns="http://www.w3.org/2000/svg" xmlns:xlink="http://www.w3.org/1999/xlink" contentStyleType="text/css" data-diagram-type="DESCRIPTION" height="911px" preserveAspectRatio="none" style="width:972px;height:911px;background:#FFFFFF;" version="1.1" viewBox="0 0 972 911" width="972px" zoomAndPan="magnify"><?plantuml 1.2026.4beta2?><defs/><g><g class="title" data-source-line="1"><text fill="#000000" font-family="sans-serif" font-size="14" font-weight="700" lengthAdjust="spacing" textLength="462.5537" x="251.4909" y="22.9951">DFD &#8212; &#1060;&#1091;&#1085;&#1082;&#1094;&#1080;&#1103; 1: &#1055;&#1091;&#1073;&#1083;&#1080;&#1082;&#1072;&#1094;&#1080;&#1103; &#1074;&#1072;&#1082;&#1072;&#1085;&#1089;&#1080;&#1080; &#1088;&#1072;&#1073;&#1086;&#1090;&#1086;&#1076;&#1072;&#1090;&#1077;&#1083;&#1077;&#1084;</text></g><!--entity E1--><g class="entity" data-qualified-name="E1" data-source-line="13" id="ent0002"><rect fill="#E8F4FD" height="33.9688" rx="2.5" ry="2.5" style="stroke:#181818;stroke-width:1.5;" width="108.4297" x="635.33" y="61.7669"/><text fill="#000000" font-family="sans-serif" font-size="12" lengthAdjust="spacing" textLength="88.4297" x="645.33" y="82.9055">&#1056;&#1072;&#1073;&#1086;&#1090;&#1086;&#1076;&#1072;&#1090;&#1077;&#1083;&#1100;</text></g><!--entity E2--><g class="entity" data-qualified-name="E2" data-source-line="14" id="ent0003"><rect fill="#E8F4FD" height="33.9688" rx="2.5" ry="2.5" style="stroke:#181818;stroke-width:1.5;" width="90.2949" x="237.39" y="374.0769"/><text fill="#000000" font-family="sans-serif" font-size="12" lengthAdjust="spacing" textLength="70.2949" x="247.39" y="395.2155">&#1052;&#1086;&#1076;&#1077;&#1088;&#1072;&#1090;&#1086;&#1088;</text></g><!--entity P1--><g class="entity" data-qualified-name="P1" data-source-line="17" id="ent0004"><rect fill="#D5E8D4" height="61.9063" rx="2.5" ry="2.5" style="stroke:#181818;stroke-width:1.5;" width="80.7793" x="268.15" y="221.2069"/><text fill="#000000" font-family="sans-serif" font-size="12" lengthAdjust="spacing" textLength="14.8711" x="278.15" y="242.3455">P1</text><text fill="#000000" font-family="sans-serif" font-size="12" lengthAdjust="spacing" textLength="60.7793" x="278.15" y="256.3143">&#1057;&#1086;&#1079;&#1076;&#1072;&#1085;&#1080;&#1077;</text><text fill="#000000" font-family="sans-serif" font-size="12" lengthAdjust="spacing" textLength="59.0684" x="278.15" y="270.283">&#1074;&#1072;&#1082;&#1072;&#1085;&#1089;&#1080;&#1080;</text></g><!--entity P2--><g class="entity" data-qualified-name="P2" data-source-line="18" id="ent0005"><rect fill="#D5E8D4" height="61.9063" rx="2.5" ry="2.5" style="stroke:#181818;stroke-width:1.5;" width="89.8906" x="103.6" y="360.1169"/><text fill="#000000" font-family="sans-serif" font-size="12" lengthAdjust="spacing" textLength="14.8711" x="113.6" y="381.2555">P2</text><text fill="#000000" font-family="sans-serif" font-size="12" lengthAdjust="spacing" textLength="69.8906" x="113.6" y="395.2243">&#1042;&#1072;&#1083;&#1080;&#1076;&#1072;&#1094;&#1080;&#1103;</text><text fill="#000000" font-family="sans-serif" font-size="12" lengthAdjust="spacing" textLength="47.918" x="113.6" y="409.193">&#1076;&#1072;&#1085;&#1085;&#1099;&#1093;</text></g><!--entity P3--><g class="entity" data-qualified-name="P3" data-source-line="19" id="ent0006"><rect fill="#D5E8D4" height="61.9063" rx="2.5" ry="2.5" style="stroke:#181818;stroke-width:1.5;" width="91.5313" x="227.78" y="514.0169"/><text fill="#000000" font-family="sans-serif" font-size="12" lengthAdjust="spacing" textLength="14.8711" x="237.78" y="535.1555">P3</text><text fill="#000000" font-family="sans-serif" font-size="12" lengthAdjust="spacing" textLength="71.5313" x="237.78" y="549.1243">&#1052;&#1086;&#1076;&#1077;&#1088;&#1072;&#1094;&#1080;&#1103;</text><text fill="#000000" font-family="sans-serif" font-size="12" lengthAdjust="spacing" textLength="59.0684" x="237.78" y="563.093">&#1074;&#1072;&#1082;&#1072;&#1085;&#1089;&#1080;&#1080;</text></g><!--entity P4--><g class="entity" data-qualified-name="P4" data-source-line="20" id="ent0007"><rect fill="#D5E8D4" height="61.9063" rx="2.5" ry="2.5" style="stroke:#181818;stroke-width:1.5;" width="96.7813" x="221.15" y="657.4269"/><text fill="#000000" font-family="sans-serif" font-size="12" lengthAdjust="spacing" textLength="14.8711" x="231.15" y="678.5655">P4</text><text fill="#000000" font-family="sans-serif" font-size="12" lengthAdjust="spacing" textLength="76.7813" x="231.15" y="692.5343">&#1055;&#1091;&#1073;&#1083;&#1080;&#1082;&#1072;&#1094;&#1080;&#1103;</text><text fill="#000000" font-family="sans-serif" font-size="12" lengthAdjust="spacing" textLength="59.0684" x="231.15" y="706.503">&#1074;&#1072;&#1082;&#1072;&#1085;&#1089;&#1080;&#1080;</text></g><!--entity P5--><g class="entity" data-qualified-name="P5" data-source-line="21" id="ent0008"><rect fill="#D5E8D4" height="61.9063" rx="2.5" ry="2.5" style="stroke:#181818;stroke-width:1.5;" width="104.1641" x="537.46" y="820.3269"/><text fill="#000000" font-family="sans-serif" font-size="12" lengthAdjust="spacing" textLength="14.8711" x="547.46" y="841.4655">P5</text><text fill="#000000" font-family="sans-serif" font-size="12" lengthAdjust="spacing" textLength="60.9258" x="547.46" y="855.4343">&#1054;&#1090;&#1087;&#1088;&#1072;&#1074;&#1082;&#1072;</text><text fill="#000000" font-family="sans-serif" font-size="12" lengthAdjust="spacing" textLength="84.1641" x="547.46" y="869.403">&#1091;&#1074;&#1077;&#1076;&#1086;&#1084;&#1083;&#1077;&#1085;&#1080;&#1103;</text></g><!--entity D1--><g class="entity" data-qualified-name="D1" data-source-line="24" id="ent0009"><path d="M6.44,825.8269 C6.44,815.8269 62.5416,815.8269 62.5416,815.8269 C62.5416,815.8269 118.6431,815.8269 118.6431,825.8269 L118.6431,876.7331 C118.6431,886.7331 62.5416,886.7331 62.5416,886.7331 C62.5416,886.7331 6.44,886.7331 6.44,876.7331 L6.44,825.8269" fill="#F1F1F1" style="stroke:#181818;stroke-width:1.5;"/><path d="M6.44,825.8269 C6.44,835.8269 62.5416,835.8269 62.5416,835.8269 C62.5416,835.8269 118.6431,835.8269 118.6431,825.8269" fill="none" style="stroke:#181818;stroke-width:1.5;"/><text fill="#000000" font-family="sans-serif" font-size="12" lengthAdjust="spacing" textLength="16.875" x="16.44" y="850.9655">D1</text><text fill="#000000" font-family="sans-serif" font-size="12" lengthAdjust="spacing" textLength="92.2031" x="16.44" y="864.9343">&#1041;&#1072;&#1079;&#1072; &#1074;&#1072;&#1082;&#1072;&#1085;&#1089;&#1080;&#1081;</text><text fill="#000000" font-family="sans-serif" font-size="12" lengthAdjust="spacing" textLength="68.9414" x="16.44" y="878.903">(vacancies)</text></g><!--entity D2--><g class="entity" data-qualified-name="D2" data-source-line="25" id="ent0010"><path d="M233.51,53.2969 C233.51,43.2969 308.5373,43.2969 308.5373,43.2969 C308.5373,43.2969 383.5647,43.2969 383.5647,53.2969 L383.5647,104.2031 C383.5647,114.2031 308.5373,114.2031 308.5373,114.2031 C308.5373,114.2031 233.51,114.2031 233.51,104.2031 L233.51,53.2969" fill="#F1F1F1" style="stroke:#181818;stroke-width:1.5;"/><path d="M233.51,53.2969 C233.51,63.2969 308.5373,63.2969 308.5373,63.2969 C308.5373,63.2969 383.5647,63.2969 383.5647,53.2969" fill="none" style="stroke:#181818;stroke-width:1.5;"/><text fill="#000000" font-family="sans-serif" font-size="12" lengthAdjust="spacing" textLength="16.875" x="243.51" y="78.4355">D2</text><text fill="#000000" font-family="sans-serif" font-size="12" lengthAdjust="spacing" textLength="130.0547" x="243.51" y="92.4043">&#1041;&#1072;&#1079;&#1072; &#1088;&#1072;&#1073;&#1086;&#1090;&#1086;&#1076;&#1072;&#1090;&#1077;&#1083;&#1077;&#1081;</text><text fill="#000000" font-family="sans-serif" font-size="12" lengthAdjust="spacing" textLength="72.3984" x="243.51" y="106.373">(employers)</text></g><!--entity D3--><g class="entity" data-qualified-name="D3" data-source-line="26" id="ent0011"><path d="M371.09,662.9269 C371.09,652.9269 445.5461,652.9269 445.5461,652.9269 C445.5461,652.9269 520.0021,652.9269 520.0021,662.9269 L520.0021,713.8331 C520.0021,723.8331 445.5461,723.8331 445.5461,723.8331 C445.5461,723.8331 371.09,723.8331 371.09,713.8331 L371.09,662.9269" fill="#F1F1F1" style="stroke:#181818;stroke-width:1.5;"/><path d="M371.09,662.9269 C371.09,672.9269 445.5461,672.9269 445.5461,672.9269 C445.5461,672.9269 520.0021,672.9269 520.0021,662.9269" fill="none" style="stroke:#181818;stroke-width:1.5;"/><text fill="#000000" font-family="sans-serif" font-size="12" lengthAdjust="spacing" textLength="16.875" x="381.09" y="688.0655">D3</text><text fill="#000000" font-family="sans-serif" font-size="12" lengthAdjust="spacing" textLength="128.9121" x="381.09" y="702.0343">&#1054;&#1095;&#1077;&#1088;&#1077;&#1076;&#1100; &#1084;&#1086;&#1076;&#1077;&#1088;&#1072;&#1094;&#1080;&#1080;</text><text fill="#000000" font-family="sans-serif" font-size="12" lengthAdjust="spacing" textLength="122.2617" x="381.09" y="716.003">(moderation_queue)</text></g><!--entity D4--><g class="entity" data-qualified-name="D4" data-source-line="27" id="ent0012"><path d="M224.93,825.8269 C224.93,815.8269 284.5413,815.8269 284.5413,815.8269 C284.5413,815.8269 344.1527,815.8269 344.1527,825.8269 L344.1527,876.7331 C344.1527,886.7331 284.5413,886.7331 284.5413,886.7331 C284.5413,886.7331 224.93,886.7331 224.93,876.7331 L224.93,825.8269" fill="#F1F1F1" style="stroke:#181818;stroke-width:1.5;"/><path d="M224.93,825.8269 C224.93,835.8269 284.5413,835.8269 284.5413,835.8269 C284.5413,835.8269 344.1527,835.8269 344.1527,825.8269" fill="none" style="stroke:#181818;stroke-width:1.5;"/><text fill="#000000" font-family="sans-serif" font-size="12" lengthAdjust="spacing" textLength="16.875" x="234.93" y="850.9655">D4</text><text fill="#000000" font-family="sans-serif" font-size="12" lengthAdjust="spacing" textLength="99.2227" x="234.93" y="864.9343">&#1046;&#1091;&#1088;&#1085;&#1072;&#1083; &#1072;&#1091;&#1076;&#1080;&#1090;&#1072;</text><text fill="#000000" font-family="sans-serif" font-size="12" lengthAdjust="spacing" textLength="86.4082" x="234.93" y="878.903">(audit_events)</text></g><!--link E1 to P1--><g class="link" data-entity-1="ent0002" data-entity-2="ent0004" data-link-type="dependency" data-source-line="30" id="lnk13"><path d="M661.86,96.0569 C622.14,119.0669 546.29,161.5569 478.54,191.2069 C435.39,210.0869 389.935,225.6595 355.095,236.7995" fill="none" id="E1-to-P1" style="stroke:#181818;stroke-width:1;"/><polygon fill="#181818" points="349.38,238.6269,359.1707,239.6958,354.1425,237.1041,356.7342,232.0759,349.38,238.6269" style="stroke:#181818;stroke-width:1;"/><text fill="#000000" font-family="sans-serif" font-size="13" lengthAdjust="spacing" textLength="120.3389" x="586.5622" y="157.2738">&#1076;&#1072;&#1085;&#1085;&#1099;&#1077; &#1074;&#1072;&#1082;&#1072;&#1085;&#1089;&#1080;&#1080;</text><text fill="#000000" font-family="sans-serif" font-size="13" lengthAdjust="spacing" textLength="146.3833" x="573.54" y="172.4066">(&#1085;&#1072;&#1079;&#1074;&#1072;&#1085;&#1080;&#1077;, &#1086;&#1087;&#1080;&#1089;&#1072;&#1085;&#1080;&#1077;,</text><text fill="#000000" font-family="sans-serif" font-size="13" lengthAdjust="spacing" textLength="127.4736" x="582.9948" y="187.5394">&#1085;&#1072;&#1074;&#1099;&#1082;&#1080;, &#1079;&#1072;&#1088;&#1087;&#1083;&#1072;&#1090;&#1072;)</text></g><!--link D2 to P1--><g class="link" data-entity-1="ent0010" data-entity-2="ent0004" data-link-type="dependency" data-source-line="31" id="lnk14"><path d="M308.54,114.4369 C308.54,145.6469 308.54,185.0369 308.54,214.8269" fill="none" id="D2-to-P1" style="stroke:#181818;stroke-width:1;"/><polygon fill="#181818" points="308.54,220.8269,312.54,211.8269,308.54,215.8269,304.54,211.8269,308.54,220.8269" style="stroke:#181818;stroke-width:1;"/><text fill="#000000" font-family="sans-serif" font-size="13" lengthAdjust="spacing" textLength="160.7417" x="309.54" y="172.2738">&#1087;&#1088;&#1086;&#1092;&#1080;&#1083;&#1100; &#1088;&#1072;&#1073;&#1086;&#1090;&#1086;&#1076;&#1072;&#1090;&#1077;&#1083;&#1103;</text></g><!--link P1 to P2--><g class="link" data-entity-1="ent0004" data-entity-2="ent0005" data-link-type="dependency" data-source-line="32" id="lnk15"><path d="M273.03,283.5469 C246.52,306.2269 214.9986,333.1957 188.5086,355.8657" fill="none" id="P1-to-P2" style="stroke:#181818;stroke-width:1;"/><polygon fill="#181818" points="183.95,359.7669,193.3887,356.9541,187.7488,356.5159,188.1871,350.876,183.95,359.7669" style="stroke:#181818;stroke-width:1;"/><text fill="#000000" font-family="sans-serif" font-size="13" lengthAdjust="spacing" textLength="132.4692" x="239.54" y="326.1838">&#1095;&#1077;&#1088;&#1085;&#1086;&#1074;&#1080;&#1082; &#1074;&#1072;&#1082;&#1072;&#1085;&#1089;&#1080;&#1080;</text></g><!--link P2 to D1--><g class="link" data-entity-1="ent0005" data-entity-2="ent0009" data-link-type="dependency" data-source-line="33" id="lnk16"><path d="M124.17,422.3569 C94.11,461.8369 44.66,534.3369 25.54,605.9269 C6,679.0869 28.9389,761.8884 46.3489,809.7484" fill="none" id="P2-to-D1" style="stroke:#181818;stroke-width:1;"/><polygon fill="#181818" points="48.4,815.3869,49.0823,805.5617,46.6907,810.6881,41.5643,808.2965,48.4,815.3869" style="stroke:#181818;stroke-width:1;"/><text fill="#000000" font-family="sans-serif" font-size="13" lengthAdjust="spacing" textLength="118.6821" x="26.54" y="618.9938">&#1089;&#1086;&#1093;&#1088;&#1072;&#1085;&#1080;&#1090;&#1100; DRAFT</text></g><!--link P2 to P3--><g class="link" data-entity-1="ent0005" data-entity-2="ent0006" data-link-type="dependency" data-source-line="34" id="lnk17"><path d="M151.78,422.3269 C155.12,441.5869 161.88,466.1869 175.54,484.0169 C188.88,501.4369 203.5458,512.1523 221.9858,521.9023" fill="none" id="P2-to-P3" style="stroke:#181818;stroke-width:1;"/><polygon fill="#181818" points="227.29,524.7069,221.2034,516.9639,222.8698,522.3697,217.464,524.0362,227.29,524.7069" style="stroke:#181818;stroke-width:1;"/><text fill="#000000" font-family="sans-serif" font-size="13" lengthAdjust="spacing" textLength="92.6123" x="176.54" y="465.0838">&#1074;&#1072;&#1082;&#1072;&#1085;&#1089;&#1080;&#1103; &#1076;&#1083;&#1103;</text><text fill="#000000" font-family="sans-serif" font-size="13" lengthAdjust="spacing" textLength="64.9175" x="190.3874" y="480.2166">&#1087;&#1088;&#1086;&#1074;&#1077;&#1088;&#1082;&#1080;</text></g><!--link P3 to D3--><g class="link" data-entity-1="ent0006" data-entity-2="ent0011" data-link-type="dependency" data-source-line="35" id="lnk18"><path d="M319.78,557.9869 C347.75,567.2369 382.54,582.4669 406.54,605.9269 C419.66,618.7469 426.7472,631.268 432.9572,647.168" fill="none" id="P3-to-D3" style="stroke:#181818;stroke-width:1;"/><polygon fill="#181818" points="435.14,652.7569,435.5917,642.9184,433.321,648.0995,428.1399,645.8288,435.14,652.7569" style="stroke:#181818;stroke-width:1;"/><text fill="#000000" font-family="sans-serif" font-size="13" lengthAdjust="spacing" textLength="119.939" x="420.54" y="618.9938">&#1079;&#1072;&#1076;&#1072;&#1095;&#1072; &#1074; &#1086;&#1095;&#1077;&#1088;&#1077;&#1076;&#1100;</text></g><!--link E2 to P3--><g class="link" data-entity-1="ent0003" data-entity-2="ent0006" data-link-type="dependency" data-source-line="36" id="lnk19"><path d="M281.58,408.3169 C280.09,433.4269 277.5652,476.0474 275.6852,507.7474" fill="none" id="E2-to-P3" style="stroke:#181818;stroke-width:1;"/><polygon fill="#181818" points="275.33,513.7369,279.8558,504.9895,275.626,508.7456,271.8698,504.5159,275.33,513.7369" style="stroke:#181818;stroke-width:1;"/><text fill="#000000" font-family="sans-serif" font-size="13" lengthAdjust="spacing" textLength="147.9321" x="286.3037" y="465.0838">&#1088;&#1077;&#1096;&#1077;&#1085;&#1080;&#1077; &#1084;&#1086;&#1076;&#1077;&#1088;&#1072;&#1090;&#1086;&#1088;&#1072;</text><text fill="#000000" font-family="sans-serif" font-size="13" lengthAdjust="spacing" textLength="159.4595" x="280.54" y="480.2166">(&#1086;&#1076;&#1086;&#1073;&#1088;&#1080;&#1090;&#1100; / &#1086;&#1090;&#1082;&#1083;&#1086;&#1085;&#1080;&#1090;&#1100;)</text></g><!--link P3 to D1--><g class="link" data-entity-1="ent0006" data-entity-2="ent0009" data-link-type="dependency" data-source-line="37" id="lnk20"><path d="M227.35,569.0269 C194.6,587.5469 151.95,616.4669 125.54,652.9269 C89.56,702.5869 74.5026,767.7114 67.8326,809.6414" fill="none" id="P3-to-D1" style="stroke:#181818;stroke-width:1;"/><polygon fill="#181818" points="66.89,815.5669,72.2542,807.307,67.6755,810.629,64.3536,806.0502,66.89,815.5669" style="stroke:#181818;stroke-width:1;"/><text fill="#000000" font-family="sans-serif" font-size="13" lengthAdjust="spacing" textLength="69.9385" x="129.9265" y="685.4438">&#1088;&#1077;&#1079;&#1091;&#1083;&#1100;&#1090;&#1072;&#1090;</text><text fill="#000000" font-family="sans-serif" font-size="13" lengthAdjust="spacing" textLength="76.7114" x="126.54" y="700.5766">&#1084;&#1086;&#1076;&#1077;&#1088;&#1072;&#1094;&#1080;&#1080;</text></g><!--link P3 to P4--><g class="link" data-entity-1="ent0006" data-entity-2="ent0007" data-link-type="dependency" data-source-line="38" id="lnk21"><path d="M260.1,576.2069 C256.6,585.5469 253.31,595.9869 251.54,605.9269 C248.53,622.8969 250.3986,635.9637 255.1986,651.2137" fill="none" id="P3-to-P4" style="stroke:#181818;stroke-width:1;"/><polygon fill="#181818" points="257,656.9369,258.1134,647.1511,255.4988,652.1675,250.4824,649.553,257,656.9369" style="stroke:#181818;stroke-width:1;"/><text fill="#000000" font-family="sans-serif" font-size="13" lengthAdjust="spacing" textLength="149.4429" x="252.54" y="618.9938">&#1086;&#1076;&#1086;&#1073;&#1088;&#1077;&#1085;&#1085;&#1072;&#1103; &#1074;&#1072;&#1082;&#1072;&#1085;&#1089;&#1080;&#1103;</text></g><!--link P4 to D1--><g class="link" data-entity-1="ent0007" data-entity-2="ent0009" data-link-type="dependency" data-source-line="39" id="lnk22"><path d="M220.92,709.0569 C196.63,720.1769 167.58,735.5369 144.54,753.8269 C122.34,771.4669 105.3139,791.0349 90.2939,810.8549" fill="none" id="P4-to-D1" style="stroke:#181818;stroke-width:1;"/><polygon fill="#181818" points="86.67,815.6369,95.2938,810.8798,89.6899,811.6519,88.9178,806.048,86.67,815.6369" style="stroke:#181818;stroke-width:1;"/><text fill="#000000" font-family="sans-serif" font-size="13" lengthAdjust="spacing" textLength="122.8335" x="145.54" y="774.3938">&#1089;&#1090;&#1072;&#1090;&#1091;&#1089; PUBLISHED</text></g><!--link P4 to D4--><g class="link" data-entity-1="ent0007" data-entity-2="ent0012" data-link-type="dependency" data-source-line="40" id="lnk23"><path d="M272.36,719.6469 C274.9,746.8669 278.0734,780.8727 280.7334,809.4227" fill="none" id="P4-to-D4" style="stroke:#181818;stroke-width:1;"/><polygon fill="#181818" points="281.29,815.3969,284.4378,806.0646,280.8262,810.4184,276.4723,806.8068,281.29,815.3969" style="stroke:#181818;stroke-width:1;"/><text fill="#000000" font-family="sans-serif" font-size="13" lengthAdjust="spacing" textLength="144.0664" x="279.54" y="774.3938">&#1089;&#1086;&#1073;&#1099;&#1090;&#1080;&#1077; &#1087;&#1091;&#1073;&#1083;&#1080;&#1082;&#1072;&#1094;&#1080;&#1080;</text></g><!--link P3 to P5--><g class="link" data-entity-1="ent0006" data-entity-2="ent0008" data-link-type="dependency" data-source-line="41" id="lnk24"><path d="M319.78,549.8669 C389.73,556.7369 517.62,573.4669 548.54,605.9269 C604.33,664.4769 600.9962,762.8586 594.9162,814.1586" fill="none" id="P3-to-P5" style="stroke:#181818;stroke-width:1;"/><polygon fill="#181818" points="594.21,820.1169,599.2415,811.6502,594.7985,815.1516,591.2971,810.7086,594.21,820.1169" style="stroke:#181818;stroke-width:1;"/><text fill="#000000" font-family="sans-serif" font-size="13" lengthAdjust="spacing" textLength="150.7822" x="595.54" y="692.9438">&#1088;&#1077;&#1079;&#1091;&#1083;&#1100;&#1090;&#1072;&#1090; &#1084;&#1086;&#1076;&#1077;&#1088;&#1072;&#1094;&#1080;&#1080;</text></g><!--link P4 to P5--><g class="link" data-entity-1="ent0007" data-entity-2="ent0008" data-link-type="dependency" data-source-line="42" id="lnk25"><path d="M318.33,709.5969 C329.85,714.3169 342.12,719.2869 353.54,723.8269 C388.06,737.5469 399.82,734.5169 431.54,753.8269 C449.83,764.9669 449.95,773.6269 467.54,785.8269 C489.29,800.9169 509.6359,812.2988 531.8259,823.4188" fill="none" id="P4-to-P5" style="stroke:#181818;stroke-width:1;"/><polygon fill="#181818" points="537.19,826.1069,530.9359,818.4986,532.7199,823.8668,527.3517,825.6508,537.19,826.1069" style="stroke:#181818;stroke-width:1;"/><text fill="#000000" font-family="sans-serif" font-size="13" lengthAdjust="spacing" textLength="91.3555" x="470.1713" y="766.8938">&#1091;&#1074;&#1077;&#1076;&#1086;&#1084;&#1083;&#1077;&#1085;&#1080;&#1077;</text><text fill="#000000" font-family="sans-serif" font-size="13" lengthAdjust="spacing" textLength="94.6182" x="468.54" y="782.0266">&#1086; &#1087;&#1091;&#1073;&#1083;&#1080;&#1082;&#1072;&#1094;&#1080;&#1080;</text></g><!--link P5 to E1--><g class="link" data-entity-1="ent0008" data-entity-2="ent0002" data-link-type="dependency" data-source-line="43" id="lnk26"><path d="M642.07,834.5269 C702.81,812.6769 794.54,766.8569 794.54,689.3769 C794.54,251.1569 794.54,251.1569 794.54,251.1569 C794.54,185.8969 742.8959,128.6219 712.6859,100.2819" fill="none" id="P5-to-E1" style="stroke:#181818;stroke-width:1;"/><polygon fill="#181818" points="708.31,96.1769,712.1372,105.2517,711.9566,99.5977,717.6106,99.4172,708.31,96.1769" style="stroke:#181818;stroke-width:1;"/><text fill="#000000" font-family="sans-serif" font-size="13" lengthAdjust="spacing" textLength="91.3555" x="830.3601" y="465.0838">&#1091;&#1074;&#1077;&#1076;&#1086;&#1084;&#1083;&#1077;&#1085;&#1080;&#1077;</text><text fill="#000000" font-family="sans-serif" font-size="13" lengthAdjust="spacing" textLength="160.9956" x="795.54" y="480.2166">(&#1086;&#1076;&#1086;&#1073;&#1088;&#1077;&#1085;&#1086; / &#1086;&#1090;&#1082;&#1083;&#1086;&#1085;&#1077;&#1085;&#1086;)</text></g><?plantuml-src ZLHHQzDG57xFhxZC1rTmIj8KHXy4HreKV2XklXL6x8A6RUbiiu6Aq7REAHqCX_WaJa7VkzBGMDVqBzpx5_mbVkScgRTjAhwioxdd-yvtldFkzLr_ps5MsMA_MnyP_owE-PYFn5iUYdEc5nc_HEIA_-8X7_5U4kTztgDFFXPj78HCjF1nnIFHuH4V8A_30s02VgrfpLtNEx0RzZvhE3NVzfwYtYkDiOrwOyTfR3rpQxkUqsmo_NO1qNBTypVTbmxJ3UsrWjsnVVk9tVn_g7QJyGlq4eXt-1loW8csE1RlyH7XlmuFjRzwLlZNh0R4sGgpcwoainkbzR9PjcOWdsLgGBqJJBJYP6EQJ18kSHp1jW0rswAh4bJqgiU_WMH85MEHYCnvAqahK60LIkkMEKDW8Fq2gJITGJeTn6AwiUYAanXkPCBpI5MRIE6P2lAP52RICpPa6OcPIL90-XTOE95hr2TOrGDf7pCOGD-rNAKn4SSqXIaDMVn3miW-QC20UqmrG9jkpef5Xd_0qP1oPWN-h7ghHtRDzcgkqyp9CfQkOWq5ktJTYSNPFzYhlt0QAOkXikHbgwVIS3GdpXYwcva03y6nNyT-sxvRzxQV7pg7JaALLwd8-a_Ow1OwnGemm8z1548Cx5kr3tTSVzivSZm_LHBRTPde7k7UpXY5DLzRkqkxLbGES77cPmbsMNCe3-JUtc9WdA1uUng1F4hgWmAba03d87O2eyYmNawp3ANWH5wKDpH5k9Bji3ZNAeb80vZ4Hrne2C7sBGZLAd45YoeW58cJT5T41rMiH_VAMsaIDhmunq1FtO3AeXUfZrOIloEYpiVK4eNMfCfJkLZmGXsnLb8AK10lKf2yIJFJbu-879uCHlmAdx7IEqnwCO9vKIe_DzMW9yHyY1M0VMIlw43qmcwb4Dp48bEga1vCQ-5j9yTDrSEO6clNPfN76myVRDulMTCKCx4Pb5rwOQd1oVphe8WePEfcMR9D1P7nCiYNCrfIhI2n9VqVsDKvBw9vnsKmzmS0?></g></svg>