<svg xmlns="http://www.w3.org/2000/svg" xmlns:xlink="http://www.w3.org/1999/xlink" contentStyleType="text/css" data-diagram-type="DESCRIPTION" height="941px" preserveAspectRatio="none" style="width:1444px;height:941px;background:#FFFFFF;" version="1.1" viewBox="0 0 1444 941" width="1444px" zoomAndPan="magnify"><?plantuml 1.2026.4beta2?><defs/><g><g class="title" data-source-line="1"><text fill="#000000" font-family="sans-serif" font-size="14" font-weight="700" lengthAdjust="spacing" textLength="398.0498" x="519.9614" y="22.9951">DFD &#8212; &#1060;&#1091;&#1085;&#1082;&#1094;&#1080;&#1103; 2: &#1054;&#1090;&#1082;&#1083;&#1080;&#1082; &#1089;&#1090;&#1091;&#1076;&#1077;&#1085;&#1090;&#1072; &#1085;&#1072; &#1074;&#1072;&#1082;&#1072;&#1085;&#1089;&#1080;&#1102;</text></g><!--entity E1--><g class="entity" data-qualified-name="E1" data-source-line="13" id="ent0002"><rect fill="#E8F4FD" height="33.9688" rx="2.5" ry="2.5" style="stroke:#181818;stroke-width:1.5;" width="72.9863" x="783.99" y="61.7669"/><text fill="#000000" font-family="sans-serif" font-size="12" lengthAdjust="spacing" textLength="52.9863" x="793.99" y="82.9055">&#1057;&#1090;&#1091;&#1076;&#1077;&#1085;&#1090;</text></g><!--entity E2--><g class="entity" data-qualified-name="E2" data-source-line="14" id="ent0003"><rect fill="#E8F4FD" height="33.9688" rx="2.5" ry="2.5" style="stroke:#181818;stroke-width:1.5;" width="108.4297" x="7.26" y="864.2969"/><text fill="#000000" font-family="sans-serif" font-size="12" lengthAdjust="spacing" textLength="88.4297" x="17.26" y="885.4355">&#1056;&#1072;&#1073;&#1086;&#1090;&#1086;&#1076;&#1072;&#1090;&#1077;&#1083;&#1100;</text></g><!--entity P1--><g class="entity" data-qualified-name="P1" data-source-line="17" id="ent0004"><rect fill="#D5E8D4" height="61.9063" rx="2.5" ry="2.5" style="stroke:#181818;stroke-width:1.5;" width="112.3438" x="996.31" y="206.2069"/><text fill="#000000" font-family="sans-serif" font-size="12" lengthAdjust="spacing" textLength="14.8711" x="1006.31" y="227.3455">P1</text><text fill="#000000" font-family="sans-serif" font-size="12" lengthAdjust="spacing" textLength="92.3438" x="1006.31" y="241.3143">&#1055;&#1086;&#1080;&#1089;&#1082; &#1080; &#1074;&#1099;&#1073;&#1086;&#1088;</text><text fill="#000000" font-family="sans-serif" font-size="12" lengthAdjust="spacing" textLength="59.0684" x="1006.31" y="255.283">&#1074;&#1072;&#1082;&#1072;&#1085;&#1089;&#1080;&#1080;</text></g><!--entity P2--><g class="entity" data-qualified-name="P2" data-source-line="18" id="ent0005"><rect fill="#D5E8D4" height="61.9063" rx="2.5" ry="2.5" style="stroke:#181818;stroke-width:1.5;" width="140.2227" x="582.37" y="206.2069"/><text fill="#000000" font-family="sans-serif" font-size="12" lengthAdjust="spacing" textLength="14.8711" x="592.37" y="227.3455">P2</text><text fill="#000000" font-family="sans-serif" font-size="12" lengthAdjust="spacing" textLength="120.2227" x="592.37" y="241.3143">&#1055;&#1088;&#1086;&#1074;&#1077;&#1088;&#1082;&#1072; &#1087;&#1088;&#1086;&#1092;&#1080;&#1083;&#1103;</text><text fill="#000000" font-family="sans-serif" font-size="12" lengthAdjust="spacing" textLength="58.5586" x="592.37" y="255.283">&#1089;&#1090;&#1091;&#1076;&#1077;&#1085;&#1090;&#1072;</text></g><!--entity P3--><g class="entity" data-qualified-name="P3" data-source-line="19" id="ent0006"><rect fill="#D5E8D4" height="61.9063" rx="2.5" ry="2.5" style="stroke:#181818;stroke-width:1.5;" width="113.1523" x="595.9" y="360.1169"/><text fill="#000000" font-family="sans-serif" font-size="12" lengthAdjust="spacing" textLength="14.8711" x="605.9" y="381.2555">P3</text><text fill="#000000" font-family="sans-serif" font-size="12" lengthAdjust="spacing" textLength="60.6563" x="605.9" y="395.2243">&#1055;&#1088;&#1086;&#1074;&#1077;&#1088;&#1082;&#1072;</text><text fill="#000000" font-family="sans-serif" font-size="12" lengthAdjust="spacing" textLength="93.1523" x="605.9" y="409.193">&#1076;&#1091;&#1073;&#1083;&#1103; &#1086;&#1090;&#1082;&#1083;&#1080;&#1082;&#1072;</text></g><!--entity P4--><g class="entity" data-qualified-name="P4" data-source-line="20" id="ent0007"><rect fill="#D5E8D4" height="61.9063" rx="2.5" ry="2.5" style="stroke:#181818;stroke-width:1.5;" width="96.0488" x="353.45" y="514.0169"/><text fill="#000000" font-family="sans-serif" font-size="12" lengthAdjust="spacing" textLength="14.8711" x="363.45" y="535.1555">P4</text><text fill="#000000" font-family="sans-serif" font-size="12" lengthAdjust="spacing" textLength="76.0488" x="363.45" y="549.1243">&#1057;&#1086;&#1093;&#1088;&#1072;&#1085;&#1077;&#1085;&#1080;&#1077;</text><text fill="#000000" font-family="sans-serif" font-size="12" lengthAdjust="spacing" textLength="51.6504" x="363.45" y="563.093">&#1086;&#1090;&#1082;&#1083;&#1080;&#1082;&#1072;</text></g><!--entity P5--><g class="entity" data-qualified-name="P5" data-source-line="21" id="ent0008"><rect fill="#D5E8D4" height="61.9063" rx="2.5" ry="2.5" style="stroke:#181818;stroke-width:1.5;" width="108.957" x="7" y="672.4269"/><text fill="#000000" font-family="sans-serif" font-size="12" lengthAdjust="spacing" textLength="14.8711" x="17" y="693.5655">P5</text><text fill="#000000" font-family="sans-serif" font-size="12" lengthAdjust="spacing" textLength="84.5391" x="17" y="707.5343">&#1059;&#1074;&#1077;&#1076;&#1086;&#1084;&#1083;&#1077;&#1085;&#1080;&#1077;</text><text fill="#000000" font-family="sans-serif" font-size="12" lengthAdjust="spacing" textLength="88.957" x="17" y="721.503">&#1088;&#1072;&#1073;&#1086;&#1090;&#1086;&#1076;&#1072;&#1090;&#1077;&#1083;&#1103;</text></g><!--entity P6--><g class="entity" data-qualified-name="P6" data-source-line="22" id="ent0009"><rect fill="#D5E8D4" height="61.9063" rx="2.5" ry="2.5" style="stroke:#181818;stroke-width:1.5;" width="124.4492" x="494.25" y="672.4269"/><text fill="#000000" font-family="sans-serif" font-size="12" lengthAdjust="spacing" textLength="14.8711" x="504.25" y="693.5655">P6</text><text fill="#000000" font-family="sans-serif" font-size="12" lengthAdjust="spacing" textLength="77.1855" x="504.25" y="707.5343">&#1054;&#1073;&#1085;&#1086;&#1074;&#1083;&#1077;&#1085;&#1080;&#1077;</text><text fill="#000000" font-family="sans-serif" font-size="12" lengthAdjust="spacing" textLength="104.4492" x="504.25" y="721.503">&#1089;&#1090;&#1072;&#1090;&#1091;&#1089;&#1072; &#1086;&#1090;&#1082;&#1083;&#1080;&#1082;&#1072;</text></g><!--entity D1--><g class="entity" data-qualified-name="D1" data-source-line="25" id="ent0010"><path d="M252.1,53.2969 C252.1,43.2969 311.477,43.2969 311.477,43.2969 C311.477,43.2969 370.8539,43.2969 370.8539,53.2969 L370.8539,104.2031 C370.8539,114.2031 311.477,114.2031 311.477,114.2031 C311.477,114.2031 252.1,114.2031 252.1,104.2031 L252.1,53.2969" fill="#F1F1F1" style="stroke:#181818;stroke-width:1.5;"/><path d="M252.1,53.2969 C252.1,63.2969 311.477,63.2969 311.477,63.2969 C311.477,63.2969 370.8539,63.2969 370.8539,53.2969" fill="none" style="stroke:#181818;stroke-width:1.5;"/><text fill="#000000" font-family="sans-serif" font-size="12" lengthAdjust="spacing" textLength="16.875" x="262.1" y="78.4355">D1</text><text fill="#000000" font-family="sans-serif" font-size="12" lengthAdjust="spacing" textLength="98.7539" x="262.1" y="92.4043">&#1041;&#1072;&#1079;&#1072; &#1089;&#1090;&#1091;&#1076;&#1077;&#1085;&#1090;&#1086;&#1074;</text><text fill="#000000" font-family="sans-serif" font-size="12" lengthAdjust="spacing" textLength="61.4883" x="262.1" y="106.373">(students)</text></g><!--entity D2--><g class="entity" data-qualified-name="D2" data-source-line="26" id="ent0011"><path d="M1231.38,53.2969 C1231.38,43.2969 1287.4816,43.2969 1287.4816,43.2969 C1287.4816,43.2969 1343.5831,43.2969 1343.5831,53.2969 L1343.5831,104.2031 C1343.5831,114.2031 1287.4816,114.2031 1287.4816,114.2031 C1287.4816,114.2031 1231.38,114.2031 1231.38,104.2031 L1231.38,53.2969" fill="#F1F1F1" style="stroke:#181818;stroke-width:1.5;"/><path d="M1231.38,53.2969 C1231.38,63.2969 1287.4816,63.2969 1287.4816,63.2969 C1287.4816,63.2969 1343.5831,63.2969 1343.5831,53.2969" fill="none" style="stroke:#181818;stroke-width:1.5;"/><text fill="#000000" font-family="sans-serif" font-size="12" lengthAdjust="spacing" textLength="16.875" x="1241.38" y="78.4355">D2</text><text fill="#000000" font-family="sans-serif" font-size="12" lengthAdjust="spacing" textLength="92.2031" x="1241.38" y="92.4043">&#1041;&#1072;&#1079;&#1072; &#1074;&#1072;&#1082;&#1072;&#1085;&#1089;&#1080;&#1081;</text><text fill="#000000" font-family="sans-serif" font-size="12" lengthAdjust="spacing" textLength="68.9414" x="1241.38" y="106.373">(vacancies)</text></g><!--entity D3--><g class="entity" data-qualified-name="D3" data-source-line="27" id="ent0012"><path d="M477.56,855.8269 C477.56,845.8269 533.4829,845.8269 533.4829,845.8269 C533.4829,845.8269 589.4057,845.8269 589.4057,855.8269 L589.4057,906.7331 C589.4057,916.7331 533.4829,916.7331 533.4829,916.7331 C533.4829,916.7331 477.56,916.7331 477.56,906.7331 L477.56,855.8269" fill="#F1F1F1" style="stroke:#181818;stroke-width:1.5;"/><path d="M477.56,855.8269 C477.56,865.8269 533.4829,865.8269 533.4829,865.8269 C533.4829,865.8269 589.4057,865.8269 589.4057,855.8269" fill="none" style="stroke:#181818;stroke-width:1.5;"/><text fill="#000000" font-family="sans-serif" font-size="12" lengthAdjust="spacing" textLength="16.875" x="487.56" y="880.9655">D3</text><text fill="#000000" font-family="sans-serif" font-size="12" lengthAdjust="spacing" textLength="91.8457" x="487.56" y="894.9343">&#1041;&#1072;&#1079;&#1072; &#1086;&#1090;&#1082;&#1083;&#1080;&#1082;&#1086;&#1074;</text><text fill="#000000" font-family="sans-serif" font-size="12" lengthAdjust="spacing" textLength="81.8086" x="487.56" y="908.903">(applications)</text></g><!--entity D4--><g class="entity" data-qualified-name="D4" data-source-line="28" id="ent0013"><path d="M150.87,677.9269 C150.87,667.9269 210.4813,667.9269 210.4813,667.9269 C210.4813,667.9269 270.0927,667.9269 270.0927,677.9269 L270.0927,728.8331 C270.0927,738.8331 210.4813,738.8331 210.4813,738.8331 C210.4813,738.8331 150.87,738.8331 150.87,728.8331 L150.87,677.9269" fill="#F1F1F1" style="stroke:#181818;stroke-width:1.5;"/><path d="M150.87,677.9269 C150.87,687.9269 210.4813,687.9269 210.4813,687.9269 C210.4813,687.9269 270.0927,687.9269 270.0927,677.9269" fill="none" style="stroke:#181818;stroke-width:1.5;"/><text fill="#000000" font-family="sans-serif" font-size="12" lengthAdjust="spacing" textLength="16.875" x="160.87" y="703.0655">D4</text><text fill="#000000" font-family="sans-serif" font-size="12" lengthAdjust="spacing" textLength="99.2227" x="160.87" y="717.0343">&#1046;&#1091;&#1088;&#1085;&#1072;&#1083; &#1072;&#1091;&#1076;&#1080;&#1090;&#1072;</text><text fill="#000000" font-family="sans-serif" font-size="12" lengthAdjust="spacing" textLength="86.4082" x="160.87" y="731.003">(audit_events)</text></g><!--link E1 to P1--><g class="link" data-entity-1="ent0002" data-entity-2="ent0004" data-link-type="dependency" data-source-line="31" id="lnk14"><path d="M857.39,83.0369 C899.98,88.6669 969.76,103.8069 1013.48,144.2069 C1031.05,160.4469 1039.4333,180.1078 1044.8833,200.1178" fill="none" id="E1-to-P1" style="stroke:#181818;stroke-width:1;"/><polygon fill="#181818" points="1046.46,205.9069,1047.9543,196.172,1045.146,201.0826,1040.2355,198.2744,1046.46,205.9069" style="stroke:#181818;stroke-width:1;"/><text fill="#000000" font-family="sans-serif" font-size="13" lengthAdjust="spacing" textLength="113.623" x="1075.4068" y="157.2738">&#1092;&#1080;&#1083;&#1100;&#1090;&#1088;&#1099; &#1087;&#1086;&#1080;&#1089;&#1082;&#1072;</text><text fill="#000000" font-family="sans-serif" font-size="13" lengthAdjust="spacing" textLength="193.4766" x="1035.48" y="172.4066">(&#1085;&#1072;&#1074;&#1099;&#1082;&#1080;, &#1092;&#1086;&#1088;&#1084;&#1072;&#1090;, &#1079;&#1072;&#1088;&#1087;&#1083;&#1072;&#1090;&#1072;)</text></g><!--link P1 to E1--><g class="link" data-entity-1="ent0004" data-entity-2="ent0002" data-link-type="dependency" data-source-line="33" id="lnk16"><path d="M996.05,228.7369 C957.31,221.1569 906.73,206.0269 871.48,176.2069 C846.17,154.7969 833.4146,123.3153 826.7446,101.9053" fill="none" id="P1-to-E1" style="stroke:#181818;stroke-width:1;"/><polygon fill="#181818" points="824.96,96.1769,823.818,105.9593,826.4472,100.9506,831.4559,103.5798,824.96,96.1769" style="stroke:#181818;stroke-width:1;"/><text fill="#000000" font-family="sans-serif" font-size="13" lengthAdjust="spacing" textLength="132.2026" x="872.48" y="164.7738">&#1088;&#1077;&#1079;&#1091;&#1083;&#1100;&#1090;&#1072;&#1090;&#1099; &#1087;&#1086;&#1080;&#1089;&#1082;&#1072;</text></g><!--link D2 to P1--><g class="link" data-entity-1="ent0011" data-entity-2="ent0004" data-link-type="dependency" data-source-line="32" id="lnk15"><path d="M1277.02,114.3869 C1269.17,134.9669 1256.47,160.1069 1237.48,176.2069 C1201.16,206.9769 1154.6309,220.961 1114.8509,228.281" fill="none" id="D2-to-P1" style="stroke:#181818;stroke-width:1;"/><polygon fill="#181818" points="1108.95,229.3669,1118.5253,231.6721,1113.8674,228.462,1117.0775,223.8042,1108.95,229.3669" style="stroke:#181818;stroke-width:1;"/><text fill="#000000" font-family="sans-serif" font-size="13" lengthAdjust="spacing" textLength="166.4927" x="1262.48" y="157.2738">&#1089;&#1087;&#1080;&#1089;&#1086;&#1082; &#1086;&#1087;&#1091;&#1073;&#1083;&#1080;&#1082;&#1086;&#1074;&#1072;&#1085;&#1085;&#1099;&#1093;</text><text fill="#000000" font-family="sans-serif" font-size="13" lengthAdjust="spacing" textLength="63.9907" x="1313.731" y="172.4066">&#1074;&#1072;&#1082;&#1072;&#1085;&#1089;&#1080;&#1081;</text></g><!--link E1 to P2--><g class="link" data-entity-1="ent0002" data-entity-2="ent0005" data-link-type="dependency" data-source-line="35" id="lnk17"><path d="M783.72,86.1669 C750.02,93.9969 701.27,110.5969 673.48,144.2069 C659.28,161.3669 654.7294,180.2669 653.1294,199.8169" fill="none" id="E1-to-P2" style="stroke:#181818;stroke-width:1;"/><polygon fill="#181818" points="652.64,205.7969,657.3608,197.1531,653.0478,200.8135,649.3874,196.5006,652.64,205.7969" style="stroke:#181818;stroke-width:1;"/><text fill="#000000" font-family="sans-serif" font-size="13" lengthAdjust="spacing" textLength="119.4502" x="674.48" y="164.7738">&#1079;&#1072;&#1087;&#1088;&#1086;&#1089; &#1085;&#1072; &#1086;&#1090;&#1082;&#1083;&#1080;&#1082;</text></g><!--link D1 to P2--><g class="link" data-entity-1="ent0010" data-entity-2="ent0005" data-link-type="dependency" data-source-line="36" id="lnk18"><path d="M371.34,107.4969 C413.11,126.8269 470.15,153.1669 520.48,176.2069 C541.53,185.8469 559.0368,193.8162 579.8268,203.2562" fill="none" id="D1-to-P2" style="stroke:#181818;stroke-width:1;"/><polygon fill="#181818" points="585.29,205.7369,578.749,198.3738,580.7373,203.6697,575.4415,205.658,585.29,205.7369" style="stroke:#181818;stroke-width:1;"/><text fill="#000000" font-family="sans-serif" font-size="13" lengthAdjust="spacing" textLength="127.8101" x="521.48" y="157.2738">&#1087;&#1088;&#1086;&#1092;&#1080;&#1083;&#1100; &#1089;&#1090;&#1091;&#1076;&#1077;&#1085;&#1090;&#1072;</text><text fill="#000000" font-family="sans-serif" font-size="13" lengthAdjust="spacing" textLength="121.0117" x="524.8792" y="172.4066">(&#1085;&#1072;&#1074;&#1099;&#1082;&#1080;, &#1088;&#1077;&#1079;&#1102;&#1084;&#1077;)</text></g><!--link P2 to P3--><g class="link" data-entity-1="ent0005" data-entity-2="ent0006" data-link-type="dependency" data-source-line="37" id="lnk19"><path d="M652.48,268.5369 C652.48,295.0269 652.48,327.2669 652.48,353.7469" fill="none" id="P2-to-P3" style="stroke:#181818;stroke-width:1;"/><polygon fill="#181818" points="652.48,359.7469,656.48,350.7469,652.48,354.7469,648.48,350.7469,652.48,359.7469" style="stroke:#181818;stroke-width:1;"/><text fill="#000000" font-family="sans-serif" font-size="13" lengthAdjust="spacing" textLength="55.4722" x="663.7156" y="311.1838">&#1089;&#1090;&#1091;&#1076;&#1077;&#1085;&#1090;</text><text fill="#000000" font-family="sans-serif" font-size="13" lengthAdjust="spacing" textLength="75.9434" x="653.48" y="326.3166">&#1080; &#1074;&#1072;&#1082;&#1072;&#1085;&#1089;&#1080;&#1103;</text></g><!--link D3 to P3--><g class="link" data-entity-1="ent0012" data-entity-2="ent0006" data-link-type="dependency" data-source-line="39" id="lnk20"><path d="M589.8,863.1169 C612.47,853.1369 636.31,838.0269 649.48,815.8269 C725.67,687.3769 684.5528,501.9476 663.5828,428.2876" fill="none" id="D3-to-P3" style="stroke:#181818;stroke-width:1;"/><polygon fill="#181818" points="661.94,422.5169,660.5571,432.2682,663.309,427.3258,668.2514,430.0777,661.94,422.5169" style="stroke:#181818;stroke-width:1;"/><text fill="#000000" font-family="sans-serif" font-size="13" lengthAdjust="spacing" textLength="104.7935" x="703.0872" y="618.9938">&#1089;&#1091;&#1097;&#1077;&#1089;&#1090;&#1074;&#1091;&#1102;&#1097;&#1080;&#1077;</text><text fill="#000000" font-family="sans-serif" font-size="13" lengthAdjust="spacing" textLength="124.0078" x="693.48" y="634.1266">&#1086;&#1090;&#1082;&#1083;&#1080;&#1082;&#1080; &#1089;&#1090;&#1091;&#1076;&#1077;&#1085;&#1090;&#1072;</text></g><!--link P3 to P4--><g class="link" data-entity-1="ent0006" data-entity-2="ent0007" data-link-type="dependency" data-source-line="40" id="lnk21"><path d="M595.41,413.0669 C570.84,423.2369 542.35,436.5969 518.48,452.0169 C500.5,463.6369 499.1,470.5269 482.48,484.0169 C470.25,493.9469 461.438,500.7345 448.888,509.9945" fill="none" id="P3-to-P4" style="stroke:#181818;stroke-width:1;"/><polygon fill="#181818" points="444.06,513.5569,453.6769,511.432,448.0833,510.5883,448.9271,504.9947,444.06,513.5569" style="stroke:#181818;stroke-width:1;"/><text fill="#000000" font-family="sans-serif" font-size="13" lengthAdjust="spacing" textLength="125.9756" x="519.48" y="465.0838">[&#1076;&#1091;&#1073;&#1083;&#1100; &#1085;&#1077; &#1085;&#1072;&#1081;&#1076;&#1077;&#1085;]</text><text fill="#000000" font-family="sans-serif" font-size="13" lengthAdjust="spacing" textLength="112.3027" x="526.3164" y="480.2166">&#1076;&#1072;&#1085;&#1085;&#1099;&#1077; &#1086;&#1090;&#1082;&#1083;&#1080;&#1082;&#1072;</text></g><!--link E1 to P4--><g class="link" data-entity-1="ent0002" data-entity-2="ent0007" data-link-type="dependency" data-source-line="42" id="lnk22"><path d="M783.58,88.3269 C728.24,103.0569 623.93,138.3469 564.48,206.2069 C479.96,302.6869 430.7199,444.9517 411.7199,508.0517" fill="none" id="E1-to-P4" style="stroke:#181818;stroke-width:1;"/><polygon fill="#181818" points="409.99,513.7969,416.415,506.3324,411.4316,509.0092,408.7548,504.0258,409.99,513.7969" style="stroke:#181818;stroke-width:1;"/><text fill="#000000" font-family="sans-serif" font-size="13" lengthAdjust="spacing" textLength="128.8511" x="499.48" y="311.1838">&#1089;&#1086;&#1087;&#1088;&#1086;&#1074;&#1086;&#1076;&#1080;&#1090;&#1077;&#1083;&#1100;&#1085;&#1086;&#1077;</text><text fill="#000000" font-family="sans-serif" font-size="13" lengthAdjust="spacing" textLength="109.6938" x="509.0586" y="326.3166">&#1087;&#1080;&#1089;&#1100;&#1084;&#1086;, &#1088;&#1077;&#1079;&#1102;&#1084;&#1077;</text></g><!--link P4 to D3--><g class="link" data-entity-1="ent0007" data-entity-2="ent0012" data-link-type="dependency" data-source-line="43" id="lnk23"><path d="M382.69,576.4069 C361.09,615.6169 331.73,685.0969 357.48,738.8269 C382.13,790.2669 430.4022,825.9472 471.9822,849.7372" fill="none" id="P4-to-D3" style="stroke:#181818;stroke-width:1;"/><polygon fill="#181818" points="477.19,852.7169,471.3647,844.7755,472.8501,850.2338,467.3918,851.7193,477.19,852.7169" style="stroke:#181818;stroke-width:1;"/><text fill="#000000" font-family="sans-serif" font-size="13" lengthAdjust="spacing" textLength="71.1953" x="381.7346" y="700.4438">&#1089;&#1086;&#1093;&#1088;&#1072;&#1085;&#1080;&#1090;&#1100;</text><text fill="#000000" font-family="sans-serif" font-size="13" lengthAdjust="spacing" textLength="117.7046" x="358.48" y="715.5766">Application (NEW)</text></g><!--link P4 to D4--><g class="link" data-entity-1="ent0007" data-entity-2="ent0013" data-link-type="dependency" data-source-line="44" id="lnk24"><path d="M352.99,546.7069 C308.85,550.2569 245.78,563.1369 213.48,605.9269 C200.46,623.1769 199.0381,641.5754 201.5881,661.4954" fill="none" id="P4-to-D4" style="stroke:#181818;stroke-width:1;"/><polygon fill="#181818" points="202.35,667.4469,205.1748,658.0118,201.7151,662.4873,197.2396,659.0276,202.35,667.4469" style="stroke:#181818;stroke-width:1;"/><text fill="#000000" font-family="sans-serif" font-size="13" lengthAdjust="spacing" textLength="99.4043" x="214.48" y="626.4938">&#1079;&#1072;&#1087;&#1080;&#1089;&#1100; &#1072;&#1091;&#1076;&#1080;&#1090;&#1072;</text></g><!--link P4 to P5--><g class="link" data-entity-1="ent0007" data-entity-2="ent0008" data-link-type="dependency" data-source-line="45" id="lnk25"><path d="M353.21,550.1169 C278.46,557.4169 139.35,574.8369 101.48,605.9269 C81.44,622.3769 72.6698,644.703 67.6298,666.363" fill="none" id="P4-to-P5" style="stroke:#181818;stroke-width:1;"/><polygon fill="#181818" points="66.27,672.2069,72.2056,664.3476,67.4032,667.337,64.4138,662.5345,66.27,672.2069" style="stroke:#181818;stroke-width:1;"/><text fill="#000000" font-family="sans-serif" font-size="13" lengthAdjust="spacing" textLength="81.4658" x="107.336" y="618.9938">&#1076;&#1072;&#1085;&#1085;&#1099;&#1077; &#1076;&#1083;&#1103;</text><text fill="#000000" font-family="sans-serif" font-size="13" lengthAdjust="spacing" textLength="91.1777" x="102.48" y="634.1266">&#1091;&#1074;&#1077;&#1076;&#1086;&#1084;&#1083;&#1077;&#1085;&#1080;&#1103;</text></g><!--link P4 to P6--><g class="link" data-entity-1="ent0007" data-entity-2="ent0009" data-link-type="dependency" data-source-line="46" id="lnk26"><path d="M431.36,576.1269 C458.72,603.7369 494.7867,640.125 522.1967,667.785" fill="none" id="P4-to-P6" style="stroke:#181818;stroke-width:1;"/><polygon fill="#181818" points="526.42,672.0469,522.9262,662.8385,522.9006,668.4953,517.2438,668.4696,526.42,672.0469" style="stroke:#181818;stroke-width:1;"/><text fill="#000000" font-family="sans-serif" font-size="13" lengthAdjust="spacing" textLength="90.0732" x="488.48" y="626.4938">application_id</text></g><!--link P5 to E2--><g class="link" data-entity-1="ent0008" data-entity-2="ent0003" data-link-type="dependency" data-source-line="48" id="lnk27"><path d="M61.48,734.6169 C61.48,772.1369 61.48,828.7569 61.48,858.1369" fill="none" id="P5-to-E2" style="stroke:#181818;stroke-width:1;"/><polygon fill="#181818" points="61.48,864.1369,65.48,855.1369,61.48,859.1369,57.48,855.1369,61.48,864.1369" style="stroke:#181818;stroke-width:1;"/><text fill="#000000" font-family="sans-serif" font-size="13" lengthAdjust="spacing" textLength="91.3555" x="88.6482" y="781.8938">&#1091;&#1074;&#1077;&#1076;&#1086;&#1084;&#1083;&#1077;&#1085;&#1080;&#1077;</text><text fill="#000000" font-family="sans-serif" font-size="13" lengthAdjust="spacing" textLength="104.1523" x="82.2498" y="797.0266">(&#1085;&#1086;&#1074;&#1099;&#1081; &#1086;&#1090;&#1082;&#1083;&#1080;&#1082;,</text><text fill="#000000" font-family="sans-serif" font-size="13" lengthAdjust="spacing" textLength="143.6919" x="62.48" y="812.1594">&#1087;&#1088;&#1086;&#1092;&#1080;&#1083;&#1100; &#1082;&#1072;&#1085;&#1076;&#1080;&#1076;&#1072;&#1090;&#1072;)</text></g><!--link P6 to D3--><g class="link" data-entity-1="ent0009" data-entity-2="ent0012" data-link-type="dependency" data-source-line="49" id="lnk28"><path d="M541.43,734.7869 C536.98,745.3069 532.71,757.3369 530.48,768.8269 C525.54,794.2969 526.0164,817.6644 528.1464,839.8444" fill="none" id="P6-to-D3" style="stroke:#181818;stroke-width:1;"/><polygon fill="#181818" points="528.72,845.8169,531.8413,836.4757,528.242,840.8398,523.878,837.2405,528.72,845.8169" style="stroke:#181818;stroke-width:1;"/><text fill="#000000" font-family="sans-serif" font-size="13" lengthAdjust="spacing" textLength="113.001" x="531.48" y="796.8938">&#1086;&#1073;&#1085;&#1086;&#1074;&#1080;&#1090;&#1100; &#1089;&#1090;&#1072;&#1090;&#1091;&#1089;</text></g><!--link P6 to E1--><g class="link" data-entity-1="ent0009" data-entity-2="ent0002" data-link-type="dependency" data-source-line="50" id="lnk29"><path d="M619,693.1369 C682.12,682.5469 773.71,663.3369 798.48,637.9269 C827.81,607.8369 820.48,587.9969 820.48,545.9669 C820.48,236.1569 820.48,236.1569 820.48,236.1569 C820.48,185.1069 820.48,130.6869 820.48,102.1869" fill="none" id="P6-to-E1" style="stroke:#181818;stroke-width:1;"/><polygon fill="#181818" points="820.48,96.1869,816.48,105.1869,820.48,101.1869,824.48,105.1869,820.48,96.1869" style="stroke:#181818;stroke-width:1;"/><text fill="#000000" font-family="sans-serif" font-size="13" lengthAdjust="spacing" textLength="110.5698" x="821.48" y="388.1338">&#1087;&#1086;&#1076;&#1090;&#1074;&#1077;&#1088;&#1078;&#1076;&#1077;&#1085;&#1080;&#1077;</text><text fill="#000000" font-family="sans-serif" font-size="13" lengthAdjust="spacing" textLength="90.1685" x="831.6807" y="403.2666">(&#1089;&#1090;&#1072;&#1090;&#1091;&#1089; NEW)</text></g><?plantuml-src ZLJDQXDH6DtVfxZKXGsqGYP9ALq8oYHB2IYuC5B6PD2XTLgIQHUAaBIsA0aDYhXiBUf-MZ9saZJJLxZp2Zw9vxlpapkPB2IGPEvyvzppdU_7iPnTa-irdV_jVkFYLtWiPc8IdWe_779jYulpy4XCn5JuOiB3NdY4W97mn0p7BaSilgw5Yn0NPpt0pXZhx5Zslj4stlAssNGC-pMkUCyuVxpNRfdjPs-ivevjTZgy-A22qzgUxJortfcygB4F2hPbECOhe_F_K7QVYw-Gv8MVyEqBZmGVXv_n491quREvdXLngIQpmeqEhnRvlUfchLpJCu4_aDiLA8v4W70NlvwOXeC8egKGkluYx2Bm519w-FHLcdgnOOiBKFYmQSA53-F2lYJkuat6HE5ByZhqw9NgfbxE46b4H1S1vE5tGaMuapT_17OQ3XlsOgaYFcqfNodFXvCHu5T4ncNgSGyaJAMbJ6NWBX5-0XQNAX7L0QTBACfBAIe8_ab2e3qGju2a998qNuXXH5TPIhS1kdE0PZ8xbOmQmYMJOBYxDCUDb95A-plEoQSWD1Km8tam2_lX2KkxTKMdGd_1gnl4BDG18XhsQiSvQ9csqod8U_IY2jOKy49JZ04zD9g6tRJC1Akfs9AALHEAhZNsztUjfk5OUtO2Bwbmgjvt-D6biHPJ3dj8kKz64VoWPJdRvg6YF7Bc8Yx9X7fQzGJpjBx-aDfuYyUjEO0TtR2FVaqcGNBB6saSmB56iHWA51_rMUEK3fxka0kLt2qmNLDuUtX3H04DLO0va6sRf3rNavknCQj7-ggIfuiItG0iDShEoAfaQJeQmabKF7EzU0qgXZDT3LL7Sv1Reldi8oLdoDyhi7gSQqdcgaAHaB-uV8UCwQKCWFQV9vlz6l_Fy9GVI3ydYjLZbZ9ONgIxO42fUZ9VCOwYNzAgI5ocTvb1cfjMZceLH6v0TX2tbjobSZv9bgmbdcz5a7M2WO68z59Cb2uPa8I3XlretjryzKdrUI55bDDwHUIPnawYi3-sU3QJKRnAZ_Fh24Odk0tWbCdQjbgCWKms5fL_6PnINOrs4guQPqnR8nSo7HFLbmJ7MmyZW6jJDq2JB3Zf1LTtMn8fcrpsyuXwGIxwFr49OpqgYfE1_m00?></g></svg>