<svg xmlns="http://www.w3.org/2000/svg" xmlns:xlink="http://www.w3.org/1999/xlink" contentStyleType="text/css" data-diagram-type="DESCRIPTION" height="1074px" preserveAspectRatio="none" style="width:742px;height:1074px;background:#FFFFFF;" version="1.1" viewBox="0 0 742 1074" width="742px" zoomAndPan="magnify"><?plantuml 1.2026.4beta2?><defs/><g><g class="title" data-source-line="1"><text fill="#000000" font-family="sans-serif" font-size="14" font-weight="700" lengthAdjust="spacing" textLength="479.2949" x="127.9056" y="22.9951">DFD &#8212; &#1060;&#1091;&#1085;&#1082;&#1094;&#1080;&#1103; 3: &#1060;&#1086;&#1088;&#1084;&#1080;&#1088;&#1086;&#1074;&#1072;&#1085;&#1080;&#1077; &#1088;&#1077;&#1082;&#1086;&#1084;&#1077;&#1085;&#1076;&#1072;&#1094;&#1080;&#1081; &#1074;&#1072;&#1082;&#1072;&#1085;&#1089;&#1080;&#1081;</text></g><!--entity E1--><g class="entity" data-qualified-name="E1" data-source-line="13" id="ent0002"><rect fill="#E8F4FD" height="33.9688" rx="2.5" ry="2.5" style="stroke:#181818;stroke-width:1.5;" width="72.9863" x="7" y="61.7669"/><text fill="#000000" font-family="sans-serif" font-size="12" lengthAdjust="spacing" textLength="52.9863" x="17" y="82.9055">&#1057;&#1090;&#1091;&#1076;&#1077;&#1085;&#1090;</text></g><!--entity P1--><g class="entity" data-qualified-name="P1" data-source-line="16" id="ent0003"><rect fill="#D5E8D4" height="61.9063" rx="2.5" ry="2.5" style="stroke:#181818;stroke-width:1.5;" width="148.2031" x="203.39" y="221.1969"/><text fill="#000000" font-family="sans-serif" font-size="12" lengthAdjust="spacing" textLength="14.8711" x="213.39" y="242.3355">P1</text><text fill="#000000" font-family="sans-serif" font-size="12" lengthAdjust="spacing" textLength="128.2031" x="213.39" y="256.3043">&#1055;&#1086;&#1083;&#1091;&#1095;&#1077;&#1085;&#1080;&#1077; &#1087;&#1088;&#1086;&#1092;&#1080;&#1083;&#1103;</text><text fill="#000000" font-family="sans-serif" font-size="12" lengthAdjust="spacing" textLength="58.5586" x="213.39" y="270.273">&#1089;&#1090;&#1091;&#1076;&#1077;&#1085;&#1090;&#1072;</text></g><!--entity P2--><g class="entity" data-qualified-name="P2" data-source-line="17" id="ent0004"><rect fill="#D5E8D4" height="61.9063" rx="2.5" ry="2.5" style="stroke:#181818;stroke-width:1.5;" width="153.3359" x="475.83" y="221.1969"/><text fill="#000000" font-family="sans-serif" font-size="12" lengthAdjust="spacing" textLength="14.8711" x="485.83" y="242.3355">P2</text><text fill="#000000" font-family="sans-serif" font-size="12" lengthAdjust="spacing" textLength="133.3359" x="485.83" y="256.3043">&#1055;&#1086;&#1083;&#1091;&#1095;&#1077;&#1085;&#1080;&#1077; &#1072;&#1082;&#1090;&#1080;&#1074;&#1085;&#1099;&#1093;</text><text fill="#000000" font-family="sans-serif" font-size="12" lengthAdjust="spacing" textLength="59.0684" x="485.83" y="270.273">&#1074;&#1072;&#1082;&#1072;&#1085;&#1089;&#1080;&#1081;</text></g><!--entity P3--><g class="entity" data-qualified-name="P3" data-source-line="18" id="ent0005"><rect fill="#D5E8D4" height="61.9063" rx="2.5" ry="2.5" style="stroke:#181818;stroke-width:1.5;" width="98.9727" x="266.01" y="360.1069"/><text fill="#000000" font-family="sans-serif" font-size="12" lengthAdjust="spacing" textLength="14.8711" x="276.01" y="381.2455">P3</text><text fill="#000000" font-family="sans-serif" font-size="12" lengthAdjust="spacing" textLength="78.9727" x="276.01" y="395.2143">&#1056;&#1072;&#1089;&#1095;&#1105;&#1090; score</text><text fill="#000000" font-family="sans-serif" font-size="12" lengthAdjust="spacing" textLength="74.7539" x="276.01" y="409.183">&#1089;&#1086;&#1074;&#1087;&#1072;&#1076;&#1077;&#1085;&#1080;&#1103;</text></g><!--entity P4--><g class="entity" data-qualified-name="P4" data-source-line="19" id="ent0006"><rect fill="#D5E8D4" height="61.9063" rx="2.5" ry="2.5" style="stroke:#181818;stroke-width:1.5;" width="153.7813" x="238.6" y="514.0169"/><text fill="#000000" font-family="sans-serif" font-size="12" lengthAdjust="spacing" textLength="14.8711" x="248.6" y="535.1555">P4</text><text fill="#000000" font-family="sans-serif" font-size="12" lengthAdjust="spacing" textLength="86.373" x="248.6" y="549.1243">&#1057;&#1086;&#1088;&#1090;&#1080;&#1088;&#1086;&#1074;&#1082;&#1072; &#1080;</text><text fill="#000000" font-family="sans-serif" font-size="12" lengthAdjust="spacing" textLength="133.7813" x="248.6" y="563.093">&#1092;&#1086;&#1088;&#1084;&#1080;&#1088;&#1086;&#1074;&#1072;&#1085;&#1080;&#1077; &#1090;&#1086;&#1087;-N</text></g><!--entity P5--><g class="entity" data-qualified-name="P5" data-source-line="20" id="ent0007"><rect fill="#D5E8D4" height="61.9063" rx="2.5" ry="2.5" style="stroke:#181818;stroke-width:1.5;" width="106.2969" x="262.34" y="652.9169"/><text fill="#000000" font-family="sans-serif" font-size="12" lengthAdjust="spacing" textLength="14.8711" x="272.34" y="674.0555">P5</text><text fill="#000000" font-family="sans-serif" font-size="12" lengthAdjust="spacing" textLength="86.2969" x="272.34" y="688.0243">&#1050;&#1101;&#1096;&#1080;&#1088;&#1086;&#1074;&#1072;&#1085;&#1080;&#1077;</text><text fill="#000000" font-family="sans-serif" font-size="12" lengthAdjust="spacing" textLength="78.9727" x="272.34" y="701.993">&#1088;&#1077;&#1079;&#1091;&#1083;&#1100;&#1090;&#1072;&#1090;&#1086;&#1074;</text></g><!--entity P6--><g class="entity" data-qualified-name="P6" data-source-line="21" id="ent0008"><rect fill="#D5E8D4" height="61.9063" rx="2.5" ry="2.5" style="stroke:#181818;stroke-width:1.5;" width="113.2871" x="258.85" y="998.6969"/><text fill="#000000" font-family="sans-serif" font-size="12" lengthAdjust="spacing" textLength="14.8711" x="268.85" y="1019.8355">P6</text><text fill="#000000" font-family="sans-serif" font-size="12" lengthAdjust="spacing" textLength="47.8008" x="268.85" y="1033.8043">&#1042;&#1099;&#1076;&#1072;&#1095;&#1072;</text><text fill="#000000" font-family="sans-serif" font-size="12" lengthAdjust="spacing" textLength="93.2871" x="268.85" y="1047.773">&#1088;&#1077;&#1082;&#1086;&#1084;&#1077;&#1085;&#1076;&#1072;&#1094;&#1080;&#1081;</text></g><!--entity D1--><g class="entity" data-qualified-name="D1" data-source-line="24" id="ent0009"><path d="M206.12,53.2969 C206.12,43.2969 265.497,43.2969 265.497,43.2969 C265.497,43.2969 324.8739,43.2969 324.8739,53.2969 L324.8739,104.2031 C324.8739,114.2031 265.497,114.2031 265.497,114.2031 C265.497,114.2031 206.12,114.2031 206.12,104.2031 L206.12,53.2969" fill="#F1F1F1" style="stroke:#181818;stroke-width:1.5;"/><path d="M206.12,53.2969 C206.12,63.2969 265.497,63.2969 265.497,63.2969 C265.497,63.2969 324.8739,63.2969 324.8739,53.2969" fill="none" style="stroke:#181818;stroke-width:1.5;"/><text fill="#000000" font-family="sans-serif" font-size="12" lengthAdjust="spacing" textLength="16.875" x="216.12" y="78.4355">D1</text><text fill="#000000" font-family="sans-serif" font-size="12" lengthAdjust="spacing" textLength="98.7539" x="216.12" y="92.4043">&#1041;&#1072;&#1079;&#1072; &#1089;&#1090;&#1091;&#1076;&#1077;&#1085;&#1090;&#1086;&#1074;</text><text fill="#000000" font-family="sans-serif" font-size="12" lengthAdjust="spacing" textLength="61.4883" x="216.12" y="106.373">(students)</text></g><!--entity D2--><g class="entity" data-qualified-name="D2" data-source-line="25" id="ent0010"><path d="M574.39,53.2969 C574.39,43.2969 630.4916,43.2969 630.4916,43.2969 C630.4916,43.2969 686.5931,43.2969 686.5931,53.2969 L686.5931,104.2031 C686.5931,114.2031 630.4916,114.2031 630.4916,114.2031 C630.4916,114.2031 574.39,114.2031 574.39,104.2031 L574.39,53.2969" fill="#F1F1F1" style="stroke:#181818;stroke-width:1.5;"/><path d="M574.39,53.2969 C574.39,63.2969 630.4916,63.2969 630.4916,63.2969 C630.4916,63.2969 686.5931,63.2969 686.5931,53.2969" fill="none" style="stroke:#181818;stroke-width:1.5;"/><text fill="#000000" font-family="sans-serif" font-size="12" lengthAdjust="spacing" textLength="16.875" x="584.39" y="78.4355">D2</text><text fill="#000000" font-family="sans-serif" font-size="12" lengthAdjust="spacing" textLength="92.2031" x="584.39" y="92.4043">&#1041;&#1072;&#1079;&#1072; &#1074;&#1072;&#1082;&#1072;&#1085;&#1089;&#1080;&#1081;</text><text fill="#000000" font-family="sans-serif" font-size="12" lengthAdjust="spacing" textLength="68.9414" x="584.39" y="106.373">(vacancies)</text></g><!--entity D3--><g class="entity" data-qualified-name="D3" data-source-line="26" id="ent0011"><path d="M409.57,53.2969 C409.57,43.2969 465.4929,43.2969 465.4929,43.2969 C465.4929,43.2969 521.4157,43.2969 521.4157,53.2969 L521.4157,104.2031 C521.4157,114.2031 465.4929,114.2031 465.4929,114.2031 C465.4929,114.2031 409.57,114.2031 409.57,104.2031 L409.57,53.2969" fill="#F1F1F1" style="stroke:#181818;stroke-width:1.5;"/><path d="M409.57,53.2969 C409.57,63.2969 465.4929,63.2969 465.4929,63.2969 C465.4929,63.2969 521.4157,63.2969 521.4157,53.2969" fill="none" style="stroke:#181818;stroke-width:1.5;"/><text fill="#000000" font-family="sans-serif" font-size="12" lengthAdjust="spacing" textLength="16.875" x="419.57" y="78.4355">D3</text><text fill="#000000" font-family="sans-serif" font-size="12" lengthAdjust="spacing" textLength="91.8457" x="419.57" y="92.4043">&#1041;&#1072;&#1079;&#1072; &#1086;&#1090;&#1082;&#1083;&#1080;&#1082;&#1086;&#1074;</text><text fill="#000000" font-family="sans-serif" font-size="12" lengthAdjust="spacing" textLength="81.8086" x="419.57" y="106.373">(applications)</text></g><!--entity D4--><g class="entity" data-qualified-name="D4" data-source-line="27" id="ent0012"><path d="M67.28,823.8069 C67.28,813.8069 140.4909,813.8069 140.4909,813.8069 C140.4909,813.8069 213.7019,813.8069 213.7019,823.8069 L213.7019,874.7131 C213.7019,884.7131 140.4909,884.7131 140.4909,884.7131 C140.4909,884.7131 67.28,884.7131 67.28,874.7131 L67.28,823.8069" fill="#F1F1F1" style="stroke:#181818;stroke-width:1.5;"/><path d="M67.28,823.8069 C67.28,833.8069 140.4909,833.8069 140.4909,833.8069 C140.4909,833.8069 213.7019,833.8069 213.7019,823.8069" fill="none" style="stroke:#181818;stroke-width:1.5;"/><text fill="#000000" font-family="sans-serif" font-size="12" lengthAdjust="spacing" textLength="16.875" x="77.28" y="848.9455">D4</text><text fill="#000000" font-family="sans-serif" font-size="12" lengthAdjust="spacing" textLength="126.4219" x="77.28" y="862.9143">&#1041;&#1072;&#1079;&#1072; &#1088;&#1077;&#1082;&#1086;&#1084;&#1077;&#1085;&#1076;&#1072;&#1094;&#1080;&#1081;</text><text fill="#000000" font-family="sans-serif" font-size="12" lengthAdjust="spacing" textLength="118.1953" x="77.28" y="876.883">(recommendations)</text></g><!--entity D5--><g class="entity" data-qualified-name="D5" data-source-line="28" id="ent0013"><path d="M248.74,816.8269 C248.74,806.8269 315.4968,806.8269 315.4968,806.8269 C315.4968,806.8269 382.2537,806.8269 382.2537,816.8269 L382.2537,881.7019 C382.2537,891.7019 315.4968,891.7019 315.4968,891.7019 C315.4968,891.7019 248.74,891.7019 248.74,881.7019 L248.74,816.8269" fill="#F1F1F1" style="stroke:#181818;stroke-width:1.5;"/><path d="M248.74,816.8269 C248.74,826.8269 315.4968,826.8269 315.4968,826.8269 C315.4968,826.8269 382.2537,826.8269 382.2537,816.8269" fill="none" style="stroke:#181818;stroke-width:1.5;"/><text fill="#000000" font-family="sans-serif" font-size="12" lengthAdjust="spacing" textLength="16.875" x="258.74" y="841.9655">D5</text><text fill="#000000" font-family="sans-serif" font-size="12" lengthAdjust="spacing" textLength="61.5527" x="258.74" y="855.9343">Redis &#1082;&#1101;&#1096;</text><text fill="#000000" font-family="sans-serif" font-size="12" lengthAdjust="spacing" textLength="113.5137" x="258.74" y="869.903">(recommendations</text><text fill="#000000" font-family="sans-serif" font-size="12" lengthAdjust="spacing" textLength="40.2188" x="258.74" y="883.8718">cache)</text></g><!--link E1 to P1--><g class="link" data-entity-1="ent0002" data-entity-2="ent0003" data-link-type="dependency" data-source-line="31" id="lnk14"><path d="M47.48,96.2269 C54.16,120.4269 69.9,165.5069 99.49,191.1969 C128.42,216.3169 162.4741,229.5818 197.1441,238.1218" fill="none" id="E1-to-P1" style="stroke:#181818;stroke-width:1;"/><polygon fill="#181818" points="202.97,239.5569,195.1879,233.5204,198.1151,238.361,193.2745,241.2882,202.97,239.5569" style="stroke:#181818;stroke-width:1;"/><text fill="#000000" font-family="sans-serif" font-size="13" lengthAdjust="spacing" textLength="151.9248" x="100.49" y="172.2638">&#1079;&#1072;&#1087;&#1088;&#1086;&#1089; &#1088;&#1077;&#1082;&#1086;&#1084;&#1077;&#1085;&#1076;&#1072;&#1094;&#1080;&#1081;</text></g><!--link D1 to P1--><g class="link" data-entity-1="ent0009" data-entity-2="ent0003" data-link-type="dependency" data-source-line="32" id="lnk15"><path d="M261.9,114.5169 C260.28,136.5669 259.35,165.6469 262.49,191.1969 C263.7,200.9969 264.4886,205.6852 266.9086,215.1152" fill="none" id="D1-to-P1" style="stroke:#181818;stroke-width:1;"/><polygon fill="#181818" points="268.4,220.9269,270.0373,211.2151,267.1571,216.0838,262.2884,213.2036,268.4,220.9269" style="stroke:#181818;stroke-width:1;"/><text fill="#000000" font-family="sans-serif" font-size="13" lengthAdjust="spacing" textLength="127.8101" x="278.7149" y="157.2638">&#1087;&#1088;&#1086;&#1092;&#1080;&#1083;&#1100; &#1089;&#1090;&#1091;&#1076;&#1077;&#1085;&#1090;&#1072;</text><text fill="#000000" font-family="sans-serif" font-size="13" lengthAdjust="spacing" textLength="158.2598" x="263.49" y="172.3966">(&#1085;&#1072;&#1074;&#1099;&#1082;&#1080;, &#1085;&#1072;&#1087;&#1088;&#1072;&#1074;&#1083;&#1077;&#1085;&#1080;&#1077;,</text><text fill="#000000" font-family="sans-serif" font-size="13" lengthAdjust="spacing" textLength="71.0874" x="307.0762" y="187.5294">&#1082;&#1091;&#1088;&#1089;, GPA)</text></g><!--link D3 to P1--><g class="link" data-entity-1="ent0011" data-entity-2="ent0003" data-link-type="dependency" data-source-line="33" id="lnk16"><path d="M460.99,114.6169 C456.19,138.8369 446.39,170.3669 426.49,191.1969 C406.56,212.0669 384.0691,223.931 357.5791,232.961" fill="none" id="D3-to-P1" style="stroke:#181818;stroke-width:1;"/><polygon fill="#181818" points="351.9,234.8969,361.7093,235.7791,356.6326,233.2836,359.1281,228.2069,351.9,234.8969" style="stroke:#181818;stroke-width:1;"/><text fill="#000000" font-family="sans-serif" font-size="13" lengthAdjust="spacing" textLength="123.3794" x="453.49" y="164.7638">&#1080;&#1089;&#1090;&#1086;&#1088;&#1080;&#1103; &#1086;&#1090;&#1082;&#1083;&#1080;&#1082;&#1086;&#1074;</text><text fill="#000000" font-family="sans-serif" font-size="13" lengthAdjust="spacing" textLength="93.6343" x="468.3626" y="179.8966">&#1080; &#1087;&#1088;&#1086;&#1089;&#1084;&#1086;&#1090;&#1088;&#1086;&#1074;</text></g><!--link P1 to P3--><g class="link" data-entity-1="ent0003" data-entity-2="ent0005" data-link-type="dependency" data-source-line="35" id="lnk17"><path d="M285.93,283.5369 C292.22,306.2269 299.1852,331.3155 305.4752,353.9755" fill="none" id="P1-to-P3" style="stroke:#181818;stroke-width:1;"/><polygon fill="#181818" points="307.08,359.7569,308.5271,350.0149,305.7427,354.939,300.8185,352.1546,307.08,359.7569" style="stroke:#181818;stroke-width:1;"/><text fill="#000000" font-family="sans-serif" font-size="13" lengthAdjust="spacing" textLength="116.7461" x="300.49" y="326.1738">&#1076;&#1072;&#1085;&#1085;&#1099;&#1077; &#1087;&#1088;&#1086;&#1092;&#1080;&#1083;&#1103;</text></g><!--link P2 to P3--><g class="link" data-entity-1="ent0004" data-entity-2="ent0005" data-link-type="dependency" data-source-line="36" id="lnk18"><path d="M503.65,283.4669 C480.17,297.8569 451.53,315.1369 425.49,330.1069 C405.98,341.3269 389.5368,350.4212 370.5968,360.6712" fill="none" id="P2-to-P3" style="stroke:#181818;stroke-width:1;"/><polygon fill="#181818" points="365.32,363.5269,375.139,362.7612,369.7174,361.1471,371.3314,355.7254,365.32,363.5269" style="stroke:#181818;stroke-width:1;"/><text fill="#000000" font-family="sans-serif" font-size="13" lengthAdjust="spacing" textLength="115.1719" x="454.49" y="326.1738">&#1089;&#1087;&#1080;&#1089;&#1086;&#1082; &#1074;&#1072;&#1082;&#1072;&#1085;&#1089;&#1080;&#1081;</text></g><!--link D2 to P2--><g class="link" data-entity-1="ent0010" data-entity-2="ent0004" data-link-type="dependency" data-source-line="38" id="lnk19"><path d="M620.69,114.5069 C613.8,136.9469 603.65,166.4569 591.49,191.1969 C586.57,201.2269 583.5693,206.5989 577.4993,215.8589" fill="none" id="D2-to-P2" style="stroke:#181818;stroke-width:1;"/><polygon fill="#181818" points="574.21,220.8769,582.4893,215.5428,576.9511,216.6952,575.7987,211.157,574.21,220.8769" style="stroke:#181818;stroke-width:1;"/><text fill="#000000" font-family="sans-serif" font-size="13" lengthAdjust="spacing" textLength="115.6162" x="610.49" y="164.7638">&#1086;&#1087;&#1091;&#1073;&#1083;&#1080;&#1082;&#1086;&#1074;&#1072;&#1085;&#1085;&#1099;&#1077;</text><text fill="#000000" font-family="sans-serif" font-size="13" lengthAdjust="spacing" textLength="63.9907" x="636.3027" y="179.8966">&#1074;&#1072;&#1082;&#1072;&#1085;&#1089;&#1080;&#1080;</text></g><!--link D5 to P6--><g class="link" data-entity-1="ent0013" data-entity-2="ent0008" data-link-type="dependency" data-source-line="39" id="lnk20"><path d="M315.49,892.0869 C315.49,924.6269 315.49,963.0269 315.49,992.2469" fill="none" id="D5-to-P6" style="stroke:#181818;stroke-width:1;"/><polygon fill="#181818" points="315.49,998.2469,319.49,989.2469,315.49,993.2469,311.49,989.2469,315.49,998.2469" style="stroke:#181818;stroke-width:1;"/><text fill="#000000" font-family="sans-serif" font-size="13" lengthAdjust="spacing" textLength="102.4258" x="316.49" y="934.7638">&#1082;&#1101;&#1096;&#1080;&#1088;&#1086;&#1074;&#1072;&#1085;&#1085;&#1099;&#1077;</text><text fill="#000000" font-family="sans-serif" font-size="13" lengthAdjust="spacing" textLength="101.061" x="317.1724" y="949.8966">&#1088;&#1077;&#1082;&#1086;&#1084;&#1077;&#1085;&#1076;&#1072;&#1094;&#1080;&#1080;</text><text fill="#000000" font-family="sans-serif" font-size="13" lengthAdjust="spacing" textLength="74.3247" x="330.5405" y="965.0294">[cache HIT]</text></g><!--link P3 to P4--><g class="link" data-entity-1="ent0005" data-entity-2="ent0006" data-link-type="dependency" data-source-line="41" id="lnk21"><path d="M315.49,422.4369 C315.49,448.9269 315.49,481.1669 315.49,507.6469" fill="none" id="P3-to-P4" style="stroke:#181818;stroke-width:1;"/><polygon fill="#181818" points="315.49,513.6469,319.49,504.6469,315.49,508.6469,311.49,504.6469,315.49,513.6469" style="stroke:#181818;stroke-width:1;"/><text fill="#000000" font-family="sans-serif" font-size="13" lengthAdjust="spacing" textLength="134.7163" x="316.49" y="465.0838">&#1086;&#1094;&#1077;&#1085;&#1082;&#1080; &#1089;&#1086;&#1074;&#1087;&#1072;&#1076;&#1077;&#1085;&#1080;&#1103;</text><text fill="#000000" font-family="sans-serif" font-size="13" lengthAdjust="spacing" textLength="113.7183" x="326.989" y="480.2166">(score, &#1087;&#1088;&#1080;&#1095;&#1080;&#1085;&#1099;)</text></g><!--link P4 to P5--><g class="link" data-entity-1="ent0006" data-entity-2="ent0007" data-link-type="dependency" data-source-line="43" id="lnk22"><path d="M315.49,576.3469 C315.49,599.0369 315.49,623.9069 315.49,646.5769" fill="none" id="P4-to-P5" style="stroke:#181818;stroke-width:1;"/><polygon fill="#181818" points="315.49,652.5769,319.49,643.5769,315.49,647.5769,311.49,643.5769,315.49,652.5769" style="stroke:#181818;stroke-width:1;"/><text fill="#000000" font-family="sans-serif" font-size="13" lengthAdjust="spacing" textLength="143.6348" x="316.49" y="618.9838">&#1090;&#1086;&#1087;-N &#1088;&#1077;&#1082;&#1086;&#1084;&#1077;&#1085;&#1076;&#1072;&#1094;&#1080;&#1081;</text></g><!--link P5 to D4--><g class="link" data-entity-1="ent0007" data-entity-2="ent0012" data-link-type="dependency" data-source-line="45" id="lnk23"><path d="M262.1,706.6569 C242.49,716.3769 221.07,729.1969 204.49,744.8269 C183.9,764.2369 170.0604,786.3241 158.9504,808.0641" fill="none" id="P5-to-D4" style="stroke:#181818;stroke-width:1;"/><polygon fill="#181818" points="156.22,813.4069,163.8774,807.213,158.4953,808.9546,156.7537,803.5725,156.22,813.4069" style="stroke:#181818;stroke-width:1;"/><text fill="#000000" font-family="sans-serif" font-size="13" lengthAdjust="spacing" textLength="71.1953" x="220.4229" y="757.8938">&#1089;&#1086;&#1093;&#1088;&#1072;&#1085;&#1080;&#1090;&#1100;</text><text fill="#000000" font-family="sans-serif" font-size="13" lengthAdjust="spacing" textLength="101.061" x="205.49" y="773.0266">&#1088;&#1077;&#1082;&#1086;&#1084;&#1077;&#1085;&#1076;&#1072;&#1094;&#1080;&#1080;</text></g><!--link P5 to D5--><g class="link" data-entity-1="ent0007" data-entity-2="ent0013" data-link-type="dependency" data-source-line="46" id="lnk24"><path d="M315.49,715.2269 C315.49,740.8769 315.49,771.8969 315.49,800.3769" fill="none" id="P5-to-D5" style="stroke:#181818;stroke-width:1;"/><polygon fill="#181818" points="315.49,806.3769,319.49,797.3769,315.49,801.3769,311.49,797.3769,315.49,806.3769" style="stroke:#181818;stroke-width:1;"/><text fill="#000000" font-family="sans-serif" font-size="13" lengthAdjust="spacing" textLength="94.7832" x="316.49" y="757.8938">&#1086;&#1073;&#1085;&#1086;&#1074;&#1080;&#1090;&#1100; &#1082;&#1101;&#1096;</text><text fill="#000000" font-family="sans-serif" font-size="13" lengthAdjust="spacing" textLength="92.2822" x="317.7405" y="773.0266">(TTL = 3600s)</text></g><!--link P5 to P6--><g class="link" data-entity-1="ent0007" data-entity-2="ent0008" data-link-type="dependency" data-source-line="47" id="lnk25"><path d="M368.94,703.0669 C388.21,712.4269 408.01,725.9569 419.49,744.8269 C471.24,829.8869 478.65,883.2869 427.49,968.6969 C415.31,989.0369 399.1091,1000.4669 378.0291,1009.6669" fill="none" id="P5-to-P6" style="stroke:#181818;stroke-width:1;"/><polygon fill="#181818" points="372.53,1012.0669,382.3786,1012.133,377.1126,1010.0669,379.1787,1004.8008,372.53,1012.0669" style="stroke:#181818;stroke-width:1;"/><text fill="#000000" font-family="sans-serif" font-size="13" lengthAdjust="spacing" textLength="69.9385" x="462.49" y="853.8338">&#1088;&#1077;&#1079;&#1091;&#1083;&#1100;&#1090;&#1072;&#1090;</text></g><!--link P6 to E1--><g class="link" data-entity-1="ent0008" data-entity-2="ent0002" data-link-type="dependency" data-source-line="49" id="lnk26"><path d="M258.52,1020.9669 C171.26,1005.6469 14.49,962.4869 14.49,850.2669 C14.49,251.1569 14.49,251.1569 14.49,251.1569 C14.49,193.5069 29.0758,132.2594 37.2658,101.9294" fill="none" id="P6-to-E1" style="stroke:#181818;stroke-width:1;"/><polygon fill="#181818" points="38.83,96.1369,32.6221,103.7829,37.5265,100.964,40.3455,105.8684,38.83,96.1369" style="stroke:#181818;stroke-width:1;"/><text fill="#000000" font-family="sans-serif" font-size="13" lengthAdjust="spacing" textLength="177.0679" x="15.49" y="542.0338">&#1089;&#1087;&#1080;&#1089;&#1086;&#1082; &#1088;&#1077;&#1082;&#1086;&#1084;&#1077;&#1085;&#1076;&#1086;&#1074;&#1072;&#1085;&#1085;&#1099;&#1093;</text><text fill="#000000" font-family="sans-serif" font-size="13" lengthAdjust="spacing" textLength="122.5732" x="42.7373" y="557.1666">&#1074;&#1072;&#1082;&#1072;&#1085;&#1089;&#1080;&#1081; &#1089;&#1086; score</text></g><?plantuml-src ZLNDQXDH6DtFKrpgmWPIQJ8peGWAoYGgY0JDphWO9uCTsavAPdIX24tQMaihfSMLcrhGVHeIEYPjyWhtle9FuldkdIJJP0AksdlddlETxtm_2RrmqsLMoM9_Txup_aliyXlU5rzu94wOVXytV2Xs-3NEEtp8ExoDxn7lCHnxl8-hQ_ozuLtU9X3_m-IRFhqJJRhGj633yxVjXht56guJsluxHFoaCVQutgYvZSgwvspuRX2mt3qJjwMw7xxoFheibzS-9x0rExJVsi7_GxMxZ9z1Mazy7MjkYbrnYCCG_xLuf4trBF4BqKBoNSf6j9QO7R1YZjqfhfMCaYMvpia19Da3k2cEak1ohkhpSvWnG803QGZ5uoC9sSDX84wgFaMTnk1j6QMCA9PPNBECMupvT4POIyfXyequ4ljuD6EtuiodSkfu_XE5Qee3SIfQB73g3PTaoSgEGD9LaSI9ej5JQGpGN51Ra9AuBQ20yGXSUulwfONZQEM58ZPIYKqG_n3VKAyPD7YftQvWta0SatMIhgF8p5Io0iZEn97ip0FUZYbIEbQH52OaLElVUAnY3w3ba9BhoWlfkZRfnIMBAd-AJrTuCrDV2Apwoq7ulkRwOP2HSQnS4fnFW6SB2UW7sx5zntF7s7mIgoUnGuJharQP88MrjxStFSSElRe_Xkj9k97KlS0PqC3H-jQMwzTkCHb99bJjfLlp0eRMHEtcGLNViPrrDyQQQfYav26YHhUjnT2jh3oagS3oWRXuXfeBHMfM4f6SkEFPWg09bW5jymxw0f6pJ9v6ijWTs1UFMHRUz35tEwAPPK_AZpAQfITYH79xK9lJafptdbAALKCiFgjcrhHoh5GdbadISuj2m_XEte5ZH179gvJTQiLFyqI90KEsbrCjqn1pYoBIB5D12mJjpurT35jWEqRzjQmgU_giyWQfnGOPKWTjIVeTWHDfouMcWbPFLYKUOJuZYfS1Zw5uJ4ezNXcBIw-LLGwMePmQYltnuCBruyNg9q1J-NP9FmgGAM7JHgvKdhC7J2-ihWQPCKJwDR-EeAKWlnTpirMR4v6mE6s5oqpKSlu7?></g></svg>