<svg xmlns="http://www.w3.org/2000/svg" xmlns:xlink="http://www.w3.org/1999/xlink" contentStyleType="text/css" data-diagram-type="DESCRIPTION" height="890px" preserveAspectRatio="none" style="width:1454px;height:890px;background:#FFFFFF;" version="1.1" viewBox="0 0 1454 890" width="1454px" zoomAndPan="magnify"><?plantuml 1.2026.4beta2?><defs/><g><g class="title" data-source-line="1"><text fill="#000000" font-family="sans-serif" font-size="14" font-weight="700" lengthAdjust="spacing" textLength="576.2422" x="435.5106" y="22.9951">DFD &#8212; &#1060;&#1091;&#1085;&#1082;&#1094;&#1080;&#1103; 4: &#1053;&#1072;&#1079;&#1085;&#1072;&#1095;&#1077;&#1085;&#1080;&#1077; &#1080;&#1085;&#1090;&#1077;&#1088;&#1074;&#1100;&#1102; &#1080; &#1080;&#1079;&#1084;&#1077;&#1085;&#1077;&#1085;&#1080;&#1077; &#1089;&#1090;&#1072;&#1090;&#1091;&#1089;&#1072; &#1086;&#1090;&#1082;&#1083;&#1080;&#1082;&#1072;</text></g><!--entity E1--><g class="entity" data-qualified-name="E1" data-source-line="13" id="ent0002"><rect fill="#E8F4FD" height="33.9688" rx="2.5" ry="2.5" style="stroke:#181818;stroke-width:1.5;" width="108.4297" x="609.4" y="44.2969"/><text fill="#000000" font-family="sans-serif" font-size="12" lengthAdjust="spacing" textLength="88.4297" x="619.4" y="65.4355">&#1056;&#1072;&#1073;&#1086;&#1090;&#1086;&#1076;&#1072;&#1090;&#1077;&#1083;&#1100;</text></g><!--entity E2--><g class="entity" data-qualified-name="E2" data-source-line="14" id="ent0003"><rect fill="#E8F4FD" height="33.9688" rx="2.5" ry="2.5" style="stroke:#181818;stroke-width:1.5;" width="72.9863" x="1242.12" y="650.4569"/><text fill="#000000" font-family="sans-serif" font-size="12" lengthAdjust="spacing" textLength="52.9863" x="1252.12" y="671.5955">&#1057;&#1090;&#1091;&#1076;&#1077;&#1085;&#1090;</text></g><!--entity E3--><g class="entity" data-qualified-name="E3" data-source-line="15" id="ent0004"><rect fill="#E8F4FD" height="47.9375" rx="2.5" ry="2.5" style="stroke:#181818;stroke-width:1.5;" width="149.5391" x="590.84" y="643.4669"/><text fill="#000000" font-family="sans-serif" font-size="12" lengthAdjust="spacing" textLength="129.5391" x="600.84" y="664.6055">&#1042;&#1085;&#1077;&#1096;&#1085;&#1080;&#1081; &#1082;&#1072;&#1083;&#1077;&#1085;&#1076;&#1072;&#1088;&#1100;</text><text fill="#000000" font-family="sans-serif" font-size="12" lengthAdjust="spacing" textLength="109.4531" x="600.84" y="678.5743">(Google Calendar)</text></g><!--entity P1--><g class="entity" data-qualified-name="P1" data-source-line="18" id="ent0005"><rect fill="#D5E8D4" height="61.9063" rx="2.5" ry="2.5" style="stroke:#181818;stroke-width:1.5;" width="132.418" x="511.4" y="155.2669"/><text fill="#000000" font-family="sans-serif" font-size="12" lengthAdjust="spacing" textLength="14.8711" x="521.4" y="176.4055">P1</text><text fill="#000000" font-family="sans-serif" font-size="12" lengthAdjust="spacing" textLength="112.418" x="521.4" y="190.3743">&#1042;&#1099;&#1073;&#1086;&#1088; &#1082;&#1072;&#1085;&#1076;&#1080;&#1076;&#1072;&#1090;&#1072;</text><text fill="#000000" font-family="sans-serif" font-size="12" lengthAdjust="spacing" textLength="98.1738" x="521.4" y="204.343">&#1088;&#1072;&#1073;&#1086;&#1090;&#1086;&#1076;&#1072;&#1090;&#1077;&#1083;&#1077;&#1084;</text></g><!--entity P2--><g class="entity" data-qualified-name="P2" data-source-line="19" id="ent0006"><rect fill="#D5E8D4" height="61.9063" rx="2.5" ry="2.5" style="stroke:#181818;stroke-width:1.5;" width="81.8809" x="709.67" y="309.1769"/><text fill="#000000" font-family="sans-serif" font-size="12" lengthAdjust="spacing" textLength="14.8711" x="719.67" y="330.3155">P2</text><text fill="#000000" font-family="sans-serif" font-size="12" lengthAdjust="spacing" textLength="60.7793" x="719.67" y="344.2843">&#1057;&#1086;&#1079;&#1076;&#1072;&#1085;&#1080;&#1077;</text><text fill="#000000" font-family="sans-serif" font-size="12" lengthAdjust="spacing" textLength="61.8809" x="719.67" y="358.253">&#1080;&#1085;&#1090;&#1077;&#1088;&#1074;&#1100;&#1102;</text></g><!--entity P3--><g class="entity" data-qualified-name="P3" data-source-line="20" id="ent0007"><rect fill="#D5E8D4" height="61.9063" rx="2.5" ry="2.5" style="stroke:#181818;stroke-width:1.5;" width="118.6484" x="691.29" y="463.0769"/><text fill="#000000" font-family="sans-serif" font-size="12" lengthAdjust="spacing" textLength="14.8711" x="701.29" y="484.2155">P3</text><text fill="#000000" font-family="sans-serif" font-size="12" lengthAdjust="spacing" textLength="98.6484" x="701.29" y="498.1843">&#1057;&#1080;&#1085;&#1093;&#1088;&#1086;&#1085;&#1080;&#1079;&#1072;&#1094;&#1080;&#1103;</text><text fill="#000000" font-family="sans-serif" font-size="12" lengthAdjust="spacing" textLength="87.6152" x="701.29" y="512.153">&#1089; &#1082;&#1072;&#1083;&#1077;&#1085;&#1076;&#1072;&#1088;&#1105;&#1084;</text></g><!--entity P4--><g class="entity" data-qualified-name="P4" data-source-line="21" id="ent0008"><rect fill="#D5E8D4" height="61.9063" rx="2.5" ry="2.5" style="stroke:#181818;stroke-width:1.5;" width="124.4492" x="271.39" y="463.0769"/><text fill="#000000" font-family="sans-serif" font-size="12" lengthAdjust="spacing" textLength="14.8711" x="281.39" y="484.2155">P4</text><text fill="#000000" font-family="sans-serif" font-size="12" lengthAdjust="spacing" textLength="77.1855" x="281.39" y="498.1843">&#1054;&#1073;&#1085;&#1086;&#1074;&#1083;&#1077;&#1085;&#1080;&#1077;</text><text fill="#000000" font-family="sans-serif" font-size="12" lengthAdjust="spacing" textLength="104.4492" x="281.39" y="512.153">&#1089;&#1090;&#1072;&#1090;&#1091;&#1089;&#1072; &#1086;&#1090;&#1082;&#1083;&#1080;&#1082;&#1072;</text></g><!--entity P5--><g class="entity" data-qualified-name="P5" data-source-line="22" id="ent0009"><rect fill="#D5E8D4" height="61.9063" rx="2.5" ry="2.5" style="stroke:#181818;stroke-width:1.5;" width="104.1641" x="1226.53" y="463.0769"/><text fill="#000000" font-family="sans-serif" font-size="12" lengthAdjust="spacing" textLength="14.8711" x="1236.53" y="484.2155">P5</text><text fill="#000000" font-family="sans-serif" font-size="12" lengthAdjust="spacing" textLength="60.9258" x="1236.53" y="498.1843">&#1054;&#1090;&#1087;&#1088;&#1072;&#1074;&#1082;&#1072;</text><text fill="#000000" font-family="sans-serif" font-size="12" lengthAdjust="spacing" textLength="84.1641" x="1236.53" y="512.153">&#1091;&#1074;&#1077;&#1076;&#1086;&#1084;&#1083;&#1077;&#1085;&#1080;&#1103;</text></g><!--entity P6--><g class="entity" data-qualified-name="P6" data-source-line="23" id="ent0010"><rect fill="#D5E8D4" height="61.9063" rx="2.5" ry="2.5" style="stroke:#181818;stroke-width:1.5;" width="68.4277" x="31.4" y="636.4869"/><text fill="#000000" font-family="sans-serif" font-size="12" lengthAdjust="spacing" textLength="14.8711" x="41.4" y="657.6255">P6</text><text fill="#000000" font-family="sans-serif" font-size="12" lengthAdjust="spacing" textLength="44.3613" x="41.4" y="671.5943">&#1047;&#1072;&#1087;&#1080;&#1089;&#1100;</text><text fill="#000000" font-family="sans-serif" font-size="12" lengthAdjust="spacing" textLength="48.4277" x="41.4" y="685.563">&#1074; &#1072;&#1091;&#1076;&#1080;&#1090;</text></g><!--entity D1--><g class="entity" data-qualified-name="D1" data-source-line="26" id="ent0011"><path d="M182.69,641.9869 C182.69,631.9869 238.6129,631.9869 238.6129,631.9869 C238.6129,631.9869 294.5357,631.9869 294.5357,641.9869 L294.5357,692.8931 C294.5357,702.8931 238.6129,702.8931 238.6129,702.8931 C238.6129,702.8931 182.69,702.8931 182.69,692.8931 L182.69,641.9869" fill="#F1F1F1" style="stroke:#181818;stroke-width:1.5;"/><path d="M182.69,641.9869 C182.69,651.9869 238.6129,651.9869 238.6129,651.9869 C238.6129,651.9869 294.5357,651.9869 294.5357,641.9869" fill="none" style="stroke:#181818;stroke-width:1.5;"/><text fill="#000000" font-family="sans-serif" font-size="12" lengthAdjust="spacing" textLength="16.875" x="192.69" y="667.1255">D1</text><text fill="#000000" font-family="sans-serif" font-size="12" lengthAdjust="spacing" textLength="91.8457" x="192.69" y="681.0943">&#1041;&#1072;&#1079;&#1072; &#1086;&#1090;&#1082;&#1083;&#1080;&#1082;&#1086;&#1074;</text><text fill="#000000" font-family="sans-serif" font-size="12" lengthAdjust="spacing" textLength="81.8086" x="192.69" y="695.063">(applications)</text></g><!--entity D2--><g class="entity" data-qualified-name="D2" data-source-line="27" id="ent0012"><path d="M921.1,641.9869 C921.1,631.9869 978.6078,631.9869 978.6078,631.9869 C978.6078,631.9869 1036.1156,631.9869 1036.1156,641.9869 L1036.1156,692.8931 C1036.1156,702.8931 978.6078,702.8931 978.6078,702.8931 C978.6078,702.8931 921.1,702.8931 921.1,692.8931 L921.1,641.9869" fill="#F1F1F1" style="stroke:#181818;stroke-width:1.5;"/><path d="M921.1,641.9869 C921.1,651.9869 978.6078,651.9869 978.6078,651.9869 C978.6078,651.9869 1036.1156,651.9869 1036.1156,641.9869" fill="none" style="stroke:#181818;stroke-width:1.5;"/><text fill="#000000" font-family="sans-serif" font-size="12" lengthAdjust="spacing" textLength="16.875" x="931.1" y="667.1255">D2</text><text fill="#000000" font-family="sans-serif" font-size="12" lengthAdjust="spacing" textLength="95.0156" x="931.1" y="681.0943">&#1041;&#1072;&#1079;&#1072; &#1080;&#1085;&#1090;&#1077;&#1088;&#1074;&#1100;&#1102;</text><text fill="#000000" font-family="sans-serif" font-size="12" lengthAdjust="spacing" textLength="71.209" x="931.1" y="695.063">(interviews)</text></g><!--entity D3--><g class="entity" data-qualified-name="D3" data-source-line="28" id="ent0013"><path d="M6,804.8869 C6,794.8869 65.6113,794.8869 65.6113,794.8869 C65.6113,794.8869 125.2227,794.8869 125.2227,804.8869 L125.2227,855.7931 C125.2227,865.7931 65.6113,865.7931 65.6113,865.7931 C65.6113,865.7931 6,865.7931 6,855.7931 L6,804.8869" fill="#F1F1F1" style="stroke:#181818;stroke-width:1.5;"/><path d="M6,804.8869 C6,814.8869 65.6113,814.8869 65.6113,814.8869 C65.6113,814.8869 125.2227,814.8869 125.2227,804.8869" fill="none" style="stroke:#181818;stroke-width:1.5;"/><text fill="#000000" font-family="sans-serif" font-size="12" lengthAdjust="spacing" textLength="16.875" x="16" y="830.0255">D3</text><text fill="#000000" font-family="sans-serif" font-size="12" lengthAdjust="spacing" textLength="99.2227" x="16" y="843.9943">&#1046;&#1091;&#1088;&#1085;&#1072;&#1083; &#1072;&#1091;&#1076;&#1080;&#1090;&#1072;</text><text fill="#000000" font-family="sans-serif" font-size="12" lengthAdjust="spacing" textLength="86.4082" x="16" y="857.963">(audit_events)</text></g><!--link E1 to P1--><g class="link" data-entity-1="ent0002" data-entity-2="ent0005" data-link-type="dependency" data-source-line="31" id="lnk14"><path d="M634.67,78.7169 C623.31,86.4169 611,96.4969 602.61,108.2669 C592.74,122.1069 588.057,134.2315 584.337,149.3115" fill="none" id="E1-to-P1" style="stroke:#181818;stroke-width:1;"/><polygon fill="#181818" points="582.9,155.1369,588.9391,147.3568,584.0975,150.2824,581.172,145.4408,582.9,155.1369" style="stroke:#181818;stroke-width:1;"/><text fill="#000000" font-family="sans-serif" font-size="13" lengthAdjust="spacing" textLength="120.5293" x="603.61" y="121.3338">&#1074;&#1099;&#1073;&#1086;&#1088; &#1082;&#1072;&#1085;&#1076;&#1080;&#1076;&#1072;&#1090;&#1072;</text></g><!--link D1 to P1--><g class="link" data-entity-1="ent0011" data-entity-2="ent0005" data-link-type="dependency" data-source-line="32" id="lnk15"><path d="M182.25,650.2769 C131.06,635.0269 62.37,612.9269 54.61,601.9869 C42.53,584.9469 44.98,573.5269 54.61,554.9869 C151.94,367.5669 387.8484,257.7468 505.4884,212.5968" fill="none" id="D1-to-P1" style="stroke:#181818;stroke-width:1;"/><polygon fill="#181818" points="511.09,210.4469,501.2543,209.9373,506.422,212.2384,504.1208,217.4061,511.09,210.4469" style="stroke:#181818;stroke-width:1;"/><text fill="#000000" font-family="sans-serif" font-size="13" lengthAdjust="spacing" textLength="114.7847" x="180.61" y="414.1438">&#1089;&#1087;&#1080;&#1089;&#1086;&#1082; &#1086;&#1090;&#1082;&#1083;&#1080;&#1082;&#1086;&#1074;</text><text fill="#000000" font-family="sans-serif" font-size="13" lengthAdjust="spacing" textLength="84.5762" x="195.7142" y="429.2766">&#1087;&#1086; &#1074;&#1072;&#1082;&#1072;&#1085;&#1089;&#1080;&#1080;</text></g><!--link P1 to P2--><g class="link" data-entity-1="ent0005" data-entity-2="ent0006" data-link-type="dependency" data-source-line="33" id="lnk16"><path d="M567.92,217.2469 C563.6,236.6569 561.97,261.5069 574.61,279.1769 C605.14,321.8269 661.8517,333.9767 703.5717,337.5367" fill="none" id="P1-to-P2" style="stroke:#181818;stroke-width:1;"/><polygon fill="#181818" points="709.55,338.0469,700.9227,333.2962,704.5681,337.6218,700.2425,341.2672,709.55,338.0469" style="stroke:#181818;stroke-width:1;"/><text fill="#000000" font-family="sans-serif" font-size="13" lengthAdjust="spacing" textLength="148.2876" x="575.61" y="260.2438">&#1074;&#1099;&#1073;&#1088;&#1072;&#1085;&#1085;&#1099;&#1081; &#1082;&#1072;&#1085;&#1076;&#1080;&#1076;&#1072;&#1090;</text><text fill="#000000" font-family="sans-serif" font-size="13" lengthAdjust="spacing" textLength="117.1777" x="591.1649" y="275.3766">+ &#1089;&#1083;&#1086;&#1090; &#1080;&#1085;&#1090;&#1077;&#1088;&#1074;&#1100;&#1102;</text></g><!--link E1 to P2--><g class="link" data-entity-1="ent0002" data-entity-2="ent0006" data-link-type="dependency" data-source-line="35" id="lnk17"><path d="M697.86,78.7269 C709.56,86.0969 721.47,95.9469 728.61,108.2669 C765.44,171.8469 761.6586,256.1401 756.0386,302.7301" fill="none" id="E1-to-P2" style="stroke:#181818;stroke-width:1;"/><polygon fill="#181818" points="755.32,308.6869,760.369,300.2307,755.9188,303.7229,752.4266,299.2726,755.32,308.6869" style="stroke:#181818;stroke-width:1;"/><text fill="#000000" font-family="sans-serif" font-size="13" lengthAdjust="spacing" textLength="95.2974" x="791.2211" y="183.2838">&#1076;&#1072;&#1085;&#1085;&#1099;&#1077; &#1089;&#1083;&#1086;&#1090;&#1072;</text><text fill="#000000" font-family="sans-serif" font-size="13" lengthAdjust="spacing" textLength="160.5195" x="758.61" y="198.4166">(&#1076;&#1072;&#1090;&#1072;, &#1092;&#1086;&#1088;&#1084;&#1072;&#1090;, &#1089;&#1089;&#1099;&#1083;&#1082;&#1072;)</text></g><!--link P2 to D2--><g class="link" data-entity-1="ent0006" data-entity-2="ent0012" data-link-type="dependency" data-source-line="36" id="lnk18"><path d="M791.84,356.8969 C858.05,384.9069 985.08,450.4269 1028.61,554.9869 C1036.64,574.2669 1035.38,582.2169 1028.61,601.9869 C1024.99,612.5669 1022.4391,617.9562 1015.6691,626.9862" fill="none" id="P2-to-D2" style="stroke:#181818;stroke-width:1;"/><polygon fill="#181818" points="1012.07,631.7869,1020.6691,626.9854,1015.0693,627.7863,1014.2683,622.1865,1012.07,631.7869" style="stroke:#181818;stroke-width:1;"/><text fill="#000000" font-family="sans-serif" font-size="13" lengthAdjust="spacing" textLength="135.7764" x="1014.5651" y="491.0938">&#1089;&#1086;&#1093;&#1088;&#1072;&#1085;&#1080;&#1090;&#1100; Interview</text><text fill="#000000" font-family="sans-serif" font-size="13" lengthAdjust="spacing" textLength="139.6865" x="1012.61" y="506.2266">(&#1089;&#1090;&#1072;&#1090;&#1091;&#1089; SCHEDULED)</text></g><!--link P2 to P3--><g class="link" data-entity-1="ent0006" data-entity-2="ent0007" data-link-type="dependency" data-source-line="37" id="lnk19"><path d="M750.61,371.4969 C750.61,397.9969 750.61,430.2269 750.61,456.7069" fill="none" id="P2-to-P3" style="stroke:#181818;stroke-width:1;"/><polygon fill="#181818" points="750.61,462.7069,754.61,453.7069,750.61,457.7069,746.61,453.7069,750.61,462.7069" style="stroke:#181818;stroke-width:1;"/><text fill="#000000" font-family="sans-serif" font-size="13" lengthAdjust="spacing" textLength="113.5723" x="751.61" y="421.6438">&#1076;&#1072;&#1085;&#1085;&#1099;&#1077; &#1089;&#1086;&#1073;&#1099;&#1090;&#1080;&#1103;</text></g><!--link P2 to P4--><g class="link" data-entity-1="ent0006" data-entity-2="ent0008" data-link-type="dependency" data-source-line="38" id="lnk20"><path d="M709.49,356.1069 C636.23,382.7869 488.3976,436.6432 401.9276,468.1432" fill="none" id="P2-to-P4" style="stroke:#181818;stroke-width:1;"/><polygon fill="#181818" points="396.29,470.1969,406.1155,470.8747,400.988,468.4855,403.3772,463.3579,396.29,470.1969" style="stroke:#181818;stroke-width:1;"/><text fill="#000000" font-family="sans-serif" font-size="13" lengthAdjust="spacing" textLength="90.0732" x="580.61" y="421.6438">application_id</text></g><!--link P2 to P5--><g class="link" data-entity-1="ent0006" data-entity-2="ent0009" data-link-type="dependency" data-source-line="39" id="lnk21"><path d="M791.79,345.4169 C854.41,352.6669 976.83,369.7169 1076.61,401.0769 C1129.36,417.6569 1181.0963,441.8183 1221.0863,462.2383" fill="none" id="P2-to-P5" style="stroke:#181818;stroke-width:1;"/><polygon fill="#181818" points="1226.43,464.9669,1220.2336,457.3115,1221.977,462.693,1216.5954,464.4364,1226.43,464.9669" style="stroke:#181818;stroke-width:1;"/><text fill="#000000" font-family="sans-serif" font-size="13" lengthAdjust="spacing" textLength="123.3857" x="1156.61" y="421.6438">&#1076;&#1072;&#1085;&#1085;&#1099;&#1077; &#1080;&#1085;&#1090;&#1077;&#1088;&#1074;&#1100;&#1102;</text></g><!--link E3 to P3--><g class="link" data-entity-1="ent0004" data-entity-2="ent0007" data-link-type="dependency" data-source-line="41" id="lnk22"><path d="M624.41,643.0369 C610,632.5169 595.47,618.6669 587.61,601.9869 C578.71,583.0869 575.66,572.1169 587.61,554.9869 C610.82,521.7269 648.727,507.9416 685.087,501.3216" fill="none" id="E3-to-P3" style="stroke:#181818;stroke-width:1;"/><polygon fill="#181818" points="690.99,500.2469,681.4191,497.9237,686.0709,501.1425,682.8521,505.7943,690.99,500.2469" style="stroke:#181818;stroke-width:1;"/><text fill="#000000" font-family="sans-serif" font-size="13" lengthAdjust="spacing" textLength="110.5698" x="592.5329" y="575.5538">&#1087;&#1086;&#1076;&#1090;&#1074;&#1077;&#1088;&#1078;&#1076;&#1077;&#1085;&#1080;&#1077;</text><text fill="#000000" font-family="sans-serif" font-size="13" lengthAdjust="spacing" textLength="118.4155" x="588.61" y="590.6866">calendar_event_id</text></g><!--link P3 to E3--><g class="link" data-entity-1="ent0007" data-entity-2="ent0004" data-link-type="dependency" data-source-line="43" id="lnk24"><path d="M741.93,525.4669 C735.11,547.3869 724.6,577.3269 711.61,601.9869 C703.99,616.4569 697.1466,626.6346 688.1166,638.4846" fill="none" id="P3-to-E3" style="stroke:#181818;stroke-width:1;"/><polygon fill="#181818" points="684.48,643.2569,693.1165,638.5228,687.5105,639.2799,686.7534,633.674,684.48,643.2569" style="stroke:#181818;stroke-width:1;"/><text fill="#000000" font-family="sans-serif" font-size="13" lengthAdjust="spacing" textLength="115.7368" x="732.61" y="575.5538">&#1089;&#1086;&#1079;&#1076;&#1072;&#1090;&#1100; &#1089;&#1086;&#1073;&#1099;&#1090;&#1080;&#1077;</text><text fill="#000000" font-family="sans-serif" font-size="13" lengthAdjust="spacing" textLength="85.6235" x="747.6666" y="590.6866">&#1074; &#1082;&#1072;&#1083;&#1077;&#1085;&#1076;&#1072;&#1088;&#1077;</text></g><!--link P3 to D2--><g class="link" data-entity-1="ent0007" data-entity-2="ent0012" data-link-type="dependency" data-source-line="42" id="lnk23"><path d="M810.36,525.2469 C825.93,534.0669 842.33,544.2469 856.61,554.9869 C880.47,572.9269 882.68,581.7269 904.61,601.9869 C915.25,611.8069 922.4556,618.2761 933.3856,627.7961" fill="none" id="P3-to-D2" style="stroke:#181818;stroke-width:1;"/><polygon fill="#181818" points="937.91,631.7369,933.7505,622.8095,934.1396,628.4529,928.4962,628.842,937.91,631.7369" style="stroke:#181818;stroke-width:1;"/><text fill="#000000" font-family="sans-serif" font-size="13" lengthAdjust="spacing" textLength="63.7686" x="932.9335" y="575.5538">&#1086;&#1073;&#1085;&#1086;&#1074;&#1080;&#1090;&#1100;</text><text fill="#000000" font-family="sans-serif" font-size="13" lengthAdjust="spacing" textLength="118.4155" x="905.61" y="590.6866">calendar_event_id</text></g><!--link D1 to P4--><g class="link" data-entity-1="ent0011" data-entity-2="ent0008" data-link-type="dependency" data-source-line="45" id="lnk25"><path d="M294.79,660.0969 C331.59,652.6969 377.08,636.6769 400.61,601.9869 C412.34,584.6969 409.14,574.0569 400.61,554.9869 C395.58,543.7269 391.6575,537.7996 382.5775,529.3296" fill="none" id="D1-to-P4" style="stroke:#181818;stroke-width:1;"/><polygon fill="#181818" points="378.19,525.2369,382.0427,534.3009,381.8462,528.6475,387.4997,528.451,378.19,525.2369" style="stroke:#181818;stroke-width:1;"/><text fill="#000000" font-family="sans-serif" font-size="13" lengthAdjust="spacing" textLength="109.4907" x="409.61" y="575.5538">&#1090;&#1077;&#1082;&#1091;&#1097;&#1080;&#1081; &#1089;&#1090;&#1072;&#1090;&#1091;&#1089;</text><text fill="#000000" font-family="sans-serif" font-size="13" lengthAdjust="spacing" textLength="55.9546" x="436.3781" y="590.6866">&#1086;&#1090;&#1082;&#1083;&#1080;&#1082;&#1072;</text></g><!--link P4 to D1--><g class="link" data-entity-1="ent0008" data-entity-2="ent0011" data-link-type="dependency" data-source-line="46" id="lnk26"><path d="M271.08,518.3269 C255.45,527.3069 240.59,539.2969 231.61,554.9869 C218.42,578.0369 219.9463,602.5034 225.5263,625.6934" fill="none" id="P4-to-D1" style="stroke:#181818;stroke-width:1;"/><polygon fill="#181818" points="226.93,631.5269,228.7135,621.8408,225.7603,626.6656,220.9355,623.7124,226.93,631.5269" style="stroke:#181818;stroke-width:1;"/><text fill="#000000" font-family="sans-serif" font-size="13" lengthAdjust="spacing" textLength="92.0601" x="266.2558" y="575.5538">&#1085;&#1086;&#1074;&#1099;&#1081; &#1089;&#1090;&#1072;&#1090;&#1091;&#1089;</text><text fill="#000000" font-family="sans-serif" font-size="13" lengthAdjust="spacing" textLength="159.3516" x="232.61" y="590.6866">INTERVIEW_SCHEDULED</text></g><!--link P4 to P6--><g class="link" data-entity-1="ent0008" data-entity-2="ent0010" data-link-type="dependency" data-source-line="47" id="lnk27"><path d="M271.1,501.8669 C204.97,510.4469 106.74,527.4569 81.61,554.9869 C61.84,576.6369 59.3531,605.2 61.0031,630.09" fill="none" id="P4-to-P6" style="stroke:#181818;stroke-width:1;"/><polygon fill="#181818" points="61.4,636.0769,64.7959,626.832,61.0693,631.0878,56.8134,627.3612,61.4,636.0769" style="stroke:#181818;stroke-width:1;"/><text fill="#000000" font-family="sans-serif" font-size="13" lengthAdjust="spacing" textLength="131.8091" x="82.61" y="583.0538">&#1080;&#1079;&#1084;&#1077;&#1085;&#1077;&#1085;&#1080;&#1077; &#1089;&#1090;&#1072;&#1090;&#1091;&#1089;&#1072;</text></g><!--link P5 to E2--><g class="link" data-entity-1="ent0009" data-entity-2="ent0003" data-link-type="dependency" data-source-line="49" id="lnk28"><path d="M1278.61,525.2769 C1278.61,561.6069 1278.61,615.2369 1278.61,643.9569" fill="none" id="P5-to-E2" style="stroke:#181818;stroke-width:1;"/><polygon fill="#181818" points="1278.61,649.9569,1282.61,640.9569,1278.61,644.9569,1274.61,640.9569,1278.61,649.9569" style="stroke:#181818;stroke-width:1;"/><text fill="#000000" font-family="sans-serif" font-size="13" lengthAdjust="spacing" textLength="158.6533" x="1279.61" y="568.0538">&#1091;&#1074;&#1077;&#1076;&#1086;&#1084;&#1083;&#1077;&#1085;&#1080;&#1077; &#1089;&#1090;&#1091;&#1076;&#1077;&#1085;&#1090;&#1091;</text><text fill="#000000" font-family="sans-serif" font-size="13" lengthAdjust="spacing" textLength="152.4326" x="1282.7204" y="583.1866">(&#1076;&#1072;&#1090;&#1072;, &#1074;&#1088;&#1077;&#1084;&#1103;, &#1092;&#1086;&#1088;&#1084;&#1072;&#1090;,</text><text fill="#000000" font-family="sans-serif" font-size="13" lengthAdjust="spacing" textLength="132.4946" x="1292.6893" y="598.3194">&#1089;&#1089;&#1099;&#1083;&#1082;&#1072; &#1085;&#1072; &#1074;&#1089;&#1090;&#1088;&#1077;&#1095;&#1091;)</text></g><!--link P6 to D3--><g class="link" data-entity-1="ent0010" data-entity-2="ent0013" data-link-type="dependency" data-source-line="50" id="lnk29"><path d="M65.61,698.7069 C65.61,725.9269 65.61,759.9069 65.61,788.4569" fill="none" id="P6-to-D3" style="stroke:#181818;stroke-width:1;"/><polygon fill="#181818" points="65.61,794.4569,69.61,785.4569,65.61,789.4569,61.61,785.4569,65.61,794.4569" style="stroke:#181818;stroke-width:1;"/><text fill="#000000" font-family="sans-serif" font-size="13" lengthAdjust="spacing" textLength="107.9927" x="96.8978" y="745.9538">&#1079;&#1072;&#1087;&#1080;&#1089;&#1100; &#1089;&#1086;&#1073;&#1099;&#1090;&#1080;&#1103;</text><text fill="#000000" font-family="sans-serif" font-size="13" lengthAdjust="spacing" textLength="168.5684" x="66.61" y="761.0866">(&#1089;&#1090;&#1072;&#1088;&#1099;&#1081; &#1080; &#1085;&#1086;&#1074;&#1099;&#1081; &#1089;&#1090;&#1072;&#1090;&#1091;&#1089;)</text></g><?plantuml-src ZLLDQnDH5DtFhtZKXIssGhvAwSA5dKGB8i5MtGJAc0mwj4vACbPGXAInLaamj8Yk_2ZeFWPZOjAcV-6zl-0lyTpx9fD9CbON_PWtzvvxphtdtV4SRySMPiOKlollXFogQl9CzjKhsLDDaLmLygDioIxEMkfGTl2t9pi2lyxKlkoeYcohXdgB0phhobCE6OMfAe9QQb_LL5MsX1pYiIy7UDUNBSCeRplkhbMo7ekIdVSizo68F3U4k5ui5UpIvYCdl-tQvRA8NKtXD5DqlGtdcIrYSUD5ABTWUTO3g_p_gSPb8O-9fNezvbbJR_0mPCOzOyndJdw1_kzCVIX_a1h86wZ6dB3A8XqJbz8hcMJ6d4Wv8Sa8xb2NT60yCZ1CuvUWhg0xr3qgL56Dd3j_erYas3LhntOBLcb1moK2E5Bp6NCOOcGTqA-gUhX4DfPpvR6giuIABa7mFLzBA-SYEK8XVawvLXOQpLHwnKnEuCQ1UuA4BgNeFk9aoXSQ81u9a600IZWW-WpHHNLs7bXLP_jnDAAKY4HC0l4Jb62EikqdCgqBVQWHav68AK94y3dtg4tXGAlXlmue3M5tlufgQfXK9CmoO3u0u1o1LPggR0lm8OlqV8DabuDCckWtBaZqmHBM16dTvZDLLmT6uFava-Pxn5TqIXXw0FjOkxixJjxodA9RrjunO-7qU3XzQdf8TrpFBkqvzjDHSZoSJ2DyZwPMQ3t8GKWJzMdUUb9ml2rxptQzKNf2-zKtMv_MHbWNxjFIqZMo71PF-mBN6cOe4aFbpX9YH0_mSWWqG30CudguubaV81wKybiE9gEx62gPSwzGdG71ppJA28WpMg28LulEuOQCs2yAzPA4mJzuNXJwsY8GHHSCW12M6TVIXdm_s0nmS4EiZqO2mB2nnSRQpRHvzrRQ321mJsRf3A6qJbjEDOEu9E92Jjbo2i6hr3H4XFX4gDevBH6yRtF4Jxq5zJNC-pjCMuAB9CPIYPX_TLde1V7fXDyQlNsuBM5bl8hQC_j3Tep0DwIO5rsVLp-jtt0paJ_viK82CsLdCaksoMJE-ktDz9rxw-dxMy4iHecutwl__aGQ1lhD2ddu4Ol6Jnb_NbHjmbZWLQ7LhPfJ9kCj6BYCDBGecB2Ge0vL3RPPrY9vaDtnmfgopTXu5NrNUdzhoS8V?></g></svg>