<svg xmlns="http://www.w3.org/2000/svg" width="1100" height="700" viewBox="0 0 1100 700">
<defs>
  <marker id="arrow" viewBox="0 0 10 10" refX="9" refY="5" markerWidth="8" markerHeight="8" orient="auto-start-reverse"><path d="M 0 0 L 10 5 L 0 10 z" fill="#374151"/></marker>
  <filter id="shadow" x="-20%" y="-20%" width="140%" height="140%"><feDropShadow dx="0" dy="3" stdDeviation="3" flood-color="#000000" flood-opacity="0.18"/></filter>
</defs>
<rect width="100%" height="100%" fill="#fbfbfd"/>
<text x="550" y="42" font-family="Arial, DejaVu Sans, sans-serif" font-size="26" font-weight="700" text-anchor="middle" fill="#111827">functional models 12</text>
<circle cx="80" cy="220" r="18" fill="#fff" stroke="#111827" stroke-width="2"/>
<line x1="80" y1="238" x2="80" y2="298" stroke="#111827" stroke-width="2"/>
<line x1="45" y1="262" x2="115" y2="262" stroke="#111827" stroke-width="2"/>
<line x1="80" y1="298" x2="50" y2="340" stroke="#111827" stroke-width="2"/>
<line x1="80" y1="298" x2="110" y2="340" stroke="#111827" stroke-width="2"/>
<text x="80" y="370" font-family="Arial, DejaVu Sans, sans-serif" font-size="16" text-anchor="middle" fill="#111827">Внешний актор</text><rect x="300" y="160" width="210" height="80" rx="12" fill="#eff6ff" stroke="#2563eb" stroke-width="2" filter="url(#shadow)"/><text x="405.0" y="206.5" font-family="Arial, DejaVu Sans, sans-serif" font-size="16" text-anchor="middle" fill="#111827">1. Проверка запроса</text><rect x="300" y="350" width="210" height="80" rx="12" fill="#eff6ff" stroke="#2563eb" stroke-width="2" filter="url(#shadow)"/><text x="405.0" y="396.5" font-family="Arial, DejaVu Sans, sans-serif" font-size="16" text-anchor="middle" fill="#111827">2. Обработка данных</text><rect x="620" y="250" width="210" height="80" rx="12" fill="#eff6ff" stroke="#2563eb" stroke-width="2" filter="url(#shadow)"/><text x="725.0" y="287.0" font-family="Arial, DejaVu Sans, sans-serif" font-size="16" text-anchor="middle" fill="#111827">3. Формирование</text><text x="725.0" y="306.0" font-family="Arial, DejaVu Sans, sans-serif" font-size="16" text-anchor="middle" fill="#111827">результата</text><rect x="880" y="150" width="170" height="70" rx="12" fill="#fff" stroke="#64748b" stroke-width="2" filter="url(#shadow)"/><text x="965.0" y="191.5" font-family="Arial, DejaVu Sans, sans-serif" font-size="16" text-anchor="middle" fill="#111827">D1 Профили</text><rect x="880" y="290" width="170" height="70" rx="12" fill="#fff" stroke="#64748b" stroke-width="2" filter="url(#shadow)"/><text x="965.0" y="331.5" font-family="Arial, DejaVu Sans, sans-serif" font-size="16" text-anchor="middle" fill="#111827">D2 Вакансии</text><rect x="880" y="430" width="170" height="70" rx="12" fill="#fff" stroke="#64748b" stroke-width="2" filter="url(#shadow)"/><text x="965.0" y="471.5" font-family="Arial, DejaVu Sans, sans-serif" font-size="16" text-anchor="middle" fill="#111827">D3 Аудит</text><line x1="155" y1="300" x2="300" y2="200" stroke="#374151" stroke-width="2" marker-end="url(#arrow)"/><text x="227.5" y="242.0" font-family="Arial, DejaVu Sans, sans-serif" font-size="13" text-anchor="middle" fill="#374151">запрос</text><line x1="405" y1="240" x2="405" y2="350" stroke="#374151" stroke-width="2" marker-end="url(#arrow)"/><text x="405.0" y="287.0" font-family="Arial, DejaVu Sans, sans-serif" font-size="13" text-anchor="middle" fill="#374151">данные</text><line x1="510" y1="390" x2="620" y2="290" stroke="#374151" stroke-width="2" marker-end="url(#arrow)"/><text x="565.0" y="332.0" font-family="Arial, DejaVu Sans, sans-serif" font-size="13" text-anchor="middle" fill="#374151">результат</text><line x1="830" y1="290" x2="880" y2="185" stroke="#374151" stroke-width="2" marker-end="url(#arrow)"/><line x1="830" y1="290" x2="880" y2="325" stroke="#374151" stroke-width="2" marker-end="url(#arrow)"/><line x1="725" y1="330" x2="880" y2="465" stroke="#374151" stroke-width="2" marker-end="url(#arrow)"/><line x1="620" y1="290" x2="155" y2="300" stroke="#374151" stroke-width="2" marker-end="url(#arrow)"/><text x="387.5" y="287.0" font-family="Arial, DejaVu Sans, sans-serif" font-size="13" text-anchor="middle" fill="#374151">ответ</text>
</svg>