<svg xmlns="http://www.w3.org/2000/svg" width="1100" height="700" viewBox="0 0 1100 700">
<defs>
  <marker id="arrow" viewBox="0 0 10 10" refX="9" refY="5" markerWidth="8" markerHeight="8" orient="auto-start-reverse"><path d="M 0 0 L 10 5 L 0 10 z" fill="#374151"/></marker>
  <filter id="shadow" x="-20%" y="-20%" width="140%" height="140%"><feDropShadow dx="0" dy="3" stdDeviation="3" flood-color="#000000" flood-opacity="0.18"/></filter>
</defs>
<rect width="100%" height="100%" fill="#fbfbfd"/>
<text x="550" y="42" font-family="Arial, DejaVu Sans, sans-serif" font-size="26" font-weight="700" text-anchor="middle" fill="#111827">functional models 02</text>
<circle cx="90" cy="330" r="15" fill="#111827"/><line x1="90" y1="330" x2="150" y2="330" stroke="#374151" stroke-width="2" marker-end="url(#arrow)"/><rect x="150" y="290" width="155" height="80" rx="12" fill="#ecfdf5" stroke="#16a34a" stroke-width="2" filter="url(#shadow)"/><text x="227.5" y="336.5" font-family="Arial, DejaVu Sans, sans-serif" font-size="14" text-anchor="middle" fill="#111827">Начало сценария</text><line x1="275" y1="330" x2="340" y2="330" stroke="#374151" stroke-width="2" marker-end="url(#arrow)"/><rect x="340" y="290" width="155" height="80" rx="12" fill="#ecfdf5" stroke="#16a34a" stroke-width="2" filter="url(#shadow)"/><text x="417.5" y="336.5" font-family="Arial, DejaVu Sans, sans-serif" font-size="14" text-anchor="middle" fill="#111827">Проверка условий</text><line x1="465" y1="330" x2="530" y2="330" stroke="#374151" stroke-width="2" marker-end="url(#arrow)"/><rect x="530" y="290" width="155" height="80" rx="12" fill="#ecfdf5" stroke="#16a34a" stroke-width="2" filter="url(#shadow)"/><text x="607.5" y="327.0" font-family="Arial, DejaVu Sans, sans-serif" font-size="14" text-anchor="middle" fill="#111827">Выполнение</text><text x="607.5" y="346.0" font-family="Arial, DejaVu Sans, sans-serif" font-size="14" text-anchor="middle" fill="#111827">операции</text><line x1="655" y1="330" x2="720" y2="330" stroke="#374151" stroke-width="2" marker-end="url(#arrow)"/><rect x="720" y="290" width="155" height="80" rx="12" fill="#ecfdf5" stroke="#16a34a" stroke-width="2" filter="url(#shadow)"/><text x="797.5" y="327.0" font-family="Arial, DejaVu Sans, sans-serif" font-size="14" text-anchor="middle" fill="#111827">Фиксация</text><text x="797.5" y="346.0" font-family="Arial, DejaVu Sans, sans-serif" font-size="14" text-anchor="middle" fill="#111827">результата</text><line x1="845" y1="330" x2="910" y2="330" stroke="#374151" stroke-width="2" marker-end="url(#arrow)"/><rect x="910" y="290" width="155" height="80" rx="12" fill="#ecfdf5" stroke="#16a34a" stroke-width="2" filter="url(#shadow)"/><text x="987.5" y="336.5" font-family="Arial, DejaVu Sans, sans-serif" font-size="14" text-anchor="middle" fill="#111827">Уведомление</text><line x1="1065" y1="330" x2="1030" y2="330" stroke="#374151" stroke-width="2" marker-end="url(#arrow)"/><circle cx="1055" cy="330" r="18" fill="#fff" stroke="#111827" stroke-width="3"/><circle cx="1055" cy="330" r="11" fill="#111827"/>
</svg>