<svg xmlns="http://www.w3.org/2000/svg" width="1100" height="700" viewBox="0 0 1100 700">
<defs>
  <marker id="arrow" viewBox="0 0 10 10" refX="9" refY="5" markerWidth="8" markerHeight="8" orient="auto-start-reverse"><path d="M 0 0 L 10 5 L 0 10 z" fill="#374151"/></marker>
  <filter id="shadow" x="-20%" y="-20%" width="140%" height="140%"><feDropShadow dx="0" dy="3" stdDeviation="3" flood-color="#000000" flood-opacity="0.18"/></filter>
</defs>
<rect width="100%" height="100%" fill="#fbfbfd"/>
<text x="550" y="42" font-family="Arial, DejaVu Sans, sans-serif" font-size="26" font-weight="700" text-anchor="middle" fill="#111827">C4 Context — Маркетплейс вакансий и стажировок</text>
<circle cx="100" cy="160" r="18" fill="#fff" stroke="#111827" stroke-width="2"/>
<line x1="100" y1="178" x2="100" y2="238" stroke="#111827" stroke-width="2"/>
<line x1="65" y1="202" x2="135" y2="202" stroke="#111827" stroke-width="2"/>
<line x1="100" y1="238" x2="70" y2="280" stroke="#111827" stroke-width="2"/>
<line x1="100" y1="238" x2="130" y2="280" stroke="#111827" stroke-width="2"/>
<text x="100" y="310" font-family="Arial, DejaVu Sans, sans-serif" font-size="16" text-anchor="middle" fill="#111827">Студент</text><circle cx="100" cy="420" r="18" fill="#fff" stroke="#111827" stroke-width="2"/>
<line x1="100" y1="438" x2="100" y2="498" stroke="#111827" stroke-width="2"/>
<line x1="65" y1="462" x2="135" y2="462" stroke="#111827" stroke-width="2"/>
<line x1="100" y1="498" x2="70" y2="540" stroke="#111827" stroke-width="2"/>
<line x1="100" y1="498" x2="130" y2="540" stroke="#111827" stroke-width="2"/>
<text x="100" y="570" font-family="Arial, DejaVu Sans, sans-serif" font-size="16" text-anchor="middle" fill="#111827">Работодатель</text><circle cx="1000" cy="160" r="18" fill="#fff" stroke="#111827" stroke-width="2"/>
<line x1="1000" y1="178" x2="1000" y2="238" stroke="#111827" stroke-width="2"/>
<line x1="965" y1="202" x2="1035" y2="202" stroke="#111827" stroke-width="2"/>
<line x1="1000" y1="238" x2="970" y2="280" stroke="#111827" stroke-width="2"/>
<line x1="1000" y1="238" x2="1030" y2="280" stroke="#111827" stroke-width="2"/>
<text x="1000" y="310" font-family="Arial, DejaVu Sans, sans-serif" font-size="16" text-anchor="middle" fill="#111827">Карьерный центр</text><circle cx="1000" cy="420" r="18" fill="#fff" stroke="#111827" stroke-width="2"/>
<line x1="1000" y1="438" x2="1000" y2="498" stroke="#111827" stroke-width="2"/>
<line x1="965" y1="462" x2="1035" y2="462" stroke="#111827" stroke-width="2"/>
<line x1="1000" y1="498" x2="970" y2="540" stroke="#111827" stroke-width="2"/>
<line x1="1000" y1="498" x2="1030" y2="540" stroke="#111827" stroke-width="2"/>
<text x="1000" y="570" font-family="Arial, DejaVu Sans, sans-serif" font-size="16" text-anchor="middle" fill="#111827">Модератор</text><rect x="390" y="245" width="320" height="140" rx="12" fill="#eff6ff" stroke="#2563eb" stroke-width="2" filter="url(#shadow)"/><text x="550.0" y="312.0" font-family="Arial, DejaVu Sans, sans-serif" font-size="18" text-anchor="middle" fill="#111827">Маркетплейс вакансий</text><text x="550.0" y="331.0" font-family="Arial, DejaVu Sans, sans-serif" font-size="18" text-anchor="middle" fill="#111827">и стажировок</text><rect x="390" y="80" width="200" height="70" rx="12" fill="#fff" stroke="#64748b" stroke-width="2" filter="url(#shadow)"/><text x="490.0" y="121.5" font-family="Arial, DejaVu Sans, sans-serif" font-size="16" text-anchor="middle" fill="#111827">SSO / ЛК</text><rect x="700" y="80" width="200" height="70" rx="12" fill="#fff" stroke="#64748b" stroke-width="2" filter="url(#shadow)"/><text x="800.0" y="121.5" font-family="Arial, DejaVu Sans, sans-serif" font-size="16" text-anchor="middle" fill="#111827">E-mail / мессенджер</text><rect x="390" y="520" width="200" height="70" rx="12" fill="#fff" stroke="#64748b" stroke-width="2" filter="url(#shadow)"/><text x="490.0" y="561.5" font-family="Arial, DejaVu Sans, sans-serif" font-size="16" text-anchor="middle" fill="#111827">Календарь</text><rect x="700" y="520" width="200" height="70" rx="12" fill="#fff" stroke="#64748b" stroke-width="2" filter="url(#shadow)"/><text x="800.0" y="561.5" font-family="Arial, DejaVu Sans, sans-serif" font-size="16" text-anchor="middle" fill="#111827">Аналитика</text><line x1="160" y1="250" x2="390" y2="315" stroke="#374151" stroke-width="2" marker-end="url(#arrow)"/><line x1="160" y1="510" x2="390" y2="315" stroke="#374151" stroke-width="2" marker-end="url(#arrow)"/><line x1="940" y1="250" x2="710" y2="315" stroke="#374151" stroke-width="2" marker-end="url(#arrow)"/><line x1="940" y1="510" x2="710" y2="315" stroke="#374151" stroke-width="2" marker-end="url(#arrow)"/><line x1="500" y1="245" x2="490" y2="150" stroke="#374151" stroke-width="2" marker-end="url(#arrow)"/><line x1="620" y1="245" x2="790" y2="150" stroke="#374151" stroke-width="2" marker-end="url(#arrow)"/><line x1="500" y1="385" x2="490" y2="520" stroke="#374151" stroke-width="2" marker-end="url(#arrow)"/><line x1="620" y1="385" x2="790" y2="520" stroke="#374151" stroke-width="2" marker-end="url(#arrow)"/>
</svg>