<svg xmlns="http://www.w3.org/2000/svg" width="1100" height="700" viewBox="0 0 1100 700">
<defs>
  <marker id="arrow" viewBox="0 0 10 10" refX="9" refY="5" markerWidth="8" markerHeight="8" orient="auto-start-reverse"><path d="M 0 0 L 10 5 L 0 10 z" fill="#374151"/></marker>
  <filter id="shadow" x="-20%" y="-20%" width="140%" height="140%"><feDropShadow dx="0" dy="3" stdDeviation="3" flood-color="#000000" flood-opacity="0.18"/></filter>
</defs>
<rect width="100%" height="100%" fill="#fbfbfd"/>
<text x="550" y="42" font-family="Arial, DejaVu Sans, sans-serif" font-size="26" font-weight="700" text-anchor="middle" fill="#111827">Компонентная схема сервисов</text>
<rect x="80" y="170" width="190" height="80" rx="12" fill="#f8fafc" stroke="#2563eb" stroke-width="2" filter="url(#shadow)"/><text x="175.0" y="216.5" font-family="Arial, DejaVu Sans, sans-serif" font-size="16" text-anchor="middle" fill="#111827">Frontend</text><rect x="320" y="170" width="190" height="80" rx="12" fill="#f8fafc" stroke="#2563eb" stroke-width="2" filter="url(#shadow)"/><text x="415.0" y="216.5" font-family="Arial, DejaVu Sans, sans-serif" font-size="16" text-anchor="middle" fill="#111827">Backend API</text><rect x="560" y="90" width="190" height="80" rx="12" fill="#f8fafc" stroke="#2563eb" stroke-width="2" filter="url(#shadow)"/><text x="655.0" y="127.0" font-family="Arial, DejaVu Sans, sans-serif" font-size="16" text-anchor="middle" fill="#111827">Recommendation</text><text x="655.0" y="146.0" font-family="Arial, DejaVu Sans, sans-serif" font-size="16" text-anchor="middle" fill="#111827">Service</text><rect x="560" y="250" width="190" height="80" rx="12" fill="#f8fafc" stroke="#2563eb" stroke-width="2" filter="url(#shadow)"/><text x="655.0" y="296.5" font-family="Arial, DejaVu Sans, sans-serif" font-size="16" text-anchor="middle" fill="#111827">Notification Service</text><rect x="820" y="160" width="190" height="80" rx="12" fill="#f8fafc" stroke="#2563eb" stroke-width="2" filter="url(#shadow)"/><text x="915.0" y="206.5" font-family="Arial, DejaVu Sans, sans-serif" font-size="16" text-anchor="middle" fill="#111827">PostgreSQL</text><rect x="820" y="310" width="190" height="80" rx="12" fill="#f8fafc" stroke="#2563eb" stroke-width="2" filter="url(#shadow)"/><text x="915.0" y="356.5" font-family="Arial, DejaVu Sans, sans-serif" font-size="16" text-anchor="middle" fill="#111827">Redis</text><line x1="270" y1="210" x2="320" y2="210" stroke="#374151" stroke-width="2" marker-end="url(#arrow)"/><text x="295.0" y="202.0" font-family="Arial, DejaVu Sans, sans-serif" font-size="13" text-anchor="middle" fill="#374151">REST</text><line x1="510" y1="190" x2="560" y2="130" stroke="#374151" stroke-width="2" marker-end="url(#arrow)"/><line x1="510" y1="230" x2="560" y2="290" stroke="#374151" stroke-width="2" marker-end="url(#arrow)"/><line x1="750" y1="130" x2="820" y2="190" stroke="#374151" stroke-width="2" marker-end="url(#arrow)"/><line x1="750" y1="290" x2="820" y2="350" stroke="#374151" stroke-width="2" marker-end="url(#arrow)"/>
</svg>