<svg xmlns="http://www.w3.org/2000/svg" width="1100" height="620" viewBox="0 0 1100 620">
<defs>
  <marker id="arrow" viewBox="0 0 10 10" refX="9" refY="5" markerWidth="8" markerHeight="8" orient="auto-start-reverse"><path d="M 0 0 L 10 5 L 0 10 z" fill="#374151"/></marker>
  <filter id="shadow" x="-20%" y="-20%" width="140%" height="140%"><feDropShadow dx="0" dy="3" stdDeviation="3" flood-color="#000000" flood-opacity="0.18"/></filter>
</defs>
<rect width="100%" height="100%" fill="#fbfbfd"/>
<text x="550" y="42" font-family="Arial, DejaVu Sans, sans-serif" font-size="26" font-weight="700" text-anchor="middle" fill="#111827">BPMN — Публикация вакансии</text>
<rect x="60" y="70" width="980" height="150" fill="#f8fafc" stroke="#cbd5e1" stroke-width="1"/><text x="85" y="98" font-family="Arial, DejaVu Sans, sans-serif" font-size="16" font-weight="700" fill="#334155">Пользователь</text><rect x="60" y="240" width="980" height="150" fill="#f8fafc" stroke="#cbd5e1" stroke-width="1"/><text x="85" y="268" font-family="Arial, DejaVu Sans, sans-serif" font-size="16" font-weight="700" fill="#334155">Система</text><rect x="60" y="410" width="980" height="150" fill="#f8fafc" stroke="#cbd5e1" stroke-width="1"/><text x="85" y="438" font-family="Arial, DejaVu Sans, sans-serif" font-size="16" font-weight="700" fill="#334155">Внешний сервис</text><circle cx="145" cy="145" r="18" fill="#dcfce7" stroke="#16a34a" stroke-width="2"/><rect x="220" y="112" width="160" height="65" rx="12" fill="#fff" stroke="#2563eb" stroke-width="2" filter="url(#shadow)"/><text x="300.0" y="141.5" font-family="Arial, DejaVu Sans, sans-serif" font-size="13" text-anchor="middle" fill="#111827">Заполнить /</text><text x="300.0" y="160.5" font-family="Arial, DejaVu Sans, sans-serif" font-size="13" text-anchor="middle" fill="#111827">выбрать</text><rect x="450" y="282" width="160" height="65" rx="12" fill="#fff" stroke="#2563eb" stroke-width="2" filter="url(#shadow)"/><text x="530.0" y="321.0" font-family="Arial, DejaVu Sans, sans-serif" font-size="13" text-anchor="middle" fill="#111827">Проверить данные</text><polygon points="700,275.0 760.0,315 700,355.0 640.0,315" fill="#fff7ed" stroke="#f97316" stroke-width="2" filter="url(#shadow)"/><text x="700" y="311" font-family="Arial, DejaVu Sans, sans-serif" font-size="14" text-anchor="middle" fill="#111827">Успешно?</text><rect x="835" y="282" width="160" height="65" rx="12" fill="#fff" stroke="#2563eb" stroke-width="2" filter="url(#shadow)"/><text x="915.0" y="321.0" font-family="Arial, DejaVu Sans, sans-serif" font-size="13" text-anchor="middle" fill="#111827">Сохранить статус</text><rect x="835" y="452" width="160" height="65" rx="12" fill="#fff" stroke="#0f766e" stroke-width="2" filter="url(#shadow)"/><text x="915.0" y="491.0" font-family="Arial, DejaVu Sans, sans-serif" font-size="13" text-anchor="middle" fill="#111827">Отправить событие</text><line x1="163" y1="145" x2="220" y2="145" stroke="#374151" stroke-width="2" marker-end="url(#arrow)"/><line x1="380" y1="145" x2="450" y2="315" stroke="#374151" stroke-width="2" marker-end="url(#arrow)"/><line x1="610" y1="315" x2="640" y2="315" stroke="#374151" stroke-width="2" marker-end="url(#arrow)"/><line x1="760" y1="315" x2="835" y2="315" stroke="#374151" stroke-width="2" marker-end="url(#arrow)"/><text x="797.5" y="307.0" font-family="Arial, DejaVu Sans, sans-serif" font-size="13" text-anchor="middle" fill="#374151">да</text><line x1="915" y1="347" x2="915" y2="452" stroke="#374151" stroke-width="2" marker-end="url(#arrow)"/><circle cx="1025" cy="315" r="20" fill="#fff" stroke="#111827" stroke-width="3"/><circle cx="1025" cy="315" r="12" fill="#111827"/>
</svg>