<svg xmlns="http://www.w3.org/2000/svg" xmlns:xlink="http://www.w3.org/1999/xlink" contentStyleType="text/css" data-diagram-type="ACTIVITY" height="1666px" preserveAspectRatio="none" style="width:1575px;height:1666px;background:#FFFFFF;" version="1.1" viewBox="0 0 1575 1666" width="1575px" zoomAndPan="magnify"><?plantuml 1.2026.4beta2?><defs/><g><g class="title" data-source-line="1"><text fill="#000000" font-family="sans-serif" font-size="14" font-weight="700" lengthAdjust="spacing" textLength="472.7939" x="550.1908" y="32.9951">BPMN &#8212; &#1055;&#1088;&#1086;&#1094;&#1077;&#1089;&#1089; 1: &#1055;&#1091;&#1073;&#1083;&#1080;&#1082;&#1072;&#1094;&#1080;&#1103; &#1074;&#1072;&#1082;&#1072;&#1085;&#1089;&#1080;&#1080; &#1088;&#1072;&#1073;&#1086;&#1090;&#1086;&#1076;&#1072;&#1090;&#1077;&#1083;&#1077;&#1084;</text></g><rect fill="none" height="15.1328" style="stroke:none;stroke-width:1;" width="1528.1755" x="20" y="53.8628"/><rect fill="#E8F4FD" height="1591.3164" style="stroke:#E8F4FD;stroke-width:1;" width="567.499" x="20" y="53.8628"/><ellipse cx="300.3154" cy="83.9956" fill="#222222" rx="10" ry="10" style="stroke:#222222;stroke-width:1;"/><rect fill="#F1F1F1" height="47.9375" rx="12.5" ry="12.5" style="stroke:#181818;stroke-width:1.5;" width="180.5879" x="210.0215" y="113.9956"/><text fill="#000000" font-family="sans-serif" font-size="12" lengthAdjust="spacing" textLength="160.5879" x="220.0215" y="135.1343">&#1057;&#1086;&#1079;&#1076;&#1072;&#1105;&#1090; &#1085;&#1086;&#1074;&#1091;&#1102; &#1074;&#1072;&#1082;&#1072;&#1085;&#1089;&#1080;&#1102;</text><text fill="#000000" font-family="sans-serif" font-size="12" lengthAdjust="spacing" textLength="122.0215" x="220.0215" y="149.103">(&#1086;&#1090;&#1082;&#1088;&#1099;&#1074;&#1072;&#1077;&#1090; &#1092;&#1086;&#1088;&#1084;&#1091;)</text><rect fill="#F1F1F1" height="61.9063" rx="12.5" ry="12.5" style="stroke:#181818;stroke-width:1.5;" width="209.5449" x="195.543" y="181.9331"/><text fill="#000000" font-family="sans-serif" font-size="12" lengthAdjust="spacing" textLength="182.2383" x="205.543" y="203.0718">&#1047;&#1072;&#1087;&#1086;&#1083;&#1085;&#1103;&#1077;&#1090; &#1076;&#1072;&#1085;&#1085;&#1099;&#1077; &#1074;&#1072;&#1082;&#1072;&#1085;&#1089;&#1080;&#1080;</text><text fill="#000000" font-family="sans-serif" font-size="12" lengthAdjust="spacing" textLength="189.5449" x="205.543" y="217.0405">(&#1085;&#1072;&#1079;&#1074;&#1072;&#1085;&#1080;&#1077;, &#1086;&#1087;&#1080;&#1089;&#1072;&#1085;&#1080;&#1077;, &#1085;&#1072;&#1074;&#1099;&#1082;&#1080;,</text><text fill="#000000" font-family="sans-serif" font-size="12" lengthAdjust="spacing" textLength="169.4824" x="205.543" y="231.0093">&#1079;&#1072;&#1088;&#1087;&#1083;&#1072;&#1090;&#1072;, &#1092;&#1086;&#1088;&#1084;&#1072;&#1090; &#1088;&#1072;&#1073;&#1086;&#1090;&#1099;)</text><rect fill="#F1F1F1" height="33.9688" rx="12.5" ry="12.5" style="stroke:#181818;stroke-width:1.5;" width="234.9746" x="182.8281" y="263.8394"/><text fill="#000000" font-family="sans-serif" font-size="12" lengthAdjust="spacing" textLength="214.9746" x="192.8281" y="284.978">&#1053;&#1072;&#1078;&#1080;&#1084;&#1072;&#1077;&#1090; &#171;&#1057;&#1086;&#1093;&#1088;&#1072;&#1085;&#1080;&#1090;&#1100; &#1095;&#1077;&#1088;&#1085;&#1086;&#1074;&#1080;&#1082;&#187;</text><rect fill="#F1F1F1" height="47.9375" rx="12.5" ry="12.5" style="stroke:#181818;stroke-width:1.5;" width="166.9063" x="216.8623" y="420.1792"/><text fill="#000000" font-family="sans-serif" font-size="12" lengthAdjust="spacing" textLength="134.1621" x="226.8623" y="441.3179">&#1055;&#1086;&#1083;&#1091;&#1095;&#1072;&#1077;&#1090; &#1089;&#1086;&#1086;&#1073;&#1097;&#1077;&#1085;&#1080;&#1077;</text><text fill="#000000" font-family="sans-serif" font-size="12" lengthAdjust="spacing" textLength="146.9063" x="226.8623" y="455.2866">&#1086;&#1073; &#1086;&#1096;&#1080;&#1073;&#1082;&#1072;&#1093; &#1074;&#1072;&#1083;&#1080;&#1076;&#1072;&#1094;&#1080;&#1080;</text><rect fill="#F1F1F1" height="33.9688" rx="12.5" ry="12.5" style="stroke:#181818;stroke-width:1.5;" width="146.7383" x="226.9463" y="488.1167"/><text fill="#000000" font-family="sans-serif" font-size="12" lengthAdjust="spacing" textLength="126.7383" x="236.9463" y="509.2554">&#1048;&#1089;&#1087;&#1088;&#1072;&#1074;&#1083;&#1103;&#1077;&#1090; &#1076;&#1072;&#1085;&#1085;&#1099;&#1077;</text><rect fill="#F1F1F1" height="33.9688" rx="12.5" ry="12.5" style="stroke:#181818;stroke-width:1.5;" width="181.4023" x="209.6143" y="707.9917"/><text fill="#000000" font-family="sans-serif" font-size="12" lengthAdjust="spacing" textLength="161.4023" x="219.6143" y="729.1304">&#1055;&#1088;&#1086;&#1089;&#1084;&#1072;&#1090;&#1088;&#1080;&#1074;&#1072;&#1077;&#1090; &#1095;&#1077;&#1088;&#1085;&#1086;&#1074;&#1080;&#1082;</text><rect fill="#F1F1F1" height="33.9688" rx="12.5" ry="12.5" style="stroke:#181818;stroke-width:1.5;" width="254.5039" x="173.0635" y="761.9604"/><text fill="#000000" font-family="sans-serif" font-size="12" lengthAdjust="spacing" textLength="234.5039" x="183.0635" y="783.0991">&#1053;&#1072;&#1078;&#1080;&#1084;&#1072;&#1077;&#1090; &#171;&#1054;&#1090;&#1087;&#1088;&#1072;&#1074;&#1080;&#1090;&#1100; &#1085;&#1072; &#1087;&#1088;&#1086;&#1074;&#1077;&#1088;&#1082;&#1091;&#187;</text><rect fill="#F1F1F1" height="47.9375" rx="12.5" ry="12.5" style="stroke:#181818;stroke-width:1.5;" width="168.0957" x="26" y="1475.3042"/><text fill="#000000" font-family="sans-serif" font-size="12" lengthAdjust="spacing" textLength="148.0957" x="36" y="1496.4429">&#1055;&#1086;&#1083;&#1091;&#1095;&#1072;&#1077;&#1090; &#1091;&#1074;&#1077;&#1076;&#1086;&#1084;&#1083;&#1077;&#1085;&#1080;&#1077;</text><text fill="#000000" font-family="sans-serif" font-size="12" lengthAdjust="spacing" textLength="93.8203" x="36" y="1510.4116">&#1086;&#1073; &#1086;&#1090;&#1082;&#1083;&#1086;&#1085;&#1077;&#1085;&#1080;&#1080;</text><path d="M213.3398,1547.0776 L213.3398,1563.2104 L193.3398,1567.2104 L213.3398,1571.2104 L213.3398,1587.3433 A0,0 0 0 0 213.3398,1587.3433 L375.6514,1587.3433 A0,0 0 0 0 375.6514,1587.3433 L375.6514,1557.0776 L365.6514,1547.0776 L213.3398,1547.0776 A0,0 0 0 0 213.3398,1547.0776" fill="#FEFFDD" style="stroke:#181818;stroke-width:0.5;"/><path d="M365.6514,1547.0776 L365.6514,1557.0776 L375.6514,1557.0776 L365.6514,1547.0776" fill="#FEFFDD" style="stroke:#181818;stroke-width:0.5;"/><text fill="#000000" font-family="sans-serif" font-size="13" lengthAdjust="spacing" textLength="141.3115" x="219.3398" y="1564.1445">&#1055;&#1086;&#1074;&#1090;&#1086;&#1088;&#1085;&#1072;&#1103; &#1086;&#1090;&#1087;&#1088;&#1072;&#1074;&#1082;&#1072;</text><text fill="#000000" font-family="sans-serif" font-size="13" lengthAdjust="spacing" textLength="99.8042" x="219.3398" y="1579.2773">&#1085;&#1072; &#1084;&#1086;&#1076;&#1077;&#1088;&#1072;&#1094;&#1080;&#1102;</text><rect fill="#F1F1F1" height="47.9375" rx="12.5" ry="12.5" style="stroke:#181818;stroke-width:1.5;" width="166.584" x="26.7559" y="1543.2417"/><text fill="#000000" font-family="sans-serif" font-size="12" lengthAdjust="spacing" textLength="146.584" x="36.7559" y="1564.3804">&#1056;&#1077;&#1076;&#1072;&#1082;&#1090;&#1080;&#1088;&#1091;&#1077;&#1090; &#1074;&#1072;&#1082;&#1072;&#1085;&#1089;&#1080;&#1102;</text><text fill="#000000" font-family="sans-serif" font-size="12" lengthAdjust="spacing" textLength="137.3965" x="36.7559" y="1578.3491">&#1089;&#1086;&#1075;&#1083;&#1072;&#1089;&#1085;&#1086; &#1079;&#1072;&#1084;&#1077;&#1095;&#1072;&#1085;&#1080;&#1103;&#1084;</text><ellipse cx="110.0479" cy="1622.1792" fill="none" rx="11" ry="11" style="stroke:#222222;stroke-width:1;"/><ellipse cx="110.0479" cy="1622.1792" fill="#222222" rx="6" ry="6" style="stroke:#222222;stroke-width:1;"/><rect fill="#F1F1F1" height="47.9375" rx="12.5" ry="12.5" style="stroke:#181818;stroke-width:1.5;" width="185.832" x="397.667" y="1543.2417"/><text fill="#000000" font-family="sans-serif" font-size="12" lengthAdjust="spacing" textLength="165.832" x="407.667" y="1564.3804">&#1055;&#1086;&#1083;&#1091;&#1095;&#1072;&#1077;&#1090; &#1087;&#1086;&#1076;&#1090;&#1074;&#1077;&#1088;&#1078;&#1076;&#1077;&#1085;&#1080;&#1077;</text><text fill="#000000" font-family="sans-serif" font-size="12" lengthAdjust="spacing" textLength="76.1836" x="407.667" y="1578.3491">&#1087;&#1091;&#1073;&#1083;&#1080;&#1082;&#1072;&#1094;&#1080;&#1080;</text><ellipse cx="490.583" cy="1622.1792" fill="none" rx="11" ry="11" style="stroke:#222222;stroke-width:1;"/><ellipse cx="490.583" cy="1622.1792" fill="#222222" rx="6" ry="6" style="stroke:#222222;stroke-width:1;"/><line style="stroke:#000000;stroke-width:1.5;" x1="20" x2="20" y1="53.8628" y2="1645.1792"/><rect fill="#D5E8D4" height="1591.3164" style="stroke:#D5E8D4;stroke-width:1;" width="580.0586" x="587.499" y="53.8628"/><rect fill="#F1F1F1" height="33.9688" rx="12.5" ry="12.5" style="stroke:#181818;stroke-width:1.5;" width="223.4609" x="766.6279" y="317.8081"/><text fill="#000000" font-family="sans-serif" font-size="12" lengthAdjust="spacing" textLength="203.4609" x="776.6279" y="338.9468">&#1042;&#1072;&#1083;&#1080;&#1076;&#1080;&#1088;&#1091;&#1077;&#1090; &#1086;&#1073;&#1103;&#1079;&#1072;&#1090;&#1077;&#1083;&#1100;&#1085;&#1099;&#1077; &#1087;&#1086;&#1083;&#1103;</text><rect fill="#F1F1F1" height="33.9688" rx="12.5" ry="12.5" style="stroke:#181818;stroke-width:1.5;" width="160.3496" x="798.1836" y="542.0854"/><text fill="#000000" font-family="sans-serif" font-size="12" lengthAdjust="spacing" textLength="140.3496" x="808.1836" y="563.2241">&#1055;&#1086;&#1074;&#1090;&#1086;&#1088;&#1085;&#1072;&#1103; &#1074;&#1072;&#1083;&#1080;&#1076;&#1072;&#1094;&#1080;&#1103;</text><polygon fill="#F1F1F1" points="814.2451,371.7769,942.4717,371.7769,954.4717,383.7769,942.4717,395.7769,814.2451,395.7769,802.2451,383.7769,814.2451,371.7769" style="stroke:#181818;stroke-width:1.5;"/><text fill="#000000" font-family="sans-serif" font-size="11" lengthAdjust="spacing" textLength="21.4468" x="882.3584" y="405.9873">&#1053;&#1077;&#1090;</text><text fill="#000000" font-family="sans-serif" font-size="12" lengthAdjust="spacing" textLength="128.2266" x="814.2451" y="387.9312">&#1044;&#1072;&#1085;&#1085;&#1099;&#1077; &#1082;&#1086;&#1088;&#1088;&#1077;&#1082;&#1090;&#1085;&#1099;?</text><polygon fill="#F1F1F1" points="878.3584,596.0542,890.3584,608.0542,878.3584,620.0542,866.3584,608.0542,878.3584,596.0542" style="stroke:#181818;stroke-width:1.5;"/><rect fill="#F1F1F1" height="47.9375" rx="12.5" ry="12.5" style="stroke:#181818;stroke-width:1.5;" width="152.416" x="802.1504" y="640.0542"/><text fill="#000000" font-family="sans-serif" font-size="12" lengthAdjust="spacing" textLength="132.416" x="812.1504" y="661.1929">&#1057;&#1086;&#1093;&#1088;&#1072;&#1085;&#1103;&#1077;&#1090; &#1074;&#1072;&#1082;&#1072;&#1085;&#1089;&#1080;&#1102;</text><text fill="#000000" font-family="sans-serif" font-size="12" lengthAdjust="spacing" textLength="119.6133" x="812.1504" y="675.1616">&#1089;&#1086; &#1089;&#1090;&#1072;&#1090;&#1091;&#1089;&#1086;&#1084; DRAFT</text><rect fill="#F1F1F1" height="47.9375" rx="12.5" ry="12.5" style="stroke:#181818;stroke-width:1.5;" width="145.8945" x="805.4111" y="815.9292"/><text fill="#000000" font-family="sans-serif" font-size="12" lengthAdjust="spacing" textLength="106.6758" x="815.4111" y="837.0679">&#1048;&#1079;&#1084;&#1077;&#1085;&#1103;&#1077;&#1090; &#1089;&#1090;&#1072;&#1090;&#1091;&#1089;</text><text fill="#000000" font-family="sans-serif" font-size="12" lengthAdjust="spacing" textLength="125.8945" x="815.4111" y="851.0366">&#1085;&#1072; ON_MODERATION</text><rect fill="#F1F1F1" height="47.9375" rx="12.5" ry="12.5" style="stroke:#181818;stroke-width:1.5;" width="158.4219" x="799.1475" y="883.8667"/><text fill="#000000" font-family="sans-serif" font-size="12" lengthAdjust="spacing" textLength="99.5156" x="809.1475" y="905.0054">&#1057;&#1086;&#1079;&#1076;&#1072;&#1105;&#1090; &#1079;&#1072;&#1076;&#1072;&#1095;&#1091;</text><text fill="#000000" font-family="sans-serif" font-size="12" lengthAdjust="spacing" textLength="138.4219" x="809.1475" y="918.9741">&#1074; &#1086;&#1095;&#1077;&#1088;&#1077;&#1076;&#1080; &#1084;&#1086;&#1076;&#1077;&#1088;&#1072;&#1094;&#1080;&#1080;</text><rect fill="#F1F1F1" height="47.9375" rx="12.5" ry="12.5" style="stroke:#181818;stroke-width:1.5;" width="183.7285" x="786.4941" y="951.8042"/><text fill="#000000" font-family="sans-serif" font-size="12" lengthAdjust="spacing" textLength="163.7285" x="796.4941" y="972.9429">&#1054;&#1090;&#1087;&#1088;&#1072;&#1074;&#1083;&#1103;&#1077;&#1090; &#1091;&#1074;&#1077;&#1076;&#1086;&#1084;&#1083;&#1077;&#1085;&#1080;&#1077;</text><text fill="#000000" font-family="sans-serif" font-size="12" lengthAdjust="spacing" textLength="76.0957" x="796.4941" y="986.9116">&#1084;&#1086;&#1076;&#1077;&#1088;&#1072;&#1090;&#1086;&#1088;&#1091;</text><rect fill="#F1F1F1" height="47.9375" rx="12.5" ry="12.5" style="stroke:#181818;stroke-width:1.5;" width="126.6758" x="624.7529" y="1339.4292"/><text fill="#000000" font-family="sans-serif" font-size="12" lengthAdjust="spacing" textLength="106.6758" x="634.7529" y="1360.5679">&#1048;&#1079;&#1084;&#1077;&#1085;&#1103;&#1077;&#1090; &#1089;&#1090;&#1072;&#1090;&#1091;&#1089;</text><text fill="#000000" font-family="sans-serif" font-size="12" lengthAdjust="spacing" textLength="78.5859" x="634.7529" y="1374.5366">&#1085;&#1072; REJECTED</text><rect fill="#F1F1F1" height="47.9375" rx="12.5" ry="12.5" style="stroke:#181818;stroke-width:1.5;" width="189.1836" x="593.499" y="1407.3667"/><text fill="#000000" font-family="sans-serif" font-size="12" lengthAdjust="spacing" textLength="168.4922" x="603.499" y="1428.5054">&#1059;&#1074;&#1077;&#1076;&#1086;&#1084;&#1083;&#1103;&#1077;&#1090; &#1088;&#1072;&#1073;&#1086;&#1090;&#1086;&#1076;&#1072;&#1090;&#1077;&#1083;&#1103;</text><text fill="#000000" font-family="sans-serif" font-size="12" lengthAdjust="spacing" textLength="169.1836" x="603.499" y="1442.4741">&#1086;&#1073; &#1086;&#1090;&#1082;&#1083;&#1086;&#1085;&#1077;&#1085;&#1080;&#1080; &#1089; &#1087;&#1088;&#1080;&#1095;&#1080;&#1085;&#1086;&#1081;</text><rect fill="#F1F1F1" height="47.9375" rx="12.5" ry="12.5" style="stroke:#181818;stroke-width:1.5;" width="126.6758" x="1005.2881" y="1271.4917"/><text fill="#000000" font-family="sans-serif" font-size="12" lengthAdjust="spacing" textLength="106.6758" x="1015.2881" y="1292.6304">&#1048;&#1079;&#1084;&#1077;&#1085;&#1103;&#1077;&#1090; &#1089;&#1090;&#1072;&#1090;&#1091;&#1089;</text><text fill="#000000" font-family="sans-serif" font-size="12" lengthAdjust="spacing" textLength="86.9531" x="1015.2881" y="1306.5991">&#1085;&#1072; PUBLISHED</text><rect fill="#F1F1F1" height="47.9375" rx="12.5" ry="12.5" style="stroke:#181818;stroke-width:1.5;" width="152.3633" x="992.4443" y="1339.4292"/><text fill="#000000" font-family="sans-serif" font-size="12" lengthAdjust="spacing" textLength="132.3633" x="1002.4443" y="1360.5679">&#1047;&#1072;&#1087;&#1080;&#1089;&#1099;&#1074;&#1072;&#1077;&#1090; &#1089;&#1086;&#1073;&#1099;&#1090;&#1080;&#1077;</text><text fill="#000000" font-family="sans-serif" font-size="12" lengthAdjust="spacing" textLength="107.9941" x="1002.4443" y="1374.5366">&#1074; &#1078;&#1091;&#1088;&#1085;&#1072;&#1083; &#1072;&#1091;&#1076;&#1080;&#1090;&#1072;</text><rect fill="#F1F1F1" height="47.9375" rx="12.5" ry="12.5" style="stroke:#181818;stroke-width:1.5;" width="189.8633" x="973.6943" y="1407.3667"/><text fill="#000000" font-family="sans-serif" font-size="12" lengthAdjust="spacing" textLength="132.9902" x="983.6943" y="1428.5054">&#1044;&#1086;&#1073;&#1072;&#1074;&#1083;&#1103;&#1077;&#1090; &#1074;&#1072;&#1082;&#1072;&#1085;&#1089;&#1080;&#1102;</text><text fill="#000000" font-family="sans-serif" font-size="12" lengthAdjust="spacing" textLength="169.8633" x="983.6943" y="1442.4741">&#1074; &#1082;&#1072;&#1090;&#1072;&#1083;&#1086;&#1075; &#1080; &#1088;&#1077;&#1082;&#1086;&#1084;&#1077;&#1085;&#1076;&#1072;&#1094;&#1080;&#1080;</text><rect fill="#F1F1F1" height="47.9375" rx="12.5" ry="12.5" style="stroke:#181818;stroke-width:1.5;" width="188.4922" x="974.3799" y="1475.3042"/><text fill="#000000" font-family="sans-serif" font-size="12" lengthAdjust="spacing" textLength="168.4922" x="984.3799" y="1496.4429">&#1059;&#1074;&#1077;&#1076;&#1086;&#1084;&#1083;&#1103;&#1077;&#1090; &#1088;&#1072;&#1073;&#1086;&#1090;&#1086;&#1076;&#1072;&#1090;&#1077;&#1083;&#1103;</text><text fill="#000000" font-family="sans-serif" font-size="12" lengthAdjust="spacing" textLength="161.4492" x="984.3799" y="1510.4116">&#1086;&#1073; &#1091;&#1089;&#1087;&#1077;&#1096;&#1085;&#1086;&#1081; &#1087;&#1091;&#1073;&#1083;&#1080;&#1082;&#1072;&#1094;&#1080;&#1080;</text><line style="stroke:#000000;stroke-width:1.5;" x1="587.499" x2="587.499" y1="53.8628" y2="1645.1792"/><rect fill="#FCE8E8" height="1591.3164" style="stroke:#FCE8E8;stroke-width:1;" width="379.5518" x="1167.5576" y="53.8628"/><rect fill="#F1F1F1" height="47.9375" rx="12.5" ry="12.5" style="stroke:#181818;stroke-width:1.5;" width="168.0957" x="1351.5176" y="1019.7417"/><text fill="#000000" font-family="sans-serif" font-size="12" lengthAdjust="spacing" textLength="148.0957" x="1361.5176" y="1040.8804">&#1055;&#1086;&#1083;&#1091;&#1095;&#1072;&#1077;&#1090; &#1091;&#1074;&#1077;&#1076;&#1086;&#1084;&#1083;&#1077;&#1085;&#1080;&#1077;</text><text fill="#000000" font-family="sans-serif" font-size="12" lengthAdjust="spacing" textLength="111.4395" x="1361.5176" y="1054.8491">&#1086; &#1085;&#1086;&#1074;&#1086;&#1081; &#1074;&#1072;&#1082;&#1072;&#1085;&#1089;&#1080;&#1080;</text><rect fill="#F1F1F1" height="47.9375" rx="12.5" ry="12.5" style="stroke:#181818;stroke-width:1.5;" width="154.7598" x="1358.1855" y="1087.6792"/><text fill="#000000" font-family="sans-serif" font-size="12" lengthAdjust="spacing" textLength="134.7598" x="1368.1855" y="1108.8179">&#1054;&#1090;&#1082;&#1088;&#1099;&#1074;&#1072;&#1077;&#1090; &#1074;&#1072;&#1082;&#1072;&#1085;&#1089;&#1080;&#1102;</text><text fill="#000000" font-family="sans-serif" font-size="12" lengthAdjust="spacing" textLength="70.9043" x="1368.1855" y="1122.7866">&#1080;&#1079; &#1086;&#1095;&#1077;&#1088;&#1077;&#1076;&#1080;</text><rect fill="#F1F1F1" height="47.9375" rx="12.5" ry="12.5" style="stroke:#181818;stroke-width:1.5;" width="215.0879" x="1328.0215" y="1155.6167"/><text fill="#000000" font-family="sans-serif" font-size="12" lengthAdjust="spacing" textLength="149.8887" x="1338.0215" y="1176.7554">&#1055;&#1088;&#1086;&#1074;&#1077;&#1088;&#1103;&#1077;&#1090; &#1089;&#1086;&#1076;&#1077;&#1088;&#1078;&#1072;&#1085;&#1080;&#1077;</text><text fill="#000000" font-family="sans-serif" font-size="12" lengthAdjust="spacing" textLength="195.0879" x="1338.0215" y="1190.7241">(&#1087;&#1088;&#1072;&#1074;&#1080;&#1083;&#1072;, &#1089;&#1090;&#1086;&#1087;-&#1089;&#1083;&#1086;&#1074;&#1072;, &#1092;&#1086;&#1088;&#1084;&#1072;&#1090;)</text><polygon fill="#F1F1F1" points="1357.9082,1223.5542,1513.2227,1223.5542,1525.2227,1237.5229,1513.2227,1251.4917,1357.9082,1251.4917,1345.9082,1237.5229,1357.9082,1223.5542" style="stroke:#181818;stroke-width:1.5;"/><text fill="#000000" font-family="sans-serif" font-size="12" lengthAdjust="spacing" textLength="155.3145" x="1357.9082" y="1234.6929">&#1042;&#1072;&#1082;&#1072;&#1085;&#1089;&#1080;&#1103; &#1089;&#1086;&#1086;&#1090;&#1074;&#1077;&#1090;&#1089;&#1090;&#1074;&#1091;&#1077;&#1090;</text><text fill="#000000" font-family="sans-serif" font-size="12" lengthAdjust="spacing" textLength="68.1328" x="1357.9082" y="1248.6616">&#1087;&#1088;&#1072;&#1074;&#1080;&#1083;&#1072;&#1084;?</text><text fill="#000000" font-family="sans-serif" font-size="11" lengthAdjust="spacing" textLength="21.4468" x="1324.4614" y="1234.9287">&#1053;&#1077;&#1090;</text><text fill="#000000" font-family="sans-serif" font-size="11" lengthAdjust="spacing" textLength="15.3345" x="1525.2227" y="1234.9287">&#1044;&#1072;</text><rect fill="#F1F1F1" height="47.9375" rx="12.5" ry="12.5" style="stroke:#181818;stroke-width:1.5;" width="143.4805" x="1173.5576" y="1271.4917"/><text fill="#000000" font-family="sans-serif" font-size="12" lengthAdjust="spacing" textLength="123.4805" x="1183.5576" y="1292.6304">&#1059;&#1082;&#1072;&#1079;&#1099;&#1074;&#1072;&#1077;&#1090; &#1087;&#1088;&#1080;&#1095;&#1080;&#1085;&#1091;</text><text fill="#000000" font-family="sans-serif" font-size="12" lengthAdjust="spacing" textLength="74.6836" x="1183.5576" y="1306.5991">&#1086;&#1090;&#1082;&#1083;&#1086;&#1085;&#1077;&#1085;&#1080;&#1103;</text><line style="stroke:#000000;stroke-width:1.5;" x1="1167.5576" x2="1167.5576" y1="53.8628" y2="1645.1792"/><line style="stroke:#000000;stroke-width:1.5;" x1="1547.1094" x2="1547.1094" y1="53.8628" y2="1645.1792"/><line style="stroke:#181818;stroke-width:1.5;" x1="300.3154" x2="300.3154" y1="93.9956" y2="113.9956"/><polygon fill="#181818" points="296.3154,103.9956,300.3154,113.9956,304.3154,103.9956,300.3154,107.9956" style="stroke:#181818;stroke-width:1;"/><line style="stroke:#181818;stroke-width:1.5;" x1="300.3154" x2="300.3154" y1="161.9331" y2="181.9331"/><polygon fill="#181818" points="296.3154,171.9331,300.3154,181.9331,304.3154,171.9331,300.3154,175.9331" style="stroke:#181818;stroke-width:1;"/><line style="stroke:#181818;stroke-width:1.5;" x1="300.3154" x2="300.3154" y1="243.8394" y2="263.8394"/><polygon fill="#181818" points="296.3154,253.8394,300.3154,263.8394,304.3154,253.8394,300.3154,257.8394" style="stroke:#181818;stroke-width:1;"/><line style="stroke:#181818;stroke-width:1.5;" x1="300.3154" x2="300.3154" y1="468.1167" y2="488.1167"/><polygon fill="#181818" points="296.3154,478.1167,300.3154,488.1167,304.3154,478.1167,300.3154,482.1167" style="stroke:#181818;stroke-width:1;"/><line style="stroke:#181818;stroke-width:1.5;" x1="300.3154" x2="300.3154" y1="741.9604" y2="761.9604"/><polygon fill="#181818" points="296.3154,751.9604,300.3154,761.9604,304.3154,751.9604,300.3154,755.9604" style="stroke:#181818;stroke-width:1;"/><line style="stroke:#181818;stroke-width:1.5;" x1="110.0479" x2="110.0479" y1="1523.2417" y2="1543.2417"/><polygon fill="#181818" points="106.0479,1533.2417,110.0479,1543.2417,114.0479,1533.2417,110.0479,1537.2417" style="stroke:#181818;stroke-width:1;"/><line style="stroke:#181818;stroke-width:1.5;" x1="110.0479" x2="110.0479" y1="1591.1792" y2="1611.1792"/><polygon fill="#181818" points="106.0479,1601.1792,110.0479,1611.1792,114.0479,1601.1792,110.0479,1605.1792" style="stroke:#181818;stroke-width:1;"/><line style="stroke:#181818;stroke-width:1.5;" x1="490.583" x2="490.583" y1="1591.1792" y2="1611.1792"/><polygon fill="#181818" points="486.583,1601.1792,490.583,1611.1792,494.583,1601.1792,490.583,1605.1792" style="stroke:#181818;stroke-width:1;"/><line style="stroke:#181818;stroke-width:1.5;" x1="954.4717" x2="971.8115" y1="383.7769" y2="383.7769"/><polygon fill="#181818" points="967.8115,488.1167,971.8115,498.1167,975.8115,488.1167,971.8115,492.1167" style="stroke:#181818;stroke-width:1.5;"/><line style="stroke:#181818;stroke-width:1.5;" x1="971.8115" x2="971.8115" y1="383.7769" y2="608.0542"/><line style="stroke:#181818;stroke-width:1.5;" x1="971.8115" x2="890.3584" y1="608.0542" y2="608.0542"/><polygon fill="#181818" points="900.3584,604.0542,890.3584,608.0542,900.3584,612.0542,896.3584,608.0542" style="stroke:#181818;stroke-width:1;"/><line style="stroke:#181818;stroke-width:1.5;" x1="878.3584" x2="878.3584" y1="576.0542" y2="596.0542"/><polygon fill="#181818" points="874.3584,586.0542,878.3584,596.0542,882.3584,586.0542,878.3584,590.0542" style="stroke:#181818;stroke-width:1;"/><line style="stroke:#181818;stroke-width:1.5;" x1="878.3584" x2="878.3584" y1="351.7769" y2="371.7769"/><polygon fill="#181818" points="874.3584,361.7769,878.3584,371.7769,882.3584,361.7769,878.3584,365.7769" style="stroke:#181818;stroke-width:1;"/><line style="stroke:#181818;stroke-width:1.5;" x1="878.3584" x2="878.3584" y1="620.0542" y2="640.0542"/><polygon fill="#181818" points="874.3584,630.0542,878.3584,640.0542,882.3584,630.0542,878.3584,634.0542" style="stroke:#181818;stroke-width:1;"/><line style="stroke:#181818;stroke-width:1.5;" x1="878.3584" x2="878.3584" y1="863.8667" y2="883.8667"/><polygon fill="#181818" points="874.3584,873.8667,878.3584,883.8667,882.3584,873.8667,878.3584,877.8667" style="stroke:#181818;stroke-width:1;"/><line style="stroke:#181818;stroke-width:1.5;" x1="878.3584" x2="878.3584" y1="931.8042" y2="951.8042"/><polygon fill="#181818" points="874.3584,941.8042,878.3584,951.8042,882.3584,941.8042,878.3584,945.8042" style="stroke:#181818;stroke-width:1;"/><line style="stroke:#181818;stroke-width:1.5;" x1="688.0908" x2="688.0908" y1="1387.3667" y2="1407.3667"/><polygon fill="#181818" points="684.0908,1397.3667,688.0908,1407.3667,692.0908,1397.3667,688.0908,1401.3667" style="stroke:#181818;stroke-width:1;"/><line style="stroke:#181818;stroke-width:1.5;" x1="1068.626" x2="1068.626" y1="1319.4292" y2="1339.4292"/><polygon fill="#181818" points="1064.626,1329.4292,1068.626,1339.4292,1072.626,1329.4292,1068.626,1333.4292" style="stroke:#181818;stroke-width:1;"/><line style="stroke:#181818;stroke-width:1.5;" x1="1068.626" x2="1068.626" y1="1387.3667" y2="1407.3667"/><polygon fill="#181818" points="1064.626,1397.3667,1068.626,1407.3667,1072.626,1397.3667,1068.626,1401.3667" style="stroke:#181818;stroke-width:1;"/><line style="stroke:#181818;stroke-width:1.5;" x1="1068.626" x2="1068.626" y1="1455.3042" y2="1475.3042"/><polygon fill="#181818" points="1064.626,1465.3042,1068.626,1475.3042,1072.626,1465.3042,1068.626,1469.3042" style="stroke:#181818;stroke-width:1;"/><line style="stroke:#181818;stroke-width:1.5;" x1="1435.5654" x2="1435.5654" y1="1067.6792" y2="1087.6792"/><polygon fill="#181818" points="1431.5654,1077.6792,1435.5654,1087.6792,1439.5654,1077.6792,1435.5654,1081.6792" style="stroke:#181818;stroke-width:1;"/><line style="stroke:#181818;stroke-width:1.5;" x1="1435.5654" x2="1435.5654" y1="1135.6167" y2="1155.6167"/><polygon fill="#181818" points="1431.5654,1145.6167,1435.5654,1155.6167,1439.5654,1145.6167,1435.5654,1149.6167" style="stroke:#181818;stroke-width:1;"/><line style="stroke:#181818;stroke-width:1.5;" x1="1345.9082" x2="1245.2979" y1="1237.5229" y2="1237.5229"/><line style="stroke:#181818;stroke-width:1.5;" x1="1245.2979" x2="1245.2979" y1="1237.5229" y2="1271.4917"/><polygon fill="#181818" points="1241.2979,1261.4917,1245.2979,1271.4917,1249.2979,1261.4917,1245.2979,1265.4917" style="stroke:#181818;stroke-width:1;"/><line style="stroke:#181818;stroke-width:1.5;" x1="1435.5654" x2="1435.5654" y1="1203.5542" y2="1223.5542"/><polygon fill="#181818" points="1431.5654,1213.5542,1435.5654,1223.5542,1439.5654,1213.5542,1435.5654,1217.5542" style="stroke:#181818;stroke-width:1;"/><line style="stroke:#181818;stroke-width:1.5;" x1="300.3154" x2="300.3154" y1="297.8081" y2="302.8081"/><line style="stroke:#181818;stroke-width:1.5;" x1="300.3154" x2="878.3584" y1="302.8081" y2="302.8081"/><line style="stroke:#181818;stroke-width:1.5;" x1="878.3584" x2="878.3584" y1="302.8081" y2="317.8081"/><polygon fill="#181818" points="874.3584,307.8081,878.3584,317.8081,882.3584,307.8081,878.3584,311.8081" style="stroke:#181818;stroke-width:1;"/><line style="stroke:#181818;stroke-width:1.5;" x1="300.3154" x2="300.3154" y1="522.0854" y2="527.0854"/><line style="stroke:#181818;stroke-width:1.5;" x1="300.3154" x2="878.3584" y1="527.0854" y2="527.0854"/><line style="stroke:#181818;stroke-width:1.5;" x1="878.3584" x2="878.3584" y1="527.0854" y2="542.0854"/><polygon fill="#181818" points="874.3584,532.0854,878.3584,542.0854,882.3584,532.0854,878.3584,536.0854" style="stroke:#181818;stroke-width:1;"/><line style="stroke:#181818;stroke-width:1.5;" x1="878.3584" x2="878.3584" y1="395.7769" y2="407.978"/><line style="stroke:#181818;stroke-width:1.5;" x1="878.3584" x2="300.3154" y1="407.978" y2="407.978"/><line style="stroke:#181818;stroke-width:1.5;" x1="300.3154" x2="300.3154" y1="407.978" y2="420.1792"/><polygon fill="#181818" points="296.3154,410.1792,300.3154,420.1792,304.3154,410.1792,300.3154,414.1792" style="stroke:#181818;stroke-width:1;"/><line style="stroke:#181818;stroke-width:1.5;" x1="878.3584" x2="878.3584" y1="687.9917" y2="692.9917"/><line style="stroke:#181818;stroke-width:1.5;" x1="878.3584" x2="300.3154" y1="692.9917" y2="692.9917"/><line style="stroke:#181818;stroke-width:1.5;" x1="300.3154" x2="300.3154" y1="692.9917" y2="707.9917"/><polygon fill="#181818" points="296.3154,697.9917,300.3154,707.9917,304.3154,697.9917,300.3154,701.9917" style="stroke:#181818;stroke-width:1;"/><line style="stroke:#181818;stroke-width:1.5;" x1="300.3154" x2="300.3154" y1="795.9292" y2="800.9292"/><line style="stroke:#181818;stroke-width:1.5;" x1="300.3154" x2="878.3584" y1="800.9292" y2="800.9292"/><line style="stroke:#181818;stroke-width:1.5;" x1="878.3584" x2="878.3584" y1="800.9292" y2="815.9292"/><polygon fill="#181818" points="874.3584,805.9292,878.3584,815.9292,882.3584,805.9292,878.3584,809.9292" style="stroke:#181818;stroke-width:1;"/><line style="stroke:#181818;stroke-width:1.5;" x1="878.3584" x2="878.3584" y1="999.7417" y2="1004.7417"/><line style="stroke:#181818;stroke-width:1.5;" x1="878.3584" x2="1435.5654" y1="1004.7417" y2="1004.7417"/><line style="stroke:#181818;stroke-width:1.5;" x1="1435.5654" x2="1435.5654" y1="1004.7417" y2="1019.7417"/><polygon fill="#181818" points="1431.5654,1009.7417,1435.5654,1019.7417,1439.5654,1009.7417,1435.5654,1013.7417" style="stroke:#181818;stroke-width:1;"/><line style="stroke:#181818;stroke-width:1.5;" x1="1245.2979" x2="1245.2979" y1="1319.4292" y2="1324.4292"/><line style="stroke:#181818;stroke-width:1.5;" x1="1245.2979" x2="688.0908" y1="1324.4292" y2="1324.4292"/><line style="stroke:#181818;stroke-width:1.5;" x1="688.0908" x2="688.0908" y1="1324.4292" y2="1339.4292"/><polygon fill="#181818" points="684.0908,1329.4292,688.0908,1339.4292,692.0908,1329.4292,688.0908,1333.4292" style="stroke:#181818;stroke-width:1;"/><line style="stroke:#181818;stroke-width:1.5;" x1="688.0908" x2="688.0908" y1="1455.3042" y2="1460.3042"/><line style="stroke:#181818;stroke-width:1.5;" x1="688.0908" x2="110.0479" y1="1460.3042" y2="1460.3042"/><line style="stroke:#181818;stroke-width:1.5;" x1="110.0479" x2="110.0479" y1="1460.3042" y2="1475.3042"/><polygon fill="#181818" points="106.0479,1465.3042,110.0479,1475.3042,114.0479,1465.3042,110.0479,1469.3042" style="stroke:#181818;stroke-width:1;"/><line style="stroke:#181818;stroke-width:1.5;" x1="1068.626" x2="1068.626" y1="1523.2417" y2="1528.2417"/><line style="stroke:#181818;stroke-width:1.5;" x1="1068.626" x2="490.583" y1="1528.2417" y2="1528.2417"/><line style="stroke:#181818;stroke-width:1.5;" x1="490.583" x2="490.583" y1="1528.2417" y2="1543.2417"/><polygon fill="#181818" points="486.583,1533.2417,490.583,1543.2417,494.583,1533.2417,490.583,1537.2417" style="stroke:#181818;stroke-width:1;"/><line style="stroke:#181818;stroke-width:1.5;" x1="1525.2227" x2="1537.2227" y1="1237.5229" y2="1237.5229"/><line style="stroke:#181818;stroke-width:1.5;" x1="1537.2227" x2="1537.2227" y1="1237.5229" y2="1258.4761"/><line style="stroke:#181818;stroke-width:1.5;" x1="1537.2227" x2="1068.626" y1="1258.4761" y2="1258.4761"/><line style="stroke:#181818;stroke-width:1.5;" x1="1068.626" x2="1068.626" y1="1258.4761" y2="1271.4917"/><polygon fill="#181818" points="1064.626,1261.4917,1068.626,1271.4917,1072.626,1261.4917,1068.626,1265.4917" style="stroke:#181818;stroke-width:1;"/><text fill="#000000" font-family="sans-serif" font-size="13" lengthAdjust="spacing" textLength="95.7988" x="255.8501" y="65.9297">&#1056;&#1072;&#1073;&#1086;&#1090;&#1086;&#1076;&#1072;&#1090;&#1077;&#1083;&#1100;</text><text fill="#000000" font-family="sans-serif" font-size="13" lengthAdjust="spacing" textLength="58.0176" x="848.5195" y="65.9297">&#1057;&#1080;&#1089;&#1090;&#1077;&#1084;&#1072;</text><text fill="#000000" font-family="sans-serif" font-size="13" lengthAdjust="spacing" textLength="76.1528" x="1319.2571" y="65.9297">&#1052;&#1086;&#1076;&#1077;&#1088;&#1072;&#1090;&#1086;&#1088;</text><?plantuml-src hLPTQnDH47tFhxZWYu4gr0yesGTfJOAAjjB6ju84kxMBxKQIHL4hP1DhbKg3Kj07lugFlgHhjudv17_1lN_1N-APkRlfPfDeKHyAlNTdpioSENScZkMicsBkvervyREy9-GdLPOzzLpwobMkc4xHJLKUoBPiofQiuqjJrOJqP9sEigjSV6WAUDLXrLCLsPE7iAj87pw-x2GIfNkMVJzVp6-8_1t7Uc0vZyIJX11pXUAAMSojMNVksMQf9ARFNiHjjc0xIzPZKqoVmobjvJSAzieuqwSHtD93QsCzRvk_mSrHdSVWv-6Vs3oLcSbUoAOtXVmyBdtrIcmcIaw-w2HISXzV6lpjjQe8sSNHKrMr6-D2xIxRfncefSfgXp_wS53FS5cM7LLD6a1xY-i-8Dhmgh41GGEr2nz_X5_2xEBOu0zTNFbJ0kvz17GZDsJZ0Q4bcrFBDiphYDb75AgeFZN8WiwHdgaTJke3paT0wWGv__XALQijDaG86BuIQXlVohf-qiIFja5CfYzcPj8NmEG-fSJy0GRyfUGRU9Dy3l6b335njJrvWC8RnrI7bJChgcOah5LnMkv5IMbHyeZjWziANLvA2cVDj67tWL2JwFE9UYf4IdxYE5MK4pJ8nGLbzH9cp2S8n1cfgXSu7h3yjtHhT3dy6cJJOBnt0EWpKnxbFz9JWvERI5EOaaVfCh_ry9r5WX4lfhrYhMf1Xgq9muqeaOeI70VberYgiIFIYxFPd752_QU2aU1grU3_vh6eOrgO8AAFW0kfqIAYyWJVaITXj5Jrpqfw1y5qg3r1mT7Aq2q2NPY_VMCXdLcSpLrTc3T6toqKnuTjLOM7HztLHVYaJm5u8e0k1jrD3HKGzXP2zjW9ZFAa2pKJHU1UgYhNbRsScSdCeAxtSGFDSboFa_1xmV31t_UHGH5cEpnyHeK1sqQiTYDijUx8WE91jaVXeA5fDEWd3PSftGdCepEmRpD4RDeaWmVzPYYJMl3iu4n1AmpZwHc198U2oCwOvvwINnYk4QsMt9eehOaer6MUnfnML_D8p-YFh_44OblCNCjSpcNIHf19f66XqzYzg6h7ioMM6krITwW4whFnJvDjef8cPA3B-Sm-TPwraS4zTiR8RxnZNCfMlp4mnmamsx93a7R1CKNHkhlc2FfPCJhiUf5dXX01oV4dgNQ1LN8AznFcUidKEoBvNzfvyzRSzQjBLy9-wXrDI94rxlAEs25Ec4DCa2D0S0soBO1OvKK7R8soHmx3Ms7qDNg2jqk5fptO5FedbKyhJsSTNpT_8JQU_trOlj2Y8fN5VjffzBzM6Y_lm-0nqy0uZAXjGZ3TITfflm00?></g></svg>