<svg xmlns="http://www.w3.org/2000/svg" xmlns:xlink="http://www.w3.org/1999/xlink" contentStyleType="text/css" data-diagram-type="ACTIVITY" height="1981px" preserveAspectRatio="none" style="width:737px;height:1981px;background:#FFFFFF;" version="1.1" viewBox="0 0 737 1981" width="737px" zoomAndPan="magnify"><?plantuml 1.2026.4beta2?><defs/><g><g class="title" data-source-line="1"><text fill="#000000" font-family="sans-serif" font-size="14" font-weight="700" lengthAdjust="spacing" textLength="408.29" x="163.6869" y="32.9951">BPMN &#8212; &#1055;&#1088;&#1086;&#1094;&#1077;&#1089;&#1089; 2: &#1054;&#1090;&#1082;&#1083;&#1080;&#1082; &#1089;&#1090;&#1091;&#1076;&#1077;&#1085;&#1090;&#1072; &#1085;&#1072; &#1074;&#1072;&#1082;&#1072;&#1085;&#1089;&#1080;&#1102;</text></g><rect fill="none" height="15.1328" style="stroke:none;stroke-width:1;" width="690.6638" x="20" y="53.8628"/><rect fill="#E8F4FD" height="1906.7305" style="stroke:#E8F4FD;stroke-width:1;" width="241.0176" x="20" y="53.8628"/><ellipse cx="133.1309" cy="83.9956" fill="#222222" rx="10" ry="10" style="stroke:#222222;stroke-width:1;"/><rect fill="#F1F1F1" height="47.9375" rx="12.5" ry="12.5" style="stroke:#181818;stroke-width:1.5;" width="206.5332" x="29.8643" y="113.9956"/><text fill="#000000" font-family="sans-serif" font-size="12" lengthAdjust="spacing" textLength="186.5332" x="39.8643" y="135.1343">&#1054;&#1090;&#1082;&#1088;&#1099;&#1074;&#1072;&#1077;&#1090; &#1082;&#1072;&#1090;&#1072;&#1083;&#1086;&#1075; &#1074;&#1072;&#1082;&#1072;&#1085;&#1089;&#1080;&#1081;</text><text fill="#000000" font-family="sans-serif" font-size="12" lengthAdjust="spacing" textLength="183.6563" x="39.8643" y="149.103">&#1080;&#1083;&#1080; &#1089;&#1090;&#1088;&#1072;&#1085;&#1080;&#1094;&#1091; &#1088;&#1077;&#1082;&#1086;&#1084;&#1077;&#1085;&#1076;&#1072;&#1094;&#1080;&#1081;</text><rect fill="#F1F1F1" height="47.9375" rx="12.5" ry="12.5" style="stroke:#181818;stroke-width:1.5;" width="198.5938" x="33.834" y="181.9331"/><text fill="#000000" font-family="sans-serif" font-size="12" lengthAdjust="spacing" textLength="153.7676" x="43.834" y="203.0718">&#1047;&#1072;&#1076;&#1072;&#1105;&#1090; &#1092;&#1080;&#1083;&#1100;&#1090;&#1088;&#1099; &#1087;&#1086;&#1080;&#1089;&#1082;&#1072;</text><text fill="#000000" font-family="sans-serif" font-size="12" lengthAdjust="spacing" textLength="178.5938" x="43.834" y="217.0405">(&#1085;&#1072;&#1074;&#1099;&#1082;&#1080;, &#1092;&#1086;&#1088;&#1084;&#1072;&#1090;, &#1079;&#1072;&#1088;&#1087;&#1083;&#1072;&#1090;&#1072;)</text><rect fill="#F1F1F1" height="33.9688" rx="12.5" ry="12.5" style="stroke:#181818;stroke-width:1.5;" width="196.0391" x="35.1113" y="371.7769"/><text fill="#000000" font-family="sans-serif" font-size="12" lengthAdjust="spacing" textLength="176.0391" x="45.1113" y="392.9155">&#1055;&#1088;&#1086;&#1089;&#1084;&#1072;&#1090;&#1088;&#1080;&#1074;&#1072;&#1077;&#1090; &#1088;&#1077;&#1079;&#1091;&#1083;&#1100;&#1090;&#1072;&#1090;&#1099;</text><rect fill="#F1F1F1" height="33.9688" rx="12.5" ry="12.5" style="stroke:#181818;stroke-width:1.5;" width="214.2617" x="26" y="425.7456"/><text fill="#000000" font-family="sans-serif" font-size="12" lengthAdjust="spacing" textLength="194.2617" x="36" y="446.8843">&#1054;&#1090;&#1082;&#1088;&#1099;&#1074;&#1072;&#1077;&#1090; &#1082;&#1072;&#1088;&#1090;&#1086;&#1095;&#1082;&#1091; &#1074;&#1072;&#1082;&#1072;&#1085;&#1089;&#1080;&#1080;</text><rect fill="#F1F1F1" height="33.9688" rx="12.5" ry="12.5" style="stroke:#181818;stroke-width:1.5;" width="197.7734" x="34.2441" y="532.0542"/><text fill="#000000" font-family="sans-serif" font-size="12" lengthAdjust="spacing" textLength="177.7734" x="44.2441" y="553.1929">&#1042;&#1099;&#1073;&#1080;&#1088;&#1072;&#1077;&#1090; &#1076;&#1088;&#1091;&#1075;&#1091;&#1102; &#1074;&#1072;&#1082;&#1072;&#1085;&#1089;&#1080;&#1102;</text><ellipse cx="133.1309" cy="604.5542" fill="none" rx="11" ry="11" style="stroke:#222222;stroke-width:1;"/><ellipse cx="133.1309" cy="604.5542" fill="#222222" rx="6" ry="6" style="stroke:#222222;stroke-width:1;"/><polygon fill="#F1F1F1" points="99.4395,479.7144,166.8223,479.7144,178.8223,493.6831,166.8223,507.6519,99.4395,507.6519,87.4395,493.6831,99.4395,479.7144" style="stroke:#181818;stroke-width:1.5;"/><text fill="#000000" font-family="sans-serif" font-size="11" lengthAdjust="spacing" textLength="21.4468" x="137.1309" y="517.8623">&#1053;&#1077;&#1090;</text><text fill="#000000" font-family="sans-serif" font-size="12" lengthAdjust="spacing" textLength="59.6484" x="99.4395" y="490.853">&#1042;&#1072;&#1082;&#1072;&#1085;&#1089;&#1080;&#1103;</text><text fill="#000000" font-family="sans-serif" font-size="12" lengthAdjust="spacing" textLength="67.3828" x="99.4395" y="504.8218">&#1087;&#1086;&#1076;&#1093;&#1086;&#1076;&#1080;&#1090;?</text><text fill="#000000" font-family="sans-serif" font-size="11" lengthAdjust="spacing" textLength="15.3345" x="178.8223" y="491.0889">&#1044;&#1072;</text><rect fill="#F1F1F1" height="33.9688" rx="12.5" ry="12.5" style="stroke:#181818;stroke-width:1.5;" width="193.4902" x="36.3857" y="657.5542"/><text fill="#000000" font-family="sans-serif" font-size="12" lengthAdjust="spacing" textLength="173.4902" x="46.3857" y="678.6929">&#1053;&#1072;&#1078;&#1080;&#1084;&#1072;&#1077;&#1090; &#171;&#1054;&#1090;&#1082;&#1083;&#1080;&#1082;&#1085;&#1091;&#1090;&#1100;&#1089;&#1103;&#187;</text><rect fill="#F1F1F1" height="47.9375" rx="12.5" ry="12.5" style="stroke:#181818;stroke-width:1.5;" width="171.1426" x="47.5596" y="845.769"/><text fill="#000000" font-family="sans-serif" font-size="12" lengthAdjust="spacing" textLength="151.1426" x="57.5596" y="866.9077">&#1055;&#1086;&#1083;&#1091;&#1095;&#1072;&#1077;&#1090; &#1087;&#1088;&#1077;&#1076;&#1083;&#1086;&#1078;&#1077;&#1085;&#1080;&#1077;</text><text fill="#000000" font-family="sans-serif" font-size="12" lengthAdjust="spacing" textLength="125.7188" x="57.5596" y="880.8765">&#1079;&#1072;&#1087;&#1086;&#1083;&#1085;&#1080;&#1090;&#1100; &#1087;&#1088;&#1086;&#1092;&#1080;&#1083;&#1100;</text><rect fill="#F1F1F1" height="47.9375" rx="12.5" ry="12.5" style="stroke:#181818;stroke-width:1.5;" width="150.6406" x="57.8105" y="913.7065"/><text fill="#000000" font-family="sans-serif" font-size="12" lengthAdjust="spacing" textLength="126.7617" x="67.8105" y="934.8452">&#1047;&#1072;&#1087;&#1086;&#1083;&#1085;&#1103;&#1077;&#1090; &#1087;&#1088;&#1086;&#1092;&#1080;&#1083;&#1100;</text><text fill="#000000" font-family="sans-serif" font-size="12" lengthAdjust="spacing" textLength="130.6406" x="67.8105" y="948.814">&#1080; &#1079;&#1072;&#1075;&#1088;&#1091;&#1078;&#1072;&#1077;&#1090; &#1088;&#1077;&#1079;&#1102;&#1084;&#1077;</text><rect fill="#F1F1F1" height="47.9375" rx="12.5" ry="12.5" style="stroke:#181818;stroke-width:1.5;" width="166.1035" x="50.0791" y="1199.8901"/><text fill="#000000" font-family="sans-serif" font-size="12" lengthAdjust="spacing" textLength="134.1621" x="60.0791" y="1221.0288">&#1055;&#1086;&#1083;&#1091;&#1095;&#1072;&#1077;&#1090; &#1089;&#1086;&#1086;&#1073;&#1097;&#1077;&#1085;&#1080;&#1077;</text><text fill="#000000" font-family="sans-serif" font-size="12" lengthAdjust="spacing" textLength="146.1035" x="60.0791" y="1234.9976">&#171;&#1042;&#1099; &#1091;&#1078;&#1077; &#1086;&#1090;&#1082;&#1083;&#1080;&#1082;&#1072;&#1083;&#1080;&#1089;&#1100;&#187;</text><ellipse cx="133.1309" cy="1288.1245" fill="none" rx="11" ry="11" style="stroke:#222222;stroke-width:1;"/><ellipse cx="133.1309" cy="1288.1245" fill="#222222" rx="6" ry="6" style="stroke:#222222;stroke-width:1;"/><rect fill="#F1F1F1" height="47.9375" rx="12.5" ry="12.5" style="stroke:#181818;stroke-width:1.5;" width="184.9297" x="40.666" y="1341.1245"/><text fill="#000000" font-family="sans-serif" font-size="12" lengthAdjust="spacing" textLength="164.9297" x="50.666" y="1362.2632">&#1055;&#1080;&#1096;&#1077;&#1090; &#1089;&#1086;&#1087;&#1088;&#1086;&#1074;&#1086;&#1076;&#1080;&#1090;&#1077;&#1083;&#1100;&#1085;&#1086;&#1077;</text><text fill="#000000" font-family="sans-serif" font-size="12" lengthAdjust="spacing" textLength="45.709" x="50.666" y="1376.2319">&#1087;&#1080;&#1089;&#1100;&#1084;&#1086;</text><rect fill="#F1F1F1" height="33.9688" rx="12.5" ry="12.5" style="stroke:#181818;stroke-width:1.5;" width="162.6699" x="51.7959" y="1409.062"/><text fill="#000000" font-family="sans-serif" font-size="12" lengthAdjust="spacing" textLength="142.6699" x="61.7959" y="1430.2007">&#1055;&#1086;&#1076;&#1090;&#1074;&#1077;&#1088;&#1078;&#1076;&#1072;&#1077;&#1090; &#1086;&#1090;&#1082;&#1083;&#1080;&#1082;</text><rect fill="#F1F1F1" height="47.9375" rx="12.5" ry="12.5" style="stroke:#181818;stroke-width:1.5;" width="206.9492" x="29.6563" y="1734.7808"/><text fill="#000000" font-family="sans-serif" font-size="12" lengthAdjust="spacing" textLength="186.9492" x="39.6563" y="1755.9194">&#1042;&#1080;&#1076;&#1080;&#1090; &#1089;&#1090;&#1072;&#1090;&#1091;&#1089; &#1086;&#1090;&#1082;&#1083;&#1080;&#1082;&#1072; &#171;NEW&#187;</text><text fill="#000000" font-family="sans-serif" font-size="12" lengthAdjust="spacing" textLength="162.873" x="39.6563" y="1769.8882">&#1074; &#1088;&#1072;&#1079;&#1076;&#1077;&#1083;&#1077; &#171;&#1052;&#1086;&#1080; &#1086;&#1090;&#1082;&#1083;&#1080;&#1082;&#1080;&#187;</text><line style="stroke:#000000;stroke-width:1.5;" x1="20" x2="20" y1="53.8628" y2="1960.5933"/><rect fill="#D5E8D4" height="1906.7305" style="stroke:#D5E8D4;stroke-width:1;" width="270.4844" x="261.0176" y="53.8628"/><rect fill="#F1F1F1" height="47.9375" rx="12.5" ry="12.5" style="stroke:#181818;stroke-width:1.5;" width="230.832" x="269.3438" y="249.8706"/><text fill="#000000" font-family="sans-serif" font-size="12" lengthAdjust="spacing" textLength="197.2793" x="279.3438" y="271.0093">&#1042;&#1099;&#1087;&#1086;&#1083;&#1085;&#1103;&#1077;&#1090; &#1087;&#1086;&#1080;&#1089;&#1082; &#1087;&#1086; &#1092;&#1080;&#1083;&#1100;&#1090;&#1088;&#1072;&#1084;</text><text fill="#000000" font-family="sans-serif" font-size="12" lengthAdjust="spacing" textLength="210.832" x="279.3438" y="284.978">&#1089;&#1088;&#1077;&#1076;&#1080; &#1086;&#1087;&#1091;&#1073;&#1083;&#1080;&#1082;&#1086;&#1074;&#1072;&#1085;&#1085;&#1099;&#1093; &#1074;&#1072;&#1082;&#1072;&#1085;&#1089;&#1080;&#1081;</text><rect fill="#F1F1F1" height="33.9688" rx="12.5" ry="12.5" style="stroke:#181818;stroke-width:1.5;" width="207.1543" x="281.1826" y="317.8081"/><text fill="#000000" font-family="sans-serif" font-size="12" lengthAdjust="spacing" textLength="187.1543" x="291.1826" y="338.9468">&#1042;&#1086;&#1079;&#1074;&#1088;&#1072;&#1097;&#1072;&#1077;&#1090; &#1089;&#1087;&#1080;&#1089;&#1086;&#1082; &#1074;&#1072;&#1082;&#1072;&#1085;&#1089;&#1080;&#1081;</text><rect fill="#F1F1F1" height="61.9063" rx="12.5" ry="12.5" style="stroke:#181818;stroke-width:1.5;" width="186.9746" x="291.2725" y="711.5229"/><text fill="#000000" font-family="sans-serif" font-size="12" lengthAdjust="spacing" textLength="166.9746" x="301.2725" y="732.6616">&#1055;&#1088;&#1086;&#1074;&#1077;&#1088;&#1103;&#1077;&#1090; &#1079;&#1072;&#1087;&#1086;&#1083;&#1085;&#1077;&#1085;&#1085;&#1086;&#1089;&#1090;&#1100;</text><text fill="#000000" font-family="sans-serif" font-size="12" lengthAdjust="spacing" textLength="118.125" x="301.2725" y="746.6304">&#1087;&#1088;&#1086;&#1092;&#1080;&#1083;&#1103; &#1089;&#1090;&#1091;&#1076;&#1077;&#1085;&#1090;&#1072;</text><text fill="#000000" font-family="sans-serif" font-size="12" lengthAdjust="spacing" textLength="111.7031" x="301.2725" y="760.5991">(&#1085;&#1072;&#1074;&#1099;&#1082;&#1080;, &#1088;&#1077;&#1079;&#1102;&#1084;&#1077;)</text><rect fill="#F1F1F1" height="33.9688" rx="12.5" ry="12.5" style="stroke:#181818;stroke-width:1.5;" width="235.4844" x="267.0176" y="981.644"/><text fill="#000000" font-family="sans-serif" font-size="12" lengthAdjust="spacing" textLength="215.4844" x="277.0176" y="1002.7827">&#1057;&#1086;&#1093;&#1088;&#1072;&#1085;&#1103;&#1077;&#1090; &#1086;&#1073;&#1085;&#1086;&#1074;&#1083;&#1105;&#1085;&#1085;&#1099;&#1081; &#1087;&#1088;&#1086;&#1092;&#1080;&#1083;&#1100;</text><polygon fill="#F1F1F1" points="351.7422,793.4292,417.7773,793.4292,429.7773,807.3979,417.7773,821.3667,351.7422,821.3667,339.7422,807.3979,351.7422,793.4292" style="stroke:#181818;stroke-width:1.5;"/><text fill="#000000" font-family="sans-serif" font-size="11" lengthAdjust="spacing" textLength="21.4468" x="388.7598" y="831.5771">&#1053;&#1077;&#1090;</text><text fill="#000000" font-family="sans-serif" font-size="12" lengthAdjust="spacing" textLength="56.7832" x="351.7422" y="804.5679">&#1055;&#1088;&#1086;&#1092;&#1080;&#1083;&#1100;</text><text fill="#000000" font-family="sans-serif" font-size="12" lengthAdjust="spacing" textLength="66.0352" x="351.7422" y="818.5366">&#1079;&#1072;&#1087;&#1086;&#1083;&#1085;&#1077;&#1085;?</text><polygon fill="#F1F1F1" points="384.7598,1035.6128,396.7598,1047.6128,384.7598,1059.6128,372.7598,1047.6128,384.7598,1035.6128" style="stroke:#181818;stroke-width:1.5;"/><rect fill="#F1F1F1" height="47.9375" rx="12.5" ry="12.5" style="stroke:#181818;stroke-width:1.5;" width="170.8848" x="299.3174" y="1079.6128"/><text fill="#000000" font-family="sans-serif" font-size="12" lengthAdjust="spacing" textLength="142.3242" x="309.3174" y="1100.7515">&#1055;&#1088;&#1086;&#1074;&#1077;&#1088;&#1103;&#1077;&#1090; &#1086;&#1090;&#1089;&#1091;&#1090;&#1089;&#1090;&#1074;&#1080;&#1077;</text><text fill="#000000" font-family="sans-serif" font-size="12" lengthAdjust="spacing" textLength="150.8848" x="309.3174" y="1114.7202">&#1076;&#1091;&#1073;&#1083;&#1080;&#1088;&#1091;&#1102;&#1097;&#1077;&#1075;&#1086; &#1086;&#1090;&#1082;&#1083;&#1080;&#1082;&#1072;</text><polygon fill="#F1F1F1" points="344.3154,1147.5503,425.2041,1147.5503,437.2041,1161.519,425.2041,1175.4878,344.3154,1175.4878,332.3154,1161.519,344.3154,1147.5503" style="stroke:#181818;stroke-width:1.5;"/><text fill="#000000" font-family="sans-serif" font-size="11" lengthAdjust="spacing" textLength="15.3345" x="388.7598" y="1185.6982">&#1044;&#1072;</text><text fill="#000000" font-family="sans-serif" font-size="12" lengthAdjust="spacing" textLength="75.5098" x="344.3154" y="1158.689">&#1054;&#1090;&#1082;&#1083;&#1080;&#1082; &#1091;&#1078;&#1077;</text><text fill="#000000" font-family="sans-serif" font-size="12" lengthAdjust="spacing" textLength="80.8887" x="344.3154" y="1172.6577">&#1089;&#1091;&#1097;&#1077;&#1089;&#1090;&#1074;&#1091;&#1077;&#1090;?</text><text fill="#000000" font-family="sans-serif" font-size="11" lengthAdjust="spacing" textLength="21.4468" x="437.2041" y="1158.9248">&#1053;&#1077;&#1090;</text><rect fill="#F1F1F1" height="47.9375" rx="12.5" ry="12.5" style="stroke:#181818;stroke-width:1.5;" width="189.8516" x="289.834" y="1463.0308"/><text fill="#000000" font-family="sans-serif" font-size="12" lengthAdjust="spacing" textLength="169.8516" x="299.834" y="1484.1694">&#1057;&#1086;&#1079;&#1076;&#1072;&#1105;&#1090; &#1079;&#1072;&#1087;&#1080;&#1089;&#1100; Application</text><text fill="#000000" font-family="sans-serif" font-size="12" lengthAdjust="spacing" textLength="108.0176" x="299.834" y="1498.1382">&#1089;&#1086; &#1089;&#1090;&#1072;&#1090;&#1091;&#1089;&#1086;&#1084; NEW</text><rect fill="#F1F1F1" height="47.9375" rx="12.5" ry="12.5" style="stroke:#181818;stroke-width:1.5;" width="152.3633" x="308.5781" y="1530.9683"/><text fill="#000000" font-family="sans-serif" font-size="12" lengthAdjust="spacing" textLength="132.3633" x="318.5781" y="1552.1069">&#1047;&#1072;&#1087;&#1080;&#1089;&#1099;&#1074;&#1072;&#1077;&#1090; &#1089;&#1086;&#1073;&#1099;&#1090;&#1080;&#1077;</text><text fill="#000000" font-family="sans-serif" font-size="12" lengthAdjust="spacing" textLength="107.9941" x="318.5781" y="1566.0757">&#1074; &#1078;&#1091;&#1088;&#1085;&#1072;&#1083; &#1072;&#1091;&#1076;&#1080;&#1090;&#1072;</text><rect fill="#F1F1F1" height="47.9375" rx="12.5" ry="12.5" style="stroke:#181818;stroke-width:1.5;" width="183.7285" x="292.8955" y="1598.9058"/><text fill="#000000" font-family="sans-serif" font-size="12" lengthAdjust="spacing" textLength="163.7285" x="302.8955" y="1620.0444">&#1054;&#1090;&#1087;&#1088;&#1072;&#1074;&#1083;&#1103;&#1077;&#1090; &#1091;&#1074;&#1077;&#1076;&#1086;&#1084;&#1083;&#1077;&#1085;&#1080;&#1077;</text><text fill="#000000" font-family="sans-serif" font-size="12" lengthAdjust="spacing" textLength="91.8398" x="302.8955" y="1634.0132">&#1088;&#1072;&#1073;&#1086;&#1090;&#1086;&#1076;&#1072;&#1090;&#1077;&#1083;&#1102;</text><rect fill="#F1F1F1" height="47.9375" rx="12.5" ry="12.5" style="stroke:#181818;stroke-width:1.5;" width="157.7422" x="305.8887" y="1666.8433"/><text fill="#000000" font-family="sans-serif" font-size="12" lengthAdjust="spacing" textLength="137.7422" x="315.8887" y="1687.9819">&#1055;&#1086;&#1082;&#1072;&#1079;&#1099;&#1074;&#1072;&#1077;&#1090; &#1089;&#1090;&#1091;&#1076;&#1077;&#1085;&#1090;&#1091;</text><text fill="#000000" font-family="sans-serif" font-size="12" lengthAdjust="spacing" textLength="102.0645" x="315.8887" y="1701.9507">&#1087;&#1086;&#1076;&#1090;&#1074;&#1077;&#1088;&#1078;&#1076;&#1077;&#1085;&#1080;&#1077;</text><line style="stroke:#000000;stroke-width:1.5;" x1="261.0176" x2="261.0176" y1="53.8628" y2="1960.5933"/><rect fill="#FCE8E8" height="1906.7305" style="stroke:#FCE8E8;stroke-width:1;" width="178.0957" x="531.502" y="53.8628"/><rect fill="#F1F1F1" height="47.9375" rx="12.5" ry="12.5" style="stroke:#181818;stroke-width:1.5;" width="168.0957" x="537.502" y="1802.7183"/><text fill="#000000" font-family="sans-serif" font-size="12" lengthAdjust="spacing" textLength="148.0957" x="547.502" y="1823.8569">&#1055;&#1086;&#1083;&#1091;&#1095;&#1072;&#1077;&#1090; &#1091;&#1074;&#1077;&#1076;&#1086;&#1084;&#1083;&#1077;&#1085;&#1080;&#1077;</text><text fill="#000000" font-family="sans-serif" font-size="12" lengthAdjust="spacing" textLength="105.3047" x="547.502" y="1837.8257">&#1086; &#1085;&#1086;&#1074;&#1086;&#1084; &#1086;&#1090;&#1082;&#1083;&#1080;&#1082;&#1077;</text><rect fill="#F1F1F1" height="47.9375" rx="12.5" ry="12.5" style="stroke:#181818;stroke-width:1.5;" width="148.9941" x="547.0527" y="1870.6558"/><text fill="#000000" font-family="sans-serif" font-size="12" lengthAdjust="spacing" textLength="128.9941" x="557.0527" y="1891.7944">&#1054;&#1090;&#1082;&#1088;&#1099;&#1074;&#1072;&#1077;&#1090; &#1087;&#1088;&#1086;&#1092;&#1080;&#1083;&#1100;</text><text fill="#000000" font-family="sans-serif" font-size="12" lengthAdjust="spacing" textLength="68.5371" x="557.0527" y="1905.7632">&#1082;&#1072;&#1085;&#1076;&#1080;&#1076;&#1072;&#1090;&#1072;</text><ellipse cx="621.5498" cy="1949.5933" fill="none" rx="11" ry="11" style="stroke:#222222;stroke-width:1;"/><ellipse cx="621.5498" cy="1949.5933" fill="#222222" rx="6" ry="6" style="stroke:#222222;stroke-width:1;"/><line style="stroke:#000000;stroke-width:1.5;" x1="531.502" x2="531.502" y1="53.8628" y2="1960.5933"/><line style="stroke:#000000;stroke-width:1.5;" x1="709.5977" x2="709.5977" y1="53.8628" y2="1960.5933"/><line style="stroke:#181818;stroke-width:1.5;" x1="133.1309" x2="133.1309" y1="93.9956" y2="113.9956"/><polygon fill="#181818" points="129.1309,103.9956,133.1309,113.9956,137.1309,103.9956,133.1309,107.9956" style="stroke:#181818;stroke-width:1;"/><line style="stroke:#181818;stroke-width:1.5;" x1="133.1309" x2="133.1309" y1="161.9331" y2="181.9331"/><polygon fill="#181818" points="129.1309,171.9331,133.1309,181.9331,137.1309,171.9331,133.1309,175.9331" style="stroke:#181818;stroke-width:1;"/><line style="stroke:#181818;stroke-width:1.5;" x1="133.1309" x2="133.1309" y1="405.7456" y2="425.7456"/><polygon fill="#181818" points="129.1309,415.7456,133.1309,425.7456,137.1309,415.7456,133.1309,419.7456" style="stroke:#181818;stroke-width:1;"/><line style="stroke:#181818;stroke-width:1.5;" x1="133.1309" x2="133.1309" y1="566.0229" y2="593.5542"/><polygon fill="#181818" points="129.1309,583.5542,133.1309,593.5542,137.1309,583.5542,133.1309,587.5542" style="stroke:#181818;stroke-width:1;"/><line style="stroke:#181818;stroke-width:1.5;" x1="133.1309" x2="133.1309" y1="507.6519" y2="532.0542"/><polygon fill="#181818" points="129.1309,522.0542,133.1309,532.0542,137.1309,522.0542,133.1309,526.0542" style="stroke:#181818;stroke-width:1;"/><line style="stroke:#181818;stroke-width:1.5;" x1="178.8223" x2="242.0176" y1="493.6831" y2="493.6831"/><polygon fill="#181818" points="238.0176,563.5542,242.0176,573.5542,246.0176,563.5542,242.0176,567.5542" style="stroke:#181818;stroke-width:1.5;"/><line style="stroke:#181818;stroke-width:1.5;" x1="242.0176" x2="242.0176" y1="493.6831" y2="637.5542"/><line style="stroke:#181818;stroke-width:1.5;" x1="242.0176" x2="133.1309" y1="637.5542" y2="637.5542"/><line style="stroke:#181818;stroke-width:1.5;" x1="133.1309" x2="133.1309" y1="637.5542" y2="657.5542"/><polygon fill="#181818" points="129.1309,647.5542,133.1309,657.5542,137.1309,647.5542,133.1309,651.5542" style="stroke:#181818;stroke-width:1;"/><line style="stroke:#181818;stroke-width:1.5;" x1="133.1309" x2="133.1309" y1="459.7144" y2="479.7144"/><polygon fill="#181818" points="129.1309,469.7144,133.1309,479.7144,137.1309,469.7144,133.1309,473.7144" style="stroke:#181818;stroke-width:1;"/><line style="stroke:#181818;stroke-width:1.5;" x1="133.1309" x2="133.1309" y1="893.7065" y2="913.7065"/><polygon fill="#181818" points="129.1309,903.7065,133.1309,913.7065,137.1309,903.7065,133.1309,907.7065" style="stroke:#181818;stroke-width:1;"/><line style="stroke:#181818;stroke-width:1.5;" x1="133.1309" x2="133.1309" y1="1247.8276" y2="1277.1245"/><polygon fill="#181818" points="129.1309,1267.1245,133.1309,1277.1245,137.1309,1267.1245,133.1309,1271.1245" style="stroke:#181818;stroke-width:1;"/><line style="stroke:#181818;stroke-width:1.5;" x1="133.1309" x2="133.1309" y1="1389.062" y2="1409.062"/><polygon fill="#181818" points="129.1309,1399.062,133.1309,1409.062,137.1309,1399.062,133.1309,1403.062" style="stroke:#181818;stroke-width:1;"/><line style="stroke:#181818;stroke-width:1.5;" x1="384.7598" x2="384.7598" y1="297.8081" y2="317.8081"/><polygon fill="#181818" points="380.7598,307.8081,384.7598,317.8081,388.7598,307.8081,384.7598,311.8081" style="stroke:#181818;stroke-width:1;"/><line style="stroke:#181818;stroke-width:1.5;" x1="429.7773" x2="512.502" y1="807.3979" y2="807.3979"/><polygon fill="#181818" points="508.502,919.7065,512.502,929.7065,516.502,919.7065,512.502,923.7065" style="stroke:#181818;stroke-width:1.5;"/><line style="stroke:#181818;stroke-width:1.5;" x1="512.502" x2="512.502" y1="807.3979" y2="1047.6128"/><line style="stroke:#181818;stroke-width:1.5;" x1="512.502" x2="396.7598" y1="1047.6128" y2="1047.6128"/><polygon fill="#181818" points="406.7598,1043.6128,396.7598,1047.6128,406.7598,1051.6128,402.7598,1047.6128" style="stroke:#181818;stroke-width:1;"/><line style="stroke:#181818;stroke-width:1.5;" x1="384.7598" x2="384.7598" y1="1015.6128" y2="1035.6128"/><polygon fill="#181818" points="380.7598,1025.6128,384.7598,1035.6128,388.7598,1025.6128,384.7598,1029.6128" style="stroke:#181818;stroke-width:1;"/><line style="stroke:#181818;stroke-width:1.5;" x1="384.7598" x2="384.7598" y1="773.4292" y2="793.4292"/><polygon fill="#181818" points="380.7598,783.4292,384.7598,793.4292,388.7598,783.4292,384.7598,787.4292" style="stroke:#181818;stroke-width:1;"/><line style="stroke:#181818;stroke-width:1.5;" x1="384.7598" x2="384.7598" y1="1059.6128" y2="1079.6128"/><polygon fill="#181818" points="380.7598,1069.6128,384.7598,1079.6128,388.7598,1069.6128,384.7598,1073.6128" style="stroke:#181818;stroke-width:1;"/><line style="stroke:#181818;stroke-width:1.5;" x1="437.2041" x2="477.8115" y1="1161.519" y2="1161.519"/><polygon fill="#181818" points="473.8115,1247.1245,477.8115,1257.1245,481.8115,1247.1245,477.8115,1251.1245" style="stroke:#181818;stroke-width:1.5;"/><line style="stroke:#181818;stroke-width:1.5;" x1="477.8115" x2="477.8115" y1="1161.519" y2="1326.1245"/><line style="stroke:#181818;stroke-width:1.5;" x1="477.8115" x2="133.1309" y1="1326.1245" y2="1326.1245"/><line style="stroke:#181818;stroke-width:1.5;" x1="133.1309" x2="133.1309" y1="1326.1245" y2="1341.1245"/><polygon fill="#181818" points="129.1309,1331.1245,133.1309,1341.1245,137.1309,1331.1245,133.1309,1335.1245" style="stroke:#181818;stroke-width:1;"/><line style="stroke:#181818;stroke-width:1.5;" x1="384.7598" x2="384.7598" y1="1127.5503" y2="1147.5503"/><polygon fill="#181818" points="380.7598,1137.5503,384.7598,1147.5503,388.7598,1137.5503,384.7598,1141.5503" style="stroke:#181818;stroke-width:1;"/><line style="stroke:#181818;stroke-width:1.5;" x1="384.7598" x2="384.7598" y1="1510.9683" y2="1530.9683"/><polygon fill="#181818" points="380.7598,1520.9683,384.7598,1530.9683,388.7598,1520.9683,384.7598,1524.9683" style="stroke:#181818;stroke-width:1;"/><line style="stroke:#181818;stroke-width:1.5;" x1="384.7598" x2="384.7598" y1="1578.9058" y2="1598.9058"/><polygon fill="#181818" points="380.7598,1588.9058,384.7598,1598.9058,388.7598,1588.9058,384.7598,1592.9058" style="stroke:#181818;stroke-width:1;"/><line style="stroke:#181818;stroke-width:1.5;" x1="384.7598" x2="384.7598" y1="1646.8433" y2="1666.8433"/><polygon fill="#181818" points="380.7598,1656.8433,384.7598,1666.8433,388.7598,1656.8433,384.7598,1660.8433" style="stroke:#181818;stroke-width:1;"/><line style="stroke:#181818;stroke-width:1.5;" x1="621.5498" x2="621.5498" y1="1850.6558" y2="1870.6558"/><polygon fill="#181818" points="617.5498,1860.6558,621.5498,1870.6558,625.5498,1860.6558,621.5498,1864.6558" style="stroke:#181818;stroke-width:1;"/><line style="stroke:#181818;stroke-width:1.5;" x1="621.5498" x2="621.5498" y1="1918.5933" y2="1938.5933"/><polygon fill="#181818" points="617.5498,1928.5933,621.5498,1938.5933,625.5498,1928.5933,621.5498,1932.5933" style="stroke:#181818;stroke-width:1;"/><line style="stroke:#181818;stroke-width:1.5;" x1="133.1309" x2="133.1309" y1="229.8706" y2="234.8706"/><line style="stroke:#181818;stroke-width:1.5;" x1="133.1309" x2="384.7598" y1="234.8706" y2="234.8706"/><line style="stroke:#181818;stroke-width:1.5;" x1="384.7598" x2="384.7598" y1="234.8706" y2="249.8706"/><polygon fill="#181818" points="380.7598,239.8706,384.7598,249.8706,388.7598,239.8706,384.7598,243.8706" style="stroke:#181818;stroke-width:1;"/><line style="stroke:#181818;stroke-width:1.5;" x1="384.7598" x2="384.7598" y1="351.7769" y2="356.7769"/><line style="stroke:#181818;stroke-width:1.5;" x1="384.7598" x2="133.1309" y1="356.7769" y2="356.7769"/><line style="stroke:#181818;stroke-width:1.5;" x1="133.1309" x2="133.1309" y1="356.7769" y2="371.7769"/><polygon fill="#181818" points="129.1309,361.7769,133.1309,371.7769,137.1309,361.7769,133.1309,365.7769" style="stroke:#181818;stroke-width:1;"/><line style="stroke:#181818;stroke-width:1.5;" x1="133.1309" x2="133.1309" y1="691.5229" y2="696.5229"/><line style="stroke:#181818;stroke-width:1.5;" x1="133.1309" x2="384.7598" y1="696.5229" y2="696.5229"/><line style="stroke:#181818;stroke-width:1.5;" x1="384.7598" x2="384.7598" y1="696.5229" y2="711.5229"/><polygon fill="#181818" points="380.7598,701.5229,384.7598,711.5229,388.7598,701.5229,384.7598,705.5229" style="stroke:#181818;stroke-width:1;"/><line style="stroke:#181818;stroke-width:1.5;" x1="133.1309" x2="133.1309" y1="961.644" y2="966.644"/><line style="stroke:#181818;stroke-width:1.5;" x1="133.1309" x2="384.7598" y1="966.644" y2="966.644"/><line style="stroke:#181818;stroke-width:1.5;" x1="384.7598" x2="384.7598" y1="966.644" y2="981.644"/><polygon fill="#181818" points="380.7598,971.644,384.7598,981.644,388.7598,971.644,384.7598,975.644" style="stroke:#181818;stroke-width:1;"/><line style="stroke:#181818;stroke-width:1.5;" x1="384.7598" x2="384.7598" y1="821.3667" y2="833.5679"/><line style="stroke:#181818;stroke-width:1.5;" x1="384.7598" x2="133.1309" y1="833.5679" y2="833.5679"/><line style="stroke:#181818;stroke-width:1.5;" x1="133.1309" x2="133.1309" y1="833.5679" y2="845.769"/><polygon fill="#181818" points="129.1309,835.769,133.1309,845.769,137.1309,835.769,133.1309,839.769" style="stroke:#181818;stroke-width:1;"/><line style="stroke:#181818;stroke-width:1.5;" x1="384.7598" x2="384.7598" y1="1175.4878" y2="1187.689"/><line style="stroke:#181818;stroke-width:1.5;" x1="384.7598" x2="133.1309" y1="1187.689" y2="1187.689"/><line style="stroke:#181818;stroke-width:1.5;" x1="133.1309" x2="133.1309" y1="1187.689" y2="1199.8901"/><polygon fill="#181818" points="129.1309,1189.8901,133.1309,1199.8901,137.1309,1189.8901,133.1309,1193.8901" style="stroke:#181818;stroke-width:1;"/><line style="stroke:#181818;stroke-width:1.5;" x1="133.1309" x2="133.1309" y1="1443.0308" y2="1448.0308"/><line style="stroke:#181818;stroke-width:1.5;" x1="133.1309" x2="384.7598" y1="1448.0308" y2="1448.0308"/><line style="stroke:#181818;stroke-width:1.5;" x1="384.7598" x2="384.7598" y1="1448.0308" y2="1463.0308"/><polygon fill="#181818" points="380.7598,1453.0308,384.7598,1463.0308,388.7598,1453.0308,384.7598,1457.0308" style="stroke:#181818;stroke-width:1;"/><line style="stroke:#181818;stroke-width:1.5;" x1="384.7598" x2="384.7598" y1="1714.7808" y2="1719.7808"/><line style="stroke:#181818;stroke-width:1.5;" x1="384.7598" x2="133.1309" y1="1719.7808" y2="1719.7808"/><line style="stroke:#181818;stroke-width:1.5;" x1="133.1309" x2="133.1309" y1="1719.7808" y2="1734.7808"/><polygon fill="#181818" points="129.1309,1724.7808,133.1309,1734.7808,137.1309,1724.7808,133.1309,1728.7808" style="stroke:#181818;stroke-width:1;"/><line style="stroke:#181818;stroke-width:1.5;" x1="133.1309" x2="133.1309" y1="1782.7183" y2="1787.7183"/><line style="stroke:#181818;stroke-width:1.5;" x1="133.1309" x2="621.5498" y1="1787.7183" y2="1787.7183"/><line style="stroke:#181818;stroke-width:1.5;" x1="621.5498" x2="621.5498" y1="1787.7183" y2="1802.7183"/><polygon fill="#181818" points="617.5498,1792.7183,621.5498,1802.7183,625.5498,1792.7183,621.5498,1796.7183" style="stroke:#181818;stroke-width:1;"/><text fill="#000000" font-family="sans-serif" font-size="13" lengthAdjust="spacing" textLength="57.4019" x="111.8079" y="65.9297">&#1057;&#1090;&#1091;&#1076;&#1077;&#1085;&#1090;</text><text fill="#000000" font-family="sans-serif" font-size="13" lengthAdjust="spacing" textLength="58.0176" x="367.251" y="65.9297">&#1057;&#1080;&#1089;&#1090;&#1077;&#1084;&#1072;</text><text fill="#000000" font-family="sans-serif" font-size="13" lengthAdjust="spacing" textLength="95.7988" x="572.6504" y="65.9297">&#1056;&#1072;&#1073;&#1086;&#1090;&#1086;&#1076;&#1072;&#1090;&#1077;&#1083;&#1100;</text><?plantuml-src bLLDInjH5DtFhtZGZO8Kj0fY5gMjSLSfLEZ6JT2H3jM9cA6bhON4gTfYI524RcgjwsvYp9ZH91Fm5xpt5_fBUkvzRvAPYHzqauytzzrxphddtl4SRzqMpr-zN1H_oyT2dggoZDIU35H5LSJKd92_r8wybXqPock1mntbovOCP0_73I5xzD6K3OGqS5QHeQfPLkcTusuMjWeReh3YEUyTxwFuR0dnlBYrQcyjlNLMthbsgIGc7y_WTA7eUg-TJxQOdCA_UQUmKNHNRmlzaiXR-k1ih1TS-vwyIqHjcFm9xblRZ_Ap2zCByzj2dYMfY6shv1MsF6jEyrLbTS2q0ZmZRiGM8aJo8aDNNYsx-8G-MfqoFO0AUyeN-1CWCf9Tge9Q3IYB6pcK-O4uEZX40VMLCgWgNLS7GlPn9KHo55bsnqXZsGIUQnbEK6o4l5s2D25a6zzbNEXeYECvuZW_av-TdoQEb0Rd0SM3uvmyGXvAtm7wkcOtgCO_Ks1GkBli8WKHQO4YGljGxLpx0V-QJBUd3jJkY314ymWnRQ17AlNTw8cdVQuOKSsHI_SrQSuOjA85mEzmq2O6sKOuW-V71xcx6rh6SQJsySZFWWXpbhCcnW0-wUiw6arQjTGkVU9av-cuyDxQBa9FAF4uNASbFiVJSbojXLg-l52-getCIWvNIbvnqxBNIpRo7AE7bkskEcj0VeAuI-3fcamtVvBJY1G-E5RHdlfDvw76iswe7W2CQJoy4tk1_TaZOIaZ4MMPjHNg8tC_wagjVOsSFcxKEqsae9IPShTeTq_ZITXJkWpE-x6mVUDBcijBfX3A85Cf948YnQUQutG_Xb63KSX03hL85zp0oxJFc6kEKTyfEvKvGyPTlHRYCX7yqUDkTDIX7XzvDO8nTi4jdOj0giBTfsfDGxiLJoR1LJNCMo0lCD4KFZ1DmtGdjTQ9NC23xjCjdHMdGTBYRCt_RXAFEGWp6jCW-1X3Oifcu37-YggIezEZOMoYPNbWII37js7vlb7GJ2q28J1t8E2Pve9eMPIpD84Mgmh10R0Lkoq1yw5XE-Ej5wztuqUk8fvjRguxAmNFAReaE2tSYjbMFeFjYiNyc_WDeMyDDnT7d6FRxfYUDuMynCKoZsD788zlI3RYtTTdyv7Nj7iGqUIneVTIPzWL3ZjdcX5ZrqBLOb6eEUqKbgJkoX-inwHs9lj3M_q8GGmxfKR66jX_aEQcmxGPRPkJW0Ejnf_q7ajV2SrUN7YHdytFelBlMobMZMaophr39vgedl5JDrqlkEDzazqh_08WmWO4UaLE_mS0?></g></svg>