<svg xmlns="http://www.w3.org/2000/svg" xmlns:xlink="http://www.w3.org/1999/xlink" contentStyleType="text/css" data-diagram-type="ACTIVITY" height="1815px" preserveAspectRatio="none" style="width:1395px;height:1815px;background:#FFFFFF;" version="1.1" viewBox="0 0 1395 1815" width="1395px" zoomAndPan="magnify"><?plantuml 1.2026.4beta2?><defs/><g><g class="title" data-source-line="1"><text fill="#000000" font-family="sans-serif" font-size="14" font-weight="700" lengthAdjust="spacing" textLength="489.5352" x="452.1288" y="32.9951">BPMN &#8212; &#1055;&#1088;&#1086;&#1094;&#1077;&#1089;&#1089; 3: &#1060;&#1086;&#1088;&#1084;&#1080;&#1088;&#1086;&#1074;&#1072;&#1085;&#1080;&#1077; &#1088;&#1077;&#1082;&#1086;&#1084;&#1077;&#1085;&#1076;&#1072;&#1094;&#1080;&#1081; &#1074;&#1072;&#1082;&#1072;&#1085;&#1089;&#1080;&#1081;</text></g><rect fill="none" height="15.1328" style="stroke:none;stroke-width:1;" width="1348.7927" x="20" y="53.8628"/><rect fill="#E8F4FD" height="1740.6172" style="stroke:#E8F4FD;stroke-width:1;" width="534.5518" x="20" y="53.8628"/><ellipse cx="263.1377" cy="83.9956" fill="#222222" rx="10" ry="10" style="stroke:#222222;stroke-width:1;"/><rect fill="#F1F1F1" height="61.9063" rx="12.5" ry="12.5" style="stroke:#181818;stroke-width:1.5;" width="169.6016" x="178.3369" y="113.9956"/><text fill="#000000" font-family="sans-serif" font-size="12" lengthAdjust="spacing" textLength="132.8613" x="188.3369" y="135.1343">&#1054;&#1090;&#1082;&#1088;&#1099;&#1074;&#1072;&#1077;&#1090; &#1089;&#1090;&#1088;&#1072;&#1085;&#1080;&#1094;&#1091;</text><text fill="#000000" font-family="sans-serif" font-size="12" lengthAdjust="spacing" textLength="63.7852" x="188.3369" y="149.103">&#171;&#1044;&#1083;&#1103; &#1074;&#1072;&#1089;&#187;</text><text fill="#000000" font-family="sans-serif" font-size="12" lengthAdjust="spacing" textLength="149.6016" x="188.3369" y="163.0718">(&#1079;&#1072;&#1087;&#1088;&#1086;&#1089; &#1088;&#1077;&#1082;&#1086;&#1084;&#1077;&#1085;&#1076;&#1072;&#1094;&#1080;&#1081;)</text><path d="M173.1973,465.4565 L173.1973,481.5894 L153.1973,485.5894 L173.1973,489.5894 L173.1973,505.7222 A0,0 0 0 0 173.1973,505.7222 L297.9561,505.7222 A0,0 0 0 0 297.9561,505.7222 L297.9561,475.4565 L287.9561,465.4565 L173.1973,465.4565 A0,0 0 0 0 173.1973,465.4565" fill="#FEFFDD" style="stroke:#181818;stroke-width:0.5;"/><path d="M287.9561,465.4565 L287.9561,475.4565 L297.9561,475.4565 L287.9561,465.4565" fill="#FEFFDD" style="stroke:#181818;stroke-width:0.5;"/><text fill="#000000" font-family="sans-serif" font-size="13" lengthAdjust="spacing" textLength="103.7588" x="179.1973" y="482.5234">&#1041;&#1099;&#1089;&#1090;&#1088;&#1099;&#1081; &#1086;&#1090;&#1074;&#1077;&#1090;</text><text fill="#000000" font-family="sans-serif" font-size="13" lengthAdjust="spacing" textLength="71.0684" x="179.1973" y="497.6563">(&lt; 200 &#1084;&#1089;)</text><rect fill="#F1F1F1" height="47.9375" rx="12.5" ry="12.5" style="stroke:#181818;stroke-width:1.5;" width="127.1973" x="26" y="461.6206"/><text fill="#000000" font-family="sans-serif" font-size="12" lengthAdjust="spacing" textLength="107.1973" x="36" y="482.7593">&#1055;&#1086;&#1083;&#1091;&#1095;&#1072;&#1077;&#1090; &#1089;&#1087;&#1080;&#1089;&#1086;&#1082;</text><text fill="#000000" font-family="sans-serif" font-size="12" lengthAdjust="spacing" textLength="93.2871" x="36" y="496.728">&#1088;&#1077;&#1082;&#1086;&#1084;&#1077;&#1085;&#1076;&#1072;&#1094;&#1080;&#1081;</text><rect fill="#F1F1F1" height="47.9375" rx="12.5" ry="12.5" style="stroke:#181818;stroke-width:1.5;" width="210.4004" x="331.4766" y="393.6831"/><text fill="#000000" font-family="sans-serif" font-size="12" lengthAdjust="spacing" textLength="190.4004" x="341.4766" y="414.8218">&#1047;&#1072;&#1075;&#1088;&#1091;&#1078;&#1072;&#1077;&#1090; &#1087;&#1088;&#1086;&#1092;&#1080;&#1083;&#1100; &#1089;&#1090;&#1091;&#1076;&#1077;&#1085;&#1090;&#1072;</text><text fill="#000000" font-family="sans-serif" font-size="12" lengthAdjust="spacing" textLength="183.1465" x="341.4766" y="428.7905">(&#1085;&#1072;&#1074;&#1099;&#1082;&#1080;, &#1085;&#1072;&#1087;&#1088;&#1072;&#1074;&#1083;&#1077;&#1085;&#1080;&#1077;, &#1082;&#1091;&#1088;&#1089;)</text><rect fill="#F1F1F1" height="47.9375" rx="12.5" ry="12.5" style="stroke:#181818;stroke-width:1.5;" width="189.3242" x="342.0146" y="461.6206"/><text fill="#000000" font-family="sans-serif" font-size="12" lengthAdjust="spacing" textLength="115.8516" x="352.0146" y="482.7593">&#1047;&#1072;&#1075;&#1088;&#1091;&#1078;&#1072;&#1077;&#1090; &#1089;&#1087;&#1080;&#1089;&#1086;&#1082;</text><text fill="#000000" font-family="sans-serif" font-size="12" lengthAdjust="spacing" textLength="169.3242" x="352.0146" y="496.728">&#1086;&#1087;&#1091;&#1073;&#1083;&#1080;&#1082;&#1086;&#1074;&#1072;&#1085;&#1085;&#1099;&#1093; &#1074;&#1072;&#1082;&#1072;&#1085;&#1089;&#1080;&#1081;</text><rect fill="#F1F1F1" height="47.9375" rx="12.5" ry="12.5" style="stroke:#181818;stroke-width:1.5;" width="227.75" x="322.8018" y="1277.3354"/><text fill="#000000" font-family="sans-serif" font-size="12" lengthAdjust="spacing" textLength="207.75" x="332.8018" y="1298.4741">&#1055;&#1086;&#1083;&#1091;&#1095;&#1072;&#1077;&#1090; &#1087;&#1077;&#1088;&#1089;&#1086;&#1085;&#1072;&#1083;&#1080;&#1079;&#1080;&#1088;&#1086;&#1074;&#1072;&#1085;&#1085;&#1099;&#1081;</text><text fill="#000000" font-family="sans-serif" font-size="12" lengthAdjust="spacing" textLength="140.5313" x="332.8018" y="1312.4429">&#1089;&#1087;&#1080;&#1089;&#1086;&#1082; &#1088;&#1077;&#1082;&#1086;&#1084;&#1077;&#1085;&#1076;&#1072;&#1094;&#1080;&#1081;</text><rect fill="#F1F1F1" height="47.9375" rx="12.5" ry="12.5" style="stroke:#181818;stroke-width:1.5;" width="199.3672" x="163.4541" y="1379.2729"/><text fill="#000000" font-family="sans-serif" font-size="12" lengthAdjust="spacing" textLength="98.1914" x="173.4541" y="1400.4116">&#1055;&#1088;&#1086;&#1089;&#1084;&#1072;&#1090;&#1088;&#1080;&#1074;&#1072;&#1077;&#1090;</text><text fill="#000000" font-family="sans-serif" font-size="12" lengthAdjust="spacing" textLength="179.3672" x="173.4541" y="1414.3804">&#1088;&#1077;&#1082;&#1086;&#1084;&#1077;&#1085;&#1076;&#1086;&#1074;&#1072;&#1085;&#1085;&#1099;&#1077; &#1074;&#1072;&#1082;&#1072;&#1085;&#1089;&#1080;&#1080;</text><rect fill="#F1F1F1" height="33.9688" rx="12.5" ry="12.5" style="stroke:#181818;stroke-width:1.5;" width="154.7598" x="185.7578" y="1499.5503"/><text fill="#000000" font-family="sans-serif" font-size="12" lengthAdjust="spacing" textLength="134.7598" x="195.7578" y="1520.689">&#1054;&#1090;&#1082;&#1088;&#1099;&#1074;&#1072;&#1077;&#1090; &#1074;&#1072;&#1082;&#1072;&#1085;&#1089;&#1080;&#1102;</text><path d="M376.209,1700.2144 L376.209,1716.3472 L356.209,1720.3472 L376.209,1724.3472 L376.209,1740.48 A0,0 0 0 0 376.209,1740.48 L474.4282,1740.48 A0,0 0 0 0 474.4282,1740.48 L474.4282,1710.2144 L464.4282,1700.2144 L376.209,1700.2144 A0,0 0 0 0 376.209,1700.2144" fill="#FEFFDD" style="stroke:#181818;stroke-width:0.5;"/><path d="M464.4282,1700.2144 L464.4282,1710.2144 L474.4282,1710.2144 L464.4282,1700.2144" fill="#FEFFDD" style="stroke:#181818;stroke-width:0.5;"/><text fill="#000000" font-family="sans-serif" font-size="13" lengthAdjust="spacing" textLength="70.6431" x="382.209" y="1717.2813">&#1055;&#1077;&#1088;&#1077;&#1093;&#1086;&#1076; &#1082;</text><text fill="#000000" font-family="sans-serif" font-size="13" lengthAdjust="spacing" textLength="77.2192" x="382.209" y="1732.4141">&#1055;&#1088;&#1086;&#1094;&#1077;&#1089;&#1089;&#1091; 2</text><rect fill="#F1F1F1" height="33.9688" rx="12.5" ry="12.5" style="stroke:#181818;stroke-width:1.5;" width="186.1426" x="170.0664" y="1703.3628"/><text fill="#000000" font-family="sans-serif" font-size="12" lengthAdjust="spacing" textLength="166.1426" x="180.0664" y="1724.5015">&#1054;&#1090;&#1082;&#1083;&#1080;&#1082;&#1072;&#1077;&#1090;&#1089;&#1103; &#1085;&#1072; &#1074;&#1072;&#1082;&#1072;&#1085;&#1089;&#1080;&#1102;</text><ellipse cx="263.1377" cy="1771.48" fill="none" rx="11" ry="11" style="stroke:#222222;stroke-width:1;"/><ellipse cx="263.1377" cy="1771.48" fill="#222222" rx="6" ry="6" style="stroke:#222222;stroke-width:1;"/><polygon fill="#F1F1F1" points="218.9785,1447.2104,307.2969,1447.2104,319.2969,1461.1792,307.2969,1475.1479,218.9785,1475.1479,206.9785,1461.1792,218.9785,1447.2104" style="stroke:#181818;stroke-width:1.5;"/><text fill="#000000" font-family="sans-serif" font-size="11" lengthAdjust="spacing" textLength="15.3345" x="267.1377" y="1485.3584">&#1044;&#1072;</text><text fill="#000000" font-family="sans-serif" font-size="12" lengthAdjust="spacing" textLength="42.4102" x="218.9785" y="1458.3491">&#1053;&#1072;&#1096;&#1105;&#1083;</text><text fill="#000000" font-family="sans-serif" font-size="12" lengthAdjust="spacing" textLength="88.3184" x="218.9785" y="1472.3179">&#1087;&#1086;&#1076;&#1093;&#1086;&#1076;&#1103;&#1097;&#1091;&#1102;?</text><text fill="#000000" font-family="sans-serif" font-size="11" lengthAdjust="spacing" textLength="21.4468" x="319.2969" y="1458.585">&#1053;&#1077;&#1090;</text><ellipse cx="362.7437" cy="1461.1792" fill="none" rx="11" ry="11" style="stroke:#222222;stroke-width:1;"/><ellipse cx="362.7437" cy="1461.1792" fill="#222222" rx="6" ry="6" style="stroke:#222222;stroke-width:1;"/><line style="stroke:#000000;stroke-width:1.5;" x1="20" x2="20" y1="53.8628" y2="1794.48"/><rect fill="#D5E8D4" height="1740.6172" style="stroke:#D5E8D4;stroke-width:1;" width="562.4629" x="554.5518" y="53.8628"/><rect fill="#F1F1F1" height="61.9063" rx="12.5" ry="12.5" style="stroke:#181818;stroke-width:1.5;" width="155.334" x="753.4883" y="195.9019"/><text fill="#000000" font-family="sans-serif" font-size="12" lengthAdjust="spacing" textLength="121.8574" x="763.4883" y="217.0405">&#1055;&#1088;&#1080;&#1085;&#1080;&#1084;&#1072;&#1077;&#1090; &#1079;&#1072;&#1087;&#1088;&#1086;&#1089;;</text><text fill="#000000" font-family="sans-serif" font-size="12" lengthAdjust="spacing" textLength="135.334" x="763.4883" y="231.0093">&#1055;&#1088;&#1086;&#1074;&#1077;&#1088;&#1103;&#1077;&#1090; JWT-&#1090;&#1086;&#1082;&#1077;&#1085;</text><text fill="#000000" font-family="sans-serif" font-size="12" lengthAdjust="spacing" textLength="101.9883" x="763.4883" y="244.978">&#1080; &#1088;&#1086;&#1083;&#1100; STUDENT</text><rect fill="#F1F1F1" height="47.9375" rx="12.5" ry="12.5" style="stroke:#181818;stroke-width:1.5;" width="172.3438" x="744.9834" y="277.8081"/><text fill="#000000" font-family="sans-serif" font-size="12" lengthAdjust="spacing" textLength="124.4004" x="754.9834" y="298.9468">&#1055;&#1088;&#1086;&#1074;&#1077;&#1088;&#1103;&#1077;&#1090; &#1085;&#1072;&#1083;&#1080;&#1095;&#1080;&#1077;</text><text fill="#000000" font-family="sans-serif" font-size="12" lengthAdjust="spacing" textLength="152.3438" x="754.9834" y="312.9155">&#1072;&#1082;&#1090;&#1091;&#1072;&#1083;&#1100;&#1085;&#1086;&#1075;&#1086; &#1082;&#1101;&#1096;&#1072; Redis</text><polygon fill="#F1F1F1" points="798.498,345.7456,863.8125,345.7456,875.8125,359.7144,863.8125,373.6831,798.498,373.6831,786.498,359.7144,798.498,345.7456" style="stroke:#181818;stroke-width:1.5;"/><text fill="#000000" font-family="sans-serif" font-size="12" lengthAdjust="spacing" textLength="26.0859" x="798.498" y="356.8843">&#1050;&#1101;&#1096;</text><text fill="#000000" font-family="sans-serif" font-size="12" lengthAdjust="spacing" textLength="65.3145" x="798.498" y="370.853">&#1072;&#1082;&#1090;&#1091;&#1072;&#1083;&#1077;&#1085;?</text><text fill="#000000" font-family="sans-serif" font-size="11" lengthAdjust="spacing" textLength="15.3345" x="771.1636" y="357.1201">&#1044;&#1072;</text><text fill="#000000" font-family="sans-serif" font-size="11" lengthAdjust="spacing" textLength="100.7456" x="875.8125" y="357.1201">&#1053;&#1077;&#1090; &#8212; cache miss</text><rect fill="#F1F1F1" height="47.9375" rx="12.5" ry="12.5" style="stroke:#181818;stroke-width:1.5;" width="194.1289" x="560.5518" y="393.6831"/><text fill="#000000" font-family="sans-serif" font-size="12" lengthAdjust="spacing" textLength="174.1289" x="570.5518" y="414.8218">&#1042;&#1086;&#1079;&#1074;&#1088;&#1072;&#1097;&#1072;&#1077;&#1090; &#1088;&#1077;&#1082;&#1086;&#1084;&#1077;&#1085;&#1076;&#1072;&#1094;&#1080;&#1080;</text><text fill="#000000" font-family="sans-serif" font-size="12" lengthAdjust="spacing" textLength="50.1621" x="570.5518" y="428.7905">&#1080;&#1079; &#1082;&#1101;&#1096;&#1072;</text><rect fill="#F1F1F1" height="33.9688" rx="12.5" ry="12.5" style="stroke:#181818;stroke-width:1.5;" width="216.6406" x="896.374" y="1087.4917"/><text fill="#000000" font-family="sans-serif" font-size="12" lengthAdjust="spacing" textLength="196.6406" x="906.374" y="1108.6304">&#1057;&#1086;&#1093;&#1088;&#1072;&#1085;&#1103;&#1077;&#1090; &#1088;&#1077;&#1082;&#1086;&#1084;&#1077;&#1085;&#1076;&#1072;&#1094;&#1080;&#1080; &#1074; &#1041;&#1044;</text><rect fill="#F1F1F1" height="47.9375" rx="12.5" ry="12.5" style="stroke:#181818;stroke-width:1.5;" width="171.8164" x="918.7861" y="1141.4604"/><text fill="#000000" font-family="sans-serif" font-size="12" lengthAdjust="spacing" textLength="151.8164" x="928.7861" y="1162.5991">&#1047;&#1072;&#1087;&#1080;&#1089;&#1099;&#1074;&#1072;&#1077;&#1090; &#1074; &#1082;&#1101;&#1096; Redis</text><text fill="#000000" font-family="sans-serif" font-size="12" lengthAdjust="spacing" textLength="127.2188" x="928.7861" y="1176.5679">(TTL = 3600 &#1089;&#1077;&#1082;&#1091;&#1085;&#1076;)</text><rect fill="#F1F1F1" height="47.9375" rx="12.5" ry="12.5" style="stroke:#181818;stroke-width:1.5;" width="144.2715" x="932.5586" y="1209.3979"/><text fill="#000000" font-family="sans-serif" font-size="12" lengthAdjust="spacing" textLength="124.2715" x="942.5586" y="1230.5366">&#1042;&#1086;&#1079;&#1074;&#1088;&#1072;&#1097;&#1072;&#1077;&#1090; &#1089;&#1087;&#1080;&#1089;&#1086;&#1082;</text><text fill="#000000" font-family="sans-serif" font-size="12" lengthAdjust="spacing" textLength="58.3066" x="942.5586" y="1244.5054">&#1089;&#1090;&#1091;&#1076;&#1077;&#1085;&#1090;&#1091;</text><polygon fill="#F1F1F1" points="831.1553,1335.2729,843.1553,1347.2729,831.1553,1359.2729,819.1553,1347.2729,831.1553,1335.2729" style="stroke:#181818;stroke-width:1.5;"/><rect fill="#F1F1F1" height="61.9063" rx="12.5" ry="12.5" style="stroke:#181818;stroke-width:1.5;" width="181.0215" x="740.6445" y="1553.519"/><text fill="#000000" font-family="sans-serif" font-size="12" lengthAdjust="spacing" textLength="161.0215" x="750.6445" y="1574.6577">&#1055;&#1086;&#1084;&#1077;&#1095;&#1072;&#1077;&#1090; &#1088;&#1077;&#1082;&#1086;&#1084;&#1077;&#1085;&#1076;&#1072;&#1094;&#1080;&#1102;</text><text fill="#000000" font-family="sans-serif" font-size="12" lengthAdjust="spacing" textLength="126.3457" x="750.6445" y="1588.6265">&#1082;&#1072;&#1082; &#1087;&#1088;&#1086;&#1089;&#1084;&#1086;&#1090;&#1088;&#1077;&#1085;&#1085;&#1091;&#1102;</text><text fill="#000000" font-family="sans-serif" font-size="12" lengthAdjust="spacing" textLength="109.8926" x="750.6445" y="1602.5952">(is_viewed = true)</text><rect fill="#F1F1F1" height="47.9375" rx="12.5" ry="12.5" style="stroke:#181818;stroke-width:1.5;" width="216.9453" x="722.6826" y="1635.4253"/><text fill="#000000" font-family="sans-serif" font-size="12" lengthAdjust="spacing" textLength="196.9453" x="732.6826" y="1656.564">&#1048;&#1089;&#1087;&#1086;&#1083;&#1100;&#1079;&#1091;&#1077;&#1090; &#1076;&#1072;&#1085;&#1085;&#1099;&#1077; &#1087;&#1088;&#1086;&#1089;&#1084;&#1086;&#1090;&#1088;&#1072;</text><text fill="#000000" font-family="sans-serif" font-size="12" lengthAdjust="spacing" textLength="148.5469" x="732.6826" y="1670.5327">&#1076;&#1083;&#1103; &#1091;&#1083;&#1091;&#1095;&#1096;&#1077;&#1085;&#1080;&#1103; &#1084;&#1086;&#1076;&#1077;&#1083;&#1080;</text><line style="stroke:#000000;stroke-width:1.5;" x1="554.5518" x2="554.5518" y1="53.8628" y2="1794.48"/><rect fill="#FDE8F5" height="1740.6172" style="stroke:#FDE8F5;stroke-width:1;" width="250.7119" x="1117.0146" y="53.8628"/><rect fill="#F1F1F1" height="47.9375" rx="12.5" ry="12.5" style="stroke:#181818;stroke-width:1.5;" width="191.5332" x="1145.9688" y="529.5581"/><text fill="#000000" font-family="sans-serif" font-size="12" lengthAdjust="spacing" textLength="171.5332" x="1155.9688" y="550.6968">&#1055;&#1086;&#1083;&#1091;&#1095;&#1072;&#1077;&#1090; &#1076;&#1072;&#1085;&#1085;&#1099;&#1077; &#1087;&#1088;&#1086;&#1092;&#1080;&#1083;&#1103;</text><text fill="#000000" font-family="sans-serif" font-size="12" lengthAdjust="spacing" textLength="117.9258" x="1155.9688" y="564.6655">&#1080; &#1089;&#1087;&#1080;&#1089;&#1086;&#1082; &#1074;&#1072;&#1082;&#1072;&#1085;&#1089;&#1080;&#1081;</text><rect fill="#F1F1F1" height="47.9375" rx="12.5" ry="12.5" style="stroke:#181818;stroke-width:1.5;" width="210.2773" x="1136.5967" y="597.4956"/><text fill="#000000" font-family="sans-serif" font-size="12" lengthAdjust="spacing" textLength="189.4512" x="1146.5967" y="618.6343">&#1056;&#1072;&#1089;&#1089;&#1095;&#1080;&#1090;&#1099;&#1074;&#1072;&#1077;&#1090; cosine similarity</text><text fill="#000000" font-family="sans-serif" font-size="12" lengthAdjust="spacing" textLength="190.2773" x="1146.5967" y="632.603">&#1085;&#1072;&#1074;&#1099;&#1082;&#1086;&#1074; &#1089;&#1090;&#1091;&#1076;&#1077;&#1085;&#1090;&#1072; &#1080; &#1074;&#1072;&#1082;&#1072;&#1085;&#1089;&#1080;&#1081;</text><rect fill="#F1F1F1" height="47.9375" rx="12.5" ry="12.5" style="stroke:#181818;stroke-width:1.5;" width="237.4414" x="1123.0146" y="665.4331"/><text fill="#000000" font-family="sans-serif" font-size="12" lengthAdjust="spacing" textLength="217.4414" x="1133.0146" y="686.5718">&#1059;&#1095;&#1080;&#1090;&#1099;&#1074;&#1072;&#1077;&#1090; &#1085;&#1072;&#1087;&#1088;&#1072;&#1074;&#1083;&#1077;&#1085;&#1080;&#1077; &#1086;&#1073;&#1091;&#1095;&#1077;&#1085;&#1080;&#1103;</text><text fill="#000000" font-family="sans-serif" font-size="12" lengthAdjust="spacing" textLength="102.7793" x="1133.0146" y="700.5405">&#1080; &#1091;&#1088;&#1086;&#1074;&#1077;&#1085;&#1100; &#1082;&#1091;&#1088;&#1089;&#1072;</text><rect fill="#F1F1F1" height="47.9375" rx="12.5" ry="12.5" style="stroke:#181818;stroke-width:1.5;" width="193.4141" x="1145.0283" y="733.3706"/><text fill="#000000" font-family="sans-serif" font-size="12" lengthAdjust="spacing" textLength="173.4141" x="1155.0283" y="754.5093">&#1060;&#1086;&#1088;&#1084;&#1080;&#1088;&#1091;&#1077;&#1090; &#1090;&#1086;&#1087;-N &#1074;&#1072;&#1082;&#1072;&#1085;&#1089;&#1080;&#1081;</text><text fill="#000000" font-family="sans-serif" font-size="12" lengthAdjust="spacing" textLength="157.6699" x="1155.0283" y="768.478">&#1089;&#1086; score &#1080; &#1086;&#1073;&#1098;&#1103;&#1089;&#1085;&#1077;&#1085;&#1080;&#1103;&#1084;&#1080;</text><rect fill="#F1F1F1" height="33.9688" rx="12.5" ry="12.5" style="stroke:#181818;stroke-width:1.5;" width="219.5703" x="1131.9502" y="801.3081"/><text fill="#000000" font-family="sans-serif" font-size="12" lengthAdjust="spacing" textLength="199.5703" x="1141.9502" y="822.4468">&#1055;&#1088;&#1086;&#1074;&#1077;&#1088;&#1103;&#1077;&#1090; Precision@5 &gt;= 0.70</text><rect fill="#F1F1F1" height="47.9375" rx="12.5" ry="12.5" style="stroke:#181818;stroke-width:1.5;" width="193.9824" x="1144.7441" y="907.6167"/><text fill="#000000" font-family="sans-serif" font-size="12" lengthAdjust="spacing" textLength="173.9824" x="1154.7441" y="928.7554">&#1051;&#1086;&#1075;&#1080;&#1088;&#1091;&#1077;&#1090; &#1087;&#1088;&#1077;&#1076;&#1091;&#1087;&#1088;&#1077;&#1078;&#1076;&#1077;&#1085;&#1080;&#1077;</text><text fill="#000000" font-family="sans-serif" font-size="12" lengthAdjust="spacing" textLength="130.1133" x="1154.7441" y="942.7241">&#1076;&#1083;&#1103; &#1072;&#1085;&#1072;&#1083;&#1080;&#1079;&#1072; &#1084;&#1086;&#1076;&#1077;&#1083;&#1080;</text><polygon fill="#F1F1F1" points="1198.2646,855.2769,1285.2061,855.2769,1297.2061,869.2456,1285.2061,883.2144,1198.2646,883.2144,1186.2646,869.2456,1198.2646,855.2769" style="stroke:#181818;stroke-width:1.5;"/><text fill="#000000" font-family="sans-serif" font-size="11" lengthAdjust="spacing" textLength="21.4468" x="1245.7354" y="893.4248">&#1053;&#1077;&#1090;</text><text fill="#000000" font-family="sans-serif" font-size="12" lengthAdjust="spacing" textLength="58.3477" x="1198.2646" y="866.4155">&#1050;&#1072;&#1095;&#1077;&#1089;&#1090;&#1074;&#1086;</text><text fill="#000000" font-family="sans-serif" font-size="12" lengthAdjust="spacing" textLength="86.9414" x="1198.2646" y="880.3843">&#1076;&#1086;&#1089;&#1090;&#1072;&#1090;&#1086;&#1095;&#1085;&#1086;&#1077;?</text><polygon fill="#F1F1F1" points="1241.7354,975.5542,1253.7354,987.5542,1241.7354,999.5542,1229.7354,987.5542,1241.7354,975.5542" style="stroke:#181818;stroke-width:1.5;"/><rect fill="#F1F1F1" height="47.9375" rx="12.5" ry="12.5" style="stroke:#181818;stroke-width:1.5;" width="194.1289" x="1144.6709" y="1019.5542"/><text fill="#000000" font-family="sans-serif" font-size="12" lengthAdjust="spacing" textLength="174.1289" x="1154.6709" y="1040.6929">&#1042;&#1086;&#1079;&#1074;&#1088;&#1072;&#1097;&#1072;&#1077;&#1090; &#1088;&#1077;&#1082;&#1086;&#1084;&#1077;&#1085;&#1076;&#1072;&#1094;&#1080;&#1080;</text><text fill="#000000" font-family="sans-serif" font-size="12" lengthAdjust="spacing" textLength="85.4238" x="1154.6709" y="1054.6616">&#1074; Backend API</text><line style="stroke:#000000;stroke-width:1.5;" x1="1117.0146" x2="1117.0146" y1="53.8628" y2="1794.48"/><line style="stroke:#000000;stroke-width:1.5;" x1="1367.7266" x2="1367.7266" y1="53.8628" y2="1794.48"/><line style="stroke:#181818;stroke-width:1.5;" x1="263.1377" x2="263.1377" y1="93.9956" y2="113.9956"/><polygon fill="#181818" points="259.1377,103.9956,263.1377,113.9956,267.1377,103.9956,263.1377,107.9956" style="stroke:#181818;stroke-width:1;"/><line style="stroke:#181818;stroke-width:1.5;" x1="436.6768" x2="436.6768" y1="441.6206" y2="461.6206"/><polygon fill="#181818" points="432.6768,451.6206,436.6768,461.6206,440.6768,451.6206,436.6768,455.6206" style="stroke:#181818;stroke-width:1;"/><line style="stroke:#181818;stroke-width:1.5;" x1="263.1377" x2="263.1377" y1="1737.3315" y2="1760.48"/><polygon fill="#181818" points="259.1377,1750.48,263.1377,1760.48,267.1377,1750.48,263.1377,1754.48" style="stroke:#181818;stroke-width:1;"/><line style="stroke:#181818;stroke-width:1.5;" x1="263.1377" x2="263.1377" y1="1475.1479" y2="1499.5503"/><polygon fill="#181818" points="259.1377,1489.5503,263.1377,1499.5503,267.1377,1489.5503,263.1377,1493.5503" style="stroke:#181818;stroke-width:1;"/><line style="stroke:#181818;stroke-width:1.5;" x1="319.2969" x2="351.7437" y1="1461.1792" y2="1461.1792"/><polygon fill="#181818" points="341.7437,1457.1792,351.7437,1461.1792,341.7437,1465.1792,345.7437,1461.1792" style="stroke:#181818;stroke-width:1;"/><line style="stroke:#181818;stroke-width:1.5;" x1="263.1377" x2="263.1377" y1="1427.2104" y2="1447.2104"/><polygon fill="#181818" points="259.1377,1437.2104,263.1377,1447.2104,267.1377,1437.2104,263.1377,1441.2104" style="stroke:#181818;stroke-width:1;"/><line style="stroke:#181818;stroke-width:1.5;" x1="831.1553" x2="831.1553" y1="257.8081" y2="277.8081"/><polygon fill="#181818" points="827.1553,267.8081,831.1553,277.8081,835.1553,267.8081,831.1553,271.8081" style="stroke:#181818;stroke-width:1;"/><line style="stroke:#181818;stroke-width:1.5;" x1="1004.6943" x2="1004.6943" y1="1121.4604" y2="1141.4604"/><polygon fill="#181818" points="1000.6943,1131.4604,1004.6943,1141.4604,1008.6943,1131.4604,1004.6943,1135.4604" style="stroke:#181818;stroke-width:1;"/><line style="stroke:#181818;stroke-width:1.5;" x1="1004.6943" x2="1004.6943" y1="1189.3979" y2="1209.3979"/><polygon fill="#181818" points="1000.6943,1199.3979,1004.6943,1209.3979,1008.6943,1199.3979,1004.6943,1203.3979" style="stroke:#181818;stroke-width:1;"/><line style="stroke:#181818;stroke-width:1.5;" x1="786.498" x2="657.6162" y1="359.7144" y2="359.7144"/><line style="stroke:#181818;stroke-width:1.5;" x1="657.6162" x2="657.6162" y1="359.7144" y2="393.6831"/><polygon fill="#181818" points="653.6162,383.6831,657.6162,393.6831,661.6162,383.6831,657.6162,387.6831" style="stroke:#181818;stroke-width:1;"/><line style="stroke:#181818;stroke-width:1.5;" x1="831.1553" x2="831.1553" y1="325.7456" y2="345.7456"/><polygon fill="#181818" points="827.1553,335.7456,831.1553,345.7456,835.1553,335.7456,831.1553,339.7456" style="stroke:#181818;stroke-width:1;"/><line style="stroke:#181818;stroke-width:1.5;" x1="831.1553" x2="831.1553" y1="1615.4253" y2="1635.4253"/><polygon fill="#181818" points="827.1553,1625.4253,831.1553,1635.4253,835.1553,1625.4253,831.1553,1629.4253" style="stroke:#181818;stroke-width:1;"/><line style="stroke:#181818;stroke-width:1.5;" x1="1241.7354" x2="1241.7354" y1="577.4956" y2="597.4956"/><polygon fill="#181818" points="1237.7354,587.4956,1241.7354,597.4956,1245.7354,587.4956,1241.7354,591.4956" style="stroke:#181818;stroke-width:1;"/><line style="stroke:#181818;stroke-width:1.5;" x1="1241.7354" x2="1241.7354" y1="645.4331" y2="665.4331"/><polygon fill="#181818" points="1237.7354,655.4331,1241.7354,665.4331,1245.7354,655.4331,1241.7354,659.4331" style="stroke:#181818;stroke-width:1;"/><line style="stroke:#181818;stroke-width:1.5;" x1="1241.7354" x2="1241.7354" y1="713.3706" y2="733.3706"/><polygon fill="#181818" points="1237.7354,723.3706,1241.7354,733.3706,1245.7354,723.3706,1241.7354,727.3706" style="stroke:#181818;stroke-width:1;"/><line style="stroke:#181818;stroke-width:1.5;" x1="1241.7354" x2="1241.7354" y1="781.3081" y2="801.3081"/><polygon fill="#181818" points="1237.7354,791.3081,1241.7354,801.3081,1245.7354,791.3081,1241.7354,795.3081" style="stroke:#181818;stroke-width:1;"/><line style="stroke:#181818;stroke-width:1.5;" x1="1241.7354" x2="1241.7354" y1="883.2144" y2="907.6167"/><polygon fill="#181818" points="1237.7354,897.6167,1241.7354,907.6167,1245.7354,897.6167,1241.7354,901.6167" style="stroke:#181818;stroke-width:1;"/><line style="stroke:#181818;stroke-width:1.5;" x1="1297.2061" x2="1348.7266" y1="869.2456" y2="869.2456"/><polygon fill="#181818" points="1344.7266,920.6011,1348.7266,930.6011,1352.7266,920.6011,1348.7266,924.6011" style="stroke:#181818;stroke-width:1.5;"/><line style="stroke:#181818;stroke-width:1.5;" x1="1348.7266" x2="1348.7266" y1="869.2456" y2="987.5542"/><line style="stroke:#181818;stroke-width:1.5;" x1="1348.7266" x2="1253.7354" y1="987.5542" y2="987.5542"/><polygon fill="#181818" points="1263.7354,983.5542,1253.7354,987.5542,1263.7354,991.5542,1259.7354,987.5542" style="stroke:#181818;stroke-width:1;"/><line style="stroke:#181818;stroke-width:1.5;" x1="1241.7354" x2="1241.7354" y1="955.5542" y2="975.5542"/><polygon fill="#181818" points="1237.7354,965.5542,1241.7354,975.5542,1245.7354,965.5542,1241.7354,969.5542" style="stroke:#181818;stroke-width:1;"/><line style="stroke:#181818;stroke-width:1.5;" x1="1241.7354" x2="1241.7354" y1="835.2769" y2="855.2769"/><polygon fill="#181818" points="1237.7354,845.2769,1241.7354,855.2769,1245.7354,845.2769,1241.7354,849.2769" style="stroke:#181818;stroke-width:1;"/><line style="stroke:#181818;stroke-width:1.5;" x1="1241.7354" x2="1241.7354" y1="999.5542" y2="1019.5542"/><polygon fill="#181818" points="1237.7354,1009.5542,1241.7354,1019.5542,1245.7354,1009.5542,1241.7354,1013.5542" style="stroke:#181818;stroke-width:1;"/><line style="stroke:#181818;stroke-width:1.5;" x1="263.1377" x2="263.1377" y1="175.9019" y2="180.9019"/><line style="stroke:#181818;stroke-width:1.5;" x1="263.1377" x2="831.1553" y1="180.9019" y2="180.9019"/><line style="stroke:#181818;stroke-width:1.5;" x1="831.1553" x2="831.1553" y1="180.9019" y2="195.9019"/><polygon fill="#181818" points="827.1553,185.9019,831.1553,195.9019,835.1553,185.9019,831.1553,189.9019" style="stroke:#181818;stroke-width:1;"/><line style="stroke:#181818;stroke-width:1.5;" x1="657.6162" x2="657.6162" y1="441.6206" y2="446.6206"/><line style="stroke:#181818;stroke-width:1.5;" x1="657.6162" x2="89.5986" y1="446.6206" y2="446.6206"/><line style="stroke:#181818;stroke-width:1.5;" x1="89.5986" x2="89.5986" y1="446.6206" y2="461.6206"/><polygon fill="#181818" points="85.5986,451.6206,89.5986,461.6206,93.5986,451.6206,89.5986,455.6206" style="stroke:#181818;stroke-width:1;"/><line style="stroke:#181818;stroke-width:1.5;" x1="436.6768" x2="436.6768" y1="509.5581" y2="514.5581"/><line style="stroke:#181818;stroke-width:1.5;" x1="436.6768" x2="1241.7354" y1="514.5581" y2="514.5581"/><line style="stroke:#181818;stroke-width:1.5;" x1="1241.7354" x2="1241.7354" y1="514.5581" y2="529.5581"/><polygon fill="#181818" points="1237.7354,519.5581,1241.7354,529.5581,1245.7354,519.5581,1241.7354,523.5581" style="stroke:#181818;stroke-width:1;"/><line style="stroke:#181818;stroke-width:1.5;" x1="1241.7354" x2="1241.7354" y1="1067.4917" y2="1072.4917"/><line style="stroke:#181818;stroke-width:1.5;" x1="1241.7354" x2="1004.6943" y1="1072.4917" y2="1072.4917"/><line style="stroke:#181818;stroke-width:1.5;" x1="1004.6943" x2="1004.6943" y1="1072.4917" y2="1087.4917"/><polygon fill="#181818" points="1000.6943,1077.4917,1004.6943,1087.4917,1008.6943,1077.4917,1004.6943,1081.4917" style="stroke:#181818;stroke-width:1;"/><line style="stroke:#181818;stroke-width:1.5;" x1="1004.6943" x2="1004.6943" y1="1257.3354" y2="1262.3354"/><line style="stroke:#181818;stroke-width:1.5;" x1="1004.6943" x2="436.6768" y1="1262.3354" y2="1262.3354"/><line style="stroke:#181818;stroke-width:1.5;" x1="436.6768" x2="436.6768" y1="1262.3354" y2="1277.3354"/><polygon fill="#181818" points="432.6768,1267.3354,436.6768,1277.3354,440.6768,1267.3354,436.6768,1271.3354" style="stroke:#181818;stroke-width:1;"/><line style="stroke:#181818;stroke-width:1.5;" x1="875.8125" x2="887.8125" y1="359.7144" y2="359.7144"/><line style="stroke:#181818;stroke-width:1.5;" x1="887.8125" x2="887.8125" y1="359.7144" y2="380.6675"/><line style="stroke:#181818;stroke-width:1.5;" x1="887.8125" x2="436.6768" y1="380.6675" y2="380.6675"/><line style="stroke:#181818;stroke-width:1.5;" x1="436.6768" x2="436.6768" y1="380.6675" y2="393.6831"/><polygon fill="#181818" points="432.6768,383.6831,436.6768,393.6831,440.6768,383.6831,436.6768,387.6831" style="stroke:#181818;stroke-width:1;"/><line style="stroke:#181818;stroke-width:1.5;" x1="89.5986" x2="89.5986" y1="509.5581" y2="1347.2729"/><line style="stroke:#181818;stroke-width:1.5;" x1="89.5986" x2="819.1553" y1="1347.2729" y2="1347.2729"/><polygon fill="#181818" points="809.1553,1343.2729,819.1553,1347.2729,809.1553,1351.2729,813.1553,1347.2729" style="stroke:#181818;stroke-width:1;"/><line style="stroke:#181818;stroke-width:1.5;" x1="436.6768" x2="436.6768" y1="1325.2729" y2="1329.2729"/><line style="stroke:#181818;stroke-width:1.5;" x1="436.6768" x2="861.1553" y1="1329.2729" y2="1329.2729"/><line style="stroke:#181818;stroke-width:1.5;" x1="861.1553" x2="861.1553" y1="1329.2729" y2="1347.2729"/><line style="stroke:#181818;stroke-width:1.5;" x1="861.1553" x2="843.1553" y1="1347.2729" y2="1347.2729"/><polygon fill="#181818" points="853.1553,1343.2729,843.1553,1347.2729,853.1553,1351.2729,849.1553,1347.2729" style="stroke:#181818;stroke-width:1;"/><line style="stroke:#181818;stroke-width:1.5;" x1="831.1553" x2="831.1553" y1="1359.2729" y2="1364.2729"/><line style="stroke:#181818;stroke-width:1.5;" x1="831.1553" x2="263.1377" y1="1364.2729" y2="1364.2729"/><line style="stroke:#181818;stroke-width:1.5;" x1="263.1377" x2="263.1377" y1="1364.2729" y2="1379.2729"/><polygon fill="#181818" points="259.1377,1369.2729,263.1377,1379.2729,267.1377,1369.2729,263.1377,1373.2729" style="stroke:#181818;stroke-width:1;"/><line style="stroke:#181818;stroke-width:1.5;" x1="263.1377" x2="263.1377" y1="1533.519" y2="1538.519"/><line style="stroke:#181818;stroke-width:1.5;" x1="263.1377" x2="831.1553" y1="1538.519" y2="1538.519"/><line style="stroke:#181818;stroke-width:1.5;" x1="831.1553" x2="831.1553" y1="1538.519" y2="1553.519"/><polygon fill="#181818" points="827.1553,1543.519,831.1553,1553.519,835.1553,1543.519,831.1553,1547.519" style="stroke:#181818;stroke-width:1;"/><line style="stroke:#181818;stroke-width:1.5;" x1="831.1553" x2="831.1553" y1="1683.3628" y2="1688.3628"/><line style="stroke:#181818;stroke-width:1.5;" x1="831.1553" x2="263.1377" y1="1688.3628" y2="1688.3628"/><line style="stroke:#181818;stroke-width:1.5;" x1="263.1377" x2="263.1377" y1="1688.3628" y2="1703.3628"/><polygon fill="#181818" points="259.1377,1693.3628,263.1377,1703.3628,267.1377,1693.3628,263.1377,1697.3628" style="stroke:#181818;stroke-width:1;"/><text fill="#000000" font-family="sans-serif" font-size="13" lengthAdjust="spacing" textLength="57.4019" x="258.575" y="65.9297">&#1057;&#1090;&#1091;&#1076;&#1077;&#1085;&#1090;</text><text fill="#000000" font-family="sans-serif" font-size="13" lengthAdjust="spacing" textLength="153.042" x="759.2622" y="65.9297">&#1057;&#1080;&#1089;&#1090;&#1077;&#1084;&#1072; (Backend API)</text><text fill="#000000" font-family="sans-serif" font-size="13" lengthAdjust="spacing" textLength="166.9941" x="1158.8735" y="65.9297">Recommendation Service</text><?plantuml-src dLRRQXjN57tNLnp8YmL9SE8u3LBJYv4D3QqnjKfV36KOdTG7MwCmCtL8we8bnRaqgKMAeQKbTKFxrXT5ySIg94kGBzZd5_ebNVkS6LsiKTe4OzbpPfzzMMljlHMgS5kAfRNFLiK_UuU2ZlGUzVLzYdHLLyL2Jj2VUDwZ7hNv3RMeIQVKfaZWCQ8EZdhuUqh7rCIrDlqjZ4s7xNIL3pAPO4jvjnpVAGl73TME2k-8RpD2B5NyalIBcyhTycGGY4iN5t6wKl72TNLNYakNyLHGJhdYbT9Clnlp6znMvMt7as_mM-HAHyuNS3-pUsxvsigLbSAkeEUwfkke0hNecjZD1A7ZXvaS_QPhrD5x-h4fAy8x85D3yGO7VL_NDxpNVz4XTNN3bAwhhxiRtXoTm69WqApEn2gRvnmAYylN2bSu1pY4SzZqg2dcbXntItebyV7Q9rbab3Faj0tylJYNyIZv3S_IXomYPDmm5ZU-B5w0opx28pHCsiBOTFKJiLxyeh2yMip7hYSl8awJkiZe0TEDYo3LODJaktZRfvVK5pZyGJz4kf_BaWho6NLJpD4lV3PvXQD_c1NXflHWS4ZDB3Z9qOzmSq8jnbC_IW1EHwlDoTF9C68U3jv087i_CeNMKK927GqOOuPZmvl52ZlsAg4KllfwCnJeWQVwiMKTCe30-m2KeQg1v_V5vVbvGJrTpMRaTY1Ht3CJYzl9TTnDASeg26orFo6Fb_1IfrS9WPQyUuZBZ9WemogeoK9Y7be8tA7sUSlAmCYlPK5bTiupA7KuhcRpCm9DbexF0Lw-O88D1BQlJr7d_bG3GwICz4e1M2_kWcYtKYv3c4weAfvOb_wESkKCn1bLwnWZOwBOXjNYM5efWTdbxznJ-84E0Swe3zrAeD3nWIghRSV7K8734LOeQGfDWO3fCVwOyfuEDBYd5wOySv0KKK-w1rwV3Bcm4isDJr1aOyZWXXnSM9tA1g84529mAxuqsNAuxtK3fwT9IFPa7KytxPelNHM0beyMnGVNnVp5z-RPr3ObS7nW1Zkhju_CZtbiC32S3zvnJqUZ9ZKwPk5oh5zDluzACDX4T8n7-zyhYtCyB8xjF6mcKuG75Re4JjYgQok0XjJDTna3BJ4s6sDv_iyfoj6UezfzEy9Zt6R50a7eVZeSTPLHwxXEMl50iWCG3LiiVYgkYuMh60kWBM8riCkuCrChdHnB4whLzRY-jnfqy1SP2VR721ZVuDoGLcsZzfiz3orHoPg0UOyrOxPHZ4FAD1qF5PrLUZlU5C_WwA5-IbYPo0JgqFlciw4VePo3b8qnlP0dNUk3jnV4aKrxj2TIaT07I9BZT999na3q3H2HARJE9dCg-6f7oTko11c4_ZSoPlvd0xRPl7IIT57AU1mvRGuR2UQ6NkozU0gSQQR_beZ1BPxtfafWqZ1ZBWN0imlmYEM4NqEEC1jaufkYhWl-jXQ4bLiJMp0xF6G5_Gi0?></g></svg>