<svg xmlns="http://www.w3.org/2000/svg" xmlns:xlink="http://www.w3.org/1999/xlink" contentStyleType="text/css" data-diagram-type="ACTIVITY" height="2342px" preserveAspectRatio="none" style="width:1862px;height:2342px;background:#FFFFFF;" version="1.1" viewBox="0 0 1862 2342" width="1862px" zoomAndPan="magnify"><?plantuml 1.2026.4beta2?><defs/><g><g class="title" data-source-line="1"><text fill="#000000" font-family="sans-serif" font-size="14" font-weight="700" lengthAdjust="spacing" textLength="586.4824" x="637.1185" y="32.9951">BPMN &#8212; &#1055;&#1088;&#1086;&#1094;&#1077;&#1089;&#1089; 4: &#1053;&#1072;&#1079;&#1085;&#1072;&#1095;&#1077;&#1085;&#1080;&#1077; &#1080;&#1085;&#1090;&#1077;&#1088;&#1074;&#1100;&#1102; &#1080; &#1080;&#1079;&#1084;&#1077;&#1085;&#1077;&#1085;&#1080;&#1077; &#1089;&#1090;&#1072;&#1090;&#1091;&#1089;&#1072; &#1086;&#1090;&#1082;&#1083;&#1080;&#1082;&#1072;</text></g><rect fill="none" height="30.2656" style="stroke:none;stroke-width:1;" width="1815.7195" x="20" y="53.8628"/><rect fill="#FCE8E8" height="2267.2461" style="stroke:#FCE8E8;stroke-width:1;" width="447.2822" x="20" y="53.8628"/><ellipse cx="254.1099" cy="99.1284" fill="#222222" rx="10" ry="10" style="stroke:#222222;stroke-width:1;"/><rect fill="#F1F1F1" height="47.9375" rx="12.5" ry="12.5" style="stroke:#181818;stroke-width:1.5;" width="199.3438" x="154.438" y="129.1284"/><text fill="#000000" font-family="sans-serif" font-size="12" lengthAdjust="spacing" textLength="179.3438" x="164.438" y="150.2671">&#1054;&#1090;&#1082;&#1088;&#1099;&#1074;&#1072;&#1077;&#1090; &#1089;&#1087;&#1080;&#1089;&#1086;&#1082; &#1086;&#1090;&#1082;&#1083;&#1080;&#1082;&#1086;&#1074;</text><text fill="#000000" font-family="sans-serif" font-size="12" lengthAdjust="spacing" textLength="118.0781" x="164.438" y="164.2358">&#1087;&#1086; &#1089;&#1074;&#1086;&#1077;&#1081; &#1074;&#1072;&#1082;&#1072;&#1085;&#1089;&#1080;&#1080;</text><rect fill="#F1F1F1" height="47.9375" rx="12.5" ry="12.5" style="stroke:#181818;stroke-width:1.5;" width="202.2207" x="152.9995" y="197.0659"/><text fill="#000000" font-family="sans-serif" font-size="12" lengthAdjust="spacing" textLength="103.0078" x="162.9995" y="218.2046">&#1048;&#1079;&#1091;&#1095;&#1072;&#1077;&#1090; &#1088;&#1077;&#1079;&#1102;&#1084;&#1077;</text><text fill="#000000" font-family="sans-serif" font-size="12" lengthAdjust="spacing" textLength="182.2207" x="162.9995" y="232.1733">&#1080; &#1089;&#1086;&#1087;&#1088;&#1086;&#1074;&#1086;&#1076;&#1080;&#1090;&#1077;&#1083;&#1100;&#1085;&#1099;&#1077; &#1087;&#1080;&#1089;&#1100;&#1084;&#1072;</text><rect fill="#F1F1F1" height="47.9375" rx="12.5" ry="12.5" style="stroke:#181818;stroke-width:1.5;" width="136.2441" x="185.9878" y="317.3433"/><text fill="#000000" font-family="sans-serif" font-size="12" lengthAdjust="spacing" textLength="116.2441" x="195.9878" y="338.4819">&#1054;&#1090;&#1082;&#1083;&#1086;&#1085;&#1103;&#1077;&#1090; &#1086;&#1090;&#1082;&#1083;&#1080;&#1082;</text><text fill="#000000" font-family="sans-serif" font-size="12" lengthAdjust="spacing" textLength="104.5313" x="195.9878" y="352.4507">&#1089; &#1082;&#1086;&#1084;&#1084;&#1077;&#1085;&#1090;&#1072;&#1088;&#1080;&#1077;&#1084;</text><polygon fill="#F1F1F1" points="220.4185,265.0034,287.8013,265.0034,299.8013,278.9722,287.8013,292.9409,220.4185,292.9409,208.4185,278.9722,220.4185,265.0034" style="stroke:#181818;stroke-width:1.5;"/><text fill="#000000" font-family="sans-serif" font-size="11" lengthAdjust="spacing" textLength="21.4468" x="258.1099" y="303.1514">&#1053;&#1077;&#1090;</text><text fill="#000000" font-family="sans-serif" font-size="12" lengthAdjust="spacing" textLength="62.4551" x="220.4185" y="276.1421">&#1050;&#1072;&#1085;&#1076;&#1080;&#1076;&#1072;&#1090;</text><text fill="#000000" font-family="sans-serif" font-size="12" lengthAdjust="spacing" textLength="67.3828" x="220.4185" y="290.1108">&#1087;&#1086;&#1076;&#1093;&#1086;&#1076;&#1080;&#1090;?</text><text fill="#000000" font-family="sans-serif" font-size="11" lengthAdjust="spacing" textLength="15.3345" x="299.8013" y="276.3779">&#1044;&#1072;</text><rect fill="#F1F1F1" height="47.9375" rx="12.5" ry="12.5" style="stroke:#181818;stroke-width:1.5;" width="154.6016" x="176.8091" y="721.5776"/><text fill="#000000" font-family="sans-serif" font-size="12" lengthAdjust="spacing" textLength="134.6016" x="186.8091" y="742.7163">&#1042;&#1099;&#1073;&#1080;&#1088;&#1072;&#1077;&#1090; &#1082;&#1072;&#1085;&#1076;&#1080;&#1076;&#1072;&#1090;&#1072;</text><text fill="#000000" font-family="sans-serif" font-size="12" lengthAdjust="spacing" textLength="88.8809" x="186.8091" y="756.6851">&#1076;&#1083;&#1103; &#1080;&#1085;&#1090;&#1077;&#1088;&#1074;&#1100;&#1102;</text><rect fill="#F1F1F1" height="47.9375" rx="12.5" ry="12.5" style="stroke:#181818;stroke-width:1.5;" width="201.4121" x="153.4038" y="789.5151"/><text fill="#000000" font-family="sans-serif" font-size="12" lengthAdjust="spacing" textLength="149.9121" x="163.4038" y="810.6538">&#1059;&#1082;&#1072;&#1079;&#1099;&#1074;&#1072;&#1077;&#1090; &#1076;&#1072;&#1090;&#1091;, &#1074;&#1088;&#1077;&#1084;&#1103;,</text><text fill="#000000" font-family="sans-serif" font-size="12" lengthAdjust="spacing" textLength="181.4121" x="163.4038" y="824.6226">&#1092;&#1086;&#1088;&#1084;&#1072;&#1090; &#1080; &#1089;&#1089;&#1099;&#1083;&#1082;&#1091; &#1085;&#1072; &#1074;&#1089;&#1090;&#1088;&#1077;&#1095;&#1091;</text><rect fill="#F1F1F1" height="33.9688" rx="12.5" ry="12.5" style="stroke:#181818;stroke-width:1.5;" width="236.8672" x="135.6763" y="857.4526"/><text fill="#000000" font-family="sans-serif" font-size="12" lengthAdjust="spacing" textLength="216.8672" x="145.6763" y="878.5913">&#1053;&#1072;&#1078;&#1080;&#1084;&#1072;&#1077;&#1090; &#171;&#1053;&#1072;&#1079;&#1085;&#1072;&#1095;&#1080;&#1090;&#1100; &#1080;&#1085;&#1090;&#1077;&#1088;&#1074;&#1100;&#1102;&#187;</text><rect fill="#F1F1F1" height="33.9688" rx="12.5" ry="12.5" style="stroke:#181818;stroke-width:1.5;" width="147.1777" x="180.521" y="1590.8276"/><text fill="#000000" font-family="sans-serif" font-size="12" lengthAdjust="spacing" textLength="127.1777" x="190.521" y="1611.9663">&#1055;&#1088;&#1086;&#1074;&#1086;&#1076;&#1080;&#1090; &#1080;&#1085;&#1090;&#1077;&#1088;&#1074;&#1100;&#1102;</text><rect fill="#F1F1F1" height="47.9375" rx="12.5" ry="12.5" style="stroke:#181818;stroke-width:1.5;" width="151.3789" x="178.4204" y="1644.7964"/><text fill="#000000" font-family="sans-serif" font-size="12" lengthAdjust="spacing" textLength="131.3789" x="188.4204" y="1665.9351">&#1054;&#1090;&#1082;&#1088;&#1099;&#1074;&#1072;&#1077;&#1090; &#1082;&#1072;&#1088;&#1090;&#1086;&#1095;&#1082;&#1091;</text><text fill="#000000" font-family="sans-serif" font-size="12" lengthAdjust="spacing" textLength="68.5371" x="188.4204" y="1679.9038">&#1082;&#1072;&#1085;&#1076;&#1080;&#1076;&#1072;&#1090;&#1072;</text><polygon fill="#F1F1F1" points="219.9849,1712.7339,288.2349,1712.7339,300.2349,1726.7026,288.2349,1740.6714,219.9849,1740.6714,207.9849,1726.7026,219.9849,1712.7339" style="stroke:#181818;stroke-width:1.5;"/><text fill="#000000" font-family="sans-serif" font-size="12" lengthAdjust="spacing" textLength="29.6133" x="219.9849" y="1723.8726">&#1048;&#1090;&#1086;&#1075;</text><text fill="#000000" font-family="sans-serif" font-size="12" lengthAdjust="spacing" textLength="68.25" x="219.9849" y="1737.8413">&#1080;&#1085;&#1090;&#1077;&#1088;&#1074;&#1100;&#1102;?</text><text fill="#000000" font-family="sans-serif" font-size="11" lengthAdjust="spacing" textLength="41.2178" x="166.7671" y="1724.1084">&#1054;&#1092;&#1092;&#1077;&#1088;</text><text fill="#000000" font-family="sans-serif" font-size="11" lengthAdjust="spacing" textLength="34.2998" x="300.2349" y="1724.1084">&#1054;&#1090;&#1082;&#1072;&#1079;</text><rect fill="#F1F1F1" height="33.9688" rx="12.5" ry="12.5" style="stroke:#181818;stroke-width:1.5;" width="198.3594" x="26" y="1760.6714"/><text fill="#000000" font-family="sans-serif" font-size="12" lengthAdjust="spacing" textLength="178.3594" x="36" y="1781.8101">&#1053;&#1072;&#1078;&#1080;&#1084;&#1072;&#1077;&#1090; &#171;&#1042;&#1099;&#1076;&#1072;&#1090;&#1100; &#1086;&#1092;&#1092;&#1077;&#1088;&#187;</text><rect fill="#F1F1F1" height="47.9375" rx="12.5" ry="12.5" style="stroke:#181818;stroke-width:1.5;" width="160.4844" x="302.7979" y="1760.6714"/><text fill="#000000" font-family="sans-serif" font-size="12" lengthAdjust="spacing" textLength="140.4844" x="312.7979" y="1781.8101">&#1054;&#1090;&#1082;&#1083;&#1086;&#1085;&#1103;&#1077;&#1090; &#1082;&#1072;&#1085;&#1076;&#1080;&#1076;&#1072;&#1090;&#1072;</text><text fill="#000000" font-family="sans-serif" font-size="12" lengthAdjust="spacing" textLength="104.5313" x="312.7979" y="1795.7788">&#1089; &#1082;&#1086;&#1084;&#1084;&#1077;&#1085;&#1090;&#1072;&#1088;&#1080;&#1077;&#1084;</text><line style="stroke:#000000;stroke-width:1.5;" x1="20" x2="20" y1="53.8628" y2="2321.1089"/><rect fill="#D5E8D4" height="2267.2461" style="stroke:#D5E8D4;stroke-width:1;" width="697.4712" x="467.2822" y="53.8628"/><rect fill="#F1F1F1" height="47.9375" rx="12.5" ry="12.5" style="stroke:#181818;stroke-width:1.5;" width="189.2773" x="651.3862" y="385.2808"/><text fill="#000000" font-family="sans-serif" font-size="12" lengthAdjust="spacing" textLength="169.2773" x="661.3862" y="406.4194">&#1054;&#1073;&#1085;&#1086;&#1074;&#1083;&#1103;&#1077;&#1090; &#1089;&#1090;&#1072;&#1090;&#1091;&#1089; &#1086;&#1090;&#1082;&#1083;&#1080;&#1082;&#1072;</text><text fill="#000000" font-family="sans-serif" font-size="12" lengthAdjust="spacing" textLength="78.5859" x="661.3862" y="420.3882">&#1085;&#1072; REJECTED</text><rect fill="#F1F1F1" height="47.9375" rx="12.5" ry="12.5" style="stroke:#181818;stroke-width:1.5;" width="152.3633" x="669.8433" y="453.2183"/><text fill="#000000" font-family="sans-serif" font-size="12" lengthAdjust="spacing" textLength="132.3633" x="679.8433" y="474.3569">&#1047;&#1072;&#1087;&#1080;&#1089;&#1099;&#1074;&#1072;&#1077;&#1090; &#1089;&#1086;&#1073;&#1099;&#1090;&#1080;&#1077;</text><text fill="#000000" font-family="sans-serif" font-size="12" lengthAdjust="spacing" textLength="107.9941" x="679.8433" y="488.3257">&#1074; &#1078;&#1091;&#1088;&#1085;&#1072;&#1083; &#1072;&#1091;&#1076;&#1080;&#1090;&#1072;</text><rect fill="#F1F1F1" height="47.9375" rx="12.5" ry="12.5" style="stroke:#181818;stroke-width:1.5;" width="158.0938" x="666.978" y="521.7026"/><text fill="#000000" font-family="sans-serif" font-size="12" lengthAdjust="spacing" textLength="138.0938" x="676.978" y="542.8413">&#1059;&#1074;&#1077;&#1076;&#1086;&#1084;&#1083;&#1103;&#1077;&#1090; &#1089;&#1090;&#1091;&#1076;&#1077;&#1085;&#1090;&#1072;</text><text fill="#000000" font-family="sans-serif" font-size="12" lengthAdjust="spacing" textLength="61.2539" x="676.978" y="556.8101">&#1086;&#1073; &#1086;&#1090;&#1082;&#1072;&#1079;&#1077;</text><rect fill="#F1F1F1" height="47.9375" rx="12.5" ry="12.5" style="stroke:#181818;stroke-width:1.5;" width="221.4746" x="635.2876" y="911.4214"/><text fill="#000000" font-family="sans-serif" font-size="12" lengthAdjust="spacing" textLength="201.4746" x="645.2876" y="932.5601">&#1055;&#1088;&#1086;&#1074;&#1077;&#1088;&#1103;&#1077;&#1090; &#1087;&#1088;&#1072;&#1074;&#1072; &#1088;&#1072;&#1073;&#1086;&#1090;&#1086;&#1076;&#1072;&#1090;&#1077;&#1083;&#1103;</text><text fill="#000000" font-family="sans-serif" font-size="12" lengthAdjust="spacing" textLength="132.7441" x="645.2876" y="946.5288">&#1085;&#1072; &#1076;&#1072;&#1085;&#1085;&#1091;&#1102; &#1074;&#1072;&#1082;&#1072;&#1085;&#1089;&#1080;&#1102;</text><rect fill="#F1F1F1" height="47.9375" rx="12.5" ry="12.5" style="stroke:#181818;stroke-width:1.5;" width="178.6016" x="656.7241" y="979.3589"/><text fill="#000000" font-family="sans-serif" font-size="12" lengthAdjust="spacing" textLength="158.6016" x="666.7241" y="1000.4976">&#1057;&#1086;&#1079;&#1076;&#1072;&#1105;&#1090; &#1079;&#1072;&#1087;&#1080;&#1089;&#1100; Interview</text><text fill="#000000" font-family="sans-serif" font-size="12" lengthAdjust="spacing" textLength="153.7266" x="666.7241" y="1014.4663">&#1089;&#1086; &#1089;&#1090;&#1072;&#1090;&#1091;&#1089;&#1086;&#1084; SCHEDULED</text><rect fill="#F1F1F1" height="47.9375" rx="12.5" ry="12.5" style="stroke:#181818;stroke-width:1.5;" width="189.2773" x="651.3862" y="1047.2964"/><text fill="#000000" font-family="sans-serif" font-size="12" lengthAdjust="spacing" textLength="169.2773" x="661.3862" y="1068.4351">&#1054;&#1073;&#1085;&#1086;&#1074;&#1083;&#1103;&#1077;&#1090; &#1089;&#1090;&#1072;&#1090;&#1091;&#1089; &#1086;&#1090;&#1082;&#1083;&#1080;&#1082;&#1072;</text><text fill="#000000" font-family="sans-serif" font-size="12" lengthAdjust="spacing" textLength="166.1074" x="661.3862" y="1082.4038">&#1085;&#1072; INTERVIEW_SCHEDULED</text><rect fill="#F1F1F1" height="47.9375" rx="12.5" ry="12.5" style="stroke:#181818;stroke-width:1.5;" width="152.3633" x="669.8433" y="1115.2339"/><text fill="#000000" font-family="sans-serif" font-size="12" lengthAdjust="spacing" textLength="132.3633" x="679.8433" y="1136.3726">&#1047;&#1072;&#1087;&#1080;&#1089;&#1099;&#1074;&#1072;&#1077;&#1090; &#1089;&#1086;&#1073;&#1099;&#1090;&#1080;&#1077;</text><text fill="#000000" font-family="sans-serif" font-size="12" lengthAdjust="spacing" textLength="107.9941" x="679.8433" y="1150.3413">&#1074; &#1078;&#1091;&#1088;&#1085;&#1072;&#1083; &#1072;&#1091;&#1076;&#1080;&#1090;&#1072;</text><rect fill="#F1F1F1" height="47.9375" rx="12.5" ry="12.5" style="stroke:#181818;stroke-width:1.5;" width="130.9766" x="571.335" y="1231.1089"/><text fill="#000000" font-family="sans-serif" font-size="12" lengthAdjust="spacing" textLength="108.9258" x="581.335" y="1252.2476">&#1057;&#1086;&#1079;&#1076;&#1072;&#1105;&#1090; &#1089;&#1086;&#1073;&#1099;&#1090;&#1080;&#1077;</text><text fill="#000000" font-family="sans-serif" font-size="12" lengthAdjust="spacing" textLength="110.9766" x="581.335" y="1266.2163">&#1074; Google Calendar</text><rect fill="#F1F1F1" height="33.9688" rx="12.5" ry="12.5" style="stroke:#181818;stroke-width:1.5;" width="200.3516" x="536.6475" y="1299.0464"/><text fill="#000000" font-family="sans-serif" font-size="12" lengthAdjust="spacing" textLength="180.3516" x="546.6475" y="1320.1851">&#1057;&#1086;&#1093;&#1088;&#1072;&#1085;&#1103;&#1077;&#1090; calendar_event_id</text><path d="M973.4541,1234.9448 L973.4541,1251.0776 L953.4541,1255.0776 L973.4541,1259.0776 L973.4541,1275.2104 A0,0 0 0 0 973.4541,1275.2104 L1159.7534,1275.2104 A0,0 0 0 0 1159.7534,1275.2104 L1159.7534,1244.9448 L1149.7534,1234.9448 L973.4541,1234.9448 A0,0 0 0 0 973.4541,1234.9448" fill="#FEFFDD" style="stroke:#181818;stroke-width:0.5;"/><path d="M1149.7534,1234.9448 L1149.7534,1244.9448 L1159.7534,1244.9448 L1149.7534,1234.9448" fill="#FEFFDD" style="stroke:#181818;stroke-width:0.5;"/><text fill="#000000" font-family="sans-serif" font-size="13" lengthAdjust="spacing" textLength="136.1953" x="979.4541" y="1252.0117">&#1055;&#1086;&#1074;&#1090;&#1086;&#1088;&#1085;&#1072;&#1103; &#1087;&#1086;&#1087;&#1099;&#1090;&#1082;&#1072;</text><text fill="#000000" font-family="sans-serif" font-size="13" lengthAdjust="spacing" textLength="165.2993" x="979.4541" y="1267.1445">&#1087;&#1088;&#1080; &#1074;&#1086;&#1089;&#1089;&#1090;&#1072;&#1085;&#1086;&#1074;&#1083;&#1077;&#1085;&#1080;&#1080; API</text><rect fill="#F1F1F1" height="47.9375" rx="12.5" ry="12.5" style="stroke:#181818;stroke-width:1.5;" width="196.4551" x="756.999" y="1231.1089"/><text fill="#000000" font-family="sans-serif" font-size="12" lengthAdjust="spacing" textLength="61.6172" x="766.999" y="1252.2476">&#1055;&#1086;&#1084;&#1077;&#1095;&#1072;&#1077;&#1090;</text><text fill="#000000" font-family="sans-serif" font-size="12" lengthAdjust="spacing" textLength="176.4551" x="766.999" y="1266.2163">CALENDAR_SYNC = PENDING</text><rect fill="#F1F1F1" height="61.9063" rx="12.5" ry="12.5" style="stroke:#181818;stroke-width:1.5;" width="214.1445" x="638.9526" y="1387.0151"/><text fill="#000000" font-family="sans-serif" font-size="12" lengthAdjust="spacing" textLength="163.7285" x="648.9526" y="1408.1538">&#1054;&#1090;&#1087;&#1088;&#1072;&#1074;&#1083;&#1103;&#1077;&#1090; &#1091;&#1074;&#1077;&#1076;&#1086;&#1084;&#1083;&#1077;&#1085;&#1080;&#1077;</text><text fill="#000000" font-family="sans-serif" font-size="12" lengthAdjust="spacing" textLength="58.3066" x="648.9526" y="1422.1226">&#1089;&#1090;&#1091;&#1076;&#1077;&#1085;&#1090;&#1091;</text><text fill="#000000" font-family="sans-serif" font-size="12" lengthAdjust="spacing" textLength="194.1445" x="648.9526" y="1436.0913">(&#1076;&#1072;&#1090;&#1072;, &#1074;&#1088;&#1077;&#1084;&#1103;, &#1092;&#1086;&#1088;&#1084;&#1072;&#1090;, &#1089;&#1089;&#1099;&#1083;&#1082;&#1072;)</text><rect fill="#F1F1F1" height="47.9375" rx="12.5" ry="12.5" style="stroke:#181818;stroke-width:1.5;" width="149.9375" x="542.126" y="1828.6089"/><text fill="#000000" font-family="sans-serif" font-size="12" lengthAdjust="spacing" textLength="113.8125" x="552.126" y="1849.7476">&#1054;&#1073;&#1085;&#1086;&#1074;&#1083;&#1103;&#1077;&#1090; &#1089;&#1090;&#1072;&#1090;&#1091;&#1089;</text><text fill="#000000" font-family="sans-serif" font-size="12" lengthAdjust="spacing" textLength="129.9375" x="552.126" y="1863.7163">&#1085;&#1072; OFFER_EXTENDED</text><rect fill="#F1F1F1" height="47.9375" rx="12.5" ry="12.5" style="stroke:#181818;stroke-width:1.5;" width="158.0938" x="538.0479" y="1910.5151"/><text fill="#000000" font-family="sans-serif" font-size="12" lengthAdjust="spacing" textLength="138.0938" x="548.0479" y="1931.6538">&#1059;&#1074;&#1077;&#1076;&#1086;&#1084;&#1083;&#1103;&#1077;&#1090; &#1089;&#1090;&#1091;&#1076;&#1077;&#1085;&#1090;&#1072;</text><text fill="#000000" font-family="sans-serif" font-size="12" lengthAdjust="spacing" textLength="68.8008" x="548.0479" y="1945.6226">&#1086;&#1073; &#1086;&#1092;&#1092;&#1077;&#1088;&#1077;</text><rect fill="#F1F1F1" height="47.9375" rx="12.5" ry="12.5" style="stroke:#181818;stroke-width:1.5;" width="133.8125" x="473.2822" y="2122.2651"/><text fill="#000000" font-family="sans-serif" font-size="12" lengthAdjust="spacing" textLength="113.8125" x="483.2822" y="2143.4038">&#1054;&#1073;&#1085;&#1086;&#1074;&#1083;&#1103;&#1077;&#1090; &#1089;&#1090;&#1072;&#1090;&#1091;&#1089;</text><text fill="#000000" font-family="sans-serif" font-size="12" lengthAdjust="spacing" textLength="82.9512" x="483.2822" y="2157.3726">&#1085;&#1072; ACCEPTED</text><rect fill="#F1F1F1" height="61.9063" rx="12.5" ry="12.5" style="stroke:#181818;stroke-width:1.5;" width="128.8086" x="475.7842" y="2205.2026"/><text fill="#000000" font-family="sans-serif" font-size="12" lengthAdjust="spacing" textLength="104.5313" x="485.7842" y="2226.3413">&#1060;&#1080;&#1082;&#1089;&#1080;&#1088;&#1091;&#1077;&#1090; &#1092;&#1072;&#1082;&#1090;</text><text fill="#000000" font-family="sans-serif" font-size="12" lengthAdjust="spacing" textLength="108.8086" x="485.7842" y="2240.3101">&#1090;&#1088;&#1091;&#1076;&#1086;&#1091;&#1089;&#1090;&#1088;&#1086;&#1081;&#1089;&#1090;&#1074;&#1072;</text><text fill="#000000" font-family="sans-serif" font-size="12" lengthAdjust="spacing" textLength="104.2207" x="485.7842" y="2254.2788">(&#1076;&#1083;&#1103; &#1072;&#1085;&#1072;&#1083;&#1080;&#1090;&#1080;&#1082;&#1080;)</text><ellipse cx="540.1885" cy="2298.1089" fill="none" rx="11" ry="11" style="stroke:#222222;stroke-width:1;"/><ellipse cx="540.1885" cy="2298.1089" fill="#222222" rx="6" ry="6" style="stroke:#222222;stroke-width:1;"/><rect fill="#F1F1F1" height="47.9375" rx="12.5" ry="12.5" style="stroke:#181818;stroke-width:1.5;" width="133.8125" x="627.0947" y="2122.2651"/><text fill="#000000" font-family="sans-serif" font-size="12" lengthAdjust="spacing" textLength="113.8125" x="637.0947" y="2143.4038">&#1054;&#1073;&#1085;&#1086;&#1074;&#1083;&#1103;&#1077;&#1090; &#1089;&#1090;&#1072;&#1090;&#1091;&#1089;</text><text fill="#000000" font-family="sans-serif" font-size="12" lengthAdjust="spacing" textLength="97.4004" x="637.0947" y="2157.3726">&#1085;&#1072; WITHDRAWN</text><ellipse cx="694.001" cy="2216.2026" fill="none" rx="11" ry="11" style="stroke:#222222;stroke-width:1;"/><ellipse cx="694.001" cy="2216.2026" fill="#222222" rx="6" ry="6" style="stroke:#222222;stroke-width:1;"/><rect fill="#F1F1F1" height="47.9375" rx="12.5" ry="12.5" style="stroke:#181818;stroke-width:1.5;" width="133.8125" x="808.0488" y="1842.5776"/><text fill="#000000" font-family="sans-serif" font-size="12" lengthAdjust="spacing" textLength="113.8125" x="818.0488" y="1863.7163">&#1054;&#1073;&#1085;&#1086;&#1074;&#1083;&#1103;&#1077;&#1090; &#1089;&#1090;&#1072;&#1090;&#1091;&#1089;</text><text fill="#000000" font-family="sans-serif" font-size="12" lengthAdjust="spacing" textLength="78.5859" x="818.0488" y="1877.6851">&#1085;&#1072; REJECTED</text><rect fill="#F1F1F1" height="47.9375" rx="12.5" ry="12.5" style="stroke:#181818;stroke-width:1.5;" width="152.3633" x="798.7734" y="1924.4839"/><text fill="#000000" font-family="sans-serif" font-size="12" lengthAdjust="spacing" textLength="132.3633" x="808.7734" y="1945.6226">&#1047;&#1072;&#1087;&#1080;&#1089;&#1099;&#1074;&#1072;&#1077;&#1090; &#1089;&#1086;&#1073;&#1099;&#1090;&#1080;&#1077;</text><text fill="#000000" font-family="sans-serif" font-size="12" lengthAdjust="spacing" textLength="107.9941" x="808.7734" y="1959.5913">&#1074; &#1078;&#1091;&#1088;&#1085;&#1072;&#1083; &#1072;&#1091;&#1076;&#1080;&#1090;&#1072;</text><rect fill="#F1F1F1" height="47.9375" rx="12.5" ry="12.5" style="stroke:#181818;stroke-width:1.5;" width="158.0938" x="795.9082" y="2006.3901"/><text fill="#000000" font-family="sans-serif" font-size="12" lengthAdjust="spacing" textLength="138.0938" x="805.9082" y="2027.5288">&#1059;&#1074;&#1077;&#1076;&#1086;&#1084;&#1083;&#1103;&#1077;&#1090; &#1089;&#1090;&#1091;&#1076;&#1077;&#1085;&#1090;&#1072;</text><text fill="#000000" font-family="sans-serif" font-size="12" lengthAdjust="spacing" textLength="61.2539" x="805.9082" y="2041.4976">&#1086;&#1073; &#1086;&#1090;&#1082;&#1072;&#1079;&#1077;</text><line style="stroke:#000000;stroke-width:1.5;" x1="467.2822" x2="467.2822" y1="53.8628" y2="2321.1089"/><rect fill="#E8F4FD" height="2267.2461" style="stroke:#E8F4FD;stroke-width:1;" width="435.9561" x="1164.7534" y="53.8628"/><rect fill="#F1F1F1" height="47.9375" rx="12.5" ry="12.5" style="stroke:#181818;stroke-width:1.5;" width="168.0957" x="1299.6836" y="589.6401"/><text fill="#000000" font-family="sans-serif" font-size="12" lengthAdjust="spacing" textLength="148.0957" x="1309.6836" y="610.7788">&#1055;&#1086;&#1083;&#1091;&#1095;&#1072;&#1077;&#1090; &#1091;&#1074;&#1077;&#1076;&#1086;&#1084;&#1083;&#1077;&#1085;&#1080;&#1077;</text><text fill="#000000" font-family="sans-serif" font-size="12" lengthAdjust="spacing" textLength="61.2539" x="1309.6836" y="624.7476">&#1086;&#1073; &#1086;&#1090;&#1082;&#1072;&#1079;&#1077;</text><ellipse cx="1383.7314" cy="668.5776" fill="none" rx="11" ry="11" style="stroke:#222222;stroke-width:1;"/><ellipse cx="1383.7314" cy="668.5776" fill="#222222" rx="6" ry="6" style="stroke:#222222;stroke-width:1;"/><rect fill="#F1F1F1" height="47.9375" rx="12.5" ry="12.5" style="stroke:#181818;stroke-width:1.5;" width="168.0957" x="1299.6836" y="1468.9214"/><text fill="#000000" font-family="sans-serif" font-size="12" lengthAdjust="spacing" textLength="148.0957" x="1309.6836" y="1490.0601">&#1055;&#1086;&#1083;&#1091;&#1095;&#1072;&#1077;&#1090; &#1091;&#1074;&#1077;&#1076;&#1086;&#1084;&#1083;&#1077;&#1085;&#1080;&#1077;</text><text fill="#000000" font-family="sans-serif" font-size="12" lengthAdjust="spacing" textLength="80.4375" x="1309.6836" y="1504.0288">&#1086;&#1073; &#1080;&#1085;&#1090;&#1077;&#1088;&#1074;&#1100;&#1102;</text><rect fill="#F1F1F1" height="33.9688" rx="12.5" ry="12.5" style="stroke:#181818;stroke-width:1.5;" width="160.4727" x="1303.4951" y="1536.8589"/><text fill="#000000" font-family="sans-serif" font-size="12" lengthAdjust="spacing" textLength="140.4727" x="1313.4951" y="1557.9976">&#1059;&#1095;&#1072;&#1089;&#1090;&#1074;&#1091;&#1077;&#1090; &#1074; &#1080;&#1085;&#1090;&#1077;&#1088;&#1074;&#1100;&#1102;</text><rect fill="#F1F1F1" height="47.9375" rx="12.5" ry="12.5" style="stroke:#181818;stroke-width:1.5;" width="168.0957" x="1170.7534" y="1992.4214"/><text fill="#000000" font-family="sans-serif" font-size="12" lengthAdjust="spacing" textLength="148.0957" x="1180.7534" y="2013.5601">&#1055;&#1086;&#1083;&#1091;&#1095;&#1072;&#1077;&#1090; &#1091;&#1074;&#1077;&#1076;&#1086;&#1084;&#1083;&#1077;&#1085;&#1080;&#1077;</text><text fill="#000000" font-family="sans-serif" font-size="12" lengthAdjust="spacing" textLength="68.8008" x="1180.7534" y="2027.5288">&#1086;&#1073; &#1086;&#1092;&#1092;&#1077;&#1088;&#1077;</text><polygon fill="#F1F1F1" points="1219.3696,2074.3276,1290.2329,2074.3276,1302.2329,2088.2964,1290.2329,2102.2651,1219.3696,2102.2651,1207.3696,2088.2964,1219.3696,2074.3276" style="stroke:#181818;stroke-width:1.5;"/><text fill="#000000" font-family="sans-serif" font-size="12" lengthAdjust="spacing" textLength="70.8633" x="1219.3696" y="2085.4663">&#1055;&#1088;&#1080;&#1085;&#1080;&#1084;&#1072;&#1077;&#1090;</text><text fill="#000000" font-family="sans-serif" font-size="12" lengthAdjust="spacing" textLength="49.2305" x="1219.3696" y="2099.4351">&#1086;&#1092;&#1092;&#1077;&#1088;?</text><text fill="#000000" font-family="sans-serif" font-size="11" lengthAdjust="spacing" textLength="15.3345" x="1192.0352" y="2085.7021">&#1044;&#1072;</text><text fill="#000000" font-family="sans-serif" font-size="11" lengthAdjust="spacing" textLength="21.4468" x="1302.2329" y="2085.7021">&#1053;&#1077;&#1090;</text><rect fill="#F1F1F1" height="47.9375" rx="12.5" ry="12.5" style="stroke:#181818;stroke-width:1.5;" width="168.0957" x="1428.6138" y="2088.2964"/><text fill="#000000" font-family="sans-serif" font-size="12" lengthAdjust="spacing" textLength="148.0957" x="1438.6138" y="2109.4351">&#1055;&#1086;&#1083;&#1091;&#1095;&#1072;&#1077;&#1090; &#1091;&#1074;&#1077;&#1076;&#1086;&#1084;&#1083;&#1077;&#1085;&#1080;&#1077;</text><text fill="#000000" font-family="sans-serif" font-size="12" lengthAdjust="spacing" textLength="61.2539" x="1438.6138" y="2123.4038">&#1086;&#1073; &#1086;&#1090;&#1082;&#1072;&#1079;&#1077;</text><ellipse cx="1512.6616" cy="2182.2339" fill="none" rx="11" ry="11" style="stroke:#222222;stroke-width:1;"/><ellipse cx="1512.6616" cy="2182.2339" fill="#222222" rx="6" ry="6" style="stroke:#222222;stroke-width:1;"/><line style="stroke:#000000;stroke-width:1.5;" x1="1164.7534" x2="1164.7534" y1="53.8628" y2="2321.1089"/><rect fill="#FEF3E2" height="2267.2461" style="stroke:#FEF3E2;stroke-width:1;" width="233.9438" x="1600.7095" y="53.8628"/><polygon fill="#F1F1F1" points="1633.0439,1183.1714,1709.8018,1183.1714,1721.8018,1197.1401,1709.8018,1211.1089,1633.0439,1211.1089,1621.0439,1197.1401,1633.0439,1183.1714" style="stroke:#181818;stroke-width:1.5;"/><text fill="#000000" font-family="sans-serif" font-size="12" lengthAdjust="spacing" textLength="76.7578" x="1633.0439" y="1194.3101">Calendar API</text><text fill="#000000" font-family="sans-serif" font-size="12" lengthAdjust="spacing" textLength="65.7715" x="1633.0439" y="1208.2788">&#1076;&#1086;&#1089;&#1090;&#1091;&#1087;&#1077;&#1085;?</text><text fill="#000000" font-family="sans-serif" font-size="11" lengthAdjust="spacing" textLength="15.3345" x="1605.7095" y="1194.5459">&#1044;&#1072;</text><text fill="#000000" font-family="sans-serif" font-size="11" lengthAdjust="spacing" textLength="107.8516" x="1721.8018" y="1194.5459">&#1053;&#1077;&#1090; &#8212; &#1085;&#1077;&#1076;&#1086;&#1089;&#1090;&#1091;&#1087;&#1077;&#1085;</text><polygon fill="#F1F1F1" points="1671.4229,1343.0151,1683.4229,1355.0151,1671.4229,1367.0151,1659.4229,1355.0151,1671.4229,1343.0151" style="stroke:#181818;stroke-width:1.5;"/><line style="stroke:#000000;stroke-width:1.5;" x1="1600.7095" x2="1600.7095" y1="53.8628" y2="2321.1089"/><line style="stroke:#000000;stroke-width:1.5;" x1="1834.6533" x2="1834.6533" y1="53.8628" y2="2321.1089"/><line style="stroke:#181818;stroke-width:1.5;" x1="254.1099" x2="254.1099" y1="109.1284" y2="129.1284"/><polygon fill="#181818" points="250.1099,119.1284,254.1099,129.1284,258.1099,119.1284,254.1099,123.1284" style="stroke:#181818;stroke-width:1;"/><line style="stroke:#181818;stroke-width:1.5;" x1="254.1099" x2="254.1099" y1="177.0659" y2="197.0659"/><polygon fill="#181818" points="250.1099,187.0659,254.1099,197.0659,258.1099,187.0659,254.1099,191.0659" style="stroke:#181818;stroke-width:1;"/><line style="stroke:#181818;stroke-width:1.5;" x1="254.1099" x2="254.1099" y1="292.9409" y2="317.3433"/><polygon fill="#181818" points="250.1099,307.3433,254.1099,317.3433,258.1099,307.3433,254.1099,311.3433" style="stroke:#181818;stroke-width:1;"/><line style="stroke:#181818;stroke-width:1.5;" x1="299.8013" x2="358.7485" y1="278.9722" y2="278.9722"/><polygon fill="#181818" points="354.7485,491.7026,358.7485,501.7026,362.7485,491.7026,358.7485,495.7026" style="stroke:#181818;stroke-width:1.5;"/><line style="stroke:#181818;stroke-width:1.5;" x1="358.7485" x2="358.7485" y1="278.9722" y2="701.5776"/><line style="stroke:#181818;stroke-width:1.5;" x1="358.7485" x2="254.1099" y1="701.5776" y2="701.5776"/><line style="stroke:#181818;stroke-width:1.5;" x1="254.1099" x2="254.1099" y1="701.5776" y2="721.5776"/><polygon fill="#181818" points="250.1099,711.5776,254.1099,721.5776,258.1099,711.5776,254.1099,715.5776" style="stroke:#181818;stroke-width:1;"/><line style="stroke:#181818;stroke-width:1.5;" x1="254.1099" x2="254.1099" y1="245.0034" y2="265.0034"/><polygon fill="#181818" points="250.1099,255.0034,254.1099,265.0034,258.1099,255.0034,254.1099,259.0034" style="stroke:#181818;stroke-width:1;"/><line style="stroke:#181818;stroke-width:1.5;" x1="254.1099" x2="254.1099" y1="769.5151" y2="789.5151"/><polygon fill="#181818" points="250.1099,779.5151,254.1099,789.5151,258.1099,779.5151,254.1099,783.5151" style="stroke:#181818;stroke-width:1;"/><line style="stroke:#181818;stroke-width:1.5;" x1="254.1099" x2="254.1099" y1="837.4526" y2="857.4526"/><polygon fill="#181818" points="250.1099,847.4526,254.1099,857.4526,258.1099,847.4526,254.1099,851.4526" style="stroke:#181818;stroke-width:1;"/><line style="stroke:#181818;stroke-width:1.5;" x1="254.1099" x2="254.1099" y1="1624.7964" y2="1644.7964"/><polygon fill="#181818" points="250.1099,1634.7964,254.1099,1644.7964,258.1099,1634.7964,254.1099,1638.7964" style="stroke:#181818;stroke-width:1;"/><line style="stroke:#181818;stroke-width:1.5;" x1="207.9849" x2="125.1797" y1="1726.7026" y2="1726.7026"/><line style="stroke:#181818;stroke-width:1.5;" x1="125.1797" x2="125.1797" y1="1726.7026" y2="1760.6714"/><polygon fill="#181818" points="121.1797,1750.6714,125.1797,1760.6714,129.1797,1750.6714,125.1797,1754.6714" style="stroke:#181818;stroke-width:1;"/><line style="stroke:#181818;stroke-width:1.5;" x1="300.2349" x2="383.04" y1="1726.7026" y2="1726.7026"/><line style="stroke:#181818;stroke-width:1.5;" x1="383.04" x2="383.04" y1="1726.7026" y2="1760.6714"/><polygon fill="#181818" points="379.04,1750.6714,383.04,1760.6714,387.04,1750.6714,383.04,1754.6714" style="stroke:#181818;stroke-width:1;"/><line style="stroke:#181818;stroke-width:1.5;" x1="254.1099" x2="254.1099" y1="1692.7339" y2="1712.7339"/><polygon fill="#181818" points="250.1099,1702.7339,254.1099,1712.7339,258.1099,1702.7339,254.1099,1706.7339" style="stroke:#181818;stroke-width:1;"/><line style="stroke:#181818;stroke-width:1.5;" x1="746.0249" x2="746.0249" y1="433.2183" y2="453.2183"/><polygon fill="#181818" points="742.0249,443.2183,746.0249,453.2183,750.0249,443.2183,746.0249,447.2183" style="stroke:#181818;stroke-width:1;"/><line style="stroke:#181818;stroke-width:1.5;" x1="746.0249" x2="746.0249" y1="501.1558" y2="521.7026"/><polygon fill="#181818" points="742.0249,511.7026,746.0249,521.7026,750.0249,511.7026,746.0249,515.7026" style="stroke:#181818;stroke-width:1;"/><line style="stroke:#181818;stroke-width:1.5;" x1="746.0249" x2="746.0249" y1="959.3589" y2="979.3589"/><polygon fill="#181818" points="742.0249,969.3589,746.0249,979.3589,750.0249,969.3589,746.0249,973.3589" style="stroke:#181818;stroke-width:1;"/><line style="stroke:#181818;stroke-width:1.5;" x1="746.0249" x2="746.0249" y1="1027.2964" y2="1047.2964"/><polygon fill="#181818" points="742.0249,1037.2964,746.0249,1047.2964,750.0249,1037.2964,746.0249,1041.2964" style="stroke:#181818;stroke-width:1;"/><line style="stroke:#181818;stroke-width:1.5;" x1="746.0249" x2="746.0249" y1="1095.2339" y2="1115.2339"/><polygon fill="#181818" points="742.0249,1105.2339,746.0249,1115.2339,750.0249,1105.2339,746.0249,1109.2339" style="stroke:#181818;stroke-width:1;"/><line style="stroke:#181818;stroke-width:1.5;" x1="636.8232" x2="636.8232" y1="1279.0464" y2="1299.0464"/><polygon fill="#181818" points="632.8232,1289.0464,636.8232,1299.0464,640.8232,1289.0464,636.8232,1293.0464" style="stroke:#181818;stroke-width:1;"/><line style="stroke:#181818;stroke-width:1.5;" x1="617.0947" x2="617.0947" y1="1876.5464" y2="1910.5151"/><polygon fill="#181818" points="613.0947,1900.5151,617.0947,1910.5151,621.0947,1900.5151,617.0947,1904.5151" style="stroke:#181818;stroke-width:1;"/><line style="stroke:#181818;stroke-width:1.5;" x1="540.1885" x2="540.1885" y1="2170.2026" y2="2205.2026"/><polygon fill="#181818" points="536.1885,2195.2026,540.1885,2205.2026,544.1885,2195.2026,540.1885,2199.2026" style="stroke:#181818;stroke-width:1;"/><line style="stroke:#181818;stroke-width:1.5;" x1="540.1885" x2="540.1885" y1="2267.1089" y2="2287.1089"/><polygon fill="#181818" points="536.1885,2277.1089,540.1885,2287.1089,544.1885,2277.1089,540.1885,2281.1089" style="stroke:#181818;stroke-width:1;"/><line style="stroke:#181818;stroke-width:1.5;" x1="694.001" x2="694.001" y1="2170.2026" y2="2205.2026"/><polygon fill="#181818" points="690.001,2195.2026,694.001,2205.2026,698.001,2195.2026,694.001,2199.2026" style="stroke:#181818;stroke-width:1;"/><line style="stroke:#181818;stroke-width:1.5;" x1="874.9551" x2="874.9551" y1="1890.5151" y2="1924.4839"/><polygon fill="#181818" points="870.9551,1914.4839,874.9551,1924.4839,878.9551,1914.4839,874.9551,1918.4839" style="stroke:#181818;stroke-width:1;"/><line style="stroke:#181818;stroke-width:1.5;" x1="874.9551" x2="874.9551" y1="1972.4214" y2="2006.3901"/><polygon fill="#181818" points="870.9551,1996.3901,874.9551,2006.3901,878.9551,1996.3901,874.9551,2000.3901" style="stroke:#181818;stroke-width:1;"/><line style="stroke:#181818;stroke-width:1.5;" x1="1383.7314" x2="1383.7314" y1="637.5776" y2="657.5776"/><polygon fill="#181818" points="1379.7314,647.5776,1383.7314,657.5776,1387.7314,647.5776,1383.7314,651.5776" style="stroke:#181818;stroke-width:1;"/><line style="stroke:#181818;stroke-width:1.5;" x1="1383.7314" x2="1383.7314" y1="1516.8589" y2="1536.8589"/><polygon fill="#181818" points="1379.7314,1526.8589,1383.7314,1536.8589,1387.7314,1526.8589,1383.7314,1530.8589" style="stroke:#181818;stroke-width:1;"/><line style="stroke:#181818;stroke-width:1.5;" x1="1254.8013" x2="1254.8013" y1="2040.3589" y2="2074.3276"/><polygon fill="#181818" points="1250.8013,2064.3276,1254.8013,2074.3276,1258.8013,2064.3276,1254.8013,2068.3276" style="stroke:#181818;stroke-width:1;"/><line style="stroke:#181818;stroke-width:1.5;" x1="1512.6616" x2="1512.6616" y1="2136.2339" y2="2171.2339"/><polygon fill="#181818" points="1508.6616,2161.2339,1512.6616,2171.2339,1516.6616,2161.2339,1512.6616,2165.2339" style="stroke:#181818;stroke-width:1;"/><line style="stroke:#181818;stroke-width:1.5;" x1="254.1099" x2="254.1099" y1="365.2808" y2="370.2808"/><line style="stroke:#181818;stroke-width:1.5;" x1="254.1099" x2="746.0249" y1="370.2808" y2="370.2808"/><line style="stroke:#181818;stroke-width:1.5;" x1="746.0249" x2="746.0249" y1="370.2808" y2="385.2808"/><polygon fill="#181818" points="742.0249,375.2808,746.0249,385.2808,750.0249,375.2808,746.0249,379.2808" style="stroke:#181818;stroke-width:1;"/><line style="stroke:#181818;stroke-width:1.5;" x1="746.0249" x2="746.0249" y1="569.6401" y2="574.6401"/><line style="stroke:#181818;stroke-width:1.5;" x1="746.0249" x2="1383.7314" y1="574.6401" y2="574.6401"/><line style="stroke:#181818;stroke-width:1.5;" x1="1383.7314" x2="1383.7314" y1="574.6401" y2="589.6401"/><polygon fill="#181818" points="1379.7314,579.6401,1383.7314,589.6401,1387.7314,579.6401,1383.7314,583.6401" style="stroke:#181818;stroke-width:1;"/><line style="stroke:#181818;stroke-width:1.5;" x1="254.1099" x2="254.1099" y1="891.4214" y2="896.4214"/><line style="stroke:#181818;stroke-width:1.5;" x1="254.1099" x2="746.0249" y1="896.4214" y2="896.4214"/><line style="stroke:#181818;stroke-width:1.5;" x1="746.0249" x2="746.0249" y1="896.4214" y2="911.4214"/><polygon fill="#181818" points="742.0249,901.4214,746.0249,911.4214,750.0249,901.4214,746.0249,905.4214" style="stroke:#181818;stroke-width:1;"/><line style="stroke:#181818;stroke-width:1.5;" x1="1621.0439" x2="636.8232" y1="1197.1401" y2="1197.1401"/><line style="stroke:#181818;stroke-width:1.5;" x1="636.8232" x2="636.8232" y1="1197.1401" y2="1231.1089"/><polygon fill="#181818" points="632.8232,1221.1089,636.8232,1231.1089,640.8232,1221.1089,636.8232,1225.1089" style="stroke:#181818;stroke-width:1;"/><line style="stroke:#181818;stroke-width:1.5;" x1="1721.8018" x2="1733.8018" y1="1197.1401" y2="1197.1401"/><line style="stroke:#181818;stroke-width:1.5;" x1="1733.8018" x2="1733.8018" y1="1197.1401" y2="1218.0933"/><line style="stroke:#181818;stroke-width:1.5;" x1="1733.8018" x2="855.2266" y1="1218.0933" y2="1218.0933"/><line style="stroke:#181818;stroke-width:1.5;" x1="855.2266" x2="855.2266" y1="1218.0933" y2="1231.1089"/><polygon fill="#181818" points="851.2266,1221.1089,855.2266,1231.1089,859.2266,1221.1089,855.2266,1225.1089" style="stroke:#181818;stroke-width:1;"/><line style="stroke:#181818;stroke-width:1.5;" x1="636.8232" x2="636.8232" y1="1333.0151" y2="1355.0151"/><line style="stroke:#181818;stroke-width:1.5;" x1="636.8232" x2="1659.4229" y1="1355.0151" y2="1355.0151"/><polygon fill="#181818" points="1649.4229,1351.0151,1659.4229,1355.0151,1649.4229,1359.0151,1653.4229,1355.0151" style="stroke:#181818;stroke-width:1;"/><line style="stroke:#181818;stroke-width:1.5;" x1="855.2266" x2="855.2266" y1="1279.0464" y2="1337.0151"/><line style="stroke:#181818;stroke-width:1.5;" x1="855.2266" x2="1701.4229" y1="1337.0151" y2="1337.0151"/><line style="stroke:#181818;stroke-width:1.5;" x1="1701.4229" x2="1701.4229" y1="1337.0151" y2="1355.0151"/><line style="stroke:#181818;stroke-width:1.5;" x1="1701.4229" x2="1683.4229" y1="1355.0151" y2="1355.0151"/><polygon fill="#181818" points="1693.4229,1351.0151,1683.4229,1355.0151,1693.4229,1359.0151,1689.4229,1355.0151" style="stroke:#181818;stroke-width:1;"/><line style="stroke:#181818;stroke-width:1.5;" x1="746.0249" x2="746.0249" y1="1163.1714" y2="1168.1714"/><line style="stroke:#181818;stroke-width:1.5;" x1="746.0249" x2="1671.4229" y1="1168.1714" y2="1168.1714"/><line style="stroke:#181818;stroke-width:1.5;" x1="1671.4229" x2="1671.4229" y1="1168.1714" y2="1183.1714"/><polygon fill="#181818" points="1667.4229,1173.1714,1671.4229,1183.1714,1675.4229,1173.1714,1671.4229,1177.1714" style="stroke:#181818;stroke-width:1;"/><line style="stroke:#181818;stroke-width:1.5;" x1="1671.4229" x2="1671.4229" y1="1367.0151" y2="1372.0151"/><line style="stroke:#181818;stroke-width:1.5;" x1="1671.4229" x2="746.0249" y1="1372.0151" y2="1372.0151"/><line style="stroke:#181818;stroke-width:1.5;" x1="746.0249" x2="746.0249" y1="1372.0151" y2="1387.0151"/><polygon fill="#181818" points="742.0249,1377.0151,746.0249,1387.0151,750.0249,1377.0151,746.0249,1381.0151" style="stroke:#181818;stroke-width:1;"/><line style="stroke:#181818;stroke-width:1.5;" x1="746.0249" x2="746.0249" y1="1448.9214" y2="1453.9214"/><line style="stroke:#181818;stroke-width:1.5;" x1="746.0249" x2="1383.7314" y1="1453.9214" y2="1453.9214"/><line style="stroke:#181818;stroke-width:1.5;" x1="1383.7314" x2="1383.7314" y1="1453.9214" y2="1468.9214"/><polygon fill="#181818" points="1379.7314,1458.9214,1383.7314,1468.9214,1387.7314,1458.9214,1383.7314,1462.9214" style="stroke:#181818;stroke-width:1;"/><line style="stroke:#181818;stroke-width:1.5;" x1="1383.7314" x2="1383.7314" y1="1570.8276" y2="1575.8276"/><line style="stroke:#181818;stroke-width:1.5;" x1="1383.7314" x2="254.1099" y1="1575.8276" y2="1575.8276"/><line style="stroke:#181818;stroke-width:1.5;" x1="254.1099" x2="254.1099" y1="1575.8276" y2="1590.8276"/><polygon fill="#181818" points="250.1099,1580.8276,254.1099,1590.8276,258.1099,1580.8276,254.1099,1584.8276" style="stroke:#181818;stroke-width:1;"/><line style="stroke:#181818;stroke-width:1.5;" x1="125.1797" x2="125.1797" y1="1794.6401" y2="1812.1401"/><line style="stroke:#181818;stroke-width:1.5;" x1="125.1797" x2="617.0947" y1="1812.1401" y2="1812.1401"/><line style="stroke:#181818;stroke-width:1.5;" x1="617.0947" x2="617.0947" y1="1812.1401" y2="1828.6089"/><polygon fill="#181818" points="613.0947,1818.6089,617.0947,1828.6089,621.0947,1818.6089,617.0947,1822.6089" style="stroke:#181818;stroke-width:1;"/><line style="stroke:#181818;stroke-width:1.5;" x1="617.0947" x2="617.0947" y1="1958.4526" y2="1975.9526"/><line style="stroke:#181818;stroke-width:1.5;" x1="617.0947" x2="1254.8013" y1="1975.9526" y2="1975.9526"/><line style="stroke:#181818;stroke-width:1.5;" x1="1254.8013" x2="1254.8013" y1="1975.9526" y2="1992.4214"/><polygon fill="#181818" points="1250.8013,1982.4214,1254.8013,1992.4214,1258.8013,1982.4214,1254.8013,1986.4214" style="stroke:#181818;stroke-width:1;"/><line style="stroke:#181818;stroke-width:1.5;" x1="1207.3696" x2="540.1885" y1="2088.2964" y2="2088.2964"/><line style="stroke:#181818;stroke-width:1.5;" x1="540.1885" x2="540.1885" y1="2088.2964" y2="2122.2651"/><polygon fill="#181818" points="536.1885,2112.2651,540.1885,2122.2651,544.1885,2112.2651,540.1885,2116.2651" style="stroke:#181818;stroke-width:1;"/><line style="stroke:#181818;stroke-width:1.5;" x1="1302.2329" x2="1314.2329" y1="2088.2964" y2="2088.2964"/><line style="stroke:#181818;stroke-width:1.5;" x1="1314.2329" x2="1314.2329" y1="2088.2964" y2="2109.2495"/><line style="stroke:#181818;stroke-width:1.5;" x1="1314.2329" x2="694.001" y1="2109.2495" y2="2109.2495"/><line style="stroke:#181818;stroke-width:1.5;" x1="694.001" x2="694.001" y1="2109.2495" y2="2122.2651"/><polygon fill="#181818" points="690.001,2112.2651,694.001,2122.2651,698.001,2112.2651,694.001,2116.2651" style="stroke:#181818;stroke-width:1;"/><line style="stroke:#181818;stroke-width:1.5;" x1="383.04" x2="383.04" y1="1808.6089" y2="1825.0776"/><line style="stroke:#181818;stroke-width:1.5;" x1="383.04" x2="874.9551" y1="1825.0776" y2="1825.0776"/><line style="stroke:#181818;stroke-width:1.5;" x1="874.9551" x2="874.9551" y1="1825.0776" y2="1842.5776"/><polygon fill="#181818" points="870.9551,1832.5776,874.9551,1842.5776,878.9551,1832.5776,874.9551,1836.5776" style="stroke:#181818;stroke-width:1;"/><line style="stroke:#181818;stroke-width:1.5;" x1="874.9551" x2="874.9551" y1="2054.3276" y2="2070.7964"/><line style="stroke:#181818;stroke-width:1.5;" x1="874.9551" x2="1512.6616" y1="2070.7964" y2="2070.7964"/><line style="stroke:#181818;stroke-width:1.5;" x1="1512.6616" x2="1512.6616" y1="2070.7964" y2="2088.2964"/><polygon fill="#181818" points="1508.6616,2078.2964,1512.6616,2088.2964,1516.6616,2078.2964,1512.6616,2082.2964" style="stroke:#181818;stroke-width:1;"/><text fill="#000000" font-family="sans-serif" font-size="13" lengthAdjust="spacing" textLength="95.7988" x="195.7417" y="65.9297">&#1056;&#1072;&#1073;&#1086;&#1090;&#1086;&#1076;&#1072;&#1090;&#1077;&#1083;&#1100;</text><text fill="#000000" font-family="sans-serif" font-size="13" lengthAdjust="spacing" textLength="58.0176" x="787.009" y="65.9297">&#1057;&#1080;&#1089;&#1090;&#1077;&#1084;&#1072;</text><text fill="#000000" font-family="sans-serif" font-size="13" lengthAdjust="spacing" textLength="57.4019" x="1354.0305" y="65.9297">&#1057;&#1090;&#1091;&#1076;&#1077;&#1085;&#1090;</text><text fill="#000000" font-family="sans-serif" font-size="13" lengthAdjust="spacing" textLength="140.334" x="1649.5806" y="65.9297">&#1042;&#1085;&#1077;&#1096;&#1085;&#1080;&#1081; &#1082;&#1072;&#1083;&#1077;&#1085;&#1076;&#1072;&#1088;&#1100;</text><text fill="#000000" font-family="sans-serif" font-size="13" lengthAdjust="spacing" textLength="118.5742" x="1645.4482" y="81.0625">(Google Calendar)</text><?plantuml-src vLRHQXjN47tVhxYG5mjC8Oa3ng8KHLebAgbgPBLkmM24lOcNsAiWBGvjNLXBILsmi6a8D1HYDwHlVP5LAv8jQGtvWdj_eL_ICtFlHYjBJfocUUgBxDsTcJjdvioPwxl-kYDkpd-H5ty7JuKyL84CrK-ohRRLjfYP4_AvRCgE7CYcsf5j_EtAji3FGDLW5CYMQgWzlA1t7TbdayWCCMhmgwcwsfPDWS0rUIfx-7OgcvPLlUzw3qgLqeOehVZkfkj_9twmXBXPhgmwbUAQktBVSwfLSVMJ6tYRBNl-Wlkz8wvUmrF6BMsKlTL9fZ_6ubOVkXlh9SzvIzmY5M0O_3hyhQqhsRGzQyzk2Vaxq1znug4y9Ym0rrCDiMLL_LB5j-Ra0O5IWTgLBTYsLGsmvPdiuZUKfwEWGzbQyl0n99iM7jloHB0V2eAIRiEgcqJGPxA3ekr40GCOTjGUbHV-NS6npwXL7EKOfvd446IN6iG9uB4lcqdBlIkcv6zq0fbg73eFUQmUHm4-ImX_pV5W-fnEJQ0u1Xso3n5udvE90rhoG1B6rTUjvtu7r7pPJrg8i7KbSyEUpSoWb2yu9SeJIQ6071x57J2AdWaVvymvnY1bq50KxC_jTD7E93d2hu2bmOuq89H7QXVENQvOIyXN21YGl-m9nA-ReZLrb9VmRUCL0ObdmdO65-8WQfGJ3KNRGBHdipFP346CUnY8X_3gnPjPZvyLpSh4u49K_V83orclEkZAKzbCM8wtwjwz94Fdv1CKvGWu0tEsfjcG10pgc12FZJInyALE9LPPxQRgqs0jixAlzgV1WaT88A2-aWtna_lHms3K1JSDvbHEkAWTLQVWf2klS6hVX7xzvuZKe3a0SJwhrxqaWR-GKtDQmAZ264b3s3F63mY2_nalrhvX5ht2FmDqQ-_SMEg2l81RXnr_eS2TDznhY9pdEvLDrtb8Cy437jC-j5eif6_RcQ_k46__7Uzp-Q9T-3fdBowFXFhm0I0ssTdhzZKKz0d9j_gPINcY-Q8vIg03rLZofcwLo_UmCzAbTP2nL4cWx2GmqRD8pUUOLQ4Pe3Fo7ueBq_YTmZ1QwGbupcMHZBpKOsvof5Ohvlkoi-bu_hAxcep6YKLEBxs1diTulfT8yP0dk1qDzfANJjsnyvbKONdXstnQV2hcyPJBtwBKlBBlY8fxRyqNMAdasI8EweRGz9sneE_gwITj9XKb3eOyIpKc9lF5A4QNwZoKWxTC14buD09ls7Q128rgdggZtP5IZ8oyY4_yT6pUqLmcr8MI-Bw2E4cMo9L1jk3B8zwQO6XTMYOFHpVfn4F7rpo1nGjgumu97J8UarUpUv_niN_HxXwDF1oB0_K8DSK7lNSdg2E9kPRV1Wc4CMT5_C0zQmJcospMBYpRtnJ1ssYzljzYD3bzdCKO2ou4b_MGhng3OPd8EB8RKvnt5EdIPKgbq_QykN-Gqn-aqhmZ0aD7983LGUdGocFW8GNW1HZA4yrTAjnKj7sRMfbPaadqkmaTdYy0GiGrwx_4ifWhtiuKKelvqTDOLSoP1z6DH4lY9GRgWdlZXBl7Hxqz_c-lYzIzVm00?></g></svg>