<svg xmlns="http://www.w3.org/2000/svg" width="1100" height="700" viewBox="0 0 1100 700">
<defs>
  <marker id="arrow" viewBox="0 0 10 10" refX="9" refY="5" markerWidth="8" markerHeight="8" orient="auto-start-reverse"><path d="M 0 0 L 10 5 L 0 10 z" fill="#374151"/></marker>
  <filter id="shadow" x="-20%" y="-20%" width="140%" height="140%"><feDropShadow dx="0" dy="3" stdDeviation="3" flood-color="#000000" flood-opacity="0.18"/></filter>
</defs>
<rect width="100%" height="100%" fill="#fbfbfd"/>
<text x="550" y="42" font-family="Arial, DejaVu Sans, sans-serif" font-size="26" font-weight="700" text-anchor="middle" fill="#111827">Sequence — Назначение интервью и обновление статуса</text>
<rect x="30" y="90" width="140" height="48" rx="12" fill="#eff6ff" stroke="#2563eb" stroke-width="2" filter="url(#shadow)"/><text x="100.0" y="120.5" font-family="Arial, DejaVu Sans, sans-serif" font-size="14" text-anchor="middle" fill="#111827">Актор</text><line x1="100" y1="138" x2="100" y2="610" stroke="#9ca3af" stroke-width="2" stroke-dasharray="6,6"/><rect x="240" y="90" width="140" height="48" rx="12" fill="#eff6ff" stroke="#2563eb" stroke-width="2" filter="url(#shadow)"/><text x="310.0" y="120.5" font-family="Arial, DejaVu Sans, sans-serif" font-size="14" text-anchor="middle" fill="#111827">Frontend</text><line x1="310" y1="138" x2="310" y2="610" stroke="#9ca3af" stroke-width="2" stroke-dasharray="6,6"/><rect x="450" y="90" width="140" height="48" rx="12" fill="#eff6ff" stroke="#2563eb" stroke-width="2" filter="url(#shadow)"/><text x="520.0" y="120.5" font-family="Arial, DejaVu Sans, sans-serif" font-size="14" text-anchor="middle" fill="#111827">Backend API</text><line x1="520" y1="138" x2="520" y2="610" stroke="#9ca3af" stroke-width="2" stroke-dasharray="6,6"/><rect x="660" y="90" width="140" height="48" rx="12" fill="#eff6ff" stroke="#2563eb" stroke-width="2" filter="url(#shadow)"/><text x="730.0" y="120.5" font-family="Arial, DejaVu Sans, sans-serif" font-size="14" text-anchor="middle" fill="#111827">База данных</text><line x1="730" y1="138" x2="730" y2="610" stroke="#9ca3af" stroke-width="2" stroke-dasharray="6,6"/><rect x="870" y="90" width="140" height="48" rx="12" fill="#eff6ff" stroke="#2563eb" stroke-width="2" filter="url(#shadow)"/><text x="940.0" y="111.0" font-family="Arial, DejaVu Sans, sans-serif" font-size="14" text-anchor="middle" fill="#111827">Сервис</text><text x="940.0" y="130.0" font-family="Arial, DejaVu Sans, sans-serif" font-size="14" text-anchor="middle" fill="#111827">уведомлений</text><line x1="940" y1="138" x2="940" y2="610" stroke="#9ca3af" stroke-width="2" stroke-dasharray="6,6"/><line x1="100" y1="180" x2="310" y2="180" stroke="#374151" stroke-width="2" marker-end="url(#arrow)"/><text x="205.0" y="172.0" font-family="Arial, DejaVu Sans, sans-serif" font-size="13" text-anchor="middle" fill="#374151">действие</text><line x1="310" y1="238" x2="520" y2="238" stroke="#374151" stroke-width="2" marker-end="url(#arrow)"/><text x="415.0" y="230.0" font-family="Arial, DejaVu Sans, sans-serif" font-size="13" text-anchor="middle" fill="#374151">REST-запрос</text><line x1="520" y1="296" x2="730" y2="296" stroke="#374151" stroke-width="2" marker-end="url(#arrow)"/><text x="625.0" y="288.0" font-family="Arial, DejaVu Sans, sans-serif" font-size="13" text-anchor="middle" fill="#374151">SQL/чтение</text><line x1="730" y1="354" x2="520" y2="354" stroke="#374151" stroke-width="2" marker-end="url(#arrow)"/><text x="625.0" y="346.0" font-family="Arial, DejaVu Sans, sans-serif" font-size="13" text-anchor="middle" fill="#374151">результат</text><line x1="520" y1="412" x2="940" y2="412" stroke="#374151" stroke-width="2" marker-end="url(#arrow)"/><text x="730.0" y="404.0" font-family="Arial, DejaVu Sans, sans-serif" font-size="13" text-anchor="middle" fill="#374151">событие</text><line x1="520" y1="470" x2="310" y2="470" stroke="#374151" stroke-width="2" marker-end="url(#arrow)"/><text x="415.0" y="462.0" font-family="Arial, DejaVu Sans, sans-serif" font-size="13" text-anchor="middle" fill="#374151">ответ</text><line x1="310" y1="528" x2="100" y2="528" stroke="#374151" stroke-width="2" marker-end="url(#arrow)"/><text x="205.0" y="520.0" font-family="Arial, DejaVu Sans, sans-serif" font-size="13" text-anchor="middle" fill="#374151">результат на экране</text>
</svg>