<svg xmlns="http://www.w3.org/2000/svg" width="1100" height="700" viewBox="0 0 1100 700">
<defs>
  <marker id="arrow" viewBox="0 0 10 10" refX="9" refY="5" markerWidth="8" markerHeight="8" orient="auto-start-reverse"><path d="M 0 0 L 10 5 L 0 10 z" fill="#374151"/></marker>
  <filter id="shadow" x="-20%" y="-20%" width="140%" height="140%"><feDropShadow dx="0" dy="3" stdDeviation="3" flood-color="#000000" flood-opacity="0.18"/></filter>
</defs>
<rect width="100%" height="100%" fill="#fbfbfd"/>
<text x="550" y="42" font-family="Arial, DejaVu Sans, sans-serif" font-size="26" font-weight="700" text-anchor="middle" fill="#111827">Use Case — Публикация вакансии работодателем</text>
<circle cx="95" cy="175" r="18" fill="#fff" stroke="#111827" stroke-width="2"/>
<line x1="95" y1="193" x2="95" y2="253" stroke="#111827" stroke-width="2"/>
<line x1="60" y1="217" x2="130" y2="217" stroke="#111827" stroke-width="2"/>
<line x1="95" y1="253" x2="65" y2="295" stroke="#111827" stroke-width="2"/>
<line x1="95" y1="253" x2="125" y2="295" stroke="#111827" stroke-width="2"/>
<text x="95" y="325" font-family="Arial, DejaVu Sans, sans-serif" font-size="16" text-anchor="middle" fill="#111827">Пользователь</text><circle cx="1000" cy="190" r="18" fill="#fff" stroke="#111827" stroke-width="2"/>
<line x1="1000" y1="208" x2="1000" y2="268" stroke="#111827" stroke-width="2"/>
<line x1="965" y1="232" x2="1035" y2="232" stroke="#111827" stroke-width="2"/>
<line x1="1000" y1="268" x2="970" y2="310" stroke="#111827" stroke-width="2"/>
<line x1="1000" y1="268" x2="1030" y2="310" stroke="#111827" stroke-width="2"/>
<text x="1000" y="340" font-family="Arial, DejaVu Sans, sans-serif" font-size="16" text-anchor="middle" fill="#111827">Модератор</text><rect x="275" y="105" width="550" height="430" rx="12" fill="#f8fafc" stroke="#64748b" stroke-width="2" filter="url(#shadow)"/><text x="550.0" y="326.5" font-family="Arial, DejaVu Sans, sans-serif" font-size="16" text-anchor="middle" fill="#111827">Граница системы: маркетплейс вакансий</text><ellipse cx="475.0" cy="210.0" rx="90.0" ry="40.0" fill="#eff6ff" stroke="#2563eb" stroke-width="2" filter="url(#shadow)"/><text x="475.0" y="216.0" font-family="Arial, DejaVu Sans, sans-serif" font-size="15" text-anchor="middle" fill="#111827">Основной сценарий</text><ellipse cx="675.0" cy="210.0" rx="90.0" ry="40.0" fill="#eff6ff" stroke="#2563eb" stroke-width="2" filter="url(#shadow)"/><text x="675.0" y="216.0" font-family="Arial, DejaVu Sans, sans-serif" font-size="15" text-anchor="middle" fill="#111827">Проверить права</text><ellipse cx="475.0" cy="350.0" rx="90.0" ry="40.0" fill="#eff6ff" stroke="#2563eb" stroke-width="2" filter="url(#shadow)"/><text x="475.0" y="356.0" font-family="Arial, DejaVu Sans, sans-serif" font-size="15" text-anchor="middle" fill="#111827">Записать аудит</text><ellipse cx="675.0" cy="350.0" rx="90.0" ry="40.0" fill="#eff6ff" stroke="#2563eb" stroke-width="2" filter="url(#shadow)"/><text x="675.0" y="347.0" font-family="Arial, DejaVu Sans, sans-serif" font-size="15" text-anchor="middle" fill="#111827">Отправить</text><text x="675.0" y="365.0" font-family="Arial, DejaVu Sans, sans-serif" font-size="15" text-anchor="middle" fill="#111827">уведомление</text><line x1="160" y1="255" x2="385" y2="210" stroke="#374151" stroke-width="2" marker-end="url(#arrow)"/><text x="272.5" y="224.5" font-family="Arial, DejaVu Sans, sans-serif" font-size="13" text-anchor="middle" fill="#374151">инициирует</text><line x1="825" y1="255" x2="910" y2="255" stroke="#374151" stroke-width="2" marker-end="url(#arrow)"/><text x="867.5" y="247.0" font-family="Arial, DejaVu Sans, sans-serif" font-size="13" text-anchor="middle" fill="#374151">контроль</text><line x1="475" y1="250" x2="600" y2="210" stroke="#374151" stroke-width="2" marker-end="url(#arrow)"/><text x="537.5" y="222.0" font-family="Arial, DejaVu Sans, sans-serif" font-size="13" text-anchor="middle" fill="#374151">include</text><line x1="475" y1="350" x2="600" y2="350" stroke="#374151" stroke-width="2" marker-end="url(#arrow)"/><text x="537.5" y="342.0" font-family="Arial, DejaVu Sans, sans-serif" font-size="13" text-anchor="middle" fill="#374151">include</text><line x1="475" y1="250" x2="475" y2="310" stroke="#374151" stroke-width="2" marker-end="url(#arrow)"/><text x="475.0" y="272.0" font-family="Arial, DejaVu Sans, sans-serif" font-size="13" text-anchor="middle" fill="#374151">include</text>
</svg>