<svg xmlns="http://www.w3.org/2000/svg" width="1100" height="560" viewBox="0 0 1100 560">
<defs>
  <marker id="arrow" viewBox="0 0 10 10" refX="9" refY="5" markerWidth="8" markerHeight="8" orient="auto-start-reverse"><path d="M 0 0 L 10 5 L 0 10 z" fill="#374151"/></marker>
  <filter id="shadow" x="-20%" y="-20%" width="140%" height="140%"><feDropShadow dx="0" dy="3" stdDeviation="3" flood-color="#000000" flood-opacity="0.18"/></filter>
</defs>
<rect width="100%" height="100%" fill="#fbfbfd"/>
<text x="550" y="42" font-family="Arial, DejaVu Sans, sans-serif" font-size="26" font-weight="700" text-anchor="middle" fill="#111827">State Diagram — Рекомендация</text>
<circle cx="55" cy="290" r="15" fill="#111827"/><line x1="70" y1="290" x2="25" y2="290" stroke="#374151" stroke-width="2" marker-end="url(#arrow)"/><rect x="25" y="250" width="160" height="80" rx="18" fill="#f0f9ff" stroke="#0284c7" stroke-width="2" filter="url(#shadow)"/><text x="105.0" y="296.5" font-family="Arial, DejaVu Sans, sans-serif" font-size="16" text-anchor="middle" fill="#111827">Черновик</text><line x1="185" y1="290" x2="230" y2="290" stroke="#374151" stroke-width="2" marker-end="url(#arrow)"/><rect x="230" y="250" width="160" height="80" rx="18" fill="#f0f9ff" stroke="#0284c7" stroke-width="2" filter="url(#shadow)"/><text x="310.0" y="296.5" font-family="Arial, DejaVu Sans, sans-serif" font-size="16" text-anchor="middle" fill="#111827">На проверке</text><line x1="390" y1="290" x2="440" y2="290" stroke="#374151" stroke-width="2" marker-end="url(#arrow)"/><rect x="440" y="250" width="160" height="80" rx="18" fill="#f0f9ff" stroke="#0284c7" stroke-width="2" filter="url(#shadow)"/><text x="520.0" y="296.5" font-family="Arial, DejaVu Sans, sans-serif" font-size="16" text-anchor="middle" fill="#111827">Активно</text><line x1="600" y1="290" x2="650" y2="290" stroke="#374151" stroke-width="2" marker-end="url(#arrow)"/><rect x="650" y="250" width="160" height="80" rx="18" fill="#f0f9ff" stroke="#0284c7" stroke-width="2" filter="url(#shadow)"/><text x="730.0" y="296.5" font-family="Arial, DejaVu Sans, sans-serif" font-size="16" text-anchor="middle" fill="#111827">В работе</text><line x1="810" y1="290" x2="860" y2="290" stroke="#374151" stroke-width="2" marker-end="url(#arrow)"/><rect x="860" y="250" width="160" height="80" rx="18" fill="#f0f9ff" stroke="#0284c7" stroke-width="2" filter="url(#shadow)"/><text x="940.0" y="296.5" font-family="Arial, DejaVu Sans, sans-serif" font-size="16" text-anchor="middle" fill="#111827">Завершено</text><line x1="1020" y1="290" x2="1040" y2="290" stroke="#374151" stroke-width="2" marker-end="url(#arrow)"/><circle cx="1060" cy="290" r="18" fill="#fff" stroke="#111827" stroke-width="3"/><circle cx="1060" cy="290" r="11" fill="#111827"/>
</svg>