<svg xmlns="http://www.w3.org/2000/svg" width="1100" height="760" viewBox="0 0 1100 760">
<defs>
  <marker id="arrow" viewBox="0 0 10 10" refX="9" refY="5" markerWidth="8" markerHeight="8" orient="auto-start-reverse"><path d="M 0 0 L 10 5 L 0 10 z" fill="#374151"/></marker>
  <filter id="shadow" x="-20%" y="-20%" width="140%" height="140%"><feDropShadow dx="0" dy="3" stdDeviation="3" flood-color="#000000" flood-opacity="0.18"/></filter>
</defs>
<rect width="100%" height="100%" fill="#fbfbfd"/>
<text x="550" y="42" font-family="Arial, DejaVu Sans, sans-serif" font-size="26" font-weight="700" text-anchor="middle" fill="#111827">Activity — Отклик студента на вакансию</text>
<circle cx="550" cy="95" r="16" fill="#111827"/><line x1="550" y1="111" x2="550" y2="140" stroke="#374151" stroke-width="2" marker-end="url(#arrow)"/><rect x="395" y="140" width="310" height="62" rx="12" fill="#ecfdf5" stroke="#16a34a" stroke-width="2" filter="url(#shadow)"/><text x="550.0" y="177.5" font-family="Arial, DejaVu Sans, sans-serif" font-size="15" text-anchor="middle" fill="#111827">Открыть раздел системы</text><line x1="550" y1="202" x2="550" y2="228" stroke="#374151" stroke-width="2" marker-end="url(#arrow)"/><rect x="395" y="228" width="310" height="62" rx="12" fill="#ecfdf5" stroke="#16a34a" stroke-width="2" filter="url(#shadow)"/><text x="550.0" y="265.5" font-family="Arial, DejaVu Sans, sans-serif" font-size="15" text-anchor="middle" fill="#111827">Проверить авторизацию</text><line x1="550" y1="290" x2="550" y2="276" stroke="#374151" stroke-width="2" marker-end="url(#arrow)"/><polygon points="550,268.5 660.0,316 550,363.5 440.0,316" fill="#fff7ed" stroke="#f97316" stroke-width="2" filter="url(#shadow)"/><text x="550" y="312" font-family="Arial, DejaVu Sans, sans-serif" font-size="14" text-anchor="middle" fill="#111827">Данные</text><text x="550" y="328" font-family="Arial, DejaVu Sans, sans-serif" font-size="14" text-anchor="middle" fill="#111827">корректны?</text><line x1="660" y1="316" x2="810" y2="316" stroke="#374151" stroke-width="2" marker-end="url(#arrow)"/><text x="735.0" y="308.0" font-family="Arial, DejaVu Sans, sans-serif" font-size="13" text-anchor="middle" fill="#374151">нет</text><rect x="810" y="281" width="210" height="70" rx="12" fill="#fff1f2" stroke="#e11d48" stroke-width="2" filter="url(#shadow)"/><text x="915.0" y="322.5" font-family="Arial, DejaVu Sans, sans-serif" font-size="14" text-anchor="middle" fill="#111827">Показать ошибку</text><line x1="550" y1="364" x2="550" y2="411" stroke="#374151" stroke-width="2" marker-end="url(#arrow)"/><rect x="395" y="411" width="310" height="62" rx="12" fill="#ecfdf5" stroke="#16a34a" stroke-width="2" filter="url(#shadow)"/><text x="550.0" y="448.5" font-family="Arial, DejaVu Sans, sans-serif" font-size="15" text-anchor="middle" fill="#111827">Ввести и проверить данные</text><line x1="550" y1="473" x2="550" y2="499" stroke="#374151" stroke-width="2" marker-end="url(#arrow)"/><rect x="395" y="499" width="310" height="62" rx="12" fill="#ecfdf5" stroke="#16a34a" stroke-width="2" filter="url(#shadow)"/><text x="550.0" y="536.5" font-family="Arial, DejaVu Sans, sans-serif" font-size="15" text-anchor="middle" fill="#111827">Выполнить бизнес-операцию</text><line x1="550" y1="561" x2="550" y2="587" stroke="#374151" stroke-width="2" marker-end="url(#arrow)"/><rect x="395" y="587" width="310" height="62" rx="12" fill="#ecfdf5" stroke="#16a34a" stroke-width="2" filter="url(#shadow)"/><text x="550.0" y="624.5" font-family="Arial, DejaVu Sans, sans-serif" font-size="15" text-anchor="middle" fill="#111827">Сохранить результат</text><line x1="550" y1="649" x2="550" y2="675" stroke="#374151" stroke-width="2" marker-end="url(#arrow)"/><rect x="395" y="675" width="310" height="62" rx="12" fill="#ecfdf5" stroke="#16a34a" stroke-width="2" filter="url(#shadow)"/><text x="550.0" y="712.5" font-family="Arial, DejaVu Sans, sans-serif" font-size="15" text-anchor="middle" fill="#111827">Записать аудит и уведомить</text><line x1="550" y1="737" x2="550" y2="763" stroke="#374151" stroke-width="2" marker-end="url(#arrow)"/><circle cx="550" cy="781" r="18" fill="#fff" stroke="#111827" stroke-width="3"/><circle cx="550" cy="781" r="11" fill="#111827"/>
</svg>