<svg xmlns="http://www.w3.org/2000/svg" xmlns:xlink="http://www.w3.org/1999/xlink" contentStyleType="text/css" data-diagram-type="DESCRIPTION" height="2445px" preserveAspectRatio="none" style="width:1019px;height:2445px;background:#FFFFFF;" version="1.1" viewBox="0 0 1019 2445" width="1019px" zoomAndPan="magnify"><?plantuml 1.2026.4beta2?><defs/><g><g class="title" data-source-line="1"><text fill="#000000" font-family="sans-serif" font-size="14" font-weight="700" lengthAdjust="spacing" textLength="629.5625" x="191.6737" y="22.9951">Use Case Diagram &#8212; &#1052;&#1072;&#1088;&#1082;&#1077;&#1090;&#1087;&#1083;&#1077;&#1081;&#1089; &#1074;&#1072;&#1082;&#1072;&#1085;&#1089;&#1080;&#1081; &#1080; &#1089;&#1090;&#1072;&#1078;&#1080;&#1088;&#1086;&#1074;&#1086;&#1082; (&#1089;&#1080;&#1089;&#1090;&#1077;&#1084;&#1072; &#1094;&#1077;&#1083;&#1080;&#1082;&#1086;&#1084;)</text></g><!--cluster ??????????? ????????--><g class="cluster" data-qualified-name="........... ........" data-source-line="15" id="ent0009"><rect fill="none" height="2046" rx="2.5" ry="2.5" style="stroke:#181818;stroke-width:1;" width="773.66" x="232.25" y="276.6069"/><text fill="#000000" font-family="sans-serif" font-size="14" font-weight="700" lengthAdjust="spacing" textLength="187.7627" x="525.1987" y="291.602">&#1052;&#1072;&#1088;&#1082;&#1077;&#1090;&#1087;&#1083;&#1077;&#1081;&#1089; &#1074;&#1072;&#1082;&#1072;&#1085;&#1089;&#1080;&#1081;</text></g><!--cluster ??????????????--><g class="cluster" data-qualified-name="........... ......................." data-source-line="17" id="ent0010"><path d="M329.13,2134.6069 L467.1222,2134.6069 A3.75,3.75 0 0 1 469.6222,2137.1069 L476.6222,2156.9038 L539.39,2156.9038 A2.5,2.5 0 0 1 541.89,2159.4038 L541.89,2296.1069 A2.5,2.5 0 0 1 539.39,2298.6069 L329.13,2298.6069 A2.5,2.5 0 0 1 326.63,2296.1069 L326.63,2137.1069 A2.5,2.5 0 0 1 329.13,2134.6069" fill="none" style="stroke:#000000;stroke-width:1.5;"/><line style="stroke:#000000;stroke-width:1.5;" x1="326.63" x2="476.6222" y1="2156.9038" y2="2156.9038"/><text fill="#000000" font-family="sans-serif" font-size="14" font-weight="700" lengthAdjust="spacing" textLength="136.9922" x="330.63" y="2149.602">&#1040;&#1091;&#1090;&#1077;&#1085;&#1090;&#1080;&#1092;&#1080;&#1082;&#1072;&#1094;&#1080;&#1103;</text></g><!--cluster ????????--><g class="cluster" data-qualified-name="........... ................." data-source-line="22" id="ent0013"><path d="M294.19,1501.6069 L371.8482,1501.6069 A3.75,3.75 0 0 1 374.3482,1504.1069 L381.3482,1523.9038 L574.33,1523.9038 A2.5,2.5 0 0 1 576.83,1526.4038 L576.83,2108.1069 A2.5,2.5 0 0 1 574.33,2110.6069 L294.19,2110.6069 A2.5,2.5 0 0 1 291.69,2108.1069 L291.69,1504.1069 A2.5,2.5 0 0 1 294.19,1501.6069" fill="none" style="stroke:#000000;stroke-width:1.5;"/><line style="stroke:#000000;stroke-width:1.5;" x1="291.69" x2="381.3482" y1="1523.9038" y2="1523.9038"/><text fill="#000000" font-family="sans-serif" font-size="14" font-weight="700" lengthAdjust="spacing" textLength="76.6582" x="295.69" y="1516.602">&#1042;&#1072;&#1082;&#1072;&#1085;&#1089;&#1080;&#1080;</text></g><!--cluster ????????????--><g class="cluster" data-qualified-name="........... ....................." data-source-line="32" id="ent0021"><path d="M283.07,1266.6069 L404.3073,1266.6069 A3.75,3.75 0 0 1 406.8073,1269.1069 L413.8073,1288.9038 L585.44,1288.9038 A2.5,2.5 0 0 1 587.94,1291.4038 L587.94,1475.1069 A2.5,2.5 0 0 1 585.44,1477.6069 L283.07,1477.6069 A2.5,2.5 0 0 1 280.57,1475.1069 L280.57,1269.1069 A2.5,2.5 0 0 1 283.07,1266.6069" fill="none" style="stroke:#000000;stroke-width:1.5;"/><line style="stroke:#000000;stroke-width:1.5;" x1="280.57" x2="413.8073" y1="1288.9038" y2="1288.9038"/><text fill="#000000" font-family="sans-serif" font-size="14" font-weight="700" lengthAdjust="spacing" textLength="120.2373" x="284.57" y="1281.602">&#1056;&#1077;&#1082;&#1086;&#1084;&#1077;&#1085;&#1076;&#1072;&#1094;&#1080;&#1080;</text></g><!--cluster ???????--><g class="cluster" data-qualified-name="........... ................" data-source-line="37" id="ent0024"><path d="M298.14,982.6069 L368.0326,982.6069 A3.75,3.75 0 0 1 370.5326,985.1069 L377.5326,1004.9038 L570.37,1004.9038 A2.5,2.5 0 0 1 572.87,1007.4038 L572.87,1240.1069 A2.5,2.5 0 0 1 570.37,1242.6069 L298.14,1242.6069 A2.5,2.5 0 0 1 295.64,1240.1069 L295.64,985.1069 A2.5,2.5 0 0 1 298.14,982.6069" fill="none" style="stroke:#000000;stroke-width:1.5;"/><line style="stroke:#000000;stroke-width:1.5;" x1="295.64" x2="377.5326" y1="1004.9038" y2="1004.9038"/><text fill="#000000" font-family="sans-serif" font-size="14" font-weight="700" lengthAdjust="spacing" textLength="68.8926" x="299.64" y="997.602">&#1054;&#1090;&#1082;&#1083;&#1080;&#1082;&#1080;</text></g><!--cluster ????????--><g class="cluster" data-qualified-name="........... ................." data-source-line="43" id="ent0028"><path d="M330.33,319.6069 L411.6728,319.6069 A3.75,3.75 0 0 1 414.1728,322.1069 L421.1728,341.9037 L979.41,341.9037 A2.5,2.5 0 0 1 981.91,344.4037 L981.91,424.1069 A2.5,2.5 0 0 1 979.41,426.6069 L330.33,426.6069 A2.5,2.5 0 0 1 327.83,424.1069 L327.83,322.1069 A2.5,2.5 0 0 1 330.33,319.6069" fill="none" style="stroke:#000000;stroke-width:1.5;"/><line style="stroke:#000000;stroke-width:1.5;" x1="327.83" x2="421.1728" y1="341.9037" y2="341.9037"/><text fill="#000000" font-family="sans-serif" font-size="14" font-weight="700" lengthAdjust="spacing" textLength="80.3428" x="331.83" y="334.602">&#1048;&#1085;&#1090;&#1077;&#1088;&#1074;&#1100;&#1102;</text></g><!--cluster ??????????? ? ?????--><g class="cluster" data-qualified-name="........... .................... . ....." data-source-line="48" id="ent0031"><path d="M311.76,694.6069 L489.8586,694.6069 A3.75,3.75 0 0 1 492.3586,697.1069 L499.3586,716.9038 L556.75,716.9038 A2.5,2.5 0 0 1 559.25,719.4038 L559.25,956.1069 A2.5,2.5 0 0 1 556.75,958.6069 L311.76,958.6069 A2.5,2.5 0 0 1 309.26,956.1069 L309.26,697.1069 A2.5,2.5 0 0 1 311.76,694.6069" fill="none" style="stroke:#000000;stroke-width:1.5;"/><line style="stroke:#000000;stroke-width:1.5;" x1="309.26" x2="499.3586" y1="716.9038" y2="716.9038"/><text fill="#000000" font-family="sans-serif" font-size="14" font-weight="700" lengthAdjust="spacing" textLength="177.0986" x="313.26" y="709.602">&#1059;&#1074;&#1077;&#1076;&#1086;&#1084;&#1083;&#1077;&#1085;&#1080;&#1103; &#1080; &#1072;&#1091;&#1076;&#1080;&#1090;</text></g><!--cluster ????????? ? ??????--><g class="cluster" data-qualified-name="........... .................. . ......" data-source-line="53" id="ent0034"><path d="M258.75,450.6069 L423.8125,450.6069 A3.75,3.75 0 0 1 426.3125,453.1069 L433.3125,472.9038 L609.76,472.9038 A2.5,2.5 0 0 1 612.26,475.4038 L612.26,668.1069 A2.5,2.5 0 0 1 609.76,670.6069 L258.75,670.6069 A2.5,2.5 0 0 1 256.25,668.1069 L256.25,453.1069 A2.5,2.5 0 0 1 258.75,450.6069" fill="none" style="stroke:#000000;stroke-width:1.5;"/><line style="stroke:#000000;stroke-width:1.5;" x1="256.25" x2="433.3125" y1="472.9038" y2="472.9038"/><text fill="#000000" font-family="sans-serif" font-size="14" font-weight="700" lengthAdjust="spacing" textLength="164.0625" x="260.25" y="465.602">&#1040;&#1085;&#1072;&#1083;&#1080;&#1090;&#1080;&#1082;&#1072; &#1080; &#1086;&#1090;&#1095;&#1105;&#1090;&#1099;</text></g><!--entity UC_LOGIN--><g class="entity" data-qualified-name="........... ........................UC_LOGIN" data-source-line="18" id="ent0011"><ellipse cx="434.2572" cy="2187.6083" fill="#F1F1F1" rx="77.2072" ry="17.8414" style="stroke:#181818;stroke-width:1.5;"/><text fill="#000000" font-family="sans-serif" font-size="14" lengthAdjust="spacing" textLength="124.0449" x="372.2348" y="2192.2568">&#1042;&#1086;&#1081;&#1090;&#1080; &#1095;&#1077;&#1088;&#1077;&#1079; SSO</text></g><!--entity UC_PROFILE--><g class="entity" data-qualified-name="........... ........................UC_PROFILE" data-source-line="19" id="ent0012"><ellipse cx="434.2616" cy="2261.6032" fill="#F1F1F1" rx="91.6316" ry="20.7263" style="stroke:#181818;stroke-width:1.5;"/><text fill="#000000" font-family="sans-serif" font-size="14" lengthAdjust="spacing" textLength="157.4248" x="355.5492" y="2266.2516">&#1059;&#1087;&#1088;&#1072;&#1074;&#1083;&#1103;&#1090;&#1100; &#1087;&#1088;&#1086;&#1092;&#1080;&#1083;&#1077;&#1084;</text></g><!--entity UC_CREATE_VAC--><g class="entity" data-qualified-name="........... ..................UC_CREATE_VAC" data-source-line="23" id="ent0014"><ellipse cx="434.2558" cy="1735.604" fill="#F1F1F1" rx="82.4858" ry="18.8972" style="stroke:#181818;stroke-width:1.5;"/><text fill="#000000" font-family="sans-serif" font-size="14" lengthAdjust="spacing" textLength="136.5" x="366.0058" y="1740.2525">&#1057;&#1086;&#1079;&#1076;&#1072;&#1090;&#1100; &#1074;&#1072;&#1082;&#1072;&#1085;&#1089;&#1080;&#1102;</text></g><!--entity UC_EDIT_VAC--><g class="entity" data-qualified-name="........... ..................UC_EDIT_VAC" data-source-line="24" id="ent0015"><ellipse cx="434.2608" cy="1559.605" fill="#F1F1F1" rx="105.3408" ry="23.4682" style="stroke:#181818;stroke-width:1.5;"/><text fill="#000000" font-family="sans-serif" font-size="14" lengthAdjust="spacing" textLength="187.7627" x="340.3794" y="1564.2535">&#1056;&#1077;&#1076;&#1072;&#1082;&#1090;&#1080;&#1088;&#1086;&#1074;&#1072;&#1090;&#1100; &#1074;&#1072;&#1082;&#1072;&#1085;&#1089;&#1080;&#1102;</text></g><!--entity UC_SUBMIT_MOD--><g class="entity" data-qualified-name="........... ..................UC_SUBMIT_MOD" data-source-line="25" id="ent0016"><ellipse cx="434.2591" cy="1641.6067" fill="#F1F1F1" rx="107.0491" ry="23.8098" style="stroke:#181818;stroke-width:1.5;"/><text fill="#000000" font-family="sans-serif" font-size="14" lengthAdjust="spacing" textLength="191.4814" x="338.5184" y="1646.2551">&#1054;&#1090;&#1087;&#1088;&#1072;&#1074;&#1080;&#1090;&#1100; &#1085;&#1072; &#1084;&#1086;&#1076;&#1077;&#1088;&#1072;&#1094;&#1080;&#1102;</text></g><!--entity UC_APPROVE--><g class="entity" data-qualified-name="........... ..................UC_APPROVE" data-source-line="26" id="ent0017"><ellipse cx="434.2633" cy="1997.6115" fill="#F1F1F1" rx="87.6233" ry="19.9247" style="stroke:#181818;stroke-width:1.5;"/><text fill="#000000" font-family="sans-serif" font-size="14" lengthAdjust="spacing" textLength="148.3398" x="360.0934" y="2002.26">&#1054;&#1076;&#1086;&#1073;&#1088;&#1080;&#1090;&#1100; &#1074;&#1072;&#1082;&#1072;&#1085;&#1089;&#1080;&#1102;</text></g><!--entity UC_REJECT--><g class="entity" data-qualified-name="........... ..................UC_REJECT" data-source-line="27" id="ent0018"><ellipse cx="434.2642" cy="2073.6037" fill="#F1F1F1" rx="90.9342" ry="20.5868" style="stroke:#181818;stroke-width:1.5;"/><text fill="#000000" font-family="sans-serif" font-size="14" lengthAdjust="spacing" textLength="155.8525" x="356.338" y="2078.2522">&#1054;&#1090;&#1082;&#1083;&#1086;&#1085;&#1080;&#1090;&#1100; &#1074;&#1072;&#1082;&#1072;&#1085;&#1089;&#1080;&#1102;</text></g><!--entity UC_PUBLISH--><g class="entity" data-qualified-name="........... ..................UC_PUBLISH" data-source-line="28" id="ent0019"><ellipse cx="434.2616" cy="1903.6072" fill="#F1F1F1" rx="102.4516" ry="22.8903" style="stroke:#181818;stroke-width:1.5;"/><text fill="#000000" font-family="sans-serif" font-size="14" lengthAdjust="spacing" textLength="181.4463" x="343.5384" y="1908.2556">&#1054;&#1087;&#1091;&#1073;&#1083;&#1080;&#1082;&#1086;&#1074;&#1072;&#1090;&#1100; &#1074;&#1072;&#1082;&#1072;&#1085;&#1089;&#1080;&#1102;</text></g><!--entity UC_CATALOG--><g class="entity" data-qualified-name="........... ..................UC_CATALOG" data-source-line="29" id="ent0020"><ellipse cx="434.2585" cy="1817.6106" fill="#F1F1F1" rx="126.5685" ry="27.7137" style="stroke:#181818;stroke-width:1.5;"/><text fill="#000000" font-family="sans-serif" font-size="14" lengthAdjust="spacing" textLength="233.3174" x="317.5998" y="1822.259">&#1055;&#1088;&#1086;&#1089;&#1084;&#1086;&#1090;&#1088;&#1077;&#1090;&#1100; &#1082;&#1072;&#1090;&#1072;&#1083;&#1086;&#1075; &#1074;&#1072;&#1082;&#1072;&#1085;&#1089;&#1080;&#1081;</text></g><!--entity UC_REC--><g class="entity" data-qualified-name="........... ......................UC_REC" data-source-line="33" id="ent0022"><ellipse cx="434.2555" cy="1431.604" fill="#F1F1F1" rx="137.6855" ry="29.9371" style="stroke:#181818;stroke-width:1.5;"/><text fill="#000000" font-family="sans-serif" font-size="14" lengthAdjust="spacing" textLength="256.751" x="305.88" y="1436.2524">&#1055;&#1086;&#1083;&#1091;&#1095;&#1080;&#1090;&#1100; &#1088;&#1077;&#1082;&#1086;&#1084;&#1077;&#1085;&#1076;&#1072;&#1094;&#1080;&#1080; &#1074;&#1072;&#1082;&#1072;&#1085;&#1089;&#1080;&#1081;</text></g><!--entity UC_CALC--><g class="entity" data-qualified-name="........... ......................UC_CALC" data-source-line="34" id="ent0023"><ellipse cx="434.2604" cy="1325.605" fill="#F1F1F1" rx="110.2404" ry="24.4481" style="stroke:#181818;stroke-width:1.5;"/><text fill="#000000" font-family="sans-serif" font-size="14" lengthAdjust="spacing" textLength="198.3994" x="335.0607" y="1330.2534">&#1056;&#1072;&#1089;&#1089;&#1095;&#1080;&#1090;&#1072;&#1090;&#1100; &#1088;&#1077;&#1083;&#1077;&#1074;&#1072;&#1085;&#1090;&#1085;&#1086;&#1089;&#1090;&#1100;</text></g><!--entity UC_APPLY--><g class="entity" data-qualified-name="........... .................UC_APPLY" data-source-line="38" id="ent0025"><ellipse cx="434.2639" cy="1207.6037" fill="#F1F1F1" rx="82.1339" ry="18.8268" style="stroke:#181818;stroke-width:1.5;"/><text fill="#000000" font-family="sans-serif" font-size="14" lengthAdjust="spacing" textLength="135.6797" x="366.424" y="1212.2521">&#1054;&#1090;&#1087;&#1088;&#1072;&#1074;&#1080;&#1090;&#1100; &#1086;&#1090;&#1082;&#1083;&#1080;&#1082;</text></g><!--entity UC_VIEW_APPS--><g class="entity" data-qualified-name="........... .................UC_VIEW_APPS" data-source-line="39" id="ent0026"><ellipse cx="434.2572" cy="1044.6103" fill="#F1F1F1" rx="122.6172" ry="26.9234" style="stroke:#181818;stroke-width:1.5;"/><text fill="#000000" font-family="sans-serif" font-size="14" lengthAdjust="spacing" textLength="224.9297" x="321.7923" y="1049.2587">&#1055;&#1088;&#1086;&#1089;&#1084;&#1086;&#1090;&#1088;&#1077;&#1090;&#1100; &#1089;&#1087;&#1080;&#1089;&#1086;&#1082; &#1086;&#1090;&#1082;&#1083;&#1080;&#1082;&#1086;&#1074;</text></g><!--entity UC_CHANGE_STATUS--><g class="entity" data-qualified-name="........... .................UC_CHANGE_STATUS" data-source-line="40" id="ent0027"><ellipse cx="434.2583" cy="1130.6025" fill="#F1F1F1" rx="106.1283" ry="23.6257" style="stroke:#181818;stroke-width:1.5;"/><text fill="#000000" font-family="sans-serif" font-size="14" lengthAdjust="spacing" textLength="189.4785" x="339.5191" y="1135.251">&#1048;&#1079;&#1084;&#1077;&#1085;&#1080;&#1090;&#1100; &#1089;&#1090;&#1072;&#1090;&#1091;&#1089; &#1086;&#1090;&#1082;&#1083;&#1080;&#1082;&#1072;</text></g><!--entity UC_SCHEDULE--><g class="entity" data-qualified-name="........... ..................UC_SCHEDULE" data-source-line="44" id="ent0029"><ellipse cx="434.2558" cy="390.602" fill="#F1F1F1" rx="90.4258" ry="20.4852" style="stroke:#181818;stroke-width:1.5;"/><text fill="#000000" font-family="sans-serif" font-size="14" lengthAdjust="spacing" textLength="154.7041" x="356.9037" y="395.2505">&#1053;&#1072;&#1079;&#1085;&#1072;&#1095;&#1080;&#1090;&#1100; &#1080;&#1085;&#1090;&#1077;&#1088;&#1074;&#1100;&#1102;</text></g><!--entity UC_RESCHEDULE--><g class="entity" data-qualified-name="........... ..................UC_RESCHEDULE" data-source-line="45" id="ent0030"><ellipse cx="835.5916" cy="382.6112" fill="#F1F1F1" rx="130.3216" ry="28.4643" style="stroke:#181818;stroke-width:1.5;"/><text fill="#000000" font-family="sans-serif" font-size="14" lengthAdjust="spacing" textLength="241.2539" x="714.9646" y="387.2596">&#1054;&#1090;&#1084;&#1077;&#1085;&#1080;&#1090;&#1100; / &#1087;&#1077;&#1088;&#1077;&#1085;&#1077;&#1089;&#1090;&#1080; &#1080;&#1085;&#1090;&#1077;&#1088;&#1074;&#1100;&#1102;</text></g><!--entity UC_NOTIFY--><g class="entity" data-qualified-name="........... .................... . ......UC_NOTIFY" data-source-line="49" id="ent0032"><ellipse cx="434.2556" cy="920.604" fill="#F1F1F1" rx="98.5856" ry="22.1171" style="stroke:#181818;stroke-width:1.5;"/><text fill="#000000" font-family="sans-serif" font-size="14" lengthAdjust="spacing" textLength="172.9355" x="347.7878" y="925.2524">&#1055;&#1086;&#1083;&#1091;&#1095;&#1080;&#1090;&#1100; &#1091;&#1074;&#1077;&#1076;&#1086;&#1084;&#1083;&#1077;&#1085;&#1080;&#1077;</text></g><!--entity UC_AUDIT--><g class="entity" data-qualified-name="........... .................... . ......UC_AUDIT" data-source-line="50" id="ent0033"><ellipse cx="434.2559" cy="753.6061" fill="#F1F1F1" rx="108.9959" ry="24.1992" style="stroke:#181818;stroke-width:1.5;"/><text fill="#000000" font-family="sans-serif" font-size="14" lengthAdjust="spacing" textLength="195.7061" x="336.4029" y="758.2545">&#1047;&#1072;&#1087;&#1080;&#1089;&#1072;&#1090;&#1100; &#1089;&#1086;&#1073;&#1099;&#1090;&#1080;&#1077; &#1074; &#1072;&#1091;&#1076;&#1080;&#1090;</text></g><!--entity UC_REPORT--><g class="entity" data-qualified-name="........... .................. . .......UC_REPORT" data-source-line="54" id="ent0035"><ellipse cx="434.2575" cy="520.6084" fill="#F1F1F1" rx="162.0075" ry="34.8015" style="stroke:#181818;stroke-width:1.5;"/><text fill="#000000" font-family="sans-serif" font-size="14" lengthAdjust="spacing" textLength="307.3984" x="280.5583" y="525.2568">&#1055;&#1088;&#1086;&#1089;&#1084;&#1086;&#1090;&#1088;&#1077;&#1090;&#1100; &#1086;&#1090;&#1095;&#1105;&#1090;&#1099; &#1087;&#1086; &#1090;&#1088;&#1091;&#1076;&#1086;&#1091;&#1089;&#1090;&#1088;&#1086;&#1081;&#1089;&#1090;&#1074;&#1091;</text></g><!--entity UC_ADMIN--><g class="entity" data-qualified-name="........... .................. . .......UC_ADMIN" data-source-line="55" id="ent0036"><ellipse cx="434.2584" cy="622.6026" fill="#F1F1F1" rx="146.7284" ry="31.7457" style="stroke:#181818;stroke-width:1.5;"/><text fill="#000000" font-family="sans-serif" font-size="14" lengthAdjust="spacing" textLength="275.666" x="296.4254" y="627.251">&#1059;&#1087;&#1088;&#1072;&#1074;&#1083;&#1103;&#1090;&#1100; &#1087;&#1086;&#1083;&#1100;&#1079;&#1086;&#1074;&#1072;&#1090;&#1077;&#1083;&#1103;&#1084;&#1080; &#1080; &#1088;&#1086;&#1083;&#1103;&#1084;&#1080;</text></g><!--entity S--><g class="entity" data-qualified-name="S" data-source-line="7" id="ent0002"><ellipse cx="71.6287" cy="1795.4569" fill="#F1F1F1" rx="16" ry="16" style="stroke:#181818;stroke-width:0.5;"/><path d="M71.6287,1815.4569 C75.6287,1815.4569 78.6287,1815.4569 82.6287,1811.4569 C90.6287,1811.4569 98.6287,1819.4569 98.6287,1827.4569 L98.6287,1831.4569 C98.6287,1835.4569 94.6287,1839.4569 90.6287,1839.4569 L52.6287,1839.4569 C48.6287,1839.4569 44.6287,1835.4569 44.6287,1831.4569 L44.6287,1827.4569 C44.6287,1819.4569 52.6287,1811.4569 60.6287,1811.4569 C64.6287,1815.4569 67.6287,1815.4569 71.6287,1815.4569" fill="#F1F1F1" style="stroke:#181818;stroke-width:0.5;"/><text fill="#000000" font-family="sans-serif" font-size="14" lengthAdjust="spacing" textLength="61.8174" x="40.72" y="1852.952">&#1057;&#1090;&#1091;&#1076;&#1077;&#1085;&#1090;</text></g><!--entity E--><g class="entity" data-qualified-name="E" data-source-line="8" id="ent0003"><ellipse cx="71.624" cy="667.4569" fill="#F1F1F1" rx="16" ry="16" style="stroke:#181818;stroke-width:0.5;"/><path d="M71.624,687.4569 C75.624,687.4569 78.624,687.4569 82.624,683.4569 C90.624,683.4569 98.624,691.4569 98.624,699.4569 L98.624,703.4569 C98.624,707.4569 94.624,711.4569 90.624,711.4569 L52.624,711.4569 C48.624,711.4569 44.624,707.4569 44.624,703.4569 L44.624,699.4569 C44.624,691.4569 52.624,683.4569 60.624,683.4569 C64.624,687.4569 67.624,687.4569 71.624,687.4569" fill="#F1F1F1" style="stroke:#181818;stroke-width:0.5;"/><text fill="#000000" font-family="sans-serif" font-size="14" lengthAdjust="spacing" textLength="103.168" x="20.04" y="724.952">&#1056;&#1072;&#1073;&#1086;&#1090;&#1086;&#1076;&#1072;&#1090;&#1077;&#1083;&#1100;</text></g><!--entity M--><g class="entity" data-qualified-name="M" data-source-line="9" id="ent0004"><ellipse cx="71.6254" cy="2016.4569" fill="#F1F1F1" rx="16" ry="16" style="stroke:#181818;stroke-width:0.5;"/><path d="M71.6254,2036.4569 C75.6254,2036.4569 78.6254,2036.4569 82.6254,2032.4569 C90.6254,2032.4569 98.6254,2040.4569 98.6254,2048.4569 L98.6254,2052.4569 C98.6254,2056.4569 94.6254,2060.4569 90.6254,2060.4569 L52.6254,2060.4569 C48.6254,2060.4569 44.6254,2056.4569 44.6254,2052.4569 L44.6254,2048.4569 C44.6254,2040.4569 52.6254,2032.4569 60.6254,2032.4569 C64.6254,2036.4569 67.6254,2036.4569 71.6254,2036.4569" fill="#F1F1F1" style="stroke:#181818;stroke-width:0.5;"/><text fill="#000000" font-family="sans-serif" font-size="14" lengthAdjust="spacing" textLength="82.0107" x="30.62" y="2073.952">&#1052;&#1086;&#1076;&#1077;&#1088;&#1072;&#1090;&#1086;&#1088;</text></g><!--entity CC--><g class="entity" data-qualified-name="CC" data-source-line="10" id="ent0005"><ellipse cx="71.625" cy="977.4569" fill="#F1F1F1" rx="16" ry="16" style="stroke:#181818;stroke-width:0.5;"/><path d="M71.625,997.4569 C75.625,997.4569 78.625,997.4569 82.625,993.4569 C90.625,993.4569 98.625,1001.4569 98.625,1009.4569 L98.625,1013.4569 C98.625,1017.4569 94.625,1021.4569 90.625,1021.4569 L52.625,1021.4569 C48.625,1021.4569 44.625,1017.4569 44.625,1013.4569 L44.625,1009.4569 C44.625,1001.4569 52.625,993.4569 60.625,993.4569 C64.625,997.4569 67.625,997.4569 71.625,997.4569" fill="#F1F1F1" style="stroke:#181818;stroke-width:0.5;"/><text fill="#000000" font-family="sans-serif" font-size="14" lengthAdjust="spacing" textLength="131.25" x="6" y="1034.952">&#1050;&#1072;&#1088;&#1100;&#1077;&#1088;&#1085;&#1099;&#1081; &#1094;&#1077;&#1085;&#1090;&#1088;</text></g><!--entity A--><g class="entity" data-qualified-name="A" data-source-line="11" id="ent0006"><ellipse cx="71.6274" cy="1485.4569" fill="#F1F1F1" rx="16" ry="16" style="stroke:#181818;stroke-width:0.5;"/><path d="M71.6274,1505.4569 C75.6274,1505.4569 78.6274,1505.4569 82.6274,1501.4569 C90.6274,1501.4569 98.6274,1509.4569 98.6274,1517.4569 L98.6274,1521.4569 C98.6274,1525.4569 94.6274,1529.4569 90.6274,1529.4569 L52.6274,1529.4569 C48.6274,1529.4569 44.6274,1525.4569 44.6274,1521.4569 L44.6274,1517.4569 C44.6274,1509.4569 52.6274,1501.4569 60.6274,1501.4569 C64.6274,1505.4569 67.6274,1505.4569 71.6274,1505.4569" fill="#F1F1F1" style="stroke:#181818;stroke-width:0.5;"/><text fill="#000000" font-family="sans-serif" font-size="14" lengthAdjust="spacing" textLength="116.0947" x="13.58" y="1542.952">&#1040;&#1076;&#1084;&#1080;&#1085;&#1080;&#1089;&#1090;&#1088;&#1072;&#1090;&#1086;&#1088;</text></g><!--entity SSO--><g class="entity" data-qualified-name="SSO" data-source-line="12" id="ent0007"><ellipse cx="434.2581" cy="199.6137" fill="#F1F1F1" rx="16" ry="16" style="stroke:#181818;stroke-width:0.5;"/><path d="M434.2581,219.6137 C438.2581,219.6137 441.2581,219.6137 445.2581,215.6137 C453.2581,215.6137 461.2581,223.6137 461.2581,231.6137 L461.2581,235.6137 C461.2581,239.6137 457.2581,243.6137 453.2581,243.6137 L415.2581,243.6137 C411.2581,243.6137 407.2581,239.6137 407.2581,235.6137 L407.2581,231.6137 C407.2581,223.6137 415.2581,215.6137 423.2581,215.6137 C427.2581,219.6137 430.2581,219.6137 434.2581,219.6137" fill="#F1F1F1" style="stroke:#181818;stroke-width:0.5;"/><text fill="#000000" font-family="sans-serif" font-size="14" lengthAdjust="spacing" textLength="136.0762" x="366.22" y="257.1089">SSO &#1059;&#1085;&#1080;&#1074;&#1077;&#1088;&#1089;&#1080;&#1090;&#1077;&#1090;&#1072;</text><text fill="#000000" font-family="sans-serif" font-size="14" font-style="italic" lengthAdjust="spacing" textLength="75.2295" x="396.6433" y="179.812">&#171;external&#187;</text></g><!--entity NS--><g class="entity" data-qualified-name="NS" data-source-line="13" id="ent0008"><ellipse cx="835.5903" cy="2371.6138" fill="#F1F1F1" rx="16" ry="16" style="stroke:#181818;stroke-width:0.5;"/><path d="M835.5903,2391.6138 C839.5903,2391.6138 842.5903,2391.6138 846.5903,2387.6138 C854.5903,2387.6138 862.5903,2395.6138 862.5903,2403.6138 L862.5903,2407.6138 C862.5903,2411.6138 858.5903,2415.6138 854.5903,2415.6138 L816.5903,2415.6138 C812.5903,2415.6138 808.5903,2411.6138 808.5903,2407.6138 L808.5903,2403.6138 C808.5903,2395.6138 816.5903,2387.6138 824.5903,2387.6138 C828.5903,2391.6138 831.5903,2391.6138 835.5903,2391.6138" fill="#F1F1F1" style="stroke:#181818;stroke-width:0.5;"/><text fill="#000000" font-family="sans-serif" font-size="14" lengthAdjust="spacing" textLength="136.5205" x="767.33" y="2429.1089">Notification Service</text><text fill="#000000" font-family="sans-serif" font-size="14" font-style="italic" lengthAdjust="spacing" textLength="75.2295" x="797.9755" y="2351.812">&#171;external&#187;</text></g><!--link S to UC_LOGIN--><g class="link" data-entity-1="ent0002" data-entity-2="ent0011" data-link-type="dependency" data-source-line="59" id="lnk37"><path d="M90.25,1856.5769 C104.6,1889.5769 124.49,1938.4169 137.25,1982.6069 C156.95,2050.8669 116.76,2089.6369 167.25,2139.6069 C218.28,2190.1169 297.3345,2197.628 357.5145,2195.308" fill="none" id="S-to-UC_LOGIN" style="stroke:#181818;stroke-width:1;"/><polygon fill="#181818" points="363.51,2195.0769,354.3626,2191.4265,358.5137,2195.2695,354.6708,2199.4206,363.51,2195.0769" style="stroke:#181818;stroke-width:1;"/></g><!--link E to UC_LOGIN--><g class="link" data-entity-1="ent0003" data-entity-2="ent0011" data-link-type="dependency" data-source-line="60" id="lnk38"><path d="M85.29,728.6869 C100.69,778.1269 125.99,866.1569 137.25,943.6069 C185.58,1275.9369 133.19,1364.5169 167.25,1698.6069 C180.82,1831.7069 200.7,1862.7369 216.25,1995.6069 C217.74,2008.3269 216.56,2100.3669 224.25,2110.6069 C256.45,2153.5269 309.2338,2171.4903 356.2438,2179.9003" fill="none" id="E-to-UC_LOGIN" style="stroke:#181818;stroke-width:1;"/><polygon fill="#181818" points="362.15,2180.9569,353.9951,2175.4345,357.2281,2180.0764,352.5862,2183.3094,362.15,2180.9569" style="stroke:#181818;stroke-width:1;"/></g><!--link M to UC_LOGIN--><g class="link" data-entity-1="ent0004" data-entity-2="ent0011" data-link-type="dependency" data-source-line="61" id="lnk39"><path d="M85.09,2077.4869 C98.88,2113.3269 124.95,2164.3669 167.25,2187.6069 C234.44,2224.5269 320.4776,2214.8443 376.7876,2202.5743" fill="none" id="M-to-UC_LOGIN" style="stroke:#181818;stroke-width:1;"/><polygon fill="#181818" points="382.65,2201.2969,373.0047,2199.3047,377.7646,2202.3614,374.708,2207.1213,382.65,2201.2969" style="stroke:#181818;stroke-width:1;"/></g><!--link CC to UC_LOGIN--><g class="link" data-entity-1="ent0005" data-entity-2="ent0011" data-link-type="dependency" data-source-line="62" id="lnk40"><path d="M78.79,1038.5269 C91.03,1116.6769 118.81,1298.3369 137.25,1451.6069 C154.89,1598.2669 130.32,1996.6069 224.25,2110.6069 C258.43,2152.0969 311.2153,2170.1075 357.7153,2178.9375" fill="none" id="CC-to-UC_LOGIN" style="stroke:#181818;stroke-width:1;"/><polygon fill="#181818" points="363.61,2180.0569,355.5142,2174.4481,358.6978,2179.1241,354.0218,2182.3076,363.61,2180.0569" style="stroke:#181818;stroke-width:1;"/></g><!--link A to UC_LOGIN--><g class="link" data-entity-1="ent0006" data-entity-2="ent0011" data-link-type="dependency" data-source-line="63" id="lnk41"><path d="M84.55,1546.3569 C99.3,1595.8069 124.05,1684.2369 137.25,1761.6069 C149.89,1835.7269 120.66,2039.5969 167.25,2098.6069 C212.67,2156.1269 290.6613,2176.0742 352.1413,2183.3242" fill="none" id="A-to-UC_LOGIN" style="stroke:#181818;stroke-width:1;"/><polygon fill="#181818" points="358.1,2184.0269,349.6304,2179.0004,353.1344,2183.4413,348.6935,2186.9453,358.1,2184.0269" style="stroke:#181818;stroke-width:1;"/></g><!--link UC_LOGIN to SSO--><g class="link" data-entity-1="ent0011" data-entity-2="ent0007" data-link-type="dependency" data-source-line="64" id="lnk42"><path d="M361.25,2181.5069 C313.79,2173.3269 255.18,2154.3769 224.25,2110.6069 C150.78,2006.6669 210.39,1092.3869 211.67,965.1069 C213.07,825.8669 154.22,458.9669 224.25,338.6069 C254.87,285.9869 311.5489,255.2281 360.3689,236.4781" fill="none" id="UC_LOGIN-to-SSO" style="stroke:#181818;stroke-width:1;stroke-dasharray:7,7;"/><polygon fill="#181818" points="365.97,234.3269,356.1342,233.8196,361.3024,236.1195,359.0025,241.2877,365.97,234.3269" style="stroke:#181818;stroke-width:1;"/><text fill="#000000" font-family="sans-serif" font-size="13" lengthAdjust="spacing" textLength="47.0996" x="168.25" y="978.1738">include</text></g><!--link S to UC_PROFILE--><g class="link" data-entity-1="ent0002" data-entity-2="ent0012" data-link-type="dependency" data-source-line="66" id="lnk43"><path d="M90.68,1856.4569 C105.29,1889.3769 125.33,1938.1869 137.25,1982.6069 C160.21,2068.1469 121.88,2103.5469 167.25,2179.6069 C202.28,2238.3369 273.8701,2256.7061 336.2601,2261.8261" fill="none" id="S-to-UC_PROFILE" style="stroke:#181818;stroke-width:1;"/><polygon fill="#181818" points="342.24,2262.3169,333.5973,2257.5942,337.2568,2261.9079,332.943,2265.5674,342.24,2262.3169" style="stroke:#181818;stroke-width:1;"/></g><!--link S to UC_CATALOG--><g class="link" data-entity-1="ent0002" data-entity-2="ent0020" data-link-type="dependency" data-source-line="67" id="lnk44"><path d="M102.75,1817.6069 C147.44,1817.6069 227.92,1817.6069 301.2,1817.6069" fill="none" id="S-to-UC_CATALOG" style="stroke:#181818;stroke-width:1;"/><polygon fill="#181818" points="307.2,1817.6069,298.2,1813.6069,302.2,1817.6069,298.2,1821.6069,307.2,1817.6069" style="stroke:#181818;stroke-width:1;"/></g><!--link S to UC_REC--><g class="link" data-entity-1="ent0002" data-entity-2="ent0022" data-link-type="dependency" data-source-line="68" id="lnk45"><path d="M82.06,1778.4769 C99.35,1715.0769 142.13,1590.0369 224.25,1520.6069 C259.71,1490.6269 301.1077,1471.3813 341.5977,1457.1913" fill="none" id="S-to-UC_REC" style="stroke:#181818;stroke-width:1;"/><polygon fill="#181818" points="347.26,1455.2069,337.4435,1454.4086,342.5414,1456.8605,340.0894,1461.9584,347.26,1455.2069" style="stroke:#181818;stroke-width:1;"/></g><!--link S to UC_APPLY--><g class="link" data-entity-1="ent0002" data-entity-2="ent0025" data-link-type="dependency" data-source-line="69" id="lnk46"><path d="M85.24,1778.5269 C100.58,1729.0769 125.82,1641.0369 137.25,1563.6069 C142.8,1526.0369 139.81,906.8669 167.25,880.6069 C182.98,865.5569 200.64,865.4269 216.25,880.6069 C227.84,891.8869 213.66,1159.3869 224.25,1171.6069 C257.1,1209.5269 308.1815,1217.4231 354.4115,1216.3731" fill="none" id="S-to-UC_APPLY" style="stroke:#181818;stroke-width:1;"/><polygon fill="#181818" points="360.41,1216.2369,351.3215,1212.4423,355.4113,1216.3504,351.5031,1220.4402,360.41,1216.2369" style="stroke:#181818;stroke-width:1;"/></g><!--link E to UC_CREATE_VAC--><g class="link" data-entity-1="ent0003" data-entity-2="ent0014" data-link-type="dependency" data-source-line="71" id="lnk47"><path d="M85.25,728.6969 C100.6,778.1369 125.86,866.1769 137.25,943.6069 C148.56,1020.5169 129.92,1574.4169 167.25,1642.6069 C202.37,1706.7669 281.2186,1727.1218 345.7186,1733.4418" fill="none" id="E-to-UC_CREATE_VAC" style="stroke:#181818;stroke-width:1;"/><polygon fill="#181818" points="351.69,1734.0269,343.123,1729.1683,346.7138,1733.5393,342.3428,1737.1302,351.69,1734.0269" style="stroke:#181818;stroke-width:1;"/></g><!--link E to UC_EDIT_VAC--><g class="link" data-entity-1="ent0003" data-entity-2="ent0015" data-link-type="dependency" data-source-line="72" id="lnk48"><path d="M107.87,728.5069 C146.64,772.2869 204.96,841.4969 216.25,873.6069 C221.81,889.4369 214.71,1463.8069 224.25,1477.6069 C251.13,1516.4769 293.616,1535.4843 337.016,1546.2343" fill="none" id="E-to-UC_EDIT_VAC" style="stroke:#181818;stroke-width:1;"/><polygon fill="#181818" points="342.84,1547.6769,335.0657,1541.6303,337.9867,1546.4747,333.1423,1549.3957,342.84,1547.6769" style="stroke:#181818;stroke-width:1;"/></g><!--link E to UC_VIEW_APPS--><g class="link" data-entity-1="ent0003" data-entity-2="ent0026" data-link-type="dependency" data-source-line="73" id="lnk49"><path d="M123.51,661.0969 C154.28,648.0369 192.1,640.1069 216.25,663.6069 C228,675.0469 214.94,945.1169 224.25,958.6069 C249.59,995.3469 287.9227,1014.7276 329.0927,1026.8076" fill="none" id="E-to-UC_VIEW_APPS" style="stroke:#181818;stroke-width:1;"/><polygon fill="#181818" points="334.85,1028.4969,327.3403,1022.1248,330.0523,1027.0891,325.0879,1029.8011,334.85,1028.4969" style="stroke:#181818;stroke-width:1;"/></g><!--link E to UC_CHANGE_STATUS--><g class="link" data-entity-1="ent0003" data-entity-2="ent0027" data-link-type="dependency" data-source-line="74" id="lnk50"><path d="M123.5,682.5469 C155.08,681.2869 193.79,686.0069 216.25,711.6069 C230.06,727.3569 210.8,1072.5469 224.25,1088.6069 C249.85,1119.1969 284.9509,1130.8591 323.9409,1134.8291" fill="none" id="E-to-UC_CHANGE_STATUS" style="stroke:#181818;stroke-width:1;"/><polygon fill="#181818" points="329.91,1135.4369,321.3615,1130.5458,324.9357,1134.9304,320.5511,1138.5046,329.91,1135.4369" style="stroke:#181818;stroke-width:1;"/></g><!--link E to UC_SCHEDULE--><g class="link" data-entity-1="ent0003" data-entity-2="ent0029" data-link-type="dependency" data-source-line="75" id="lnk51"><path d="M89.42,650.5169 C112.63,601.1369 159.12,516.8869 224.25,469.6069 C267.89,437.9369 319.9795,418.9751 363.7595,406.7951" fill="none" id="E-to-UC_SCHEDULE" style="stroke:#181818;stroke-width:1;"/><polygon fill="#181818" points="369.54,405.1869,359.7972,403.7455,364.7229,406.527,361.9414,411.4528,369.54,405.1869" style="stroke:#181818;stroke-width:1;"/></g><!--link E to UC_RESCHEDULE--><g class="link" data-entity-1="ent0003" data-entity-2="ent0030" data-link-type="dependency" data-source-line="76" id="lnk52"><path d="M77.5,650.7669 C92.58,537.4969 142.47,211.5869 224.25,149.6069 C364.52,43.2969 459.1,78.8769 620.26,149.6069 C716.9,192.0169 786.1478,296.6763 816.2278,348.9563" fill="none" id="E-to-UC_RESCHEDULE" style="stroke:#181818;stroke-width:1;"/><polygon fill="#181818" points="819.22,354.1569,818.1987,344.3611,816.7265,349.823,811.2645,348.3508,819.22,354.1569" style="stroke:#181818;stroke-width:1;"/></g><!--link M to UC_APPROVE--><g class="link" data-entity-1="ent0004" data-entity-2="ent0017" data-link-type="dependency" data-source-line="78" id="lnk53"><path d="M113.09,2032.2069 C129.83,2029.6669 149.45,2026.8269 167.25,2024.6069 C229.09,2016.8969 293.2465,2010.4199 345.9765,2005.4499" fill="none" id="M-to-UC_APPROVE" style="stroke:#181818;stroke-width:1;"/><polygon fill="#181818" points="351.95,2004.8869,342.6144,2001.7491,346.9721,2005.3561,343.3651,2009.7138,351.95,2004.8869" style="stroke:#181818;stroke-width:1;"/></g><!--link M to UC_REJECT--><g class="link" data-entity-1="ent0004" data-entity-2="ent0018" data-link-type="dependency" data-source-line="79" id="lnk54"><path d="M112.94,2042.5269 C170.01,2048.0569 269.698,2057.7375 344.018,2064.9475" fill="none" id="M-to-UC_REJECT" style="stroke:#181818;stroke-width:1;"/><polygon fill="#181818" points="349.99,2065.5269,341.4183,2060.6765,345.0134,2065.0441,340.6458,2068.6391,349.99,2065.5269" style="stroke:#181818;stroke-width:1;"/></g><!--link CC to UC_REPORT--><g class="link" data-entity-1="ent0005" data-entity-2="ent0035" data-link-type="dependency" data-source-line="81" id="lnk55"><path d="M82.53,960.5869 C106.59,865.8769 166.19,631.4469 167.25,629.6069 C194.64,582.0269 241.8426,556.9058 293.3526,541.7958" fill="none" id="CC-to-UC_REPORT" style="stroke:#181818;stroke-width:1;"/><polygon fill="#181818" points="299.11,540.1069,289.348,538.8019,294.3122,541.5143,291.5998,546.4785,299.11,540.1069" style="stroke:#181818;stroke-width:1;"/></g><!--link A to UC_ADMIN--><g class="link" data-entity-1="ent0006" data-entity-2="ent0036" data-link-type="dependency" data-source-line="83" id="lnk56"><path d="M78.95,1468.7069 C91.47,1390.5869 119.74,1208.9969 137.25,1055.6069 C141.69,1016.7169 142.68,735.0869 167.25,704.6069 C198.72,665.5769 242.5223,646.0602 290.4523,635.0502" fill="none" id="A-to-UC_ADMIN" style="stroke:#181818;stroke-width:1;"/><polygon fill="#181818" points="296.3,633.7069,286.6329,631.8233,291.4269,634.8263,288.424,639.6203,296.3,633.7069" style="stroke:#181818;stroke-width:1;"/></g><!--link UC_CREATE_VAC to UC_SUBMIT_MOD--><g class="link" data-entity-1="ent0014" data-entity-2="ent0016" data-link-type="dependency" data-source-line="85" id="lnk57"><path d="M434.26,1716.5869 C434.26,1701.8869 434.26,1687.4469 434.26,1671.6269" fill="none" id="UC_CREATE_VAC-to-UC_SUBMIT_MOD" style="stroke:#181818;stroke-width:1;stroke-dasharray:7,7;"/><polygon fill="#181818" points="434.26,1665.6269,430.26,1674.6269,434.26,1670.6269,438.26,1674.6269,434.26,1665.6269" style="stroke:#181818;stroke-width:1;"/><text fill="#000000" font-family="sans-serif" font-size="13" lengthAdjust="spacing" textLength="47.0996" x="399.26" y="1695.6338">include</text></g><!--link UC_APPROVE to UC_PUBLISH--><g class="link" data-entity-1="ent0017" data-entity-2="ent0019" data-link-type="dependency" data-source-line="86" id="lnk58"><path d="M434.26,1977.2169 C434.26,1962.4169 434.26,1948.3769 434.26,1932.9469" fill="none" id="UC_APPROVE-to-UC_PUBLISH" style="stroke:#181818;stroke-width:1;stroke-dasharray:7,7;"/><polygon fill="#181818" points="434.26,1926.9469,430.26,1935.9469,434.26,1931.9469,438.26,1935.9469,434.26,1926.9469" style="stroke:#181818;stroke-width:1;"/><text fill="#000000" font-family="sans-serif" font-size="13" lengthAdjust="spacing" textLength="47.0996" x="399.26" y="1956.6638">include</text></g><!--link UC_REC to UC_CALC--><g class="link" data-entity-1="ent0022" data-entity-2="ent0023" data-link-type="dependency" data-source-line="87" id="lnk59"><path d="M434.26,1401.2369 C434.26,1385.0869 434.26,1371.4869 434.26,1356.2869" fill="none" id="UC_REC-to-UC_CALC" style="stroke:#181818;stroke-width:1;stroke-dasharray:7,7;"/><polygon fill="#181818" points="434.26,1350.2869,430.26,1359.2869,434.26,1355.2869,438.26,1359.2869,434.26,1350.2869" style="stroke:#181818;stroke-width:1;"/><text fill="#000000" font-family="sans-serif" font-size="13" lengthAdjust="spacing" textLength="47.0996" x="399.26" y="1380.4338">include</text></g><!--link UC_CALC to UC_CATALOG--><g class="link" data-entity-1="ent0023" data-entity-2="ent0020" data-link-type="dependency" data-source-line="88" id="lnk60"><path d="M329.91,1333.9069 C292.3,1341.8569 252.27,1356.7969 224.25,1384.6069 C209.96,1398.7869 214.49,1408.1869 211.67,1428.1069 C190.23,1579.3669 126.2,1654.4569 224.25,1771.6069 C245.03,1796.4369 269.9704,1808.4829 301.6304,1815.1929" fill="none" id="UC_CALC-to-UC_CATALOG" style="stroke:#181818;stroke-width:1;stroke-dasharray:7,7;"/><polygon fill="#181818" points="307.5,1816.4369,299.5249,1810.6578,302.6086,1815.4002,297.8662,1818.484,307.5,1816.4369" style="stroke:#181818;stroke-width:1;"/><text fill="#000000" font-family="sans-serif" font-size="13" lengthAdjust="spacing" textLength="47.0996" x="168.25" y="1441.1738">include</text></g><!--link UC_APPLY to UC_NOTIFY--><g class="link" data-entity-1="ent0025" data-entity-2="ent0032" data-link-type="dependency" data-source-line="90" id="lnk61"><path d="M359.93,1216.0269 C313.93,1216.7669 257.5,1208.7469 224.25,1171.6069 C190.33,1133.7269 177.56,980.8369 211.67,943.1069 C248.13,902.7769 305.3278,899.1544 355.0678,904.7644" fill="none" id="UC_APPLY-to-UC_NOTIFY" style="stroke:#181818;stroke-width:1;stroke-dasharray:7,7;"/><polygon fill="#181818" points="361.03,905.4369,352.535,900.4534,356.0615,904.8765,351.6384,908.403,361.03,905.4369" style="stroke:#181818;stroke-width:1;"/><text fill="#000000" font-family="sans-serif" font-size="13" lengthAdjust="spacing" textLength="47.0996" x="168.25" y="956.1738">include</text></g><!--link UC_APPLY to UC_AUDIT--><g class="link" data-entity-1="ent0025" data-entity-2="ent0033" data-link-type="dependency" data-source-line="91" id="lnk62"><path d="M360.63,1216.2969 C314.31,1217.2869 257.25,1209.4569 224.25,1171.6069 C166.6,1105.5069 152.99,842.3069 211.67,777.1069 C245.53,739.4869 296.5683,733.5982 344.4283,737.3482" fill="none" id="UC_APPLY-to-UC_AUDIT" style="stroke:#181818;stroke-width:1;stroke-dasharray:7,7;"/><polygon fill="#181818" points="350.41,737.8169,341.75,733.1261,345.4253,737.4263,341.125,741.1016,350.41,737.8169" style="stroke:#181818;stroke-width:1;"/><text fill="#000000" font-family="sans-serif" font-size="13" lengthAdjust="spacing" textLength="47.0996" x="168.25" y="790.1738">include</text></g><!--link UC_CHANGE_STATUS to UC_NOTIFY--><g class="link" data-entity-1="ent0027" data-entity-2="ent0032" data-link-type="dependency" data-source-line="92" id="lnk63"><path d="M333.9,1138.5869 C284.6,1136.2269 231.59,1122.2969 211.67,1077.1069 C202.62,1056.5869 210.77,1017.3769 224.25,1001.6069 C256.31,964.1069 301.995,945.3353 345.975,934.4753" fill="none" id="UC_CHANGE_STATUS-to-UC_NOTIFY" style="stroke:#181818;stroke-width:1;stroke-dasharray:7,7;"/><polygon fill="#181818" points="351.8,933.0369,342.1035,931.3111,346.9458,934.2355,344.0214,939.0778,351.8,933.0369" style="stroke:#181818;stroke-width:1;"/><text fill="#000000" font-family="sans-serif" font-size="13" lengthAdjust="spacing" textLength="47.0996" x="168.25" y="1073.1738">include</text></g><!--link UC_CHANGE_STATUS to UC_AUDIT--><g class="link" data-entity-1="ent0027" data-entity-2="ent0033" data-link-type="dependency" data-source-line="93" id="lnk64"><path d="M353.15,1146.1769 C304.75,1150.3469 246.18,1145.4569 211.67,1107.1069 C203.08,1097.5669 122.55,1048.9569 224.25,880.6069 C256.86,826.6369 316.3575,794.7903 365.4775,775.7003" fill="none" id="UC_CHANGE_STATUS-to-UC_AUDIT" style="stroke:#181818;stroke-width:1;stroke-dasharray:7,7;"/><polygon fill="#181818" points="371.07,773.5269,361.2323,773.0587,366.4096,775.3381,364.1302,780.5154,371.07,773.5269" style="stroke:#181818;stroke-width:1;"/><text fill="#000000" font-family="sans-serif" font-size="13" lengthAdjust="spacing" textLength="47.0996" x="168.25" y="1103.1738">include</text></g><!--link UC_SCHEDULE to UC_NOTIFY--><g class="link" data-entity-1="ent0029" data-entity-2="ent0032" data-link-type="dependency" data-source-line="94" id="lnk65"><path d="M352.06,399.4669 C306.57,408.9969 253.48,428.7369 224.25,469.6069 C168.71,547.2869 147.48,828.4169 211.67,899.1069 C248.47,939.6369 306.3032,942.7658 356.1832,936.7458" fill="none" id="UC_SCHEDULE-to-UC_NOTIFY" style="stroke:#181818;stroke-width:1;stroke-dasharray:7,7;"/><polygon fill="#181818" points="362.14,936.0269,352.7256,933.1341,357.176,936.626,353.6841,941.0764,362.14,936.0269" style="stroke:#181818;stroke-width:1;"/><text fill="#000000" font-family="sans-serif" font-size="13" lengthAdjust="spacing" textLength="47.0996" x="168.25" y="895.1738">include</text></g><!--link UC_SCHEDULE to UC_AUDIT--><g class="link" data-entity-1="ent0029" data-entity-2="ent0033" data-link-type="dependency" data-source-line="95" id="lnk66"><path d="M352.38,399.6969 C307,409.3069 253.91,429.0469 224.25,469.6069 C147.2,575.0069 206.15,723.9769 211.67,730.1069 C245.53,767.7269 296.5683,773.6256 344.4283,769.8756" fill="none" id="UC_SCHEDULE-to-UC_AUDIT" style="stroke:#181818;stroke-width:1;stroke-dasharray:7,7;"/><polygon fill="#181818" points="350.41,769.4069,341.125,766.1221,345.4253,769.7974,341.75,774.0977,350.41,769.4069" style="stroke:#181818;stroke-width:1;"/><text fill="#000000" font-family="sans-serif" font-size="13" lengthAdjust="spacing" textLength="47.0996" x="168.25" y="726.1738">include</text></g><!--link UC_APPROVE to UC_NOTIFY--><g class="link" data-entity-1="ent0017" data-entity-2="ent0032" data-link-type="dependency" data-source-line="96" id="lnk67"><path d="M346.28,1998.5069 C302.47,1993.8969 252.87,1980.0069 224.25,1943.6069 C158.56,1860.0569 148.17,1072.3469 211.67,987.1069 C240.46,948.4569 284.9435,932.3331 330.5235,925.1331" fill="none" id="UC_APPROVE-to-UC_NOTIFY" style="stroke:#181818;stroke-width:1;stroke-dasharray:7,7;"/><polygon fill="#181818" points="336.45,924.1969,326.9361,921.6501,331.5112,924.977,328.1843,929.5521,336.45,924.1969" style="stroke:#181818;stroke-width:1;"/><text fill="#000000" font-family="sans-serif" font-size="13" lengthAdjust="spacing" textLength="47.0996" x="168.25" y="1000.1738">include</text></g><!--link UC_APPROVE to UC_AUDIT--><g class="link" data-entity-1="ent0017" data-entity-2="ent0033" data-link-type="dependency" data-source-line="97" id="lnk68"><path d="M346.29,1998.4969 C302.48,1993.8869 252.88,1979.9969 224.25,1943.6069 C162.93,1865.6669 212.37,1150.2869 211.67,1051.1069 C211.13,975.1269 184.25,945.2169 224.25,880.6069 C257.44,826.9969 316.8649,795.1192 365.8049,775.9092" fill="none" id="UC_APPROVE-to-UC_AUDIT" style="stroke:#181818;stroke-width:1;stroke-dasharray:7,7;"/><polygon fill="#181818" points="371.39,773.7169,361.5508,773.2819,366.7357,775.5438,364.4738,780.7287,371.39,773.7169" style="stroke:#181818;stroke-width:1;"/><text fill="#000000" font-family="sans-serif" font-size="13" lengthAdjust="spacing" textLength="47.0996" x="168.25" y="1047.1738">include</text></g><!--link UC_REJECT to UC_NOTIFY--><g class="link" data-entity-1="ent0018" data-entity-2="ent0032" data-link-type="dependency" data-source-line="98" id="lnk69"><path d="M349.28,2081.2869 C305.08,2080.2369 254.17,2070.1369 224.25,2034.6069 C152.14,1948.9669 212.37,1139.0569 211.67,1027.1069 C211.62,1019.5569 208.12,1016.7869 211.67,1010.1069 C214.83,1004.1469 218.27,1004.7369 224.25,1001.6069 C273.79,975.7469 327.8276,955.4331 370.8976,940.8331" fill="none" id="UC_REJECT-to-UC_NOTIFY" style="stroke:#181818;stroke-width:1;stroke-dasharray:7,7;"/><polygon fill="#181818" points="376.58,938.9069,366.7722,938.008,371.8447,940.5121,369.3406,945.5845,376.58,938.9069" style="stroke:#181818;stroke-width:1;"/><text fill="#000000" font-family="sans-serif" font-size="13" lengthAdjust="spacing" textLength="47.0996" x="168.25" y="1023.1738">include</text></g><!--link UC_NOTIFY to NS--><g class="link" data-entity-1="ent0032" data-entity-2="ent0008" data-link-type="dependency" data-source-line="100" id="lnk70"><path d="M509.55,935.1069 C548.44,946.5869 593.43,966.7369 620.26,1001.6069 C786.9,1218.1469 825.9443,2115.2101 833.0343,2332.4601" fill="none" id="UC_NOTIFY-to-NS" style="stroke:#181818;stroke-width:1;"/><polygon fill="#181818" points="833.23,2338.4569,836.9343,2329.3312,833.0669,2333.4595,828.9386,2329.5921,833.23,2338.4569" style="stroke:#181818;stroke-width:1;"/></g><!--reverse link UC_SCHEDULE to UC_RESCHEDULE--><g class="link" data-entity-1="ent0029" data-entity-2="ent0030" data-link-type="dependency" data-source-line="102" id="lnk71"><path d="M530.3788,388.7065 C583.7088,387.6365 646.4,386.3769 705.58,385.1969" fill="none" id="UC_SCHEDULE-backto-UC_RESCHEDULE" style="stroke:#181818;stroke-width:1;stroke-dasharray:7,7;"/><polygon fill="#181818" points="524.38,388.8269,533.4584,392.6455,529.379,388.7266,533.298,384.6471,524.38,388.8269" style="stroke:#181818;stroke-width:1;"/><text fill="#000000" font-family="sans-serif" font-size="13" lengthAdjust="spacing" textLength="45.2778" x="629.26" y="382.6738">extend</text></g><?plantuml-src ZLRBRjjM4DtpAowyQXTHaKKtXM60ffXOXHw6ABd8oY1anY7iI874z84YW2KLzi92x0O56WHfay0_GBjHJUj1_yAzlz0lwSpmUKbQiHUoxfsPSsVElEJOpg75sWEBQIPyb6rplsy-P_yT_S7uU-wA8pxZKp7YjtpEf_n631c_uYvSkdmfXjpZDunxJ0n1nUN_SWyCVD3m-OnzXNAIJFc2kqmSmvSvcCn0lFXQKGwjfmvpUgnlxpzps9xTjpgEtUigWmEx-y94DyoEq-iRpY_WelcJDUWzjrB2bmEh0pvlzlfxLh_rpEuSTAt1W3qiVQiePCZM-2Sn4cF-6HvUYj4QCmVCY6KVmUDBxeD_FcYuvETSJ4XBZxNUatGASQ66Buv8Nelbxv0aCI6DfJW5FYXEU2vKrRHOznoG5a30Ck0bWwb6UeRHOFm2jO19m2KUHvG6DuW15DRNhPyTgzyr3pSs8iDwpx6VsXqJMMI6rV_HxbXaK3TaVGMfDhlxmElQFTEyndvL5CPUc9q3Sn_DpiMOA8D8mRtVAAyknEw9CzHby1Tc29JV08itgCZ42L4rvTSO1ddNrdQhZSULUiRcWjyYG-38N9m1MnD65pwzXMuk8kljPkDHfQg3_IlPnpTI35xUhq_WrtMGVSINOXQl8tojgQijVNT7rJBc7y6BpsX370IblnfABrTQ1K1_8_TXj5u0i8IMWMf9gkyuZMEqDsk0L6kKiqYWx_DBiF1MEg9k0sixUe4VCo3NfnfTPT_KlzUrLkxnMsYtoxZBlyJ6TdkpMZ6sCYWVACj339wQP1fWpAXRNFBkduBw37EbjbIefdmjOAveyc3DKigFYslY0oZDeRXFGWQeMWiixtIXgUVhn8M67mQG8IS4YsLyHGWZWFPfAaoIKAfQFeueHSXmWVS5bUGd5gdiLv_SYtQukCLnHICz3ONfZU1sAleFY6ba8Dz2SmMiXLGEm_37E67IO6uSz9PQVwpl6YsrrJRoqRybgh0XhiG42oaR_ryG-JKsJvm_7BYoJTX2sfPURbUBMY3jypSmTiAHjOJ_GvfYTs4szHHgnlKBdERKdGlAEpvmXjiJVCKTvU66-c8nZlCeV1ezNs-qAe-oUVqJ60bIw4OPnG5nYe7mALInv41O7ssOK_aGpf5Op1ZPpd12UPH7SI9-Xy_JWW2AcpbbW_pw38NaXO_5GQguCf3kAp5E-DrkD5ltM1H4smGg8Hn2jDlFSFlIxvKZajCv3hbSenNqIe6W3VRWmKQoc7JvM9EFcYQVLVaOVM6b3ThStp6xspbykMUbdeasM7mHZR7u0eTAV0ZQDt4hjQ3YktZJn3T9boQ6KhV5rt4HwydpyLqIVhH3QeaMBOKK8s724au2cXN9QMH6scafZf9dGgrmPyWgm4ueng4fo-Ycb6OrdOA8pL0ZwA3S-x6S6YE3d-Pm1KoHNW5SnFCAf8nA0OXCsHr1fJGA889SteMW99UOsBgXI8wjbqforO0f_lxixlqF?></g></svg>