<svg xmlns="http://www.w3.org/2000/svg" xmlns:xlink="http://www.w3.org/1999/xlink" contentStyleType="text/css" data-diagram-type="SEQUENCE" height="1188px" preserveAspectRatio="none" style="width:1218px;height:1188px;background:#FFFFFF;" version="1.1" viewBox="0 0 1218 1188" width="1218px" zoomAndPan="magnify"><?plantuml 1.2026.4beta2?><defs/><g><g class="title" data-source-line="1"><text fill="#000000" font-family="sans-serif" font-size="14" font-weight="700" lengthAdjust="spacing" textLength="485.3994" x="363.1082" y="27.9951">Sequence Diagram &#8212; &#1052;&#1072;&#1090;&#1095;&#1080;&#1085;&#1075;&#1086;&#1074;&#1099;&#1077; &#1088;&#1077;&#1082;&#1086;&#1084;&#1077;&#1085;&#1076;&#1072;&#1094;&#1080;&#1080; &#1074;&#1072;&#1082;&#1072;&#1085;&#1089;&#1080;&#1081;</text></g><rect fill="none" height="543.5938" style="stroke:#000000;stroke-width:1.5;" width="949.6787" x="252.937" y="310.5547"/><g class="participant-lifeline" data-entity-uid="part1" data-qualified-name="S" data-source-line="6" id="part1-lifeline"><g><title>.......</title><rect fill="#000000" fill-opacity="0.00000" height="983.3203" width="8" x="34.9087" y="120.8906"/><line style="stroke:#181818;stroke-width:0.5;stroke-dasharray:5,5;" x1="38" x2="38" y1="120.8906" y2="1104.2109"/></g></g><g class="participant-lifeline" data-entity-uid="part2" data-qualified-name="FE" data-source-line="7" id="part2-lifeline"><g><title>Frontend</title><rect fill="#000000" fill-opacity="0.00000" height="983.3203" width="8" x="297.4917" y="120.8906"/><line style="stroke:#181818;stroke-width:0.5;stroke-dasharray:5,5;" x1="300.937" x2="300.937" y1="120.8906" y2="1104.2109"/></g></g><g class="participant-lifeline" data-entity-uid="part3" data-qualified-name="BE" data-source-line="8" id="part3-lifeline"><g><title>Backend API</title><rect fill="#000000" fill-opacity="0.00000" height="983.3203" width="8" x="598.9922" y="120.8906"/><line style="stroke:#181818;stroke-width:0.5;stroke-dasharray:5,5;" x1="602.6035" x2="602.6035" y1="120.8906" y2="1104.2109"/></g></g><g class="participant-lifeline" data-entity-uid="part4" data-qualified-name="RS" data-source-line="9" id="part4-lifeline"><g><title>Recommendation</title><rect fill="#000000" fill-opacity="0.00000" height="983.3203" width="8" x="824.689" y="120.8906"/><line style="stroke:#181818;stroke-width:0.5;stroke-dasharray:5,5;" x1="827.8647" x2="827.8647" y1="120.8906" y2="1104.2109"/></g></g><g class="participant-lifeline" data-entity-uid="part5" data-qualified-name="DB" data-source-line="10" id="part5-lifeline"><g><title>PostgreSQL</title><rect fill="#000000" fill-opacity="0.00000" height="983.3203" width="8" x="1074.7773" y="120.8906"/><line style="stroke:#181818;stroke-width:0.5;stroke-dasharray:5,5;" x1="1078.4009" x2="1078.4009" y1="120.8906" y2="1104.2109"/></g></g><g class="participant-lifeline" data-entity-uid="part6" data-qualified-name="RD" data-source-line="11" id="part6-lifeline"><g><title>Redis</title><rect fill="#000000" fill-opacity="0.00000" height="983.3203" width="8" x="1158.3848" y="120.8906"/><line style="stroke:#181818;stroke-width:0.5;stroke-dasharray:5,5;" x1="1162.1538" x2="1162.1538" y1="120.8906" y2="1104.2109"/></g></g><g class="participant participant-head" data-entity-uid="part1" data-qualified-name="S" data-source-line="6" id="part1-head"><text fill="#000000" font-family="sans-serif" font-size="14" lengthAdjust="spacing" textLength="61.8174" x="5" y="117.5889">&#1057;&#1090;&#1091;&#1076;&#1077;&#1085;&#1090;</text><ellipse cx="38.9087" cy="53.0938" fill="#E2E2F0" rx="8" ry="8" style="stroke:#181818;stroke-width:0.5;"/><path d="M38.9087,61.0938 L38.9087,88.0938 M25.9087,69.0938 L51.9087,69.0938 M38.9087,88.0938 L25.9087,103.0938 M38.9087,88.0938 L51.9087,103.0938" fill="none" style="stroke:#181818;stroke-width:0.5;"/></g><g class="participant participant-tail" data-entity-uid="part1" data-qualified-name="S" data-source-line="6" id="part1-tail"><text fill="#000000" font-family="sans-serif" font-size="14" lengthAdjust="spacing" textLength="61.8174" x="5" y="1116.2061">&#1057;&#1090;&#1091;&#1076;&#1077;&#1085;&#1090;</text><ellipse cx="38.9087" cy="1128.0078" fill="#E2E2F0" rx="8" ry="8" style="stroke:#181818;stroke-width:0.5;"/><path d="M38.9087,1136.0078 L38.9087,1163.0078 M25.9087,1144.0078 L51.9087,1144.0078 M38.9087,1163.0078 L25.9087,1178.0078 M38.9087,1163.0078 L51.9087,1178.0078" fill="none" style="stroke:#181818;stroke-width:0.5;"/></g><g class="participant participant-head" data-entity-uid="part2" data-qualified-name="FE" data-source-line="7" id="part2-head"><rect fill="#E2E2F0" height="46.5938" rx="2.5" ry="2.5" style="stroke:#181818;stroke-width:0.5;" width="77.1094" x="262.937" y="73.2969"/><text fill="#000000" font-family="sans-serif" font-size="14" lengthAdjust="spacing" textLength="63.1094" x="269.937" y="93.292">Frontend</text><text fill="#000000" font-family="sans-serif" font-size="14" lengthAdjust="spacing" textLength="51.0303" x="275.9766" y="109.5889">(React)</text></g><g class="participant participant-tail" data-entity-uid="part2" data-qualified-name="FE" data-source-line="7" id="part2-tail"><rect fill="#E2E2F0" height="46.5938" rx="2.5" ry="2.5" style="stroke:#181818;stroke-width:0.5;" width="77.1094" x="262.937" y="1103.2109"/><text fill="#000000" font-family="sans-serif" font-size="14" lengthAdjust="spacing" textLength="63.1094" x="269.937" y="1123.2061">Frontend</text><text fill="#000000" font-family="sans-serif" font-size="14" lengthAdjust="spacing" textLength="51.0303" x="275.9766" y="1139.5029">(React)</text></g><g class="participant participant-head" data-entity-uid="part3" data-qualified-name="BE" data-source-line="8" id="part3-head"><rect fill="#E2E2F0" height="46.5938" rx="2.5" ry="2.5" style="stroke:#181818;stroke-width:0.5;" width="106.7773" x="549.6035" y="73.2969"/><text fill="#000000" font-family="sans-serif" font-size="14" lengthAdjust="spacing" textLength="86.96" x="559.5122" y="93.292">Backend API</text><text fill="#000000" font-family="sans-serif" font-size="14" lengthAdjust="spacing" textLength="92.7773" x="556.6035" y="109.5889">(Spring Boot)</text></g><g class="participant participant-tail" data-entity-uid="part3" data-qualified-name="BE" data-source-line="8" id="part3-tail"><rect fill="#E2E2F0" height="46.5938" rx="2.5" ry="2.5" style="stroke:#181818;stroke-width:0.5;" width="106.7773" x="549.6035" y="1103.2109"/><text fill="#000000" font-family="sans-serif" font-size="14" lengthAdjust="spacing" textLength="86.96" x="559.5122" y="1123.2061">Backend API</text><text fill="#000000" font-family="sans-serif" font-size="14" lengthAdjust="spacing" textLength="92.7773" x="556.6035" y="1139.5029">(Spring Boot)</text></g><g class="participant participant-head" data-entity-uid="part4" data-qualified-name="RS" data-source-line="9" id="part4-head"><rect fill="#E2E2F0" height="46.5938" rx="2.5" ry="2.5" style="stroke:#181818;stroke-width:0.5;" width="137.6484" x="759.8647" y="73.2969"/><text fill="#000000" font-family="sans-serif" font-size="14" lengthAdjust="spacing" textLength="123.6484" x="766.8647" y="93.292">Recommendation</text><text fill="#000000" font-family="sans-serif" font-size="14" lengthAdjust="spacing" textLength="118.6787" x="769.3496" y="109.5889">Service (FastAPI)</text></g><g class="participant participant-tail" data-entity-uid="part4" data-qualified-name="RS" data-source-line="9" id="part4-tail"><rect fill="#E2E2F0" height="46.5938" rx="2.5" ry="2.5" style="stroke:#181818;stroke-width:0.5;" width="137.6484" x="759.8647" y="1103.2109"/><text fill="#000000" font-family="sans-serif" font-size="14" lengthAdjust="spacing" textLength="123.6484" x="766.8647" y="1123.2061">Recommendation</text><text fill="#000000" font-family="sans-serif" font-size="14" lengthAdjust="spacing" textLength="118.6787" x="769.3496" y="1139.5029">Service (FastAPI)</text></g><g class="participant participant-head" data-entity-uid="part5" data-qualified-name="DB" data-source-line="10" id="part5-head"><text fill="#000000" font-family="sans-serif" font-size="14" lengthAdjust="spacing" textLength="80.7529" x="1035.4009" y="117.5889">PostgreSQL</text><path d="M1060.7773,68.5938 C1060.7773,58.5938 1078.7773,58.5938 1078.7773,58.5938 C1078.7773,58.5938 1096.7773,58.5938 1096.7773,68.5938 L1096.7773,94.5938 C1096.7773,104.5938 1078.7773,104.5938 1078.7773,104.5938 C1078.7773,104.5938 1060.7773,104.5938 1060.7773,94.5938 L1060.7773,68.5938" fill="#E2E2F0" style="stroke:#181818;stroke-width:0.5;"/><path d="M1060.7773,68.5938 C1060.7773,78.5938 1078.7773,78.5938 1078.7773,78.5938 C1078.7773,78.5938 1096.7773,78.5938 1096.7773,68.5938" fill="none" style="stroke:#181818;stroke-width:0.5;"/></g><g class="participant participant-tail" data-entity-uid="part5" data-qualified-name="DB" data-source-line="10" id="part5-tail"><text fill="#000000" font-family="sans-serif" font-size="14" lengthAdjust="spacing" textLength="80.7529" x="1035.4009" y="1116.2061">PostgreSQL</text><path d="M1060.7773,1129.5078 C1060.7773,1119.5078 1078.7773,1119.5078 1078.7773,1119.5078 C1078.7773,1119.5078 1096.7773,1119.5078 1096.7773,1129.5078 L1096.7773,1155.5078 C1096.7773,1165.5078 1078.7773,1165.5078 1078.7773,1165.5078 C1078.7773,1165.5078 1060.7773,1165.5078 1060.7773,1155.5078 L1060.7773,1129.5078" fill="#E2E2F0" style="stroke:#181818;stroke-width:0.5;"/><path d="M1060.7773,1129.5078 C1060.7773,1139.5078 1078.7773,1139.5078 1078.7773,1139.5078 C1078.7773,1139.5078 1096.7773,1139.5078 1096.7773,1129.5078" fill="none" style="stroke:#181818;stroke-width:0.5;"/></g><g class="participant participant-head" data-entity-uid="part6" data-qualified-name="RD" data-source-line="11" id="part6-head"><text fill="#000000" font-family="sans-serif" font-size="14" lengthAdjust="spacing" textLength="38.4111" x="1140.1792" y="101.292">Redis</text><text fill="#000000" font-family="sans-serif" font-size="14" lengthAdjust="spacing" textLength="54.4619" x="1132.1538" y="117.5889">(Cache)</text><path d="M1144.3848,52.2969 C1144.3848,42.2969 1162.3848,42.2969 1162.3848,42.2969 C1162.3848,42.2969 1180.3848,42.2969 1180.3848,52.2969 L1180.3848,78.2969 C1180.3848,88.2969 1162.3848,88.2969 1162.3848,88.2969 C1162.3848,88.2969 1144.3848,88.2969 1144.3848,78.2969 L1144.3848,52.2969" fill="#E2E2F0" style="stroke:#181818;stroke-width:0.5;"/><path d="M1144.3848,52.2969 C1144.3848,62.2969 1162.3848,62.2969 1162.3848,62.2969 C1162.3848,62.2969 1180.3848,62.2969 1180.3848,52.2969" fill="none" style="stroke:#181818;stroke-width:0.5;"/></g><g class="participant participant-tail" data-entity-uid="part6" data-qualified-name="RD" data-source-line="11" id="part6-tail"><text fill="#000000" font-family="sans-serif" font-size="14" lengthAdjust="spacing" textLength="38.4111" x="1140.1792" y="1116.2061">Redis</text><text fill="#000000" font-family="sans-serif" font-size="14" lengthAdjust="spacing" textLength="54.4619" x="1132.1538" y="1132.5029">(Cache)</text><path d="M1144.3848,1145.8047 C1144.3848,1135.8047 1162.3848,1135.8047 1162.3848,1135.8047 C1162.3848,1135.8047 1180.3848,1135.8047 1180.3848,1145.8047 L1180.3848,1171.8047 C1180.3848,1181.8047 1162.3848,1181.8047 1162.3848,1181.8047 C1162.3848,1181.8047 1144.3848,1181.8047 1144.3848,1171.8047 L1144.3848,1145.8047" fill="#E2E2F0" style="stroke:#181818;stroke-width:0.5;"/><path d="M1144.3848,1145.8047 C1144.3848,1155.8047 1162.3848,1155.8047 1162.3848,1155.8047 C1162.3848,1155.8047 1180.3848,1155.8047 1180.3848,1145.8047" fill="none" style="stroke:#181818;stroke-width:0.5;"/></g><rect fill="#EEEEEE" height="3" style="stroke:#EEEEEE;stroke-width:1;" width="1212.6157" x="0" y="151.457"/><line style="stroke:#000000;stroke-width:1;" x1="0" x2="1212.6157" y1="151.457" y2="151.457"/><line style="stroke:#000000;stroke-width:1;" x1="0" x2="1212.6157" y1="154.457" y2="154.457"/><rect fill="#EEEEEE" height="23.1328" style="stroke:#000000;stroke-width:2;" width="216.9346" x="497.8406" y="140.8906"/><text fill="#000000" font-family="sans-serif" font-size="13" font-weight="700" lengthAdjust="spacing" textLength="198.4087" x="503.8406" y="156.9575">&#1055;&#1086;&#1083;&#1091;&#1095;&#1077;&#1085;&#1080;&#1077; &#1088;&#1077;&#1082;&#1086;&#1084;&#1077;&#1085;&#1076;&#1072;&#1094;&#1080;&#1081;</text><g class="message" data-entity-1="part1" data-entity-2="part2" data-source-line="14" id="msg1"><polygon fill="#181818" points="289.4917,191.1563,299.4917,195.1563,289.4917,199.1563,293.4917,195.1563" style="stroke:#181818;stroke-width:1;"/><line style="stroke:#181818;stroke-width:1;" x1="38.9087" x2="295.4917" y1="195.1563" y2="195.1563"/><text fill="#000000" font-family="sans-serif" font-size="13" lengthAdjust="spacing" textLength="217.166" x="61.6172" y="190.0903">&#1054;&#1090;&#1082;&#1088;&#1099;&#1074;&#1072;&#1077;&#1090; &#1089;&#1090;&#1088;&#1072;&#1085;&#1080;&#1094;&#1091; &#171;&#1044;&#1083;&#1103; &#1074;&#1072;&#1089;&#187;</text></g><g class="message" data-entity-1="part2" data-entity-2="part3" data-source-line="15" id="msg2"><polygon fill="#181818" points="590.9922,220.2891,600.9922,224.2891,590.9922,228.2891,594.9922,224.2891" style="stroke:#181818;stroke-width:1;"/><line style="stroke:#181818;stroke-width:1;" x1="301.4917" x2="596.9922" y1="224.2891" y2="224.2891"/><text fill="#000000" font-family="sans-serif" font-size="13" lengthAdjust="spacing" textLength="176.8521" x="363.8159" y="219.2231">GET /api/recommendations</text></g><g class="message" data-entity-1="part3" data-entity-2="part3" data-source-line="16" id="msg3"><line style="stroke:#181818;stroke-width:1;" x1="602.9922" x2="644.9922" y1="253.4219" y2="253.4219"/><line style="stroke:#181818;stroke-width:1;" x1="644.9922" x2="644.9922" y1="253.4219" y2="266.4219"/><line style="stroke:#181818;stroke-width:1;" x1="603.9922" x2="644.9922" y1="266.4219" y2="266.4219"/><polygon fill="#181818" points="613.9922,262.4219,603.9922,266.4219,613.9922,270.4219,609.9922,266.4219" style="stroke:#181818;stroke-width:1;"/><text fill="#000000" font-family="sans-serif" font-size="13" lengthAdjust="spacing" textLength="197.2979" x="609.9922" y="248.356">&#1055;&#1088;&#1086;&#1074;&#1077;&#1088;&#1082;&#1072; JWT &#1088;&#1086;&#1083;&#1080; STUDENT</text></g><g class="message" data-entity-1="part3" data-entity-2="part6" data-source-line="17" id="msg4"><polygon fill="#181818" points="1150.3848,291.5547,1160.3848,295.5547,1150.3848,299.5547,1154.3848,295.5547" style="stroke:#181818;stroke-width:1;"/><line style="stroke:#181818;stroke-width:1;" x1="602.9922" x2="1156.3848" y1="295.5547" y2="295.5547"/><text fill="#000000" font-family="sans-serif" font-size="13" lengthAdjust="spacing" textLength="235.1235" x="765.1267" y="290.4888">GET recommendations:student:{id}</text></g><path d="M252.937,310.5547 L317.3799,310.5547 L317.3799,317.6875 L307.3799,327.6875 L252.937,327.6875 L252.937,310.5547" fill="#EEEEEE" style="stroke:#000000;stroke-width:1.5;"/><rect fill="none" height="543.5938" style="stroke:#000000;stroke-width:1.5;" width="949.6787" x="252.937" y="310.5547"/><text fill="#000000" font-family="sans-serif" font-size="13" font-weight="700" lengthAdjust="spacing" textLength="19.4429" x="267.937" y="323.6216">alt</text><text fill="#000000" font-family="sans-serif" font-size="11" font-weight="700" lengthAdjust="spacing" textLength="194.2026" x="332.3799" y="322.7651">[&#1050;&#1101;&#1096; &#1072;&#1082;&#1090;&#1091;&#1072;&#1083;&#1077;&#1085; (TTL &#1085;&#1077; &#1080;&#1089;&#1090;&#1105;&#1082;)]</text><g class="message" data-entity-1="part6" data-entity-2="part3" data-source-line="19" id="msg5"><polygon fill="#181818" points="613.9922,344.8203,603.9922,348.8203,613.9922,352.8203,609.9922,348.8203" style="stroke:#181818;stroke-width:1;"/><line style="stroke:#181818;stroke-width:1;stroke-dasharray:2,2;" x1="607.9922" x2="1161.3848" y1="348.8203" y2="348.8203"/><text fill="#000000" font-family="sans-serif" font-size="13" lengthAdjust="spacing" textLength="178.9277" x="793.2246" y="343.7544">cached [recommendations]</text></g><g class="message" data-entity-1="part3" data-entity-2="part2" data-source-line="20" id="msg6"><polygon fill="#181818" points="312.4917,373.9531,302.4917,377.9531,312.4917,381.9531,308.4917,377.9531" style="stroke:#181818;stroke-width:1;"/><line style="stroke:#181818;stroke-width:1;stroke-dasharray:2,2;" x1="306.4917" x2="601.9922" y1="377.9531" y2="377.9531"/><text fill="#000000" font-family="sans-serif" font-size="13" lengthAdjust="spacing" textLength="248.498" x="327.9929" y="372.8872">200 OK [recommendations] (&#1080;&#1079; &#1082;&#1101;&#1096;&#1072;)</text></g><line style="stroke:#000000;stroke-width:1;stroke-dasharray:2,2;" x1="252.937" x2="1202.6157" y1="386.9531" y2="386.9531"/><text fill="#000000" font-family="sans-serif" font-size="11" font-weight="700" lengthAdjust="spacing" textLength="197.9517" x="257.937" y="397.1636">[&#1050;&#1101;&#1096; &#1091;&#1089;&#1090;&#1072;&#1088;&#1077;&#1083; &#1080;&#1083;&#1080; &#1086;&#1090;&#1089;&#1091;&#1090;&#1089;&#1090;&#1074;&#1091;&#1077;&#1090;]</text><g class="message" data-entity-1="part6" data-entity-2="part3" data-source-line="22" id="msg7"><polygon fill="#181818" points="613.9922,417.8906,603.9922,421.8906,613.9922,425.8906,609.9922,421.8906" style="stroke:#181818;stroke-width:1;"/><line style="stroke:#181818;stroke-width:1;stroke-dasharray:2,2;" x1="607.9922" x2="1161.3848" y1="421.8906" y2="421.8906"/><text fill="#000000" font-family="sans-serif" font-size="13" lengthAdjust="spacing" textLength="31.5542" x="866.9114" y="416.8247">MISS</text></g><g class="message" data-entity-1="part3" data-entity-2="part5" data-source-line="23" id="msg8"><polygon fill="#181818" points="1066.7773,462.1563,1076.7773,466.1563,1066.7773,470.1563,1070.7773,466.1563" style="stroke:#181818;stroke-width:1;"/><line style="stroke:#181818;stroke-width:1;" x1="602.9922" x2="1072.7773" y1="466.1563" y2="466.1563"/><text fill="#000000" font-family="sans-serif" font-size="13" lengthAdjust="spacing" textLength="148.2495" x="766.76" y="445.9575">SELECT student profile</text><text fill="#000000" font-family="sans-serif" font-size="13" lengthAdjust="spacing" textLength="192.0293" x="744.8701" y="461.0903">(skills, direction, course, gpa)</text></g><g class="message" data-entity-1="part5" data-entity-2="part3" data-source-line="24" id="msg9"><polygon fill="#181818" points="613.9922,491.2891,603.9922,495.2891,613.9922,499.2891,609.9922,495.2891" style="stroke:#181818;stroke-width:1;"/><line style="stroke:#181818;stroke-width:1;stroke-dasharray:2,2;" x1="607.9922" x2="1077.7773" y1="495.2891" y2="495.2891"/><text fill="#000000" font-family="sans-serif" font-size="13" lengthAdjust="spacing" textLength="85.4775" x="798.146" y="490.2231">student_data</text></g><g class="message" data-entity-1="part3" data-entity-2="part5" data-source-line="25" id="msg10"><polygon fill="#181818" points="1066.7773,520.4219,1076.7773,524.4219,1066.7773,528.4219,1070.7773,524.4219" style="stroke:#181818;stroke-width:1;"/><line style="stroke:#181818;stroke-width:1;" x1="602.9922" x2="1072.7773" y1="524.4219" y2="524.4219"/><text fill="#000000" font-family="sans-serif" font-size="13" lengthAdjust="spacing" textLength="184.9771" x="748.3962" y="519.356">SELECT published vacancies</text></g><g class="message" data-entity-1="part5" data-entity-2="part3" data-source-line="26" id="msg11"><polygon fill="#181818" points="613.9922,549.5547,603.9922,553.5547,613.9922,557.5547,609.9922,553.5547" style="stroke:#181818;stroke-width:1;"/><line style="stroke:#181818;stroke-width:1;stroke-dasharray:2,2;" x1="607.9922" x2="1077.7773" y1="553.5547" y2="553.5547"/><text fill="#000000" font-family="sans-serif" font-size="13" lengthAdjust="spacing" textLength="74.6865" x="803.5415" y="548.4888">[vacancies]</text></g><g class="message" data-entity-1="part3" data-entity-2="part4" data-source-line="27" id="msg12"><polygon fill="#181818" points="816.689,593.8203,826.689,597.8203,816.689,601.8203,820.689,597.8203" style="stroke:#181818;stroke-width:1;"/><line style="stroke:#181818;stroke-width:1;" x1="602.9922" x2="822.689" y1="597.8203" y2="597.8203"/><text fill="#000000" font-family="sans-serif" font-size="13" lengthAdjust="spacing" textLength="121.0371" x="655.322" y="577.6216">POST /recommend</text><text fill="#000000" font-family="sans-serif" font-size="13" lengthAdjust="spacing" textLength="174.8271" x="628.427" y="592.7544">{student_data, vacancies}</text></g><g class="message" data-entity-1="part4" data-entity-2="part4" data-source-line="28" id="msg13"><line style="stroke:#181818;stroke-width:1;" x1="828.689" x2="870.689" y1="657.2188" y2="657.2188"/><line style="stroke:#181818;stroke-width:1;" x1="870.689" x2="870.689" y1="657.2188" y2="670.2188"/><line style="stroke:#181818;stroke-width:1;" x1="829.689" x2="870.689" y1="670.2188" y2="670.2188"/><polygon fill="#181818" points="839.689,666.2188,829.689,670.2188,839.689,674.2188,835.689,670.2188" style="stroke:#181818;stroke-width:1;"/><text fill="#000000" font-family="sans-serif" font-size="13" lengthAdjust="spacing" textLength="145.6025" x="880.9319" y="621.8872">&#1056;&#1072;&#1089;&#1089;&#1095;&#1080;&#1090;&#1072;&#1090;&#1100; score &#1076;&#1083;&#1103;</text><text fill="#000000" font-family="sans-serif" font-size="13" lengthAdjust="spacing" textLength="236.0884" x="835.689" y="637.02">&#1082;&#1072;&#1078;&#1076;&#1086;&#1081; &#1074;&#1072;&#1082;&#1072;&#1085;&#1089;&#1080;&#1080; (cosine similarity</text><text fill="#000000" font-family="sans-serif" font-size="13" lengthAdjust="spacing" textLength="225.2783" x="841.094" y="652.1528">&#1085;&#1072;&#1074;&#1099;&#1082;&#1086;&#1074;, &#1085;&#1072;&#1087;&#1088;&#1072;&#1074;&#1083;&#1077;&#1085;&#1080;&#1077;, &#1091;&#1088;&#1086;&#1074;&#1077;&#1085;&#1100;)</text></g><g class="message" data-entity-1="part4" data-entity-2="part3" data-source-line="29" id="msg14"><polygon fill="#181818" points="613.9922,695.3516,603.9922,699.3516,613.9922,703.3516,609.9922,699.3516" style="stroke:#181818;stroke-width:1;"/><line style="stroke:#181818;stroke-width:1;stroke-dasharray:2,2;" x1="607.9922" x2="827.689" y1="699.3516" y2="699.3516"/><text fill="#000000" font-family="sans-serif" font-size="13" lengthAdjust="spacing" textLength="201.6968" x="614.9922" y="694.2856">[{vacancy_id, score, reasons}]</text></g><g class="message" data-entity-1="part3" data-entity-2="part5" data-source-line="30" id="msg15"><polygon fill="#181818" points="1066.7773,739.6172,1076.7773,743.6172,1066.7773,747.6172,1070.7773,743.6172" style="stroke:#181818;stroke-width:1;"/><line style="stroke:#181818;stroke-width:1;" x1="602.9922" x2="1072.7773" y1="743.6172" y2="743.6172"/><text fill="#000000" font-family="sans-serif" font-size="13" lengthAdjust="spacing" textLength="204.896" x="738.4368" y="723.4185">INSERT INTO recommendations</text><text fill="#000000" font-family="sans-serif" font-size="13" lengthAdjust="spacing" textLength="202.1665" x="739.8015" y="738.5513">(student_id, vacancy_id, score)</text></g><g class="message" data-entity-1="part3" data-entity-2="part6" data-source-line="31" id="msg16"><polygon fill="#181818" points="1150.3848,783.8828,1160.3848,787.8828,1150.3848,791.8828,1154.3848,787.8828" style="stroke:#181818;stroke-width:1;"/><line style="stroke:#181818;stroke-width:1;" x1="602.9922" x2="1156.3848" y1="787.8828" y2="787.8828"/><text fill="#000000" font-family="sans-serif" font-size="13" lengthAdjust="spacing" textLength="233.3018" x="766.0376" y="767.6841">SET recommendations:student:{id}</text><text fill="#000000" font-family="sans-serif" font-size="13" lengthAdjust="spacing" textLength="73.874" x="845.7515" y="782.8169">TTL=3600s</text></g><g class="message" data-entity-1="part6" data-entity-2="part3" data-source-line="32" id="msg17"><polygon fill="#181818" points="613.9922,813.0156,603.9922,817.0156,613.9922,821.0156,609.9922,817.0156" style="stroke:#181818;stroke-width:1;"/><line style="stroke:#181818;stroke-width:1;stroke-dasharray:2,2;" x1="607.9922" x2="1161.3848" y1="817.0156" y2="817.0156"/><text fill="#000000" font-family="sans-serif" font-size="13" lengthAdjust="spacing" textLength="15.4819" x="874.9475" y="811.9497">ok</text></g><g class="message" data-entity-1="part3" data-entity-2="part2" data-source-line="33" id="msg18"><polygon fill="#181818" points="312.4917,842.1484,302.4917,846.1484,312.4917,850.1484,308.4917,846.1484" style="stroke:#181818;stroke-width:1;"/><line style="stroke:#181818;stroke-width:1;stroke-dasharray:2,2;" x1="306.4917" x2="601.9922" y1="846.1484" y2="846.1484"/><text fill="#000000" font-family="sans-serif" font-size="13" lengthAdjust="spacing" textLength="179.8799" x="362.302" y="841.0825">200 OK [recommendations]</text></g><g class="message" data-entity-1="part2" data-entity-2="part1" data-source-line="35" id="msg19"><polygon fill="#181818" points="49.9087,893.4141,39.9087,897.4141,49.9087,901.4141,45.9087,897.4141" style="stroke:#181818;stroke-width:1;"/><line style="stroke:#181818;stroke-width:1;stroke-dasharray:2,2;" x1="43.9087" x2="300.4917" y1="897.4141" y2="897.4141"/><text fill="#000000" font-family="sans-serif" font-size="13" lengthAdjust="spacing" textLength="208.438" x="65.9812" y="877.2153">&#1055;&#1077;&#1088;&#1089;&#1086;&#1085;&#1072;&#1083;&#1080;&#1079;&#1080;&#1088;&#1086;&#1074;&#1072;&#1085;&#1085;&#1099;&#1081; &#1089;&#1087;&#1080;&#1089;&#1086;&#1082;</text><text fill="#000000" font-family="sans-serif" font-size="13" lengthAdjust="spacing" textLength="238.583" x="50.9087" y="892.3481">&#1074;&#1072;&#1082;&#1072;&#1085;&#1089;&#1080;&#1081; (&#1090;&#1086;&#1087;-10 &#1089; &#1086;&#1073;&#1098;&#1103;&#1089;&#1085;&#1077;&#1085;&#1080;&#1103;&#1084;&#1080;)</text></g><rect fill="#EEEEEE" height="3" style="stroke:#EEEEEE;stroke-width:1;" width="1212.6157" x="0" y="925.9805"/><line style="stroke:#000000;stroke-width:1;" x1="0" x2="1212.6157" y1="925.9805" y2="925.9805"/><line style="stroke:#000000;stroke-width:1;" x1="0" x2="1212.6157" y1="928.9805" y2="928.9805"/><rect fill="#EEEEEE" height="23.1328" style="stroke:#000000;stroke-width:2;" width="307.0332" x="452.7913" y="915.4141"/><text fill="#000000" font-family="sans-serif" font-size="13" font-weight="700" lengthAdjust="spacing" textLength="288.5073" x="458.7913" y="931.481">&#1055;&#1088;&#1086;&#1089;&#1084;&#1086;&#1090;&#1088; &#1088;&#1077;&#1082;&#1086;&#1084;&#1077;&#1085;&#1076;&#1086;&#1074;&#1072;&#1085;&#1085;&#1086;&#1081; &#1074;&#1072;&#1082;&#1072;&#1085;&#1089;&#1080;&#1080;</text><g class="message" data-entity-1="part1" data-entity-2="part2" data-source-line="38" id="msg20"><polygon fill="#181818" points="289.4917,965.6797,299.4917,969.6797,289.4917,973.6797,293.4917,969.6797" style="stroke:#181818;stroke-width:1;"/><line style="stroke:#181818;stroke-width:1;" x1="38.9087" x2="295.4917" y1="969.6797" y2="969.6797"/><text fill="#000000" font-family="sans-serif" font-size="13" lengthAdjust="spacing" textLength="199.5322" x="70.4341" y="964.6138">&#1053;&#1072;&#1078;&#1080;&#1084;&#1072;&#1077;&#1090; &#1085;&#1072; &#1088;&#1077;&#1082;&#1086;&#1084;&#1077;&#1085;&#1076;&#1072;&#1094;&#1080;&#1102;</text></g><g class="message" data-entity-1="part2" data-entity-2="part3" data-source-line="39" id="msg21"><polygon fill="#181818" points="590.9922,994.8125,600.9922,998.8125,590.9922,1002.8125,594.9922,998.8125" style="stroke:#181818;stroke-width:1;"/><line style="stroke:#181818;stroke-width:1;" x1="301.4917" x2="596.9922" y1="998.8125" y2="998.8125"/><text fill="#000000" font-family="sans-serif" font-size="13" lengthAdjust="spacing" textLength="277.5005" x="313.4917" y="993.7466">PATCH /api/recommendations/{id}/viewed</text></g><g class="message" data-entity-1="part3" data-entity-2="part5" data-source-line="40" id="msg22"><polygon fill="#181818" points="1066.7773,1023.9453,1076.7773,1027.9453,1066.7773,1031.9453,1070.7773,1027.9453" style="stroke:#181818;stroke-width:1;"/><line style="stroke:#181818;stroke-width:1;" x1="602.9922" x2="1072.7773" y1="1027.9453" y2="1027.9453"/><text fill="#000000" font-family="sans-serif" font-size="13" lengthAdjust="spacing" textLength="307.7598" x="687.0049" y="1022.8794">UPDATE recommendations SET is_viewed=true</text></g><g class="message" data-entity-1="part5" data-entity-2="part3" data-source-line="41" id="msg23"><polygon fill="#181818" points="613.9922,1053.0781,603.9922,1057.0781,613.9922,1061.0781,609.9922,1057.0781" style="stroke:#181818;stroke-width:1;"/><line style="stroke:#181818;stroke-width:1;stroke-dasharray:2,2;" x1="607.9922" x2="1077.7773" y1="1057.0781" y2="1057.0781"/><text fill="#000000" font-family="sans-serif" font-size="13" lengthAdjust="spacing" textLength="15.4819" x="833.1438" y="1052.0122">ok</text></g><g class="message" data-entity-1="part3" data-entity-2="part2" data-source-line="42" id="msg24"><polygon fill="#181818" points="312.4917,1082.2109,302.4917,1086.2109,312.4917,1090.2109,308.4917,1086.2109" style="stroke:#181818;stroke-width:1;"/><line style="stroke:#181818;stroke-width:1;stroke-dasharray:2,2;" x1="306.4917" x2="601.9922" y1="1086.2109" y2="1086.2109"/><text fill="#000000" font-family="sans-serif" font-size="13" lengthAdjust="spacing" textLength="47.7026" x="428.3906" y="1081.145">200 OK</text></g><?plantuml-src ZLN1RYD54BtFLvHoiYL7CI1nYEILxDY1G7RZzSoAmpgAUiUDQMKoOwR7YLPH9CUH5WGB4TAU410uSp5c0qwyTgJzWkvVu4jutPuupYIBa0_sJ5UzgdhlTJaHIS39vLzsUUXpgWhMZjaU_TDxHUedDT1z_PKQgOdwKqtLK7-hpadtrBcwnECRV4_KQmIzGCY8r50DS31G4tsC5nUE8tT5s646JwO57d8fMPkN0z4EoUTXmkE5g9ZBJXJAwwWA3wA3SXn71vJ4NUuup4-Yc9RKRsZh19LHN_UNY4bo7I0amXST5YQqj1v7W0vRpJ3NuCZAsw3rskse2lDt4KJb-WO2tKuimZPLeYWDhsJ26zoFzlQGm18HXStGvV6-06UvTIOJOCoo6gw30FQCIKvBzKWcxPYxZpVjMRMoSDRWBI5HTutvN_0qj-eufHAfCx0xrYUWtZ0yUZVf5rGgEIujFy1ij4hg5zrNbxe7dOmMvxfF-XXSzOmeQgHVw1Dw-xjw1V1JAvS-VZjsa0g0YW7ugERH2kk8bVZMhDAftCIeC-31383l6Rdfayyyig_6C87hFQdM7dbfGgEQWcRmLcNIRK7zrKFHEd9Oa93wKN-dloRZ82lk06YOb7AUjqbe_fpGlvdb1tMPTyWWBrztv1i6M_GqKsGROQQDQtRUBnPfwzExOPG3atyJ2gC3DSWxF80-QKDG0LN1b15WZ2Rib6gAJevnrhUdGpGCiZDjFTnmtRI51v0URzpQPctDetHuwiJHvoBWy02kG1380hK4cZDT5SYFkh7a1Mftc9aN-NFWD7_7UEdU0ftkiq18mya-yrde2oup44_d1zjpX8QBW_gM2mlCAMg6XulL2ZU0HsPQTvwdVZLkmWVhmlBLroz9-b4C9byRlpL3knl-mjCKliqiYn7b_4YAa9CKUo9WiKYU8sE20BDrZFE71RBFLzREmva_pEKe695IImBkPJxjR3xhuQpfvpkYLPZrL80XcOJuHzkt2TnuvDOQ7hwyhQndZKmf5GRd3cR-XiYgbUA_NTyCuUpI1nyMYpBZcsZtVnhNmKzxUn5eDJWpTn9yJYrHOsDhg36Znco02QYym4fGL-OouVKbECviRSf1lgcwMdwlY4WuNVsXlz6dE9pC2DUdM4AZVBgf33hEtjWRqRkxf-QbxrVzzlhwsHfaXEJPyZ9Zl6FrwUyNzrQzxArzVE_cMZ5Sh-mBVi1RpeBGJ-hLibVBAcHL4t9d5b-o_pgBrmRIt1NcNm00?></g></svg>