<svg xmlns="http://www.w3.org/2000/svg" xmlns:xlink="http://www.w3.org/1999/xlink" contentStyleType="text/css" data-diagram-type="ACTIVITY" height="1568px" preserveAspectRatio="none" style="width:2073px;height:1568px;background:#FFFFFF;" version="1.1" viewBox="0 0 2073 1568" width="2073px" zoomAndPan="magnify"><?plantuml 1.2026.4beta2?><defs/><g><g class="title" data-source-line="1"><text fill="#000000" font-family="sans-serif" font-size="14" font-weight="700" lengthAdjust="spacing" textLength="465.3701" x="802.9954" y="32.9951">Activity Diagram &#8212; &#1055;&#1091;&#1073;&#1083;&#1080;&#1082;&#1072;&#1094;&#1080;&#1103; &#1074;&#1072;&#1082;&#1072;&#1085;&#1089;&#1080;&#1080; &#1088;&#1072;&#1073;&#1086;&#1090;&#1086;&#1076;&#1072;&#1090;&#1077;&#1083;&#1077;&#1084;</text></g><rect fill="none" height="20.9531" style="stroke:none;stroke-width:1;" width="2026.3608" x="20" y="55.042"/><ellipse cx="420.0928" cy="90.9951" fill="#222222" rx="10" ry="10" style="stroke:#222222;stroke-width:1;"/><rect fill="#F1F1F1" height="33.9688" rx="12.5" ry="12.5" style="stroke:#181818;stroke-width:0.5;" width="173.2051" x="333.4902" y="120.9951"/><text fill="#000000" font-family="sans-serif" font-size="12" lengthAdjust="spacing" textLength="153.2051" x="343.4902" y="142.1338">&#1040;&#1074;&#1090;&#1086;&#1088;&#1080;&#1079;&#1091;&#1077;&#1090;&#1089;&#1103; &#1074; &#1089;&#1080;&#1089;&#1090;&#1077;&#1084;&#1077;</text><rect fill="#F1F1F1" height="33.9688" rx="12.5" ry="12.5" style="stroke:#181818;stroke-width:0.5;" width="260.293" x="289.9463" y="174.9639"/><text fill="#000000" font-family="sans-serif" font-size="12" lengthAdjust="spacing" textLength="240.293" x="299.9463" y="196.1025">&#1054;&#1090;&#1082;&#1088;&#1099;&#1074;&#1072;&#1077;&#1090; &#1092;&#1086;&#1088;&#1084;&#1091; &#1089;&#1086;&#1079;&#1076;&#1072;&#1085;&#1080;&#1103; &#1074;&#1072;&#1082;&#1072;&#1085;&#1089;&#1080;&#1080;</text><rect fill="#F1F1F1" height="47.9375" rx="12.5" ry="12.5" style="stroke:#181818;stroke-width:0.5;" width="238.9707" x="300.6074" y="228.9326"/><text fill="#000000" font-family="sans-serif" font-size="12" lengthAdjust="spacing" textLength="201.5977" x="310.6074" y="250.0713">&#1047;&#1072;&#1087;&#1086;&#1083;&#1085;&#1103;&#1077;&#1090; &#1085;&#1072;&#1079;&#1074;&#1072;&#1085;&#1080;&#1077;, &#1086;&#1087;&#1080;&#1089;&#1072;&#1085;&#1080;&#1077;,</text><text fill="#000000" font-family="sans-serif" font-size="12" lengthAdjust="spacing" textLength="218.9707" x="310.6074" y="264.04">&#1085;&#1072;&#1074;&#1099;&#1082;&#1080;, &#1079;&#1072;&#1088;&#1087;&#1083;&#1072;&#1090;&#1091;, &#1092;&#1086;&#1088;&#1084;&#1072;&#1090; &#1088;&#1072;&#1073;&#1086;&#1090;&#1099;</text><rect fill="#F1F1F1" height="33.9688" rx="12.5" ry="12.5" style="stroke:#181818;stroke-width:0.5;" width="234.9746" x="302.6055" y="296.8701"/><text fill="#000000" font-family="sans-serif" font-size="12" lengthAdjust="spacing" textLength="214.9746" x="312.6055" y="318.0088">&#1053;&#1072;&#1078;&#1080;&#1084;&#1072;&#1077;&#1090; &#171;&#1057;&#1086;&#1093;&#1088;&#1072;&#1085;&#1080;&#1090;&#1100; &#1095;&#1077;&#1088;&#1085;&#1086;&#1074;&#1080;&#1082;&#187;</text><path d="M541.8242,457.6279 L541.8242,466.1943 L521.8242,470.1943 L541.8242,474.1943 L541.8242,482.7607 A0,0 0 0 0 541.8242,482.7607 L718.2085,482.7607 A0,0 0 0 0 718.2085,482.7607 L718.2085,467.6279 L708.2085,457.6279 L541.8242,457.6279 A0,0 0 0 0 541.8242,457.6279" fill="#FEFFDD" style="stroke:#181818;stroke-width:0.5;"/><path d="M708.2085,457.6279 L708.2085,467.6279 L718.2085,467.6279 L708.2085,457.6279" fill="#FEFFDD" style="stroke:#181818;stroke-width:0.5;"/><text fill="#000000" font-family="sans-serif" font-size="13" lengthAdjust="spacing" textLength="155.3843" x="547.8242" y="474.6948">&#1042;&#1086;&#1079;&#1074;&#1088;&#1072;&#1090; &#1082; &#1079;&#1072;&#1087;&#1086;&#1083;&#1085;&#1077;&#1085;&#1080;&#1102;</text><rect fill="#F1F1F1" height="33.9688" rx="12.5" ry="12.5" style="stroke:#181818;stroke-width:0.5;" width="203.4629" x="318.3613" y="453.21"/><text fill="#000000" font-family="sans-serif" font-size="12" lengthAdjust="spacing" textLength="183.4629" x="328.3613" y="474.3486">&#1048;&#1089;&#1087;&#1088;&#1072;&#1074;&#1083;&#1103;&#1077;&#1090; &#1086;&#1096;&#1080;&#1073;&#1082;&#1080; &#1074; &#1092;&#1086;&#1088;&#1084;&#1077;</text><ellipse cx="420.0928" cy="533.1787" fill="none" rx="11" ry="11" style="stroke:#222222;stroke-width:1;"/><ellipse cx="420.0928" cy="533.1787" fill="#222222" rx="6" ry="6" style="stroke:#222222;stroke-width:1;"/><rect fill="#F1F1F1" height="47.9375" rx="12.5" ry="12.5" style="stroke:#181818;stroke-width:0.5;" width="152.6855" x="343.75" y="586.1787"/><text fill="#000000" font-family="sans-serif" font-size="12" lengthAdjust="spacing" textLength="132.6855" x="353.75" y="607.3174">&#1057;&#1086;&#1093;&#1088;&#1072;&#1085;&#1080;&#1090;&#1100; &#1074;&#1072;&#1082;&#1072;&#1085;&#1089;&#1080;&#1102;</text><text fill="#000000" font-family="sans-serif" font-size="12" lengthAdjust="spacing" textLength="119.6133" x="353.75" y="621.2861">&#1089;&#1086; &#1089;&#1090;&#1072;&#1090;&#1091;&#1089;&#1086;&#1084; DRAFT</text><rect fill="#F1F1F1" height="47.9375" rx="12.5" ry="12.5" style="stroke:#181818;stroke-width:0.5;" width="167.8965" x="336.1445" y="654.1162"/><text fill="#000000" font-family="sans-serif" font-size="12" lengthAdjust="spacing" textLength="147.8965" x="346.1445" y="675.2549">&#1042;&#1077;&#1088;&#1085;&#1091;&#1090;&#1100; &#1088;&#1072;&#1073;&#1086;&#1090;&#1086;&#1076;&#1072;&#1090;&#1077;&#1083;&#1102;</text><text fill="#000000" font-family="sans-serif" font-size="12" lengthAdjust="spacing" textLength="81.5156" x="346.1445" y="689.2236">id &#1095;&#1077;&#1088;&#1085;&#1086;&#1074;&#1080;&#1082;&#1072;</text><rect fill="#F1F1F1" height="33.9688" rx="12.5" ry="12.5" style="stroke:#181818;stroke-width:0.5;" width="181.4023" x="329.3916" y="722.0537"/><text fill="#000000" font-family="sans-serif" font-size="12" lengthAdjust="spacing" textLength="161.4023" x="339.3916" y="743.1924">&#1055;&#1088;&#1086;&#1089;&#1084;&#1072;&#1090;&#1088;&#1080;&#1074;&#1072;&#1077;&#1090; &#1095;&#1077;&#1088;&#1085;&#1086;&#1074;&#1080;&#1082;</text><rect fill="#F1F1F1" height="33.9688" rx="12.5" ry="12.5" style="stroke:#181818;stroke-width:0.5;" width="254.5039" x="292.8408" y="776.0225"/><text fill="#000000" font-family="sans-serif" font-size="12" lengthAdjust="spacing" textLength="234.5039" x="302.8408" y="797.1611">&#1053;&#1072;&#1078;&#1080;&#1084;&#1072;&#1077;&#1090; &#171;&#1054;&#1090;&#1087;&#1088;&#1072;&#1074;&#1080;&#1090;&#1100; &#1085;&#1072; &#1087;&#1088;&#1086;&#1074;&#1077;&#1088;&#1082;&#1091;&#187;</text><rect fill="#F1F1F1" height="33.9688" rx="12.5" ry="12.5" style="stroke:#181818;stroke-width:0.5;" width="265.7305" x="26" y="1373.6787"/><text fill="#000000" font-family="sans-serif" font-size="12" lengthAdjust="spacing" textLength="245.7305" x="36" y="1394.8174">&#1055;&#1086;&#1083;&#1091;&#1095;&#1072;&#1077;&#1090; &#1091;&#1074;&#1077;&#1076;&#1086;&#1084;&#1083;&#1077;&#1085;&#1080;&#1077; &#1086;&#1073; &#1086;&#1090;&#1082;&#1083;&#1086;&#1085;&#1077;&#1085;&#1080;&#1080;</text><path d="M262.1572,1453.0186 L262.1572,1461.585 L242.1572,1465.585 L262.1572,1469.585 L262.1572,1478.1514 A0,0 0 0 0 262.1572,1478.1514 L528.4053,1478.1514 A0,0 0 0 0 528.4053,1478.1514 L528.4053,1463.0186 L518.4053,1453.0186 L262.1572,1453.0186 A0,0 0 0 0 262.1572,1453.0186" fill="#FEFFDD" style="stroke:#181818;stroke-width:0.5;"/><path d="M518.4053,1453.0186 L518.4053,1463.0186 L528.4053,1463.0186 L518.4053,1453.0186" fill="#FEFFDD" style="stroke:#181818;stroke-width:0.5;"/><text fill="#000000" font-family="sans-serif" font-size="13" lengthAdjust="spacing" textLength="245.248" x="268.1572" y="1470.0854">&#1055;&#1086;&#1074;&#1090;&#1086;&#1088;&#1085;&#1072;&#1103; &#1086;&#1090;&#1087;&#1088;&#1072;&#1074;&#1082;&#1072; &#1085;&#1072; &#1084;&#1086;&#1076;&#1077;&#1088;&#1072;&#1094;&#1080;&#1102;</text><rect fill="#F1F1F1" height="47.9375" rx="12.5" ry="12.5" style="stroke:#181818;stroke-width:0.5;" width="166.584" x="75.5732" y="1441.6162"/><text fill="#000000" font-family="sans-serif" font-size="12" lengthAdjust="spacing" textLength="146.584" x="85.5732" y="1462.7549">&#1056;&#1077;&#1076;&#1072;&#1082;&#1090;&#1080;&#1088;&#1091;&#1077;&#1090; &#1074;&#1072;&#1082;&#1072;&#1085;&#1089;&#1080;&#1102;</text><text fill="#000000" font-family="sans-serif" font-size="12" lengthAdjust="spacing" textLength="137.3965" x="85.5732" y="1476.7236">&#1089;&#1086;&#1075;&#1083;&#1072;&#1089;&#1085;&#1086; &#1079;&#1072;&#1084;&#1077;&#1095;&#1072;&#1085;&#1080;&#1103;&#1084;</text><ellipse cx="158.8652" cy="1520.5537" fill="none" rx="11" ry="11" style="stroke:#222222;stroke-width:1;"/><ellipse cx="158.8652" cy="1520.5537" fill="#222222" rx="6" ry="6" style="stroke:#222222;stroke-width:1;"/><rect fill="#F1F1F1" height="33.9688" rx="12.5" ry="12.5" style="stroke:#181818;stroke-width:0.5;" width="265.8301" x="548.4053" y="1455.585"/><text fill="#000000" font-family="sans-serif" font-size="12" lengthAdjust="spacing" textLength="245.8301" x="558.4053" y="1476.7236">&#1055;&#1086;&#1083;&#1091;&#1095;&#1072;&#1077;&#1090; &#1087;&#1086;&#1076;&#1090;&#1074;&#1077;&#1088;&#1078;&#1076;&#1077;&#1085;&#1080;&#1077; &#1087;&#1091;&#1073;&#1083;&#1080;&#1082;&#1072;&#1094;&#1080;&#1080;</text><ellipse cx="681.3203" cy="1520.5537" fill="none" rx="11" ry="11" style="stroke:#222222;stroke-width:1;"/><ellipse cx="681.3203" cy="1520.5537" fill="#222222" rx="6" ry="6" style="stroke:#222222;stroke-width:1;"/><line style="stroke:#000000;stroke-width:1.5;" x1="20" x2="20" y1="55.042" y2="1547.5537"/><rect fill="#F1F1F1" height="33.9688" rx="12.5" ry="12.5" style="stroke:#181818;stroke-width:0.5;" width="192.0488" x="1078.2773" y="350.8389"/><text fill="#000000" font-family="sans-serif" font-size="12" lengthAdjust="spacing" textLength="172.0488" x="1088.2773" y="371.9775">&#1042;&#1072;&#1083;&#1080;&#1076;&#1080;&#1088;&#1086;&#1074;&#1072;&#1090;&#1100; &#1087;&#1086;&#1083;&#1103; &#1092;&#1086;&#1088;&#1084;&#1099;</text><polygon fill="#F1F1F1" points="1091.3318,404.8076,1257.2717,404.8076,1269.2717,416.8076,1257.2717,428.8076,1091.3318,428.8076,1079.3318,416.8076,1091.3318,404.8076" style="stroke:#181818;stroke-width:0.5;"/><text fill="#000000" font-family="sans-serif" font-size="11" lengthAdjust="spacing" textLength="21.4468" x="1178.3018" y="439.0181">&#1053;&#1077;&#1090;</text><text fill="#000000" font-family="sans-serif" font-size="11" lengthAdjust="spacing" textLength="165.9399" x="1091.3318" y="420.6157">&#1055;&#1086;&#1083;&#1103; &#1079;&#1072;&#1087;&#1086;&#1083;&#1085;&#1077;&#1085;&#1099; &#1082;&#1086;&#1088;&#1088;&#1077;&#1082;&#1090;&#1085;&#1086;?</text><text fill="#000000" font-family="sans-serif" font-size="11" lengthAdjust="spacing" textLength="15.3345" x="1269.2717" y="414.2134">&#1044;&#1072;</text><rect fill="#F1F1F1" height="33.9688" rx="12.5" ry="12.5" style="stroke:#181818;stroke-width:0.5;" width="256.6543" x="1045.9746" y="829.9912"/><text fill="#000000" font-family="sans-serif" font-size="12" lengthAdjust="spacing" textLength="236.6543" x="1055.9746" y="851.1299">&#1048;&#1079;&#1084;&#1077;&#1085;&#1080;&#1090;&#1100; &#1089;&#1090;&#1072;&#1090;&#1091;&#1089; &#1085;&#1072; ON_MODERATION</text><rect fill="#F1F1F1" height="33.9688" rx="12.5" ry="12.5" style="stroke:#181818;stroke-width:0.5;" width="261.4414" x="1043.5811" y="883.96"/><text fill="#000000" font-family="sans-serif" font-size="12" lengthAdjust="spacing" textLength="241.4414" x="1053.5811" y="905.0986">&#1057;&#1086;&#1079;&#1076;&#1072;&#1090;&#1100; &#1079;&#1072;&#1076;&#1072;&#1095;&#1091; &#1074; &#1086;&#1095;&#1077;&#1088;&#1077;&#1076;&#1080; &#1084;&#1086;&#1076;&#1077;&#1088;&#1072;&#1094;&#1080;&#1080;</text><rect fill="#F1F1F1" height="33.9688" rx="12.5" ry="12.5" style="stroke:#181818;stroke-width:0.5;" width="168.4824" x="1090.0605" y="937.9287"/><text fill="#000000" font-family="sans-serif" font-size="12" lengthAdjust="spacing" textLength="148.4824" x="1100.0605" y="959.0674">&#1059;&#1074;&#1077;&#1076;&#1086;&#1084;&#1080;&#1090;&#1100; &#1084;&#1086;&#1076;&#1077;&#1088;&#1072;&#1090;&#1086;&#1088;&#1072;</text><rect fill="#F1F1F1" height="33.9688" rx="12.5" ry="12.5" style="stroke:#181818;stroke-width:0.5;" width="209.3457" x="824.2354" y="1251.7725"/><text fill="#000000" font-family="sans-serif" font-size="12" lengthAdjust="spacing" textLength="189.3457" x="834.2354" y="1272.9111">&#1048;&#1079;&#1084;&#1077;&#1085;&#1080;&#1090;&#1100; &#1089;&#1090;&#1072;&#1090;&#1091;&#1089; &#1085;&#1072; REJECTED</text><rect fill="#F1F1F1" height="47.9375" rx="12.5" ry="12.5" style="stroke:#181818;stroke-width:0.5;" width="189.1836" x="834.3164" y="1305.7412"/><text fill="#000000" font-family="sans-serif" font-size="12" lengthAdjust="spacing" textLength="161.0918" x="844.3164" y="1326.8799">&#1059;&#1074;&#1077;&#1076;&#1086;&#1084;&#1080;&#1090;&#1100; &#1088;&#1072;&#1073;&#1086;&#1090;&#1086;&#1076;&#1072;&#1090;&#1077;&#1083;&#1103;</text><text fill="#000000" font-family="sans-serif" font-size="12" lengthAdjust="spacing" textLength="169.1836" x="844.3164" y="1340.8486">&#1086;&#1073; &#1086;&#1090;&#1082;&#1083;&#1086;&#1085;&#1077;&#1085;&#1080;&#1080; &#1089; &#1087;&#1088;&#1080;&#1095;&#1080;&#1085;&#1086;&#1081;</text><rect fill="#F1F1F1" height="33.9688" rx="12.5" ry="12.5" style="stroke:#181818;stroke-width:0.5;" width="217.7129" x="1315.0225" y="1197.8037"/><text fill="#000000" font-family="sans-serif" font-size="12" lengthAdjust="spacing" textLength="197.7129" x="1325.0225" y="1218.9424">&#1048;&#1079;&#1084;&#1077;&#1085;&#1080;&#1090;&#1100; &#1089;&#1090;&#1072;&#1090;&#1091;&#1089; &#1085;&#1072; PUBLISHED</text><rect fill="#F1F1F1" height="33.9688" rx="12.5" ry="12.5" style="stroke:#181818;stroke-width:0.5;" width="187.748" x="1330.0049" y="1251.7725"/><text fill="#000000" font-family="sans-serif" font-size="12" lengthAdjust="spacing" textLength="167.748" x="1340.0049" y="1272.9111">&#1047;&#1072;&#1087;&#1080;&#1089;&#1072;&#1090;&#1100; &#1089;&#1086;&#1073;&#1099;&#1090;&#1080;&#1077; &#1074; &#1072;&#1091;&#1076;&#1080;&#1090;</text><rect fill="#F1F1F1" height="47.9375" rx="12.5" ry="12.5" style="stroke:#181818;stroke-width:0.5;" width="181.4492" x="1333.1543" y="1305.7412"/><text fill="#000000" font-family="sans-serif" font-size="12" lengthAdjust="spacing" textLength="161.0918" x="1343.1543" y="1326.8799">&#1059;&#1074;&#1077;&#1076;&#1086;&#1084;&#1080;&#1090;&#1100; &#1088;&#1072;&#1073;&#1086;&#1090;&#1086;&#1076;&#1072;&#1090;&#1077;&#1083;&#1103;</text><text fill="#000000" font-family="sans-serif" font-size="12" lengthAdjust="spacing" textLength="161.4492" x="1343.1543" y="1340.8486">&#1086;&#1073; &#1091;&#1089;&#1087;&#1077;&#1096;&#1085;&#1086;&#1081; &#1087;&#1091;&#1073;&#1083;&#1080;&#1082;&#1072;&#1094;&#1080;&#1080;</text><rect fill="#F1F1F1" height="47.9375" rx="12.5" ry="12.5" style="stroke:#181818;stroke-width:0.5;" width="209.3047" x="1319.2266" y="1373.6787"/><text fill="#000000" font-family="sans-serif" font-size="12" lengthAdjust="spacing" textLength="189.3047" x="1329.2266" y="1394.8174">&#1057;&#1076;&#1077;&#1083;&#1072;&#1090;&#1100; &#1074;&#1072;&#1082;&#1072;&#1085;&#1089;&#1080;&#1102; &#1076;&#1086;&#1089;&#1090;&#1091;&#1087;&#1085;&#1086;&#1081;</text><text fill="#000000" font-family="sans-serif" font-size="12" lengthAdjust="spacing" textLength="164.9648" x="1329.2266" y="1408.7861">&#1074; &#1082;&#1072;&#1090;&#1072;&#1083;&#1086;&#1075;&#1077; &#1076;&#1083;&#1103; &#1089;&#1090;&#1091;&#1076;&#1077;&#1085;&#1090;&#1086;&#1074;</text><line style="stroke:#000000;stroke-width:1.5;" x1="818.2354" x2="818.2354" y1="55.042" y2="1547.5537"/><rect fill="#F1F1F1" height="33.9688" rx="12.5" ry="12.5" style="stroke:#181818;stroke-width:0.5;" width="168.0957" x="1823.9561" y="991.8975"/><text fill="#000000" font-family="sans-serif" font-size="12" lengthAdjust="spacing" textLength="148.0957" x="1833.9561" y="1013.0361">&#1055;&#1086;&#1083;&#1091;&#1095;&#1072;&#1077;&#1090; &#1091;&#1074;&#1077;&#1076;&#1086;&#1084;&#1083;&#1077;&#1085;&#1080;&#1077;</text><rect fill="#F1F1F1" height="33.9688" rx="12.5" ry="12.5" style="stroke:#181818;stroke-width:0.5;" width="222.3711" x="1796.8184" y="1045.8662"/><text fill="#000000" font-family="sans-serif" font-size="12" lengthAdjust="spacing" textLength="202.3711" x="1806.8184" y="1067.0049">&#1054;&#1090;&#1082;&#1088;&#1099;&#1074;&#1072;&#1077;&#1090; &#1074;&#1072;&#1082;&#1072;&#1085;&#1089;&#1080;&#1102; &#1074; &#1086;&#1095;&#1077;&#1088;&#1077;&#1076;&#1080;</text><rect fill="#F1F1F1" height="33.9688" rx="12.5" ry="12.5" style="stroke:#181818;stroke-width:0.5;" width="232.7715" x="1791.6182" y="1099.835"/><text fill="#000000" font-family="sans-serif" font-size="12" lengthAdjust="spacing" textLength="212.7715" x="1801.6182" y="1120.9736">&#1055;&#1088;&#1086;&#1074;&#1077;&#1088;&#1103;&#1077;&#1090; &#1089;&#1086;&#1076;&#1077;&#1088;&#1078;&#1072;&#1085;&#1080;&#1077; &#1074;&#1072;&#1082;&#1072;&#1085;&#1089;&#1080;&#1080;</text><polygon fill="#F1F1F1" points="1803.8423,1153.8037,2012.1655,1153.8037,2024.1655,1165.8037,2012.1655,1177.8037,1803.8423,1177.8037,1791.8423,1165.8037,1803.8423,1153.8037" style="stroke:#181818;stroke-width:0.5;"/><text fill="#000000" font-family="sans-serif" font-size="11" lengthAdjust="spacing" textLength="208.3232" x="1803.8423" y="1169.6118">&#1042;&#1072;&#1082;&#1072;&#1085;&#1089;&#1080;&#1103; &#1089;&#1086;&#1086;&#1090;&#1074;&#1077;&#1090;&#1089;&#1090;&#1074;&#1091;&#1077;&#1090; &#1087;&#1088;&#1072;&#1074;&#1080;&#1083;&#1072;&#1084;?</text><text fill="#000000" font-family="sans-serif" font-size="11" lengthAdjust="spacing" textLength="21.4468" x="1770.3955" y="1163.2095">&#1053;&#1077;&#1090;</text><text fill="#000000" font-family="sans-serif" font-size="11" lengthAdjust="spacing" textLength="15.3345" x="2024.1655" y="1163.2095">&#1044;&#1072;</text><rect fill="#F1F1F1" height="33.9688" rx="12.5" ry="12.5" style="stroke:#181818;stroke-width:0.5;" width="217.6602" x="1542.7354" y="1197.8037"/><text fill="#000000" font-family="sans-serif" font-size="12" lengthAdjust="spacing" textLength="197.6602" x="1552.7354" y="1218.9424">&#1042;&#1099;&#1073;&#1080;&#1088;&#1072;&#1077;&#1090; &#1087;&#1088;&#1080;&#1095;&#1080;&#1085;&#1091; &#1086;&#1090;&#1082;&#1083;&#1086;&#1085;&#1077;&#1085;&#1080;&#1103;</text><line style="stroke:#000000;stroke-width:1.5;" x1="1536.7354" x2="1536.7354" y1="55.042" y2="1547.5537"/><line style="stroke:#000000;stroke-width:1.5;" x1="2044.5" x2="2044.5" y1="55.042" y2="1547.5537"/><line style="stroke:#181818;stroke-width:1;" x1="420.0928" x2="420.0928" y1="100.9951" y2="120.9951"/><polygon fill="#181818" points="416.0928,110.9951,420.0928,120.9951,424.0928,110.9951,420.0928,114.9951" style="stroke:#181818;stroke-width:1;"/><line style="stroke:#181818;stroke-width:1;" x1="420.0928" x2="420.0928" y1="154.9639" y2="174.9639"/><polygon fill="#181818" points="416.0928,164.9639,420.0928,174.9639,424.0928,164.9639,420.0928,168.9639" style="stroke:#181818;stroke-width:1;"/><line style="stroke:#181818;stroke-width:1;" x1="420.0928" x2="420.0928" y1="208.9326" y2="228.9326"/><polygon fill="#181818" points="416.0928,218.9326,420.0928,228.9326,424.0928,218.9326,420.0928,222.9326" style="stroke:#181818;stroke-width:1;"/><line style="stroke:#181818;stroke-width:1;" x1="420.0928" x2="420.0928" y1="276.8701" y2="296.8701"/><polygon fill="#181818" points="416.0928,286.8701,420.0928,296.8701,424.0928,286.8701,420.0928,290.8701" style="stroke:#181818;stroke-width:1;"/><line style="stroke:#181818;stroke-width:1;" x1="420.0928" x2="420.0928" y1="487.1787" y2="522.1787"/><polygon fill="#181818" points="416.0928,512.1787,420.0928,522.1787,424.0928,512.1787,420.0928,516.1787" style="stroke:#181818;stroke-width:1;"/><line style="stroke:#181818;stroke-width:1;" x1="420.0928" x2="420.0928" y1="634.1162" y2="654.1162"/><polygon fill="#181818" points="416.0928,644.1162,420.0928,654.1162,424.0928,644.1162,420.0928,648.1162" style="stroke:#181818;stroke-width:1;"/><line style="stroke:#181818;stroke-width:1;" x1="420.0928" x2="420.0928" y1="702.0537" y2="722.0537"/><polygon fill="#181818" points="416.0928,712.0537,420.0928,722.0537,424.0928,712.0537,420.0928,716.0537" style="stroke:#181818;stroke-width:1;"/><line style="stroke:#181818;stroke-width:1;" x1="420.0928" x2="420.0928" y1="756.0225" y2="776.0225"/><polygon fill="#181818" points="416.0928,766.0225,420.0928,776.0225,424.0928,766.0225,420.0928,770.0225" style="stroke:#181818;stroke-width:1;"/><line style="stroke:#181818;stroke-width:1;" x1="158.8652" x2="158.8652" y1="1407.6475" y2="1441.6162"/><polygon fill="#181818" points="154.8652,1431.6162,158.8652,1441.6162,162.8652,1431.6162,158.8652,1435.6162" style="stroke:#181818;stroke-width:1;"/><line style="stroke:#181818;stroke-width:1;" x1="158.8652" x2="158.8652" y1="1489.5537" y2="1509.5537"/><polygon fill="#181818" points="154.8652,1499.5537,158.8652,1509.5537,162.8652,1499.5537,158.8652,1503.5537" style="stroke:#181818;stroke-width:1;"/><line style="stroke:#181818;stroke-width:1;" x1="681.3203" x2="681.3203" y1="1489.5537" y2="1509.5537"/><polygon fill="#181818" points="677.3203,1499.5537,681.3203,1509.5537,685.3203,1499.5537,681.3203,1503.5537" style="stroke:#181818;stroke-width:1;"/><line style="stroke:#181818;stroke-width:1;" x1="1269.2717" x2="1470.7671" y1="416.8076" y2="416.8076"/><polygon fill="#181818" points="1466.7671,494.4443,1470.7671,504.4443,1474.7671,494.4443,1470.7671,498.4443" style="stroke:#181818;stroke-width:1;"/><line style="stroke:#181818;stroke-width:1;" x1="1470.7671" x2="1470.7671" y1="416.8076" y2="571.1787"/><line style="stroke:#181818;stroke-width:1;" x1="1470.7671" x2="420.0928" y1="571.1787" y2="571.1787"/><line style="stroke:#181818;stroke-width:1;" x1="420.0928" x2="420.0928" y1="571.1787" y2="586.1787"/><polygon fill="#181818" points="416.0928,576.1787,420.0928,586.1787,424.0928,576.1787,420.0928,580.1787" style="stroke:#181818;stroke-width:1;"/><line style="stroke:#181818;stroke-width:1;" x1="1174.3018" x2="1174.3018" y1="384.8076" y2="404.8076"/><polygon fill="#181818" points="1170.3018,394.8076,1174.3018,404.8076,1178.3018,394.8076,1174.3018,398.8076" style="stroke:#181818;stroke-width:1;"/><line style="stroke:#181818;stroke-width:1;" x1="1174.3018" x2="1174.3018" y1="863.96" y2="883.96"/><polygon fill="#181818" points="1170.3018,873.96,1174.3018,883.96,1178.3018,873.96,1174.3018,877.96" style="stroke:#181818;stroke-width:1;"/><line style="stroke:#181818;stroke-width:1;" x1="1174.3018" x2="1174.3018" y1="917.9287" y2="937.9287"/><polygon fill="#181818" points="1170.3018,927.9287,1174.3018,937.9287,1178.3018,927.9287,1174.3018,931.9287" style="stroke:#181818;stroke-width:1;"/><line style="stroke:#181818;stroke-width:1;" x1="928.9082" x2="928.9082" y1="1285.7412" y2="1305.7412"/><polygon fill="#181818" points="924.9082,1295.7412,928.9082,1305.7412,932.9082,1295.7412,928.9082,1299.7412" style="stroke:#181818;stroke-width:1;"/><line style="stroke:#181818;stroke-width:1;" x1="1423.8789" x2="1423.8789" y1="1231.7725" y2="1251.7725"/><polygon fill="#181818" points="1419.8789,1241.7725,1423.8789,1251.7725,1427.8789,1241.7725,1423.8789,1245.7725" style="stroke:#181818;stroke-width:1;"/><line style="stroke:#181818;stroke-width:1;" x1="1423.8789" x2="1423.8789" y1="1285.7412" y2="1305.7412"/><polygon fill="#181818" points="1419.8789,1295.7412,1423.8789,1305.7412,1427.8789,1295.7412,1423.8789,1299.7412" style="stroke:#181818;stroke-width:1;"/><line style="stroke:#181818;stroke-width:1;" x1="1423.8789" x2="1423.8789" y1="1353.6787" y2="1373.6787"/><polygon fill="#181818" points="1419.8789,1363.6787,1423.8789,1373.6787,1427.8789,1363.6787,1423.8789,1367.6787" style="stroke:#181818;stroke-width:1;"/><line style="stroke:#181818;stroke-width:1;" x1="1908.0039" x2="1908.0039" y1="1025.8662" y2="1045.8662"/><polygon fill="#181818" points="1904.0039,1035.8662,1908.0039,1045.8662,1912.0039,1035.8662,1908.0039,1039.8662" style="stroke:#181818;stroke-width:1;"/><line style="stroke:#181818;stroke-width:1;" x1="1908.0039" x2="1908.0039" y1="1079.835" y2="1099.835"/><polygon fill="#181818" points="1904.0039,1089.835,1908.0039,1099.835,1912.0039,1089.835,1908.0039,1093.835" style="stroke:#181818;stroke-width:1;"/><line style="stroke:#181818;stroke-width:1;" x1="1791.8423" x2="1651.5654" y1="1165.8037" y2="1165.8037"/><line style="stroke:#181818;stroke-width:1;" x1="1651.5654" x2="1651.5654" y1="1165.8037" y2="1197.8037"/><polygon fill="#181818" points="1647.5654,1187.8037,1651.5654,1197.8037,1655.5654,1187.8037,1651.5654,1191.8037" style="stroke:#181818;stroke-width:1;"/><line style="stroke:#181818;stroke-width:1;" x1="1908.0039" x2="1908.0039" y1="1133.8037" y2="1153.8037"/><polygon fill="#181818" points="1904.0039,1143.8037,1908.0039,1153.8037,1912.0039,1143.8037,1908.0039,1147.8037" style="stroke:#181818;stroke-width:1;"/><line style="stroke:#181818;stroke-width:1;" x1="420.0928" x2="420.0928" y1="330.8389" y2="335.8389"/><line style="stroke:#181818;stroke-width:1;" x1="420.0928" x2="1174.3018" y1="335.8389" y2="335.8389"/><line style="stroke:#181818;stroke-width:1;" x1="1174.3018" x2="1174.3018" y1="335.8389" y2="350.8389"/><polygon fill="#181818" points="1170.3018,340.8389,1174.3018,350.8389,1178.3018,340.8389,1174.3018,344.8389" style="stroke:#181818;stroke-width:1;"/><line style="stroke:#181818;stroke-width:1;" x1="1174.3018" x2="1174.3018" y1="428.8076" y2="441.0088"/><line style="stroke:#181818;stroke-width:1;" x1="1174.3018" x2="420.0928" y1="441.0088" y2="441.0088"/><line style="stroke:#181818;stroke-width:1;" x1="420.0928" x2="420.0928" y1="441.0088" y2="453.21"/><polygon fill="#181818" points="416.0928,443.21,420.0928,453.21,424.0928,443.21,420.0928,447.21" style="stroke:#181818;stroke-width:1;"/><line style="stroke:#181818;stroke-width:1;" x1="420.0928" x2="420.0928" y1="809.9912" y2="814.9912"/><line style="stroke:#181818;stroke-width:1;" x1="420.0928" x2="1174.3018" y1="814.9912" y2="814.9912"/><line style="stroke:#181818;stroke-width:1;" x1="1174.3018" x2="1174.3018" y1="814.9912" y2="829.9912"/><polygon fill="#181818" points="1170.3018,819.9912,1174.3018,829.9912,1178.3018,819.9912,1174.3018,823.9912" style="stroke:#181818;stroke-width:1;"/><line style="stroke:#181818;stroke-width:1;" x1="1174.3018" x2="1174.3018" y1="971.8975" y2="976.8975"/><line style="stroke:#181818;stroke-width:1;" x1="1174.3018" x2="1908.0039" y1="976.8975" y2="976.8975"/><line style="stroke:#181818;stroke-width:1;" x1="1908.0039" x2="1908.0039" y1="976.8975" y2="991.8975"/><polygon fill="#181818" points="1904.0039,981.8975,1908.0039,991.8975,1912.0039,981.8975,1908.0039,985.8975" style="stroke:#181818;stroke-width:1;"/><line style="stroke:#181818;stroke-width:1;" x1="1651.5654" x2="1651.5654" y1="1231.7725" y2="1236.7725"/><line style="stroke:#181818;stroke-width:1;" x1="1651.5654" x2="928.9082" y1="1236.7725" y2="1236.7725"/><line style="stroke:#181818;stroke-width:1;" x1="928.9082" x2="928.9082" y1="1236.7725" y2="1251.7725"/><polygon fill="#181818" points="924.9082,1241.7725,928.9082,1251.7725,932.9082,1241.7725,928.9082,1245.7725" style="stroke:#181818;stroke-width:1;"/><line style="stroke:#181818;stroke-width:1;" x1="928.9082" x2="928.9082" y1="1353.6787" y2="1358.6787"/><line style="stroke:#181818;stroke-width:1;" x1="928.9082" x2="158.8652" y1="1358.6787" y2="1358.6787"/><line style="stroke:#181818;stroke-width:1;" x1="158.8652" x2="158.8652" y1="1358.6787" y2="1373.6787"/><polygon fill="#181818" points="154.8652,1363.6787,158.8652,1373.6787,162.8652,1363.6787,158.8652,1367.6787" style="stroke:#181818;stroke-width:1;"/><line style="stroke:#181818;stroke-width:1;" x1="1423.8789" x2="1423.8789" y1="1421.6162" y2="1438.085"/><line style="stroke:#181818;stroke-width:1;" x1="1423.8789" x2="681.3203" y1="1438.085" y2="1438.085"/><line style="stroke:#181818;stroke-width:1;" x1="681.3203" x2="681.3203" y1="1438.085" y2="1455.585"/><polygon fill="#181818" points="677.3203,1445.585,681.3203,1455.585,685.3203,1445.585,681.3203,1449.585" style="stroke:#181818;stroke-width:1;"/><line style="stroke:#181818;stroke-width:1;" x1="2024.1655" x2="2036.1655" y1="1165.8037" y2="1165.8037"/><line style="stroke:#181818;stroke-width:1;" x1="2036.1655" x2="2036.1655" y1="1165.8037" y2="1183.8037"/><line style="stroke:#181818;stroke-width:1;" x1="2036.1655" x2="1423.8789" y1="1183.8037" y2="1183.8037"/><line style="stroke:#181818;stroke-width:1;" x1="1423.8789" x2="1423.8789" y1="1183.8037" y2="1197.8037"/><polygon fill="#181818" points="1419.8789,1187.8037,1423.8789,1197.8037,1427.8789,1187.8037,1423.8789,1191.8037" style="stroke:#181818;stroke-width:1;"/><text fill="#000000" font-family="sans-serif" font-size="18" lengthAdjust="spacing" textLength="132.6445" x="352.7954" y="71.75">&#1056;&#1072;&#1073;&#1086;&#1090;&#1086;&#1076;&#1072;&#1090;&#1077;&#1083;&#1100;</text><text fill="#000000" font-family="sans-serif" font-size="18" lengthAdjust="spacing" textLength="177.7061" x="1088.6323" y="71.75">&#1057;&#1080;&#1089;&#1090;&#1077;&#1084;&#1072; (Backend)</text><text fill="#000000" font-family="sans-serif" font-size="18" lengthAdjust="spacing" textLength="105.4424" x="1737.8965" y="71.75">&#1052;&#1086;&#1076;&#1077;&#1088;&#1072;&#1090;&#1086;&#1088;</text><?plantuml-src hLRDJXDH5DxtASwI9Zn1Ps70reXHC8Wx4jD0WKOi1YOc9Ypweq1IGWqXaOK8nAMRwTY1sfOsuGdEVGMVnE-SErDAEmL3tFNEFJ_V-RvppgsRTzTpDBNavZ_atO-KpcTNDxFlw4_nYFZKLBZERMvoYpspmqrJ8_RPaoDVcH8kccIAEDIvQyhSvGRioXp09-1E8h7DPt6NPdyxiULcDzr4Yh-mBvU8qkHBv0jCsPGq3qa2_1QN3WSEZB_Zq395KrKKC2NpINqxfYBcNRwKB7mL2rKYVCMn1xisFjOq0emzkFdMZOD9mdLFClU_B1RKo4VU5ZTXS8bAYZ1gIqMcCjc78US1HanLSfxWU850dH3pzKy-n-rdjHEePRDFPXTtHHoxW0B2hzkEy7S-G8574zFPfRUvmd9o6s4FuItQD61IL3TF8zdwK7-V6w38hz04duONWZzY0P6lJ9LG66nX7O3Wii1ub2HtBLU0sucWJYQ8xf2JACN7eAodHVcInhBRDNl0M1VYLDE8AEX9LDXmSxIPNrrpAKKeIFJp9O9ujaPmej03U6sv6-yJkVMj7B0TiPTCW97y2XWPPVLs2vY3nO9q2IcbAfqsJOVIyrDF5XmbLLN0XOeIsziI9hyyeXXxpfqTdy8yGITar3RHZk-tyL2iCMqZ_Hyn71Q8nYJz9fuIesKgz_VECQZjX9HgeGE4s9XpiszUpAKpyrCBCtEpZYNNJfVDAzB8OHUJ1rrHboqXa7ua19Vg0zLo9ng-7m8Hdy5u17_Gpgu1o-AtuU_Ad_Pl1Pb2rYe30Tksd76BOhWJHa4xaKAMoB21jK4iaeje8SHi5fslmrifQjPNEi4Frnf-sHL7DpBA4k5EpBIX6O6_hjFjtJWrWRaf7KeQkWN_RdyyQewEwLZbTKplrNu-yoppU26JTjH-LBKnOr73dknoFGQNF1EbM_1nzzkvVwNyc-8qDgsju4nTFDriO3EI87Oty2_TwYM1QBiSN6b-vPSxetjBG4QF6EYJ1TiT6DIMJAYEwT1Gn2-p_w3VozVJpsTUFOq4j6-UFcYXW_1bgiA6DZFXegBlIFc1akiYxQ6qFIkjQ3tqto4Iurme25_E_PYnRCYAb6eGJsCXXKyQfQmldaWKY9s-STQqeS-OOFCVq5NwnZJ2EPKvRznqrfWwh6poxlm5?></g></svg>