<svg xmlns="http://www.w3.org/2000/svg" xmlns:xlink="http://www.w3.org/1999/xlink" contentStyleType="text/css" data-diagram-type="ACTIVITY" height="1817px" preserveAspectRatio="none" style="width:836px;height:1817px;background:#FFFFFF;" version="1.1" viewBox="0 0 836 1817" width="836px" zoomAndPan="magnify"><?plantuml 1.2026.4beta2?><defs/><g><g class="title" data-source-line="1"><text fill="#000000" font-family="sans-serif" font-size="14" font-weight="700" lengthAdjust="spacing" textLength="400.8662" x="216.9221" y="32.9951">Activity Diagram &#8212; &#1054;&#1090;&#1082;&#1083;&#1080;&#1082; &#1089;&#1090;&#1091;&#1076;&#1077;&#1085;&#1090;&#1072; &#1085;&#1072; &#1074;&#1072;&#1082;&#1072;&#1085;&#1089;&#1080;&#1102;</text></g><rect fill="none" height="20.9531" style="stroke:none;stroke-width:1;" width="789.7104" x="20" y="55.042"/><ellipse cx="167.6221" cy="90.9951" fill="#222222" rx="10" ry="10" style="stroke:#222222;stroke-width:1;"/><rect fill="#F1F1F1" height="33.9688" rx="12.5" ry="12.5" style="stroke:#181818;stroke-width:0.5;" width="174.8633" x="80.1904" y="120.9951"/><text fill="#000000" font-family="sans-serif" font-size="12" lengthAdjust="spacing" textLength="154.8633" x="90.1904" y="142.1338">&#1040;&#1074;&#1090;&#1086;&#1088;&#1080;&#1079;&#1091;&#1077;&#1090;&#1089;&#1103; &#1095;&#1077;&#1088;&#1077;&#1079; SSO</text><rect fill="#F1F1F1" height="33.9688" rx="12.5" ry="12.5" style="stroke:#181818;stroke-width:0.5;" width="206.5332" x="64.3555" y="174.9639"/><text fill="#000000" font-family="sans-serif" font-size="12" lengthAdjust="spacing" textLength="186.5332" x="74.3555" y="196.1025">&#1054;&#1090;&#1082;&#1088;&#1099;&#1074;&#1072;&#1077;&#1090; &#1082;&#1072;&#1090;&#1072;&#1083;&#1086;&#1075; &#1074;&#1072;&#1082;&#1072;&#1085;&#1089;&#1080;&#1081;</text><rect fill="#F1F1F1" height="47.9375" rx="12.5" ry="12.5" style="stroke:#181818;stroke-width:0.5;" width="241.1152" x="47.0645" y="228.9326"/><text fill="#000000" font-family="sans-serif" font-size="12" lengthAdjust="spacing" textLength="221.1152" x="57.0645" y="250.0713">&#1047;&#1072;&#1076;&#1072;&#1105;&#1090; &#1092;&#1080;&#1083;&#1100;&#1090;&#1088;&#1099; (&#1085;&#1072;&#1074;&#1099;&#1082;&#1080;, &#1092;&#1086;&#1088;&#1084;&#1072;&#1090;,</text><text fill="#000000" font-family="sans-serif" font-size="12" lengthAdjust="spacing" textLength="154.043" x="57.0645" y="264.04">&#1085;&#1072;&#1087;&#1088;&#1072;&#1074;&#1083;&#1077;&#1085;&#1080;&#1077;, &#1079;&#1072;&#1088;&#1087;&#1083;&#1072;&#1090;&#1072;)</text><rect fill="#F1F1F1" height="33.9688" rx="12.5" ry="12.5" style="stroke:#181818;stroke-width:0.5;" width="228.3184" x="53.4629" y="418.7764"/><text fill="#000000" font-family="sans-serif" font-size="12" lengthAdjust="spacing" textLength="208.3184" x="63.4629" y="439.915">&#1055;&#1088;&#1086;&#1089;&#1084;&#1072;&#1090;&#1088;&#1080;&#1074;&#1072;&#1077;&#1090; &#1089;&#1087;&#1080;&#1089;&#1086;&#1082; &#1074;&#1072;&#1082;&#1072;&#1085;&#1089;&#1080;&#1081;</text><rect fill="#F1F1F1" height="33.9688" rx="12.5" ry="12.5" style="stroke:#181818;stroke-width:0.5;" width="214.2617" x="60.4912" y="472.7451"/><text fill="#000000" font-family="sans-serif" font-size="12" lengthAdjust="spacing" textLength="194.2617" x="70.4912" y="493.8838">&#1054;&#1090;&#1082;&#1088;&#1099;&#1074;&#1072;&#1077;&#1090; &#1082;&#1072;&#1088;&#1090;&#1086;&#1095;&#1082;&#1091; &#1074;&#1072;&#1082;&#1072;&#1085;&#1089;&#1080;&#1080;</text><rect fill="#F1F1F1" height="33.9688" rx="12.5" ry="12.5" style="stroke:#181818;stroke-width:0.5;" width="197.7734" x="68.7354" y="575.1162"/><text fill="#000000" font-family="sans-serif" font-size="12" lengthAdjust="spacing" textLength="177.7734" x="78.7354" y="596.2549">&#1042;&#1099;&#1073;&#1080;&#1088;&#1072;&#1077;&#1090; &#1076;&#1088;&#1091;&#1075;&#1091;&#1102; &#1074;&#1072;&#1082;&#1072;&#1085;&#1089;&#1080;&#1102;</text><ellipse cx="167.6221" cy="648.6006" fill="none" rx="11" ry="11" style="stroke:#222222;stroke-width:1;"/><ellipse cx="167.6221" cy="648.6006" fill="#222222" rx="6" ry="6" style="stroke:#222222;stroke-width:1;"/><polygon fill="#F1F1F1" points="107.6511,526.7139,227.593,526.7139,239.593,538.7139,227.593,550.7139,107.6511,550.7139,95.6511,538.7139,107.6511,526.7139" style="stroke:#181818;stroke-width:0.5;"/><text fill="#000000" font-family="sans-serif" font-size="11" lengthAdjust="spacing" textLength="21.4468" x="171.6221" y="560.9243">&#1053;&#1077;&#1090;</text><text fill="#000000" font-family="sans-serif" font-size="11" lengthAdjust="spacing" textLength="119.9419" x="107.6511" y="542.522">&#1042;&#1072;&#1082;&#1072;&#1085;&#1089;&#1080;&#1103; &#1087;&#1086;&#1076;&#1093;&#1086;&#1076;&#1080;&#1090;?</text><text fill="#000000" font-family="sans-serif" font-size="11" lengthAdjust="spacing" textLength="15.3345" x="239.593" y="536.1196">&#1044;&#1072;</text><rect fill="#F1F1F1" height="33.9688" rx="12.5" ry="12.5" style="stroke:#181818;stroke-width:0.5;" width="283.2441" x="26" y="750.0029"/><text fill="#000000" font-family="sans-serif" font-size="12" lengthAdjust="spacing" textLength="263.2441" x="36" y="771.1416">&#1042;&#1080;&#1076;&#1080;&#1090; &#1089;&#1086;&#1086;&#1073;&#1097;&#1077;&#1085;&#1080;&#1077; &#171;&#1042;&#1099; &#1091;&#1078;&#1077; &#1086;&#1090;&#1082;&#1083;&#1080;&#1082;&#1072;&#1083;&#1080;&#1089;&#1100;&#187;</text><ellipse cx="167.6221" cy="823.4873" fill="none" rx="11" ry="11" style="stroke:#222222;stroke-width:1;"/><ellipse cx="167.6221" cy="823.4873" fill="#222222" rx="6" ry="6" style="stroke:#222222;stroke-width:1;"/><polygon fill="#F1F1F1" points="91.8064,701.6006,243.4377,701.6006,255.4377,713.6006,243.4377,725.6006,91.8064,725.6006,79.8064,713.6006,91.8064,701.6006" style="stroke:#181818;stroke-width:0.5;"/><text fill="#000000" font-family="sans-serif" font-size="11" lengthAdjust="spacing" textLength="15.3345" x="171.6221" y="735.811">&#1044;&#1072;</text><text fill="#000000" font-family="sans-serif" font-size="11" lengthAdjust="spacing" textLength="151.6313" x="91.8064" y="717.4087">&#1057;&#1090;&#1091;&#1076;&#1077;&#1085;&#1090; &#1091;&#1078;&#1077; &#1086;&#1090;&#1082;&#1083;&#1080;&#1082;&#1072;&#1083;&#1089;&#1103;?</text><text fill="#000000" font-family="sans-serif" font-size="11" lengthAdjust="spacing" textLength="21.4468" x="255.4377" y="711.0063">&#1053;&#1077;&#1090;</text><rect fill="#F1F1F1" height="33.9688" rx="12.5" ry="12.5" style="stroke:#181818;stroke-width:0.5;" width="193.4902" x="70.877" y="876.4873"/><text fill="#000000" font-family="sans-serif" font-size="12" lengthAdjust="spacing" textLength="173.4902" x="80.877" y="897.626">&#1053;&#1072;&#1078;&#1080;&#1084;&#1072;&#1077;&#1090; &#171;&#1054;&#1090;&#1082;&#1083;&#1080;&#1082;&#1085;&#1091;&#1090;&#1100;&#1089;&#1103;&#187;</text><rect fill="#F1F1F1" height="47.9375" rx="12.5" ry="12.5" style="stroke:#181818;stroke-width:0.5;" width="221.4395" x="56.9023" y="930.4561"/><text fill="#000000" font-family="sans-serif" font-size="12" lengthAdjust="spacing" textLength="201.4395" x="66.9023" y="951.5947">&#1055;&#1088;&#1080;&#1082;&#1083;&#1072;&#1076;&#1099;&#1074;&#1072;&#1077;&#1090; &#1088;&#1077;&#1079;&#1102;&#1084;&#1077; &#1080; &#1087;&#1080;&#1096;&#1077;&#1090;</text><text fill="#000000" font-family="sans-serif" font-size="12" lengthAdjust="spacing" textLength="168.4629" x="66.9023" y="965.5635">&#1089;&#1086;&#1087;&#1088;&#1086;&#1074;&#1086;&#1076;&#1080;&#1090;&#1077;&#1083;&#1100;&#1085;&#1086;&#1077; &#1087;&#1080;&#1089;&#1100;&#1084;&#1086;</text><rect fill="#F1F1F1" height="33.9688" rx="12.5" ry="12.5" style="stroke:#181818;stroke-width:0.5;" width="224.6855" x="55.2793" y="1222.6709"/><text fill="#000000" font-family="sans-serif" font-size="12" lengthAdjust="spacing" textLength="204.6855" x="65.2793" y="1243.8096">&#1055;&#1086;&#1083;&#1091;&#1095;&#1072;&#1077;&#1090; &#1089;&#1086;&#1086;&#1073;&#1097;&#1077;&#1085;&#1080;&#1077; &#1086;&#1073; &#1086;&#1096;&#1080;&#1073;&#1082;&#1077;</text><ellipse cx="167.6221" cy="1287.6396" fill="none" rx="11" ry="11" style="stroke:#222222;stroke-width:1;"/><ellipse cx="167.6221" cy="1287.6396" fill="#222222" rx="6" ry="6" style="stroke:#222222;stroke-width:1;"/><rect fill="#F1F1F1" height="47.9375" rx="12.5" ry="12.5" style="stroke:#181818;stroke-width:0.5;" width="189.541" x="72.8516" y="1340.6396"/><text fill="#000000" font-family="sans-serif" font-size="12" lengthAdjust="spacing" textLength="169.541" x="82.8516" y="1361.7783">&#1057;&#1086;&#1079;&#1076;&#1072;&#1090;&#1100; &#1079;&#1072;&#1087;&#1080;&#1089;&#1100; Application</text><text fill="#000000" font-family="sans-serif" font-size="12" lengthAdjust="spacing" textLength="108.0176" x="82.8516" y="1375.7471">&#1089;&#1086; &#1089;&#1090;&#1072;&#1090;&#1091;&#1089;&#1086;&#1084; NEW</text><rect fill="#F1F1F1" height="33.9688" rx="12.5" ry="12.5" style="stroke:#181818;stroke-width:0.5;" width="187.748" x="73.748" y="1408.5771"/><text fill="#000000" font-family="sans-serif" font-size="12" lengthAdjust="spacing" textLength="167.748" x="83.748" y="1429.7158">&#1047;&#1072;&#1087;&#1080;&#1089;&#1072;&#1090;&#1100; &#1089;&#1086;&#1073;&#1099;&#1090;&#1080;&#1077; &#1074; &#1072;&#1091;&#1076;&#1080;&#1090;</text><rect fill="#F1F1F1" height="47.9375" rx="12.5" ry="12.5" style="stroke:#181818;stroke-width:0.5;" width="271.9824" x="31.6309" y="1462.5459"/><text fill="#000000" font-family="sans-serif" font-size="12" lengthAdjust="spacing" textLength="251.9824" x="41.6309" y="1483.6846">&#1054;&#1090;&#1087;&#1088;&#1072;&#1074;&#1080;&#1090;&#1100; &#1091;&#1074;&#1077;&#1076;&#1086;&#1084;&#1083;&#1077;&#1085;&#1080;&#1077; &#1088;&#1072;&#1073;&#1086;&#1090;&#1086;&#1076;&#1072;&#1090;&#1077;&#1083;&#1102;</text><text fill="#000000" font-family="sans-serif" font-size="12" lengthAdjust="spacing" textLength="105.3047" x="41.6309" y="1497.6533">&#1086; &#1085;&#1086;&#1074;&#1086;&#1084; &#1086;&#1090;&#1082;&#1083;&#1080;&#1082;&#1077;</text><rect fill="#F1F1F1" height="33.9688" rx="12.5" ry="12.5" style="stroke:#181818;stroke-width:0.5;" width="194.9492" x="70.1475" y="1652.3896"/><text fill="#000000" font-family="sans-serif" font-size="12" lengthAdjust="spacing" textLength="174.9492" x="80.1475" y="1673.5283">&#1042;&#1080;&#1076;&#1080;&#1090; &#171;&#1054;&#1090;&#1082;&#1083;&#1080;&#1082; &#1086;&#1090;&#1087;&#1088;&#1072;&#1074;&#1083;&#1077;&#1085;&#187;</text><rect fill="#F1F1F1" height="47.9375" rx="12.5" ry="12.5" style="stroke:#181818;stroke-width:0.5;" width="182.873" x="76.1855" y="1706.3584"/><text fill="#000000" font-family="sans-serif" font-size="12" lengthAdjust="spacing" textLength="125.9063" x="86.1855" y="1727.4971">&#1057;&#1083;&#1077;&#1076;&#1080;&#1090; &#1079;&#1072; &#1089;&#1090;&#1072;&#1090;&#1091;&#1089;&#1086;&#1084;</text><text fill="#000000" font-family="sans-serif" font-size="12" lengthAdjust="spacing" textLength="162.873" x="86.1855" y="1741.4658">&#1074; &#1088;&#1072;&#1079;&#1076;&#1077;&#1083;&#1077; &#171;&#1052;&#1086;&#1080; &#1086;&#1090;&#1082;&#1083;&#1080;&#1082;&#1080;&#187;</text><ellipse cx="167.6221" cy="1785.2959" fill="none" rx="11" ry="11" style="stroke:#222222;stroke-width:1;"/><ellipse cx="167.6221" cy="1785.2959" fill="#222222" rx="6" ry="6" style="stroke:#222222;stroke-width:1;"/><line style="stroke:#000000;stroke-width:1.5;" x1="20" x2="20" y1="55.042" y2="1796.2959"/><rect fill="#F1F1F1" height="33.9688" rx="12.5" ry="12.5" style="stroke:#181818;stroke-width:0.5;" width="217.2793" x="376.3594" y="296.8701"/><text fill="#000000" font-family="sans-serif" font-size="12" lengthAdjust="spacing" textLength="197.2793" x="386.3594" y="318.0088">&#1042;&#1099;&#1087;&#1086;&#1083;&#1085;&#1103;&#1077;&#1090; &#1087;&#1086;&#1080;&#1089;&#1082; &#1087;&#1086; &#1092;&#1080;&#1083;&#1100;&#1090;&#1088;&#1072;&#1084;</text><rect fill="#F1F1F1" height="47.9375" rx="12.5" ry="12.5" style="stroke:#181818;stroke-width:0.5;" width="227.7324" x="371.1328" y="350.8389"/><text fill="#000000" font-family="sans-serif" font-size="12" lengthAdjust="spacing" textLength="207.7324" x="381.1328" y="371.9775">&#1042;&#1086;&#1079;&#1074;&#1088;&#1072;&#1097;&#1072;&#1077;&#1090; &#1089;&#1087;&#1080;&#1089;&#1086;&#1082; &#1087;&#1086;&#1076;&#1093;&#1086;&#1076;&#1103;&#1097;&#1080;&#1093;</text><text fill="#000000" font-family="sans-serif" font-size="12" lengthAdjust="spacing" textLength="169.3242" x="381.1328" y="385.9463">&#1086;&#1087;&#1091;&#1073;&#1083;&#1080;&#1082;&#1086;&#1074;&#1072;&#1085;&#1085;&#1099;&#1093; &#1074;&#1072;&#1082;&#1072;&#1085;&#1089;&#1080;&#1081;</text><rect fill="#F1F1F1" height="33.9688" rx="12.5" ry="12.5" style="stroke:#181818;stroke-width:0.5;" width="281.5098" x="344.2441" y="998.3936"/><text fill="#000000" font-family="sans-serif" font-size="12" lengthAdjust="spacing" textLength="261.5098" x="354.2441" y="1019.5322">&#1055;&#1088;&#1086;&#1074;&#1077;&#1088;&#1080;&#1090;&#1100; &#1072;&#1074;&#1090;&#1086;&#1088;&#1080;&#1079;&#1072;&#1094;&#1080;&#1102; &#1080; &#1088;&#1086;&#1083;&#1100; STUDENT</text><rect fill="#F1F1F1" height="47.9375" rx="12.5" ry="12.5" style="stroke:#181818;stroke-width:0.5;" width="261.8281" x="354.085" y="1052.3623"/><text fill="#000000" font-family="sans-serif" font-size="12" lengthAdjust="spacing" textLength="241.8281" x="364.085" y="1073.501">&#1055;&#1088;&#1086;&#1074;&#1077;&#1088;&#1080;&#1090;&#1100; &#1086;&#1090;&#1089;&#1091;&#1090;&#1089;&#1090;&#1074;&#1080;&#1077; &#1076;&#1091;&#1073;&#1083;&#1080;&#1088;&#1091;&#1102;&#1097;&#1077;&#1075;&#1086;</text><text fill="#000000" font-family="sans-serif" font-size="12" lengthAdjust="spacing" textLength="83.959" x="364.085" y="1087.4697">&#1086;&#1090;&#1082;&#1083;&#1080;&#1082;&#1072; &#1074; &#1041;&#1044;</text><rect fill="#F1F1F1" height="33.9688" rx="12.5" ry="12.5" style="stroke:#181818;stroke-width:0.5;" width="199.9824" x="385.0078" y="1168.7021"/><text fill="#000000" font-family="sans-serif" font-size="12" lengthAdjust="spacing" textLength="179.9824" x="395.0078" y="1189.8408">&#1042;&#1077;&#1088;&#1085;&#1091;&#1090;&#1100; &#1086;&#1096;&#1080;&#1073;&#1082;&#1091; 409 Conflict</text><polygon fill="#F1F1F1" points="449.7781,1120.2998,520.22,1120.2998,532.22,1132.2998,520.22,1144.2998,449.7781,1144.2998,437.7781,1132.2998,449.7781,1120.2998" style="stroke:#181818;stroke-width:0.5;"/><text fill="#000000" font-family="sans-serif" font-size="11" lengthAdjust="spacing" textLength="15.3345" x="488.999" y="1154.5103">&#1044;&#1072;</text><text fill="#000000" font-family="sans-serif" font-size="11" lengthAdjust="spacing" textLength="70.4419" x="449.7781" y="1136.1079">&#1044;&#1091;&#1073;&#1083;&#1100; &#1077;&#1089;&#1090;&#1100;?</text><text fill="#000000" font-family="sans-serif" font-size="11" lengthAdjust="spacing" textLength="21.4468" x="532.22" y="1129.7056">&#1053;&#1077;&#1090;</text><rect fill="#F1F1F1" height="47.9375" rx="12.5" ry="12.5" style="stroke:#181818;stroke-width:0.5;" width="218.3867" x="375.8057" y="1584.4521"/><text fill="#000000" font-family="sans-serif" font-size="12" lengthAdjust="spacing" textLength="114.3633" x="385.8057" y="1605.5908">&#1042;&#1077;&#1088;&#1085;&#1091;&#1090;&#1100; &#1089;&#1090;&#1091;&#1076;&#1077;&#1085;&#1090;&#1091;</text><text fill="#000000" font-family="sans-serif" font-size="12" lengthAdjust="spacing" textLength="198.3867" x="385.8057" y="1619.5596">&#1087;&#1086;&#1076;&#1090;&#1074;&#1077;&#1088;&#1078;&#1076;&#1077;&#1085;&#1080;&#1077; (application_id)</text><line style="stroke:#000000;stroke-width:1.5;" x1="338.2441" x2="338.2441" y1="55.042" y2="1796.2959"/><rect fill="#F1F1F1" height="33.9688" rx="12.5" ry="12.5" style="stroke:#181818;stroke-width:0.5;" width="168.0957" x="635.7539" y="1530.4834"/><text fill="#000000" font-family="sans-serif" font-size="12" lengthAdjust="spacing" textLength="148.0957" x="645.7539" y="1551.6221">&#1055;&#1086;&#1083;&#1091;&#1095;&#1072;&#1077;&#1090; &#1091;&#1074;&#1077;&#1076;&#1086;&#1084;&#1083;&#1077;&#1085;&#1080;&#1077;</text><line style="stroke:#000000;stroke-width:1.5;" x1="629.7539" x2="629.7539" y1="55.042" y2="1796.2959"/><line style="stroke:#000000;stroke-width:1.5;" x1="807.8496" x2="807.8496" y1="55.042" y2="1796.2959"/><line style="stroke:#181818;stroke-width:1;" x1="167.6221" x2="167.6221" y1="100.9951" y2="120.9951"/><polygon fill="#181818" points="163.6221,110.9951,167.6221,120.9951,171.6221,110.9951,167.6221,114.9951" style="stroke:#181818;stroke-width:1;"/><line style="stroke:#181818;stroke-width:1;" x1="167.6221" x2="167.6221" y1="154.9639" y2="174.9639"/><polygon fill="#181818" points="163.6221,164.9639,167.6221,174.9639,171.6221,164.9639,167.6221,168.9639" style="stroke:#181818;stroke-width:1;"/><line style="stroke:#181818;stroke-width:1;" x1="167.6221" x2="167.6221" y1="208.9326" y2="228.9326"/><polygon fill="#181818" points="163.6221,218.9326,167.6221,228.9326,171.6221,218.9326,167.6221,222.9326" style="stroke:#181818;stroke-width:1;"/><line style="stroke:#181818;stroke-width:1;" x1="167.6221" x2="167.6221" y1="452.7451" y2="472.7451"/><polygon fill="#181818" points="163.6221,462.7451,167.6221,472.7451,171.6221,462.7451,167.6221,466.7451" style="stroke:#181818;stroke-width:1;"/><line style="stroke:#181818;stroke-width:1;" x1="167.6221" x2="167.6221" y1="609.085" y2="637.6006"/><polygon fill="#181818" points="163.6221,627.6006,167.6221,637.6006,171.6221,627.6006,167.6221,631.6006" style="stroke:#181818;stroke-width:1;"/><line style="stroke:#181818;stroke-width:1;" x1="167.6221" x2="167.6221" y1="550.7139" y2="575.1162"/><polygon fill="#181818" points="163.6221,565.1162,167.6221,575.1162,171.6221,565.1162,167.6221,569.1162" style="stroke:#181818;stroke-width:1;"/><line style="stroke:#181818;stroke-width:1;" x1="239.593" x2="276.5088" y1="538.7139" y2="538.7139"/><polygon fill="#181818" points="272.5088,607.6006,276.5088,617.6006,280.5088,607.6006,276.5088,611.6006" style="stroke:#181818;stroke-width:1;"/><line style="stroke:#181818;stroke-width:1;" x1="276.5088" x2="276.5088" y1="538.7139" y2="681.6006"/><line style="stroke:#181818;stroke-width:1;" x1="276.5088" x2="167.6221" y1="681.6006" y2="681.6006"/><line style="stroke:#181818;stroke-width:1;" x1="167.6221" x2="167.6221" y1="681.6006" y2="701.6006"/><polygon fill="#181818" points="163.6221,691.6006,167.6221,701.6006,171.6221,691.6006,167.6221,695.6006" style="stroke:#181818;stroke-width:1;"/><line style="stroke:#181818;stroke-width:1;" x1="167.6221" x2="167.6221" y1="506.7139" y2="526.7139"/><polygon fill="#181818" points="163.6221,516.7139,167.6221,526.7139,171.6221,516.7139,167.6221,520.7139" style="stroke:#181818;stroke-width:1;"/><line style="stroke:#181818;stroke-width:1;" x1="167.6221" x2="167.6221" y1="783.9717" y2="812.4873"/><polygon fill="#181818" points="163.6221,802.4873,167.6221,812.4873,171.6221,802.4873,167.6221,806.4873" style="stroke:#181818;stroke-width:1;"/><line style="stroke:#181818;stroke-width:1;" x1="167.6221" x2="167.6221" y1="725.6006" y2="750.0029"/><polygon fill="#181818" points="163.6221,740.0029,167.6221,750.0029,171.6221,740.0029,167.6221,744.0029" style="stroke:#181818;stroke-width:1;"/><line style="stroke:#181818;stroke-width:1;" x1="255.4377" x2="319.2441" y1="713.6006" y2="713.6006"/><polygon fill="#181818" points="315.2441,782.4873,319.2441,792.4873,323.2441,782.4873,319.2441,786.4873" style="stroke:#181818;stroke-width:1;"/><line style="stroke:#181818;stroke-width:1;" x1="319.2441" x2="319.2441" y1="713.6006" y2="856.4873"/><line style="stroke:#181818;stroke-width:1;" x1="319.2441" x2="167.6221" y1="856.4873" y2="856.4873"/><line style="stroke:#181818;stroke-width:1;" x1="167.6221" x2="167.6221" y1="856.4873" y2="876.4873"/><polygon fill="#181818" points="163.6221,866.4873,167.6221,876.4873,171.6221,866.4873,167.6221,870.4873" style="stroke:#181818;stroke-width:1;"/><line style="stroke:#181818;stroke-width:1;" x1="167.6221" x2="167.6221" y1="910.4561" y2="930.4561"/><polygon fill="#181818" points="163.6221,920.4561,167.6221,930.4561,171.6221,920.4561,167.6221,924.4561" style="stroke:#181818;stroke-width:1;"/><line style="stroke:#181818;stroke-width:1;" x1="167.6221" x2="167.6221" y1="1256.6396" y2="1276.6396"/><polygon fill="#181818" points="163.6221,1266.6396,167.6221,1276.6396,171.6221,1266.6396,167.6221,1270.6396" style="stroke:#181818;stroke-width:1;"/><line style="stroke:#181818;stroke-width:1;" x1="167.6221" x2="167.6221" y1="1388.5771" y2="1408.5771"/><polygon fill="#181818" points="163.6221,1398.5771,167.6221,1408.5771,171.6221,1398.5771,167.6221,1402.5771" style="stroke:#181818;stroke-width:1;"/><line style="stroke:#181818;stroke-width:1;" x1="167.6221" x2="167.6221" y1="1442.5459" y2="1462.5459"/><polygon fill="#181818" points="163.6221,1452.5459,167.6221,1462.5459,171.6221,1452.5459,167.6221,1456.5459" style="stroke:#181818;stroke-width:1;"/><line style="stroke:#181818;stroke-width:1;" x1="167.6221" x2="167.6221" y1="1686.3584" y2="1706.3584"/><polygon fill="#181818" points="163.6221,1696.3584,167.6221,1706.3584,171.6221,1696.3584,167.6221,1700.3584" style="stroke:#181818;stroke-width:1;"/><line style="stroke:#181818;stroke-width:1;" x1="167.6221" x2="167.6221" y1="1754.2959" y2="1774.2959"/><polygon fill="#181818" points="163.6221,1764.2959,167.6221,1774.2959,171.6221,1764.2959,167.6221,1768.2959" style="stroke:#181818;stroke-width:1;"/><line style="stroke:#181818;stroke-width:1;" x1="484.999" x2="484.999" y1="330.8389" y2="350.8389"/><polygon fill="#181818" points="480.999,340.8389,484.999,350.8389,488.999,340.8389,484.999,344.8389" style="stroke:#181818;stroke-width:1;"/><line style="stroke:#181818;stroke-width:1;" x1="484.999" x2="484.999" y1="1032.3623" y2="1052.3623"/><polygon fill="#181818" points="480.999,1042.3623,484.999,1052.3623,488.999,1042.3623,484.999,1046.3623" style="stroke:#181818;stroke-width:1;"/><line style="stroke:#181818;stroke-width:1;" x1="484.999" x2="484.999" y1="1144.2998" y2="1168.7021"/><polygon fill="#181818" points="480.999,1158.7021,484.999,1168.7021,488.999,1158.7021,484.999,1162.7021" style="stroke:#181818;stroke-width:1;"/><line style="stroke:#181818;stroke-width:1;" x1="532.22" x2="607.3418" y1="1132.2998" y2="1132.2998"/><polygon fill="#181818" points="603.3418,1229.4209,607.3418,1239.4209,611.3418,1229.4209,607.3418,1233.4209" style="stroke:#181818;stroke-width:1;"/><line style="stroke:#181818;stroke-width:1;" x1="607.3418" x2="607.3418" y1="1132.2998" y2="1325.6396"/><line style="stroke:#181818;stroke-width:1;" x1="607.3418" x2="167.6221" y1="1325.6396" y2="1325.6396"/><line style="stroke:#181818;stroke-width:1;" x1="167.6221" x2="167.6221" y1="1325.6396" y2="1340.6396"/><polygon fill="#181818" points="163.6221,1330.6396,167.6221,1340.6396,171.6221,1330.6396,167.6221,1334.6396" style="stroke:#181818;stroke-width:1;"/><line style="stroke:#181818;stroke-width:1;" x1="484.999" x2="484.999" y1="1100.2998" y2="1120.2998"/><polygon fill="#181818" points="480.999,1110.2998,484.999,1120.2998,488.999,1110.2998,484.999,1114.2998" style="stroke:#181818;stroke-width:1;"/><line style="stroke:#181818;stroke-width:1;" x1="167.6221" x2="167.6221" y1="276.8701" y2="281.8701"/><line style="stroke:#181818;stroke-width:1;" x1="167.6221" x2="484.999" y1="281.8701" y2="281.8701"/><line style="stroke:#181818;stroke-width:1;" x1="484.999" x2="484.999" y1="281.8701" y2="296.8701"/><polygon fill="#181818" points="480.999,286.8701,484.999,296.8701,488.999,286.8701,484.999,290.8701" style="stroke:#181818;stroke-width:1;"/><line style="stroke:#181818;stroke-width:1;" x1="484.999" x2="484.999" y1="398.7764" y2="403.7764"/><line style="stroke:#181818;stroke-width:1;" x1="484.999" x2="167.6221" y1="403.7764" y2="403.7764"/><line style="stroke:#181818;stroke-width:1;" x1="167.6221" x2="167.6221" y1="403.7764" y2="418.7764"/><polygon fill="#181818" points="163.6221,408.7764,167.6221,418.7764,171.6221,408.7764,167.6221,412.7764" style="stroke:#181818;stroke-width:1;"/><line style="stroke:#181818;stroke-width:1;" x1="167.6221" x2="167.6221" y1="978.3936" y2="983.3936"/><line style="stroke:#181818;stroke-width:1;" x1="167.6221" x2="484.999" y1="983.3936" y2="983.3936"/><line style="stroke:#181818;stroke-width:1;" x1="484.999" x2="484.999" y1="983.3936" y2="998.3936"/><polygon fill="#181818" points="480.999,988.3936,484.999,998.3936,488.999,988.3936,484.999,992.3936" style="stroke:#181818;stroke-width:1;"/><line style="stroke:#181818;stroke-width:1;" x1="484.999" x2="484.999" y1="1202.6709" y2="1207.6709"/><line style="stroke:#181818;stroke-width:1;" x1="484.999" x2="167.6221" y1="1207.6709" y2="1207.6709"/><line style="stroke:#181818;stroke-width:1;" x1="167.6221" x2="167.6221" y1="1207.6709" y2="1222.6709"/><polygon fill="#181818" points="163.6221,1212.6709,167.6221,1222.6709,171.6221,1212.6709,167.6221,1216.6709" style="stroke:#181818;stroke-width:1;"/><line style="stroke:#181818;stroke-width:1;" x1="167.6221" x2="167.6221" y1="1510.4834" y2="1515.4834"/><line style="stroke:#181818;stroke-width:1;" x1="167.6221" x2="719.8018" y1="1515.4834" y2="1515.4834"/><line style="stroke:#181818;stroke-width:1;" x1="719.8018" x2="719.8018" y1="1515.4834" y2="1530.4834"/><polygon fill="#181818" points="715.8018,1520.4834,719.8018,1530.4834,723.8018,1520.4834,719.8018,1524.4834" style="stroke:#181818;stroke-width:1;"/><line style="stroke:#181818;stroke-width:1;" x1="719.8018" x2="719.8018" y1="1564.4521" y2="1569.4521"/><line style="stroke:#181818;stroke-width:1;" x1="719.8018" x2="484.999" y1="1569.4521" y2="1569.4521"/><line style="stroke:#181818;stroke-width:1;" x1="484.999" x2="484.999" y1="1569.4521" y2="1584.4521"/><polygon fill="#181818" points="480.999,1574.4521,484.999,1584.4521,488.999,1574.4521,484.999,1578.4521" style="stroke:#181818;stroke-width:1;"/><line style="stroke:#181818;stroke-width:1;" x1="484.999" x2="484.999" y1="1632.3896" y2="1637.3896"/><line style="stroke:#181818;stroke-width:1;" x1="484.999" x2="167.6221" y1="1637.3896" y2="1637.3896"/><line style="stroke:#181818;stroke-width:1;" x1="167.6221" x2="167.6221" y1="1637.3896" y2="1652.3896"/><polygon fill="#181818" points="163.6221,1642.3896,167.6221,1652.3896,171.6221,1642.3896,167.6221,1646.3896" style="stroke:#181818;stroke-width:1;"/><text fill="#000000" font-family="sans-serif" font-size="18" lengthAdjust="spacing" textLength="79.4795" x="139.3823" y="71.75">&#1057;&#1090;&#1091;&#1076;&#1077;&#1085;&#1090;</text><text fill="#000000" font-family="sans-serif" font-size="18" lengthAdjust="spacing" textLength="177.7061" x="395.146" y="71.75">&#1057;&#1080;&#1089;&#1090;&#1077;&#1084;&#1072; (Backend)</text><text fill="#000000" font-family="sans-serif" font-size="18" lengthAdjust="spacing" textLength="132.6445" x="652.4795" y="71.75">&#1056;&#1072;&#1073;&#1086;&#1090;&#1086;&#1076;&#1072;&#1090;&#1077;&#1083;&#1100;</text><?plantuml-src XLLDJnDX4BxlhvWZJJXuy69xC2XSyG362ubfeEX6R1lOc9XmMBeY69fMI1ClQkNifIrTkbBO9lo2UV-2lyHdvjtIRhl8PRFxllFnp3pFp7gkjrEYfKtF_U1w7sdPBRxPBRwdltwB-AUfyHKFEU8hCWUcPWBkSyWtEEuGtyYZnnsOT71sm95fECu-dqyRxZjxNd7NS_BybNlmYusFS0COX30xC4qoHtZrOJsWjRKN1LXgMkER4uqEEv8KaXHOOhwOoSf_nEaRFlkmEeMv-OJJeQaZ0wBGWa15zXFuH8joAoYk9UJYHbalHpY02U83DPp3HU8137mUuKnpvmfQ7Af49s06VrfuLjnyLoflvVQ1u0m9Hi0t1AocXIsVi4Vxv3M52-ck1VSPJ0O0XmFp9IaN7YFrYnDFxfj3VJPX4vb3e8w1EU2kPGTVqf8RP3unXndzcQSbpstaZ66WZL1QUfdvCvfz3qE-4do4gs3MBIeuxZQOE4lffPcg3WUrfpdotfRAiFmXSNCEaUri5xV-E5aVgGA-C85fp4cm09Szhr9rIZjx9SHfWJe77BdRZeMGQWJXzP930kuxhOlEH9eJB1f3aU1USP9s9-Ok24aaGxU_1Ubz4LKuzTlXBBwapWHX7jyT-4T2YnQBg5Dp2Cm1yDS5dyIoD4PwZG6OOiJEb6aW4C14f9GUozL6MS6BvaKtIUTX3McYb5ZiHnOkdEE7TDzEuiWKHuADTDhkPXt2-2p420WrHHfQMt-vlBAwNiZsZtKt1FgiuKgwY-8IlGlvfg6Dl-1OPc6wqn04yIct4i6rh9T43NM7rJDfbUH9QoNzCM9rLSUF7psXvvNozewxwGbrSuCa_csjAe3qxmPeLXpoEHMPm__g88-6orxewspMTHcDEQ6bQXLeYfvRALigTJchPQ2PhsbrvTLuATf9jc7qjeiTKREOqAcEreA-Z-Twl0ej5RW5Cx10rCbs9BNfQkDZ2rBbqn0oI3NKKnmfQa9LqgzCpxegQRQDcSaVtCCfCjF_BHC0eLqvjKHob_PEoreeJbhxsjtAPI_EoH98pwQjDlKhiIDwhX_MHPYSumkWUhQd0qqqjDlak_m-qZsC9AB8vXy0?></g></svg>