<svg xmlns="http://www.w3.org/2000/svg" xmlns:xlink="http://www.w3.org/1999/xlink" contentStyleType="text/css" data-diagram-type="ACTIVITY" height="1775px" preserveAspectRatio="none" style="width:1156px;height:1775px;background:#FFFFFF;" version="1.1" viewBox="0 0 1156 1775" width="1156px" zoomAndPan="magnify"><?plantuml 1.2026.4beta2?><defs/><g><g class="title" data-source-line="1"><text fill="#000000" font-family="sans-serif" font-size="14" font-weight="700" lengthAdjust="spacing" textLength="468.9453" x="342.7084" y="32.9951">Activity Diagram &#8212; &#1052;&#1072;&#1090;&#1095;&#1080;&#1085;&#1075;&#1086;&#1074;&#1099;&#1077; &#1088;&#1077;&#1082;&#1086;&#1084;&#1077;&#1085;&#1076;&#1072;&#1094;&#1080;&#1080; &#1074;&#1072;&#1082;&#1072;&#1085;&#1089;&#1080;&#1081;</text></g><rect fill="none" height="20.9531" style="stroke:none;stroke-width:1;" width="1109.3621" x="20" y="55.042"/><ellipse cx="181.626" cy="90.9951" fill="#222222" rx="10" ry="10" style="stroke:#222222;stroke-width:1;"/><rect fill="#F1F1F1" height="33.9688" rx="12.5" ry="12.5" style="stroke:#181818;stroke-width:0.5;" width="220.4609" x="71.3955" y="120.9951"/><text fill="#000000" font-family="sans-serif" font-size="12" lengthAdjust="spacing" textLength="200.4609" x="81.3955" y="142.1338">&#1054;&#1090;&#1082;&#1088;&#1099;&#1074;&#1072;&#1077;&#1090; &#1089;&#1090;&#1088;&#1072;&#1085;&#1080;&#1094;&#1091; &#171;&#1044;&#1083;&#1103; &#1074;&#1072;&#1089;&#187;</text><rect fill="#F1F1F1" height="33.9688" rx="12.5" ry="12.5" style="stroke:#181818;stroke-width:0.5;" width="203.4629" x="79.8945" y="453.21"/><text fill="#000000" font-family="sans-serif" font-size="12" lengthAdjust="spacing" textLength="183.4629" x="89.8945" y="474.3486">&#1042;&#1080;&#1076;&#1080;&#1090; &#1089;&#1087;&#1080;&#1089;&#1086;&#1082; &#1088;&#1077;&#1082;&#1086;&#1084;&#1077;&#1085;&#1076;&#1072;&#1094;&#1080;&#1081;</text><ellipse cx="181.626" cy="518.1787" fill="none" rx="11" ry="11" style="stroke:#222222;stroke-width:1;"/><ellipse cx="181.626" cy="518.1787" fill="#222222" rx="6" ry="6" style="stroke:#222222;stroke-width:1;"/><rect fill="#F1F1F1" height="47.9375" rx="12.5" ry="12.5" style="stroke:#181818;stroke-width:0.5;" width="233.3633" x="64.9443" y="571.1787"/><text fill="#000000" font-family="sans-serif" font-size="12" lengthAdjust="spacing" textLength="186.1055" x="74.9443" y="592.3174">&#1047;&#1072;&#1075;&#1088;&#1091;&#1079;&#1080;&#1090;&#1100; &#1087;&#1088;&#1086;&#1092;&#1080;&#1083;&#1100; &#1089;&#1090;&#1091;&#1076;&#1077;&#1085;&#1090;&#1072;</text><text fill="#000000" font-family="sans-serif" font-size="12" lengthAdjust="spacing" textLength="213.3633" x="74.9443" y="606.2861">(&#1085;&#1072;&#1074;&#1099;&#1082;&#1080;, &#1085;&#1072;&#1087;&#1088;&#1072;&#1074;&#1083;&#1077;&#1085;&#1080;&#1077;, &#1082;&#1091;&#1088;&#1089;, gpa)</text><rect fill="#F1F1F1" height="47.9375" rx="12.5" ry="12.5" style="stroke:#181818;stroke-width:0.5;" width="189.3242" x="86.9639" y="639.1162"/><text fill="#000000" font-family="sans-serif" font-size="12" lengthAdjust="spacing" textLength="111.5566" x="96.9639" y="660.2549">&#1047;&#1072;&#1075;&#1088;&#1091;&#1079;&#1080;&#1090;&#1100; &#1089;&#1087;&#1080;&#1089;&#1086;&#1082;</text><text fill="#000000" font-family="sans-serif" font-size="12" lengthAdjust="spacing" textLength="169.3242" x="96.9639" y="674.2236">&#1086;&#1087;&#1091;&#1073;&#1083;&#1080;&#1082;&#1086;&#1074;&#1072;&#1085;&#1085;&#1099;&#1093; &#1074;&#1072;&#1082;&#1072;&#1085;&#1089;&#1080;&#1081;</text><rect fill="#F1F1F1" height="47.9375" rx="12.5" ry="12.5" style="stroke:#181818;stroke-width:0.5;" width="219.4941" x="71.8789" y="1434.6357"/><text fill="#000000" font-family="sans-serif" font-size="12" lengthAdjust="spacing" textLength="186.498" x="81.8789" y="1455.7744">&#1042;&#1080;&#1076;&#1080;&#1090; &#1087;&#1077;&#1088;&#1089;&#1086;&#1085;&#1072;&#1083;&#1080;&#1079;&#1080;&#1088;&#1086;&#1074;&#1072;&#1085;&#1085;&#1099;&#1077;</text><text fill="#000000" font-family="sans-serif" font-size="12" lengthAdjust="spacing" textLength="199.4941" x="81.8789" y="1469.7432">&#1088;&#1077;&#1082;&#1086;&#1084;&#1077;&#1085;&#1076;&#1072;&#1094;&#1080;&#1080; &#1089; &#1086;&#1073;&#1098;&#1103;&#1089;&#1085;&#1077;&#1085;&#1080;&#1103;&#1084;&#1080;</text><rect fill="#F1F1F1" height="33.9688" rx="12.5" ry="12.5" style="stroke:#181818;stroke-width:0.5;" width="255.8984" x="53.6768" y="1502.5732"/><text fill="#000000" font-family="sans-serif" font-size="12" lengthAdjust="spacing" textLength="235.8984" x="63.6768" y="1523.7119">&#1054;&#1090;&#1082;&#1088;&#1099;&#1074;&#1072;&#1077;&#1090; &#1080;&#1085;&#1090;&#1077;&#1088;&#1077;&#1089;&#1091;&#1102;&#1097;&#1091;&#1102; &#1074;&#1072;&#1082;&#1072;&#1085;&#1089;&#1080;&#1102;</text><rect fill="#F1F1F1" height="33.9688" rx="12.5" ry="12.5" style="stroke:#181818;stroke-width:0.5;" width="311.252" x="26" y="1556.542"/><text fill="#000000" font-family="sans-serif" font-size="12" lengthAdjust="spacing" textLength="291.252" x="36" y="1577.6807">&#1054;&#1090;&#1084;&#1077;&#1095;&#1072;&#1077;&#1090; &#1088;&#1077;&#1082;&#1086;&#1084;&#1077;&#1085;&#1076;&#1072;&#1094;&#1080;&#1102; &#1082;&#1072;&#1082; &#1087;&#1088;&#1086;&#1089;&#1084;&#1086;&#1090;&#1088;&#1077;&#1085;&#1085;&#1091;&#1102;</text><line style="stroke:#000000;stroke-width:1.5;" x1="20" x2="20" y1="55.042" y2="1754.417"/><rect fill="#F1F1F1" height="33.9688" rx="12.5" ry="12.5" style="stroke:#181818;stroke-width:0.5;" width="287.5801" x="504.2854" y="174.9639"/><text fill="#000000" font-family="sans-serif" font-size="12" lengthAdjust="spacing" textLength="267.5801" x="514.2854" y="196.1025">&#1055;&#1088;&#1080;&#1085;&#1103;&#1090;&#1100; &#1079;&#1072;&#1087;&#1088;&#1086;&#1089; GET /api/recommendations</text><rect fill="#F1F1F1" height="33.9688" rx="12.5" ry="12.5" style="stroke:#181818;stroke-width:0.5;" width="218.0176" x="539.0667" y="228.9326"/><text fill="#000000" font-family="sans-serif" font-size="12" lengthAdjust="spacing" textLength="198.0176" x="549.0667" y="250.0713">&#1055;&#1088;&#1086;&#1074;&#1077;&#1088;&#1080;&#1090;&#1100; JWT (&#1088;&#1086;&#1083;&#1100; STUDENT)</text><rect fill="#F1F1F1" height="47.9375" rx="12.5" ry="12.5" style="stroke:#181818;stroke-width:0.5;" width="259.1563" x="518.4973" y="282.9014"/><text fill="#000000" font-family="sans-serif" font-size="12" lengthAdjust="spacing" textLength="160.6523" x="528.4973" y="304.04">&#1055;&#1088;&#1086;&#1074;&#1077;&#1088;&#1080;&#1090;&#1100; &#1085;&#1072;&#1083;&#1080;&#1095;&#1080;&#1077; &#1082;&#1101;&#1096;&#1072;</text><text fill="#000000" font-family="sans-serif" font-size="12" lengthAdjust="spacing" textLength="239.1563" x="528.4973" y="318.0088">(Redis: recommendations:student:{id})</text><rect fill="#F1F1F1" height="33.9688" rx="12.5" ry="12.5" style="stroke:#181818;stroke-width:0.5;" width="223.3203" x="536.4153" y="399.2412"/><text fill="#000000" font-family="sans-serif" font-size="12" lengthAdjust="spacing" textLength="203.3203" x="546.4153" y="420.3799">&#1042;&#1077;&#1088;&#1085;&#1091;&#1090;&#1100; &#1088;&#1077;&#1082;&#1086;&#1084;&#1077;&#1085;&#1076;&#1072;&#1094;&#1080;&#1080; &#1080;&#1079; &#1082;&#1101;&#1096;&#1072;</text><polygon fill="#F1F1F1" points="604.4353,350.8389,691.7156,350.8389,703.7156,362.8389,691.7156,374.8389,604.4353,374.8389,592.4353,362.8389,604.4353,350.8389" style="stroke:#181818;stroke-width:0.5;"/><text fill="#000000" font-family="sans-serif" font-size="11" lengthAdjust="spacing" textLength="15.3345" x="652.0754" y="385.0493">&#1044;&#1072;</text><text fill="#000000" font-family="sans-serif" font-size="11" lengthAdjust="spacing" textLength="87.2803" x="604.4353" y="366.647">&#1050;&#1101;&#1096; &#1072;&#1082;&#1090;&#1091;&#1072;&#1083;&#1077;&#1085;?</text><text fill="#000000" font-family="sans-serif" font-size="11" lengthAdjust="spacing" textLength="21.4468" x="703.7156" y="360.2446">&#1053;&#1077;&#1090;</text><rect fill="#F1F1F1" height="33.9688" rx="12.5" ry="12.5" style="stroke:#181818;stroke-width:0.5;" width="249.5703" x="523.2903" y="1032.7725"/><text fill="#000000" font-family="sans-serif" font-size="12" lengthAdjust="spacing" textLength="229.5703" x="533.2903" y="1053.9111">&#1055;&#1086;&#1083;&#1091;&#1095;&#1080;&#1090;&#1100; &#1088;&#1077;&#1082;&#1086;&#1084;&#1077;&#1085;&#1076;&#1072;&#1094;&#1080;&#1080; &#1086;&#1090; &#1089;&#1077;&#1088;&#1074;&#1080;&#1089;&#1072;</text><path d="M346.252,1076.7412 L346.252,1101.874 L574.4395,1101.874 L574.4395,1086.7412 L564.4395,1076.7412 L346.252,1076.7412" fill="#FEFFDD" style="stroke:#181818;stroke-width:0.5;"/><path d="M564.4395,1076.7412 L564.4395,1086.7412 L574.4395,1086.7412 L564.4395,1076.7412" fill="#FEFFDD" style="stroke:#181818;stroke-width:0.5;"/><text fill="#000000" font-family="sans-serif" font-size="13" lengthAdjust="spacing" textLength="207.1875" x="352.252" y="1093.8081">&#1050;&#1072;&#1095;&#1077;&#1089;&#1090;&#1074;&#1086; &#1085;&#1080;&#1078;&#1077; &#1087;&#1086;&#1088;&#1086;&#1075;&#1072; NFR-07</text><rect fill="#F1F1F1" height="33.9688" rx="12.5" ry="12.5" style="stroke:#181818;stroke-width:0.5;" width="229.1445" x="533.5032" y="1150.2764"/><text fill="#000000" font-family="sans-serif" font-size="12" lengthAdjust="spacing" textLength="209.1445" x="543.5032" y="1171.415">&#1047;&#1072;&#1087;&#1080;&#1089;&#1072;&#1090;&#1100; &#1087;&#1088;&#1077;&#1076;&#1091;&#1087;&#1088;&#1077;&#1078;&#1076;&#1077;&#1085;&#1080;&#1077; &#1074; &#1083;&#1086;&#1075;</text><rect fill="#F1F1F1" height="47.9375" rx="12.5" ry="12.5" style="stroke:#181818;stroke-width:0.5;" width="163.4316" x="566.3596" y="1214.7607"/><text fill="#000000" font-family="sans-serif" font-size="12" lengthAdjust="spacing" textLength="143.4316" x="576.3596" y="1235.8994">&#1042;&#1077;&#1088;&#1085;&#1091;&#1090;&#1100; &#1088;&#1077;&#1079;&#1091;&#1083;&#1100;&#1090;&#1072;&#1090;, &#1085;&#1086;</text><text fill="#000000" font-family="sans-serif" font-size="12" lengthAdjust="spacing" textLength="143.0449" x="576.3596" y="1249.8682">&#1087;&#1086;&#1084;&#1077;&#1090;&#1080;&#1090;&#1100; &#1076;&#1083;&#1103; &#1072;&#1085;&#1072;&#1083;&#1080;&#1079;&#1072;</text><polygon fill="#F1F1F1" points="586.4395,1101.874,709.7114,1101.874,721.7114,1113.874,709.7114,1125.874,586.4395,1125.874,574.4395,1113.874,586.4395,1101.874" style="stroke:#181818;stroke-width:0.5;"/><text fill="#000000" font-family="sans-serif" font-size="11" lengthAdjust="spacing" textLength="21.4468" x="652.0754" y="1136.0845">&#1053;&#1077;&#1090;</text><text fill="#000000" font-family="sans-serif" font-size="11" lengthAdjust="spacing" textLength="123.272" x="586.4395" y="1117.6821">Precision@5 &gt;= 0.70?</text><text fill="#000000" font-family="sans-serif" font-size="11" lengthAdjust="spacing" textLength="15.3345" x="721.7114" y="1111.2798">&#1044;&#1072;</text><polygon fill="#F1F1F1" points="648.0754,1282.6982,660.0754,1294.6982,648.0754,1306.6982,636.0754,1294.6982,648.0754,1282.6982" style="stroke:#181818;stroke-width:0.5;"/><rect fill="#F1F1F1" height="33.9688" rx="12.5" ry="12.5" style="stroke:#181818;stroke-width:0.5;" width="216.9102" x="539.6204" y="1326.6982"/><text fill="#000000" font-family="sans-serif" font-size="12" lengthAdjust="spacing" textLength="196.9102" x="549.6204" y="1347.8369">&#1057;&#1086;&#1093;&#1088;&#1072;&#1085;&#1080;&#1090;&#1100; &#1088;&#1077;&#1082;&#1086;&#1084;&#1077;&#1085;&#1076;&#1072;&#1094;&#1080;&#1080; &#1074; &#1041;&#1044;</text><rect fill="#F1F1F1" height="33.9688" rx="12.5" ry="12.5" style="stroke:#181818;stroke-width:0.5;" width="263.3164" x="516.4172" y="1380.667"/><text fill="#000000" font-family="sans-serif" font-size="12" lengthAdjust="spacing" textLength="243.3164" x="526.4172" y="1401.8057">&#1057;&#1086;&#1093;&#1088;&#1072;&#1085;&#1080;&#1090;&#1100; &#1088;&#1077;&#1079;&#1091;&#1083;&#1100;&#1090;&#1072;&#1090; &#1074; Redis (TTL=1h)</text><rect fill="#F1F1F1" height="33.9688" rx="12.5" ry="12.5" style="stroke:#181818;stroke-width:0.5;" width="304.0859" x="496.0325" y="1610.5107"/><text fill="#000000" font-family="sans-serif" font-size="12" lengthAdjust="spacing" textLength="284.0859" x="506.0325" y="1631.6494">UPDATE recommendations SET is_viewed=true</text><rect fill="#F1F1F1" height="47.9375" rx="12.5" ry="12.5" style="stroke:#181818;stroke-width:0.5;" width="249.5586" x="523.2961" y="1664.4795"/><text fill="#000000" font-family="sans-serif" font-size="12" lengthAdjust="spacing" textLength="229.5586" x="533.2961" y="1685.6182">&#1048;&#1089;&#1087;&#1086;&#1083;&#1100;&#1079;&#1086;&#1074;&#1072;&#1090;&#1100; &#1076;&#1072;&#1085;&#1085;&#1099;&#1077; &#1086; &#1087;&#1088;&#1086;&#1089;&#1084;&#1086;&#1090;&#1088;&#1072;&#1093;</text><text fill="#000000" font-family="sans-serif" font-size="12" lengthAdjust="spacing" textLength="216.8496" x="533.2961" y="1699.5869">&#1076;&#1083;&#1103; &#1091;&#1083;&#1091;&#1095;&#1096;&#1077;&#1085;&#1080;&#1103; &#1084;&#1086;&#1076;&#1077;&#1083;&#1080; (feedback)</text><ellipse cx="648.0754" cy="1743.417" fill="none" rx="11" ry="11" style="stroke:#222222;stroke-width:1;"/><ellipse cx="648.0754" cy="1743.417" fill="#222222" rx="6" ry="6" style="stroke:#222222;stroke-width:1;"/><line style="stroke:#000000;stroke-width:1.5;" x1="341.252" x2="341.252" y1="55.042" y2="1754.417"/><rect fill="#F1F1F1" height="47.9375" rx="12.5" ry="12.5" style="stroke:#181818;stroke-width:0.5;" width="187.9531" x="872.8333" y="707.0537"/><text fill="#000000" font-family="sans-serif" font-size="12" lengthAdjust="spacing" textLength="167.9531" x="882.8333" y="728.1924">&#1055;&#1088;&#1080;&#1085;&#1103;&#1090;&#1100; &#1076;&#1072;&#1085;&#1085;&#1099;&#1077; &#1089;&#1090;&#1091;&#1076;&#1077;&#1085;&#1090;&#1072;</text><text fill="#000000" font-family="sans-serif" font-size="12" lengthAdjust="spacing" textLength="117.9258" x="882.8333" y="742.1611">&#1080; &#1089;&#1087;&#1080;&#1089;&#1086;&#1082; &#1074;&#1072;&#1082;&#1072;&#1085;&#1089;&#1080;&#1081;</text><rect fill="#F1F1F1" height="47.9375" rx="12.5" ry="12.5" style="stroke:#181818;stroke-width:0.5;" width="210.2773" x="861.6711" y="774.9912"/><text fill="#000000" font-family="sans-serif" font-size="12" lengthAdjust="spacing" textLength="172.5938" x="871.6711" y="796.1299">&#1056;&#1072;&#1089;&#1089;&#1095;&#1080;&#1090;&#1072;&#1090;&#1100; cosine similarity</text><text fill="#000000" font-family="sans-serif" font-size="12" lengthAdjust="spacing" textLength="190.2773" x="871.6711" y="810.0986">&#1085;&#1072;&#1074;&#1099;&#1082;&#1086;&#1074; &#1089;&#1090;&#1091;&#1076;&#1077;&#1085;&#1090;&#1072; &#1080; &#1074;&#1072;&#1082;&#1072;&#1085;&#1089;&#1080;&#1080;</text><rect fill="#F1F1F1" height="47.9375" rx="12.5" ry="12.5" style="stroke:#181818;stroke-width:0.5;" width="212.4219" x="860.5989" y="842.9287"/><text fill="#000000" font-family="sans-serif" font-size="12" lengthAdjust="spacing" textLength="192.4219" x="870.5989" y="864.0674">&#1059;&#1095;&#1077;&#1089;&#1090;&#1100; &#1085;&#1072;&#1087;&#1088;&#1072;&#1074;&#1083;&#1077;&#1085;&#1080;&#1077; &#1086;&#1073;&#1091;&#1095;&#1077;&#1085;&#1080;&#1103;</text><text fill="#000000" font-family="sans-serif" font-size="12" lengthAdjust="spacing" textLength="102.7793" x="870.5989" y="878.0361">&#1080; &#1091;&#1088;&#1086;&#1074;&#1077;&#1085;&#1100; &#1082;&#1091;&#1088;&#1089;&#1072;</text><rect fill="#F1F1F1" height="33.9688" rx="12.5" ry="12.5" style="stroke:#181818;stroke-width:0.5;" width="234.4355" x="849.592" y="910.8662"/><text fill="#000000" font-family="sans-serif" font-size="12" lengthAdjust="spacing" textLength="214.4355" x="859.592" y="932.0049">&#1054;&#1090;&#1089;&#1086;&#1088;&#1090;&#1080;&#1088;&#1086;&#1074;&#1072;&#1090;&#1100; &#1074;&#1072;&#1082;&#1072;&#1085;&#1089;&#1080;&#1080; &#1087;&#1086; score</text><rect fill="#F1F1F1" height="47.9375" rx="12.5" ry="12.5" style="stroke:#181818;stroke-width:0.5;" width="237.9746" x="847.8225" y="964.835"/><text fill="#000000" font-family="sans-serif" font-size="12" lengthAdjust="spacing" textLength="217.9746" x="857.8225" y="985.9736">&#1055;&#1086;&#1076;&#1075;&#1086;&#1090;&#1086;&#1074;&#1080;&#1090;&#1100; &#1090;&#1086;&#1087;-N &#1088;&#1077;&#1082;&#1086;&#1084;&#1077;&#1085;&#1076;&#1072;&#1094;&#1080;&#1081;</text><text fill="#000000" font-family="sans-serif" font-size="12" lengthAdjust="spacing" textLength="102.3926" x="857.8225" y="999.9424">&#1089; &#1086;&#1073;&#1098;&#1103;&#1089;&#1085;&#1077;&#1085;&#1080;&#1103;&#1084;&#1080;</text><line style="stroke:#000000;stroke-width:1.5;" x1="804.1184" x2="804.1184" y1="55.042" y2="1754.417"/><line style="stroke:#000000;stroke-width:1.5;" x1="1127.5012" x2="1127.5012" y1="55.042" y2="1754.417"/><line style="stroke:#181818;stroke-width:1;" x1="181.626" x2="181.626" y1="100.9951" y2="120.9951"/><polygon fill="#181818" points="177.626,110.9951,181.626,120.9951,185.626,110.9951,181.626,114.9951" style="stroke:#181818;stroke-width:1;"/><line style="stroke:#181818;stroke-width:1;" x1="181.626" x2="181.626" y1="487.1787" y2="507.1787"/><polygon fill="#181818" points="177.626,497.1787,181.626,507.1787,185.626,497.1787,181.626,501.1787" style="stroke:#181818;stroke-width:1;"/><line style="stroke:#181818;stroke-width:1;" x1="181.626" x2="181.626" y1="619.1162" y2="639.1162"/><polygon fill="#181818" points="177.626,629.1162,181.626,639.1162,185.626,629.1162,181.626,633.1162" style="stroke:#181818;stroke-width:1;"/><line style="stroke:#181818;stroke-width:1;" x1="181.626" x2="181.626" y1="1482.5732" y2="1502.5732"/><polygon fill="#181818" points="177.626,1492.5732,181.626,1502.5732,185.626,1492.5732,181.626,1496.5732" style="stroke:#181818;stroke-width:1;"/><line style="stroke:#181818;stroke-width:1;" x1="181.626" x2="181.626" y1="1536.542" y2="1556.542"/><polygon fill="#181818" points="177.626,1546.542,181.626,1556.542,185.626,1546.542,181.626,1550.542" style="stroke:#181818;stroke-width:1;"/><line style="stroke:#181818;stroke-width:1;" x1="648.0754" x2="648.0754" y1="208.9326" y2="228.9326"/><polygon fill="#181818" points="644.0754,218.9326,648.0754,228.9326,652.0754,218.9326,648.0754,222.9326" style="stroke:#181818;stroke-width:1;"/><line style="stroke:#181818;stroke-width:1;" x1="648.0754" x2="648.0754" y1="262.9014" y2="282.9014"/><polygon fill="#181818" points="644.0754,272.9014,648.0754,282.9014,652.0754,272.9014,648.0754,276.9014" style="stroke:#181818;stroke-width:1;"/><line style="stroke:#181818;stroke-width:1;" x1="648.0754" x2="648.0754" y1="374.8389" y2="399.2412"/><polygon fill="#181818" points="644.0754,389.2412,648.0754,399.2412,652.0754,389.2412,648.0754,393.2412" style="stroke:#181818;stroke-width:1;"/><line style="stroke:#181818;stroke-width:1;" x1="703.7156" x2="769.7356" y1="362.8389" y2="362.8389"/><polygon fill="#181818" points="765.7356,459.96,769.7356,469.96,773.7356,459.96,769.7356,463.96" style="stroke:#181818;stroke-width:1;"/><line style="stroke:#181818;stroke-width:1;" x1="769.7356" x2="769.7356" y1="362.8389" y2="556.1787"/><line style="stroke:#181818;stroke-width:1;" x1="769.7356" x2="181.626" y1="556.1787" y2="556.1787"/><line style="stroke:#181818;stroke-width:1;" x1="181.626" x2="181.626" y1="556.1787" y2="571.1787"/><polygon fill="#181818" points="177.626,561.1787,181.626,571.1787,185.626,561.1787,181.626,565.1787" style="stroke:#181818;stroke-width:1;"/><line style="stroke:#181818;stroke-width:1;" x1="648.0754" x2="648.0754" y1="330.8389" y2="350.8389"/><polygon fill="#181818" points="644.0754,340.8389,648.0754,350.8389,652.0754,340.8389,648.0754,344.8389" style="stroke:#181818;stroke-width:1;"/><line style="stroke:#181818;stroke-width:1;" x1="648.0754" x2="648.0754" y1="1184.2451" y2="1214.7607"/><polygon fill="#181818" points="644.0754,1204.7607,648.0754,1214.7607,652.0754,1204.7607,648.0754,1208.7607" style="stroke:#181818;stroke-width:1;"/><line style="stroke:#181818;stroke-width:1;" x1="648.0754" x2="648.0754" y1="1125.874" y2="1150.2764"/><polygon fill="#181818" points="644.0754,1140.2764,648.0754,1150.2764,652.0754,1140.2764,648.0754,1144.2764" style="stroke:#181818;stroke-width:1;"/><line style="stroke:#181818;stroke-width:1;" x1="721.7114" x2="772.6477" y1="1113.874" y2="1113.874"/><polygon fill="#181818" points="768.6477,1194.2451,772.6477,1204.2451,776.6477,1194.2451,772.6477,1198.2451" style="stroke:#181818;stroke-width:1;"/><line style="stroke:#181818;stroke-width:1;" x1="772.6477" x2="772.6477" y1="1113.874" y2="1294.6982"/><line style="stroke:#181818;stroke-width:1;" x1="772.6477" x2="660.0754" y1="1294.6982" y2="1294.6982"/><polygon fill="#181818" points="670.0754,1290.6982,660.0754,1294.6982,670.0754,1298.6982,666.0754,1294.6982" style="stroke:#181818;stroke-width:1;"/><line style="stroke:#181818;stroke-width:1;" x1="648.0754" x2="648.0754" y1="1262.6982" y2="1282.6982"/><polygon fill="#181818" points="644.0754,1272.6982,648.0754,1282.6982,652.0754,1272.6982,648.0754,1276.6982" style="stroke:#181818;stroke-width:1;"/><line style="stroke:#181818;stroke-width:1;" x1="648.0754" x2="648.0754" y1="1066.7412" y2="1101.874"/><polygon fill="#181818" points="644.0754,1091.874,648.0754,1101.874,652.0754,1091.874,648.0754,1095.874" style="stroke:#181818;stroke-width:1;"/><line style="stroke:#181818;stroke-width:1;" x1="648.0754" x2="648.0754" y1="1306.6982" y2="1326.6982"/><polygon fill="#181818" points="644.0754,1316.6982,648.0754,1326.6982,652.0754,1316.6982,648.0754,1320.6982" style="stroke:#181818;stroke-width:1;"/><line style="stroke:#181818;stroke-width:1;" x1="648.0754" x2="648.0754" y1="1360.667" y2="1380.667"/><polygon fill="#181818" points="644.0754,1370.667,648.0754,1380.667,652.0754,1370.667,648.0754,1374.667" style="stroke:#181818;stroke-width:1;"/><line style="stroke:#181818;stroke-width:1;" x1="648.0754" x2="648.0754" y1="1644.4795" y2="1664.4795"/><polygon fill="#181818" points="644.0754,1654.4795,648.0754,1664.4795,652.0754,1654.4795,648.0754,1658.4795" style="stroke:#181818;stroke-width:1;"/><line style="stroke:#181818;stroke-width:1;" x1="648.0754" x2="648.0754" y1="1712.417" y2="1732.417"/><polygon fill="#181818" points="644.0754,1722.417,648.0754,1732.417,652.0754,1722.417,648.0754,1726.417" style="stroke:#181818;stroke-width:1;"/><line style="stroke:#181818;stroke-width:1;" x1="966.8098" x2="966.8098" y1="754.9912" y2="774.9912"/><polygon fill="#181818" points="962.8098,764.9912,966.8098,774.9912,970.8098,764.9912,966.8098,768.9912" style="stroke:#181818;stroke-width:1;"/><line style="stroke:#181818;stroke-width:1;" x1="966.8098" x2="966.8098" y1="822.9287" y2="842.9287"/><polygon fill="#181818" points="962.8098,832.9287,966.8098,842.9287,970.8098,832.9287,966.8098,836.9287" style="stroke:#181818;stroke-width:1;"/><line style="stroke:#181818;stroke-width:1;" x1="966.8098" x2="966.8098" y1="890.8662" y2="910.8662"/><polygon fill="#181818" points="962.8098,900.8662,966.8098,910.8662,970.8098,900.8662,966.8098,904.8662" style="stroke:#181818;stroke-width:1;"/><line style="stroke:#181818;stroke-width:1;" x1="966.8098" x2="966.8098" y1="944.835" y2="964.835"/><polygon fill="#181818" points="962.8098,954.835,966.8098,964.835,970.8098,954.835,966.8098,958.835" style="stroke:#181818;stroke-width:1;"/><line style="stroke:#181818;stroke-width:1;" x1="181.626" x2="181.626" y1="154.9639" y2="159.9639"/><line style="stroke:#181818;stroke-width:1;" x1="181.626" x2="648.0754" y1="159.9639" y2="159.9639"/><line style="stroke:#181818;stroke-width:1;" x1="648.0754" x2="648.0754" y1="159.9639" y2="174.9639"/><polygon fill="#181818" points="644.0754,164.9639,648.0754,174.9639,652.0754,164.9639,648.0754,168.9639" style="stroke:#181818;stroke-width:1;"/><line style="stroke:#181818;stroke-width:1;" x1="648.0754" x2="648.0754" y1="433.21" y2="438.21"/><line style="stroke:#181818;stroke-width:1;" x1="648.0754" x2="181.626" y1="438.21" y2="438.21"/><line style="stroke:#181818;stroke-width:1;" x1="181.626" x2="181.626" y1="438.21" y2="453.21"/><polygon fill="#181818" points="177.626,443.21,181.626,453.21,185.626,443.21,181.626,447.21" style="stroke:#181818;stroke-width:1;"/><line style="stroke:#181818;stroke-width:1;" x1="181.626" x2="181.626" y1="687.0537" y2="692.0537"/><line style="stroke:#181818;stroke-width:1;" x1="181.626" x2="966.8098" y1="692.0537" y2="692.0537"/><line style="stroke:#181818;stroke-width:1;" x1="966.8098" x2="966.8098" y1="692.0537" y2="707.0537"/><polygon fill="#181818" points="962.8098,697.0537,966.8098,707.0537,970.8098,697.0537,966.8098,701.0537" style="stroke:#181818;stroke-width:1;"/><line style="stroke:#181818;stroke-width:1;" x1="966.8098" x2="966.8098" y1="1012.7725" y2="1017.7725"/><line style="stroke:#181818;stroke-width:1;" x1="966.8098" x2="648.0754" y1="1017.7725" y2="1017.7725"/><line style="stroke:#181818;stroke-width:1;" x1="648.0754" x2="648.0754" y1="1017.7725" y2="1032.7725"/><polygon fill="#181818" points="644.0754,1022.7725,648.0754,1032.7725,652.0754,1022.7725,648.0754,1026.7725" style="stroke:#181818;stroke-width:1;"/><line style="stroke:#181818;stroke-width:1;" x1="648.0754" x2="648.0754" y1="1414.6357" y2="1419.6357"/><line style="stroke:#181818;stroke-width:1;" x1="648.0754" x2="181.626" y1="1419.6357" y2="1419.6357"/><line style="stroke:#181818;stroke-width:1;" x1="181.626" x2="181.626" y1="1419.6357" y2="1434.6357"/><polygon fill="#181818" points="177.626,1424.6357,181.626,1434.6357,185.626,1424.6357,181.626,1428.6357" style="stroke:#181818;stroke-width:1;"/><line style="stroke:#181818;stroke-width:1;" x1="181.626" x2="181.626" y1="1590.5107" y2="1595.5107"/><line style="stroke:#181818;stroke-width:1;" x1="181.626" x2="648.0754" y1="1595.5107" y2="1595.5107"/><line style="stroke:#181818;stroke-width:1;" x1="648.0754" x2="648.0754" y1="1595.5107" y2="1610.5107"/><polygon fill="#181818" points="644.0754,1600.5107,648.0754,1610.5107,652.0754,1600.5107,648.0754,1604.5107" style="stroke:#181818;stroke-width:1;"/><text fill="#000000" font-family="sans-serif" font-size="18" lengthAdjust="spacing" textLength="79.4795" x="140.8862" y="71.75">&#1057;&#1090;&#1091;&#1076;&#1077;&#1085;&#1090;</text><text fill="#000000" font-family="sans-serif" font-size="18" lengthAdjust="spacing" textLength="111.8057" x="516.7823" y="71.75">Backend API</text><text fill="#000000" font-family="sans-serif" font-size="18" lengthAdjust="spacing" textLength="313.3828" x="809.1184" y="71.75">Recommendation Service (Python)</text><?plantuml-src VLLTJnjN47tthvX7Mo8DVQWYsQ8j5RHg5I44ZlA2L3ds0bU5DV8kH56eXBqbf8M2KY6rGlr2VUpBnk2mCRKjyGlc_eN-afoPQnlZ3sJ9zjwzS-xCcNFcXYRSy6Ys69eT4xwWELDOgnGswV-zK-BVEROrUy09j_Y2srotXzmWkySDRkBnF_os-1ARNc5BGbpd62zYRjag5jwdKhjy3e08Ux3JrdPJGLYeXAai_sbhtBHxm9EOXgsHhMBddWHpOb_PY6x-vLE-jYSAQwitrpdWVL4eVkVv9PfT_7eNC7yX0idP4yGU4LyXl8EbjgtIL_DvUbZOCWyhNh6ykOcWGcZAVf3hXg4Qd8jm3VtcQPxIkdgDf-NyaxdvXNm69uxRZ1HZliQ3CDCW5FApVStnYfzUyaecoDBGaTaWt2vvVfXzQKhV0zIiKfhF98Y4C6L80C7HPnaArpqVxqyvpgI8iloBdjooaPuzcVo4h_gfv10vmhq3Ix2GAD_SmPyge9gJKDyBJX2MjrBUHk0XgJ-aLPaKAZEhmisloFi2ROn0VPSRn_yFY1OcjQlz79GZPK-KrEHaod7PqSRN7GN2wPHK4W6uEaLhMuLCRknPWoMi-FZkuELRwOpMKbSnjUoXtH-HfcXfwKwNQDchx9WYgbny4QwN_SmOVLts4CK58vMX2NT87Jqpot-BbF4va1BKNKTKB0V6zoWmcsQZK8490NNB4UeOEOj6pPO8-Z_0RUZcemd44l3UWja3js1FNDfHJ-D0E-fpBpfIgqf1MAWXmErpYG-dWEPpcu9YkUAfox3rKkO60YMespHvw3nOcAYv5H_krJH_0kzLlEgcYet9k1cWfeqSfVSwfEraBtQgQvTYvyL5-DK4qC3ddz2dCpJzqQFfMnzs9K_abqEFAcPjFQGiyHbWksG3h4rAxpiXk2DSuVWBz6dXowK7qu_KUI9VfuturYWDlaHVtRzthh-kItL2pu2HcpG2hX07WpaHgOtQQ6N7bQsTwYfM9sZS6rao8dCzD-k8SLxEyZdItkyFuFk9H7Pl-3GtEUfETh9V1oEby_d7Cn-lormTcKw3imbrD5I0xO6y-zhhMH12cPJXlGeQT_keosjAi_GqiiVsH_aUqhWzxeKBomUzgsji6X8iWStUJApYVLilkOQM40dQi9oVBCxDvkU7Rn1QncrcWcztZFVSAys4bMrrs6ywR_JE0a43nXmSL2BEuGHYkm-rE75egs0Vt1jTcaZsQMV0FALNFQ_q34cYRN8NV000?></g></svg>