<svg xmlns="http://www.w3.org/2000/svg" xmlns:xlink="http://www.w3.org/1999/xlink" contentStyleType="text/css" data-diagram-type="ACTIVITY" height="1548px" preserveAspectRatio="none" style="width:1905px;height:1548px;background:#FFFFFF;" version="1.1" viewBox="0 0 1905 1548" width="1905px" zoomAndPan="magnify"><?plantuml 1.2026.4beta2?><defs/><g><g class="title" data-source-line="1"><text fill="#000000" font-family="sans-serif" font-size="14" font-weight="700" lengthAdjust="spacing" textLength="517.1797" x="692.9175" y="32.9951">Activity Diagram &#8212; &#1053;&#1072;&#1079;&#1085;&#1072;&#1095;&#1077;&#1085;&#1080;&#1077; &#1080;&#1085;&#1090;&#1077;&#1088;&#1074;&#1100;&#1102; &#1080; &#1086;&#1073;&#1085;&#1086;&#1074;&#1083;&#1077;&#1085;&#1080;&#1077; &#1089;&#1090;&#1072;&#1090;&#1091;&#1089;&#1072;</text></g><rect fill="none" height="20.9531" style="stroke:none;stroke-width:1;" width="1858.0146" x="20" y="55.042"/><ellipse cx="162.9521" cy="90.9951" fill="#222222" rx="10" ry="10" style="stroke:#222222;stroke-width:1;"/><rect fill="#F1F1F1" height="47.9375" rx="12.5" ry="12.5" style="stroke:#181818;stroke-width:0.5;" width="199.3438" x="63.2803" y="120.9951"/><text fill="#000000" font-family="sans-serif" font-size="12" lengthAdjust="spacing" textLength="179.3438" x="73.2803" y="142.1338">&#1054;&#1090;&#1082;&#1088;&#1099;&#1074;&#1072;&#1077;&#1090; &#1089;&#1087;&#1080;&#1089;&#1086;&#1082; &#1086;&#1090;&#1082;&#1083;&#1080;&#1082;&#1086;&#1074;</text><text fill="#000000" font-family="sans-serif" font-size="12" lengthAdjust="spacing" textLength="118.0781" x="73.2803" y="156.1025">&#1087;&#1086; &#1089;&#1074;&#1086;&#1077;&#1081; &#1074;&#1072;&#1082;&#1072;&#1085;&#1089;&#1080;&#1080;</text><rect fill="#F1F1F1" height="33.9688" rx="12.5" ry="12.5" style="stroke:#181818;stroke-width:0.5;" width="263.5684" x="31.168" y="256.8701"/><text fill="#000000" font-family="sans-serif" font-size="12" lengthAdjust="spacing" textLength="243.5684" x="41.168" y="278.0088">&#1048;&#1079;&#1091;&#1095;&#1072;&#1077;&#1090; &#1088;&#1077;&#1079;&#1102;&#1084;&#1077; &#1080; &#1087;&#1080;&#1089;&#1100;&#1084;&#1072; &#1082;&#1072;&#1085;&#1076;&#1080;&#1076;&#1072;&#1090;&#1086;&#1074;</text><rect fill="#F1F1F1" height="33.9688" rx="12.5" ry="12.5" style="stroke:#181818;stroke-width:0.5;" width="247.2969" x="39.3037" y="310.8389"/><text fill="#000000" font-family="sans-serif" font-size="12" lengthAdjust="spacing" textLength="227.2969" x="49.3037" y="331.9775">&#1042;&#1099;&#1073;&#1080;&#1088;&#1072;&#1077;&#1090; &#1082;&#1072;&#1085;&#1076;&#1080;&#1076;&#1072;&#1090;&#1072; &#1076;&#1083;&#1103; &#1080;&#1085;&#1090;&#1077;&#1088;&#1074;&#1100;&#1102;</text><rect fill="#F1F1F1" height="47.9375" rx="12.5" ry="12.5" style="stroke:#181818;stroke-width:0.5;" width="201.4121" x="62.2461" y="364.8076"/><text fill="#000000" font-family="sans-serif" font-size="12" lengthAdjust="spacing" textLength="149.9121" x="72.2461" y="385.9463">&#1059;&#1082;&#1072;&#1079;&#1099;&#1074;&#1072;&#1077;&#1090; &#1076;&#1072;&#1090;&#1091;, &#1074;&#1088;&#1077;&#1084;&#1103;,</text><text fill="#000000" font-family="sans-serif" font-size="12" lengthAdjust="spacing" textLength="181.4121" x="72.2461" y="399.915">&#1092;&#1086;&#1088;&#1084;&#1072;&#1090; &#1080; &#1089;&#1089;&#1099;&#1083;&#1082;&#1091; &#1085;&#1072; &#1074;&#1089;&#1090;&#1088;&#1077;&#1095;&#1091;</text><rect fill="#F1F1F1" height="33.9688" rx="12.5" ry="12.5" style="stroke:#181818;stroke-width:0.5;" width="236.8672" x="44.5186" y="432.7451"/><text fill="#000000" font-family="sans-serif" font-size="12" lengthAdjust="spacing" textLength="216.8672" x="54.5186" y="453.8838">&#1053;&#1072;&#1078;&#1080;&#1084;&#1072;&#1077;&#1090; &#171;&#1053;&#1072;&#1079;&#1085;&#1072;&#1095;&#1080;&#1090;&#1100; &#1080;&#1085;&#1090;&#1077;&#1088;&#1074;&#1100;&#1102;&#187;</text><rect fill="#F1F1F1" height="33.9688" rx="12.5" ry="12.5" style="stroke:#181818;stroke-width:0.5;" width="147.1777" x="89.3633" y="1045.6982"/><text fill="#000000" font-family="sans-serif" font-size="12" lengthAdjust="spacing" textLength="127.1777" x="99.3633" y="1066.8369">&#1055;&#1088;&#1086;&#1074;&#1086;&#1076;&#1080;&#1090; &#1080;&#1085;&#1090;&#1077;&#1088;&#1074;&#1100;&#1102;</text><rect fill="#F1F1F1" height="33.9688" rx="12.5" ry="12.5" style="stroke:#181818;stroke-width:0.5;" width="223.7305" x="51.0869" y="1099.667"/><text fill="#000000" font-family="sans-serif" font-size="12" lengthAdjust="spacing" textLength="203.7305" x="61.0869" y="1120.8057">&#1054;&#1090;&#1082;&#1088;&#1099;&#1074;&#1072;&#1077;&#1090; &#1082;&#1072;&#1088;&#1090;&#1086;&#1095;&#1082;&#1091; &#1082;&#1072;&#1085;&#1076;&#1080;&#1076;&#1072;&#1090;&#1072;</text><rect fill="#F1F1F1" height="47.9375" rx="12.5" ry="12.5" style="stroke:#181818;stroke-width:0.5;" width="221.3926" x="52.2559" y="1153.6357"/><text fill="#000000" font-family="sans-serif" font-size="12" lengthAdjust="spacing" textLength="188.6719" x="62.2559" y="1174.7744">&#1042;&#1099;&#1073;&#1080;&#1088;&#1072;&#1077;&#1090; &#1092;&#1080;&#1085;&#1072;&#1083;&#1100;&#1085;&#1099;&#1081; &#1089;&#1090;&#1072;&#1090;&#1091;&#1089;:</text><text fill="#000000" font-family="sans-serif" font-size="12" lengthAdjust="spacing" textLength="201.3926" x="62.2559" y="1188.7432">OFFER_EXTENDED &#1080;&#1083;&#1080; REJECTED</text><rect fill="#F1F1F1" height="33.9688" rx="12.5" ry="12.5" style="stroke:#181818;stroke-width:0.5;" width="273.9043" x="26" y="1221.5732"/><text fill="#000000" font-family="sans-serif" font-size="12" lengthAdjust="spacing" textLength="253.9043" x="36" y="1242.7119">&#1044;&#1086;&#1073;&#1072;&#1074;&#1083;&#1103;&#1077;&#1090; &#1082;&#1086;&#1084;&#1084;&#1077;&#1085;&#1090;&#1072;&#1088;&#1080;&#1081; (&#1086;&#1087;&#1094;&#1080;&#1086;&#1085;&#1072;&#1083;&#1100;&#1085;&#1086;)</text><line style="stroke:#000000;stroke-width:1.5;" x1="20" x2="20" y1="55.042" y2="1527.3857"/><rect fill="#F1F1F1" height="47.9375" rx="12.5" ry="12.5" style="stroke:#181818;stroke-width:0.5;" width="207.7461" x="734.9949" y="188.9326"/><text fill="#000000" font-family="sans-serif" font-size="12" lengthAdjust="spacing" textLength="187.7461" x="744.9949" y="210.0713">&#1042;&#1077;&#1088;&#1085;&#1091;&#1090;&#1100; &#1086;&#1090;&#1082;&#1083;&#1080;&#1082;&#1080; &#1089;&#1086; &#1089;&#1090;&#1072;&#1090;&#1091;&#1089;&#1086;&#1084;</text><text fill="#000000" font-family="sans-serif" font-size="12" lengthAdjust="spacing" textLength="155.3555" x="744.9949" y="224.04">NEW &#1080;&#1083;&#1080; UNDER_REVIEW</text><rect fill="#F1F1F1" height="47.9375" rx="12.5" ry="12.5" style="stroke:#181818;stroke-width:0.5;" width="237.3242" x="720.2058" y="486.7139"/><text fill="#000000" font-family="sans-serif" font-size="12" lengthAdjust="spacing" textLength="217.3242" x="730.2058" y="507.8525">&#1055;&#1088;&#1086;&#1074;&#1077;&#1088;&#1080;&#1090;&#1100; JWT (&#1088;&#1086;&#1083;&#1100; EMPLOYER) &#1080;</text><text fill="#000000" font-family="sans-serif" font-size="12" lengthAdjust="spacing" textLength="173.8008" x="730.2058" y="521.8213">&#1087;&#1088;&#1072;&#1074;&#1072; &#1085;&#1072; &#1076;&#1072;&#1085;&#1085;&#1091;&#1102; &#1074;&#1072;&#1082;&#1072;&#1085;&#1089;&#1080;&#1102;</text><rect fill="#F1F1F1" height="33.9688" rx="12.5" ry="12.5" style="stroke:#181818;stroke-width:0.5;" width="178.291" x="749.7224" y="554.6514"/><text fill="#000000" font-family="sans-serif" font-size="12" lengthAdjust="spacing" textLength="158.291" x="759.7224" y="575.79">&#1057;&#1086;&#1079;&#1076;&#1072;&#1090;&#1100; &#1079;&#1072;&#1087;&#1080;&#1089;&#1100; Interview</text><rect fill="#F1F1F1" height="47.9375" rx="12.5" ry="12.5" style="stroke:#181818;stroke-width:0.5;" width="197.2754" x="740.2302" y="608.6201"/><text fill="#000000" font-family="sans-serif" font-size="12" lengthAdjust="spacing" textLength="177.2754" x="750.2302" y="629.7588">&#1054;&#1073;&#1085;&#1086;&#1074;&#1080;&#1090;&#1100; &#1089;&#1090;&#1072;&#1090;&#1091;&#1089; Application</text><text fill="#000000" font-family="sans-serif" font-size="12" lengthAdjust="spacing" textLength="166.1074" x="750.2302" y="643.7275">&#1085;&#1072; INTERVIEW_SCHEDULED</text><rect fill="#F1F1F1" height="33.9688" rx="12.5" ry="12.5" style="stroke:#181818;stroke-width:0.5;" width="187.748" x="744.9939" y="676.5576"/><text fill="#000000" font-family="sans-serif" font-size="12" lengthAdjust="spacing" textLength="167.748" x="754.9939" y="697.6963">&#1047;&#1072;&#1087;&#1080;&#1089;&#1072;&#1090;&#1100; &#1089;&#1086;&#1073;&#1099;&#1090;&#1080;&#1077; &#1074; &#1072;&#1091;&#1076;&#1080;&#1090;</text><rect fill="#555555" height="6" rx="2.5" ry="2.5" style="stroke:#555555;stroke-width:1;" width="993.1108" x="309.9043" y="730.5264"/><rect fill="#F1F1F1" height="47.9375" rx="12.5" ry="12.5" style="stroke:#181818;stroke-width:0.5;" width="189.875" x="459.1401" y="756.5264"/><text fill="#000000" font-family="sans-serif" font-size="12" lengthAdjust="spacing" textLength="169.875" x="469.1401" y="777.665">&#1047;&#1072;&#1087;&#1088;&#1086;&#1089;&#1080;&#1090;&#1100; &#1089;&#1080;&#1085;&#1093;&#1088;&#1086;&#1085;&#1080;&#1079;&#1072;&#1094;&#1080;&#1102;</text><text fill="#000000" font-family="sans-serif" font-size="12" lengthAdjust="spacing" textLength="87.1699" x="469.1401" y="791.6338">&#1089; Calendar API</text><polygon fill="#F1F1F1" points="487.0034,839.4639,621.1519,839.4639,633.1519,851.4639,621.1519,863.4639,487.0034,863.4639,475.0034,851.4639,487.0034,839.4639" style="stroke:#181818;stroke-width:0.5;"/><text fill="#000000" font-family="sans-serif" font-size="11" lengthAdjust="spacing" textLength="134.1484" x="487.0034" y="855.272">Calendar API &#1076;&#1086;&#1089;&#1090;&#1091;&#1087;&#1077;&#1085;?</text><text fill="#000000" font-family="sans-serif" font-size="11" lengthAdjust="spacing" textLength="15.3345" x="459.6689" y="848.8696">&#1044;&#1072;</text><text fill="#000000" font-family="sans-serif" font-size="11" lengthAdjust="spacing" textLength="21.4468" x="633.1519" y="848.8696">&#1053;&#1077;&#1090;</text><rect fill="#F1F1F1" height="33.9688" rx="12.5" ry="12.5" style="stroke:#181818;stroke-width:0.5;" width="211.4668" x="321.9043" y="873.4639"/><text fill="#000000" font-family="sans-serif" font-size="12" lengthAdjust="spacing" textLength="191.4668" x="331.9043" y="894.6025">&#1057;&#1086;&#1079;&#1076;&#1072;&#1090;&#1100; &#1089;&#1086;&#1073;&#1099;&#1090;&#1080;&#1077; &#1074; &#1082;&#1072;&#1083;&#1077;&#1085;&#1076;&#1072;&#1088;&#1077;</text><rect fill="#F1F1F1" height="33.9688" rx="12.5" ry="12.5" style="stroke:#181818;stroke-width:0.5;" width="200.6211" x="327.3271" y="935.7295"/><text fill="#000000" font-family="sans-serif" font-size="12" lengthAdjust="spacing" textLength="180.6211" x="337.3271" y="956.8682">&#1057;&#1086;&#1093;&#1088;&#1072;&#1085;&#1080;&#1090;&#1100; calendar_event_id</text><path d="M827.6641,873.4639 L827.6641,889.5967 L807.6641,893.5967 L827.6641,897.5967 L827.6641,913.7295 A0,0 0 0 0 827.6641,913.7295 L1042.5659,913.7295 A0,0 0 0 0 1042.5659,913.7295 L1042.5659,883.4639 L1032.5659,873.4639 L827.6641,873.4639 A0,0 0 0 0 827.6641,873.4639" fill="#FEFFDD" style="stroke:#181818;stroke-width:0.5;"/><path d="M1032.5659,873.4639 L1032.5659,883.4639 L1042.5659,883.4639 L1032.5659,873.4639" fill="#FEFFDD" style="stroke:#181818;stroke-width:0.5;"/><text fill="#000000" font-family="sans-serif" font-size="13" lengthAdjust="spacing" textLength="193.9019" x="833.6641" y="890.5308">&#1055;&#1086;&#1074;&#1090;&#1086;&#1088; &#1087;&#1088;&#1080; &#1074;&#1086;&#1089;&#1089;&#1090;&#1072;&#1085;&#1086;&#1074;&#1083;&#1077;&#1085;&#1080;&#1080;</text><text fill="#000000" font-family="sans-serif" font-size="13" lengthAdjust="spacing" textLength="155.8223" x="833.6641" y="905.6636">&#1082;&#1072;&#1083;&#1077;&#1085;&#1076;&#1072;&#1088;&#1085;&#1086;&#1075;&#1086; &#1089;&#1077;&#1088;&#1074;&#1080;&#1089;&#1072;</text><rect fill="#F1F1F1" height="33.9688" rx="12.5" ry="12.5" style="stroke:#181818;stroke-width:0.5;" width="254.293" x="553.3711" y="876.6123"/><text fill="#000000" font-family="sans-serif" font-size="12" lengthAdjust="spacing" textLength="234.293" x="563.3711" y="897.751">&#1055;&#1086;&#1084;&#1077;&#1090;&#1080;&#1090;&#1100; CALENDAR_SYNC=PENDING</text><polygon fill="#F1F1F1" points="554.0776,975.6982,566.0776,987.6982,554.0776,999.6982,542.0776,987.6982,554.0776,975.6982" style="stroke:#181818;stroke-width:0.5;"/><rect fill="#F1F1F1" height="47.9375" rx="12.5" ry="12.5" style="stroke:#181818;stroke-width:0.5;" width="238.4492" x="1052.5659" y="774.5576"/><text fill="#000000" font-family="sans-serif" font-size="12" lengthAdjust="spacing" textLength="218.4492" x="1062.5659" y="795.6963">&#1054;&#1090;&#1087;&#1088;&#1072;&#1074;&#1080;&#1090;&#1100; &#1091;&#1074;&#1077;&#1076;&#1086;&#1084;&#1083;&#1077;&#1085;&#1080;&#1077; &#1089;&#1090;&#1091;&#1076;&#1077;&#1085;&#1090;&#1091;</text><text fill="#000000" font-family="sans-serif" font-size="12" lengthAdjust="spacing" textLength="194.1445" x="1062.5659" y="809.665">(&#1076;&#1072;&#1090;&#1072;, &#1074;&#1088;&#1077;&#1084;&#1103;, &#1092;&#1086;&#1088;&#1084;&#1072;&#1090;, &#1089;&#1089;&#1099;&#1083;&#1082;&#1072;)</text><rect fill="#F1F1F1" height="33.9688" rx="12.5" ry="12.5" style="stroke:#181818;stroke-width:0.5;" width="197.2754" x="740.2302" y="1275.542"/><text fill="#000000" font-family="sans-serif" font-size="12" lengthAdjust="spacing" textLength="177.2754" x="750.2302" y="1296.6807">&#1054;&#1073;&#1085;&#1086;&#1074;&#1080;&#1090;&#1100; &#1089;&#1090;&#1072;&#1090;&#1091;&#1089; Application</text><rect fill="#F1F1F1" height="47.9375" rx="12.5" ry="12.5" style="stroke:#181818;stroke-width:0.5;" width="203.6328" x="737.0515" y="1329.5107"/><text fill="#000000" font-family="sans-serif" font-size="12" lengthAdjust="spacing" textLength="183.6328" x="747.0515" y="1350.6494">&#1047;&#1072;&#1087;&#1080;&#1089;&#1072;&#1090;&#1100; &#1080;&#1079;&#1084;&#1077;&#1085;&#1077;&#1085;&#1080;&#1077; &#1074; &#1072;&#1091;&#1076;&#1080;&#1090;</text><text fill="#000000" font-family="sans-serif" font-size="12" lengthAdjust="spacing" textLength="155.6016" x="747.0515" y="1364.6182">(&#1089;&#1090;&#1072;&#1088;&#1099;&#1081; &#1080; &#1085;&#1086;&#1074;&#1099;&#1081; &#1089;&#1090;&#1072;&#1090;&#1091;&#1089;)</text><rect fill="#F1F1F1" height="33.9688" rx="12.5" ry="12.5" style="stroke:#181818;stroke-width:0.5;" width="222.4707" x="727.6326" y="1397.4482"/><text fill="#000000" font-family="sans-serif" font-size="12" lengthAdjust="spacing" textLength="202.4707" x="737.6326" y="1418.5869">&#1059;&#1074;&#1077;&#1076;&#1086;&#1084;&#1080;&#1090;&#1100; &#1089;&#1090;&#1091;&#1076;&#1077;&#1085;&#1090;&#1072; &#1086; &#1088;&#1077;&#1096;&#1077;&#1085;&#1080;&#1080;</text><line style="stroke:#000000;stroke-width:1.5;" x1="303.9043" x2="303.9043" y1="55.042" y2="1527.3857"/><rect fill="#F1F1F1" height="47.9375" rx="12.5" ry="12.5" style="stroke:#181818;stroke-width:0.5;" width="285.2656" x="1574.8882" y="857.4951"/><text fill="#000000" font-family="sans-serif" font-size="12" lengthAdjust="spacing" textLength="265.2656" x="1584.8882" y="878.6338">&#1055;&#1086;&#1083;&#1091;&#1095;&#1072;&#1077;&#1090; &#1091;&#1074;&#1077;&#1076;&#1086;&#1084;&#1083;&#1077;&#1085;&#1080;&#1077; &#171;&#1042;&#1072;&#1089; &#1087;&#1088;&#1080;&#1075;&#1083;&#1072;&#1096;&#1072;&#1102;&#1090;</text><text fill="#000000" font-family="sans-serif" font-size="12" lengthAdjust="spacing" textLength="88.2363" x="1584.8882" y="892.6025">&#1085;&#1072; &#1080;&#1085;&#1090;&#1077;&#1088;&#1074;&#1100;&#1102;&#187;</text><rect fill="#F1F1F1" height="47.9375" rx="12.5" ry="12.5" style="stroke:#181818;stroke-width:0.5;" width="195.3008" x="1619.8706" y="933.7295"/><text fill="#000000" font-family="sans-serif" font-size="12" lengthAdjust="spacing" textLength="175.3008" x="1629.8706" y="954.8682">&#1055;&#1088;&#1080;&#1085;&#1080;&#1084;&#1072;&#1077;&#1090; &#1082; &#1089;&#1074;&#1077;&#1076;&#1077;&#1085;&#1080;&#1102; &#1080;&#1083;&#1080;</text><text fill="#000000" font-family="sans-serif" font-size="12" lengthAdjust="spacing" textLength="100.0195" x="1629.8706" y="968.8369">&#1087;&#1088;&#1086;&#1089;&#1080;&#1090; &#1087;&#1077;&#1088;&#1077;&#1085;&#1086;&#1089;</text><rect fill="#555555" height="6" rx="2.5" ry="2.5" style="stroke:#555555;stroke-width:1;" width="559.1387" x="1313.0151" y="1019.6982"/><rect fill="#F1F1F1" height="33.9688" rx="12.5" ry="12.5" style="stroke:#181818;stroke-width:0.5;" width="239.873" x="1325.0151" y="1451.417"/><text fill="#000000" font-family="sans-serif" font-size="12" lengthAdjust="spacing" textLength="219.873" x="1335.0151" y="1472.5557">&#1055;&#1086;&#1083;&#1091;&#1095;&#1072;&#1077;&#1090; &#1091;&#1074;&#1077;&#1076;&#1086;&#1084;&#1083;&#1077;&#1085;&#1080;&#1077; &#1086; &#1088;&#1077;&#1096;&#1077;&#1085;&#1080;&#1080;</text><ellipse cx="1444.9517" cy="1516.3857" fill="none" rx="11" ry="11" style="stroke:#222222;stroke-width:1;"/><ellipse cx="1444.9517" cy="1516.3857" fill="#222222" rx="6" ry="6" style="stroke:#222222;stroke-width:1;"/><line style="stroke:#000000;stroke-width:1.5;" x1="1307.0151" x2="1307.0151" y1="55.042" y2="1527.3857"/><line style="stroke:#000000;stroke-width:1.5;" x1="1876.1538" x2="1876.1538" y1="55.042" y2="1527.3857"/><line style="stroke:#181818;stroke-width:1;" x1="162.9521" x2="162.9521" y1="100.9951" y2="120.9951"/><polygon fill="#181818" points="158.9521,110.9951,162.9521,120.9951,166.9521,110.9951,162.9521,114.9951" style="stroke:#181818;stroke-width:1;"/><line style="stroke:#181818;stroke-width:1;" x1="162.9521" x2="162.9521" y1="290.8389" y2="310.8389"/><polygon fill="#181818" points="158.9521,300.8389,162.9521,310.8389,166.9521,300.8389,162.9521,304.8389" style="stroke:#181818;stroke-width:1;"/><line style="stroke:#181818;stroke-width:1;" x1="162.9521" x2="162.9521" y1="344.8076" y2="364.8076"/><polygon fill="#181818" points="158.9521,354.8076,162.9521,364.8076,166.9521,354.8076,162.9521,358.8076" style="stroke:#181818;stroke-width:1;"/><line style="stroke:#181818;stroke-width:1;" x1="162.9521" x2="162.9521" y1="412.7451" y2="432.7451"/><polygon fill="#181818" points="158.9521,422.7451,162.9521,432.7451,166.9521,422.7451,162.9521,426.7451" style="stroke:#181818;stroke-width:1;"/><line style="stroke:#181818;stroke-width:1;" x1="162.9521" x2="162.9521" y1="1079.667" y2="1099.667"/><polygon fill="#181818" points="158.9521,1089.667,162.9521,1099.667,166.9521,1089.667,162.9521,1093.667" style="stroke:#181818;stroke-width:1;"/><line style="stroke:#181818;stroke-width:1;" x1="162.9521" x2="162.9521" y1="1133.6357" y2="1153.6357"/><polygon fill="#181818" points="158.9521,1143.6357,162.9521,1153.6357,166.9521,1143.6357,162.9521,1147.6357" style="stroke:#181818;stroke-width:1;"/><line style="stroke:#181818;stroke-width:1;" x1="162.9521" x2="162.9521" y1="1201.5732" y2="1221.5732"/><polygon fill="#181818" points="158.9521,1211.5732,162.9521,1221.5732,166.9521,1211.5732,162.9521,1215.5732" style="stroke:#181818;stroke-width:1;"/><line style="stroke:#181818;stroke-width:1;" x1="838.8679" x2="838.8679" y1="534.6514" y2="554.6514"/><polygon fill="#181818" points="834.8679,544.6514,838.8679,554.6514,842.8679,544.6514,838.8679,548.6514" style="stroke:#181818;stroke-width:1;"/><line style="stroke:#181818;stroke-width:1;" x1="838.8679" x2="838.8679" y1="588.6201" y2="608.6201"/><polygon fill="#181818" points="834.8679,598.6201,838.8679,608.6201,842.8679,598.6201,838.8679,602.6201" style="stroke:#181818;stroke-width:1;"/><line style="stroke:#181818;stroke-width:1;" x1="838.8679" x2="838.8679" y1="656.5576" y2="676.5576"/><polygon fill="#181818" points="834.8679,666.5576,838.8679,676.5576,842.8679,666.5576,838.8679,670.5576" style="stroke:#181818;stroke-width:1;"/><line style="stroke:#181818;stroke-width:1;" x1="427.6377" x2="427.6377" y1="907.4326" y2="935.7295"/><polygon fill="#181818" points="423.6377,925.7295,427.6377,935.7295,431.6377,925.7295,427.6377,929.7295" style="stroke:#181818;stroke-width:1;"/><line style="stroke:#181818;stroke-width:1;" x1="475.0034" x2="427.6377" y1="851.4639" y2="851.4639"/><line style="stroke:#181818;stroke-width:1;" x1="427.6377" x2="427.6377" y1="851.4639" y2="873.4639"/><polygon fill="#181818" points="423.6377,863.4639,427.6377,873.4639,431.6377,863.4639,427.6377,867.4639" style="stroke:#181818;stroke-width:1;"/><line style="stroke:#181818;stroke-width:1;" x1="633.1519" x2="680.5176" y1="851.4639" y2="851.4639"/><line style="stroke:#181818;stroke-width:1;" x1="680.5176" x2="680.5176" y1="851.4639" y2="876.6123"/><polygon fill="#181818" points="676.5176,866.6123,680.5176,876.6123,684.5176,866.6123,680.5176,870.6123" style="stroke:#181818;stroke-width:1;"/><line style="stroke:#181818;stroke-width:1;" x1="427.6377" x2="427.6377" y1="969.6982" y2="987.6982"/><line style="stroke:#181818;stroke-width:1;" x1="427.6377" x2="542.0776" y1="987.6982" y2="987.6982"/><polygon fill="#181818" points="532.0776,983.6982,542.0776,987.6982,532.0776,991.6982,536.0776,987.6982" style="stroke:#181818;stroke-width:1;"/><line style="stroke:#181818;stroke-width:1;" x1="680.5176" x2="680.5176" y1="910.5811" y2="987.6982"/><line style="stroke:#181818;stroke-width:1;" x1="680.5176" x2="566.0776" y1="987.6982" y2="987.6982"/><polygon fill="#181818" points="576.0776,983.6982,566.0776,987.6982,576.0776,991.6982,572.0776,987.6982" style="stroke:#181818;stroke-width:1;"/><line style="stroke:#181818;stroke-width:1;" x1="554.0776" x2="554.0776" y1="804.4639" y2="839.4639"/><polygon fill="#181818" points="550.0776,829.4639,554.0776,839.4639,558.0776,829.4639,554.0776,833.4639" style="stroke:#181818;stroke-width:1;"/><line style="stroke:#181818;stroke-width:1;" x1="554.0776" x2="554.0776" y1="736.5264" y2="756.5264"/><polygon fill="#181818" points="550.0776,746.5264,554.0776,756.5264,558.0776,746.5264,554.0776,750.5264" style="stroke:#181818;stroke-width:1;"/><line style="stroke:#181818;stroke-width:1;" x1="1171.7905" x2="1171.7905" y1="736.5264" y2="774.5576"/><polygon fill="#181818" points="1167.7905,764.5576,1171.7905,774.5576,1175.7905,764.5576,1171.7905,768.5576" style="stroke:#181818;stroke-width:1;"/><line style="stroke:#181818;stroke-width:1;" x1="838.8679" x2="838.8679" y1="710.5264" y2="730.5264"/><polygon fill="#181818" points="834.8679,720.5264,838.8679,730.5264,842.8679,720.5264,838.8679,724.5264" style="stroke:#181818;stroke-width:1;"/><line style="stroke:#181818;stroke-width:1;" x1="838.8679" x2="838.8679" y1="1309.5107" y2="1329.5107"/><polygon fill="#181818" points="834.8679,1319.5107,838.8679,1329.5107,842.8679,1319.5107,838.8679,1323.5107" style="stroke:#181818;stroke-width:1;"/><line style="stroke:#181818;stroke-width:1;" x1="838.8679" x2="838.8679" y1="1377.4482" y2="1397.4482"/><polygon fill="#181818" points="834.8679,1387.4482,838.8679,1397.4482,842.8679,1387.4482,838.8679,1391.4482" style="stroke:#181818;stroke-width:1;"/><line style="stroke:#181818;stroke-width:1;" x1="1717.521" x2="1717.521" y1="905.4326" y2="933.7295"/><polygon fill="#181818" points="1713.521,923.7295,1717.521,933.7295,1721.521,923.7295,1717.521,927.7295" style="stroke:#181818;stroke-width:1;"/><line style="stroke:#181818;stroke-width:1;" x1="1717.521" x2="1717.521" y1="981.667" y2="1019.6982"/><polygon fill="#181818" points="1713.521,1009.6982,1717.521,1019.6982,1721.521,1009.6982,1717.521,1013.6982" style="stroke:#181818;stroke-width:1;"/><line style="stroke:#181818;stroke-width:1;" x1="1444.9517" x2="1444.9517" y1="1485.3857" y2="1505.3857"/><polygon fill="#181818" points="1440.9517,1495.3857,1444.9517,1505.3857,1448.9517,1495.3857,1444.9517,1499.3857" style="stroke:#181818;stroke-width:1;"/><line style="stroke:#181818;stroke-width:1;" x1="162.9521" x2="162.9521" y1="168.9326" y2="173.9326"/><line style="stroke:#181818;stroke-width:1;" x1="162.9521" x2="838.8679" y1="173.9326" y2="173.9326"/><line style="stroke:#181818;stroke-width:1;" x1="838.8679" x2="838.8679" y1="173.9326" y2="188.9326"/><polygon fill="#181818" points="834.8679,178.9326,838.8679,188.9326,842.8679,178.9326,838.8679,182.9326" style="stroke:#181818;stroke-width:1;"/><line style="stroke:#181818;stroke-width:1;" x1="838.8679" x2="838.8679" y1="236.8701" y2="241.8701"/><line style="stroke:#181818;stroke-width:1;" x1="838.8679" x2="162.9521" y1="241.8701" y2="241.8701"/><line style="stroke:#181818;stroke-width:1;" x1="162.9521" x2="162.9521" y1="241.8701" y2="256.8701"/><polygon fill="#181818" points="158.9521,246.8701,162.9521,256.8701,166.9521,246.8701,162.9521,250.8701" style="stroke:#181818;stroke-width:1;"/><line style="stroke:#181818;stroke-width:1;" x1="162.9521" x2="162.9521" y1="466.7139" y2="471.7139"/><line style="stroke:#181818;stroke-width:1;" x1="162.9521" x2="838.8679" y1="471.7139" y2="471.7139"/><line style="stroke:#181818;stroke-width:1;" x1="838.8679" x2="838.8679" y1="471.7139" y2="486.7139"/><polygon fill="#181818" points="834.8679,476.7139,838.8679,486.7139,842.8679,476.7139,838.8679,480.7139" style="stroke:#181818;stroke-width:1;"/><line style="stroke:#181818;stroke-width:1;" x1="1171.7905" x2="1171.7905" y1="822.4951" y2="839.9951"/><line style="stroke:#181818;stroke-width:1;" x1="1171.7905" x2="1717.521" y1="839.9951" y2="839.9951"/><line style="stroke:#181818;stroke-width:1;" x1="1717.521" x2="1717.521" y1="839.9951" y2="857.4951"/><polygon fill="#181818" points="1713.521,847.4951,1717.521,857.4951,1721.521,847.4951,1717.521,851.4951" style="stroke:#181818;stroke-width:1;"/><line style="stroke:#181818;stroke-width:1;" x1="554.0776" x2="554.0776" y1="999.6982" y2="1005.6982"/><line style="stroke:#181818;stroke-width:1;" x1="554.0776" x2="1320.0151" y1="1005.6982" y2="1005.6982"/><line style="stroke:#181818;stroke-width:1;" x1="1320.0151" x2="1320.0151" y1="1005.6982" y2="1019.6982"/><polygon fill="#181818" points="1316.0151,1009.6982,1320.0151,1019.6982,1324.0151,1009.6982,1320.0151,1013.6982" style="stroke:#181818;stroke-width:1;"/><line style="stroke:#181818;stroke-width:1;" x1="1444.9517" x2="1444.9517" y1="1025.6982" y2="1030.6982"/><line style="stroke:#181818;stroke-width:1;" x1="1444.9517" x2="162.9521" y1="1030.6982" y2="1030.6982"/><line style="stroke:#181818;stroke-width:1;" x1="162.9521" x2="162.9521" y1="1030.6982" y2="1045.6982"/><polygon fill="#181818" points="158.9521,1035.6982,162.9521,1045.6982,166.9521,1035.6982,162.9521,1039.6982" style="stroke:#181818;stroke-width:1;"/><line style="stroke:#181818;stroke-width:1;" x1="162.9521" x2="162.9521" y1="1255.542" y2="1260.542"/><line style="stroke:#181818;stroke-width:1;" x1="162.9521" x2="838.8679" y1="1260.542" y2="1260.542"/><line style="stroke:#181818;stroke-width:1;" x1="838.8679" x2="838.8679" y1="1260.542" y2="1275.542"/><polygon fill="#181818" points="834.8679,1265.542,838.8679,1275.542,842.8679,1265.542,838.8679,1269.542" style="stroke:#181818;stroke-width:1;"/><line style="stroke:#181818;stroke-width:1;" x1="838.8679" x2="838.8679" y1="1431.417" y2="1436.417"/><line style="stroke:#181818;stroke-width:1;" x1="838.8679" x2="1444.9517" y1="1436.417" y2="1436.417"/><line style="stroke:#181818;stroke-width:1;" x1="1444.9517" x2="1444.9517" y1="1436.417" y2="1451.417"/><polygon fill="#181818" points="1440.9517,1441.417,1444.9517,1451.417,1448.9517,1441.417,1444.9517,1445.417" style="stroke:#181818;stroke-width:1;"/><text fill="#000000" font-family="sans-serif" font-size="18" lengthAdjust="spacing" textLength="132.6445" x="95.6299" y="71.75">&#1056;&#1072;&#1073;&#1086;&#1090;&#1086;&#1076;&#1072;&#1090;&#1077;&#1083;&#1100;</text><text fill="#000000" font-family="sans-serif" font-size="18" lengthAdjust="spacing" textLength="111.8057" x="749.5569" y="71.75">Backend API</text><text fill="#000000" font-family="sans-serif" font-size="18" lengthAdjust="spacing" textLength="79.4795" x="1551.8447" y="71.75">&#1057;&#1090;&#1091;&#1076;&#1077;&#1085;&#1090;</text><?plantuml-src ZLNHIXjH47tFLzp71Fm2GobficqZDahKMY4G5brrqQuI5ql1XvYqjH1H4A5zKIjzx4jCJREDoGf-mRs_q2_fcRatPcEMLiHexfqvCtFcp5pVzJSTaLdstLtNVozohhrMiT-AFzLJ8SzaKtPaNpRLWMpZRo3R0XzzLPDjLPKjTQYES21aAAzm7SgMlBatLFimQwgQggjzsKmazkGtm5t94CUXlAOhsDwemxt4ZczN_CIaFCTHLrLL0q1DXAW1HDxA09-Xx0fsxI94W4y4Atcu3CccXQzj-LkmNnU_VHm6CaWZx3DxUSFnLaHcDh-762USUXzPrTJXA6H0KE5eug7ibRo2jKXrmqei579MiLoqNkUjnVG_YvgKNsK760U3KgguwQWZsMCMXIvC7U9xK-Ya0H0O49INfcp1nHNigWPap0wkruXtFDONylxEvfq8dzfBrIT05IVKKySJ9KzzG0LLoeHiY0VyD51mLzK52O3CGGkvg0DL9t0Inoz4xHdeknyZUWaqlm-okhk9QSa5RaaxPANTfXRdHP9FGQMmNirEponPnHJWgEVCHekIwklwYHBgwD430MWMBW7JCOKZemvk3VKYx_bEPTTrtf7T-Rs8TH9H7OZCzlQckspxxfQ752XklZ1l5Ka6vRdiIoktC6tb2ENB0Dx4OmrTgGQmU7nQ0XTrwg2gWOlLhSf6GeXHIeGmE4G15sAGYCsFp0lD62fHdwXAD71VPErD0DWLWaW3mbqLoUWP4HLo4-j845FwD2NyTSSJINagcobuKDXHicAI9tBra9CHz90UUd9kr0oTyBA9NdPs7SylkojawcpkE0XvHfeP1BsWCQC3uvZDJ5k5NAPOdbigP9_CulzyuOMEustvZgYuQ-k-c1JisA9fKLN1R0MaW93bM-DCeZk9nFCmVRBugPS8YrHtZlBqLjnLRe-mrspNYsqIBQo174sJwYHaeXeLZIv3xdgRva7LIrvoCC0ZeoYYapWHcKDqY0ZOavTH89t51Sz9PDF4vu01FG7ilc4APT_WwsVy7gcQ4NNSl788zkX7nXtxc1TlM-T2CZGxqeoe4IxjkJRNrwUZT888PDKd_hC-1siXrCCIk-76NmoY2WUaYGEzliPMPjnY1UzKNvE28qm3Zqbq_YTBtippvzZyrfjvoD7A3Tw3eZLbPUVrw9_oEqXQm48U94CzwEbkiU0282TnUakZouDiOiem5RCR7xkKubOFhmYEFNoze-i78ZHmLIwOfeTZZPMVqg_9K5N3P8PY9Fc4_Cn1L6RY-8by8Db72pO6RSVVsluB?></g></svg>