<svg xmlns="http://www.w3.org/2000/svg" xmlns:xlink="http://www.w3.org/1999/xlink" contentStyleType="text/css" data-diagram-type="STATE" height="920px" preserveAspectRatio="none" style="width:928px;height:920px;background:#FFFFFF;" version="1.1" viewBox="0 0 928 920" width="928px" zoomAndPan="magnify"><?plantuml 1.2026.4beta2?><defs/><g><g class="title" data-source-line="1"><text fill="#000000" font-family="sans-serif" font-size="14" font-weight="700" lengthAdjust="spacing" textLength="358.4629" x="281.4312" y="22.9951">State Diagram &#8212; &#1046;&#1080;&#1079;&#1085;&#1077;&#1085;&#1085;&#1099;&#1081; &#1094;&#1080;&#1082;&#1083; &#1074;&#1072;&#1082;&#1072;&#1085;&#1089;&#1080;&#1080;</text></g><path d="M358.65,140.2969 L614.3634,140.2969 A12.5,12.5 0 0 1 626.8634,152.7969 L626.8634,165.4297 L346.15,165.4297 L346.15,152.7969 A12.5,12.5 0 0 1 358.65,140.2969" fill="#F1F1F1"/><rect fill="none" height="90.3984" rx="12.5" ry="12.5" style="stroke:#181818;stroke-width:1.5;" width="280.7134" x="346.15" y="140.2969"/><line style="stroke:#181818;stroke-width:1.5;" x1="346.15" x2="626.8634" y1="165.4297" y2="165.4297"/><text fill="#000000" font-family="sans-serif" font-size="13" lengthAdjust="spacing" textLength="65.5776" x="453.7179" y="157.3638">&#1063;&#1077;&#1088;&#1085;&#1086;&#1074;&#1080;&#1082;</text><g class="entity" data-qualified-name=".........N1" data-source-line="11" id="ent0003"><path d="M357.15,176.4297 L357.15,216.6953 L602.8634,216.6953 L602.8634,186.4297 L592.8634,176.4297 L357.15,176.4297" fill="#FEFFDD" style="stroke:#181818;stroke-width:0.5;"/><path d="M592.8634,176.4297 L592.8634,186.4297 L602.8634,186.4297 L592.8634,176.4297" fill="#FEFFDD" style="stroke:#181818;stroke-width:1;"/><text fill="#000000" font-family="sans-serif" font-size="13" lengthAdjust="spacing" textLength="224.7134" x="363.15" y="193.4966">&#1044;&#1086;&#1089;&#1090;&#1091;&#1087;&#1077;&#1085; &#1090;&#1086;&#1083;&#1100;&#1082;&#1086; &#1088;&#1072;&#1073;&#1086;&#1090;&#1086;&#1076;&#1072;&#1090;&#1077;&#1083;&#1102;.</text><text fill="#000000" font-family="sans-serif" font-size="13" lengthAdjust="spacing" textLength="159.7451" x="363.15" y="208.6294">&#1052;&#1086;&#1078;&#1085;&#1086; &#1088;&#1077;&#1076;&#1072;&#1082;&#1090;&#1080;&#1088;&#1086;&#1074;&#1072;&#1090;&#1100;.</text></g><path d="M113.22,322.6969 L331.7805,322.6969 A12.5,12.5 0 0 1 344.2805,335.1969 L344.2805,347.8297 L100.72,347.8297 L100.72,335.1969 A12.5,12.5 0 0 1 113.22,322.6969" fill="#F1F1F1"/><rect fill="none" height="90.3984" rx="12.5" ry="12.5" style="stroke:#181818;stroke-width:1.5;" width="243.5605" x="100.72" y="322.6969"/><line style="stroke:#181818;stroke-width:1.5;" x1="100.72" x2="344.2805" y1="347.8297" y2="347.8297"/><text fill="#000000" font-family="sans-serif" font-size="13" lengthAdjust="spacing" textLength="95.8623" x="174.5691" y="339.7638">&#1053;&#1072;&#1052;&#1086;&#1076;&#1077;&#1088;&#1072;&#1094;&#1080;&#1080;</text><g class="entity" data-qualified-name="............N2" data-source-line="18" id="ent0005"><path d="M111.72,358.8297 L111.72,399.0953 L320.2805,399.0953 L320.2805,368.8297 L310.2805,358.8297 L111.72,358.8297" fill="#FEFFDD" style="stroke:#181818;stroke-width:0.5;"/><path d="M310.2805,358.8297 L310.2805,368.8297 L320.2805,368.8297 L310.2805,358.8297" fill="#FEFFDD" style="stroke:#181818;stroke-width:1;"/><text fill="#000000" font-family="sans-serif" font-size="13" lengthAdjust="spacing" textLength="137.8647" x="117.72" y="375.8966">&#1042;&#1072;&#1082;&#1072;&#1085;&#1089;&#1080;&#1103; &#1074; &#1086;&#1095;&#1077;&#1088;&#1077;&#1076;&#1080;</text><text fill="#000000" font-family="sans-serif" font-size="13" lengthAdjust="spacing" textLength="187.5605" x="117.72" y="391.0294">&#1085;&#1072; &#1087;&#1088;&#1086;&#1074;&#1077;&#1088;&#1082;&#1091; &#1091; &#1084;&#1086;&#1076;&#1077;&#1088;&#1072;&#1090;&#1086;&#1088;&#1072;.</text></g><path d="M113.71,520.0969 L323.295,520.0969 A12.5,12.5 0 0 1 335.795,532.5969 L335.795,545.2297 L101.21,545.2297 L101.21,532.5969 A12.5,12.5 0 0 1 113.71,520.0969" fill="#F1F1F1"/><rect fill="none" height="105.5313" rx="12.5" ry="12.5" style="stroke:#181818;stroke-width:1.5;" width="234.585" x="101.21" y="520.0969"/><line style="stroke:#181818;stroke-width:1.5;" x1="101.21" x2="335.795" y1="545.2297" y2="545.2297"/><text fill="#000000" font-family="sans-serif" font-size="13" lengthAdjust="spacing" textLength="99.0996" x="168.9527" y="537.1638">&#1054;&#1087;&#1091;&#1073;&#1083;&#1080;&#1082;&#1086;&#1074;&#1072;&#1085;&#1072;</text><g class="entity" data-qualified-name=".............N3" data-source-line="26" id="ent0007"><path d="M112.21,556.2297 L112.21,611.6281 L311.795,611.6281 L311.795,566.2297 L301.795,556.2297 L112.21,556.2297" fill="#FEFFDD" style="stroke:#181818;stroke-width:0.5;"/><path d="M301.795,556.2297 L301.795,566.2297 L311.795,566.2297 L301.795,556.2297" fill="#FEFFDD" style="stroke:#181818;stroke-width:1;"/><text fill="#000000" font-family="sans-serif" font-size="13" lengthAdjust="spacing" textLength="161.0781" x="118.21" y="573.2966">&#1042;&#1080;&#1076;&#1085;&#1072; &#1074;&#1089;&#1077;&#1084; &#1089;&#1090;&#1091;&#1076;&#1077;&#1085;&#1090;&#1072;&#1084;.</text><text fill="#000000" font-family="sans-serif" font-size="13" lengthAdjust="spacing" textLength="178.585" x="118.21" y="588.4294">&#1054;&#1090;&#1086;&#1073;&#1088;&#1072;&#1078;&#1072;&#1077;&#1090;&#1089;&#1103; &#1074; &#1082;&#1072;&#1090;&#1072;&#1083;&#1086;&#1075;&#1077;</text><text fill="#000000" font-family="sans-serif" font-size="13" lengthAdjust="spacing" textLength="124.8394" x="118.21" y="603.5622">&#1080; &#1088;&#1077;&#1082;&#1086;&#1084;&#1077;&#1085;&#1076;&#1072;&#1094;&#1080;&#1103;&#1093;.</text></g><path d="M654.17,527.6669 L900.8253,527.6669 A12.5,12.5 0 0 1 913.3253,540.1669 L913.3253,552.7997 L641.67,552.7997 L641.67,540.1669 A12.5,12.5 0 0 1 654.17,527.6669" fill="#F1F1F1"/><rect fill="none" height="90.3984" rx="12.5" ry="12.5" style="stroke:#181818;stroke-width:1.5;" width="271.6553" x="641.67" y="527.6669"/><line style="stroke:#181818;stroke-width:1.5;" x1="641.67" x2="913.3253" y1="552.7997" y2="552.7997"/><text fill="#000000" font-family="sans-serif" font-size="13" lengthAdjust="spacing" textLength="74.8833" x="740.056" y="544.7338">&#1054;&#1090;&#1082;&#1083;&#1086;&#1085;&#1077;&#1085;&#1072;</text><g class="entity" data-qualified-name="..........N4" data-source-line="33" id="ent0009"><path d="M652.67,563.7997 L652.67,604.0653 L889.3253,604.0653 L889.3253,573.7997 L879.3253,563.7997 L652.67,563.7997" fill="#FEFFDD" style="stroke:#181818;stroke-width:0.5;"/><path d="M879.3253,563.7997 L879.3253,573.7997 L889.3253,573.7997 L879.3253,563.7997" fill="#FEFFDD" style="stroke:#181818;stroke-width:1;"/><text fill="#000000" font-family="sans-serif" font-size="13" lengthAdjust="spacing" textLength="144.1108" x="658.67" y="580.8666">&#1055;&#1088;&#1080;&#1095;&#1080;&#1085;&#1072; &#1086;&#1090;&#1082;&#1083;&#1086;&#1085;&#1077;&#1085;&#1080;&#1103;</text><text fill="#000000" font-family="sans-serif" font-size="13" lengthAdjust="spacing" textLength="215.6553" x="658.67" y="595.9994">&#1089;&#1086;&#1093;&#1088;&#1072;&#1085;&#1077;&#1085;&#1072; &#1074; moderation_record.</text></g><path d="M116.51,732.6269 L384.4934,732.6269 A12.5,12.5 0 0 1 396.9934,745.1269 L396.9934,757.7597 L104.01,757.7597 L104.01,745.1269 A12.5,12.5 0 0 1 116.51,732.6269" fill="#F1F1F1"/><rect fill="none" height="90.3984" rx="12.5" ry="12.5" style="stroke:#181818;stroke-width:1.5;" width="292.9834" x="104.01" y="732.6269"/><line style="stroke:#181818;stroke-width:1.5;" x1="104.01" x2="396.9934" y1="757.7597" y2="757.7597"/><text fill="#000000" font-family="sans-serif" font-size="13" lengthAdjust="spacing" textLength="58.208" x="221.3977" y="749.6938">&#1047;&#1072;&#1082;&#1088;&#1099;&#1090;&#1072;</text><g class="entity" data-qualified-name="........N5" data-source-line="40" id="ent0011"><path d="M115.01,768.7597 L115.01,809.0253 L372.9934,809.0253 L372.9934,778.7597 L362.9934,768.7597 L115.01,768.7597" fill="#FEFFDD" style="stroke:#181818;stroke-width:0.5;"/><path d="M362.9934,768.7597 L362.9934,778.7597 L372.9934,778.7597 L362.9934,768.7597" fill="#FEFFDD" style="stroke:#181818;stroke-width:1;"/><text fill="#000000" font-family="sans-serif" font-size="13" lengthAdjust="spacing" textLength="236.9834" x="121.01" y="785.8266">&#1054;&#1090;&#1082;&#1083;&#1080;&#1082;&#1080; &#1073;&#1086;&#1083;&#1100;&#1096;&#1077; &#1085;&#1077; &#1087;&#1088;&#1080;&#1085;&#1080;&#1084;&#1072;&#1102;&#1090;&#1089;&#1103;.</text><text fill="#000000" font-family="sans-serif" font-size="13" lengthAdjust="spacing" textLength="151.0552" x="121.01" y="800.9594">&#1048;&#1089;&#1090;&#1086;&#1088;&#1080;&#1103; &#1089;&#1086;&#1093;&#1088;&#1072;&#1085;&#1103;&#1077;&#1090;&#1089;&#1103;.</text></g><path d="M455.64,732.6269 L721.3636,732.6269 A12.5,12.5 0 0 1 733.8636,745.1269 L733.8636,757.7597 L443.14,757.7597 L443.14,745.1269 A12.5,12.5 0 0 1 455.64,732.6269" fill="#F1F1F1"/><rect fill="none" height="90.3984" rx="12.5" ry="12.5" style="stroke:#181818;stroke-width:1.5;" width="290.7236" x="443.14" y="732.6269"/><line style="stroke:#181818;stroke-width:1.5;" x1="443.14" x2="733.8636" y1="757.7597" y2="757.7597"/><text fill="#000000" font-family="sans-serif" font-size="13" lengthAdjust="spacing" textLength="49.6831" x="563.6603" y="749.6938">&#1059;&#1076;&#1072;&#1083;&#1105;&#1085;</text><g class="entity" data-qualified-name=".......N6" data-source-line="44" id="ent0013"><path d="M454.14,768.7597 L454.14,809.0253 L709.8636,809.0253 L709.8636,778.7597 L699.8636,768.7597 L454.14,768.7597" fill="#FEFFDD" style="stroke:#181818;stroke-width:0.5;"/><path d="M699.8636,768.7597 L699.8636,778.7597 L709.8636,778.7597 L699.8636,768.7597" fill="#FEFFDD" style="stroke:#181818;stroke-width:1;"/><text fill="#000000" font-family="sans-serif" font-size="13" lengthAdjust="spacing" textLength="123.8364" x="460.14" y="785.8266">&#1052;&#1103;&#1075;&#1082;&#1086;&#1077; &#1091;&#1076;&#1072;&#1083;&#1077;&#1085;&#1080;&#1077;.</text><text fill="#000000" font-family="sans-serif" font-size="13" lengthAdjust="spacing" textLength="234.7236" x="460.14" y="800.9594">&#1044;&#1072;&#1085;&#1085;&#1099;&#1077; &#1085;&#1077; &#1091;&#1076;&#1072;&#1083;&#1103;&#1102;&#1090;&#1089;&#1103; &#1092;&#1080;&#1079;&#1080;&#1095;&#1077;&#1089;&#1082;&#1080;.</text></g><g class="start_entity" data-qualified-name=".start." data-source-line="8" id="ent0002"><ellipse cx="486.5" cy="53.2969" fill="#222222" rx="10" ry="10" style="stroke:#222222;stroke-width:1;"/></g><g class="end_entity" data-qualified-name=".end." data-source-line="47" id="ent0013"><ellipse cx="413.5" cy="895.0269" fill="none" rx="11" ry="11" style="stroke:#222222;stroke-width:1;"/><ellipse cx="413.5" cy="895.0269" fill="#222222" rx="6" ry="6" style="stroke:#222222;stroke-width:1;"/></g><!--link *start* to ????????--><g class="link" data-entity-1="ent0002" data-entity-2="ent0002" data-link-type="dependency" data-source-line="8" id="lnk3"><path d="M486.5,63.6669 C486.5,79.4669 486.5,106.3969 486.5,133.8869" fill="none" id="*start*-to-&#1063;&#1077;&#1088;&#1085;&#1086;&#1074;&#1080;&#1082;" style="stroke:#181818;stroke-width:1;"/><polygon fill="#181818" points="486.5,139.8869,490.5,130.8869,486.5,134.8869,482.5,130.8869,486.5,139.8869" style="stroke:#181818;stroke-width:1;"/><text fill="#000000" font-family="sans-serif" font-size="13" lengthAdjust="spacing" textLength="147.2085" x="487.5" y="106.3638">&#1056;&#1072;&#1073;&#1086;&#1090;&#1086;&#1076;&#1072;&#1090;&#1077;&#1083;&#1100; &#1089;&#1086;&#1079;&#1076;&#1072;&#1083;</text></g><!--link ???????? to ???????????--><g class="link" data-entity-1="ent0002" data-entity-2="ent0004" data-link-type="dependency" data-source-line="14" id="lnk4"><path d="M345.77,209.6669 C290.38,221.9169 236.02,238.9569 219.5,260.6969 C206.39,277.9569 204.9782,295.8145 208.3382,316.5045" fill="none" id="&#1063;&#1077;&#1088;&#1085;&#1086;&#1074;&#1080;&#1082;-to-&#1053;&#1072;&#1052;&#1086;&#1076;&#1077;&#1088;&#1072;&#1094;&#1080;&#1080;" style="stroke:#181818;stroke-width:1;"/><polygon fill="#181818" points="209.3,322.4269,211.8056,312.9021,208.4985,317.4915,203.909,314.1844,209.3,322.4269" style="stroke:#181818;stroke-width:1;"/><text fill="#000000" font-family="sans-serif" font-size="13" lengthAdjust="spacing" textLength="54.7803" x="253.9902" y="273.7638">submit()</text><text fill="#000000" font-family="sans-serif" font-size="13" lengthAdjust="spacing" textLength="121.7607" x="220.5" y="288.8966">[&#1087;&#1086;&#1083;&#1103; &#1079;&#1072;&#1087;&#1086;&#1083;&#1085;&#1077;&#1085;&#1099;]</text></g><!--link ??????????? to ????????--><g class="link" data-entity-1="ent0004" data-entity-2="ent0002" data-link-type="dependency" data-source-line="23" id="lnk8"><path d="M301.99,322.3569 C317.1,313.0469 332.54,302.9369 346.5,292.6969 C363.76,280.0369 365.77,274.0469 382.5,260.6969 C394.9,250.8069 403.6277,244.1722 416.7677,234.6722" fill="none" id="&#1053;&#1072;&#1052;&#1086;&#1076;&#1077;&#1088;&#1072;&#1094;&#1080;&#1080;-to-&#1063;&#1077;&#1088;&#1085;&#1086;&#1074;&#1080;&#1082;" style="stroke:#181818;stroke-width:1;"/><polygon fill="#181818" points="421.63,231.1569,411.9929,233.1884,417.5781,234.0864,416.6801,239.6715,421.63,231.1569" style="stroke:#181818;stroke-width:1;"/><text fill="#000000" font-family="sans-serif" font-size="13" lengthAdjust="spacing" textLength="178.8579" x="383.5" y="273.7638">sendForRevision(comment)</text><text fill="#000000" font-family="sans-serif" font-size="13" lengthAdjust="spacing" textLength="149.9951" x="397.9314" y="288.8966">[&#1085;&#1091;&#1078;&#1085;&#1099; &#1080;&#1089;&#1087;&#1088;&#1072;&#1074;&#1083;&#1077;&#1085;&#1080;&#1103;]</text></g><!--link ???????? to ??????--><g class="link" data-entity-1="ent0002" data-entity-2="ent0012" data-link-type="dependency" data-source-line="15" id="lnk5"><path d="M545.82,230.9569 C554.11,239.8669 561.5,249.8669 566.5,260.6969 C640.51,420.8869 614.8021,633.8081 598.4521,726.5181" fill="none" id="&#1063;&#1077;&#1088;&#1085;&#1086;&#1074;&#1080;&#1082;-to-&#1059;&#1076;&#1072;&#1083;&#1105;&#1085;" style="stroke:#181818;stroke-width:1;"/><polygon fill="#181818" points="597.41,732.4269,602.9123,724.2584,598.2784,727.5029,595.0339,722.8689,597.41,732.4269" style="stroke:#181818;stroke-width:1;"/><text fill="#000000" font-family="sans-serif" font-size="13" lengthAdjust="spacing" textLength="51.0986" x="616.5" y="471.1638">delete()</text></g><!--link ??????????? to ????????????--><g class="link" data-entity-1="ent0004" data-entity-2="ent0006" data-link-type="dependency" data-source-line="21" id="lnk6"><path d="M217.6,413.5769 C216.73,423.2969 215.95,433.5369 215.5,443.0969 C214.31,468.3369 214.5376,490.391 215.4076,513.841" fill="none" id="&#1053;&#1072;&#1052;&#1086;&#1076;&#1077;&#1088;&#1072;&#1094;&#1080;&#1080;-to-&#1054;&#1087;&#1091;&#1073;&#1083;&#1080;&#1082;&#1086;&#1074;&#1072;&#1085;&#1072;" style="stroke:#181818;stroke-width:1;"/><polygon fill="#181818" points="215.63,519.8369,219.2936,510.6948,215.4446,514.8403,211.2991,510.9914,215.63,519.8369" style="stroke:#181818;stroke-width:1;"/><text fill="#000000" font-family="sans-serif" font-size="13" lengthAdjust="spacing" textLength="63.6035" x="258.1692" y="463.6638">approve()</text><text fill="#000000" font-family="sans-serif" font-size="13" lengthAdjust="spacing" textLength="146.9419" x="216.5" y="478.7966">[&#1084;&#1086;&#1076;&#1077;&#1088;&#1072;&#1090;&#1086;&#1088; &#1086;&#1076;&#1086;&#1073;&#1088;&#1080;&#1083;]</text></g><!--link ???????????? to ???????????--><g class="link" data-entity-1="ent0006" data-entity-2="ent0004" data-link-type="dependency" data-source-line="30" id="lnk10"><path d="M100.8,536.8369 C49.24,515.0369 6,483.4369 33.5,443.0969 C49.49,419.6469 68.5743,405.9312 94.8143,394.9612" fill="none" id="&#1054;&#1087;&#1091;&#1073;&#1083;&#1080;&#1082;&#1086;&#1074;&#1072;&#1085;&#1072;-to-&#1053;&#1072;&#1052;&#1086;&#1076;&#1077;&#1088;&#1072;&#1094;&#1080;&#1080;" style="stroke:#181818;stroke-width:1;"/><polygon fill="#181818" points="100.35,392.6469,90.5036,392.4278,95.7369,394.5754,93.5893,399.8088,100.35,392.6469" style="stroke:#181818;stroke-width:1;"/><text fill="#000000" font-family="sans-serif" font-size="13" lengthAdjust="spacing" textLength="68.123" x="86.6301" y="456.1638">resubmit()</text><text fill="#000000" font-family="sans-serif" font-size="13" lengthAdjust="spacing" textLength="137.103" x="52.1401" y="471.2966">[&#1090;&#1088;&#1077;&#1073;&#1091;&#1077;&#1090; &#1087;&#1086;&#1074;&#1090;&#1086;&#1088;&#1085;&#1086;&#1081;</text><text fill="#000000" font-family="sans-serif" font-size="13" lengthAdjust="spacing" textLength="172.3833" x="34.5" y="486.4294">&#1087;&#1088;&#1086;&#1074;&#1077;&#1088;&#1082;&#1080; &#1087;&#1086;&#1089;&#1083;&#1077; &#1078;&#1072;&#1083;&#1086;&#1073;&#1099;]</text></g><!--link ??????????? to ?????????--><g class="link" data-entity-1="ent0004" data-entity-2="ent0008" data-link-type="dependency" data-source-line="22" id="lnk7"><path d="M324.05,413.4569 C339.34,422.2169 354.36,432.1369 367.5,443.0969 C387.71,459.9469 381.3,475.9869 403.5,490.0969 C474.32,535.1069 560.2948,554.8747 635.2848,564.0947" fill="none" id="&#1053;&#1072;&#1052;&#1086;&#1076;&#1077;&#1088;&#1072;&#1094;&#1080;&#1080;-to-&#1054;&#1090;&#1082;&#1083;&#1086;&#1085;&#1077;&#1085;&#1072;" style="stroke:#181818;stroke-width:1;"/><polygon fill="#181818" points="641.24,564.8269,632.7954,559.7585,636.2774,564.2167,631.8191,567.6987,641.24,564.8269" style="stroke:#181818;stroke-width:1;"/><text fill="#000000" font-family="sans-serif" font-size="13" lengthAdjust="spacing" textLength="91.6157" x="429.0242" y="463.6638">reject(reason)</text><text fill="#000000" font-family="sans-serif" font-size="13" lengthAdjust="spacing" textLength="140.6641" x="404.5" y="478.7966">[&#1085;&#1072;&#1088;&#1091;&#1096;&#1077;&#1085;&#1080;&#1077; &#1087;&#1088;&#1072;&#1074;&#1080;&#1083;]</text></g><!--link ???????????? to ???????--><g class="link" data-entity-1="ent0006" data-entity-2="ent0010" data-link-type="dependency" data-source-line="29" id="lnk9"><path d="M226.7,625.8669 C231.89,658.7569 237.5867,694.8899 242.5267,726.2599" fill="none" id="&#1054;&#1087;&#1091;&#1073;&#1083;&#1080;&#1082;&#1086;&#1074;&#1072;&#1085;&#1072;-to-&#1047;&#1072;&#1082;&#1088;&#1099;&#1090;&#1072;" style="stroke:#181818;stroke-width:1;"/><polygon fill="#181818" points="243.46,732.1869,246.0113,722.6742,242.6822,727.2477,238.1087,723.9187,243.46,732.1869" style="stroke:#181818;stroke-width:1;"/><text fill="#000000" font-family="sans-serif" font-size="13" lengthAdjust="spacing" textLength="43.6274" x="295.1721" y="668.6938">close()</text><text fill="#000000" font-family="sans-serif" font-size="13" lengthAdjust="spacing" textLength="154.9717" x="239.5" y="683.8266">[&#1088;&#1072;&#1073;&#1086;&#1090;&#1086;&#1076;&#1072;&#1090;&#1077;&#1083;&#1100; &#1079;&#1072;&#1082;&#1088;&#1099;&#1083;</text><text fill="#000000" font-family="sans-serif" font-size="13" lengthAdjust="spacing" textLength="108.7671" x="262.6023" y="698.9594">&#1080;&#1083;&#1080; &#1089;&#1088;&#1086;&#1082; &#1080;&#1089;&#1090;&#1105;&#1082;]</text></g><!--link ????????? to ????????--><g class="link" data-entity-1="ent0008" data-entity-2="ent0002" data-link-type="dependency" data-source-line="36" id="lnk11"><path d="M763.2,527.3769 C740.45,462.2769 690.66,340.1869 614.5,260.6969 C603.93,249.6669 596.3523,243.0751 583.2723,234.3551" fill="none" id="&#1054;&#1090;&#1082;&#1083;&#1086;&#1085;&#1077;&#1085;&#1072;-to-&#1063;&#1077;&#1088;&#1085;&#1086;&#1074;&#1080;&#1082;" style="stroke:#181818;stroke-width:1;"/><polygon fill="#181818" points="578.28,231.0269,583.5497,239.3474,582.4403,233.8004,587.9873,232.691,578.28,231.0269" style="stroke:#181818;stroke-width:1;"/><text fill="#000000" font-family="sans-serif" font-size="13" lengthAdjust="spacing" textLength="122.1543" x="742.0332" y="364.9638">editAndResubmit()</text><text fill="#000000" font-family="sans-serif" font-size="13" lengthAdjust="spacing" textLength="175.2207" x="715.5" y="380.0966">[&#1088;&#1072;&#1073;&#1086;&#1090;&#1086;&#1076;&#1072;&#1090;&#1077;&#1083;&#1100; &#1080;&#1089;&#1087;&#1088;&#1072;&#1074;&#1080;&#1083;]</text></g><!--link ????????? to ??????--><g class="link" data-entity-1="ent0008" data-entity-2="ent0012" data-link-type="dependency" data-source-line="37" id="lnk12"><path d="M736.03,618.4069 C704.51,652.2469 665.4593,694.1863 633.9693,727.9963" fill="none" id="&#1054;&#1090;&#1082;&#1083;&#1086;&#1085;&#1077;&#1085;&#1072;-to-&#1059;&#1076;&#1072;&#1083;&#1105;&#1085;" style="stroke:#181818;stroke-width:1;"/><polygon fill="#181818" points="629.88,732.3869,638.9411,728.5272,633.2878,728.728,633.0869,723.0748,629.88,732.3869" style="stroke:#181818;stroke-width:1;"/><text fill="#000000" font-family="sans-serif" font-size="13" lengthAdjust="spacing" textLength="51.0986" x="701.5" y="683.6938">delete()</text></g><!--link ??????? to *end*--><g class="link" data-entity-1="ent0010" data-entity-2="ent0013" data-link-type="dependency" data-source-line="47" id="lnk14"><path d="M313.52,823.3669 C348.28,847.9369 382.8804,872.3836 399.9704,884.4636" fill="none" id="&#1047;&#1072;&#1082;&#1088;&#1099;&#1090;&#1072;-to-*end*" style="stroke:#181818;stroke-width:1;"/><polygon fill="#181818" points="404.87,887.9269,399.8295,879.4656,400.787,885.0408,395.2118,885.9984,404.87,887.9269" style="stroke:#181818;stroke-width:1;"/></g><!--link ?????? to *end*--><g class="link" data-entity-1="ent0012" data-entity-2="ent0013" data-link-type="dependency" data-source-line="48" id="lnk15"><path d="M520.84,823.3669 C483.33,848.0569 445.703,872.8399 427.503,884.8099" fill="none" id="&#1059;&#1076;&#1072;&#1083;&#1105;&#1085;-to-*end*" style="stroke:#181818;stroke-width:1;"/><polygon fill="#181818" points="422.49,888.1069,432.2074,886.5034,426.6675,885.3594,427.8115,879.8194,422.49,888.1069" style="stroke:#181818;stroke-width:1;"/></g><?plantuml-src XLN1JXDH5DttAsvO5HD8K771maHZMBe0Tz2OiNtH4Jf3PaOM6fCMH4qWD1YYBX1DNBYT5gOEdL9-uRrVy4iyzxvfCxLKaaxQtlVUFVUUS-wRo8qs5Qr6JgJeaUiy3vmw_MaSa_wiK_rRN-e4pwNPrnTatYFKqndfZexn8qQyYL1QAeKRhhVbyDbGChqf4JtqWveAdhnmgnkU2aDQc5z4TDdtebNtjQA5EwMtfTBQhGhDpTqd_KidfW6e0P83XPP8_m12Mm_C3eBdEiPteZDpG00Te3I4T0Pe0PmupnLuFbPcz35oDCsEsTLNt0r9GYH22mF2eUjG3kVNFNs2K9Tpygv407jOJ_6FOR3N7CpFa1FIumLkPg88wUmRZfr8SbwCXSKK_OMldjNTg3oxxgsXCAweHMWhjdyiysQ_CYNhJzk_EK93IrHJcofIvTaH7TU35aZvL9IGaJi44Zx8TcurHV-NEYPzbNVB2pspI_ZeVY4pUEFld8VRmiFrw5BtAHBkWl1Cl2Gq2iuIELjRWR-jB24J22I1WMuZbEgiydyGd85HiMZzo-a3zL9LetAWdD3t10Dnqp2xvgFiINLYcus5vXiG9kqQAg-sx0ShQjiDNTyhL_rwNNcHHKBBNLQJm7LpX99PODEgZ7IRHi-OSYag4cqwI9ReFkNsFXVBxE18d-rxAfvk2rWNJu9DpLpgdl0Q2qTdEi7kr9gSGVjIrxdjsBJCNYwkJEpK4eMNBp8Z3RFFsS5ATTCFhQHJ1kt0UbxEw8phuCJS4Tkk9uIXxYFTgzm0FMtE0bMODAJYBjj80pf8PgsJUvZLl405Ouv72ju4eZCsI3VdhCsJEH9jmcu5kRwpOJ5OgPLiyCzUyBlkyOrczeIXOGQ8LFTnVpeHpFGqK5NSfhaCTwqC4w1JZAbgRlJ0gwsCqJ1LZA8_xHHC0RhX0XetGe6FORhKSjksTp4F8J60dS5K1hAFmWwjQTdFNza9eXHVM4NEJ6jexfoYHQOehwHOQA6E4nmw4nSb9BCJ3-TH9unsB6BmcoylRBW90v4NHUQTl2HJkJURt52EVqya6kU0MSFhhZHMK1xy2m00?></g></svg>