<svg xmlns="http://www.w3.org/2000/svg" xmlns:xlink="http://www.w3.org/1999/xlink" contentStyleType="text/css" data-diagram-type="STATE" height="1027px" preserveAspectRatio="none" style="width:1069px;height:1027px;background:#FFFFFF;" version="1.1" viewBox="0 0 1069 1027" width="1069px" zoomAndPan="magnify"><?plantuml 1.2026.4beta2?><defs/><g><g class="title" data-source-line="1"><text fill="#000000" font-family="sans-serif" font-size="14" font-weight="700" lengthAdjust="spacing" textLength="456.832" x="302.7178" y="22.9951">State Diagram &#8212; &#1046;&#1080;&#1079;&#1085;&#1077;&#1085;&#1085;&#1099;&#1081; &#1094;&#1080;&#1082;&#1083; &#1086;&#1090;&#1082;&#1083;&#1080;&#1082;&#1072; (Application)</text></g><path d="M662.93,140.2969 L822.1019,140.2969 A12.5,12.5 0 0 1 834.6019,152.7969 L834.6019,165.4297 L650.43,165.4297 L650.43,152.7969 A12.5,12.5 0 0 1 662.93,140.2969" fill="#F1F1F1"/><rect fill="none" height="90.3984" rx="12.5" ry="12.5" style="stroke:#181818;stroke-width:1.5;" width="184.1719" x="650.43" y="140.2969"/><line style="stroke:#181818;stroke-width:1.5;" x1="650.43" x2="834.6019" y1="165.4297" y2="165.4297"/><text fill="#000000" font-family="sans-serif" font-size="13" lengthAdjust="spacing" textLength="44.1035" x="720.4642" y="157.3638">&#1053;&#1086;&#1074;&#1099;&#1081;</text><g class="entity" data-qualified-name="......N1" data-source-line="11" id="ent0003"><path d="M661.43,176.4297 L661.43,216.6953 L810.6019,216.6953 L810.6019,186.4297 L800.6019,176.4297 L661.43,176.4297" fill="#FEFFDD" style="stroke:#181818;stroke-width:0.5;"/><path d="M800.6019,176.4297 L800.6019,186.4297 L810.6019,186.4297 L800.6019,176.4297" fill="#FEFFDD" style="stroke:#181818;stroke-width:1;"/><text fill="#000000" font-family="sans-serif" font-size="13" lengthAdjust="spacing" textLength="128.1719" x="667.43" y="193.4966">&#1056;&#1072;&#1073;&#1086;&#1090;&#1086;&#1076;&#1072;&#1090;&#1077;&#1083;&#1100; &#1077;&#1097;&#1105;</text><text fill="#000000" font-family="sans-serif" font-size="13" lengthAdjust="spacing" textLength="127.0864" x="667.43" y="208.6294">&#1085;&#1077; &#1086;&#1090;&#1082;&#1088;&#1099;&#1083; &#1086;&#1090;&#1082;&#1083;&#1080;&#1082;.</text></g><path d="M463.91,322.6969 L649.1136,322.6969 A12.5,12.5 0 0 1 661.6136,335.1969 L661.6136,347.8297 L451.41,347.8297 L451.41,335.1969 A12.5,12.5 0 0 1 463.91,322.6969" fill="#F1F1F1"/><rect fill="none" height="90.3984" rx="12.5" ry="12.5" style="stroke:#181818;stroke-width:1.5;" width="210.2036" x="451.41" y="322.6969"/><line style="stroke:#181818;stroke-width:1.5;" x1="451.41" x2="661.6136" y1="347.8297" y2="347.8297"/><text fill="#000000" font-family="sans-serif" font-size="13" lengthAdjust="spacing" textLength="114.8228" x="499.1004" y="339.7638">&#1053;&#1072;&#1056;&#1072;&#1089;&#1089;&#1084;&#1086;&#1090;&#1088;&#1077;&#1085;&#1080;&#1080;</text><g class="entity" data-qualified-name="...............N2" data-source-line="18" id="ent0005"><path d="M462.41,358.8297 L462.41,399.0953 L637.6136,399.0953 L637.6136,368.8297 L627.6136,358.8297 L462.41,358.8297" fill="#FEFFDD" style="stroke:#181818;stroke-width:0.5;"/><path d="M627.6136,358.8297 L627.6136,368.8297 L637.6136,368.8297 L627.6136,358.8297" fill="#FEFFDD" style="stroke:#181818;stroke-width:1;"/><text fill="#000000" font-family="sans-serif" font-size="13" lengthAdjust="spacing" textLength="154.2036" x="468.41" y="375.8966">&#1056;&#1072;&#1073;&#1086;&#1090;&#1086;&#1076;&#1072;&#1090;&#1077;&#1083;&#1100; &#1080;&#1079;&#1091;&#1095;&#1072;&#1077;&#1090;</text><text fill="#000000" font-family="sans-serif" font-size="13" lengthAdjust="spacing" textLength="122.2749" x="468.41" y="391.0294">&#1088;&#1077;&#1079;&#1102;&#1084;&#1077; &#1080; &#1087;&#1080;&#1089;&#1100;&#1084;&#1086;.</text></g><path d="M308.59,490.0969 L516.4357,490.0969 A12.5,12.5 0 0 1 528.9357,502.5969 L528.9357,515.2297 L296.09,515.2297 L296.09,502.5969 A12.5,12.5 0 0 1 308.59,490.0969" fill="#F1F1F1"/><rect fill="none" height="90.3984" rx="12.5" ry="12.5" style="stroke:#181818;stroke-width:1.5;" width="232.8457" x="296.09" y="490.0969"/><line style="stroke:#181818;stroke-width:1.5;" x1="296.09" x2="528.9357" y1="515.2297" y2="515.2297"/><text fill="#000000" font-family="sans-serif" font-size="13" lengthAdjust="spacing" textLength="141.5654" x="341.7301" y="507.1638">&#1048;&#1085;&#1090;&#1077;&#1088;&#1074;&#1100;&#1102;&#1053;&#1072;&#1079;&#1085;&#1072;&#1095;&#1077;&#1085;&#1086;</text><g class="entity" data-qualified-name="..................N3" data-source-line="26" id="ent0007"><path d="M307.09,526.2297 L307.09,566.4953 L504.9357,566.4953 L504.9357,536.2297 L494.9357,526.2297 L307.09,526.2297" fill="#FEFFDD" style="stroke:#181818;stroke-width:0.5;"/><path d="M494.9357,526.2297 L494.9357,536.2297 L504.9357,536.2297 L494.9357,526.2297" fill="#FEFFDD" style="stroke:#181818;stroke-width:1;"/><text fill="#000000" font-family="sans-serif" font-size="13" lengthAdjust="spacing" textLength="176.8457" x="313.09" y="543.2966">&#1057;&#1086;&#1079;&#1076;&#1072;&#1085;&#1072; &#1079;&#1072;&#1087;&#1080;&#1089;&#1100; Interview.</text><text fill="#000000" font-family="sans-serif" font-size="13" lengthAdjust="spacing" textLength="140.5752" x="313.09" y="558.4294">&#1057;&#1090;&#1091;&#1076;&#1077;&#1085;&#1090; &#1091;&#1074;&#1077;&#1076;&#1086;&#1084;&#1083;&#1105;&#1085;.</text></g><path d="M483.6,657.4969 L715.4335,657.4969 A12.5,12.5 0 0 1 727.9335,669.9969 L727.9335,682.6297 L471.1,682.6297 L471.1,669.9969 A12.5,12.5 0 0 1 483.6,657.4969" fill="#F1F1F1"/><rect fill="none" height="90.3984" rx="12.5" ry="12.5" style="stroke:#181818;stroke-width:1.5;" width="256.8335" x="471.1" y="657.4969"/><line style="stroke:#181818;stroke-width:1.5;" x1="471.1" x2="727.9335" y1="682.6297" y2="682.6297"/><text fill="#000000" font-family="sans-serif" font-size="13" lengthAdjust="spacing" textLength="99.8169" x="549.6083" y="674.5638">&#1054;&#1092;&#1092;&#1077;&#1088;&#1042;&#1099;&#1089;&#1083;&#1072;&#1085;</text><g class="entity" data-qualified-name="............N4" data-source-line="34" id="ent0009"><path d="M482.1,693.6297 L482.1,733.8953 L703.9335,733.8953 L703.9335,703.6297 L693.9335,693.6297 L482.1,693.6297" fill="#FEFFDD" style="stroke:#181818;stroke-width:0.5;"/><path d="M693.9335,693.6297 L693.9335,703.6297 L703.9335,703.6297 L693.9335,693.6297" fill="#FEFFDD" style="stroke:#181818;stroke-width:1;"/><text fill="#000000" font-family="sans-serif" font-size="13" lengthAdjust="spacing" textLength="159.9102" x="488.1" y="710.6966">&#1055;&#1088;&#1077;&#1076;&#1083;&#1086;&#1078;&#1077;&#1085;&#1080;&#1077; &#1086; &#1088;&#1072;&#1073;&#1086;&#1090;&#1077;</text><text fill="#000000" font-family="sans-serif" font-size="13" lengthAdjust="spacing" textLength="200.8335" x="488.1" y="725.8294">&#1080;&#1083;&#1080; &#1089;&#1090;&#1072;&#1078;&#1080;&#1088;&#1086;&#1074;&#1082;&#1077; &#1086;&#1090;&#1087;&#1088;&#1072;&#1074;&#1083;&#1077;&#1085;&#1086;.</text></g><path d="M261.43,824.8969 L495.5931,824.8969 A12.5,12.5 0 0 1 508.0931,837.3969 L508.0931,850.0297 L248.93,850.0297 L248.93,837.3969 A12.5,12.5 0 0 1 261.43,824.8969" fill="#F1F1F1"/><rect fill="none" height="105.5313" rx="12.5" ry="12.5" style="stroke:#181818;stroke-width:1.5;" width="259.1631" x="248.93" y="824.8969"/><line style="stroke:#181818;stroke-width:1.5;" x1="248.93" x2="508.0931" y1="850.0297" y2="850.0297"/><text fill="#000000" font-family="sans-serif" font-size="13" lengthAdjust="spacing" textLength="50.3687" x="353.3272" y="841.9638">&#1055;&#1088;&#1080;&#1085;&#1103;&#1090;</text><g class="entity" data-qualified-name=".......N5" data-source-line="41" id="ent0011"><path d="M259.93,861.0297 L259.93,916.4281 L484.0931,916.4281 L484.0931,871.0297 L474.0931,861.0297 L259.93,861.0297" fill="#FEFFDD" style="stroke:#181818;stroke-width:0.5;"/><path d="M474.0931,861.0297 L474.0931,871.0297 L484.0931,871.0297 L474.0931,861.0297" fill="#FEFFDD" style="stroke:#181818;stroke-width:1;"/><text fill="#000000" font-family="sans-serif" font-size="13" lengthAdjust="spacing" textLength="203.1631" x="265.93" y="878.0966">&#1058;&#1088;&#1091;&#1076;&#1086;&#1091;&#1089;&#1090;&#1088;&#1086;&#1081;&#1089;&#1090;&#1074;&#1086; &#1089;&#1086;&#1089;&#1090;&#1086;&#1103;&#1083;&#1086;&#1089;&#1100;.</text><text fill="#000000" font-family="sans-serif" font-size="13" lengthAdjust="spacing" textLength="177.0425" x="265.93" y="893.2294">&#1059;&#1095;&#1080;&#1090;&#1099;&#1074;&#1072;&#1077;&#1090;&#1089;&#1103; &#1074; &#1072;&#1085;&#1072;&#1083;&#1080;&#1090;&#1080;&#1082;&#1077;</text><text fill="#000000" font-family="sans-serif" font-size="13" lengthAdjust="spacing" textLength="136.6206" x="265.93" y="908.3622">&#1082;&#1072;&#1088;&#1100;&#1077;&#1088;&#1085;&#1086;&#1075;&#1086; &#1094;&#1077;&#1085;&#1090;&#1088;&#1072;.</text></g><path d="M19.5,657.4969 L221.5313,657.4969 A12.5,12.5 0 0 1 234.0313,669.9969 L234.0313,682.6297 L7,682.6297 L7,669.9969 A12.5,12.5 0 0 1 19.5,657.4969" fill="#F1F1F1"/><rect fill="none" height="90.3984" rx="12.5" ry="12.5" style="stroke:#181818;stroke-width:1.5;" width="227.0313" x="7" y="657.4969"/><line style="stroke:#181818;stroke-width:1.5;" x1="7" x2="234.0313" y1="682.6297" y2="682.6297"/><text fill="#000000" font-family="sans-serif" font-size="13" lengthAdjust="spacing" textLength="173.1006" x="33.9653" y="674.5638">&#1054;&#1090;&#1082;&#1072;&#1079;&#1044;&#1072;&#1085;&#1056;&#1072;&#1073;&#1086;&#1090;&#1086;&#1076;&#1072;&#1090;&#1077;&#1083;&#1077;&#1084;</text><g class="entity" data-qualified-name="......................N6" data-source-line="45" id="ent0013"><path d="M18,693.6297 L18,733.8953 L210.0313,733.8953 L210.0313,703.6297 L200.0313,693.6297 L18,693.6297" fill="#FEFFDD" style="stroke:#181818;stroke-width:0.5;"/><path d="M200.0313,693.6297 L200.0313,703.6297 L210.0313,703.6297 L200.0313,693.6297" fill="#FEFFDD" style="stroke:#181818;stroke-width:1;"/><text fill="#000000" font-family="sans-serif" font-size="13" lengthAdjust="spacing" textLength="171.0313" x="24" y="710.6966">&#1056;&#1072;&#1073;&#1086;&#1090;&#1086;&#1076;&#1072;&#1090;&#1077;&#1083;&#1100; &#1085;&#1077; &#1074;&#1099;&#1073;&#1088;&#1072;&#1083;</text><text fill="#000000" font-family="sans-serif" font-size="13" lengthAdjust="spacing" textLength="78.3809" x="24" y="725.8294">&#1082;&#1072;&#1085;&#1076;&#1080;&#1076;&#1072;&#1090;&#1072;.</text></g><path d="M556.02,832.4669 L755.0044,832.4669 A12.5,12.5 0 0 1 767.5044,844.9669 L767.5044,857.5997 L543.52,857.5997 L543.52,844.9669 A12.5,12.5 0 0 1 556.02,832.4669" fill="#F1F1F1"/><rect fill="none" height="90.3984" rx="12.5" ry="12.5" style="stroke:#181818;stroke-width:1.5;" width="223.9844" x="543.52" y="832.4669"/><line style="stroke:#181818;stroke-width:1.5;" x1="543.52" x2="767.5044" y1="857.5997" y2="857.5997"/><text fill="#000000" font-family="sans-serif" font-size="13" lengthAdjust="spacing" textLength="56.7988" x="627.1128" y="849.5338">&#1054;&#1090;&#1086;&#1079;&#1074;&#1072;&#1085;</text><g class="entity" data-qualified-name="........N7" data-source-line="49" id="ent0015"><path d="M554.52,868.5997 L554.52,908.8653 L743.5044,908.8653 L743.5044,878.5997 L733.5044,868.5997 L554.52,868.5997" fill="#FEFFDD" style="stroke:#181818;stroke-width:0.5;"/><path d="M733.5044,868.5997 L733.5044,878.5997 L743.5044,878.5997 L733.5044,868.5997" fill="#FEFFDD" style="stroke:#181818;stroke-width:1;"/><text fill="#000000" font-family="sans-serif" font-size="13" lengthAdjust="spacing" textLength="167.9844" x="560.52" y="885.6666">&#1057;&#1090;&#1091;&#1076;&#1077;&#1085;&#1090; &#1086;&#1090;&#1086;&#1079;&#1074;&#1072;&#1083; &#1086;&#1090;&#1082;&#1083;&#1080;&#1082;</text><text fill="#000000" font-family="sans-serif" font-size="13" lengthAdjust="spacing" textLength="113.0645" x="560.52" y="900.7994">&#1085;&#1072; &#1083;&#1102;&#1073;&#1086;&#1084; &#1101;&#1090;&#1072;&#1087;&#1077;.</text></g><g class="start_entity" data-qualified-name=".start." data-source-line="8" id="ent0002"><ellipse cx="742.52" cy="53.2969" fill="#222222" rx="10" ry="10" style="stroke:#222222;stroke-width:1;"/></g><g class="end_entity" data-qualified-name=".end." data-source-line="52" id="ent0014"><ellipse cx="378.52" cy="1002.4269" fill="none" rx="11" ry="11" style="stroke:#222222;stroke-width:1;"/><ellipse cx="378.52" cy="1002.4269" fill="#222222" rx="6" ry="6" style="stroke:#222222;stroke-width:1;"/></g><!--link *start* to ?????--><g class="link" data-entity-1="ent0002" data-entity-2="ent0002" data-link-type="dependency" data-source-line="8" id="lnk3"><path d="M742.52,63.6669 C742.52,79.4669 742.52,106.3969 742.52,133.8869" fill="none" id="*start*-to-&#1053;&#1086;&#1074;&#1099;&#1081;" style="stroke:#181818;stroke-width:1;"/><polygon fill="#181818" points="742.52,139.8869,746.52,130.8869,742.52,134.8869,738.52,130.8869,742.52,139.8869" style="stroke:#181818;stroke-width:1;"/><text fill="#000000" font-family="sans-serif" font-size="13" lengthAdjust="spacing" textLength="170.6948" x="743.52" y="106.3638">student.applyToVacancy()</text></g><!--link ????? to ??????????????--><g class="link" data-entity-1="ent0002" data-entity-2="ent0004" data-link-type="dependency" data-source-line="14" id="lnk4"><path d="M696.54,231.0969 C667.81,258.9569 635.2767,290.5093 606.5967,318.3293" fill="none" id="&#1053;&#1086;&#1074;&#1099;&#1081;-to-&#1053;&#1072;&#1056;&#1072;&#1089;&#1089;&#1084;&#1086;&#1090;&#1088;&#1077;&#1085;&#1080;&#1080;" style="stroke:#181818;stroke-width:1;"/><polygon fill="#181818" points="602.29,322.5069,611.5351,319.1117,605.8789,319.0256,605.965,313.3694,602.29,322.5069" style="stroke:#181818;stroke-width:1;"/><text fill="#000000" font-family="sans-serif" font-size="13" lengthAdjust="spacing" textLength="180.8701" x="662.52" y="273.7638">employer.openApplication()</text><text fill="#000000" font-family="sans-serif" font-size="13" lengthAdjust="spacing" textLength="144.1997" x="680.8552" y="288.8966">[&#1086;&#1090;&#1082;&#1083;&#1080;&#1082; &#1087;&#1088;&#1086;&#1089;&#1084;&#1086;&#1090;&#1088;&#1077;&#1085;]</text></g><!--link ????? to ???????--><g class="link" data-entity-1="ent0002" data-entity-2="ent0014" data-link-type="dependency" data-source-line="15" id="lnk5"><path d="M831.7,231.0269 C879.44,261.7669 928.52,307.7469 928.52,366.8969 C928.52,366.8969 928.52,366.8969 928.52,703.6969 C928.52,784.0669 848.7536,826.8567 773.4636,850.5367" fill="none" id="&#1053;&#1086;&#1074;&#1099;&#1081;-to-&#1054;&#1090;&#1086;&#1079;&#1074;&#1072;&#1085;" style="stroke:#181818;stroke-width:1;"/><polygon fill="#181818" points="767.74,852.3369,777.5255,853.4523,772.5097,850.8367,775.1253,845.8209,767.74,852.3369" style="stroke:#181818;stroke-width:1;"/><text fill="#000000" font-family="sans-serif" font-size="13" lengthAdjust="spacing" textLength="123.7476" x="929.52" y="539.8638">student.withdraw()</text></g><!--link ?????????????? to ?????????????????--><g class="link" data-entity-1="ent0004" data-entity-2="ent0006" data-link-type="dependency" data-source-line="21" id="lnk6"><path d="M506.14,413.3769 C496.29,422.8469 486.3,433.0369 477.52,443.0969 C464.85,457.5969 455.6928,469.5959 445.0128,484.9059" fill="none" id="&#1053;&#1072;&#1056;&#1072;&#1089;&#1089;&#1084;&#1086;&#1090;&#1088;&#1077;&#1085;&#1080;&#1080;-to-&#1048;&#1085;&#1090;&#1077;&#1088;&#1074;&#1100;&#1102;&#1053;&#1072;&#1079;&#1085;&#1072;&#1095;&#1077;&#1085;&#1086;" style="stroke:#181818;stroke-width:1;"/><polygon fill="#181818" points="441.58,489.8269,450.0098,484.7339,444.4407,485.7261,443.4485,480.1569,441.58,489.8269" style="stroke:#181818;stroke-width:1;"/><text fill="#000000" font-family="sans-serif" font-size="13" lengthAdjust="spacing" textLength="275.6787" x="478.52" y="456.1638">employer.scheduleInterview(date, format)</text></g><!--link ?????????????? to ?????????????????????--><g class="link" data-entity-1="ent0004" data-entity-2="ent0012" data-link-type="dependency" data-source-line="22" id="lnk7"><path d="M451,382.2069 C330.55,399.8069 144.69,435.1869 102.52,490.0969 C65.91,537.7569 81.12,604.8864 98.52,651.4564" fill="none" id="&#1053;&#1072;&#1056;&#1072;&#1089;&#1089;&#1084;&#1086;&#1090;&#1088;&#1077;&#1085;&#1080;&#1080;-to-&#1054;&#1090;&#1082;&#1072;&#1079;&#1044;&#1072;&#1085;&#1056;&#1072;&#1073;&#1086;&#1090;&#1086;&#1076;&#1072;&#1090;&#1077;&#1083;&#1077;&#1084;" style="stroke:#181818;stroke-width:1;"/><polygon fill="#181818" points="100.62,657.0769,101.217,647.2461,98.87,652.3931,93.723,650.0461,100.62,657.0769" style="stroke:#181818;stroke-width:1;"/><text fill="#000000" font-family="sans-serif" font-size="13" lengthAdjust="spacing" textLength="174.751" x="103.52" y="539.8638">employer.reject(comment)</text></g><!--link ?????????????? to ???????--><g class="link" data-entity-1="ent0004" data-entity-2="ent0014" data-link-type="dependency" data-source-line="23" id="lnk8"><path d="M662.07,382.6169 C698.77,393.0169 736.28,411.2369 758.52,443.0969 C780.89,475.1469 775.51,759.6969 758.52,794.8969 C751.71,808.9769 745.64,817.3633 733.85,827.9733" fill="none" id="&#1053;&#1072;&#1056;&#1072;&#1089;&#1089;&#1084;&#1086;&#1090;&#1088;&#1077;&#1085;&#1080;&#1080;-to-&#1054;&#1090;&#1086;&#1079;&#1074;&#1072;&#1085;" style="stroke:#181818;stroke-width:1;"/><polygon fill="#181818" points="729.39,831.9869,738.7556,828.9398,733.1066,828.6422,733.4042,822.9932,729.39,831.9869" style="stroke:#181818;stroke-width:1;"/><text fill="#000000" font-family="sans-serif" font-size="13" lengthAdjust="spacing" textLength="123.7476" x="774.52" y="623.5638">student.withdraw()</text></g><!--link ????????????????? to ???????????--><g class="link" data-entity-1="ent0006" data-entity-2="ent0008" data-link-type="dependency" data-source-line="29" id="lnk9"><path d="M462.63,580.6169 C489.46,604.3569 517.9159,629.5216 544.7659,653.2716" fill="none" id="&#1048;&#1085;&#1090;&#1077;&#1088;&#1074;&#1100;&#1102;&#1053;&#1072;&#1079;&#1085;&#1072;&#1095;&#1077;&#1085;&#1086;-to-&#1054;&#1092;&#1092;&#1077;&#1088;&#1042;&#1099;&#1089;&#1083;&#1072;&#1085;" style="stroke:#181818;stroke-width:1;"/><polygon fill="#181818" points="549.26,657.2469,545.169,648.2879,545.5149,653.9342,539.8686,654.2801,549.26,657.2469" style="stroke:#181818;stroke-width:1;"/><text fill="#000000" font-family="sans-serif" font-size="13" lengthAdjust="spacing" textLength="153.7974" x="513.52" y="623.5638">employer.extendOffer()</text></g><!--link ????????????????? to ?????????????????????--><g class="link" data-entity-1="ent0006" data-entity-2="ent0012" data-link-type="dependency" data-source-line="30" id="lnk10"><path d="M295.64,567.9169 C279.17,572.2269 262.43,576.5269 246.52,580.4969 C189.4,594.7369 154.12,564.3969 117.52,610.4969 C107.27,623.3969 105.1338,634.9086 107.0538,651.1086" fill="none" id="&#1048;&#1085;&#1090;&#1077;&#1088;&#1074;&#1100;&#1102;&#1053;&#1072;&#1079;&#1085;&#1072;&#1095;&#1077;&#1085;&#1086;-to-&#1054;&#1090;&#1082;&#1072;&#1079;&#1044;&#1072;&#1085;&#1056;&#1072;&#1073;&#1086;&#1090;&#1086;&#1076;&#1072;&#1090;&#1077;&#1083;&#1077;&#1084;" style="stroke:#181818;stroke-width:1;"/><polygon fill="#181818" points="107.76,657.0669,110.6729,647.6586,107.1715,652.1016,102.7285,648.6002,107.76,657.0669" style="stroke:#181818;stroke-width:1;"/><text fill="#000000" font-family="sans-serif" font-size="13" lengthAdjust="spacing" textLength="174.751" x="118.52" y="623.5638">employer.reject(comment)</text></g><!--link ????????????????? to ???????--><g class="link" data-entity-1="ent0006" data-entity-2="ent0014" data-link-type="dependency" data-source-line="31" id="lnk11"><path d="M371.55,580.7769 C335.75,625.2969 294.42,694.6369 328.52,747.8969 C379.21,827.0669 436.97,793.3269 525.52,824.8969 C531.92,827.1769 532.8596,827.4867 539.4696,829.9567" fill="none" id="&#1048;&#1085;&#1090;&#1077;&#1088;&#1074;&#1100;&#1102;&#1053;&#1072;&#1079;&#1085;&#1072;&#1095;&#1077;&#1085;&#1086;-to-&#1054;&#1090;&#1086;&#1079;&#1074;&#1072;&#1085;" style="stroke:#181818;stroke-width:1;"/><polygon fill="#181818" points="545.09,832.0569,538.0595,825.1596,540.4063,830.3067,535.2592,832.6535,545.09,832.0569" style="stroke:#181818;stroke-width:1;"/><text fill="#000000" font-family="sans-serif" font-size="13" lengthAdjust="spacing" textLength="123.7476" x="329.52" y="707.2638">student.withdraw()</text></g><!--link ??????????? to ??????--><g class="link" data-entity-1="ent0008" data-entity-2="ent0010" data-link-type="dependency" data-source-line="37" id="lnk12"><path d="M499.14,748.2069 C483.81,757.0069 468.72,766.9469 455.52,777.8969 C439.53,791.1469 428.3732,803.4668 416.1232,819.7068" fill="none" id="&#1054;&#1092;&#1092;&#1077;&#1088;&#1042;&#1099;&#1089;&#1083;&#1072;&#1085;-to-&#1055;&#1088;&#1080;&#1085;&#1103;&#1090;" style="stroke:#181818;stroke-width:1;"/><polygon fill="#181818" points="412.51,824.4969,421.1232,819.7206,415.521,820.5051,414.7364,814.903,412.51,824.4969" style="stroke:#181818;stroke-width:1;"/><text fill="#000000" font-family="sans-serif" font-size="13" lengthAdjust="spacing" textLength="140.3086" x="456.52" y="790.9638">student.acceptOffer()</text></g><!--link ??????????? to ???????--><g class="link" data-entity-1="ent0008" data-entity-2="ent0014" data-link-type="dependency" data-source-line="38" id="lnk13"><path d="M600.79,748.0469 C602.16,763.1869 604.74,780.0369 609.52,794.8969 C613.6,807.6069 616.8788,815.3205 623.3988,827.0705" fill="none" id="&#1054;&#1092;&#1092;&#1077;&#1088;&#1042;&#1099;&#1089;&#1083;&#1072;&#1085;-to-&#1054;&#1090;&#1086;&#1079;&#1074;&#1072;&#1085;" style="stroke:#181818;stroke-width:1;"/><polygon fill="#181818" points="626.31,832.3169,625.4408,822.5064,623.884,827.9449,618.4456,826.3881,626.31,832.3169" style="stroke:#181818;stroke-width:1;"/><text fill="#000000" font-family="sans-serif" font-size="13" lengthAdjust="spacing" textLength="143.5586" x="610.52" y="790.9638">student.declineOffer()</text></g><!--link ?????? to *end*--><g class="link" data-entity-1="ent0010" data-entity-2="ent0014" data-link-type="dependency" data-source-line="52" id="lnk15"><path d="M378.52,930.7269 C378.52,953.4669 378.52,971.9569 378.52,985.3169" fill="none" id="&#1055;&#1088;&#1080;&#1085;&#1103;&#1090;-to-*end*" style="stroke:#181818;stroke-width:1;"/><polygon fill="#181818" points="378.52,991.3169,382.52,982.3169,378.52,986.3169,374.52,982.3169,378.52,991.3169" style="stroke:#181818;stroke-width:1;"/></g><!--link ????????????????????? to *end*--><g class="link" data-entity-1="ent0012" data-entity-2="ent0014" data-link-type="dependency" data-source-line="53" id="lnk16"><path d="M132.62,748.1369 C148.2,798.0469 179.62,878.8069 231.52,930.4269 C272.51,971.1969 335.7003,990.5776 362.0503,997.3776" fill="none" id="&#1054;&#1090;&#1082;&#1072;&#1079;&#1044;&#1072;&#1085;&#1056;&#1072;&#1073;&#1086;&#1090;&#1086;&#1076;&#1072;&#1090;&#1077;&#1083;&#1077;&#1084;-to-*end*" style="stroke:#181818;stroke-width:1;"/><polygon fill="#181818" points="367.86,998.8769,360.145,992.7549,363.0186,997.6275,358.146,1000.5011,367.86,998.8769" style="stroke:#181818;stroke-width:1;"/></g><!--link ??????? to *end*--><g class="link" data-entity-1="ent0014" data-entity-2="ent0014" data-link-type="dependency" data-source-line="54" id="lnk17"><path d="M554.73,923.3269 C490.69,951.7169 420.4856,982.8262 393.8556,994.6262" fill="none" id="&#1054;&#1090;&#1086;&#1079;&#1074;&#1072;&#1085;-to-*end*" style="stroke:#181818;stroke-width:1;"/><polygon fill="#181818" points="388.37,997.0569,398.2189,997.0679,392.9413,995.0313,394.9779,989.7537,388.37,997.0569" style="stroke:#181818;stroke-width:1;"/></g><?plantuml-src hLN1JXDH5DtFLxomAaQQeAA92nEDCN6Z2uWRS36PUSX8-wQP3Y8QanO8nb0b66BSYA8_CDGE39OElt3VB_WbdliwBLC57H8NaqxVl7lFFUVSTr_eXHKffaCxbEAkPpy9xAhusTWHz84IEgGUnNXwUfEEXDx0qW_g2ahrAh-Olv4etQxLAfvZXvwlnYshlkYfcirvwYRhIqk8EtxWoc1cmNCMbQpNnMHv2gltV1LEUo-acBnglRAisKkFnSJ4BK6VAAMsWRo974kkL67P1iRAZF_8Tcpbh9GOnsJFRMOWvMDjZBvGHFkcp9Gw5E4tfgvk2Ohr6xqzfvXNHaCt43pAgJmcxBfuCCb5vV9djKMSNJTrauuvI3UCH0abg5PMQnL_HGPbloPLJfRI-9oQpKC8Ea5WEfhayHzekuR18RM1sikfiUo52svWBu_eS7vXHPI1stfDlyRdMA_EAHDzgDyX5vHAK2yboDtYt9a-Lp9zpiSr73wYVO22vRPk8I47S6D50EEDQLwtkhCWtQMAlAz26Jppv7B91RlBOjuFgdOuNW1kruZC43iisjc4yHpdOGFvL3fXoV6hLSXR5AQWC_yM8EVFdidQCQL70g_HG7anrAIC1jv3IMlO5tDoWTSsNZi8FeQTszJBF387gq056QTrlMwslTUR8DxDk0rbaiz3gTo7y_Co0B_YQV-78nS0A-ZBsNHpNdmsfdVm8QM3p7uU6mBh0menl4ZuJ0juj8hb0xZLu5CCpjcCEJ7xsuPaRtXyhXbhpYx2K67u1AotO71k43gEh8L33_uIVvuKhdGgdfA350Cvyd0v4RvYG7AZfPWEJNCEKZeoNDkiH9E760FfBTQ96vNRynjSIR1xqw1Zek33bg2sw3Ss2uOWlZzOG7G7K5g61WIYxvnvez_Rh5scs1GhDZIlQ5CL6NxcEk2vks-iwlPhmd87DVPt3egu_biHfmhdJ_78wSmG-_j6hnfp5U6STz7H-tnwXNvhskY4uWpmXkcJl3liBYvBwm8YZ8ISbfmj_m80?></g></svg>