<svg xmlns="http://www.w3.org/2000/svg" xmlns:xlink="http://www.w3.org/1999/xlink" contentStyleType="text/css" data-diagram-type="STATE" height="826px" preserveAspectRatio="none" style="width:771px;height:826px;background:#FFFFFF;" version="1.1" viewBox="0 0 771 826" width="771px" zoomAndPan="magnify"><?plantuml 1.2026.4beta2?><defs/><g><g class="title" data-source-line="1"><text fill="#000000" font-family="sans-serif" font-size="14" font-weight="700" lengthAdjust="spacing" textLength="362.0518" x="201.3136" y="22.9951">State Diagram &#8212; &#1046;&#1080;&#1079;&#1085;&#1077;&#1085;&#1085;&#1099;&#1081; &#1094;&#1080;&#1082;&#1083; &#1080;&#1085;&#1090;&#1077;&#1088;&#1074;&#1100;&#1102;</text></g><path d="M230.62,155.2969 L509.4325,155.2969 A12.5,12.5 0 0 1 521.9325,167.7969 L521.9325,180.4297 L218.12,180.4297 L218.12,167.7969 A12.5,12.5 0 0 1 230.62,155.2969" fill="#F1F1F1"/><rect fill="none" height="90.3984" rx="12.5" ry="12.5" style="stroke:#181818;stroke-width:1.5;" width="303.8125" x="218.12" y="155.2969"/><line style="stroke:#181818;stroke-width:1.5;" x1="218.12" x2="521.9325" y1="180.4297" y2="180.4297"/><text fill="#000000" font-family="sans-serif" font-size="13" lengthAdjust="spacing" textLength="106.3105" x="316.871" y="172.3638">&#1047;&#1072;&#1087;&#1083;&#1072;&#1085;&#1080;&#1088;&#1086;&#1074;&#1072;&#1085;&#1086;</text><g class="entity" data-qualified-name="..............N1" data-source-line="11" id="ent0003"><path d="M229.12,191.4297 L229.12,231.6953 L497.9325,231.6953 L497.9325,201.4297 L487.9325,191.4297 L229.12,191.4297" fill="#FEFFDD" style="stroke:#181818;stroke-width:0.5;"/><path d="M487.9325,191.4297 L487.9325,201.4297 L497.9325,201.4297 L487.9325,191.4297" fill="#FEFFDD" style="stroke:#181818;stroke-width:1;"/><text fill="#000000" font-family="sans-serif" font-size="13" lengthAdjust="spacing" textLength="204.5659" x="235.12" y="208.4966">&#1044;&#1072;&#1090;&#1072; &#1080; &#1074;&#1088;&#1077;&#1084;&#1103; &#1087;&#1086;&#1076;&#1090;&#1074;&#1077;&#1088;&#1078;&#1076;&#1077;&#1085;&#1099;.</text><text fill="#000000" font-family="sans-serif" font-size="13" lengthAdjust="spacing" textLength="247.8125" x="235.12" y="223.6294">&#1059;&#1074;&#1077;&#1076;&#1086;&#1084;&#1083;&#1077;&#1085;&#1080;&#1077; &#1086;&#1090;&#1087;&#1088;&#1072;&#1074;&#1083;&#1077;&#1085;&#1086; &#1089;&#1090;&#1091;&#1076;&#1077;&#1085;&#1090;&#1091;.</text></g><path d="M136.51,352.6969 L377.5603,352.6969 A12.5,12.5 0 0 1 390.0603,365.1969 L390.0603,377.8297 L124.01,377.8297 L124.01,365.1969 A12.5,12.5 0 0 1 136.51,352.6969" fill="#F1F1F1"/><rect fill="none" height="105.5313" rx="12.5" ry="12.5" style="stroke:#181818;stroke-width:1.5;" width="266.0503" x="124.01" y="352.6969"/><line style="stroke:#181818;stroke-width:1.5;" x1="124.01" x2="390.0603" y1="377.8297" y2="377.8297"/><text fill="#000000" font-family="sans-serif" font-size="13" lengthAdjust="spacing" textLength="82.1196" x="215.9753" y="369.7638">&#1055;&#1077;&#1088;&#1077;&#1085;&#1077;&#1089;&#1077;&#1085;&#1086;</text><g class="entity" data-qualified-name="...........N2" data-source-line="19" id="ent0005"><path d="M135.01,388.8297 L135.01,444.2281 L366.0603,444.2281 L366.0603,398.8297 L356.0603,388.8297 L135.01,388.8297" fill="#FEFFDD" style="stroke:#181818;stroke-width:0.5;"/><path d="M356.0603,388.8297 L356.0603,398.8297 L366.0603,398.8297 L356.0603,388.8297" fill="#FEFFDD" style="stroke:#181818;stroke-width:1;"/><text fill="#000000" font-family="sans-serif" font-size="13" lengthAdjust="spacing" textLength="158.0439" x="141.01" y="405.8966">&#1053;&#1086;&#1074;&#1072;&#1103; &#1076;&#1072;&#1090;&#1072; &#1089;&#1086;&#1093;&#1088;&#1072;&#1085;&#1077;&#1085;&#1072;.</text><text fill="#000000" font-family="sans-serif" font-size="13" lengthAdjust="spacing" textLength="181.4604" x="141.01" y="421.0294">&#1054;&#1073;&#1077; &#1089;&#1090;&#1086;&#1088;&#1086;&#1085;&#1099; &#1091;&#1074;&#1077;&#1076;&#1086;&#1084;&#1083;&#1077;&#1085;&#1099;.</text><text fill="#000000" font-family="sans-serif" font-size="13" lengthAdjust="spacing" textLength="210.0503" x="141.01" y="436.1622">&#1057;&#1080;&#1085;&#1093;&#1088;&#1086;&#1085;&#1080;&#1079;&#1072;&#1094;&#1080;&#1103; &#1089; &#1082;&#1072;&#1083;&#1077;&#1085;&#1076;&#1072;&#1088;&#1105;&#1084;.</text></g><path d="M531.14,488.2269 L736.9227,488.2269 A12.5,12.5 0 0 1 749.4227,500.7269 L749.4227,513.3597 L518.64,513.3597 L518.64,500.7269 A12.5,12.5 0 0 1 531.14,488.2269" fill="#F1F1F1"/><rect fill="none" height="105.5313" rx="12.5" ry="12.5" style="stroke:#181818;stroke-width:1.5;" width="230.7827" x="518.64" y="488.2269"/><line style="stroke:#181818;stroke-width:1.5;" x1="518.64" x2="749.4227" y1="513.3597" y2="513.3597"/><text fill="#000000" font-family="sans-serif" font-size="13" lengthAdjust="spacing" textLength="75.0801" x="596.4913" y="505.2938">&#1055;&#1088;&#1086;&#1074;&#1077;&#1076;&#1077;&#1085;&#1086;</text><g class="entity" data-qualified-name="..........N3" data-source-line="26" id="ent0007"><path d="M529.64,524.3597 L529.64,579.7581 L725.4227,579.7581 L725.4227,534.3597 L715.4227,524.3597 L529.64,524.3597" fill="#FEFFDD" style="stroke:#181818;stroke-width:0.5;"/><path d="M715.4227,524.3597 L715.4227,534.3597 L725.4227,534.3597 L715.4227,524.3597" fill="#FEFFDD" style="stroke:#181818;stroke-width:1;"/><text fill="#000000" font-family="sans-serif" font-size="13" lengthAdjust="spacing" textLength="163.1538" x="535.64" y="541.4266">&#1056;&#1077;&#1079;&#1091;&#1083;&#1100;&#1090;&#1072;&#1090; &#1092;&#1080;&#1082;&#1089;&#1080;&#1088;&#1091;&#1077;&#1090;&#1089;&#1103;</text><text fill="#000000" font-family="sans-serif" font-size="13" lengthAdjust="spacing" textLength="174.7827" x="535.64" y="556.5594">&#1095;&#1077;&#1088;&#1077;&#1079; &#1080;&#1079;&#1084;&#1077;&#1085;&#1077;&#1085;&#1080;&#1077; &#1089;&#1090;&#1072;&#1090;&#1091;&#1089;&#1072;</text><text fill="#000000" font-family="sans-serif" font-size="13" lengthAdjust="spacing" textLength="76.7686" x="535.64" y="571.6922">Application.</text></g><path d="M329.19,623.7569 L568.8755,623.7569 A12.5,12.5 0 0 1 581.3755,636.2569 L581.3755,648.8897 L316.69,648.8897 L316.69,636.2569 A12.5,12.5 0 0 1 329.19,623.7569" fill="#F1F1F1"/><rect fill="none" height="105.5313" rx="12.5" ry="12.5" style="stroke:#181818;stroke-width:1.5;" width="264.6855" x="316.69" y="623.7569"/><line style="stroke:#181818;stroke-width:1.5;" x1="316.69" x2="581.3755" y1="648.8897" y2="648.8897"/><text fill="#000000" font-family="sans-serif" font-size="13" lengthAdjust="spacing" textLength="68.561" x="414.7523" y="640.8238">&#1054;&#1090;&#1084;&#1077;&#1085;&#1077;&#1085;&#1086;</text><g class="entity" data-qualified-name=".........N4" data-source-line="30" id="ent0009"><path d="M327.69,659.8897 L327.69,715.2881 L557.3755,715.2881 L557.3755,669.8897 L547.3755,659.8897 L327.69,659.8897" fill="#FEFFDD" style="stroke:#181818;stroke-width:0.5;"/><path d="M547.3755,659.8897 L547.3755,669.8897 L557.3755,669.8897 L547.3755,659.8897" fill="#FEFFDD" style="stroke:#181818;stroke-width:1;"/><text fill="#000000" font-family="sans-serif" font-size="13" lengthAdjust="spacing" textLength="195.5396" x="333.69" y="676.9566">&#1055;&#1088;&#1080;&#1095;&#1080;&#1085;&#1072; &#1086;&#1090;&#1084;&#1077;&#1085;&#1099; &#1089;&#1086;&#1093;&#1088;&#1072;&#1085;&#1077;&#1085;&#1072;.</text><text fill="#000000" font-family="sans-serif" font-size="13" lengthAdjust="spacing" textLength="173.9258" x="333.69" y="692.0894">Application &#1074;&#1086;&#1079;&#1074;&#1088;&#1072;&#1097;&#1072;&#1077;&#1090;&#1089;&#1103;</text><text fill="#000000" font-family="sans-serif" font-size="13" lengthAdjust="spacing" textLength="208.6855" x="333.69" y="707.2222">&#1085;&#1072; &#1089;&#1090;&#1072;&#1090;&#1091;&#1089; &#1053;&#1040;_&#1056;&#1040;&#1057;&#1057;&#1052;&#1054;&#1058;&#1056;&#1045;&#1053;&#1048;&#1048;.</text></g><g class="start_entity" data-qualified-name=".start." data-source-line="8" id="ent0002"><ellipse cx="370.03" cy="53.2969" fill="#222222" rx="10" ry="10" style="stroke:#222222;stroke-width:1;"/></g><g class="end_entity" data-qualified-name=".end." data-source-line="33" id="ent0009"><ellipse cx="541.03" cy="801.2869" fill="none" rx="11" ry="11" style="stroke:#222222;stroke-width:1;"/><ellipse cx="541.03" cy="801.2869" fill="#222222" rx="6" ry="6" style="stroke:#222222;stroke-width:1;"/></g><!--link *start* to ?????????????--><g class="link" data-entity-1="ent0002" data-entity-2="ent0002" data-link-type="dependency" data-source-line="8" id="lnk3"><path d="M370.03,63.3769 C370.03,81.3869 370.03,116.6569 370.03,149.0669" fill="none" id="*start*-to-&#1047;&#1072;&#1087;&#1083;&#1072;&#1085;&#1080;&#1088;&#1086;&#1074;&#1072;&#1085;&#1086;" style="stroke:#181818;stroke-width:1;"/><polygon fill="#181818" points="370.03,155.0669,374.03,146.0669,370.03,150.0669,366.03,146.0669,370.03,155.0669" style="stroke:#181818;stroke-width:1;"/><text fill="#000000" font-family="sans-serif" font-size="13" lengthAdjust="spacing" textLength="194.4985" x="371.03" y="106.3638">employer.scheduleInterview()</text><text fill="#000000" font-family="sans-serif" font-size="13" lengthAdjust="spacing" textLength="180.9272" x="377.8156" y="121.4966">[&#1089;&#1086;&#1079;&#1076;&#1072;&#1085;&#1072; &#1079;&#1072;&#1087;&#1080;&#1089;&#1100; Interview]</text></g><!--link ????????????? to ??????????--><g class="link" data-entity-1="ent0002" data-entity-2="ent0004" data-link-type="dependency" data-source-line="14" id="lnk4"><path d="M217.7,217.4469 C142.86,228.7469 63.88,247.1069 41.03,275.6969 C6,319.5069 54.8752,349.8576 117.9052,371.1376" fill="none" id="&#1047;&#1072;&#1087;&#1083;&#1072;&#1085;&#1080;&#1088;&#1086;&#1074;&#1072;&#1085;&#1086;-to-&#1055;&#1077;&#1088;&#1077;&#1085;&#1077;&#1089;&#1077;&#1085;&#1086;" style="stroke:#181818;stroke-width:1;"/><polygon fill="#181818" points="123.59,373.0569,116.3424,366.3881,118.8527,371.4575,113.7834,373.9678,123.59,373.0569" style="stroke:#181818;stroke-width:1;"/><text fill="#000000" font-family="sans-serif" font-size="13" lengthAdjust="spacing" textLength="171.9009" x="42.03" y="296.2638">reschedule(newDateTime)</text><text fill="#000000" font-family="sans-serif" font-size="13" lengthAdjust="spacing" textLength="124.2046" x="65.8781" y="311.3966">[&#1083;&#1102;&#1073;&#1072;&#1103; &#1080;&#1079; &#1089;&#1090;&#1086;&#1088;&#1086;&#1085;]</text></g><!--link ?????????? to ?????????????--><g class="link" data-entity-1="ent0004" data-entity-2="ent0002" data-link-type="dependency" data-source-line="22" id="lnk7"><path d="M244.27,352.4069 C241.01,327.7569 241.41,298.7369 254.03,275.6969 C260.23,264.3669 264.4177,258.4137 274.3577,249.9237" fill="none" id="&#1055;&#1077;&#1088;&#1077;&#1085;&#1077;&#1089;&#1077;&#1085;&#1086;-to-&#1047;&#1072;&#1087;&#1083;&#1072;&#1085;&#1080;&#1088;&#1086;&#1074;&#1072;&#1085;&#1086;" style="stroke:#181818;stroke-width:1;"/><polygon fill="#181818" points="278.92,246.0269,269.4786,248.8305,275.1181,249.2742,274.6744,254.9136,278.92,246.0269" style="stroke:#181818;stroke-width:1;"/><text fill="#000000" font-family="sans-serif" font-size="13" lengthAdjust="spacing" textLength="149.8364" x="280.6777" y="288.7638">confirm(newDateTime)</text><text fill="#000000" font-family="sans-serif" font-size="13" lengthAdjust="spacing" textLength="148.4019" x="281.395" y="303.8966">[&#1087;&#1077;&#1088;&#1077;&#1085;&#1086;&#1089;&#1080;&#1090;&#1089;&#1103; &#1074; &#1085;&#1086;&#1074;&#1086;&#1077;</text><text fill="#000000" font-family="sans-serif" font-size="13" lengthAdjust="spacing" textLength="201.1318" x="255.03" y="319.0294">&#1079;&#1072;&#1087;&#1083;&#1072;&#1085;&#1080;&#1088;&#1086;&#1074;&#1072;&#1085;&#1085;&#1086;&#1077; &#1089;&#1086;&#1089;&#1090;&#1086;&#1103;&#1085;&#1080;&#1077;]</text></g><!--link ????????????? to ????????--><g class="link" data-entity-1="ent0002" data-entity-2="ent0008" data-link-type="dependency" data-source-line="15" id="lnk5"><path d="M439.15,245.9469 C448,254.6969 455.78,264.6469 461.03,275.6969 C491.35,339.5369 466.18,523.2669 461.03,593.7569 C460.33,603.3469 459.9877,607.5715 458.6577,617.3615" fill="none" id="&#1047;&#1072;&#1087;&#1083;&#1072;&#1085;&#1080;&#1088;&#1086;&#1074;&#1072;&#1085;&#1086;-to-&#1054;&#1090;&#1084;&#1077;&#1085;&#1077;&#1085;&#1086;" style="stroke:#181818;stroke-width:1;"/><polygon fill="#181818" points="457.85,623.3069,463.0251,614.9273,458.5231,618.3524,455.098,613.8503,457.85,623.3069" style="stroke:#181818;stroke-width:1;"/><text fill="#000000" font-family="sans-serif" font-size="13" lengthAdjust="spacing" textLength="96.5288" x="476.03" y="410.0238">cancel(reason)</text></g><!--link ????????????? to ?????????--><g class="link" data-entity-1="ent0002" data-entity-2="ent0006" data-link-type="dependency" data-source-line="16" id="lnk6"><path d="M471.27,246.1269 C515.14,270.9369 562.45,306.2869 589.03,352.6969 C612.97,394.4769 623.4138,442.5699 628.6738,481.8599" fill="none" id="&#1047;&#1072;&#1087;&#1083;&#1072;&#1085;&#1080;&#1088;&#1086;&#1074;&#1072;&#1085;&#1086;-to-&#1055;&#1088;&#1086;&#1074;&#1077;&#1076;&#1077;&#1085;&#1086;" style="stroke:#181818;stroke-width:1;"/><polygon fill="#181818" points="629.47,487.8069,632.2404,478.3557,628.8065,482.8511,624.3111,479.4172,629.47,487.8069" style="stroke:#181818;stroke-width:1;"/><text fill="#000000" font-family="sans-serif" font-size="13" lengthAdjust="spacing" textLength="70.8652" x="625.4218" y="288.7638">complete()</text><text fill="#000000" font-family="sans-serif" font-size="13" lengthAdjust="spacing" textLength="126.3818" x="597.6635" y="303.8966">[&#1076;&#1072;&#1090;&#1072; &#1085;&#1072;&#1089;&#1090;&#1091;&#1087;&#1080;&#1083;&#1072; &#1080;</text><text fill="#000000" font-family="sans-serif" font-size="13" lengthAdjust="spacing" textLength="189.6489" x="566.03" y="319.0294">&#1089;&#1086;&#1073;&#1077;&#1089;&#1077;&#1076;&#1086;&#1074;&#1072;&#1085;&#1080;&#1077; &#1089;&#1086;&#1089;&#1090;&#1086;&#1103;&#1083;&#1086;&#1089;&#1100;]</text></g><!--link ?????????? to ????????--><g class="link" data-entity-1="ent0004" data-entity-2="ent0008" data-link-type="dependency" data-source-line="23" id="lnk8"><path d="M279.6,458.5669 C297.93,497.8069 326.09,551.8269 359.03,593.7569 C367.12,604.0469 372.2677,609.9647 381.9377,619.3647" fill="none" id="&#1055;&#1077;&#1088;&#1077;&#1085;&#1077;&#1089;&#1077;&#1085;&#1086;-to-&#1054;&#1090;&#1084;&#1077;&#1085;&#1077;&#1085;&#1086;" style="stroke:#181818;stroke-width:1;"/><polygon fill="#181818" points="386.24,623.5469,382.5747,614.4055,382.6548,620.0617,376.9985,620.1418,386.24,623.5469" style="stroke:#181818;stroke-width:1;"/><text fill="#000000" font-family="sans-serif" font-size="13" lengthAdjust="spacing" textLength="96.5288" x="360.03" y="545.5538">cancel(reason)</text></g><!--link ????????? to *end*--><g class="link" data-entity-1="ent0006" data-entity-2="ent0009" data-link-type="dependency" data-source-line="33" id="lnk10"><path d="M631.24,594.1769 C627.54,632.9669 618.96,686.3869 599.03,729.2869 C586.56,756.1369 565.9818,777.3589 553.2618,789.1989" fill="none" id="&#1055;&#1088;&#1086;&#1074;&#1077;&#1076;&#1077;&#1085;&#1086;-to-*end*" style="stroke:#181818;stroke-width:1;"/><polygon fill="#181818" points="548.87,793.2869,558.1831,790.0828,552.5299,789.8802,552.7324,784.227,548.87,793.2869" style="stroke:#181818;stroke-width:1;"/></g><!--link ???????? to *end*--><g class="link" data-entity-1="ent0008" data-entity-2="ent0009" data-link-type="dependency" data-source-line="34" id="lnk11"><path d="M488.05,729.5869 C505.87,753.3769 521.5306,774.2764 531.1806,787.1464" fill="none" id="&#1054;&#1090;&#1084;&#1077;&#1085;&#1077;&#1085;&#1086;-to-*end*" style="stroke:#181818;stroke-width:1;"/><polygon fill="#181818" points="534.78,791.9469,532.5812,782.3466,531.7805,787.9465,526.1806,787.1458,534.78,791.9469" style="stroke:#181818;stroke-width:1;"/></g><?plantuml-src XLJDRjD04BxxAKOzjKYDL7uk79105H8NBksjYP2LBjHgOaUseGA4b0OAGgtQ8XNe0Gg55t2Z6XkIkAym-mey2T-iDo4qfJaasSpEpdm_injxSKFHKkp6YXOzzr7eDkbt-u3u0-USyO1JV0Pwct-IVetGB-uHVWQwmwbkSrVlw5t7YTOzl-NAsSXKUkuGtGd2LHKkhtdrTLz54IrKRY1wD_3Z9U-PeeLhpWl7MRbIe_dvMyGVEU4pxk5xm3aA5zmrwu9kacgs6i5J5LQY-ffQVTnGz_nOXKyyjJ4xL_LNz2QoCpur-GbXAQLolQbtQ9HP0qW3xP9EWjeFa3F31vo08Ohb18vjgD3NUuHp1PzYesl8_q3FLCIfL7t-Ba442kwZkAYMSqfS8FiCkGcsot11GDRHB-rXh2epv4PqVq44kGIUqUcBwInrKl1EhKAX6aepwwkDHV1SzffAnE6UtkKJiDaJspBJ6w2axg0sjTiHaljbDzkfxlfrrPWDbHi5_jnqk3QKbcpB4W7yLB4ovebjfTBmpWe3ywGY05TzO-w99NiwAY_QofQbiuTyMU_yjVaYeSOC_boM4bc624ozBUDLoJSHNu-a-p-owMq2o7DkbqDmRAx6LfbdBb0YjmPTz2RXxYHs1gHbMx_ZlhN-gh7-8iXJBqSzy1zwONF2zxDHCGY3KnrG0Dck22td2qu1EFjFPSavfx0HlNO9ogd3Ch9cOYZ6ZFcAK0PzUtXPEk8CwLVoxXWIRMoa9HMCnXkB93EZFTOx7pgMo3pXP5BrRxTQ3Q_knbxWMz7D0sGXdSS-1aZGvkYLbwzBCSoKCRXeOiOQaT4vCoz8ejyYRGJU51l7I1Z9_GUWluyfEkPF6Bnl-FSUuKC-j92lbtCoeP_eZwVKcU1XD_u0?></g></svg>