<svg xmlns="http://www.w3.org/2000/svg" xmlns:xlink="http://www.w3.org/1999/xlink" contentStyleType="text/css" data-diagram-type="DESCRIPTION" height="1206px" preserveAspectRatio="none" style="width:1538px;height:1206px;background:#FFFFFF;" version="1.1" viewBox="0 0 1538 1206" width="1538px" zoomAndPan="magnify"><?plantuml 1.2026.4beta2?><defs/><g><g class="title" data-source-line="1"><text fill="#000000" font-family="sans-serif" font-size="14" font-weight="700" lengthAdjust="spacing" textLength="594.0293" x="468.4854" y="22.9951">Deployment Diagram &#8212; &#1056;&#1072;&#1079;&#1074;&#1105;&#1088;&#1090;&#1099;&#1074;&#1072;&#1085;&#1080;&#1077; &#1089;&#1080;&#1089;&#1090;&#1077;&#1084;&#1099; (Docker / GitHub Actions)</text></g><!--cluster ????????????--><g class="cluster" data-qualified-name="............" data-source-line="7" id="ent0002"><polygon fill="none" points="275,70.0269,285,60.0269,649,60.0269,649,150.1569,639,160.1569,275,160.1569,275,70.0269" style="stroke:#181818;stroke-width:1.5;"/><line style="stroke:#181818;stroke-width:1.5;" x1="639" x2="649" y1="70.0269" y2="60.0269"/><line style="stroke:#181818;stroke-width:1.5;" x1="275" x2="639" y1="70.0269" y2="70.0269"/><line style="stroke:#181818;stroke-width:1.5;" x1="639" x2="639" y1="70.0269" y2="160.1569"/><text fill="#000000" font-family="sans-serif" font-size="13" font-weight="700" lengthAdjust="spacing" textLength="106.0186" x="404.9907" y="85.0938">&#1055;&#1086;&#1083;&#1100;&#1079;&#1086;&#1074;&#1072;&#1090;&#1077;&#1083;&#1080;</text></g><!--cluster CICD--><g class="cluster" data-qualified-name="CICD" data-source-line="12" id="ent0005"><polygon fill="none" points="732,53.2969,742,43.2969,1088,43.2969,1088,166.8869,1078,176.8869,732,176.8869,732,53.2969" style="stroke:#181818;stroke-width:1.5;"/><line style="stroke:#181818;stroke-width:1.5;" x1="1078" x2="1088" y1="53.2969" y2="43.2969"/><line style="stroke:#181818;stroke-width:1.5;" x1="732" x2="1078" y1="53.2969" y2="53.2969"/><line style="stroke:#181818;stroke-width:1.5;" x1="1078" x2="1078" y1="53.2969" y2="176.8869"/><text fill="#000000" font-family="sans-serif" font-size="13" font-weight="700" lengthAdjust="spacing" textLength="153.6514" x="829.1743" y="68.3638">GitHub Actions CI/CD</text></g><!--cluster GHP--><g class="cluster" data-qualified-name="GHP" data-source-line="17" id="ent0008"><polygon fill="none" points="971,391.8869,981,381.8869,1176,381.8869,1176,498.4869,1166,508.4869,971,508.4869,971,391.8869" style="stroke:#181818;stroke-width:1.5;"/><line style="stroke:#181818;stroke-width:1.5;" x1="1166" x2="1176" y1="391.8869" y2="381.8869"/><line style="stroke:#181818;stroke-width:1.5;" x1="971" x2="1166" y1="391.8869" y2="391.8869"/><line style="stroke:#181818;stroke-width:1.5;" x1="1166" x2="1166" y1="391.8869" y2="508.4869"/><text fill="#000000" font-family="sans-serif" font-size="13" font-weight="700" lengthAdjust="spacing" textLength="99.4678" x="1019.7661" y="406.9538">GitHub Pages</text></g><!--cluster PROD--><g class="cluster" data-qualified-name="PROD" data-source-line="21" id="ent0010"><polygon fill="none" points="16,251.8869,26,241.8869,931,241.8869,931,1171.9669,921,1181.9669,16,1181.9669,16,251.8869" style="stroke:#181818;stroke-width:1.5;"/><line style="stroke:#181818;stroke-width:1.5;" x1="921" x2="931" y1="251.8869" y2="241.8869"/><line style="stroke:#181818;stroke-width:1.5;" x1="16" x2="921" y1="251.8869" y2="251.8869"/><line style="stroke:#181818;stroke-width:1.5;" x1="921" x2="921" y1="251.8869" y2="1181.9669"/><text fill="#000000" font-family="sans-serif" font-size="13" font-weight="700" lengthAdjust="spacing" textLength="132.812" x="403.094" y="266.9538">Production Server</text><text fill="#000000" font-family="sans-serif" font-size="13" font-weight="700" lengthAdjust="spacing" textLength="134.5195" x="402.2402" y="282.0866">(Docker Compose)</text></g><!--cluster docker network: app-net--><g class="cluster" data-qualified-name="PROD.docker network. app-net" data-source-line="23" id="ent0011"><polygon fill="none" points="48,321.8869,58,311.8869,891,311.8869,891,1139.9669,881,1149.9669,48,1149.9669,48,321.8869" style="stroke:#181818;stroke-width:1.5;"/><line style="stroke:#181818;stroke-width:1.5;" x1="881" x2="891" y1="321.8869" y2="311.8869"/><line style="stroke:#181818;stroke-width:1.5;" x1="48" x2="881" y1="321.8869" y2="321.8869"/><line style="stroke:#181818;stroke-width:1.5;" x1="881" x2="881" y1="321.8869" y2="1149.9669"/><text fill="#000000" font-family="sans-serif" font-size="13" font-weight="700" lengthAdjust="spacing" textLength="181.416" x="374.792" y="336.9538">docker network: app-net</text></g><!--cluster FE_C--><g class="cluster" data-qualified-name="PROD.docker network. app-net.FE_C" data-source-line="25" id="ent0012"><polygon fill="none" points="300,376.8869,310,366.8869,506,366.8869,506,498.4869,496,508.4869,300,508.4869,300,376.8869" style="stroke:#181818;stroke-width:1.5;"/><line style="stroke:#181818;stroke-width:1.5;" x1="496" x2="506" y1="376.8869" y2="366.8869"/><line style="stroke:#181818;stroke-width:1.5;" x1="300" x2="496" y1="376.8869" y2="376.8869"/><line style="stroke:#181818;stroke-width:1.5;" x1="496" x2="496" y1="376.8869" y2="508.4869"/><text fill="#000000" font-family="sans-serif" font-size="13" font-style="italic" lengthAdjust="spacing" textLength="77.5049" x="360.2476" y="391.9538">&#171;container&#187;</text><text fill="#000000" font-family="sans-serif" font-size="13" font-weight="700" lengthAdjust="spacing" textLength="87.1343" x="355.4329" y="407.0866">frontend:80</text></g><!--cluster BE_C--><g class="cluster" data-qualified-name="PROD.docker network. app-net.BE_C" data-source-line="29" id="ent0014"><polygon fill="none" points="275,583.4869,285,573.4869,506,573.4869,506,688.7769,496,698.7769,275,698.7769,275,583.4869" style="stroke:#181818;stroke-width:1.5;"/><line style="stroke:#181818;stroke-width:1.5;" x1="496" x2="506" y1="583.4869" y2="573.4869"/><line style="stroke:#181818;stroke-width:1.5;" x1="275" x2="496" y1="583.4869" y2="583.4869"/><line style="stroke:#181818;stroke-width:1.5;" x1="496" x2="496" y1="583.4869" y2="698.7769"/><text fill="#000000" font-family="sans-serif" font-size="13" font-style="italic" lengthAdjust="spacing" textLength="77.5049" x="347.7476" y="598.5538">&#171;container&#187;</text><text fill="#000000" font-family="sans-serif" font-size="13" font-weight="700" lengthAdjust="spacing" textLength="103.1875" x="334.9063" y="613.6866">backend:8080</text></g><!--cluster RS_C--><g class="cluster" data-qualified-name="PROD.docker network. app-net.RS_C" data-source-line="33" id="ent0016"><polygon fill="none" points="198,773.7769,208,763.7769,439,763.7769,439,895.3769,429,905.3769,198,905.3769,198,773.7769" style="stroke:#181818;stroke-width:1.5;"/><line style="stroke:#181818;stroke-width:1.5;" x1="429" x2="439" y1="773.7769" y2="763.7769"/><line style="stroke:#181818;stroke-width:1.5;" x1="198" x2="429" y1="773.7769" y2="773.7769"/><line style="stroke:#181818;stroke-width:1.5;" x1="429" x2="429" y1="773.7769" y2="905.3769"/><text fill="#000000" font-family="sans-serif" font-size="13" font-style="italic" lengthAdjust="spacing" textLength="77.5049" x="275.7476" y="788.8438">&#171;container&#187;</text><text fill="#000000" font-family="sans-serif" font-size="13" font-weight="700" lengthAdjust="spacing" textLength="165.3438" x="231.8281" y="803.9766">recommendation:8000</text></g><!--cluster NS_C--><g class="cluster" data-qualified-name="PROD.docker network. app-net.NS_C" data-source-line="37" id="ent0018"><polygon fill="none" points="658,773.7769,668,763.7769,859,763.7769,859,895.3769,849,905.3769,658,905.3769,658,773.7769" style="stroke:#181818;stroke-width:1.5;"/><line style="stroke:#181818;stroke-width:1.5;" x1="849" x2="859" y1="773.7769" y2="763.7769"/><line style="stroke:#181818;stroke-width:1.5;" x1="658" x2="849" y1="773.7769" y2="773.7769"/><line style="stroke:#181818;stroke-width:1.5;" x1="849" x2="849" y1="773.7769" y2="905.3769"/><text fill="#000000" font-family="sans-serif" font-size="13" font-style="italic" lengthAdjust="spacing" textLength="77.5049" x="715.7476" y="788.8438">&#171;container&#187;</text><text fill="#000000" font-family="sans-serif" font-size="13" font-weight="700" lengthAdjust="spacing" textLength="125.6836" x="691.6582" y="803.9766">notification:8081</text></g><!--cluster PG_C--><g class="cluster" data-qualified-name="PROD.docker network. app-net.PG_C" data-source-line="41" id="ent0020"><polygon fill="none" points="80,980.3769,90,970.3769,447,970.3769,447,1107.9669,437,1117.9669,80,1117.9669,80,980.3769" style="stroke:#181818;stroke-width:1.5;"/><line style="stroke:#181818;stroke-width:1.5;" x1="437" x2="447" y1="980.3769" y2="970.3769"/><line style="stroke:#181818;stroke-width:1.5;" x1="80" x2="437" y1="980.3769" y2="980.3769"/><line style="stroke:#181818;stroke-width:1.5;" x1="437" x2="437" y1="980.3769" y2="1117.9669"/><text fill="#000000" font-family="sans-serif" font-size="13" font-style="italic" lengthAdjust="spacing" textLength="77.5049" x="220.7476" y="995.4438">&#171;container&#187;</text><text fill="#000000" font-family="sans-serif" font-size="13" font-weight="700" lengthAdjust="spacing" textLength="105.8408" x="206.5796" y="1010.5766">postgres:5432</text></g><!--cluster RD_C--><g class="cluster" data-qualified-name="PROD.docker network. app-net.RD_C" data-source-line="46" id="ent0023"><polygon fill="none" points="487,980.3769,497,970.3769,819,970.3769,819,1107.9669,809,1117.9669,487,1117.9669,487,980.3769" style="stroke:#181818;stroke-width:1.5;"/><line style="stroke:#181818;stroke-width:1.5;" x1="809" x2="819" y1="980.3769" y2="970.3769"/><line style="stroke:#181818;stroke-width:1.5;" x1="487" x2="809" y1="980.3769" y2="980.3769"/><line style="stroke:#181818;stroke-width:1.5;" x1="809" x2="809" y1="980.3769" y2="1117.9669"/><text fill="#000000" font-family="sans-serif" font-size="13" font-style="italic" lengthAdjust="spacing" textLength="77.5049" x="610.2476" y="995.4438">&#171;container&#187;</text><text fill="#000000" font-family="sans-serif" font-size="13" font-weight="700" lengthAdjust="spacing" textLength="78.1079" x="609.946" y="1010.5766">redis:6379</text></g><!--cluster ??????? ???????--><g class="cluster" data-qualified-name="....... ......." data-source-line="54" id="ent0026"><polygon fill="none" points="963,1002.8769,973,992.8769,1513,992.8769,1513,1100.4669,1503,1110.4669,963,1110.4669,963,1002.8769" style="stroke:#181818;stroke-width:1.5;"/><line style="stroke:#181818;stroke-width:1.5;" x1="1503" x2="1513" y1="1002.8769" y2="992.8769"/><line style="stroke:#181818;stroke-width:1.5;" x1="963" x2="1503" y1="1002.8769" y2="1002.8769"/><line style="stroke:#181818;stroke-width:1.5;" x1="1503" x2="1503" y1="1002.8769" y2="1110.4669"/><text fill="#000000" font-family="sans-serif" font-size="13" font-weight="700" lengthAdjust="spacing" textLength="135.5732" x="1166.2134" y="1017.9438">&#1042;&#1085;&#1077;&#1096;&#1085;&#1080;&#1077; &#1089;&#1077;&#1088;&#1074;&#1080;&#1089;&#1099;</text></g><!--entity SB--><g class="entity" data-qualified-name=".............SB" data-source-line="8" id="ent0003"><polygon fill="#F1F1F1" points="290.86,109.0269,300.86,99.0269,439.132,99.0269,439.132,134.1597,429.132,144.1597,290.86,144.1597,290.86,109.0269" style="stroke:#181818;stroke-width:1.5;"/><line style="stroke:#181818;stroke-width:1.5;" x1="429.132" x2="439.132" y1="109.0269" y2="99.0269"/><line style="stroke:#181818;stroke-width:1.5;" x1="290.86" x2="429.132" y1="109.0269" y2="109.0269"/><line style="stroke:#181818;stroke-width:1.5;" x1="429.132" x2="429.132" y1="109.0269" y2="144.1597"/><text fill="#000000" font-family="sans-serif" font-size="13" lengthAdjust="spacing" textLength="108.272" x="305.86" y="131.0938">Student Browser</text></g><!--entity EB--><g class="entity" data-qualified-name=".............EB" data-source-line="9" id="ent0004"><polygon fill="#F1F1F1" points="474.59,109.0269,484.59,99.0269,633.4181,99.0269,633.4181,134.1597,623.4181,144.1597,474.59,144.1597,474.59,109.0269" style="stroke:#181818;stroke-width:1.5;"/><line style="stroke:#181818;stroke-width:1.5;" x1="623.4181" x2="633.4181" y1="109.0269" y2="99.0269"/><line style="stroke:#181818;stroke-width:1.5;" x1="474.59" x2="623.4181" y1="109.0269" y2="109.0269"/><line style="stroke:#181818;stroke-width:1.5;" x1="623.4181" x2="623.4181" y1="109.0269" y2="144.1597"/><text fill="#000000" font-family="sans-serif" font-size="13" lengthAdjust="spacing" textLength="118.8281" x="489.59" y="131.0938">Employer Browser</text></g><!--entity PIPE--><g class="entity" data-qualified-name="CICD.PIPE" data-source-line="13" id="ent0006"><rect fill="#F1F1F1" height="62.5938" rx="2.5" ry="2.5" style="stroke:#181818;stroke-width:1.2;" width="124.9092" x="755.55" y="90.2969"/><rect fill="#F1F1F1" height="10" style="stroke:#181818;stroke-width:1.2;" width="15" x="860.4592" y="95.2969"/><rect fill="#F1F1F1" height="2" style="stroke:#181818;stroke-width:1.2;" width="4" x="858.4592" y="97.2969"/><rect fill="#F1F1F1" height="2" style="stroke:#181818;stroke-width:1.2;" width="4" x="858.4592" y="101.2969"/><text fill="#000000" font-family="sans-serif" font-size="14" lengthAdjust="spacing" textLength="84.9092" x="770.55" y="123.292">Build &amp; Test</text><text fill="#000000" font-family="sans-serif" font-size="14" lengthAdjust="spacing" textLength="55.0977" x="770.55" y="139.5889">Pipeline</text></g><!--entity DOCKER_BUILD--><g class="entity" data-qualified-name="CICD.DOCKER_BUILD" data-source-line="14" id="ent0007"><rect fill="#F1F1F1" height="62.5938" rx="2.5" ry="2.5" style="stroke:#181818;stroke-width:1.2;" width="129.1133" x="915.44" y="90.2969"/><rect fill="#F1F1F1" height="10" style="stroke:#181818;stroke-width:1.2;" width="15" x="1024.5533" y="95.2969"/><rect fill="#F1F1F1" height="2" style="stroke:#181818;stroke-width:1.2;" width="4" x="1022.5533" y="97.2969"/><rect fill="#F1F1F1" height="2" style="stroke:#181818;stroke-width:1.2;" width="4" x="1022.5533" y="101.2969"/><text fill="#000000" font-family="sans-serif" font-size="14" lengthAdjust="spacing" textLength="89.1133" x="930.44" y="123.292">Docker Build</text><text fill="#000000" font-family="sans-serif" font-size="14" lengthAdjust="spacing" textLength="48.8496" x="930.44" y="139.5889">&amp; Push</text></g><!--entity FE_STATIC--><g class="entity" data-qualified-name="GHP.FE_STATIC" data-source-line="18" id="ent0009"><rect fill="#F1F1F1" height="55.5938" rx="2.5" ry="2.5" style="stroke:#181818;stroke-width:0.5;" width="137.5908" x="995.2" y="428.8869"/><polygon fill="#F1F1F1" points="1115.7908,433.8869,1115.7908,447.8869,1127.7908,447.8869,1127.7908,439.8869,1121.7908,433.8869,1115.7908,433.8869" style="stroke:#181818;stroke-width:0.5;"/><line style="stroke:#181818;stroke-width:0.5;" x1="1121.7908" x2="1121.7908" y1="433.8869" y2="439.8869"/><line style="stroke:#181818;stroke-width:0.5;" x1="1127.7908" x2="1121.7908" y1="439.8869" y2="439.8869"/><text fill="#000000" font-family="sans-serif" font-size="14" lengthAdjust="spacing" textLength="107.5908" x="1005.2" y="454.882">Static Frontend</text><text fill="#000000" font-family="sans-serif" font-size="14" lengthAdjust="spacing" textLength="89.9063" x="1005.2" y="471.1789">(React build)</text></g><!--entity FE_BUNDLE--><g class="entity" data-qualified-name="PROD.docker network. app-net.FE_C.FE_BUNDLE" data-source-line="26" id="ent0013"><rect fill="#F1F1F1" height="55.5938" rx="2.5" ry="2.5" style="stroke:#181818;stroke-width:0.5;" width="138.7598" x="323.62" y="428.8869"/><polygon fill="#F1F1F1" points="445.3798,433.8869,445.3798,447.8869,457.3798,447.8869,457.3798,439.8869,451.3798,433.8869,445.3798,433.8869" style="stroke:#181818;stroke-width:0.5;"/><line style="stroke:#181818;stroke-width:0.5;" x1="451.3798" x2="451.3798" y1="433.8869" y2="439.8869"/><line style="stroke:#181818;stroke-width:0.5;" x1="457.3798" x2="451.3798" y1="439.8869" y2="439.8869"/><text fill="#000000" font-family="sans-serif" font-size="14" lengthAdjust="spacing" textLength="38.8076" x="333.62" y="454.882">nginx</text><text fill="#000000" font-family="sans-serif" font-size="14" lengthAdjust="spacing" textLength="108.7598" x="333.62" y="471.1789">+ React bundle</text></g><!--entity BE_JAR--><g class="entity" data-qualified-name="PROD.docker network. app-net.BE_C.BE_JAR" data-source-line="30" id="ent0015"><rect fill="#F1F1F1" height="39.2969" rx="2.5" ry="2.5" style="stroke:#181818;stroke-width:0.5;" width="164.2236" x="298.89" y="635.4869"/><polygon fill="#F1F1F1" points="446.1136,640.4869,446.1136,654.4869,458.1136,654.4869,458.1136,646.4869,452.1136,640.4869,446.1136,640.4869" style="stroke:#181818;stroke-width:0.5;"/><line style="stroke:#181818;stroke-width:0.5;" x1="452.1136" x2="452.1136" y1="640.4869" y2="646.4869"/><line style="stroke:#181818;stroke-width:0.5;" x1="458.1136" x2="452.1136" y1="646.4869" y2="646.4869"/><text fill="#000000" font-family="sans-serif" font-size="14" lengthAdjust="spacing" textLength="134.2236" x="308.89" y="661.482">spring-boot-app.jar</text></g><!--entity RS_APP--><g class="entity" data-qualified-name="PROD.docker network. app-net.RS_C.RS_APP" data-source-line="34" id="ent0017"><rect fill="#F1F1F1" height="55.5938" rx="2.5" ry="2.5" style="stroke:#181818;stroke-width:0.5;" width="108.4492" x="221.78" y="825.7769"/><polygon fill="#F1F1F1" points="313.2292,830.7769,313.2292,844.7769,325.2292,844.7769,325.2292,836.7769,319.2292,830.7769,313.2292,830.7769" style="stroke:#181818;stroke-width:0.5;"/><line style="stroke:#181818;stroke-width:0.5;" x1="319.2292" x2="319.2292" y1="830.7769" y2="836.7769"/><line style="stroke:#181818;stroke-width:0.5;" x1="325.2292" x2="319.2292" y1="836.7769" y2="836.7769"/><text fill="#000000" font-family="sans-serif" font-size="14" lengthAdjust="spacing" textLength="78.4492" x="231.78" y="851.772">fastapi app</text><text fill="#000000" font-family="sans-serif" font-size="14" lengthAdjust="spacing" textLength="62.8633" x="231.78" y="868.0689">(uvicorn)</text></g><!--entity NS_APP--><g class="entity" data-qualified-name="PROD.docker network. app-net.NS_C.NS_APP" data-source-line="38" id="ent0019"><rect fill="#F1F1F1" height="55.5938" rx="2.5" ry="2.5" style="stroke:#181818;stroke-width:0.5;" width="108.7295" x="693.64" y="825.7769"/><polygon fill="#F1F1F1" points="785.3695,830.7769,785.3695,844.7769,797.3695,844.7769,797.3695,836.7769,791.3695,830.7769,785.3695,830.7769" style="stroke:#181818;stroke-width:0.5;"/><line style="stroke:#181818;stroke-width:0.5;" x1="791.3695" x2="791.3695" y1="830.7769" y2="836.7769"/><line style="stroke:#181818;stroke-width:0.5;" x1="797.3695" x2="791.3695" y1="836.7769" y2="836.7769"/><text fill="#000000" font-family="sans-serif" font-size="14" lengthAdjust="spacing" textLength="78.7295" x="703.64" y="851.772">notification</text><text fill="#000000" font-family="sans-serif" font-size="14" lengthAdjust="spacing" textLength="50.1484" x="703.64" y="868.0689">service</text></g><!--entity PG_DB--><g class="entity" data-qualified-name="PROD.docker network. app-net.PG_C.PG_DB" data-source-line="42" id="ent0021"><path d="M104.49,1042.3769 C104.49,1032.3769 165.9988,1032.3769 165.9988,1032.3769 C165.9988,1032.3769 227.5076,1032.3769 227.5076,1042.3769 L227.5076,1083.9706 C227.5076,1093.9706 165.9988,1093.9706 165.9988,1093.9706 C165.9988,1093.9706 104.49,1093.9706 104.49,1083.9706 L104.49,1042.3769" fill="#F1F1F1" style="stroke:#181818;stroke-width:0.5;"/><path d="M104.49,1042.3769 C104.49,1052.3769 165.9988,1052.3769 165.9988,1052.3769 C165.9988,1052.3769 227.5076,1052.3769 227.5076,1042.3769" fill="none" style="stroke:#181818;stroke-width:0.5;"/><text fill="#000000" font-family="sans-serif" font-size="14" lengthAdjust="spacing" textLength="103.0176" x="114.49" y="1069.372">PostgreSQL 15</text><text fill="#000000" font-family="sans-serif" font-size="14" lengthAdjust="spacing" textLength="82.7695" x="114.49" y="1085.6689">vacancy_db</text></g><!--entity PG_VOL--><g class="entity" data-qualified-name="PROD.docker network. app-net.PG_C.PG_VOL" data-source-line="43" id="ent0022"><rect fill="#F1F1F1" height="39.2969" rx="2.5" ry="2.5" style="stroke:#181818;stroke-width:0.5;" width="140.3389" x="262.83" y="1043.5169"/><polygon fill="#F1F1F1" points="386.1689,1048.5169,386.1689,1062.5169,398.1689,1062.5169,398.1689,1054.5169,392.1689,1048.5169,386.1689,1048.5169" style="stroke:#181818;stroke-width:0.5;"/><line style="stroke:#181818;stroke-width:0.5;" x1="392.1689" x2="392.1689" y1="1048.5169" y2="1054.5169"/><line style="stroke:#181818;stroke-width:0.5;" x1="398.1689" x2="392.1689" y1="1054.5169" y2="1054.5169"/><text fill="#000000" font-family="sans-serif" font-size="14" lengthAdjust="spacing" textLength="110.3389" x="272.83" y="1069.512">volume: pgdata</text></g><!--entity RD_DB--><g class="entity" data-qualified-name="PROD.docker network. app-net.RD_C.RD_DB" data-source-line="47" id="ent0024"><path d="M510.81,1042.3769 C510.81,1032.3769 547.0019,1032.3769 547.0019,1032.3769 C547.0019,1032.3769 583.1938,1032.3769 583.1938,1042.3769 L583.1938,1083.9706 C583.1938,1093.9706 547.0019,1093.9706 547.0019,1093.9706 C547.0019,1093.9706 510.81,1093.9706 510.81,1083.9706 L510.81,1042.3769" fill="#F1F1F1" style="stroke:#181818;stroke-width:0.5;"/><path d="M510.81,1042.3769 C510.81,1052.3769 547.0019,1052.3769 547.0019,1052.3769 C547.0019,1052.3769 583.1938,1052.3769 583.1938,1042.3769" fill="none" style="stroke:#181818;stroke-width:0.5;"/><text fill="#000000" font-family="sans-serif" font-size="14" lengthAdjust="spacing" textLength="51.7686" x="520.81" y="1069.372">Redis 7</text><text fill="#000000" font-family="sans-serif" font-size="14" lengthAdjust="spacing" textLength="52.3838" x="520.81" y="1085.6689">(cache)</text></g><!--entity RD_VOL--><g class="entity" data-qualified-name="PROD.docker network. app-net.RD_C.RD_VOL" data-source-line="48" id="ent0025"><rect fill="#F1F1F1" height="39.2969" rx="2.5" ry="2.5" style="stroke:#181818;stroke-width:0.5;" width="157.0049" x="618.5" y="1043.5169"/><polygon fill="#F1F1F1" points="758.5049,1048.5169,758.5049,1062.5169,770.5049,1062.5169,770.5049,1054.5169,764.5049,1048.5169,758.5049,1048.5169" style="stroke:#181818;stroke-width:0.5;"/><line style="stroke:#181818;stroke-width:0.5;" x1="764.5049" x2="764.5049" y1="1048.5169" y2="1054.5169"/><line style="stroke:#181818;stroke-width:0.5;" x1="770.5049" x2="764.5049" y1="1054.5169" y2="1054.5169"/><text fill="#000000" font-family="sans-serif" font-size="14" lengthAdjust="spacing" textLength="127.0049" x="628.5" y="1069.512">volume: redisdata</text></g><!--entity SSO_EXT--><g class="entity" data-qualified-name="....... ........SSO_EXT" data-source-line="55" id="ent0027"><rect fill="#F1F1F1" height="62.5938" rx="2.5" ry="2.5" style="stroke:#181818;stroke-width:1.2;" width="177.3613" x="1319.32" y="1031.8769"/><rect fill="#F1F1F1" height="10" style="stroke:#181818;stroke-width:1.2;" width="15" x="1476.6813" y="1036.8769"/><rect fill="#F1F1F1" height="2" style="stroke:#181818;stroke-width:1.2;" width="4" x="1474.6813" y="1038.8769"/><rect fill="#F1F1F1" height="2" style="stroke:#181818;stroke-width:1.2;" width="4" x="1474.6813" y="1042.8769"/><text fill="#000000" font-family="sans-serif" font-size="14" lengthAdjust="spacing" textLength="28.793" x="1334.32" y="1064.872">SSO</text><text fill="#000000" font-family="sans-serif" font-size="14" lengthAdjust="spacing" textLength="137.3613" x="1334.32" y="1081.1689">(university OAuth2)</text></g><!--entity SMTP_EXT--><g class="entity" data-qualified-name="....... ........SMTP_EXT" data-source-line="56" id="ent0028"><rect fill="#F1F1F1" height="62.5938" rx="2.5" ry="2.5" style="stroke:#181818;stroke-width:1.2;" width="128.3203" x="978.84" y="1031.8769"/><rect fill="#F1F1F1" height="10" style="stroke:#181818;stroke-width:1.2;" width="15" x="1087.1603" y="1036.8769"/><rect fill="#F1F1F1" height="2" style="stroke:#181818;stroke-width:1.2;" width="4" x="1085.1603" y="1038.8769"/><rect fill="#F1F1F1" height="2" style="stroke:#181818;stroke-width:1.2;" width="4" x="1085.1603" y="1042.8769"/><text fill="#000000" font-family="sans-serif" font-size="14" lengthAdjust="spacing" textLength="88.3203" x="993.84" y="1064.872">SMTP Server</text><text fill="#000000" font-family="sans-serif" font-size="14" lengthAdjust="spacing" textLength="49.5332" x="993.84" y="1081.1689">(email)</text></g><!--entity MSG_EXT--><g class="entity" data-qualified-name="....... ........MSG_EXT" data-source-line="57" id="ent0029"><rect fill="#F1F1F1" height="46.2969" rx="2.5" ry="2.5" style="stroke:#181818;stroke-width:1.2;" width="142.6211" x="1141.69" y="1040.0169"/><rect fill="#F1F1F1" height="10" style="stroke:#181818;stroke-width:1.2;" width="15" x="1264.3111" y="1045.0169"/><rect fill="#F1F1F1" height="2" style="stroke:#181818;stroke-width:1.2;" width="4" x="1262.3111" y="1047.0169"/><rect fill="#F1F1F1" height="2" style="stroke:#181818;stroke-width:1.2;" width="4" x="1262.3111" y="1051.0169"/><text fill="#000000" font-family="sans-serif" font-size="14" lengthAdjust="spacing" textLength="102.6211" x="1156.69" y="1073.012">Messenger API</text></g><!--link SB to FE_C--><g class="link" data-entity-1="ent0003" data-entity-2="ent0012" data-link-type="dependency" data-source-line="61" id="lnk30"><path d="M371.27,144.3069 C378.93,166.6269 394.17,200.5069 420,217.8869 C441.59,232.4169 460.07,207.0369 478,225.8869 C495.385,244.1719 500.5025,300.1269 501.2163,352.2406 C501.2609,355.4977 501.2883,358.7398 501.3004,361.9568 C501.3065,363.5653 501.3137,359.1675 501.3124,360.7621" fill="none" id="SB-to-FE_C" style="stroke:#181818;stroke-width:1;"/><polygon fill="#181818" points="501.3074,366.7621,505.3074,357.7621,501.3074,361.7621,497.3074,357.7621,501.3074,366.7621" style="stroke:#181818;stroke-width:1;"/><text fill="#000000" font-family="sans-serif" font-size="13" lengthAdjust="spacing" textLength="75.0737" x="421" y="213.9538">HTTPS :443</text></g><!--link EB to FE_C--><g class="link" data-entity-1="ent0004" data-entity-2="ent0012" data-link-type="dependency" data-source-line="62" id="lnk31"><path d="M539.34,144.4269 C526.72,164.5869 509.41,195.8669 502,225.8869 C495.9775,250.2944 492.6769,276.6056 491.1233,302.4055 C490.3465,315.3054 490.0064,328.0775 489.9813,340.4198 C489.9687,346.5909 490.0349,352.6547 490.1645,358.5732 C490.197,360.0529 490.2333,361.5234 490.2735,362.9843 C490.2935,363.7148 490.3145,364.4428 490.3364,365.1684 C490.3473,365.5311 490.1695,359.8963 490.1809,360.2578" fill="none" id="EB-to-FE_C" style="stroke:#181818;stroke-width:1;"/><polygon fill="#181818" points="490.3699,366.2548,494.0844,357.1333,490.2124,361.2573,486.0884,357.3853,490.3699,366.2548" style="stroke:#181818;stroke-width:1;"/><text fill="#000000" font-family="sans-serif" font-size="13" lengthAdjust="spacing" textLength="75.0737" x="511" y="213.9538">HTTPS :443</text></g><!--link FE_C to BE_C--><g class="link" data-entity-1="ent0012" data-entity-2="ent0014" data-link-type="dependency" data-source-line="65" id="lnk32"><path d="M498,508.6806 C498,510.003 498,511.3404 498,512.6914 C498,515.3935 498,518.15 498,520.9501 C498,532.1505 498,544.0484 498,555.9456 C498,558.9199 498,561.8942 498,564.8575 C498,566.3391 498,567.818 498,569.2928 C498,570.0303 498,570.7666 498,571.5018 C498,571.8694 498,572.2367 498,572.6037 C498,572.7872 498,566.9706 498,567.1539" fill="none" id="FE_C-to-BE_C" style="stroke:#181818;stroke-width:1;"/><polygon fill="#181818" points="498,573.1539,502,564.1539,498,568.1539,494,564.1539,498,573.1539" style="stroke:#181818;stroke-width:1;"/><text fill="#000000" font-family="sans-serif" font-size="13" lengthAdjust="spacing" textLength="112.6646" x="499" y="545.5538">REST HTTP :8080</text></g><!--link BE_C to RS_C--><g class="link" data-entity-1="ent0014" data-entity-2="ent0016" data-link-type="dependency" data-source-line="68" id="lnk33"><path d="M491,698.8788 C490.9571,698.9736 490.9139,699.0683 490.8705,699.1628 C488.0906,705.2138 484.2625,710.7369 479,714.7769 C465.5,725.1469 337.72,710.4369 326,722.7769 C320.8,728.2569 321.76,733.5269 326,739.7769 C331.37,747.7069 339.91,740.3969 346,747.7769 C349.7113,752.2794 352.812,757.2606 355.3964,762.5346 C355.5579,762.8643 353.1448,757.7746 353.3023,758.1064" fill="none" id="BE_C-to-RS_C" style="stroke:#181818;stroke-width:1;"/><polygon fill="#181818" points="355.8749,763.5269,355.6296,753.6811,353.731,759.0098,348.4023,757.1113,355.8749,763.5269" style="stroke:#181818;stroke-width:1;"/><text fill="#000000" font-family="sans-serif" font-size="13" lengthAdjust="spacing" textLength="161.8652" x="327" y="735.8438">HTTP :8000 /recommend</text></g><!--link BE_C to NS_C--><g class="link" data-entity-1="ent0014" data-entity-2="ent0018" data-link-type="dependency" data-source-line="69" id="lnk34"><path d="M506.1991,655.7443 C506.5513,655.7319 506.9141,655.7197 507.2873,655.7075 C508.0337,655.6832 508.8219,655.6593 509.6505,655.6364 C516.2798,655.453 525.5022,655.3311 536.6994,655.5241 C559.0938,655.91 589.3875,657.5556 622.635,662.4894 C689.13,672.3569 767.44,695.3769 818,747.7769 C822.1,752.0269 825.5847,756.8177 828.5434,761.9518 C828.7283,762.2727 828.9112,762.5949 829.092,762.9184 C829.1825,763.0802 826.3788,757.9861 826.4682,758.1485" fill="none" id="BE_C-to-NS_C" style="stroke:#181818;stroke-width:1;"/><polygon fill="#181818" points="829.3618,763.4047,828.5255,753.5914,826.9504,759.0245,821.5173,757.4495,829.3618,763.4047" style="stroke:#181818;stroke-width:1;"/><text fill="#000000" font-family="sans-serif" font-size="13" lengthAdjust="spacing" textLength="123.0239" x="806" y="735.8438">HTTP :8081 events</text></g><!--link BE_C to PG_C--><g class="link" data-entity-1="ent0014" data-entity-2="ent0020" data-link-type="dependency" data-source-line="70" id="lnk35"><path d="M491.0127,698.8917 C490.9698,698.9865 490.9266,699.0811 490.8831,699.1756 C488.1019,705.225 484.27,710.7444 479,714.7769 C464.51,725.8669 333.17,721.1069 315,722.7769 C273.91,726.5669 158.14,716.6969 131,747.7769 C80.25,805.8869 82.38,861.4669 131,921.3769 C165.06,963.3369 196.39,939.5169 250,946.3769 C268.65,948.7569 404.83,942.0169 419,954.3769 C423.5188,958.3181 427.2283,962.9216 430.2593,967.9646 C430.6382,968.5949 431.0065,969.2322 431.3644,969.8758 C431.4539,970.0368 428.67,964.9305 428.7582,965.0922" fill="none" id="BE_C-to-PG_C" style="stroke:#181818;stroke-width:1;"/><polygon fill="#181818" points="431.6309,970.3598,430.8335,960.5433,429.237,965.9701,423.8101,964.3736,431.6309,970.3598" style="stroke:#181818;stroke-width:1;"/><text fill="#000000" font-family="sans-serif" font-size="13" lengthAdjust="spacing" textLength="73.436" x="132" y="858.1438">JDBC :5432</text></g><!--link BE_C to RD_C--><g class="link" data-entity-1="ent0014" data-entity-2="ent0023" data-link-type="dependency" data-source-line="71" id="lnk36"><path d="M495.5628,698.8647 C495.5425,699.2609 495.5222,699.6592 495.5019,700.0595 C494.1994,725.6816 492.7225,759.695 491.9575,794.2906 C490.4275,863.4819 491.745,935.0019 503,946.3769 C525.6,969.2069 767.68,933.3869 792,954.3769 C796.5313,958.2869 800.235,962.8667 803.2463,967.8924 C803.6227,968.5206 803.9883,969.1557 804.3433,969.7974 C804.4321,969.9579 801.6597,964.8444 801.7472,965.0057" fill="none" id="BE_C-to-RD_C" style="stroke:#181818;stroke-width:1;"/><polygon fill="#181818" points="804.6076,970.2799,803.8331,960.4616,802.2239,965.8847,796.8008,964.2755,804.6076,970.2799" style="stroke:#181818;stroke-width:1;"/><text fill="#000000" font-family="sans-serif" font-size="13" lengthAdjust="spacing" textLength="134.71" x="497" y="858.1438">Redis protocol :6379</text></g><!--link RS_C to PG_C--><g class="link" data-entity-1="ent0016" data-entity-2="ent0020" data-link-type="dependency" data-source-line="74" id="lnk37"><path d="M357.9268,905.5706 C357.8761,905.6768 357.8251,905.7827 357.7738,905.8885 C357.3633,906.7347 356.9335,907.5703 356.4834,908.3931 C355.5831,910.0387 354.6018,911.6332 353.5322,913.16 C351.3931,916.2138 348.9013,918.9969 346,921.3769 C331.33,933.4069 273.77,915.3469 261,929.3769 C255.91,934.9569 255.79,940.8969 261,946.3769 C273.11,959.1169 405.77,942.7969 419,954.3769 C423.5113,958.3256 427.2152,962.9347 430.2421,967.9818 C430.6205,968.6127 428.0768,964.0041 428.4343,964.6482" fill="none" id="RS_C-to-PG_C" style="stroke:#181818;stroke-width:1;"/><polygon fill="#181818" points="431.3457,969.8945,430.4761,960.0841,428.9195,965.5226,423.481,963.9661,431.3457,969.8945" style="stroke:#181818;stroke-width:1;"/><text fill="#000000" font-family="sans-serif" font-size="13" lengthAdjust="spacing" textLength="98.2363" x="262" y="942.4438">read vacancies</text></g><!--link RS_C to RD_C--><g class="link" data-entity-1="ent0016" data-entity-2="ent0023" data-link-type="dependency" data-source-line="75" id="lnk38"><path d="M374.0094,905.5816 C374.0608,905.7395 374.1125,905.8975 374.1645,906.0554 C374.2686,906.3712 374.374,906.687 374.4808,907.0028 C376.1888,912.0542 378.2405,917.0816 380.7052,921.8836 C385.6344,931.4875 392.215,940.1894 401,946.3769 C418.76,958.8769 775.5,940.2369 792,954.3769 C796.5463,958.2706 800.2614,962.8381 803.2812,967.8546 C803.6586,968.4817 804.0252,969.1158 804.3812,969.7564 C804.4702,969.9166 801.6887,964.808 801.7763,964.969" fill="none" id="RS_C-to-RD_C" style="stroke:#181818;stroke-width:1;"/><polygon fill="#181818" points="804.6462,970.2381,803.8541,960.4212,802.2547,965.8472,796.8286,964.2477,804.6462,970.2381" style="stroke:#181818;stroke-width:1;"/><text fill="#000000" font-family="sans-serif" font-size="13" lengthAdjust="spacing" textLength="86.4678" x="402" y="942.4438">cache results</text></g><!--link NS_C to SMTP_EXT--><g class="link" data-entity-1="ent0018" data-entity-2="ent0028" data-link-type="dependency" data-source-line="78" id="lnk39"><path d="M859.1733,870.4071 C859.3356,870.5764 859.4989,870.7468 859.6634,870.9183 C859.9923,871.2614 860.3256,871.6091 860.6632,871.9613 C862.0135,873.3699 863.4328,874.8505 864.9161,876.3978 C876.7822,888.7763 892.7419,905.4256 910.2538,923.6944 C945.2775,960.2319 982.3579,998.9156 1009.4679,1027.1956" fill="none" id="NS_C-to-SMTP_EXT" style="stroke:#181818;stroke-width:1;"/><polygon fill="#181818" points="1013.62,1031.5269,1010.2794,1022.2619,1010.1599,1027.9175,1004.5043,1027.798,1013.62,1031.5269" style="stroke:#181818;stroke-width:1;"/><text fill="#000000" font-family="sans-serif" font-size="13" lengthAdjust="spacing" textLength="68.5737" x="932" y="942.4438">SMTP :465</text></g><!--link NS_C to MSG_EXT--><g class="link" data-entity-1="ent0018" data-entity-2="ent0029" data-link-type="dependency" data-source-line="79" id="lnk40"><path d="M859.5617,857.0596 C859.7721,857.096 859.9844,857.1328 860.1987,857.17 C861.0558,857.3188 861.9433,857.4745 862.8605,857.6372 C866.5291,858.2877 870.6717,859.0493 875.2331,859.9289 C893.4788,863.4472 918.425,868.8525 946.54,876.5831 C1002.77,892.0444 1071.675,916.8069 1125,954.3769 C1157.59,977.3269 1181.5451,1010.392 1196.7151,1034.612" fill="none" id="NS_C-to-MSG_EXT" style="stroke:#181818;stroke-width:1;"/><polygon fill="#181818" points="1199.9,1039.6969,1198.5126,1029.9462,1197.2459,1035.4594,1191.7327,1034.1928,1199.9,1039.6969" style="stroke:#181818;stroke-width:1;"/><text fill="#000000" font-family="sans-serif" font-size="13" lengthAdjust="spacing" textLength="111.2109" x="1112" y="942.4438">HTTPS webhooks</text></g><!--link NS_C to PG_C--><g class="link" data-entity-1="ent0018" data-entity-2="ent0020" data-link-type="dependency" data-source-line="80" id="lnk41"><path d="M831.3778,905.3924 C831.2592,905.6046 831.1395,905.8161 831.0187,906.0269 C830.5354,906.8701 830.0342,907.7022 829.5143,908.5211 C828.4746,910.1588 827.3603,911.7435 826.1661,913.2585 C823.7778,916.2884 821.07,919.0394 818,921.3769 C703.18,1008.7869 614.36,873.2769 495,954.3769 C473.02,969.3069 459.11,995.6519 450.6513,1018.5594 C449.5939,1021.4228 448.6217,1024.2325 447.7296,1026.9595 C447.5066,1027.6413 449.1048,1022.5994 448.8917,1023.2703" fill="none" id="NS_C-to-PG_C" style="stroke:#181818;stroke-width:1;"/><polygon fill="#181818" points="447.0755,1028.9888,453.6122,1021.6219,448.589,1024.2234,445.9875,1019.2003,447.0755,1028.9888" style="stroke:#181818;stroke-width:1;"/><text fill="#000000" font-family="sans-serif" font-size="13" lengthAdjust="spacing" textLength="82.2466" x="805" y="942.4438">outbox table</text></g><!--link BE_C to SSO_EXT--><g class="link" data-entity-1="ent0014" data-entity-2="ent0027" data-link-type="dependency" data-source-line="83" id="lnk42"><path d="M506.0108,656.125 C506.2038,656.126 506.4001,656.127 506.5998,656.1282 C506.999,656.1304 507.4114,656.133 507.8369,656.136 C508.6878,656.1418 509.5909,656.1492 510.545,656.1582 C518.1775,656.2305 529.0713,656.4122 542.6075,656.8463 C569.68,657.7144 607.3225,659.5919 650.585,663.6219 C737.11,671.6819 846.115,688.3519 938,722.7769 C1117.56,790.0569 1152.93,833.7669 1302,954.3769 C1331.18,977.9769 1356.8037,1004.3984 1377.3037,1027.0484" fill="none" id="BE_C-to-SSO_EXT" style="stroke:#181818;stroke-width:1;"/><polygon fill="#181818" points="1381.33,1031.4969,1378.2563,1022.1399,1377.9748,1027.7898,1372.3249,1027.5083,1381.33,1031.4969" style="stroke:#181818;stroke-width:1;"/><text fill="#000000" font-family="sans-serif" font-size="13" lengthAdjust="spacing" textLength="95.1006" x="1261" y="858.1438">OAuth2/HTTPS</text></g><!--link CICD to PROD--><g class="link" data-entity-1="ent0005" data-entity-2="ent0010" data-link-type="dependency" data-source-line="86" id="lnk43"><path d="M1072.6745,177.2003 C1072.57,177.4218 1072.4641,177.6426 1072.3569,177.8627 C1072.1426,178.3027 1071.9229,178.7397 1071.6977,179.1734 C1070.7968,180.9082 1069.8081,182.59 1068.7235,184.2014 C1066.5542,187.4242 1064.0013,190.3656 1061,192.8869 C1045.97,205.5169 987.58,187.7369 973,200.8869 C962.455,210.3969 953.748,221.4244 946.5863,233.4519 C943.0054,239.4657 939.8109,245.7295 936.9661,252.1786 C935.5437,255.4032 934.2087,258.6741 932.9566,261.9832 C932.3306,263.6378 933.7066,259.6385 933.1214,261.3112" fill="none" id="CICD-to-PROD" style="stroke:#181818;stroke-width:1;"/><polygon fill="#181818" points="931.1401,266.9746,937.8877,259.8004,932.7912,262.2551,930.3365,257.1586,931.1401,266.9746" style="stroke:#181818;stroke-width:1;"/><text fill="#000000" font-family="sans-serif" font-size="13" lengthAdjust="spacing" textLength="155.5493" x="974" y="213.9538">docker-compose deploy</text></g><!--link CICD to GHP--><g class="link" data-entity-1="ent0005" data-entity-2="ent0008" data-link-type="dependency" data-source-line="87" id="lnk44"><path d="M1088.0397,131.1935 C1088.1154,131.2776 1088.1915,131.3622 1088.2681,131.4473 C1088.4212,131.6177 1088.576,131.7902 1088.7325,131.9649 C1089.0455,132.3143 1089.3653,132.6725 1089.6914,133.0392 C1094.9097,138.9072 1101.7706,146.9713 1109.0888,156.5181 C1123.725,175.6119 1140.19,200.6369 1149,225.8869 C1165.615,273.5119 1170.4775,329.9244 1171.1313,374.9369 C1171.1517,376.3435 1171.168,377.739 1171.1804,379.1228 C1171.1867,379.8147 1171.1542,374.5037 1171.1585,375.1897" fill="none" id="CICD-to-GHP" style="stroke:#181818;stroke-width:1;"/><polygon fill="#181818" points="1171.1962,381.1895,1175.1396,372.1646,1171.1648,376.1896,1167.1398,372.2148,1171.1962,381.1895" style="stroke:#181818;stroke-width:1;"/><text fill="#000000" font-family="sans-serif" font-size="13" lengthAdjust="spacing" textLength="108.3164" x="1146" y="213.9538">gh-pages deploy</text></g><?plantuml-src VLRDRjj64BxpAGOwf0aAnPP_4fS838YYR2kr9LQKYnu462joBMr5xHBBbMotCE3aLC2zjEYzVOGYW543QVCCv2lqIJgxf4J9KkgBGSptpVVDxCok55CH1PV6aRYPKAx0PMGeoGJ-lViDqZ_IFzE_qW_PBzbTzZwxJp_Wzp_fO_e0sRlqCNkNlKyVqh-pUtZkYc1C9Mp1CLCdqm7K0yK4JrvOLZ9cF2Ow9HSXTOGCgUoDM33cD4cWzdB_2U98SEMp7oZKTfSYWPZ4WgF1zGGxbgLvK4b_Jp-b7xEVqV8dRTMu-vW-Lk172o37-6eQwZ8TAQuIAYj04l2THRWvqOt0GfRZJSUwdMkibWUDrbR3DQ16g-4QdOLJg3XJ5eNm37eqKNtkiPX6Z5C3zrfUSnLSTD1m-lmPUDDaPA1kf_5ritlXdBTEtJKZ7XdInC2EJpoZJwHYboHGkbQYM0174ZjAEIPztgKwCD0IBmpfg7dXz-gzLgDCx4aHJarvu5Cven9vXRU6TflGdEfrExhWHUl27CEfkX9oR0E9uof-L7BC77LPcB4FjYlmvas0NmHx8WyF2piDKuJ-AmlXGyQl-_nBcFldOKJd_ftpjdlQD9pRPQK1GJz6QAEKiragYINZm-f025N52bv-J_8PGFZRUdTTHL8yGboSaEYEeTZs9h6klr7iaYIAn4ot2fiydR50I9vt5nbrprlNumB9B9Yh7TGsgBKtgorJ-no76_NoBhO_8uQ7hOQI9lR-tkxE1Y7lU4a8Eq069D4JbDFyRqwXjj_dCn8G7jnSX8DAGNATDNCp4Kqdr8PugFFCWTzsJZUrF6I9_MhtzLUREkrkjDJL77YDNGv8C2ec6B7_uyJ8BCmWTiNCRRamwQzu9pvaFvKtuqDsX_UFlX_lAq_l1D_lwBFc33ShOUe6ElMf6ktaZZ1uqVokzuHnrlFALQGJmg82ZO5r-1dUYfGFSHNhNilWplnZ0qF7Ny0v7ZmeIIvn52pVWMhrC5yx6qvwFSy7Uszlrsf-Be0PvlS9A05ElcIM0Mg6apEwJRzdQ63sJzCAA30aIquYovbpp7RO2_ZsDcmjrgf4jLTH1pMWComuAH5c76ruwphuJu_iaeIRsp9Z44kXH20YC4EalNLNjjWq6tV3CiQMCajAGiZ7cT6a31VPpMWXA9b6Q0lJjfSsRf6qFMVDZm-PveZjlLVxPRGuj4Nth-XW9CGuAH65AJ5L0t4DEEaHrQBDwxo_eEUgx40nMaZ81sxBfDK4yuPPvlqoQVMzRaD-dLU3_Cg7qFn2A57wjR5XEAh6-W4gmly1?></g></svg>