<svg xmlns="http://www.w3.org/2000/svg" xmlns:xlink="http://www.w3.org/1999/xlink" contentStyleType="text/css" data-diagram-type="DESCRIPTION" height="1169px" preserveAspectRatio="none" style="width:1374px;height:1169px;background:#FFFFFF;" version="1.1" viewBox="0 0 1374 1169" width="1374px" zoomAndPan="magnify"><?plantuml 1.2026.4beta2?><defs/><g><g class="title" data-source-line="1"><text fill="#000000" font-family="sans-serif" font-size="14" font-weight="700" lengthAdjust="spacing" textLength="508.5664" x="429.5621" y="22.9951">Use Case Diagram &#8212; &#1060;&#1091;&#1085;&#1082;&#1094;&#1080;&#1103; 2: &#1054;&#1090;&#1082;&#1083;&#1080;&#1082; &#1089;&#1090;&#1091;&#1076;&#1077;&#1085;&#1090;&#1072; &#1085;&#1072; &#1074;&#1072;&#1082;&#1072;&#1085;&#1089;&#1080;&#1102;</text></g><!--cluster ??????? 2 ? ?????? ???????? ?? ????????--><g class="cluster" data-qualified-name="....... 2 . ...... ........ .. ........" data-source-line="12" id="ent0006"><rect fill="none" height="968" rx="2.5" ry="2.5" style="stroke:#181818;stroke-width:1;" width="904.35" x="162.82" y="44.2969"/><text fill="#000000" font-family="sans-serif" font-size="14" font-weight="700" lengthAdjust="spacing" textLength="354.7715" x="437.6093" y="59.292">&#1060;&#1091;&#1085;&#1082;&#1094;&#1080;&#1103; 2 &#8212; &#1054;&#1090;&#1082;&#1083;&#1080;&#1082; &#1089;&#1090;&#1091;&#1076;&#1077;&#1085;&#1090;&#1072; &#1085;&#1072; &#1074;&#1072;&#1082;&#1072;&#1085;&#1089;&#1080;&#1102;</text></g><!--cluster ????? ? ??????????--><g class="cluster" data-qualified-name="....... 2 . ...... ........ .. .............. . .........." data-source-line="14" id="ent0007"><path d="M207.37,395.2969 L376.4384,395.2969 A3.75,3.75 0 0 1 378.9384,397.7969 L385.9384,417.5938 L487.51,417.5938 A2.5,2.5 0 0 1 490.01,420.0938 L490.01,690.7969 A2.5,2.5 0 0 1 487.51,693.2969 L207.37,693.2969 A2.5,2.5 0 0 1 204.87,690.7969 L204.87,397.7969 A2.5,2.5 0 0 1 207.37,395.2969" fill="none" style="stroke:#000000;stroke-width:1.5;"/><line style="stroke:#000000;stroke-width:1.5;" x1="204.87" x2="385.9384" y1="417.5938" y2="417.5938"/><text fill="#000000" font-family="sans-serif" font-size="14" font-weight="700" lengthAdjust="spacing" textLength="168.0684" x="208.87" y="410.292">&#1055;&#1086;&#1080;&#1089;&#1082; &#1080; &#1092;&#1080;&#1083;&#1100;&#1090;&#1088;&#1072;&#1094;&#1080;&#1103;</text></g><!--cluster ?????????? ????????--><g class="cluster" data-qualified-name="....... 2 . ...... ........ .. ................... ........" data-source-line="20" id="ent0011"><path d="M207.96,87.2969 L395.5606,87.2969 A3.75,3.75 0 0 1 398.0606,89.7969 L405.0606,109.5938 L486.92,109.5938 A2.5,2.5 0 0 1 489.42,112.0938 L489.42,368.7969 A2.5,2.5 0 0 1 486.92,371.2969 L207.96,371.2969 A2.5,2.5 0 0 1 205.46,368.7969 L205.46,89.7969 A2.5,2.5 0 0 1 207.96,87.2969" fill="none" style="stroke:#000000;stroke-width:1.5;"/><line style="stroke:#000000;stroke-width:1.5;" x1="205.46" x2="405.0606" y1="109.5938" y2="109.5938"/><text fill="#000000" font-family="sans-serif" font-size="14" font-weight="700" lengthAdjust="spacing" textLength="186.6006" x="209.46" y="102.292">&#1059;&#1087;&#1088;&#1072;&#1074;&#1083;&#1077;&#1085;&#1080;&#1077; &#1087;&#1088;&#1086;&#1092;&#1080;&#1083;&#1077;&#1084;</text></g><!--cluster ?????? ???????--><g class="cluster" data-qualified-name="....... 2 . ...... ........ .. ............... ......." data-source-line="26" id="ent0015"><path d="M710.61,444.2969 L843.8786,444.2969 A3.75,3.75 0 0 1 846.3786,446.7969 L853.3786,466.5938 L1026.63,466.5938 A2.5,2.5 0 0 1 1029.13,469.0938 L1029.13,749.7969 A2.5,2.5 0 0 1 1026.63,752.2969 L710.61,752.2969 A2.5,2.5 0 0 1 708.11,749.7969 L708.11,446.7969 A2.5,2.5 0 0 1 710.61,444.2969" fill="none" style="stroke:#000000;stroke-width:1.5;"/><line style="stroke:#000000;stroke-width:1.5;" x1="708.11" x2="853.3786" y1="466.5938" y2="466.5938"/><text fill="#000000" font-family="sans-serif" font-size="14" font-weight="700" lengthAdjust="spacing" textLength="132.2686" x="712.11" y="459.292">&#1055;&#1086;&#1076;&#1072;&#1095;&#1072; &#1086;&#1090;&#1082;&#1083;&#1080;&#1082;&#1072;</text></g><!--cluster ?????????? ?????????--><g class="cluster" data-qualified-name="....... 2 . ...... ........ .. ................... ........." data-source-line="32" id="ent0019"><path d="M189.32,717.2969 L380.2155,717.2969 A3.75,3.75 0 0 1 382.7155,719.7969 L389.7155,739.5938 L505.57,739.5938 A2.5,2.5 0 0 1 508.07,742.0938 L508.07,985.7969 A2.5,2.5 0 0 1 505.57,988.2969 L189.32,988.2969 A2.5,2.5 0 0 1 186.82,985.7969 L186.82,719.7969 A2.5,2.5 0 0 1 189.32,717.2969" fill="none" style="stroke:#000000;stroke-width:1.5;"/><line style="stroke:#000000;stroke-width:1.5;" x1="186.82" x2="389.7155" y1="739.5938" y2="739.5938"/><text fill="#000000" font-family="sans-serif" font-size="14" font-weight="700" lengthAdjust="spacing" textLength="189.8955" x="190.82" y="732.292">&#1059;&#1087;&#1088;&#1072;&#1074;&#1083;&#1077;&#1085;&#1080;&#1077; &#1086;&#1090;&#1082;&#1083;&#1080;&#1082;&#1072;&#1084;&#1080;</text></g><!--cluster ?????????????? ????????????--><g class="cluster" data-qualified-name="....... 2 . ...... ........ .. ....................... ............" data-source-line="38" id="ent0023"><path d="M696.57,776.2969 L950.9577,776.2969 A3.75,3.75 0 0 1 953.4577,778.7969 L960.4577,798.5938 L1040.67,798.5938 A2.5,2.5 0 0 1 1043.17,801.0938 L1043.17,985.7969 A2.5,2.5 0 0 1 1040.67,988.2969 L696.57,988.2969 A2.5,2.5 0 0 1 694.07,985.7969 L694.07,778.7969 A2.5,2.5 0 0 1 696.57,776.2969" fill="none" style="stroke:#000000;stroke-width:1.5;"/><line style="stroke:#000000;stroke-width:1.5;" x1="694.07" x2="960.4577" y1="798.5938" y2="798.5938"/><text fill="#000000" font-family="sans-serif" font-size="14" font-weight="700" lengthAdjust="spacing" textLength="253.3877" x="698.07" y="791.292">&#1042;&#1079;&#1072;&#1080;&#1084;&#1086;&#1076;&#1077;&#1081;&#1089;&#1090;&#1074;&#1080;&#1077; &#1088;&#1072;&#1073;&#1086;&#1090;&#1086;&#1076;&#1072;&#1090;&#1077;&#1083;&#1103;</text></g><!--entity UC1--><g class="entity" data-qualified-name="....... 2 . ...... ........ .. .............. . ...........UC1" data-source-line="15" id="ent0008"><ellipse cx="347.4385" cy="560.3006" fill="#F1F1F1" rx="126.5685" ry="27.7137" style="stroke:#181818;stroke-width:1.5;"/><text fill="#000000" font-family="sans-serif" font-size="14" lengthAdjust="spacing" textLength="233.3174" x="230.7798" y="564.949">&#1055;&#1088;&#1086;&#1089;&#1084;&#1086;&#1090;&#1088;&#1077;&#1090;&#1100; &#1082;&#1072;&#1090;&#1072;&#1083;&#1086;&#1075; &#1074;&#1072;&#1082;&#1072;&#1085;&#1089;&#1080;&#1081;</text></g><!--entity UC2--><g class="entity" data-qualified-name="....... 2 . ...... ........ .. .............. . ...........UC2" data-source-line="16" id="ent0009"><ellipse cx="347.4355" cy="455.294" fill="#F1F1F1" rx="115.2355" ry="25.4471" style="stroke:#181818;stroke-width:1.5;"/><text fill="#000000" font-family="sans-serif" font-size="14" lengthAdjust="spacing" textLength="209.1592" x="242.856" y="459.9424">&#1055;&#1088;&#1080;&#1084;&#1077;&#1085;&#1080;&#1090;&#1100; &#1092;&#1080;&#1083;&#1100;&#1090;&#1088;&#1099; &#1087;&#1086;&#1080;&#1089;&#1082;&#1072;</text></g><!--entity UC3--><g class="entity" data-qualified-name="....... 2 . ...... ........ .. .............. . ...........UC3" data-source-line="17" id="ent0010"><ellipse cx="347.4353" cy="650.2959" fill="#F1F1F1" rx="123.9453" ry="27.1891" style="stroke:#181818;stroke-width:1.5;"/><text fill="#000000" font-family="sans-serif" font-size="14" lengthAdjust="spacing" textLength="227.7529" x="233.5589" y="654.9444">&#1055;&#1088;&#1086;&#1089;&#1084;&#1086;&#1090;&#1088;&#1077;&#1090;&#1100; &#1076;&#1077;&#1090;&#1072;&#1083;&#1080; &#1074;&#1072;&#1082;&#1072;&#1085;&#1089;&#1080;&#1080;</text></g><!--entity UC4--><g class="entity" data-qualified-name="....... 2 . ...... ........ .. ................... .........UC4" data-source-line="21" id="ent0012"><ellipse cx="347.4384" cy="149.2986" fill="#F1F1F1" rx="120.7584" ry="26.5517" style="stroke:#181818;stroke-width:1.5;"/><text fill="#000000" font-family="sans-serif" font-size="14" lengthAdjust="spacing" textLength="220.9717" x="236.9526" y="153.947">&#1047;&#1072;&#1087;&#1086;&#1083;&#1085;&#1080;&#1090;&#1100; &#1087;&#1088;&#1086;&#1092;&#1080;&#1083;&#1100; &#1089;&#1090;&#1091;&#1076;&#1077;&#1085;&#1090;&#1072;</text></g><!--entity UC5--><g class="entity" data-qualified-name="....... 2 . ...... ........ .. ................... .........UC5" data-source-line="22" id="ent0013"><ellipse cx="347.4379" cy="246.2985" fill="#F1F1F1" rx="82.0079" ry="18.8016" style="stroke:#181818;stroke-width:1.5;"/><text fill="#000000" font-family="sans-serif" font-size="14" lengthAdjust="spacing" textLength="135.3857" x="279.745" y="250.9469">&#1047;&#1072;&#1075;&#1088;&#1091;&#1079;&#1080;&#1090;&#1100; &#1088;&#1077;&#1079;&#1102;&#1084;&#1077;</text></g><!--entity UC6--><g class="entity" data-qualified-name="....... 2 . ...... ........ .. ................... .........UC6" data-source-line="23" id="ent0014"><ellipse cx="347.4382" cy="327.2925" fill="#F1F1F1" rx="125.9782" ry="27.5956" style="stroke:#181818;stroke-width:1.5;"/><text fill="#000000" font-family="sans-serif" font-size="14" lengthAdjust="spacing" textLength="232.0664" x="231.405" y="331.9409">&#1059;&#1082;&#1072;&#1079;&#1072;&#1090;&#1100; &#1085;&#1072;&#1074;&#1099;&#1082;&#1080; &#1080; &#1085;&#1072;&#1087;&#1088;&#1072;&#1074;&#1083;&#1077;&#1085;&#1080;&#1077;</text></g><!--entity UC7--><g class="entity" data-qualified-name="....... 2 . ...... ........ .. ............... ........UC7" data-source-line="27" id="ent0016"><ellipse cx="868.6193" cy="708.2967" fill="#F1F1F1" rx="126.8493" ry="27.7699" style="stroke:#181818;stroke-width:1.5;"/><text fill="#000000" font-family="sans-serif" font-size="14" lengthAdjust="spacing" textLength="233.9121" x="751.6632" y="712.9452">&#1054;&#1090;&#1087;&#1088;&#1072;&#1074;&#1080;&#1090;&#1100; &#1086;&#1090;&#1082;&#1083;&#1080;&#1082; &#1085;&#1072; &#1074;&#1072;&#1082;&#1072;&#1085;&#1089;&#1080;&#1102;</text></g><!--entity UC8--><g class="entity" data-qualified-name="....... 2 . ...... ........ .. ............... ........UC8" data-source-line="28" id="ent0017"><ellipse cx="868.6176" cy="597.2984" fill="#F1F1F1" rx="144.5076" ry="31.3015" style="stroke:#181818;stroke-width:1.5;"/><text fill="#000000" font-family="sans-serif" font-size="14" lengthAdjust="spacing" textLength="271.0313" x="733.102" y="601.9468">&#1053;&#1072;&#1087;&#1080;&#1089;&#1072;&#1090;&#1100; &#1089;&#1086;&#1087;&#1088;&#1086;&#1074;&#1086;&#1076;&#1080;&#1090;&#1077;&#1083;&#1100;&#1085;&#1086;&#1077; &#1087;&#1080;&#1089;&#1100;&#1084;&#1086;</text></g><!--entity UC9--><g class="entity" data-qualified-name="....... 2 . ...... ........ .. ............... ........UC9" data-source-line="29" id="ent0018"><ellipse cx="868.618" cy="505.2985" fill="#F1F1F1" rx="117.858" ry="25.9716" style="stroke:#181818;stroke-width:1.5;"/><text fill="#000000" font-family="sans-serif" font-size="14" lengthAdjust="spacing" textLength="214.7783" x="761.2288" y="509.9469">&#1055;&#1088;&#1086;&#1074;&#1077;&#1088;&#1080;&#1090;&#1100; &#1086;&#1090;&#1089;&#1091;&#1090;&#1089;&#1090;&#1074;&#1080;&#1077; &#1076;&#1091;&#1073;&#1083;&#1103;</text></g><!--entity UC10--><g class="entity" data-qualified-name="....... 2 . ...... ........ .. ................... ..........UC10" data-source-line="33" id="ent0020"><ellipse cx="347.4355" cy="783.292" fill="#F1F1F1" rx="144.6255" ry="31.3251" style="stroke:#181818;stroke-width:1.5;"/><text fill="#000000" font-family="sans-serif" font-size="14" lengthAdjust="spacing" textLength="271.2773" x="211.7968" y="787.9404">&#1055;&#1088;&#1086;&#1089;&#1084;&#1086;&#1090;&#1088;&#1077;&#1090;&#1100; &#1089;&#1087;&#1080;&#1089;&#1086;&#1082; &#1089;&#1074;&#1086;&#1080;&#1093; &#1086;&#1090;&#1082;&#1083;&#1080;&#1082;&#1086;&#1074;</text></g><!--entity UC11--><g class="entity" data-qualified-name="....... 2 . ...... ........ .. ................... ..........UC11" data-source-line="34" id="ent0021"><ellipse cx="347.4387" cy="867.3006" fill="#F1F1F1" rx="77.4187" ry="17.8837" style="stroke:#181818;stroke-width:1.5;"/><text fill="#000000" font-family="sans-serif" font-size="14" lengthAdjust="spacing" textLength="124.5508" x="285.1634" y="871.9491">&#1054;&#1090;&#1086;&#1079;&#1074;&#1072;&#1090;&#1100; &#1086;&#1090;&#1082;&#1083;&#1080;&#1082;</text></g><!--entity UC12--><g class="entity" data-qualified-name="....... 2 . ...... ........ .. ................... ..........UC12" data-source-line="35" id="ent0022"><ellipse cx="347.4385" cy="946.2966" fill="#F1F1F1" rx="118.9485" ry="26.1897" style="stroke:#181818;stroke-width:1.5;"/><text fill="#000000" font-family="sans-serif" font-size="14" lengthAdjust="spacing" textLength="217.1094" x="238.8838" y="950.945">&#1054;&#1090;&#1089;&#1083;&#1077;&#1078;&#1080;&#1074;&#1072;&#1090;&#1100; &#1089;&#1090;&#1072;&#1090;&#1091;&#1089; &#1086;&#1090;&#1082;&#1083;&#1080;&#1082;&#1072;</text></g><!--entity UC13--><g class="entity" data-qualified-name="....... 2 . ...... ........ .. ....................... .............UC13" data-source-line="39" id="ent0024"><ellipse cx="868.621" cy="845.2971" fill="#F1F1F1" rx="158.551" ry="34.1102" style="stroke:#181818;stroke-width:1.5;"/><text fill="#000000" font-family="sans-serif" font-size="14" lengthAdjust="spacing" textLength="300.2412" x="718.5004" y="849.9455">&#1055;&#1086;&#1083;&#1091;&#1095;&#1080;&#1090;&#1100; &#1091;&#1074;&#1077;&#1076;&#1086;&#1084;&#1083;&#1077;&#1085;&#1080;&#1077; &#1086; &#1085;&#1086;&#1074;&#1086;&#1084; &#1086;&#1090;&#1082;&#1083;&#1080;&#1082;&#1077;</text></g><!--entity UC14--><g class="entity" data-qualified-name="....... 2 . ...... ........ .. ....................... .............UC14" data-source-line="40" id="ent0025"><ellipse cx="868.6168" cy="943.2982" fill="#F1F1F1" rx="134.7568" ry="29.3514" style="stroke:#181818;stroke-width:1.5;"/><text fill="#000000" font-family="sans-serif" font-size="14" lengthAdjust="spacing" textLength="250.5986" x="743.3174" y="947.9467">&#1055;&#1088;&#1086;&#1089;&#1084;&#1086;&#1090;&#1088;&#1077;&#1090;&#1100; &#1087;&#1088;&#1086;&#1092;&#1080;&#1083;&#1100; &#1082;&#1072;&#1085;&#1076;&#1080;&#1076;&#1072;&#1090;&#1072;</text></g><!--entity S--><g class="entity" data-qualified-name="S" data-source-line="7" id="ent0002"><ellipse cx="36.9087" cy="596.1469" fill="#F1F1F1" rx="16" ry="16" style="stroke:#181818;stroke-width:0.5;"/><path d="M36.9087,616.1469 C40.9087,616.1469 43.9087,616.1469 47.9087,612.1469 C55.9087,612.1469 63.9087,620.1469 63.9087,628.1469 L63.9087,632.1469 C63.9087,636.1469 59.9087,640.1469 55.9087,640.1469 L17.9087,640.1469 C13.9087,640.1469 9.9087,636.1469 9.9087,632.1469 L9.9087,628.1469 C9.9087,620.1469 17.9087,612.1469 25.9087,612.1469 C29.9087,616.1469 32.9087,616.1469 36.9087,616.1469" fill="#F1F1F1" style="stroke:#181818;stroke-width:0.5;"/><text fill="#000000" font-family="sans-serif" font-size="14" lengthAdjust="spacing" textLength="61.8174" x="6" y="653.642">&#1057;&#1090;&#1091;&#1076;&#1077;&#1085;&#1090;</text></g><!--entity E--><g class="entity" data-qualified-name="E" data-source-line="8" id="ent0003"><ellipse cx="347.444" cy="1095.1469" fill="#F1F1F1" rx="16" ry="16" style="stroke:#181818;stroke-width:0.5;"/><path d="M347.444,1115.1469 C351.444,1115.1469 354.444,1115.1469 358.444,1111.1469 C366.444,1111.1469 374.444,1119.1469 374.444,1127.1469 L374.444,1131.1469 C374.444,1135.1469 370.444,1139.1469 366.444,1139.1469 L328.444,1139.1469 C324.444,1139.1469 320.444,1135.1469 320.444,1131.1469 L320.444,1127.1469 C320.444,1119.1469 328.444,1111.1469 336.444,1111.1469 C340.444,1115.1469 343.444,1115.1469 347.444,1115.1469" fill="#F1F1F1" style="stroke:#181818;stroke-width:0.5;"/><text fill="#000000" font-family="sans-serif" font-size="14" lengthAdjust="spacing" textLength="103.168" x="295.86" y="1152.642">&#1056;&#1072;&#1073;&#1086;&#1090;&#1086;&#1076;&#1072;&#1090;&#1077;&#1083;&#1100;</text></g><!--entity SSO--><g class="entity" data-qualified-name="SSO" data-source-line="9" id="ent0004"><ellipse cx="1291.4281" cy="694.2938" fill="#F1F1F1" rx="16" ry="16" style="stroke:#181818;stroke-width:0.5;"/><path d="M1291.4281,714.2938 C1295.4281,714.2938 1298.4281,714.2938 1302.4281,710.2938 C1310.4281,710.2938 1318.4281,718.2938 1318.4281,726.2938 L1318.4281,730.2938 C1318.4281,734.2938 1314.4281,738.2938 1310.4281,738.2938 L1272.4281,738.2938 C1268.4281,738.2938 1264.4281,734.2938 1264.4281,730.2938 L1264.4281,726.2938 C1264.4281,718.2938 1272.4281,710.2938 1280.4281,710.2938 C1284.4281,714.2938 1287.4281,714.2938 1291.4281,714.2938" fill="#F1F1F1" style="stroke:#181818;stroke-width:0.5;"/><text fill="#000000" font-family="sans-serif" font-size="14" lengthAdjust="spacing" textLength="136.0762" x="1223.39" y="751.7889">SSO &#1059;&#1085;&#1080;&#1074;&#1077;&#1088;&#1089;&#1080;&#1090;&#1077;&#1090;&#1072;</text><text fill="#000000" font-family="sans-serif" font-size="14" font-style="italic" lengthAdjust="spacing" textLength="75.2295" x="1253.8133" y="674.492">&#171;external&#187;</text></g><!--entity NS--><g class="entity" data-qualified-name="NS" data-source-line="10" id="ent0005"><ellipse cx="1291.4303" cy="831.2938" fill="#F1F1F1" rx="16" ry="16" style="stroke:#181818;stroke-width:0.5;"/><path d="M1291.4303,851.2938 C1295.4303,851.2938 1298.4303,851.2938 1302.4303,847.2938 C1310.4303,847.2938 1318.4303,855.2938 1318.4303,863.2938 L1318.4303,867.2938 C1318.4303,871.2938 1314.4303,875.2938 1310.4303,875.2938 L1272.4303,875.2938 C1268.4303,875.2938 1264.4303,871.2938 1264.4303,867.2938 L1264.4303,863.2938 C1264.4303,855.2938 1272.4303,847.2938 1280.4303,847.2938 C1284.4303,851.2938 1287.4303,851.2938 1291.4303,851.2938" fill="#F1F1F1" style="stroke:#181818;stroke-width:0.5;"/><text fill="#000000" font-family="sans-serif" font-size="14" lengthAdjust="spacing" textLength="136.5205" x="1223.17" y="888.7889">Notification Service</text><text fill="#000000" font-family="sans-serif" font-size="14" font-style="italic" lengthAdjust="spacing" textLength="75.2295" x="1253.8155" y="811.492">&#171;external&#187;</text></g><!--link S to UC1--><g class="link" data-entity-1="ent0002" data-entity-2="ent0008" data-link-type="dependency" data-source-line="44" id="lnk26"><path d="M68.22,608.9769 C77.64,606.2769 88.11,603.4669 97.82,601.2969 C144.03,590.9669 189.6911,582.9581 233.8411,576.0981" fill="none" id="S-to-UC1" style="stroke:#181818;stroke-width:1;"/><polygon fill="#181818" points="239.77,575.1769,230.2626,572.6061,234.8293,575.9446,231.4909,580.5113,239.77,575.1769" style="stroke:#181818;stroke-width:1;"/></g><!--link S to UC2--><g class="link" data-entity-1="ent0002" data-entity-2="ent0009" data-link-type="dependency" data-source-line="45" id="lnk27"><path d="M68.32,584.9769 C90.4,562.5269 122.05,533.7469 154.82,515.2969 C188.38,496.3969 222.8816,484.2164 257.8416,474.6764" fill="none" id="S-to-UC2" style="stroke:#181818;stroke-width:1;"/><polygon fill="#181818" points="263.63,473.0969,253.8944,471.6073,258.8064,474.4132,256.0005,479.3251,263.63,473.0969" style="stroke:#181818;stroke-width:1;"/></g><!--link S to UC3--><g class="link" data-entity-1="ent0002" data-entity-2="ent0010" data-link-type="dependency" data-source-line="46" id="lnk28"><path d="M68.05,621.4269 C106.49,625.4069 169.142,631.9079 228.632,638.0779" fill="none" id="S-to-UC3" style="stroke:#181818;stroke-width:1;"/><polygon fill="#181818" points="234.6,638.6969,226.0607,633.7898,229.6267,638.1811,225.2354,641.7471,234.6,638.6969" style="stroke:#181818;stroke-width:1;"/></g><!--link S to UC4--><g class="link" data-entity-1="ent0002" data-entity-2="ent0012" data-link-type="dependency" data-source-line="47" id="lnk29"><path d="M39.19,579.3469 C42.79,492.4969 55.66,286.4169 97.82,233.2969 C131.03,191.4569 180.1019,171.5683 229.9019,160.9483" fill="none" id="S-to-UC4" style="stroke:#181818;stroke-width:1;"/><polygon fill="#181818" points="235.77,159.6969,226.1337,157.6619,230.88,160.7397,227.8022,165.486,235.77,159.6969" style="stroke:#181818;stroke-width:1;"/></g><!--link S to UC5--><g class="link" data-entity-1="ent0002" data-entity-2="ent0013" data-link-type="dependency" data-source-line="48" id="lnk30"><path d="M38.95,579.4169 C42,497.9569 53.73,313.5169 97.82,272.2969 C147.11,226.2069 222.3108,225.7376 278.4208,233.0876" fill="none" id="S-to-UC5" style="stroke:#181818;stroke-width:1;"/><polygon fill="#181818" points="284.37,233.8669,275.9658,228.7318,279.4124,233.2175,274.9267,236.664,284.37,233.8669" style="stroke:#181818;stroke-width:1;"/></g><!--link S to UC6--><g class="link" data-entity-1="ent0002" data-entity-2="ent0014" data-link-type="dependency" data-source-line="49" id="lnk31"><path d="M51.7,579.2969 C69.36,534.2869 103.9,460.5369 154.82,414.2969 C187.68,384.4569 226.8768,365.4127 264.9168,351.4627" fill="none" id="S-to-UC6" style="stroke:#181818;stroke-width:1;"/><polygon fill="#181818" points="270.55,349.3969,260.7231,348.7401,265.8557,351.1184,263.4774,356.251,270.55,349.3969" style="stroke:#181818;stroke-width:1;"/></g><!--link S to UC7--><g class="link" data-entity-1="ent0002" data-entity-2="ent0016" data-link-type="dependency" data-source-line="50" id="lnk32"><path d="M41.53,657.1769 C47.75,713.0069 63.28,818.2969 97.82,901.2969 C115.58,943.9769 114.15,966.3269 154.82,988.2969 C296.07,1064.6269 369.75,1054.4069 516.07,988.2969 C620.24,941.2369 594.92,864.2769 686.07,795.2969 C721.19,768.7269 760.1768,749.5332 796.3368,734.5532" fill="none" id="S-to-UC7" style="stroke:#181818;stroke-width:1;"/><polygon fill="#181818" points="801.88,732.2569,792.0343,732.006,797.2607,734.1705,795.0962,739.3969,801.88,732.2569" style="stroke:#181818;stroke-width:1;"/></g><!--link S to UC10--><g class="link" data-entity-1="ent0002" data-entity-2="ent0020" data-link-type="dependency" data-source-line="51" id="lnk33"><path d="M68.01,639.1569 C91.23,654.8769 124.42,676.5069 154.82,693.2969 C195.84,715.9569 238.0529,735.9272 275.5929,752.7172" fill="none" id="S-to-UC10" style="stroke:#181818;stroke-width:1;"/><polygon fill="#181818" points="281.07,755.1669,274.4874,747.8409,276.5057,753.1255,271.2212,755.1438,281.07,755.1669" style="stroke:#181818;stroke-width:1;"/></g><!--link S to UC11--><g class="link" data-entity-1="ent0002" data-entity-2="ent0021" data-link-type="dependency" data-source-line="52" id="lnk34"><path d="M47.96,657.2469 C62.75,706.2769 95.28,789.2769 154.82,832.2969 C187.85,856.1669 226.259,864.8399 263.999,867.8499" fill="none" id="S-to-UC11" style="stroke:#181818;stroke-width:1;"/><polygon fill="#181818" points="269.98,868.3269,261.3265,863.624,264.9958,867.9294,260.6905,871.5987,269.98,868.3269" style="stroke:#181818;stroke-width:1;"/></g><!--link S to UC12--><g class="link" data-entity-1="ent0002" data-entity-2="ent0022" data-link-type="dependency" data-source-line="53" id="lnk35"><path d="M40.33,657.3369 C46.74,722.0269 70.04,849.5569 154.82,902.2969 C180.32,918.1669 205.0834,927.0227 234.2734,933.5227" fill="none" id="S-to-UC12" style="stroke:#181818;stroke-width:1;"/><polygon fill="#181818" points="240.13,934.8269,232.2146,928.9663,235.2495,933.7401,230.4757,936.775,240.13,934.8269" style="stroke:#181818;stroke-width:1;"/></g><!--link E to UC13--><g class="link" data-entity-1="ent0003" data-entity-2="ent0024" data-link-type="dependency" data-source-line="55" id="lnk36"><path d="M399.28,1109.7969 C487.19,1096.3169 660.03,1067.4569 678.07,1046.2969 C699.72,1020.8969 665.21,922.3569 686.07,896.2969 C698.04,881.3469 708.5312,872.9903 726.0612,865.2503" fill="none" id="E-to-UC13" style="stroke:#181818;stroke-width:1;"/><polygon fill="#181818" points="731.55,862.8269,721.7012,862.8029,726.976,864.8464,724.9325,870.1213,731.55,862.8269" style="stroke:#181818;stroke-width:1;"/></g><!--link E to UC14--><g class="link" data-entity-1="ent0003" data-entity-2="ent0025" data-link-type="dependency" data-source-line="56" id="lnk37"><path d="M399.3,1122.3669 C465.83,1127.0369 584.87,1128.5469 678.07,1092.2969 C745.17,1066.1969 803.5297,1012.2494 837.3197,976.8094" fill="none" id="E-to-UC14" style="stroke:#181818;stroke-width:1;"/><polygon fill="#181818" points="841.46,972.4669,832.3545,976.2204,838.0097,976.0856,838.1445,981.7409,841.46,972.4669" style="stroke:#181818;stroke-width:1;"/></g><!--link UC7 to UC8--><g class="link" data-entity-1="ent0016" data-entity-2="ent0017" data-link-type="dependency" data-source-line="58" id="lnk38"><path d="M868.62,680.2869 C868.62,664.6169 868.62,651.0369 868.62,634.8269" fill="none" id="UC7-to-UC8" style="stroke:#181818;stroke-width:1;stroke-dasharray:7,7;"/><polygon fill="#181818" points="868.62,628.8269,864.62,637.8269,868.62,633.8269,872.62,637.8269,868.62,628.8269" style="stroke:#181818;stroke-width:1;"/><text fill="#000000" font-family="sans-serif" font-size="13" lengthAdjust="spacing" textLength="47.0996" x="833.62" y="659.1338">include</text></g><!--link UC7 to UC9--><g class="link" data-entity-1="ent0016" data-entity-2="ent0018" data-link-type="dependency" data-source-line="59" id="lnk39"><path d="M772.8,689.7969 C681.72,667.9069 565.7,626.0969 617.16,561.7969 C649.03,521.9769 696.4105,507.0113 745.7905,502.0113" fill="none" id="UC7-to-UC9" style="stroke:#181818;stroke-width:1;stroke-dasharray:7,7;"/><polygon fill="#181818" points="751.76,501.4069,742.4028,498.3339,746.7854,501.9106,743.2087,506.2932,751.76,501.4069" style="stroke:#181818;stroke-width:1;"/><text fill="#000000" font-family="sans-serif" font-size="13" lengthAdjust="spacing" textLength="47.0996" x="577.57" y="574.8638">include</text></g><!--link UC7 to UC13--><g class="link" data-entity-1="ent0016" data-entity-2="ent0024" data-link-type="dependency" data-source-line="60" id="lnk40"><path d="M884.34,736.2369 C886.1,740.4469 887.62,744.8269 888.62,749.1269 C893.54,770.3469 892.96,776.7869 888.62,798.1269 C887.75,802.3969 888.4491,801.0992 886.9691,805.3592" fill="none" id="UC7-to-UC13" style="stroke:#181818;stroke-width:1;stroke-dasharray:7,7;"/><polygon fill="#181818" points="885,811.0269,891.7321,803.838,886.6409,806.3038,884.1751,801.2126,885,811.0269" style="stroke:#181818;stroke-width:1;"/><text fill="#000000" font-family="sans-serif" font-size="13" lengthAdjust="spacing" textLength="47.0996" x="856.62" y="778.1938">include</text></g><!--link UC4 to UC5--><g class="link" data-entity-1="ent0012" data-entity-2="ent0013" data-link-type="dependency" data-source-line="61" id="lnk41"><path d="M347.44,176.1369 C347.44,192.3169 347.44,206.5569 347.44,221.1369" fill="none" id="UC4-to-UC5" style="stroke:#181818;stroke-width:1;stroke-dasharray:7,7;"/><polygon fill="#181818" points="347.44,227.1369,351.44,218.1369,347.44,222.1369,343.44,218.1369,347.44,227.1369" style="stroke:#181818;stroke-width:1;"/><text fill="#000000" font-family="sans-serif" font-size="13" lengthAdjust="spacing" textLength="47.0996" x="312.44" y="206.2438">include</text></g><!--link UC4 to UC6--><g class="link" data-entity-1="ent0012" data-entity-2="ent0014" data-link-type="dependency" data-source-line="62" id="lnk42"><path d="M241.31,162.3769 C209.64,171.2069 177.39,185.8969 154.82,210.2969 C114.62,253.7669 123.76,275.5169 139.34,293.7969 C160.81,319.0069 187.164,329.7736 219.954,334.2036" fill="none" id="UC4-to-UC6" style="stroke:#181818;stroke-width:1;stroke-dasharray:7,7;"/><polygon fill="#181818" points="225.9,335.0069,217.5166,329.8379,220.945,334.3374,216.4455,337.7659,225.9,335.0069" style="stroke:#181818;stroke-width:1;"/><text fill="#000000" font-family="sans-serif" font-size="13" lengthAdjust="spacing" textLength="47.0996" x="98.82" y="289.8638">include</text></g><!--link UC2 to UC1--><g class="link" data-entity-1="ent0009" data-entity-2="ent0008" data-link-type="dependency" data-source-line="63" id="lnk43"><path d="M347.44,480.9969 C347.44,496.4869 347.44,510.2469 347.44,526.1569" fill="none" id="UC2-to-UC1" style="stroke:#181818;stroke-width:1;stroke-dasharray:7,7;"/><polygon fill="#181818" points="347.44,532.1569,351.44,523.1569,347.44,527.1569,343.44,523.1569,347.44,532.1569" style="stroke:#181818;stroke-width:1;"/><text fill="#000000" font-family="sans-serif" font-size="13" lengthAdjust="spacing" textLength="45.2778" x="313.44" y="511.2338">extend</text></g><!--link UC7 to SSO--><g class="link" data-entity-1="ent0016" data-entity-2="ent0004" data-link-type="dependency" data-source-line="65" id="lnk44"><path d="M995.88,708.2969 C1070.44,708.2969 1155.89,708.2969 1216.92,708.2969" fill="none" id="UC7-to-SSO" style="stroke:#181818;stroke-width:1;stroke-dasharray:7,7;"/><polygon fill="#181818" points="1222.92,708.2969,1213.92,704.2969,1217.92,708.2969,1213.92,712.2969,1222.92,708.2969" style="stroke:#181818;stroke-width:1;"/><text fill="#000000" font-family="sans-serif" font-size="13" lengthAdjust="spacing" textLength="87.2358" x="1094.67" y="704.3638">requires auth</text></g><!--link UC13 to NS--><g class="link" data-entity-1="ent0024" data-entity-2="ent0005" data-link-type="dependency" data-source-line="66" id="lnk45"><path d="M1027.51,845.2969 C1095.03,845.2969 1164.25,845.2969 1216.88,845.2969" fill="none" id="UC13-to-NS" style="stroke:#181818;stroke-width:1;"/><polygon fill="#181818" points="1222.88,845.2969,1213.88,841.2969,1217.88,845.2969,1213.88,849.2969,1222.88,845.2969" style="stroke:#181818;stroke-width:1;"/><text fill="#000000" font-family="sans-serif" font-size="13" lengthAdjust="spacing" textLength="108.5005" x="1084.17" y="841.3638">send notification</text></g><!--reverse link UC5 to UC7--><g class="link" data-entity-1="ent0013" data-entity-2="ent0016" data-link-type="dependency" data-source-line="68" id="lnk46"><path d="M434.9768,244.0473 C466.9668,247.4273 495.09,256.9669 516.07,282.2969 C527.98,296.6769 512.49,603.6569 524.07,618.2969 C575.13,682.8569 666.36,704.5569 741.99,710.5469" fill="none" id="UC5-backto-UC7" style="stroke:#181818;stroke-width:1;stroke-dasharray:7,7;"/><polygon fill="#181818" points="429.01,243.4169,437.5399,248.3404,433.9823,243.9422,438.3805,240.3847,429.01,243.4169" style="stroke:#181818;stroke-width:1;"/><text fill="#000000" font-family="sans-serif" font-size="13" lengthAdjust="spacing" textLength="45.2778" x="578.8569" y="599.3638">extend</text><text fill="#000000" font-family="sans-serif" font-size="13" lengthAdjust="spacing" textLength="152.8516" x="525.07" y="614.4966">[&#1088;&#1077;&#1079;&#1102;&#1084;&#1077; &#1086;&#1073;&#1103;&#1079;&#1072;&#1090;&#1077;&#1083;&#1100;&#1085;&#1086;]</text></g><?plantuml-src bLNBJjj05DtxAwwo9o8l7X5YKSgMBb9MRHUMOu95SAZjzA6g4f2sB414gYfrrTAAVa1uf9W4p2_C_4A_fEUE7x6JL4fPXF7rt7FFEVVEsBEyfacRhabhEduUMth3qNVfp_uN4hzaHzoBWVmaVDcbOfN4Ttae1c8eV34WUI0FiU5QzCKzmZt2NlnSYXwsz10xGDgffZNDBO-y5ZbMOzkZkkMOXcUrRCtTiUmzdOlfXjToQjvR4D5VcsvhrqozRBkc0MQFMaxTT9vkMyQERRek5V8LJLE9b1C_qqnofBjKIzxz09SB4O1XW1qz_E-BeJnHkzRZNRNQ4nBd4E23Vr_kA-xOoRf2F6nOMJ7VUAPZwytLrJXne-LPMvQXioAgcSuhop1LmaOjkrzZsRhTWCRSkB6Xs__lROxUQHhHdcxiw0t6FOD67-y697oI7m05fK3QXsvLYpC8Vv6fd8AN0LBks2Ai8LcU45VXkg0JYAknmk9MATnSAqp1ye7KPoCLJfg3F2Rn41ECRDrSAyx6vphi1TippiQFa4f0Uf_rurmyi7Oa34DIeayg58J44BoRjEGhCfZeC96Hpc5LOzs929Idu5n1TqVSn7P0ZxYHf-nHb5GPIpfNocxOVYvyp-pbCO8-zrGzJsYAe1Oc3JYBXlw8foSO3HXp7fVDynT3Hx9J6V-QG5LvSGpgctAG6ntAm288FGG0C_BZOmZKG3M5T-CHROymbwODHdWwK_IGr56_XyoQaQxXzmMWkn7EyenZaN47FFnPpme2eTP07Lobq9SViuXW7X-Q-Ic-1-ZuPTppL5wSKvZCGILc_rjTMR7DF8qyc_9WejqXK77IZSyyRUhS1cgaRrDkAficRyzfzmWV61G-YaUzmxr2JW3WjCsaMiuctMKvncDSACrs9MJFP3YLF5eHpqHoMKc6w1hDpQsgQojU5PDLALcLarKbMIqagyKHolneEKA4mTfwl2wDbcLDGpBb-M69gcJPHhDTDqV1vMd1GYaJBOVHohJWGYPOZF8Hv6-GNO_A8yfViYevviisliGkwMrlMrELc2c-MbLoiP_ir8UDaokqai-p0GdaS_jP-Zv3CyM5x8PNr-Xml_WB?></g></svg>