<svg xmlns="http://www.w3.org/2000/svg" xmlns:xlink="http://www.w3.org/1999/xlink" contentStyleType="text/css" data-diagram-type="DESCRIPTION" height="1752px" preserveAspectRatio="none" style="width:966px;height:1752px;background:#FFFFFF;" version="1.1" viewBox="0 0 966 1752" width="966px" zoomAndPan="magnify"><?plantuml 1.2026.4beta2?><defs/><g><g class="title" data-source-line="1"><text fill="#000000" font-family="sans-serif" font-size="14" font-weight="700" lengthAdjust="spacing" textLength="589.8115" x="184.6985" y="22.9951">Use Case Diagram &#8212; &#1060;&#1091;&#1085;&#1082;&#1094;&#1080;&#1103; 3: &#1060;&#1086;&#1088;&#1084;&#1080;&#1088;&#1086;&#1074;&#1072;&#1085;&#1080;&#1077; &#1088;&#1077;&#1082;&#1086;&#1084;&#1077;&#1085;&#1076;&#1072;&#1094;&#1080;&#1081; &#1074;&#1072;&#1082;&#1072;&#1085;&#1089;&#1080;&#1081;</text></g><!--cluster ??????? 3 ? ???????????? ????????????--><g class="cluster" data-qualified-name="....... 3 . ............ ............" data-source-line="12" id="ent0006"><rect fill="none" height="1694" rx="2.5" ry="2.5" style="stroke:#181818;stroke-width:1;" width="435.47" x="217.09" y="44.2969"/><text fill="#000000" font-family="sans-serif" font-size="14" font-weight="700" lengthAdjust="spacing" textLength="356.2959" x="256.6771" y="59.292">&#1060;&#1091;&#1085;&#1082;&#1094;&#1080;&#1103; 3 &#8212; &#1060;&#1086;&#1088;&#1084;&#1080;&#1088;&#1086;&#1074;&#1072;&#1085;&#1080;&#1077; &#1088;&#1077;&#1082;&#1086;&#1084;&#1077;&#1085;&#1076;&#1072;&#1094;&#1080;&#1081;</text></g><!--cluster ????????? ????????????--><g class="cluster" data-qualified-name="....... 3 . ............ ...................... ............" data-source-line="14" id="ent0007"><path d="M286.33,1226.2969 L501.0009,1226.2969 A3.75,3.75 0 0 1 503.5009,1228.7969 L510.5009,1248.5938 L583.32,1248.5938 A2.5,2.5 0 0 1 585.82,1251.0938 L585.82,1711.7969 A2.5,2.5 0 0 1 583.32,1714.2969 L286.33,1714.2969 A2.5,2.5 0 0 1 283.83,1711.7969 L283.83,1228.7969 A2.5,2.5 0 0 1 286.33,1226.2969" fill="none" style="stroke:#000000;stroke-width:1.5;"/><line style="stroke:#000000;stroke-width:1.5;" x1="283.83" x2="510.5009" y1="1248.5938" y2="1248.5938"/><text fill="#000000" font-family="sans-serif" font-size="14" font-weight="700" lengthAdjust="spacing" textLength="213.6709" x="287.83" y="1241.292">&#1055;&#1086;&#1083;&#1091;&#1095;&#1077;&#1085;&#1080;&#1077; &#1088;&#1077;&#1082;&#1086;&#1084;&#1077;&#1085;&#1076;&#1072;&#1094;&#1080;&#1081;</text></g><!--cluster ?????? ??????????--><g class="cluster" data-qualified-name="....... 3 . ............ ................... .........." data-source-line="21" id="ent0012"><path d="M286.5,833.2969 L443.5918,833.2969 A3.75,3.75 0 0 1 446.0918,835.7969 L453.0918,855.5938 L583.16,855.5938 A2.5,2.5 0 0 1 585.66,858.0938 L585.66,1199.7969 A2.5,2.5 0 0 1 583.16,1202.2969 L286.5,1202.2969 A2.5,2.5 0 0 1 284,1199.7969 L284,835.7969 A2.5,2.5 0 0 1 286.5,833.2969" fill="none" style="stroke:#000000;stroke-width:1.5;"/><line style="stroke:#000000;stroke-width:1.5;" x1="284" x2="453.0918" y1="855.5938" y2="855.5938"/><text fill="#000000" font-family="sans-serif" font-size="14" font-weight="700" lengthAdjust="spacing" textLength="156.0918" x="288" y="848.292">&#1056;&#1072;&#1089;&#1095;&#1105;&#1090; &#1089;&#1086;&#1074;&#1087;&#1072;&#1076;&#1077;&#1085;&#1080;&#1081;</text></g><!--cluster ?????????????? ? ????????????--><g class="cluster" data-qualified-name="....... 3 . ............ ........................... . ............" data-source-line="28" id="ent0017"><path d="M243.59,87.2969 L509.2091,87.2969 A3.75,3.75 0 0 1 511.7091,89.7969 L518.7091,109.5938 L626.06,109.5938 A2.5,2.5 0 0 1 628.56,112.0938 L628.56,409.7969 A2.5,2.5 0 0 1 626.06,412.2969 L243.59,412.2969 A2.5,2.5 0 0 1 241.09,409.7969 L241.09,89.7969 A2.5,2.5 0 0 1 243.59,87.2969" fill="none" style="stroke:#000000;stroke-width:1.5;"/><line style="stroke:#000000;stroke-width:1.5;" x1="241.09" x2="518.7091" y1="109.5938" y2="109.5938"/><text fill="#000000" font-family="sans-serif" font-size="14" font-weight="700" lengthAdjust="spacing" textLength="264.6191" x="245.09" y="102.292">&#1042;&#1079;&#1072;&#1080;&#1084;&#1086;&#1076;&#1077;&#1081;&#1089;&#1090;&#1074;&#1080;&#1077; &#1089; &#1088;&#1077;&#1079;&#1091;&#1083;&#1100;&#1090;&#1072;&#1090;&#1072;&#1084;&#1080;</text></g><!--cluster ?????????? ?????????--><g class="cluster" data-qualified-name="....... 3 . ............ ....................... ........." data-source-line="34" id="ent0021"><path d="M293.44,436.2969 L481.2252,436.2969 A3.75,3.75 0 0 1 483.7252,438.7969 L490.7252,458.5938 L576.22,458.5938 A2.5,2.5 0 0 1 578.72,461.0938 L578.72,806.7969 A2.5,2.5 0 0 1 576.22,809.2969 L293.44,809.2969 A2.5,2.5 0 0 1 290.94,806.7969 L290.94,438.7969 A2.5,2.5 0 0 1 293.44,436.2969" fill="none" style="stroke:#000000;stroke-width:1.5;"/><line style="stroke:#000000;stroke-width:1.5;" x1="290.94" x2="490.7252" y1="458.5938" y2="458.5938"/><text fill="#000000" font-family="sans-serif" font-size="14" font-weight="700" lengthAdjust="spacing" textLength="186.7852" x="294.94" y="451.292">&#1059;&#1087;&#1088;&#1072;&#1074;&#1083;&#1077;&#1085;&#1080;&#1077; &#1082;&#1072;&#1095;&#1077;&#1089;&#1090;&#1074;&#1086;&#1084;</text></g><!--entity UC1--><g class="entity" data-qualified-name="....... 3 . ............ ...................... .............UC1" data-source-line="15" id="ent0008"><ellipse cx="434.8341" cy="1669.2957" fill="#F1F1F1" rx="134.9941" ry="29.3988" style="stroke:#181818;stroke-width:1.5;"/><text fill="#000000" font-family="sans-serif" font-size="14" lengthAdjust="spacing" textLength="251.0977" x="309.2852" y="1673.9441">&#1054;&#1090;&#1082;&#1088;&#1099;&#1090;&#1100; &#1089;&#1090;&#1088;&#1072;&#1085;&#1080;&#1094;&#1091; &#1088;&#1077;&#1082;&#1086;&#1084;&#1077;&#1085;&#1076;&#1072;&#1094;&#1080;&#1081;</text></g><!--entity UC2--><g class="entity" data-qualified-name="....... 3 . ............ ...................... .............UC2" data-source-line="16" id="ent0009"><ellipse cx="434.8339" cy="1561.2957" fill="#F1F1F1" rx="124.6439" ry="27.3288" style="stroke:#181818;stroke-width:1.5;"/><text fill="#000000" font-family="sans-serif" font-size="14" lengthAdjust="spacing" textLength="229.2363" x="320.2158" y="1565.9441">&#1055;&#1086;&#1083;&#1091;&#1095;&#1080;&#1090;&#1100; &#1090;&#1086;&#1087;-N &#1088;&#1077;&#1082;&#1086;&#1084;&#1077;&#1085;&#1076;&#1072;&#1094;&#1080;&#1081;</text></g><!--entity UC3--><g class="entity" data-qualified-name="....... 3 . ............ ...................... .............UC3" data-source-line="17" id="ent0010"><ellipse cx="434.8333" cy="1288.2935" fill="#F1F1F1" rx="123.0833" ry="27.0167" style="stroke:#181818;stroke-width:1.5;"/><text fill="#000000" font-family="sans-serif" font-size="14" lengthAdjust="spacing" textLength="225.9209" x="321.8728" y="1292.942">&#1055;&#1088;&#1086;&#1074;&#1077;&#1088;&#1080;&#1090;&#1100; &#1082;&#1101;&#1096; &#1088;&#1077;&#1082;&#1086;&#1084;&#1077;&#1085;&#1076;&#1072;&#1094;&#1080;&#1081;</text></g><!--entity UC4--><g class="entity" data-qualified-name="....... 3 . ............ ...................... .............UC4" data-source-line="18" id="ent0011"><ellipse cx="434.8303" cy="1470.2949" fill="#F1F1F1" rx="132.2403" ry="28.8481" style="stroke:#181818;stroke-width:1.5;"/><text fill="#000000" font-family="sans-serif" font-size="14" lengthAdjust="spacing" textLength="245.3008" x="312.1799" y="1474.9434">&#1047;&#1072;&#1087;&#1088;&#1086;&#1089;&#1080;&#1090;&#1100; &#1088;&#1072;&#1089;&#1095;&#1105;&#1090; &#1088;&#1077;&#1082;&#1086;&#1084;&#1077;&#1085;&#1076;&#1072;&#1094;&#1080;&#1081;</text></g><!--entity UC5--><g class="entity" data-qualified-name="....... 3 . ............ ................... ...........UC5" data-source-line="22" id="ent0013"><ellipse cx="434.8349" cy="988.2978" fill="#F1F1F1" rx="118.9549" ry="26.191" style="stroke:#181818;stroke-width:1.5;"/><text fill="#000000" font-family="sans-serif" font-size="14" lengthAdjust="spacing" textLength="217.123" x="326.2733" y="992.9463">&#1047;&#1072;&#1075;&#1088;&#1091;&#1079;&#1080;&#1090;&#1100; &#1087;&#1088;&#1086;&#1092;&#1080;&#1083;&#1100; &#1089;&#1090;&#1091;&#1076;&#1077;&#1085;&#1090;&#1072;</text></g><!--entity UC6--><g class="entity" data-qualified-name="....... 3 . ............ ................... ...........UC6" data-source-line="23" id="ent0014"><ellipse cx="434.8297" cy="1161.2988" fill="#F1F1F1" rx="112.6097" ry="24.9219" style="stroke:#181818;stroke-width:1.5;"/><text fill="#000000" font-family="sans-serif" font-size="14" lengthAdjust="spacing" textLength="203.5127" x="333.0733" y="1165.9472">&#1047;&#1072;&#1075;&#1088;&#1091;&#1079;&#1080;&#1090;&#1100; &#1089;&#1087;&#1080;&#1089;&#1086;&#1082; &#1074;&#1072;&#1082;&#1072;&#1085;&#1089;&#1080;&#1081;</text></g><!--entity UC7--><g class="entity" data-qualified-name="....... 3 . ............ ................... ...........UC7" data-source-line="24" id="ent0015"><ellipse cx="434.8313" cy="1075.2931" fill="#F1F1F1" rx="118.8813" ry="26.1763" style="stroke:#181818;stroke-width:1.5;"/><text fill="#000000" font-family="sans-serif" font-size="14" lengthAdjust="spacing" textLength="216.9658" x="326.3484" y="1079.9416">&#1056;&#1072;&#1089;&#1089;&#1095;&#1080;&#1090;&#1072;&#1090;&#1100; score &#1089;&#1086;&#1074;&#1087;&#1072;&#1076;&#1077;&#1085;&#1080;&#1103;</text></g><!--entity UC8--><g class="entity" data-qualified-name="....... 3 . ............ ................... ...........UC8" data-source-line="25" id="ent0016"><ellipse cx="434.8315" cy="897.2932" fill="#F1F1F1" rx="134.8315" ry="29.3663" style="stroke:#181818;stroke-width:1.5;"/><text fill="#000000" font-family="sans-serif" font-size="14" lengthAdjust="spacing" textLength="250.7559" x="309.4536" y="901.9416">&#1054;&#1090;&#1089;&#1086;&#1088;&#1090;&#1080;&#1088;&#1086;&#1074;&#1072;&#1090;&#1100; &#1087;&#1086; &#1088;&#1077;&#1083;&#1077;&#1074;&#1072;&#1085;&#1090;&#1085;&#1086;&#1089;&#1090;&#1080;</text></g><!--entity UC9--><g class="entity" data-qualified-name="....... 3 . ............ ........................... . .............UC9" data-source-line="29" id="ent0018"><ellipse cx="434.8291" cy="157.2947" fill="#F1F1F1" rx="165.0391" ry="35.4078" style="stroke:#181818;stroke-width:1.5;"/><text fill="#000000" font-family="sans-serif" font-size="14" lengthAdjust="spacing" textLength="313.667" x="277.9956" y="161.9431">&#1055;&#1088;&#1086;&#1089;&#1084;&#1086;&#1090;&#1088;&#1077;&#1090;&#1100; &#1088;&#1077;&#1082;&#1086;&#1084;&#1077;&#1085;&#1076;&#1086;&#1074;&#1072;&#1085;&#1085;&#1091;&#1102; &#1074;&#1072;&#1082;&#1072;&#1085;&#1089;&#1080;&#1102;</text></g><!--entity UC10--><g class="entity" data-qualified-name="....... 3 . ............ ........................... . .............UC10" data-source-line="30" id="ent0019"><ellipse cx="434.8337" cy="358.2936" fill="#F1F1F1" rx="177.7337" ry="37.9467" style="stroke:#181818;stroke-width:1.5;"/><text fill="#000000" font-family="sans-serif" font-size="14" lengthAdjust="spacing" textLength="339.835" x="264.9162" y="362.9421">&#1054;&#1090;&#1084;&#1077;&#1090;&#1080;&#1090;&#1100; &#1088;&#1077;&#1082;&#1086;&#1084;&#1077;&#1085;&#1076;&#1072;&#1094;&#1080;&#1102; &#1082;&#1072;&#1082; &#1087;&#1088;&#1086;&#1089;&#1084;&#1086;&#1090;&#1088;&#1077;&#1085;&#1085;&#1091;&#1102;</text></g><!--entity UC11--><g class="entity" data-qualified-name="....... 3 . ............ ........................... . .............UC11" data-source-line="31" id="ent0020"><ellipse cx="434.8345" cy="256.2958" fill="#F1F1F1" rx="130.7945" ry="28.5589" style="stroke:#181818;stroke-width:1.5;"/><text fill="#000000" font-family="sans-serif" font-size="14" lengthAdjust="spacing" textLength="242.252" x="313.7085" y="260.9442">&#1054;&#1090;&#1082;&#1083;&#1080;&#1082;&#1085;&#1091;&#1090;&#1100;&#1089;&#1103; &#1085;&#1072; &#1088;&#1077;&#1082;&#1086;&#1084;&#1077;&#1085;&#1076;&#1072;&#1094;&#1080;&#1102;</text></g><!--entity UC12--><g class="entity" data-qualified-name="....... 3 . ............ ....................... ..........UC12" data-source-line="35" id="ent0022"><ellipse cx="434.8324" cy="676.2953" fill="#F1F1F1" rx="127.8924" ry="27.9785" style="stroke:#181818;stroke-width:1.5;"/><text fill="#000000" font-family="sans-serif" font-size="14" lengthAdjust="spacing" textLength="236.1201" x="316.7723" y="680.9438">&#1055;&#1088;&#1086;&#1074;&#1077;&#1088;&#1080;&#1090;&#1100; &#1084;&#1077;&#1090;&#1088;&#1080;&#1082;&#1091; Precision@5</text></g><!--entity UC13--><g class="entity" data-qualified-name="....... 3 . ............ ....................... ..........UC13" data-source-line="36" id="ent0023"><ellipse cx="434.8259" cy="586.292" fill="#F1F1F1" rx="124.8759" ry="27.3752" style="stroke:#181818;stroke-width:1.5;"/><text fill="#000000" font-family="sans-serif" font-size="14" lengthAdjust="spacing" textLength="229.7285" x="319.9616" y="590.9405">&#1057;&#1086;&#1093;&#1088;&#1072;&#1085;&#1080;&#1090;&#1100; &#1088;&#1077;&#1082;&#1086;&#1084;&#1077;&#1085;&#1076;&#1072;&#1094;&#1080;&#1080; &#1074; &#1041;&#1044;</text></g><!--entity UC14--><g class="entity" data-qualified-name="....... 3 . ............ ....................... ..........UC14" data-source-line="37" id="ent0024"><ellipse cx="434.8281" cy="497.2925" fill="#F1F1F1" rx="119.2781" ry="26.2556" style="stroke:#181818;stroke-width:1.5;"/><text fill="#000000" font-family="sans-serif" font-size="14" lengthAdjust="spacing" textLength="217.8135" x="325.9214" y="501.9409">&#1054;&#1073;&#1085;&#1086;&#1074;&#1080;&#1090;&#1100; &#1082;&#1101;&#1096; &#1088;&#1077;&#1082;&#1086;&#1084;&#1077;&#1085;&#1076;&#1072;&#1094;&#1080;&#1081;</text></g><!--entity UC15--><g class="entity" data-qualified-name="....... 3 . ............ ....................... ..........UC15" data-source-line="38" id="ent0025"><ellipse cx="434.8336" cy="766.2936" fill="#F1F1F1" rx="122.5336" ry="26.9067" style="stroke:#181818;stroke-width:1.5;"/><text fill="#000000" font-family="sans-serif" font-size="14" lengthAdjust="spacing" textLength="224.752" x="322.4576" y="770.942">&#1053;&#1072;&#1089;&#1090;&#1088;&#1086;&#1080;&#1090;&#1100; &#1087;&#1072;&#1088;&#1072;&#1084;&#1077;&#1090;&#1088;&#1099; &#1084;&#1086;&#1076;&#1077;&#1083;&#1080;</text></g><!--entity S--><g class="entity" data-qualified-name="S" data-source-line="7" id="ent0002"><ellipse cx="64.0487" cy="286.1469" fill="#F1F1F1" rx="16" ry="16" style="stroke:#181818;stroke-width:0.5;"/><path d="M64.0487,306.1469 C68.0487,306.1469 71.0487,306.1469 75.0487,302.1469 C83.0487,302.1469 91.0487,310.1469 91.0487,318.1469 L91.0487,322.1469 C91.0487,326.1469 87.0487,330.1469 83.0487,330.1469 L45.0487,330.1469 C41.0487,330.1469 37.0487,326.1469 37.0487,322.1469 L37.0487,318.1469 C37.0487,310.1469 45.0487,302.1469 53.0487,302.1469 C57.0487,306.1469 60.0487,306.1469 64.0487,306.1469" fill="#F1F1F1" style="stroke:#181818;stroke-width:0.5;"/><text fill="#000000" font-family="sans-serif" font-size="14" lengthAdjust="spacing" textLength="61.8174" x="33.14" y="343.642">&#1057;&#1090;&#1091;&#1076;&#1077;&#1085;&#1090;</text></g><!--entity A--><g class="entity" data-qualified-name="A" data-source-line="8" id="ent0003"><ellipse cx="64.0474" cy="1443.1469" fill="#F1F1F1" rx="16" ry="16" style="stroke:#181818;stroke-width:0.5;"/><path d="M64.0474,1463.1469 C68.0474,1463.1469 71.0474,1463.1469 75.0474,1459.1469 C83.0474,1459.1469 91.0474,1467.1469 91.0474,1475.1469 L91.0474,1479.1469 C91.0474,1483.1469 87.0474,1487.1469 83.0474,1487.1469 L45.0474,1487.1469 C41.0474,1487.1469 37.0474,1483.1469 37.0474,1479.1469 L37.0474,1475.1469 C37.0474,1467.1469 45.0474,1459.1469 53.0474,1459.1469 C57.0474,1463.1469 60.0474,1463.1469 64.0474,1463.1469" fill="#F1F1F1" style="stroke:#181818;stroke-width:0.5;"/><text fill="#000000" font-family="sans-serif" font-size="14" lengthAdjust="spacing" textLength="116.0947" x="6" y="1500.642">&#1040;&#1076;&#1084;&#1080;&#1085;&#1080;&#1089;&#1090;&#1088;&#1072;&#1090;&#1086;&#1088;</text></g><!--entity RS--><g class="entity" data-qualified-name="RS" data-source-line="9" id="ent0004"><ellipse cx="889.3842" cy="1448.1438" fill="#F1F1F1" rx="16" ry="16" style="stroke:#181818;stroke-width:0.5;"/><path d="M889.3842,1468.1438 C893.3842,1468.1438 896.3842,1468.1438 900.3842,1464.1438 C908.3842,1464.1438 916.3842,1472.1438 916.3842,1480.1438 L916.3842,1484.1438 C916.3842,1488.1438 912.3842,1492.1438 908.3842,1492.1438 L870.3842,1492.1438 C866.3842,1492.1438 862.3842,1488.1438 862.3842,1484.1438 L862.3842,1480.1438 C862.3842,1472.1438 870.3842,1464.1438 878.3842,1464.1438 C882.3842,1468.1438 885.3842,1468.1438 889.3842,1468.1438" fill="#F1F1F1" style="stroke:#181818;stroke-width:0.5;"/><text fill="#000000" font-family="sans-serif" font-size="14" lengthAdjust="spacing" textLength="123.6484" x="827.56" y="1505.6389">Recommendation</text><text fill="#000000" font-family="sans-serif" font-size="14" lengthAdjust="spacing" textLength="51.7412" x="827.56" y="1521.9357">Service</text><text fill="#000000" font-family="sans-serif" font-size="14" font-style="italic" lengthAdjust="spacing" textLength="75.2295" x="851.7695" y="1428.342">&#171;external&#187;</text></g><!--entity RC--><g class="entity" data-qualified-name="RC" data-source-line="10" id="ent0005"><ellipse cx="889.3897" cy="879.2938" fill="#F1F1F1" rx="16" ry="16" style="stroke:#181818;stroke-width:0.5;"/><path d="M889.3897,899.2938 C893.3897,899.2938 896.3897,899.2938 900.3897,895.2938 C908.3897,895.2938 916.3897,903.2938 916.3897,911.2938 L916.3897,915.2938 C916.3897,919.2938 912.3897,923.2938 908.3897,923.2938 L870.3897,923.2938 C866.3897,923.2938 862.3897,919.2938 862.3897,915.2938 L862.3897,911.2938 C862.3897,903.2938 870.3897,895.2938 878.3897,895.2938 C882.3897,899.2938 885.3897,899.2938 889.3897,899.2938" fill="#F1F1F1" style="stroke:#181818;stroke-width:0.5;"/><text fill="#000000" font-family="sans-serif" font-size="14" lengthAdjust="spacing" textLength="86.3994" x="846.19" y="936.7889">Redis Cache</text><text fill="#000000" font-family="sans-serif" font-size="14" font-style="italic" lengthAdjust="spacing" textLength="75.2295" x="851.775" y="859.492">&#171;external&#187;</text></g><!--link S to UC1--><g class="link" data-entity-1="ent0002" data-entity-2="ent0008" data-link-type="dependency" data-source-line="42" id="lnk26"><path d="M66.6,347.4169 C73.77,522.1369 105.26,1231.9069 152.09,1449.2969 C167.73,1521.8669 154.67,1555.8069 209.09,1606.2969 C237.17,1632.3369 269.315,1646.2985 306.045,1655.3685" fill="none" id="S-to-UC1" style="stroke:#181818;stroke-width:1;"/><polygon fill="#181818" points="311.87,1656.8069,304.0914,1650.7659,307.0158,1655.6082,302.1735,1658.5326,311.87,1656.8069" style="stroke:#181818;stroke-width:1;"/></g><!--link S to UC9--><g class="link" data-entity-1="ent0002" data-entity-2="ent0018" data-link-type="dependency" data-source-line="43" id="lnk27"><path d="M95.39,282.7369 C123.27,260.5069 166.6,228.9969 209.09,210.2969 C238.91,197.1769 266.5981,188.4573 298.4781,180.7473" fill="none" id="S-to-UC9" style="stroke:#181818;stroke-width:1;"/><polygon fill="#181818" points="304.31,179.3369,294.6219,177.5646,299.4501,180.5122,296.5025,185.3404,304.31,179.3369" style="stroke:#181818;stroke-width:1;"/></g><!--link S to UC10--><g class="link" data-entity-1="ent0002" data-entity-2="ent0019" data-link-type="dependency" data-source-line="44" id="lnk28"><path d="M95.23,312.3869 C136.6,317.9969 207.8644,327.6604 278.1244,337.1904" fill="none" id="S-to-UC10" style="stroke:#181818;stroke-width:1;"/><polygon fill="#181818" points="284.07,337.9969,275.6893,332.8235,279.1154,337.3248,274.614,340.7509,284.07,337.9969" style="stroke:#181818;stroke-width:1;"/></g><!--link S to UC11--><g class="link" data-entity-1="ent0002" data-entity-2="ent0020" data-link-type="dependency" data-source-line="45" id="lnk29"><path d="M95.23,304.0369 C144.68,297.0669 239.4187,283.704 318.1987,272.604" fill="none" id="S-to-UC11" style="stroke:#181818;stroke-width:1;"/><polygon fill="#181818" points="324.14,271.7669,314.6699,269.0617,319.1889,272.4645,315.7861,276.9834,324.14,271.7669" style="stroke:#181818;stroke-width:1;"/></g><!--link A to UC15--><g class="link" data-entity-1="ent0003" data-entity-2="ent0025" data-link-type="dependency" data-source-line="47" id="lnk30"><path d="M122.52,1471.6869 C150.49,1471.3769 182.1,1465.3069 201.09,1443.2969 C222.55,1418.4369 190.3,879.2269 209.09,852.2969 C236.47,813.0769 278.5141,793.2506 323.0441,781.6406" fill="none" id="A-to-UC15" style="stroke:#181818;stroke-width:1;"/><polygon fill="#181818" points="328.85,780.1269,319.132,778.5269,324.0117,781.3883,321.1503,786.2681,328.85,780.1269" style="stroke:#181818;stroke-width:1;"/></g><!--link UC1 to UC2--><g class="link" data-entity-1="ent0008" data-entity-2="ent0009" data-link-type="dependency" data-source-line="49" id="lnk31"><path d="M434.83,1639.4969 C434.83,1623.6369 434.83,1610.2669 434.83,1594.7769" fill="none" id="UC1-to-UC2" style="stroke:#181818;stroke-width:1;stroke-dasharray:7,7;"/><polygon fill="#181818" points="434.83,1588.7769,430.83,1597.7769,434.83,1593.7769,438.83,1597.7769,434.83,1588.7769" style="stroke:#181818;stroke-width:1;"/><text fill="#000000" font-family="sans-serif" font-size="13" lengthAdjust="spacing" textLength="47.0996" x="399.83" y="1618.8238">include</text></g><!--link UC2 to UC3--><g class="link" data-entity-1="ent0009" data-entity-2="ent0010" data-link-type="dependency" data-source-line="50" id="lnk32"><path d="M310.62,1564.2369 C272.83,1558.5969 234.59,1545.0869 209.09,1516.2969 C149.58,1449.0869 135.25,1381.6669 195.13,1314.7969 C229.91,1275.9669 281.5588,1268.3112 331.5988,1271.0312" fill="none" id="UC2-to-UC3" style="stroke:#181818;stroke-width:1;stroke-dasharray:7,7;"/><polygon fill="#181818" points="337.59,1271.3569,328.8204,1266.8743,332.5974,1271.0855,328.3862,1274.8625,337.59,1271.3569" style="stroke:#181818;stroke-width:1;"/><text fill="#000000" font-family="sans-serif" font-size="13" lengthAdjust="spacing" textLength="47.0996" x="153.09" y="1327.8638">include</text></g><!--link UC3 to UC4--><g class="link" data-entity-1="ent0010" data-entity-2="ent0011" data-link-type="dependency" data-source-line="51" id="lnk33"><path d="M434.83,1315.6769 C434.83,1349.4169 434.83,1400.4869 434.83,1435.0569" fill="none" id="UC3-to-UC4" style="stroke:#181818;stroke-width:1;stroke-dasharray:7,7;"/><polygon fill="#181818" points="434.83,1441.0569,438.83,1432.0569,434.83,1436.0569,430.83,1432.0569,434.83,1441.0569" style="stroke:#181818;stroke-width:1;"/><text fill="#000000" font-family="sans-serif" font-size="13" lengthAdjust="spacing" textLength="45.2778" x="393.4889" y="1375.4438">extend</text><text fill="#000000" font-family="sans-serif" font-size="13" lengthAdjust="spacing" textLength="82.5957" x="374.83" y="1390.5766">[cache miss]</text></g><!--link UC4 to UC5--><g class="link" data-entity-1="ent0011" data-entity-2="ent0013" data-link-type="dependency" data-source-line="52" id="lnk34"><path d="M360.42,1446.1469 C308.51,1425.0869 242.73,1389.0269 209.09,1333.2969 C152.39,1239.3469 181.65,1195.6969 195.13,1086.7969 C198.26,1061.5569 190.59,1048.7469 209.09,1031.2969 C237.61,1004.3969 271.5366,992.6389 309.8566,987.3389" fill="none" id="UC4-to-UC5" style="stroke:#181818;stroke-width:1;stroke-dasharray:7,7;"/><polygon fill="#181818" points="315.8,986.5169,306.3368,983.7876,310.8471,987.2019,307.4329,991.7122,315.8,986.5169" style="stroke:#181818;stroke-width:1;"/><text fill="#000000" font-family="sans-serif" font-size="13" lengthAdjust="spacing" textLength="47.0996" x="153.09" y="1099.8638">include</text></g><!--link UC4 to UC6--><g class="link" data-entity-1="ent0011" data-entity-2="ent0014" data-link-type="dependency" data-source-line="53" id="lnk35"><path d="M307.98,1461.8769 C265.2,1452.2369 221.63,1433.4869 195.13,1397.7969 C183.23,1381.7569 123.39,1356.0469 209.09,1245.2969 C239.61,1205.8569 284.8485,1186.3487 330.6985,1175.2487" fill="none" id="UC4-to-UC6" style="stroke:#181818;stroke-width:1;stroke-dasharray:7,7;"/><polygon fill="#181818" points="336.53,1173.8369,326.8415,1172.0669,331.6704,1175.0134,328.7239,1179.8422,336.53,1173.8369" style="stroke:#181818;stroke-width:1;"/><text fill="#000000" font-family="sans-serif" font-size="13" lengthAdjust="spacing" textLength="47.0996" x="153.09" y="1393.8638">include</text></g><!--link UC4 to UC7--><g class="link" data-entity-1="ent0011" data-entity-2="ent0015" data-link-type="dependency" data-source-line="54" id="lnk36"><path d="M323.13,1454.5769 C275.39,1441.7069 224.08,1418.3169 195.13,1375.7969 C189.98,1368.2269 138.8,1199.7269 209.09,1119.2969 C235.96,1088.5569 271.4221,1076.0663 311.4821,1071.2963" fill="none" id="UC4-to-UC7" style="stroke:#181818;stroke-width:1;stroke-dasharray:7,7;"/><polygon fill="#181818" points="317.44,1070.5869,308.0302,1067.6791,312.4751,1071.1781,308.9761,1075.6229,317.44,1070.5869" style="stroke:#181818;stroke-width:1;"/><text fill="#000000" font-family="sans-serif" font-size="13" lengthAdjust="spacing" textLength="47.0996" x="153.09" y="1371.8638">include</text></g><!--link UC7 to UC8--><g class="link" data-entity-1="ent0015" data-entity-2="ent0016" data-link-type="dependency" data-source-line="55" id="lnk37"><path d="M315.65,1074.6369 C278.1,1069.0269 238.73,1056.8669 209.09,1032.2969 C196.04,1021.4769 198.29,1013.4569 195.13,996.7969 C190.64,973.0769 190.64,959.8669 209.09,944.2969 C235.1,922.3569 262.8575,911.0374 296.1675,904.0574" fill="none" id="UC7-to-UC8" style="stroke:#181818;stroke-width:1;stroke-dasharray:7,7;"/><polygon fill="#181818" points="302.04,902.8269,292.4109,900.7577,297.1463,903.8523,294.0517,908.5877,302.04,902.8269" style="stroke:#181818;stroke-width:1;"/><text fill="#000000" font-family="sans-serif" font-size="13" lengthAdjust="spacing" textLength="47.0996" x="153.09" y="992.8638">include</text></g><!--link UC4 to UC12--><g class="link" data-entity-1="ent0011" data-entity-2="ent0022" data-link-type="dependency" data-source-line="56" id="lnk38"><path d="M360.04,1446.0969 C308.12,1425.0569 242.5,1389.0369 209.09,1333.2969 C150.41,1235.3669 198.24,1190.9269 195.13,1076.7969 C190.85,919.1769 106.85,842.3269 209.09,722.2969 C233.41,693.7569 264.269,680.9174 301.119,674.8774" fill="none" id="UC4-to-UC12" style="stroke:#181818;stroke-width:1;stroke-dasharray:7,7;"/><polygon fill="#181818" points="307.04,673.9069,297.5115,671.4153,302.1058,674.7156,298.8055,679.3099,307.04,673.9069" style="stroke:#181818;stroke-width:1;"/><text fill="#000000" font-family="sans-serif" font-size="13" lengthAdjust="spacing" textLength="47.0996" x="153.09" y="1072.8638">include</text></g><!--link UC4 to UC13--><g class="link" data-entity-1="ent0011" data-entity-2="ent0023" data-link-type="dependency" data-source-line="57" id="lnk39"><path d="M359.31,1446.2469 C307.22,1425.3169 241.69,1389.3769 209.09,1333.2969 C96.38,1139.3669 198.24,1053.0869 195.13,828.7969 C193.92,740.8069 150.7,697.1269 209.09,631.2969 C234.55,602.5969 266.7268,589.9895 304.4168,584.3195" fill="none" id="UC4-to-UC13" style="stroke:#181818;stroke-width:1;stroke-dasharray:7,7;"/><polygon fill="#181818" points="310.35,583.4269,300.8551,580.8103,305.4056,584.1707,302.0452,588.7212,310.35,583.4269" style="stroke:#181818;stroke-width:1;"/><text fill="#000000" font-family="sans-serif" font-size="13" lengthAdjust="spacing" textLength="47.0996" x="153.09" y="824.8638">include</text></g><!--link UC4 to UC14--><g class="link" data-entity-1="ent0011" data-entity-2="ent0024" data-link-type="dependency" data-source-line="58" id="lnk40"><path d="M359.2,1446.3169 C307.05,1425.4169 241.51,1389.4869 209.09,1333.2969 C133.85,1202.8569 186,806.1069 195.13,655.7969 C198.24,604.6269 174.16,578.8169 209.09,541.2969 C236.37,512.0069 270.9501,499.6806 310.1701,494.5806" fill="none" id="UC4-to-UC14" style="stroke:#181818;stroke-width:1;stroke-dasharray:7,7;"/><polygon fill="#181818" points="316.12,493.8069,306.6793,491.0008,311.1617,494.4516,307.7109,498.934,316.12,493.8069" style="stroke:#181818;stroke-width:1;"/><text fill="#000000" font-family="sans-serif" font-size="13" lengthAdjust="spacing" textLength="47.0996" x="153.09" y="668.8638">include</text></g><!--link UC4 to RS--><g class="link" data-entity-1="ent0011" data-entity-2="ent0004" data-link-type="dependency" data-source-line="60" id="lnk41"><path d="M567.33,1470.2969 C653.07,1470.2969 754.95,1470.2969 821.27,1470.2969" fill="none" id="UC4-to-RS" style="stroke:#181818;stroke-width:1;"/><polygon fill="#181818" points="827.27,1470.2969,818.27,1466.2969,822.27,1470.2969,818.27,1474.2969,827.27,1470.2969" style="stroke:#181818;stroke-width:1;"/><text fill="#000000" font-family="sans-serif" font-size="13" lengthAdjust="spacing" textLength="127.2261" x="669.56" y="1466.3638">&#1074;&#1099;&#1079;&#1086;&#1074; /recommend</text></g><!--link UC3 to RC--><g class="link" data-entity-1="ent0010" data-entity-2="ent0005" data-link-type="dependency" data-source-line="61" id="lnk42"><path d="M520.04,1268.4669 C564.89,1254.9969 619.17,1233.7969 660.56,1202.2969 C755.64,1129.9469 826.4537,1012.7248 862.0537,945.7548" fill="none" id="UC3-to-RC" style="stroke:#181818;stroke-width:1;"/><polygon fill="#181818" points="864.87,940.4569,857.1136,946.5263,862.5231,944.8718,864.1775,950.2814,864.87,940.4569" style="stroke:#181818;stroke-width:1;"/><text fill="#000000" font-family="sans-serif" font-size="13" lengthAdjust="spacing" textLength="55.0151" x="705.56" y="1053.3638">GET/SET</text></g><!--link UC14 to RC--><g class="link" data-entity-1="ent0024" data-entity-2="ent0005" data-link-type="dependency" data-source-line="62" id="lnk43"><path d="M552.41,502.3069 C589.45,508.3769 628.95,519.9069 660.56,541.2969 C772.85,617.2769 840.1928,763.4143 869.7228,840.4643" fill="none" id="UC14-to-RC" style="stroke:#181818;stroke-width:1;"/><polygon fill="#181818" points="871.87,846.0669,872.3842,836.2314,870.0806,841.398,864.9141,839.0944,871.87,846.0669" style="stroke:#181818;stroke-width:1;"/><text fill="#000000" font-family="sans-serif" font-size="13" lengthAdjust="spacing" textLength="102.4131" x="682.06" y="544.3638">SET TTL=3600s</text></g><?plantuml-src bLRBJjj05DtxAqRiWOGal4HHQOgwgQgAX5NfmdAcmI9na6tw4AgKHmkLQA5KI5sL5hKVa58YGXxm2pE_q2_fkUD7Y36DY1J7lZvpvjmpzyx4DTqIPwiEPraTbuUcNhJrCljRFMBYbso8lkZ87T6M1omrZuYub5NHmtDLN8fJqSJxjcWnFBP41w4UVllYJ3HfaBXW2jCXdAnHGDDA_8NBt0gppUAwomgcpGtNh5YQis5QcphDhHjknSwvRw1BVyMTIfbVUxdbS0D27rJi0hVpwwQnON77OSc9ZAQfWMnCdCWwb9-H55aVOxh3Sk6xpuX3F-cMDU2ga5gdh1HkAS2jSADIBdEhe9EuDIl7xPUcmHLe9SSM5lXhbzkMNbfS70mfc0vSDDPzM7OOfb6ckbL4McDHQts_x-Zk6DlMDCOsTMD3BnBhTs2wiY5t5MxKK8QFRoV67iE6ZgpAFPZoaGNUA9zsPEC_H4XrDPkCi0sKj3q-U2oknf-CufcAylXMjF3hCK7a9_bX54ygmlCLgLmH5vMXfuXMlYPtvQ6iZs9BW-tjiDK_he-kAOrNcEFCTpx6O9Bm1mOtn7cGYgVe7V3TmFEmRaNJdpmpaWVpNr4vGqNdHiVvBDCH5az_pLiWwW7mE4R5vZ7Po0EVPEPcpH0QOkg3elLJ4vUUgrryLIa3qoV_2UlppTxqzGkoQa9t3sGq_OKQSEeLSysZF4VkCCpJ3NIF2BVZAWVgGAHAkHMi-l121ttMHx7kHyoJ-xxEkPXUwH7Ze9PYoeVuYAl3mj8BnGGp1ksJYEj6UDV6bO2O1KOSC8nhtZfTG9QyQUjF9Q69_BhXta3YQAlm7GRTBIuEzvzAd1xHYGts5BkQwM2Fl9y9fe_sy0cIVXzk9hVx9Thmdub3SHGmHRluMFoc6g9okCDUa4n7QBwfsg-hr89EHAYgIaab9_TOM87Ti5oJ6MKihCsnyV55jUq5TtE3M69mczIqfU0U1nIkR88UfjWyCosZj5NW6ZsfO6eecFA2QGJf4B4AQzOpWmuNLZOTvxb6hnGYCpJC3qx71MU6WZDUS3OEcPoAZQPYe-bhKHMcX758ul_2gTn3FsF1sAGTdAWgDmN90l9eEJ-PMyvhYYUC8iBo-SVtKjE9XFCF?></g></svg>