<svg xmlns="http://www.w3.org/2000/svg" xmlns:xlink="http://www.w3.org/1999/xlink" contentStyleType="text/css" data-diagram-type="DESCRIPTION" height="2022px" preserveAspectRatio="none" style="width:966px;height:2022px;background:#FFFFFF;" version="1.1" viewBox="0 0 966 2022" width="966px" zoomAndPan="magnify"><?plantuml 1.2026.4beta2?><defs/><g><g class="title" data-source-line="1"><text fill="#000000" font-family="sans-serif" font-size="14" font-weight="700" lengthAdjust="spacing" textLength="686.7588" x="136.3506" y="22.9951">Use Case Diagram &#8212; &#1060;&#1091;&#1085;&#1082;&#1094;&#1080;&#1103; 4: &#1053;&#1072;&#1079;&#1085;&#1072;&#1095;&#1077;&#1085;&#1080;&#1077; &#1080;&#1085;&#1090;&#1077;&#1088;&#1074;&#1100;&#1102; &#1080; &#1080;&#1079;&#1084;&#1077;&#1085;&#1077;&#1085;&#1080;&#1077; &#1089;&#1090;&#1072;&#1090;&#1091;&#1089;&#1072; &#1086;&#1090;&#1082;&#1083;&#1080;&#1082;&#1072;</text></g><!--cluster ??????? 4 ? ???????? ? ?????? ???????--><g class="cluster" data-qualified-name="....... 4 . ........ . ...... ......." data-source-line="13" id="ent0007"><rect fill="none" height="1555" rx="2.5" ry="2.5" style="stroke:#181818;stroke-width:1;" width="748.29" x="204.17" y="86.5069"/><text fill="#000000" font-family="sans-serif" font-size="14" font-weight="700" lengthAdjust="spacing" textLength="332.1445" x="412.2427" y="101.502">&#1060;&#1091;&#1085;&#1082;&#1094;&#1080;&#1103; 4 &#8212; &#1048;&#1085;&#1090;&#1077;&#1088;&#1074;&#1100;&#1102; &#1080; &#1089;&#1090;&#1072;&#1090;&#1091;&#1089; &#1086;&#1090;&#1082;&#1083;&#1080;&#1082;&#1072;</text></g><!--cluster ?????????? ?????????--><g class="cluster" data-qualified-name="....... 4 . ........ . ...... .................. ........." data-source-line="15" id="ent0008"><path d="M237.65,758.5069 L428.5455,758.5069 A3.75,3.75 0 0 1 431.0455,761.0069 L438.0455,780.8038 L548.59,780.8038 A2.5,2.5 0 0 1 551.09,783.3038 L551.09,1043.0069 A2.5,2.5 0 0 1 548.59,1045.5069 L237.65,1045.5069 A2.5,2.5 0 0 1 235.15,1043.0069 L235.15,761.0069 A2.5,2.5 0 0 1 237.65,758.5069" fill="none" style="stroke:#000000;stroke-width:1.5;"/><line style="stroke:#000000;stroke-width:1.5;" x1="235.15" x2="438.0455" y1="780.8038" y2="780.8038"/><text fill="#000000" font-family="sans-serif" font-size="14" font-weight="700" lengthAdjust="spacing" textLength="189.8955" x="239.15" y="773.502">&#1059;&#1087;&#1088;&#1072;&#1074;&#1083;&#1077;&#1085;&#1080;&#1077; &#1086;&#1090;&#1082;&#1083;&#1080;&#1082;&#1072;&#1084;&#1080;</text></g><!--cluster ?????????? ????????--><g class="cluster" data-qualified-name="....... 4 . ........ . ...... .................. ........" data-source-line="21" id="ent0012"><path d="M247.08,345.5069 L427.8925,345.5069 A3.75,3.75 0 0 1 430.3925,348.0069 L437.3925,367.8038 L539.15,367.8038 A2.5,2.5 0 0 1 541.65,370.3038 L541.65,732.0069 A2.5,2.5 0 0 1 539.15,734.5069 L247.08,734.5069 A2.5,2.5 0 0 1 244.58,732.0069 L244.58,348.0069 A2.5,2.5 0 0 1 247.08,345.5069" fill="none" style="stroke:#000000;stroke-width:1.5;"/><line style="stroke:#000000;stroke-width:1.5;" x1="244.58" x2="437.3925" y1="367.8038" y2="367.8038"/><text fill="#000000" font-family="sans-serif" font-size="14" font-weight="700" lengthAdjust="spacing" textLength="179.8125" x="248.58" y="360.502">&#1053;&#1072;&#1079;&#1085;&#1072;&#1095;&#1077;&#1085;&#1080;&#1077; &#1080;&#1085;&#1090;&#1077;&#1088;&#1074;&#1100;&#1102;</text></g><!--cluster ?????????? ????????--><g class="cluster" data-qualified-name="....... 4 . ........ . ...... .................. ........" data-source-line="28" id="ent0017"><path d="M230.67,129.5069 L412.5011,129.5069 A3.75,3.75 0 0 1 415.0011,132.0069 L422.0011,151.8038 L925.96,151.8038 A2.5,2.5 0 0 1 928.46,154.3038 L928.46,319.0069 A2.5,2.5 0 0 1 925.96,321.5069 L230.67,321.5069 A2.5,2.5 0 0 1 228.17,319.0069 L228.17,132.0069 A2.5,2.5 0 0 1 230.67,129.5069" fill="none" style="stroke:#000000;stroke-width:1.5;"/><line style="stroke:#000000;stroke-width:1.5;" x1="228.17" x2="422.0011" y1="151.8038" y2="151.8038"/><text fill="#000000" font-family="sans-serif" font-size="14" font-weight="700" lengthAdjust="spacing" textLength="180.8311" x="232.17" y="144.502">&#1059;&#1087;&#1088;&#1072;&#1074;&#1083;&#1077;&#1085;&#1080;&#1077; &#1080;&#1085;&#1090;&#1077;&#1088;&#1074;&#1100;&#1102;</text></g><!--cluster ????????? ??????? ???????--><g class="cluster" data-qualified-name="....... 4 . ........ . ...... ................. ....... ......." data-source-line="34" id="ent0021"><path d="M275.96,1069.5069 L502.7373,1069.5069 A3.75,3.75 0 0 1 505.2373,1072.0069 L512.2373,1091.8038 L511.28,1091.8038 A2.5,2.5 0 0 1 513.78,1094.3038 L513.78,1300.0069 A2.5,2.5 0 0 1 511.28,1302.5069 L275.96,1302.5069 A2.5,2.5 0 0 1 273.46,1300.0069 L273.46,1072.0069 A2.5,2.5 0 0 1 275.96,1069.5069" fill="none" style="stroke:#000000;stroke-width:1.5;"/><line style="stroke:#000000;stroke-width:1.5;" x1="273.46" x2="512.2373" y1="1091.8038" y2="1091.8038"/><text fill="#000000" font-family="sans-serif" font-size="14" font-weight="700" lengthAdjust="spacing" textLength="225.7773" x="277.46" y="1084.502">&#1048;&#1079;&#1084;&#1077;&#1085;&#1077;&#1085;&#1080;&#1077; &#1089;&#1090;&#1072;&#1090;&#1091;&#1089;&#1072; &#1086;&#1090;&#1082;&#1083;&#1080;&#1082;&#1072;</text></g><!--cluster ??????????? ? ?????--><g class="cluster" data-qualified-name="....... 4 . ........ . ...... ................... . ....." data-source-line="40" id="ent0025"><path d="M235.01,1326.5069 L413.1086,1326.5069 A3.75,3.75 0 0 1 415.6086,1329.0069 L422.6086,1348.8038 L551.22,1348.8038 A2.5,2.5 0 0 1 553.72,1351.3038 L553.72,1615.0069 A2.5,2.5 0 0 1 551.22,1617.5069 L235.01,1617.5069 A2.5,2.5 0 0 1 232.51,1615.0069 L232.51,1329.0069 A2.5,2.5 0 0 1 235.01,1326.5069" fill="none" style="stroke:#000000;stroke-width:1.5;"/><line style="stroke:#000000;stroke-width:1.5;" x1="232.51" x2="422.6086" y1="1348.8038" y2="1348.8038"/><text fill="#000000" font-family="sans-serif" font-size="14" font-weight="700" lengthAdjust="spacing" textLength="177.0986" x="236.51" y="1341.502">&#1059;&#1074;&#1077;&#1076;&#1086;&#1084;&#1083;&#1077;&#1085;&#1080;&#1103; &#1080; &#1072;&#1091;&#1076;&#1080;&#1090;</text></g><!--entity UC1--><g class="entity" data-qualified-name="....... 4 . ........ . ...... .................. ..........UC1" data-source-line="16" id="ent0009"><ellipse cx="393.1172" cy="820.5103" fill="#F1F1F1" rx="122.6172" ry="26.9234" style="stroke:#181818;stroke-width:1.5;"/><text fill="#000000" font-family="sans-serif" font-size="14" lengthAdjust="spacing" textLength="224.9297" x="280.6523" y="825.1587">&#1055;&#1088;&#1086;&#1089;&#1084;&#1086;&#1090;&#1088;&#1077;&#1090;&#1100; &#1089;&#1087;&#1080;&#1089;&#1086;&#1082; &#1086;&#1090;&#1082;&#1083;&#1080;&#1082;&#1086;&#1074;</text></g><!--entity UC2--><g class="entity" data-qualified-name="....... 4 . ........ . ...... .................. ..........UC2" data-source-line="17" id="ent0010"><ellipse cx="393.1211" cy="907.5031" fill="#F1F1F1" rx="113.1811" ry="25.0362" style="stroke:#181818;stroke-width:1.5;"/><text fill="#000000" font-family="sans-serif" font-size="14" lengthAdjust="spacing" textLength="204.7432" x="290.7495" y="912.1515">&#1048;&#1079;&#1091;&#1095;&#1080;&#1090;&#1100; &#1088;&#1077;&#1079;&#1102;&#1084;&#1077; &#1082;&#1072;&#1085;&#1076;&#1080;&#1076;&#1072;&#1090;&#1072;</text></g><!--entity UC3--><g class="entity" data-qualified-name="....... 4 . ........ . ...... .................. ..........UC3" data-source-line="18" id="ent0011"><ellipse cx="393.1197" cy="998.5108" fill="#F1F1F1" rx="141.9697" ry="30.7939" style="stroke:#181818;stroke-width:1.5;"/><text fill="#000000" font-family="sans-serif" font-size="14" lengthAdjust="spacing" textLength="265.7266" x="260.2564" y="1003.1593">&#1055;&#1077;&#1088;&#1077;&#1074;&#1077;&#1089;&#1090;&#1080; &#1086;&#1090;&#1082;&#1083;&#1080;&#1082; &#1085;&#1072; &#1088;&#1072;&#1089;&#1089;&#1084;&#1086;&#1090;&#1088;&#1077;&#1085;&#1080;&#1077;</text></g><!--entity UC4--><g class="entity" data-qualified-name="....... 4 . ........ . ...... .................. .........UC4" data-source-line="22" id="ent0013"><ellipse cx="393.1158" cy="698.502" fill="#F1F1F1" rx="90.4258" ry="20.4852" style="stroke:#181818;stroke-width:1.5;"/><text fill="#000000" font-family="sans-serif" font-size="14" lengthAdjust="spacing" textLength="154.7041" x="315.7637" y="703.1505">&#1053;&#1072;&#1079;&#1085;&#1072;&#1095;&#1080;&#1090;&#1100; &#1080;&#1085;&#1090;&#1077;&#1088;&#1074;&#1100;&#1102;</text></g><!--entity UC5--><g class="entity" data-qualified-name="....... 4 . ........ . ...... .................. .........UC5" data-source-line="23" id="ent0014"><ellipse cx="393.1239" cy="407.5037" fill="#F1F1F1" rx="122.8839" ry="26.9768" style="stroke:#181818;stroke-width:1.5;"/><text fill="#000000" font-family="sans-serif" font-size="14" lengthAdjust="spacing" textLength="225.4971" x="280.3754" y="412.1521">&#1059;&#1082;&#1072;&#1079;&#1072;&#1090;&#1100; &#1076;&#1072;&#1090;&#1091;, &#1074;&#1088;&#1077;&#1084;&#1103; &#1080; &#1092;&#1086;&#1088;&#1084;&#1072;&#1090;</text></g><!--entity UC6--><g class="entity" data-qualified-name="....... 4 . ........ . ...... .................. .........UC6" data-source-line="24" id="ent0015"><ellipse cx="393.1227" cy="494.5054" fill="#F1F1F1" rx="110.6927" ry="24.5385" style="stroke:#181818;stroke-width:1.5;"/><text fill="#000000" font-family="sans-serif" font-size="14" lengthAdjust="spacing" textLength="199.377" x="293.4342" y="499.1539">&#1059;&#1082;&#1072;&#1079;&#1072;&#1090;&#1100; &#1089;&#1089;&#1099;&#1083;&#1082;&#1091; &#1085;&#1072; &#1074;&#1089;&#1090;&#1088;&#1077;&#1095;&#1091;</text></g><!--entity UC7--><g class="entity" data-qualified-name="....... 4 . ........ . ...... .................. .........UC7" data-source-line="25" id="ent0016"><ellipse cx="393.1222" cy="582.5033" fill="#F1F1F1" rx="132.5322" ry="28.9064" style="stroke:#181818;stroke-width:1.5;"/><text fill="#000000" font-family="sans-serif" font-size="14" lengthAdjust="spacing" textLength="245.916" x="270.1642" y="587.1518">&#1057;&#1080;&#1085;&#1093;&#1088;&#1086;&#1085;&#1080;&#1079;&#1080;&#1088;&#1086;&#1074;&#1072;&#1090;&#1100; &#1089; &#1082;&#1072;&#1083;&#1077;&#1085;&#1076;&#1072;&#1088;&#1105;&#1084;</text></g><!--entity UC8--><g class="entity" data-qualified-name="....... 4 . ........ . ...... .................. .........UC8" data-source-line="29" id="ent0018"><ellipse cx="393.1209" cy="185.5071" fill="#F1F1F1" rx="91.0009" ry="20.6002" style="stroke:#181818;stroke-width:1.5;"/><text fill="#000000" font-family="sans-serif" font-size="14" lengthAdjust="spacing" textLength="156.0029" x="315.1194" y="190.1555">&#1055;&#1077;&#1088;&#1077;&#1085;&#1077;&#1089;&#1090;&#1080; &#1080;&#1085;&#1090;&#1077;&#1088;&#1074;&#1100;&#1102;</text></g><!--entity UC9--><g class="entity" data-qualified-name="....... 4 . ........ . ...... .................. .........UC9" data-source-line="30" id="ent0019"><ellipse cx="824.2591" cy="185.5067" fill="#F1F1F1" rx="88.1991" ry="20.0398" style="stroke:#181818;stroke-width:1.5;"/><text fill="#000000" font-family="sans-serif" font-size="14" lengthAdjust="spacing" textLength="149.6523" x="749.4329" y="190.1551">&#1054;&#1090;&#1084;&#1077;&#1085;&#1080;&#1090;&#1100; &#1080;&#1085;&#1090;&#1077;&#1088;&#1074;&#1100;&#1102;</text></g><!--entity UC10--><g class="entity" data-qualified-name="....... 4 . ........ . ...... .................. .........UC10" data-source-line="31" id="ent0020"><ellipse cx="393.119" cy="273.5067" fill="#F1F1F1" rx="148.949" ry="32.1898" style="stroke:#181818;stroke-width:1.5;"/><text fill="#000000" font-family="sans-serif" font-size="14" lengthAdjust="spacing" textLength="280.2939" x="252.972" y="278.1551">&#1054;&#1090;&#1084;&#1077;&#1090;&#1080;&#1090;&#1100; &#1080;&#1085;&#1090;&#1077;&#1088;&#1074;&#1100;&#1102; &#1082;&#1072;&#1082; &#1087;&#1088;&#1086;&#1074;&#1077;&#1076;&#1105;&#1085;&#1085;&#1086;&#1077;</text></g><!--entity UC11--><g class="entity" data-qualified-name="....... 4 . ........ . ...... ................. ....... ........UC11" data-source-line="35" id="ent0022"><ellipse cx="393.1175" cy="1121.5084" fill="#F1F1F1" rx="71.3575" ry="16.6715" style="stroke:#181818;stroke-width:1.5;"/><text fill="#000000" font-family="sans-serif" font-size="14" lengthAdjust="spacing" textLength="109.7783" x="338.2283" y="1126.1568">&#1042;&#1099;&#1076;&#1072;&#1090;&#1100; &#1086;&#1092;&#1092;&#1077;&#1088;</text></g><!--entity UC12--><g class="entity" data-qualified-name="....... 4 . ........ . ...... ................. ....... ........UC12" data-source-line="36" id="ent0023"><ellipse cx="393.1191" cy="1194.5087" fill="#F1F1F1" rx="94.6591" ry="21.3318" style="stroke:#181818;stroke-width:1.5;"/><text fill="#000000" font-family="sans-serif" font-size="14" lengthAdjust="spacing" textLength="164.2129" x="311.0127" y="1199.1571">&#1054;&#1090;&#1082;&#1083;&#1086;&#1085;&#1080;&#1090;&#1100; &#1082;&#1072;&#1085;&#1076;&#1080;&#1076;&#1072;&#1090;&#1072;</text></g><!--entity UC13--><g class="entity" data-qualified-name="....... 4 . ........ . ...... ................. ....... ........UC13" data-source-line="37" id="ent0024"><ellipse cx="393.1187" cy="1268.5106" fill="#F1F1F1" rx="77.4187" ry="17.8837" style="stroke:#181818;stroke-width:1.5;"/><text fill="#000000" font-family="sans-serif" font-size="14" lengthAdjust="spacing" textLength="124.5508" x="330.8434" y="1273.1591">&#1054;&#1090;&#1086;&#1079;&#1074;&#1072;&#1090;&#1100; &#1086;&#1090;&#1082;&#1083;&#1080;&#1082;</text></g><!--entity UC14--><g class="entity" data-qualified-name="....... 4 . ........ . ...... ................... . ......UC14" data-source-line="41" id="ent0026"><ellipse cx="393.1226" cy="1392.5074" fill="#F1F1F1" rx="144.6026" ry="31.3205" style="stroke:#181818;stroke-width:1.5;"/><text fill="#000000" font-family="sans-serif" font-size="14" lengthAdjust="spacing" textLength="271.2295" x="257.5078" y="1397.1558">&#1055;&#1086;&#1083;&#1091;&#1095;&#1080;&#1090;&#1100; &#1091;&#1074;&#1077;&#1076;&#1086;&#1084;&#1083;&#1077;&#1085;&#1080;&#1077; &#1086;&#1073; &#1080;&#1085;&#1090;&#1077;&#1088;&#1074;&#1100;&#1102;</text></g><!--entity UC15--><g class="entity" data-qualified-name="....... 4 . ........ . ...... ................... . ......UC15" data-source-line="42" id="ent0027"><ellipse cx="393.1197" cy="1488.5068" fill="#F1F1F1" rx="137.6497" ry="29.9299" style="stroke:#181818;stroke-width:1.5;"/><text fill="#000000" font-family="sans-serif" font-size="14" lengthAdjust="spacing" textLength="256.6758" x="264.7818" y="1493.1553">&#1055;&#1086;&#1083;&#1091;&#1095;&#1080;&#1090;&#1100; &#1091;&#1074;&#1077;&#1076;&#1086;&#1084;&#1083;&#1077;&#1085;&#1080;&#1077; &#1086; &#1088;&#1077;&#1096;&#1077;&#1085;&#1080;&#1080;</text></g><!--entity UC16--><g class="entity" data-qualified-name="....... 4 . ........ . ...... ................... . ......UC16" data-source-line="43" id="ent0028"><ellipse cx="393.1159" cy="1577.5061" fill="#F1F1F1" rx="108.9959" ry="24.1992" style="stroke:#181818;stroke-width:1.5;"/><text fill="#000000" font-family="sans-serif" font-size="14" lengthAdjust="spacing" textLength="195.7061" x="295.2629" y="1582.1545">&#1047;&#1072;&#1087;&#1080;&#1089;&#1072;&#1090;&#1100; &#1089;&#1086;&#1073;&#1099;&#1090;&#1080;&#1077; &#1074; &#1072;&#1091;&#1076;&#1080;&#1090;</text></g><!--entity E--><g class="entity" data-qualified-name="E" data-source-line="7" id="ent0002"><ellipse cx="57.584" cy="471.3569" fill="#F1F1F1" rx="16" ry="16" style="stroke:#181818;stroke-width:0.5;"/><path d="M57.584,491.3569 C61.584,491.3569 64.584,491.3569 68.584,487.3569 C76.584,487.3569 84.584,495.3569 84.584,503.3569 L84.584,507.3569 C84.584,511.3569 80.584,515.3569 76.584,515.3569 L38.584,515.3569 C34.584,515.3569 30.584,511.3569 30.584,507.3569 L30.584,503.3569 C30.584,495.3569 38.584,487.3569 46.584,487.3569 C50.584,491.3569 53.584,491.3569 57.584,491.3569" fill="#F1F1F1" style="stroke:#181818;stroke-width:0.5;"/><text fill="#000000" font-family="sans-serif" font-size="14" lengthAdjust="spacing" textLength="103.168" x="6" y="528.852">&#1056;&#1072;&#1073;&#1086;&#1090;&#1086;&#1076;&#1072;&#1090;&#1077;&#1083;&#1100;</text></g><!--entity S--><g class="entity" data-qualified-name="S" data-source-line="8" id="ent0003"><ellipse cx="57.5887" cy="1370.3569" fill="#F1F1F1" rx="16" ry="16" style="stroke:#181818;stroke-width:0.5;"/><path d="M57.5887,1390.3569 C61.5887,1390.3569 64.5887,1390.3569 68.5887,1386.3569 C76.5887,1386.3569 84.5887,1394.3569 84.5887,1402.3569 L84.5887,1406.3569 C84.5887,1410.3569 80.5887,1414.3569 76.5887,1414.3569 L38.5887,1414.3569 C34.5887,1414.3569 30.5887,1410.3569 30.5887,1406.3569 L30.5887,1402.3569 C30.5887,1394.3569 38.5887,1386.3569 46.5887,1386.3569 C50.5887,1390.3569 53.5887,1390.3569 57.5887,1390.3569" fill="#F1F1F1" style="stroke:#181818;stroke-width:0.5;"/><text fill="#000000" font-family="sans-serif" font-size="14" lengthAdjust="spacing" textLength="61.8174" x="26.68" y="1427.852">&#1057;&#1090;&#1091;&#1076;&#1077;&#1085;&#1090;</text></g><!--entity NS--><g class="entity" data-qualified-name="NS" data-source-line="9" id="ent0004"><ellipse cx="824.2603" cy="1819.5138" fill="#F1F1F1" rx="16" ry="16" style="stroke:#181818;stroke-width:0.5;"/><path d="M824.2603,1839.5138 C828.2603,1839.5138 831.2603,1839.5138 835.2603,1835.5138 C843.2603,1835.5138 851.2603,1843.5138 851.2603,1851.5138 L851.2603,1855.5138 C851.2603,1859.5138 847.2603,1863.5138 843.2603,1863.5138 L805.2603,1863.5138 C801.2603,1863.5138 797.2603,1859.5138 797.2603,1855.5138 L797.2603,1851.5138 C797.2603,1843.5138 805.2603,1835.5138 813.2603,1835.5138 C817.2603,1839.5138 820.2603,1839.5138 824.2603,1839.5138" fill="#F1F1F1" style="stroke:#181818;stroke-width:0.5;"/><text fill="#000000" font-family="sans-serif" font-size="14" lengthAdjust="spacing" textLength="136.5205" x="756" y="1877.0089">Notification Service</text><text fill="#000000" font-family="sans-serif" font-size="14" font-style="italic" lengthAdjust="spacing" textLength="75.2295" x="786.6455" y="1799.712">&#171;external&#187;</text></g><!--entity CAL--><g class="entity" data-qualified-name="CAL" data-source-line="10" id="ent0005"><ellipse cx="824.2654" cy="1690.5138" fill="#F1F1F1" rx="16" ry="16" style="stroke:#181818;stroke-width:0.5;"/><path d="M824.2654,1710.5138 C828.2654,1710.5138 831.2654,1710.5138 835.2654,1706.5138 C843.2654,1706.5138 851.2654,1714.5138 851.2654,1722.5138 L851.2654,1726.5138 C851.2654,1730.5138 847.2654,1734.5138 843.2654,1734.5138 L805.2654,1734.5138 C801.2654,1734.5138 797.2654,1730.5138 797.2654,1726.5138 L797.2654,1722.5138 C797.2654,1714.5138 805.2654,1706.5138 813.2654,1706.5138 C817.2654,1710.5138 820.2654,1710.5138 824.2654,1710.5138" fill="#F1F1F1" style="stroke:#181818;stroke-width:0.5;"/><text fill="#000000" font-family="sans-serif" font-size="14" lengthAdjust="spacing" textLength="89.5508" x="779.49" y="1748.0089">Calendar API</text><text fill="#000000" font-family="sans-serif" font-size="14" font-style="italic" lengthAdjust="spacing" textLength="75.2295" x="786.6506" y="1670.712">&#171;external&#187;</text></g><!--entity AU--><g class="entity" data-qualified-name="AU" data-source-line="11" id="ent0006"><ellipse cx="824.2636" cy="1948.5138" fill="#F1F1F1" rx="16" ry="16" style="stroke:#181818;stroke-width:0.5;"/><path d="M824.2636,1968.5138 C828.2636,1968.5138 831.2636,1968.5138 835.2636,1964.5138 C843.2636,1964.5138 851.2636,1972.5138 851.2636,1980.5138 L851.2636,1984.5138 C851.2636,1988.5138 847.2636,1992.5138 843.2636,1992.5138 L805.2636,1992.5138 C801.2636,1992.5138 797.2636,1988.5138 797.2636,1984.5138 L797.2636,1980.5138 C797.2636,1972.5138 805.2636,1964.5138 813.2636,1964.5138 C817.2636,1968.5138 820.2636,1968.5138 824.2636,1968.5138" fill="#F1F1F1" style="stroke:#181818;stroke-width:0.5;"/><text fill="#000000" font-family="sans-serif" font-size="14" lengthAdjust="spacing" textLength="92.9072" x="777.81" y="2006.0089">Audit Service</text><text fill="#000000" font-family="sans-serif" font-size="14" font-style="italic" lengthAdjust="spacing" textLength="75.2295" x="786.6489" y="1928.712">&#171;external&#187;</text></g><!--link E to UC1--><g class="link" data-entity-1="ent0002" data-entity-2="ent0009" data-link-type="dependency" data-source-line="47" id="lnk29"><path d="M109.59,488.0369 C137.03,488.1269 169.07,493.7169 188.17,515.5069 C204.22,533.8269 182.48,714.3669 196.17,734.5069 C219.92,769.4669 255.5375,788.5018 294.1375,800.9018" fill="none" id="E-to-UC1" style="stroke:#181818;stroke-width:1;"/><polygon fill="#181818" points="299.85,802.7369,292.5047,796.1759,295.0896,801.2076,290.0579,803.7925,299.85,802.7369" style="stroke:#181818;stroke-width:1;"/></g><!--link E to UC2--><g class="link" data-entity-1="ent0002" data-entity-2="ent0010" data-link-type="dependency" data-source-line="48" id="lnk30"><path d="M109.39,504.5069 C137.67,513.4769 170.63,529.2769 188.17,556.5069 C206.7,585.2969 174.37,838.1169 196.17,864.5069 C216.68,889.3469 242.0598,900.7673 273.6298,906.5973" fill="none" id="E-to-UC2" style="stroke:#181818;stroke-width:1;"/><polygon fill="#181818" points="279.53,907.6869,271.406,902.119,274.6131,906.7789,269.9533,909.986,279.53,907.6869" style="stroke:#181818;stroke-width:1;"/></g><!--link E to UC3--><g class="link" data-entity-1="ent0002" data-entity-2="ent0011" data-link-type="dependency" data-source-line="49" id="lnk31"><path d="M109.37,531.0069 C143.7,556.8969 183.6,588.2669 188.17,597.5069 C196.85,615.0969 183.89,935.2169 196.17,950.5069 C211.63,969.7669 227.7395,980.175 251.2195,987.885" fill="none" id="E-to-UC3" style="stroke:#181818;stroke-width:1;"/><polygon fill="#181818" points="256.92,989.7569,249.6171,983.1487,252.1695,988.197,247.1213,990.7495,256.92,989.7569" style="stroke:#181818;stroke-width:1;"/></g><!--link E to UC4--><g class="link" data-entity-1="ent0002" data-entity-2="ent0013" data-link-type="dependency" data-source-line="50" id="lnk32"><path d="M109.46,468.3069 C136.18,459.0169 167.56,454.9369 188.17,474.5069 C200.59,486.3069 185.94,614.7669 196.17,628.5069 C222.7,664.1569 263.0989,680.4701 304.0189,689.0901" fill="none" id="E-to-UC4" style="stroke:#181818;stroke-width:1;"/><polygon fill="#181818" points="309.89,690.3269,301.9078,684.5576,304.9974,689.2962,300.2588,692.3858,309.89,690.3269" style="stroke:#181818;stroke-width:1;"/></g><!--link E to UC8--><g class="link" data-entity-1="ent0002" data-entity-2="ent0018" data-link-type="dependency" data-source-line="51" id="lnk33"><path d="M66.88,454.7869 C81.8,395.1369 119.05,281.5869 196.17,223.5069 C226.2,200.8869 260.0132,191.3359 295.8832,187.0059" fill="none" id="E-to-UC8" style="stroke:#181818;stroke-width:1;"/><polygon fill="#181818" points="301.84,186.2869,292.4255,183.3943,296.876,186.8861,293.3842,191.3366,301.84,186.2869" style="stroke:#181818;stroke-width:1;"/></g><!--link E to UC9--><g class="link" data-entity-1="ent0002" data-entity-2="ent0019" data-link-type="dependency" data-source-line="52" id="lnk34"><path d="M59.32,454.6369 C63.23,377.4069 84.66,206.9969 196.17,147.5069 C391.52,43.2969 665.7505,126.181 773.2505,165.821" fill="none" id="E-to-UC9" style="stroke:#181818;stroke-width:1;"/><polygon fill="#181818" points="778.88,167.8969,771.8197,161.0301,774.1888,166.167,769.0519,168.5361,778.88,167.8969" style="stroke:#181818;stroke-width:1;"/></g><!--link E to UC10--><g class="link" data-entity-1="ent0002" data-entity-2="ent0020" data-link-type="dependency" data-source-line="53" id="lnk35"><path d="M93.77,454.4469 C120.06,426.8569 157.91,390.3469 196.17,364.5069 C233.78,339.1069 274.0745,319.7016 311.9545,303.8616" fill="none" id="E-to-UC10" style="stroke:#181818;stroke-width:1;"/><polygon fill="#181818" points="317.49,301.5469,307.6436,301.3286,312.8771,303.4758,310.7299,308.7093,317.49,301.5469" style="stroke:#181818;stroke-width:1;"/></g><!--link E to UC11--><g class="link" data-entity-1="ent0002" data-entity-2="ent0022" data-link-type="dependency" data-source-line="54" id="lnk36"><path d="M87.38,532.6469 C102.15,551.9069 120.85,575.0969 139.17,594.5069 C159.25,615.7969 175.98,611.8969 188.17,638.5069 C197.58,659.0769 183.21,1026.9769 196.17,1045.5069 C225.76,1087.8269 276.6007,1105.4823 321.4407,1113.8023" fill="none" id="E-to-UC11" style="stroke:#181818;stroke-width:1;"/><polygon fill="#181818" points="327.34,1114.8969,319.2208,1109.3221,322.4239,1113.9847,317.7613,1117.1878,327.34,1114.8969" style="stroke:#181818;stroke-width:1;"/></g><!--link E to UC12--><g class="link" data-entity-1="ent0002" data-entity-2="ent0023" data-link-type="dependency" data-source-line="55" id="lnk37"><path d="M61.53,532.6269 C68.5,614.1269 89.27,807.3769 139.17,961.5069 C154.41,1008.5969 174.95,1013.8169 188.17,1061.5069 C193.77,1081.7169 182.19,1139.8869 196.17,1155.5069 C221.95,1184.3369 256.4639,1194.9214 293.9639,1198.2814" fill="none" id="E-to-UC12" style="stroke:#181818;stroke-width:1;"/><polygon fill="#181818" points="299.94,1198.8169,291.3329,1194.0297,294.96,1198.3707,290.6189,1201.9977,299.94,1198.8169" style="stroke:#181818;stroke-width:1;"/></g><!--link S to UC13--><g class="link" data-entity-1="ent0003" data-entity-2="ent0024" data-link-type="dependency" data-source-line="57" id="lnk38"><path d="M88.77,1381.2869 C148.66,1359.0169 276.9761,1311.3177 345.0561,1286.0077" fill="none" id="S-to-UC13" style="stroke:#181818;stroke-width:1;"/><polygon fill="#181818" points="350.68,1283.9169,340.8502,1283.3038,345.9934,1285.6592,343.638,1290.8024,350.68,1283.9169" style="stroke:#181818;stroke-width:1;"/></g><!--link S to UC14--><g class="link" data-entity-1="ent0003" data-entity-2="ent0026" data-link-type="dependency" data-source-line="58" id="lnk39"><path d="M88.77,1392.5069 C125.09,1392.5069 182.64,1392.5069 242.22,1392.5069" fill="none" id="S-to-UC14" style="stroke:#181818;stroke-width:1;"/><polygon fill="#181818" points="248.22,1392.5069,239.22,1388.5069,243.22,1392.5069,239.22,1396.5069,248.22,1392.5069" style="stroke:#181818;stroke-width:1;"/></g><!--link S to UC15--><g class="link" data-entity-1="ent0003" data-entity-2="ent0027" data-link-type="dependency" data-source-line="59" id="lnk40"><path d="M88.88,1404.3469 C116.55,1414.9169 158.74,1430.3869 196.17,1441.5069 C227.86,1450.9269 257.0102,1458.4198 288.5602,1465.8598" fill="none" id="S-to-UC15" style="stroke:#181818;stroke-width:1;"/><polygon fill="#181818" points="294.4,1467.2369,286.5583,1461.278,289.5335,1466.0893,284.7222,1469.0644,294.4,1467.2369" style="stroke:#181818;stroke-width:1;"/></g><!--link UC4 to UC5--><g class="link" data-entity-1="ent0013" data-entity-2="ent0014" data-link-type="dependency" data-source-line="61" id="lnk41"><path d="M307.2,705.3469 C262.77,703.7869 211.78,693.0469 182.13,657.0069 C173.2,646.1469 102.19,561.7469 196.17,452.5069 C215.15,430.4369 236.6962,419.3592 265.0262,412.5492" fill="none" id="UC4-to-UC5" style="stroke:#181818;stroke-width:1;stroke-dasharray:7,7;"/><polygon fill="#181818" points="270.86,411.1469,261.1744,409.3612,265.9985,412.3155,263.0442,417.1396,270.86,411.1469" style="stroke:#181818;stroke-width:1;"/><text fill="#000000" font-family="sans-serif" font-size="13" lengthAdjust="spacing" textLength="47.0996" x="140.17" y="653.0738">include</text></g><!--link UC4 to UC6--><g class="link" data-entity-1="ent0013" data-entity-2="ent0015" data-link-type="dependency" data-source-line="62" id="lnk42"><path d="M327.8,713.0569 C280.12,719.4269 217.82,718.1469 182.13,679.0069 C168.92,664.5169 107.78,634.0869 196.17,536.5069 C218.05,512.3469 244.2221,501.2641 276.1521,495.6041" fill="none" id="UC4-to-UC6" style="stroke:#181818;stroke-width:1;stroke-dasharray:7,7;"/><polygon fill="#181818" points="282.06,494.5569,272.5,492.1892,277.1368,495.4296,273.8963,500.0663,282.06,494.5569" style="stroke:#181818;stroke-width:1;"/><text fill="#000000" font-family="sans-serif" font-size="13" lengthAdjust="spacing" textLength="47.0996" x="140.17" y="675.0738">include</text></g><!--link UC4 to UC7--><g class="link" data-entity-1="ent0013" data-entity-2="ent0016" data-link-type="dependency" data-source-line="63" id="lnk43"><path d="M393.12,677.7669 C393.12,659.3969 393.12,638.3669 393.12,617.7869" fill="none" id="UC4-to-UC7" style="stroke:#181818;stroke-width:1;stroke-dasharray:7,7;"/><polygon fill="#181818" points="393.12,611.7869,389.12,620.7869,393.12,616.7869,397.12,620.7869,393.12,611.7869" style="stroke:#181818;stroke-width:1;"/><text fill="#000000" font-family="sans-serif" font-size="13" lengthAdjust="spacing" textLength="45.2778" x="351.747" y="641.7838">extend</text><text fill="#000000" font-family="sans-serif" font-size="13" lengthAdjust="spacing" textLength="110.5317" x="319.12" y="656.9166">[&#1077;&#1089;&#1083;&#1080; &#1076;&#1086;&#1089;&#1090;&#1091;&#1087;&#1077;&#1085;]</text></g><!--link UC4 to UC14--><g class="link" data-entity-1="ent0013" data-entity-2="ent0026" data-link-type="dependency" data-source-line="64" id="lnk44"><path d="M316.55,709.7369 C274.34,720.0769 224.83,739.8369 196.17,777.5069 C162.19,822.1769 185.26,846.9669 182.13,903.0069 C172.25,1080.3969 97.41,1154.8269 196.17,1302.5069 C218.16,1335.3969 249.7333,1354.3735 285.9233,1367.7735" fill="none" id="UC4-to-UC14" style="stroke:#181818;stroke-width:1;stroke-dasharray:7,7;"/><polygon fill="#181818" points="291.55,1369.8569,284.4989,1362.9807,286.8611,1368.1207,281.7211,1370.4829,291.55,1369.8569" style="stroke:#181818;stroke-width:1;"/><text fill="#000000" font-family="sans-serif" font-size="13" lengthAdjust="spacing" textLength="47.0996" x="140.17" y="916.0738">include</text></g><!--link UC4 to UC16--><g class="link" data-entity-1="ent0013" data-entity-2="ent0028" data-link-type="dependency" data-source-line="65" id="lnk45"><path d="M315.15,709.1969 C272.75,719.3469 223.51,739.0969 196.17,777.5069 C120.69,883.5369 185.25,939.8969 182.13,1070.0069 C179.65,1173.4669 129.82,1456.0869 196.17,1535.5069 C217.74,1561.3369 245.0072,1572.7175 278.0372,1578.0675" fill="none" id="UC4-to-UC16" style="stroke:#181818;stroke-width:1;stroke-dasharray:7,7;"/><polygon fill="#181818" points="283.96,1579.0269,275.7153,1573.6393,279.0243,1578.2274,274.4362,1581.5364,283.96,1579.0269" style="stroke:#181818;stroke-width:1;"/><text fill="#000000" font-family="sans-serif" font-size="13" lengthAdjust="spacing" textLength="47.0996" x="140.17" y="1083.0738">include</text></g><!--link UC11 to UC15--><g class="link" data-entity-1="ent0022" data-entity-2="ent0027" data-link-type="dependency" data-source-line="67" id="lnk46"><path d="M327.75,1114.4969 C284.34,1113.7069 229.42,1120.8169 196.17,1155.5069 C162.52,1190.6169 185.26,1215.4869 182.13,1264.0069 C177.05,1342.9769 144.47,1381.5969 196.17,1441.5069 C212.82,1460.8069 230.0927,1471.1909 254.5327,1478.6709" fill="none" id="UC11-to-UC15" style="stroke:#181818;stroke-width:1;stroke-dasharray:7,7;"/><polygon fill="#181818" points="260.27,1480.4269,252.8347,1473.9681,255.4889,1478.9636,250.4934,1481.6178,260.27,1480.4269" style="stroke:#181818;stroke-width:1;"/><text fill="#000000" font-family="sans-serif" font-size="13" lengthAdjust="spacing" textLength="47.0996" x="140.17" y="1277.0738">include</text></g><!--link UC11 to UC16--><g class="link" data-entity-1="ent0022" data-entity-2="ent0028" data-link-type="dependency" data-source-line="68" id="lnk47"><path d="M328.26,1114.1169 C284.52,1113.0269 228.98,1119.9269 196.17,1155.5069 C149.13,1206.5269 185.26,1241.6869 182.13,1311.0069 C177.64,1410.8769 130.69,1459.9669 196.17,1535.5069 C218.04,1560.7369 245.0815,1572.0014 277.8115,1577.4514" fill="none" id="UC11-to-UC16" style="stroke:#181818;stroke-width:1;stroke-dasharray:7,7;"/><polygon fill="#181818" points="283.73,1578.4369,275.5092,1573.0129,278.7979,1577.6156,274.1952,1580.9043,283.73,1578.4369" style="stroke:#181818;stroke-width:1;"/><text fill="#000000" font-family="sans-serif" font-size="13" lengthAdjust="spacing" textLength="47.0996" x="140.17" y="1324.0738">include</text></g><!--link UC12 to UC15--><g class="link" data-entity-1="ent0023" data-entity-2="ent0027" data-link-type="dependency" data-source-line="69" id="lnk48"><path d="M318.97,1180.8869 C272.53,1177.0169 215.36,1181.6969 182.13,1219.0069 C116.23,1293.0069 132.16,1365.8769 196.17,1441.5069 C212.58,1460.8969 229.6764,1471.3187 253.9964,1478.8187" fill="none" id="UC12-to-UC15" style="stroke:#181818;stroke-width:1;stroke-dasharray:7,7;"/><polygon fill="#181818" points="259.73,1480.5869,252.3084,1474.1123,254.952,1479.1134,249.9509,1481.757,259.73,1480.5869" style="stroke:#181818;stroke-width:1;"/><text fill="#000000" font-family="sans-serif" font-size="13" lengthAdjust="spacing" textLength="47.0996" x="140.17" y="1232.0738">include</text></g><!--link UC12 to UC16--><g class="link" data-entity-1="ent0023" data-entity-2="ent0028" data-link-type="dependency" data-source-line="70" id="lnk49"><path d="M298.49,1192.7669 C262.38,1196.8969 223.4,1207.8969 196.17,1233.5069 C178.26,1250.3569 185.28,1262.6269 182.13,1287.0069 C167.98,1396.7169 124.01,1451.6669 196.17,1535.5069 C218,1560.8869 245.1402,1572.1693 277.9602,1577.5893" fill="none" id="UC12-to-UC16" style="stroke:#181818;stroke-width:1;stroke-dasharray:7,7;"/><polygon fill="#181818" points="283.88,1578.5669,275.652,1573.1539,278.9468,1577.7522,274.3485,1581.047,283.88,1578.5669" style="stroke:#181818;stroke-width:1;"/><text fill="#000000" font-family="sans-serif" font-size="13" lengthAdjust="spacing" textLength="47.0996" x="140.17" y="1300.0738">include</text></g><!--link UC8 to UC14--><g class="link" data-entity-1="ent0018" data-entity-2="ent0026" data-link-type="dependency" data-source-line="72" id="lnk50"><path d="M305.7,179.3569 C266.18,181.6369 222.53,192.2169 196.17,223.5069 C91.58,347.6969 178.87,791.6769 182.13,954.0069 C185.25,1108.9969 109.77,1173.8069 196.17,1302.5069 C218.22,1335.3569 249.8035,1354.333 285.9835,1367.733" fill="none" id="UC8-to-UC14" style="stroke:#181818;stroke-width:1;stroke-dasharray:7,7;"/><polygon fill="#181818" points="291.61,1369.8169,284.5595,1362.9401,286.9213,1368.0803,281.781,1370.442,291.61,1369.8169" style="stroke:#181818;stroke-width:1;"/><text fill="#000000" font-family="sans-serif" font-size="13" lengthAdjust="spacing" textLength="47.0996" x="140.17" y="950.0738">include</text></g><!--reverse link UC8 to UC9--><g class="link" data-entity-1="ent0018" data-entity-2="ent0019" data-link-type="dependency" data-source-line="73" id="lnk51"><path d="M490.6,185.5069 C564.62,185.5069 662.66,185.5069 735.84,185.5069" fill="none" id="UC8-backto-UC9" style="stroke:#181818;stroke-width:1;stroke-dasharray:7,7;"/><polygon fill="#181818" points="484.6,185.5069,493.6,189.5069,489.6,185.5069,493.6,181.5069,484.6,185.5069" style="stroke:#181818;stroke-width:1;"/><text fill="#000000" font-family="sans-serif" font-size="13" lengthAdjust="spacing" textLength="45.2778" x="616.57" y="181.5738">extend</text></g><!--link UC7 to CAL--><g class="link" data-entity-1="ent0016" data-entity-2="ent0005" data-link-type="dependency" data-source-line="75" id="lnk52"><path d="M478.3,604.9569 C508.51,616.9069 540.36,634.6469 561.72,660.5069 C692.53,818.8969 790.7531,1469.4141 816.0931,1651.5241" fill="none" id="UC7-to-CAL" style="stroke:#181818;stroke-width:1;"/><polygon fill="#181818" points="816.92,1657.4669,819.6415,1648.0015,816.2309,1652.5146,811.7178,1649.104,816.92,1657.4669" style="stroke:#181818;stroke-width:1;"/><text fill="#000000" font-family="sans-serif" font-size="13" lengthAdjust="spacing" textLength="132.8945" x="573.07" y="682.5738">create/update event</text></g><!--link UC14 to NS--><g class="link" data-entity-1="ent0026" data-entity-2="ent0004" data-link-type="dependency" data-source-line="76" id="lnk53"><path d="M517.57,1408.8669 C534.69,1416.2869 550.3,1426.7769 561.72,1441.5069 C583.71,1469.8969 549.84,1736.3069 572.07,1764.5069 C577.92,1771.9369 677.5163,1797.663 749.9163,1815.613" fill="none" id="UC14-to-NS" style="stroke:#181818;stroke-width:1;"/><polygon fill="#181818" points="755.74,1817.0569,747.967,1811.0086,750.8869,1815.8537,746.0419,1818.7735,755.74,1817.0569" style="stroke:#181818;stroke-width:1;"/><text fill="#000000" font-family="sans-serif" font-size="13" lengthAdjust="spacing" textLength="108.5005" x="585.07" y="1760.5738">send notification</text></g><!--link UC15 to NS--><g class="link" data-entity-1="ent0027" data-entity-2="ent0004" data-link-type="dependency" data-source-line="77" id="lnk54"><path d="M515.36,1502.5069 C533.31,1509.7669 549.76,1520.3069 561.72,1535.5069 C581.86,1561.1169 548.85,1805.6569 572.07,1828.5069 C619.23,1874.9569 692.907,1869.4606 749.847,1856.1706" fill="none" id="UC15-to-NS" style="stroke:#181818;stroke-width:1;"/><polygon fill="#181818" points="755.69,1854.8069,746.0164,1852.9572,750.8209,1855.9433,747.8347,1860.7478,755.69,1854.8069" style="stroke:#181818;stroke-width:1;"/><text fill="#000000" font-family="sans-serif" font-size="13" lengthAdjust="spacing" textLength="108.5005" x="585.07" y="1824.5738">send notification</text></g><!--link UC16 to AU--><g class="link" data-entity-1="ent0028" data-entity-2="ent0006" data-link-type="dependency" data-source-line="78" id="lnk55"><path d="M401.06,1602.0169 C419.01,1660.8769 472.66,1811.1369 572.07,1889.5069 C632.52,1937.1669 717.0734,1953.0847 771.3434,1958.8347" fill="none" id="UC16-to-AU" style="stroke:#181818;stroke-width:1;"/><polygon fill="#181818" points="777.31,1959.4669,768.7815,1954.5409,772.3378,1958.9401,767.9386,1962.4964,777.31,1959.4669" style="stroke:#181818;stroke-width:1;"/><text fill="#000000" font-family="sans-serif" font-size="13" lengthAdjust="spacing" textLength="60.9756" x="609.07" y="1885.5738">log event</text></g><?plantuml-src dLRBRjD05DtxAwwwXeBJz1LLbKfWWOGGKkWAM5ZE4Am6ft9S7a98BIaKYQe8X4Gtl0GVOA96YKBY_iBCB_0bd3j-nOafZrPo9ZFtdZdtdEkP-8xV5BJP5bIryBZiM0tFkay_Tz-H_AOwSYo7weKSgDTKhf3y80FPnroW3cGFdmFP8pp6wfdigLtPLOVg21CyrvSZ7PA4gJq41UgPwgWz6P0CyNKeVs1jA0F3Q8gxFlajyfp6FP_gZYTitscvHdlBSRSjfcJPVikh-Oz1rteesgtxOc9nforiyB_Kykh2ktdFiRTSqMwJERze63gHvkHdaF-kzmtb2LC1jn_gS8wiDbr9exumHQptk2gzLalMhhTyvwvZMqoCQi9xuDX2HrolqTgQUEGBpxMQw-j9VDLg2hTkURHnuwgEgsvSAmpSsAaxVWvnOpCVQB0Ubjj0yNFJlaHc7S-wC2dvbE1pzCGmYBOjUyjgCEPNUOhKG7OHaJgRIu6V0quZ_CLo8-yJia8uEk9WZ7ju7c9dUGfoUr1wc8S9PLSNk5arfv2EPHz43v2c4G25YIFk8jBRZs7A83OkY35Aqsoq03rKqTF53tAR4tSk8mTOdA0SbHj3BW3oQLwRl-dwMMKciwAQPdFqZkMfnA-wtBvs3aadaONd24bCTWJFsTnzqDz54K7SfflLnJE1k6Rr2aeCLITI0e1xiMa7gXE3B4s1VD6idxFDklG-Yk5nDuMDx8dQXidkgZTo5ACjpwfPs6b_L3DnTfmvMwpcobJYHyH49z6P9gmMf_5EXMbHqMYfqrYDdZn1tMFyXsalcHTdop_-jvDnLectCF4aQOvGxQCHm2hPqIoeWy72J83VlKncgI0t1DrkjblABCbPA39Ogu7KKM9nrBA0uPDrm0qxws-8mtZY_U_CekWZINx_dOLc-NynzMcZNiOpWmHl-drw3-6YOorfVQQZNd6JC4utLs64iQJrWK9NwFpvTNti9QDIEbf8H-Lqj9AELhFSYzammu5lHYqPBsJ3SZR4BGXickSlYrGXnxMREtMHJIuLJIvZakyWjtxRlSNl7LlF1rAepuqEn81YTx84irm4Oqw26qmzdiypIQVpNCnISNIf67obaCaAhStFivHfHHoxhENXIxb2jYSiNrpOsQxZWyG3uVg6Xk4GtEyLQYEBt8cV08OcTVRwabx7RLwXPgiHuVu2?></g></svg>