<svg xmlns="http://www.w3.org/2000/svg" xmlns:xlink="http://www.w3.org/1999/xlink" contentStyleType="text/css" data-diagram-type="STATE" height="783px" preserveAspectRatio="none" style="width:943px;height:783px;background:#FFFFFF;" version="1.1" viewBox="0 0 943 783" width="943px" zoomAndPan="magnify"><?plantuml 1.2026.4beta2?><defs/><g><g class="title" data-source-line="1"><text fill="#000000" font-family="sans-serif" font-size="14" font-weight="700" lengthAdjust="spacing" textLength="403.6143" x="266.3141" y="22.9951">State Diagram &#8212; &#1046;&#1080;&#1079;&#1085;&#1077;&#1085;&#1085;&#1099;&#1081; &#1094;&#1080;&#1082;&#1083; &#1088;&#1077;&#1082;&#1086;&#1084;&#1077;&#1085;&#1076;&#1072;&#1094;&#1080;&#1080;</text></g><path d="M340.82,155.2969 L566.9596,155.2969 A12.5,12.5 0 0 1 579.4596,167.7969 L579.4596,180.4297 L328.32,180.4297 L328.32,167.7969 A12.5,12.5 0 0 1 340.82,155.2969" fill="#F1F1F1"/><rect fill="none" height="105.5313" rx="12.5" ry="12.5" style="stroke:#181818;stroke-width:1.5;" width="251.1396" x="328.32" y="155.2969"/><line style="stroke:#181818;stroke-width:1.5;" x1="328.32" x2="579.4596" y1="180.4297" y2="180.4297"/><text fill="#000000" font-family="sans-serif" font-size="13" lengthAdjust="spacing" textLength="105.4028" x="401.1884" y="172.3638">&#1057;&#1075;&#1077;&#1085;&#1077;&#1088;&#1080;&#1088;&#1086;&#1074;&#1072;&#1085;&#1072;</text><g class="entity" data-qualified-name="..............N1" data-source-line="11" id="ent0003"><path d="M339.32,191.4297 L339.32,246.8281 L555.4596,246.8281 L555.4596,201.4297 L545.4596,191.4297 L339.32,191.4297" fill="#FEFFDD" style="stroke:#181818;stroke-width:0.5;"/><path d="M545.4596,191.4297 L545.4596,201.4297 L555.4596,201.4297 L545.4596,191.4297" fill="#FEFFDD" style="stroke:#181818;stroke-width:1;"/><text fill="#000000" font-family="sans-serif" font-size="13" lengthAdjust="spacing" textLength="186.9321" x="345.32" y="208.4966">&#1056;&#1077;&#1082;&#1086;&#1084;&#1077;&#1085;&#1076;&#1072;&#1094;&#1080;&#1103; &#1088;&#1072;&#1089;&#1089;&#1095;&#1080;&#1090;&#1072;&#1085;&#1072;,</text><text fill="#000000" font-family="sans-serif" font-size="13" lengthAdjust="spacing" textLength="107.9419" x="345.32" y="223.6294">score &#1087;&#1088;&#1080;&#1089;&#1074;&#1086;&#1077;&#1085;.</text><text fill="#000000" font-family="sans-serif" font-size="13" lengthAdjust="spacing" textLength="195.1396" x="345.32" y="238.7622">&#1061;&#1088;&#1072;&#1085;&#1080;&#1090;&#1089;&#1103; &#1074; &#1041;&#1044; &#1080; &#1082;&#1101;&#1096;&#1077; Redis.</text></g><path d="M31.57,352.8269 L284.2048,352.8269 A12.5,12.5 0 0 1 296.7048,365.3269 L296.7048,377.9597 L19.07,377.9597 L19.07,365.3269 A12.5,12.5 0 0 1 31.57,352.8269" fill="#F1F1F1"/><rect fill="none" height="120.6641" rx="12.5" ry="12.5" style="stroke:#181818;stroke-width:1.5;" width="277.6348" x="19.07" y="352.8269"/><line style="stroke:#181818;stroke-width:1.5;" x1="19.07" x2="296.7048" y1="377.9597" y2="377.9597"/><text fill="#000000" font-family="sans-serif" font-size="13" lengthAdjust="spacing" textLength="91.1777" x="112.2985" y="369.8938">&#1055;&#1088;&#1086;&#1089;&#1084;&#1086;&#1090;&#1088;&#1077;&#1085;&#1072;</text><g class="entity" data-qualified-name="............N2" data-source-line="21" id="ent0005"><path d="M30.07,388.9597 L30.07,459.4909 L272.7048,459.4909 L272.7048,398.9597 L262.7048,388.9597 L30.07,388.9597" fill="#FEFFDD" style="stroke:#181818;stroke-width:0.5;"/><path d="M262.7048,388.9597 L262.7048,398.9597 L272.7048,398.9597 L262.7048,388.9597" fill="#FEFFDD" style="stroke:#181818;stroke-width:1;"/><text fill="#000000" font-family="sans-serif" font-size="13" lengthAdjust="spacing" textLength="102.9399" x="36.07" y="406.0266">&#1057;&#1090;&#1091;&#1076;&#1077;&#1085;&#1090; &#1074;&#1080;&#1076;&#1077;&#1083;</text><text fill="#000000" font-family="sans-serif" font-size="13" lengthAdjust="spacing" textLength="107.688" x="36.07" y="421.1594">&#1088;&#1077;&#1082;&#1086;&#1084;&#1077;&#1085;&#1076;&#1072;&#1094;&#1080;&#1102;.</text><text fill="#000000" font-family="sans-serif" font-size="13" lengthAdjust="spacing" textLength="113.0391" x="36.07" y="436.2922">is_viewed = true.</text><text fill="#000000" font-family="sans-serif" font-size="13" lengthAdjust="spacing" textLength="221.6348" x="36.07" y="451.425">&#1047;&#1072;&#1089;&#1095;&#1080;&#1090;&#1099;&#1074;&#1072;&#1077;&#1090;&#1089;&#1103; &#1074; recall-&#1084;&#1077;&#1090;&#1088;&#1080;&#1082;&#1091;.</text></g><path d="M19.5,565.4969 L234.271,565.4969 A12.5,12.5 0 0 1 246.771,577.9969 L246.771,590.6297 L7,590.6297 L7,577.9969 A12.5,12.5 0 0 1 19.5,565.4969" fill="#F1F1F1"/><rect fill="none" height="120.6641" rx="12.5" ry="12.5" style="stroke:#181818;stroke-width:1.5;" width="239.771" x="7" y="565.4969"/><line style="stroke:#181818;stroke-width:1.5;" x1="7" x2="246.771" y1="590.6297" y2="590.6297"/><text fill="#000000" font-family="sans-serif" font-size="13" lengthAdjust="spacing" textLength="179.8926" x="36.9392" y="582.5638">&#1055;&#1086;&#1076;&#1090;&#1074;&#1077;&#1088;&#1078;&#1076;&#1105;&#1085;&#1085;&#1072;&#1054;&#1090;&#1082;&#1083;&#1080;&#1082;&#1086;&#1084;</text><g class="entity" data-qualified-name="......................N3" data-source-line="31" id="ent0007"><path d="M18,601.6297 L18,672.1609 L222.771,672.1609 L222.771,611.6297 L212.771,601.6297 L18,601.6297" fill="#FEFFDD" style="stroke:#181818;stroke-width:0.5;"/><path d="M212.771,601.6297 L212.771,611.6297 L222.771,611.6297 L212.771,601.6297" fill="#FEFFDD" style="stroke:#181818;stroke-width:1;"/><text fill="#000000" font-family="sans-serif" font-size="13" lengthAdjust="spacing" textLength="161.2876" x="24" y="618.6966">&#1056;&#1077;&#1082;&#1086;&#1084;&#1077;&#1085;&#1076;&#1072;&#1094;&#1080;&#1103; &#1087;&#1088;&#1080;&#1074;&#1077;&#1083;&#1072;</text><text fill="#000000" font-family="sans-serif" font-size="13" lengthAdjust="spacing" textLength="71.7983" x="24" y="633.8294">&#1082; &#1086;&#1090;&#1082;&#1083;&#1080;&#1082;&#1091;.</text><text fill="#000000" font-family="sans-serif" font-size="13" lengthAdjust="spacing" textLength="183.771" x="24" y="648.9622">&#1059;&#1095;&#1080;&#1090;&#1099;&#1074;&#1072;&#1077;&#1090;&#1089;&#1103; &#1074; Precision@5</text><text fill="#000000" font-family="sans-serif" font-size="13" lengthAdjust="spacing" textLength="151.0361" x="24" y="664.095">&#1080; &#1084;&#1077;&#1090;&#1088;&#1080;&#1082;&#1077; &#1082;&#1086;&#1085;&#1074;&#1077;&#1088;&#1089;&#1080;&#1080;.</text></g><path d="M294.54,565.4969 L503.2299,565.4969 A12.5,12.5 0 0 1 515.7299,577.9969 L515.7299,590.6297 L282.04,590.6297 L282.04,577.9969 A12.5,12.5 0 0 1 294.54,565.4969" fill="#F1F1F1"/><rect fill="none" height="120.6641" rx="12.5" ry="12.5" style="stroke:#181818;stroke-width:1.5;" width="233.6899" x="282.04" y="565.4969"/><line style="stroke:#181818;stroke-width:1.5;" x1="282.04" x2="515.7299" y1="590.6297" y2="590.6297"/><text fill="#000000" font-family="sans-serif" font-size="13" lengthAdjust="spacing" textLength="122.7129" x="337.5285" y="582.5638">&#1055;&#1088;&#1086;&#1080;&#1075;&#1085;&#1086;&#1088;&#1080;&#1088;&#1086;&#1074;&#1072;&#1085;&#1072;</text><g class="entity" data-qualified-name="................N4" data-source-line="35" id="ent0009"><path d="M293.04,601.6297 L293.04,672.1609 L491.7299,672.1609 L491.7299,611.6297 L481.7299,601.6297 L293.04,601.6297" fill="#FEFFDD" style="stroke:#181818;stroke-width:0.5;"/><path d="M481.7299,601.6297 L481.7299,611.6297 L491.7299,611.6297 L481.7299,601.6297" fill="#FEFFDD" style="stroke:#181818;stroke-width:1;"/><text fill="#000000" font-family="sans-serif" font-size="13" lengthAdjust="spacing" textLength="177.6899" x="299.04" y="618.6966">&#1057;&#1090;&#1091;&#1076;&#1077;&#1085;&#1090; &#1074;&#1080;&#1076;&#1077;&#1083; &#1074;&#1072;&#1082;&#1072;&#1085;&#1089;&#1080;&#1102;,</text><text fill="#000000" font-family="sans-serif" font-size="13" lengthAdjust="spacing" textLength="132.8057" x="299.04" y="633.8294">&#1085;&#1086; &#1085;&#1077; &#1086;&#1090;&#1082;&#1083;&#1080;&#1082;&#1085;&#1091;&#1083;&#1089;&#1103;.</text><text fill="#000000" font-family="sans-serif" font-size="13" lengthAdjust="spacing" textLength="123.6904" x="299.04" y="648.9622">&#1048;&#1089;&#1087;&#1086;&#1083;&#1100;&#1079;&#1091;&#1077;&#1090;&#1089;&#1103; &#1076;&#1083;&#1103;</text><text fill="#000000" font-family="sans-serif" font-size="13" lengthAdjust="spacing" textLength="135.8081" x="299.04" y="664.095">&#1091;&#1083;&#1091;&#1095;&#1096;&#1077;&#1085;&#1080;&#1103; &#1084;&#1086;&#1076;&#1077;&#1083;&#1080;.</text></g><path d="M449.09,360.3969 L650.6896,360.3969 A12.5,12.5 0 0 1 663.1896,372.8969 L663.1896,385.5297 L436.59,385.5297 L436.59,372.8969 A12.5,12.5 0 0 1 449.09,360.3969" fill="#F1F1F1"/><rect fill="none" height="105.5313" rx="12.5" ry="12.5" style="stroke:#181818;stroke-width:1.5;" width="226.5996" x="436.59" y="360.3969"/><line style="stroke:#181818;stroke-width:1.5;" x1="436.59" x2="663.1896" y1="385.5297" y2="385.5297"/><text fill="#000000" font-family="sans-serif" font-size="13" lengthAdjust="spacing" textLength="63.1338" x="518.3229" y="377.4638">&#1059;&#1089;&#1090;&#1072;&#1088;&#1077;&#1083;&#1072;</text><g class="entity" data-qualified-name=".........N5" data-source-line="39" id="ent0011"><path d="M447.59,396.5297 L447.59,451.9281 L639.1896,451.9281 L639.1896,406.5297 L629.1896,396.5297 L447.59,396.5297" fill="#FEFFDD" style="stroke:#181818;stroke-width:0.5;"/><path d="M629.1896,396.5297 L629.1896,406.5297 L639.1896,406.5297 L629.1896,396.5297" fill="#FEFFDD" style="stroke:#181818;stroke-width:1;"/><text fill="#000000" font-family="sans-serif" font-size="13" lengthAdjust="spacing" textLength="163.6934" x="453.59" y="413.5966">&#1050;&#1101;&#1096; &#1080;&#1089;&#1090;&#1105;&#1082; (TTL=3600s).</text><text fill="#000000" font-family="sans-serif" font-size="13" lengthAdjust="spacing" textLength="170.5996" x="453.59" y="428.7294">&#1055;&#1088;&#1080; &#1089;&#1083;&#1077;&#1076;&#1091;&#1102;&#1097;&#1077;&#1084; &#1079;&#1072;&#1087;&#1088;&#1086;&#1089;&#1077;</text><text fill="#000000" font-family="sans-serif" font-size="13" lengthAdjust="spacing" textLength="136.5635" x="453.59" y="443.8622">&#1073;&#1091;&#1076;&#1077;&#1090; &#1087;&#1077;&#1088;&#1077;&#1089;&#1095;&#1080;&#1090;&#1072;&#1085;&#1072;.</text></g><path d="M563.65,573.0569 L786.1207,573.0569 A12.5,12.5 0 0 1 798.6207,585.5569 L798.6207,598.1897 L551.15,598.1897 L551.15,585.5569 A12.5,12.5 0 0 1 563.65,573.0569" fill="#F1F1F1"/><rect fill="none" height="105.5313" rx="12.5" ry="12.5" style="stroke:#181818;stroke-width:1.5;" width="247.4707" x="551.15" y="573.0569"/><line style="stroke:#181818;stroke-width:1.5;" x1="551.15" x2="798.6207" y1="598.1897" y2="598.1897"/><text fill="#000000" font-family="sans-serif" font-size="13" lengthAdjust="spacing" textLength="122.0464" x="613.8622" y="590.1238">&#1053;&#1077;&#1076;&#1077;&#1081;&#1089;&#1090;&#1074;&#1080;&#1090;&#1077;&#1083;&#1100;&#1085;&#1072;</text><g class="entity" data-qualified-name="................N6" data-source-line="45" id="ent0013"><path d="M562.15,609.1897 L562.15,664.5881 L774.6207,664.5881 L774.6207,619.1897 L764.6207,609.1897 L562.15,609.1897" fill="#FEFFDD" style="stroke:#181818;stroke-width:0.5;"/><path d="M764.6207,609.1897 L764.6207,619.1897 L774.6207,619.1897 L764.6207,609.1897" fill="#FEFFDD" style="stroke:#181818;stroke-width:1;"/><text fill="#000000" font-family="sans-serif" font-size="13" lengthAdjust="spacing" textLength="191.4707" x="568.15" y="626.2566">&#1042;&#1072;&#1082;&#1072;&#1085;&#1089;&#1080;&#1103; &#1079;&#1072;&#1082;&#1088;&#1099;&#1090;&#1072;/&#1091;&#1076;&#1072;&#1083;&#1077;&#1085;&#1072;.</text><text fill="#000000" font-family="sans-serif" font-size="13" lengthAdjust="spacing" textLength="153.207" x="568.15" y="641.3894">&#1056;&#1077;&#1082;&#1086;&#1084;&#1077;&#1085;&#1076;&#1072;&#1094;&#1080;&#1103; &#1089;&#1082;&#1088;&#1099;&#1090;&#1072;</text><text fill="#000000" font-family="sans-serif" font-size="13" lengthAdjust="spacing" textLength="96.8208" x="568.15" y="656.5222">&#1076;&#1083;&#1103; &#1089;&#1090;&#1091;&#1076;&#1077;&#1085;&#1090;&#1072;.</text></g><g class="start_entity" data-qualified-name=".start." data-source-line="8" id="ent0002"><ellipse cx="453.89" cy="53.2969" fill="#222222" rx="10" ry="10" style="stroke:#222222;stroke-width:1;"/></g><g class="end_entity" data-qualified-name=".end." data-source-line="48" id="ent0011"><ellipse cx="398.89" cy="758.1569" fill="none" rx="11" ry="11" style="stroke:#222222;stroke-width:1;"/><ellipse cx="398.89" cy="758.1569" fill="#222222" rx="6" ry="6" style="stroke:#222222;stroke-width:1;"/></g><!--link *start* to ?????????????--><g class="link" data-entity-1="ent0002" data-entity-2="ent0002" data-link-type="dependency" data-source-line="8" id="lnk3"><path d="M453.89,63.3969 C453.89,81.1269 453.89,115.4869 453.89,148.9269" fill="none" id="*start*-to-&#1057;&#1075;&#1077;&#1085;&#1077;&#1088;&#1080;&#1088;&#1086;&#1074;&#1072;&#1085;&#1072;" style="stroke:#181818;stroke-width:1;"/><polygon fill="#181818" points="453.89,154.9269,457.89,145.9269,453.89,149.9269,449.89,145.9269,453.89,154.9269" style="stroke:#181818;stroke-width:1;"/><text fill="#000000" font-family="sans-serif" font-size="13" lengthAdjust="spacing" textLength="159.3706" x="454.89" y="106.3638">RecommendationEngine</text><text fill="#000000" font-family="sans-serif" font-size="13" lengthAdjust="spacing" textLength="73.0615" x="498.0445" y="121.4966">.calculate()</text></g><!--link ????????????? to ???????????--><g class="link" data-entity-1="ent0002" data-entity-2="ent0004" data-link-type="dependency" data-source-line="14" id="lnk4"><path d="M328.24,224.7569 C248.05,237.6469 154.66,259.0169 129.89,290.8269 C116.27,308.3069 116.1523,325.5516 123.1823,346.7616" fill="none" id="&#1057;&#1075;&#1077;&#1085;&#1077;&#1088;&#1080;&#1088;&#1086;&#1074;&#1072;&#1085;&#1072;-to-&#1055;&#1088;&#1086;&#1089;&#1084;&#1086;&#1090;&#1088;&#1077;&#1085;&#1072;" style="stroke:#181818;stroke-width:1;"/><polygon fill="#181818" points="125.07,352.4569,126.0353,342.6554,123.4969,347.7108,118.4416,345.1724,125.07,352.4569" style="stroke:#181818;stroke-width:1;"/><text fill="#000000" font-family="sans-serif" font-size="13" lengthAdjust="spacing" textLength="208.7236" x="130.89" y="303.8938">student.viewRecommendation()</text><text fill="#000000" font-family="sans-serif" font-size="13" lengthAdjust="spacing" textLength="190.5693" x="139.9671" y="319.0266">[&#1089;&#1090;&#1091;&#1076;&#1077;&#1085;&#1090; &#1086;&#1090;&#1082;&#1088;&#1099;&#1083; &#1074;&#1072;&#1082;&#1072;&#1085;&#1089;&#1080;&#1102;]</text></g><!--link ????????????? to ????????--><g class="link" data-entity-1="ent0002" data-entity-2="ent0010" data-link-type="dependency" data-source-line="16" id="lnk5"><path d="M370.4,261.0969 C351.22,279.6269 340.02,301.2669 353.89,322.8269 C372.8,352.2369 398.5007,369.7713 430.5507,383.1113" fill="none" id="&#1057;&#1075;&#1077;&#1085;&#1077;&#1088;&#1080;&#1088;&#1086;&#1074;&#1072;&#1085;&#1072;-to-&#1059;&#1089;&#1090;&#1072;&#1088;&#1077;&#1083;&#1072;" style="stroke:#181818;stroke-width:1;"/><polygon fill="#181818" points="436.09,385.4169,429.3181,378.2656,431.4739,383.4955,426.2439,385.6514,436.09,385.4169" style="stroke:#181818;stroke-width:1;"/><text fill="#000000" font-family="sans-serif" font-size="13" lengthAdjust="spacing" textLength="66.2759" x="398.3492" y="303.8938">TTL &#1080;&#1089;&#1090;&#1105;&#1082;</text><text fill="#000000" font-family="sans-serif" font-size="13" lengthAdjust="spacing" textLength="153.1943" x="354.89" y="319.0266">[&#1082;&#1101;&#1096; Redis &#1087;&#1088;&#1086;&#1089;&#1088;&#1086;&#1095;&#1077;&#1085;]</text></g><!--link ???????? to ?????????????--><g class="link" data-entity-1="ent0010" data-entity-2="ent0002" data-link-type="dependency" data-source-line="42" id="lnk10"><path d="M538.01,359.9569 C532,337.9869 523.65,312.5269 512.89,290.8269 C507.91,280.7969 505.0953,275.6342 498.6253,266.0842" fill="none" id="&#1059;&#1089;&#1090;&#1072;&#1088;&#1077;&#1083;&#1072;-to-&#1057;&#1075;&#1077;&#1085;&#1077;&#1088;&#1080;&#1088;&#1086;&#1074;&#1072;&#1085;&#1072;" style="stroke:#181818;stroke-width:1;"/><polygon fill="#181818" points="495.26,261.1169,496.9964,270.8115,498.0644,265.2563,503.6195,266.3244,495.26,261.1169" style="stroke:#181818;stroke-width:1;"/><text fill="#000000" font-family="sans-serif" font-size="13" lengthAdjust="spacing" textLength="235.2632" x="526.89" y="303.8938">student.requestRecommendations()</text><text fill="#000000" font-family="sans-serif" font-size="13" lengthAdjust="spacing" textLength="73.29" x="607.8766" y="319.0266">[&#1087;&#1077;&#1088;&#1077;&#1089;&#1095;&#1105;&#1090;]</text></g><!--link ????????????? to ???????????????--><g class="link" data-entity-1="ent0002" data-entity-2="ent0012" data-link-type="dependency" data-source-line="18" id="lnk6"><path d="M579.81,225.6169 C657.61,238.7269 747,259.9969 770.89,290.8269 C836.2,375.1269 769.0266,497.3397 719.0366,567.9597" fill="none" id="&#1057;&#1075;&#1077;&#1085;&#1077;&#1088;&#1080;&#1088;&#1086;&#1074;&#1072;&#1085;&#1072;-to-&#1053;&#1077;&#1076;&#1077;&#1081;&#1089;&#1090;&#1074;&#1080;&#1090;&#1077;&#1083;&#1100;&#1085;&#1072;" style="stroke:#181818;stroke-width:1;"/><polygon fill="#181818" points="715.57,572.8569,724.0347,567.8221,718.4588,568.7759,717.5051,563.2,715.57,572.8569" style="stroke:#181818;stroke-width:1;"/><text fill="#000000" font-family="sans-serif" font-size="13" lengthAdjust="spacing" textLength="101.6133" x="811.7596" y="402.7238">vacancy.close()</text><text fill="#000000" font-family="sans-serif" font-size="13" lengthAdjust="spacing" textLength="129.3525" x="797.89" y="417.8566">[&#1074;&#1072;&#1082;&#1072;&#1085;&#1089;&#1080;&#1103; &#1079;&#1072;&#1082;&#1088;&#1099;&#1090;&#1072;</text><text fill="#000000" font-family="sans-serif" font-size="13" lengthAdjust="spacing" textLength="73.417" x="825.8578" y="432.9894">&#1080;&#1083;&#1080; &#1089;&#1085;&#1103;&#1090;&#1072;]</text></g><!--link ??????????? to ?????????????????????--><g class="link" data-entity-1="ent0004" data-entity-2="ent0006" data-link-type="dependency" data-source-line="24" id="lnk7"><path d="M149.09,473.9669 C144.88,502.5469 140.735,530.741 136.525,559.301" fill="none" id="&#1055;&#1088;&#1086;&#1089;&#1084;&#1086;&#1090;&#1088;&#1077;&#1085;&#1072;-to-&#1055;&#1086;&#1076;&#1090;&#1074;&#1077;&#1088;&#1078;&#1076;&#1105;&#1085;&#1085;&#1072;&#1054;&#1090;&#1082;&#1083;&#1080;&#1082;&#1086;&#1084;" style="stroke:#181818;stroke-width:1;"/><polygon fill="#181818" points="135.65,565.2369,140.9197,556.9164,136.3792,560.2903,133.0053,555.7498,135.65,565.2369" style="stroke:#181818;stroke-width:1;"/><text fill="#000000" font-family="sans-serif" font-size="13" lengthAdjust="spacing" textLength="170.6948" x="145.89" y="516.5638">student.applyToVacancy()</text><text fill="#000000" font-family="sans-serif" font-size="13" lengthAdjust="spacing" textLength="163.5854" x="149.4447" y="531.6966">[&#1089;&#1090;&#1091;&#1076;&#1077;&#1085;&#1090; &#1087;&#1086;&#1076;&#1072;&#1083; &#1086;&#1090;&#1082;&#1083;&#1080;&#1082;]</text></g><!--link ??????????? to ???????????????--><g class="link" data-entity-1="ent0004" data-entity-2="ent0008" data-link-type="dependency" data-source-line="26" id="lnk8"><path d="M286.76,473.7769 C300.37,482.7369 313.41,492.6569 324.89,503.4969 C343.27,520.8669 355.8357,538.5546 367.8457,559.7846" fill="none" id="&#1055;&#1088;&#1086;&#1089;&#1084;&#1086;&#1090;&#1088;&#1077;&#1085;&#1072;-to-&#1055;&#1088;&#1086;&#1080;&#1075;&#1085;&#1086;&#1088;&#1080;&#1088;&#1086;&#1074;&#1072;&#1085;&#1072;" style="stroke:#181818;stroke-width:1;"/><polygon fill="#181818" points="370.8,565.0069,369.8501,555.2039,368.3381,560.655,362.887,559.143,370.8,565.0069" style="stroke:#181818;stroke-width:1;"/><text fill="#000000" font-family="sans-serif" font-size="13" lengthAdjust="spacing" textLength="172.7642" x="351.89" y="516.5638">[&#1089;&#1090;&#1091;&#1076;&#1077;&#1085;&#1090; &#1085;&#1077; &#1086;&#1090;&#1082;&#1083;&#1080;&#1082;&#1085;&#1091;&#1083;&#1089;&#1103;</text><text fill="#000000" font-family="sans-serif" font-size="13" lengthAdjust="spacing" textLength="131.8027" x="372.3707" y="531.6966">&#1074; &#1090;&#1077;&#1095;&#1077;&#1085;&#1080;&#1077; 30 &#1076;&#1085;&#1077;&#1081;]</text></g><!--link ??????????? to ???????????????--><g class="link" data-entity-1="ent0004" data-entity-2="ent0012" data-link-type="dependency" data-source-line="28" id="lnk9"><path d="M297.2,445.7469 C399.28,469.1469 521.9,497.9069 532.89,503.4969 C567.28,520.9869 596.0359,544.2882 621.6159,568.6582" fill="none" id="&#1055;&#1088;&#1086;&#1089;&#1084;&#1086;&#1090;&#1088;&#1077;&#1085;&#1072;-to-&#1053;&#1077;&#1076;&#1077;&#1081;&#1089;&#1090;&#1074;&#1080;&#1090;&#1077;&#1083;&#1100;&#1085;&#1072;" style="stroke:#181818;stroke-width:1;"/><polygon fill="#181818" points="625.96,572.7969,622.2029,563.6928,622.3399,569.348,616.6847,569.485,625.96,572.7969" style="stroke:#181818;stroke-width:1;"/><text fill="#000000" font-family="sans-serif" font-size="13" lengthAdjust="spacing" textLength="101.6133" x="581.89" y="524.0638">vacancy.close()</text></g><!--link ????????????????????? to *end*--><g class="link" data-entity-1="ent0006" data-entity-2="ent0011" data-link-type="dependency" data-source-line="48" id="lnk12"><path d="M246.98,684.3669 C304.48,711.9169 360.4101,738.7121 383.7201,749.8921" fill="none" id="&#1055;&#1086;&#1076;&#1090;&#1074;&#1077;&#1088;&#1078;&#1076;&#1105;&#1085;&#1085;&#1072;&#1054;&#1090;&#1082;&#1083;&#1080;&#1082;&#1086;&#1084;-to-*end*" style="stroke:#181818;stroke-width:1;"/><polygon fill="#181818" points="389.13,752.4869,382.7449,744.9882,384.6217,750.3246,379.2853,752.2014,389.13,752.4869" style="stroke:#181818;stroke-width:1;"/></g><!--link ??????????????? to *end*--><g class="link" data-entity-1="ent0008" data-entity-2="ent0011" data-link-type="dependency" data-source-line="49" id="lnk13"><path d="M398.89,686.6469 C398.89,709.6669 398.89,727.5869 398.89,740.7969" fill="none" id="&#1055;&#1088;&#1086;&#1080;&#1075;&#1085;&#1086;&#1088;&#1080;&#1088;&#1086;&#1074;&#1072;&#1085;&#1072;-to-*end*" style="stroke:#181818;stroke-width:1;"/><polygon fill="#181818" points="398.89,746.7969,402.89,737.7969,398.89,741.7969,394.89,737.7969,398.89,746.7969" style="stroke:#181818;stroke-width:1;"/></g><!--link ??????????????? to *end*--><g class="link" data-entity-1="ent0012" data-entity-2="ent0011" data-link-type="dependency" data-source-line="50" id="lnk14"><path d="M564.22,679.0869 C502.73,708.1169 439.125,738.1538 414.065,749.9938" fill="none" id="&#1053;&#1077;&#1076;&#1077;&#1081;&#1089;&#1090;&#1074;&#1080;&#1090;&#1077;&#1083;&#1100;&#1085;&#1072;-to-*end*" style="stroke:#181818;stroke-width:1;"/><polygon fill="#181818" points="408.64,752.5569,418.4862,752.3288,413.1608,750.4209,415.0687,745.0955,408.64,752.5569" style="stroke:#181818;stroke-width:1;"/></g><?plantuml-src bLLTQnDH47tFhnZwr8gDhRLz42eYwfE8sE1B4sJPNEhITBVkRYfLX3O1gwWD4L4H_2Z5znWRkqsQz2_S-nVy9PwvDoQxRPf4GaBsVioSS-RCREY41K5BeHKAkkbOAxwrHd-stfFy82DvADkoWMzRlPP7f5vWgIbRfBQmsfGTUQnt3sHDRqMfLB3gkEiMnmXqn6SfeXkUdnT-vf5ZhxeY26WsFO_LsvuRBZbF1StEfPwdKiiNSZGzVOtadlobWpQG9CAt8-koXkSQNQNxmlRMreIRjqB7Ss-vAuuhicxQjWfsiO1qarD0eFCE2SEGN0zd9kJtGJHKXVdLr3O-EtWicNiNisvWUpv2d-YGsmZOuNlfh2j_y0sSmcdSgf2iawnAY1YHRAgtwgLi07pU2T8JP0LqTvOf3y6ebVZ6IyXpZD-Ibjoe48J5l733z8OZdYGLcPpAkii0K59biC5vLIA-30nRg62BT88c9q7SIEtcHgFOvtYGW_EtTFvCvWwn04XJbKraD1GDGICFOElV7OuyHf8ls6J0HpfPNQkETEfDb_A6PLkklPcs2ruWDCjJJ23v8IymJuQBcaI06n5sswh2IxcUDmOB6_F5Nb91uD4FhQmxsFbg5oPmWeTS4P6dHGhzec1VVDG-qYw2_WovqNU8Bs3SmZI7qZ3GMwhSDSXbRP31G8qvWE50QyMI_iR_AlSfCdpbUZDtWpDc66jzlR2PyHuOCGUQvOJ38aYhwniJ9pS2YoveX1AtiNcsRSzaWGyIyR5QHhMX2pIh4nVVM0UR3PgR8LpbGNGq0iX_sgXlYB7576DucFd0iRXVGAYPu8eIOst_F5FSWokS0BryVPuzJ75ti6gSiMs0il5br3MC7g9nVvzRZp5yVcPEOFXnh66LOrQVS9eTn8eVOgF7wm1BgAq-MrOxF0_rjAmmluv9sgDo9KRbzFI9WV-iXqv_4D4a1jFYtCBCJ335O5W5tVyjTWNIxgfN-7Ti9aLtIia6Jluq8XZ_imCQoT7VnJMlU_8qef4lhN_Tvul7HH64oOaTc64MIwkggjGVLSCT7LFZtT1nU4aph6afc118d_lksqvCKLqvIZPmJv45CwN6xXxM2Y_wr0Y7zeuDPzyzzXS0?></g></svg>